<svg width="40" height="60" viewBox="0 0 40 60" fill="none" xmlns="http://www.w3.org/2000/svg">
<path d="M35.2381 60H4.7619C3.18095 60 1.90476 58.7438 1.90476 57.1875V40.3125H3.80952V57.1875C3.80952 57.7031 4.2381 58.125 4.7619 58.125H35.2381C35.7619 58.125 36.1905 57.7031 36.1905 57.1875V40.3125H38.0952V57.1875C38.0952 58.7438 36.819 60 35.2381 60Z" fill="black"/>
<path d="M22.8571 56.25H17.1429C16.0952 56.25 15.2381 55.4062 15.2381 54.375V52.5C15.2381 51.4688 16.0952 50.625 17.1429 50.625H22.8571C23.9048 50.625 24.7619 51.4688 24.7619 52.5V54.375C24.7619 55.4062 23.9048 56.25 22.8571 56.25ZM17.1429 52.5V54.375H22.8571V52.5H17.1429Z" fill="black"/>
<path d="M33.3333 46.875H6.66667V48.75H33.3333V46.875Z" fill="black"/>
<path d="M9.52381 0.9375H7.61905V5.625H9.52381V0.9375Z" fill="black"/>
<path d="M34.2857 0.9375H32.381V5.625H34.2857V0.9375Z" fill="black"/>
<path d="M23.8095 45C23.5905 45 23.381 44.925 23.219 44.7937L18.7143 41.25H0.952381C0.428571 41.25 0 40.8281 0 40.3125V0.9375C0 0.421875 0.428571 0 0.952381 0H39.0476C39.5714 0 40 0.421875 40 0.9375V40.3125C40 40.8281 39.5714 41.25 39.0476 41.25H24.7619V44.0625C24.7619 44.5781 24.3333 45 23.8095 45ZM1.90476 39.375H19.0476C19.2667 39.375 19.4762 39.45 19.6381 39.5813L22.8571 42.1125V40.3125C22.8571 39.7969 23.2857 39.375 23.8095 39.375H38.0952V1.875H1.90476V39.375Z" fill="black"/>
<path d="M39.0476 4.6875H0.952381V6.5625H39.0476V4.6875Z" fill="black"/>
<path d="M9.52381 22.5C9.30476 22.5 9.09524 22.425 8.93333 22.2938C8.72381 22.125 3.80952 18.2156 3.80952 14.0625C3.80952 10.9594 6.37143 8.4375 9.52381 8.4375C12.6762 8.4375 15.2381 10.9594 15.2381 14.0625C15.2381 18.2156 10.3238 22.125 10.1143 22.2938C9.94286 22.425 9.73333 22.5 9.52381 22.5ZM9.52381 10.3125C7.41905 10.3125 5.71429 11.9906 5.71429 14.0625C5.71429 16.575 8.32381 19.2281 9.52381 20.3156C10.7238 19.2281 13.3333 16.575 13.3333 14.0625C13.3333 11.9906 11.6286 10.3125 9.52381 10.3125Z" fill="black"/>
<path d="M9.52381 16.875C7.94286 16.875 6.66667 15.6187 6.66667 14.0625C6.66667 12.5063 7.94286 11.25 9.52381 11.25C11.1048 11.25 12.381 12.5063 12.381 14.0625C12.381 15.6187 11.1048 16.875 9.52381 16.875ZM9.52381 13.125C9 13.125 8.57143 13.5469 8.57143 14.0625C8.57143 14.5781 9 15 9.52381 15C10.0476 15 10.4762 14.5781 10.4762 14.0625C10.4762 13.5469 10.0476 13.125 9.52381 13.125Z" fill="black"/>
<path d="M35.2381 25.3125H18.0952C17.5714 25.3125 17.1429 24.8906 17.1429 24.375V9.375C17.1429 8.85938 17.5714 8.4375 18.0952 8.4375H35.2381C35.7619 8.4375 36.1905 8.85938 36.1905 9.375V24.375C36.1905 24.8906 35.7619 25.3125 35.2381 25.3125ZM19.0476 23.4375H34.2857V10.3125H19.0476V23.4375Z" fill="black"/>
<path d="M28.8476 25.0406L25.0381 21.2906C24.8571 21.1125 24.7619 20.8781 24.7619 20.625V18.75H22.8571C22.6 18.75 22.3619 18.6469 22.181 18.4781L20.5524 16.875H18.0857V15H20.9429C21.2 15 21.4381 15.1031 21.619 15.2719L23.2476 16.875H25.7143C26.2381 16.875 26.6667 17.2969 26.6667 17.8125V20.2406L30.2 23.7188L28.8571 25.0406H28.8476Z" fill="black"/>
<path d="M35.2381 21.5625H32.381C32.1238 21.5625 31.8857 21.4594 31.7048 21.2906L29.8 19.4156C29.619 19.2375 29.5238 19.0031 29.5238 18.75V16.875C29.5238 16.6219 29.6286 16.3875 29.8 16.2094L30.4762 15.5437V14.0531H28.5714C28.3143 14.0531 28.0762 13.95 27.8952 13.7812L26.9429 12.8438C26.7619 12.6656 26.6667 12.4312 26.6667 12.1781V9.36562H28.5714V11.7937L28.9619 12.1781H31.4286C31.9524 12.1781 32.381 12.6 32.381 13.1156V15.9281C32.381 16.1812 32.2762 16.4156 32.1048 16.5938L31.4286 17.2594V18.3563L32.7714 19.6781H35.2381V21.5625Z" fill="black"/>
<path d="M25.7143 34.6875H4.7619V36.5625H25.7143V34.6875Z" fill="black"/>
<path d="M35.2381 30.9375H4.7619V32.8125H35.2381V30.9375Z" fill="black"/>
<path d="M35.2381 27.1875H4.7619V29.0625H35.2381V27.1875Z" fill="black"/>
</svg>
