<svg width="40" height="40" viewBox="0 0 40 40" fill="none" xmlns="http://www.w3.org/2000/svg">
<rect x="0.2" y="0.2" width="39.6" height="39.6" rx="3.8" fill="white" stroke="#CCCCCC" stroke-width="0.4"/>
<path fill-rule="evenodd" clip-rule="evenodd" d="M20.8333 27.2V26C20.8333 25.56 20.4583 25.2 20 25.2C19.5417 25.2 19.1667 25.56 19.1667 26V27.2C19.1667 27.64 19.5417 28 20 28C20.4583 28 20.8333 27.64 20.8333 27.2Z" fill="black"/>
<path fill-rule="evenodd" clip-rule="evenodd" d="M20.8333 21.2V12.8C20.8333 12.36 20.4583 12 20 12C19.5417 12 19.1667 12.36 19.1667 12.8V21.2C19.1667 21.64 19.5417 22 20 22C20.4583 22 20.8333 21.64 20.8333 21.2Z" fill="black"/>
<path fill-rule="evenodd" clip-rule="evenodd" d="M20 26C21.6125 26 22.9167 24.748 22.9167 23.2C22.9167 21.652 21.6125 20.4 20 20.4C18.3875 20.4 17.0833 21.652 17.0833 23.2C17.0833 24.748 18.3875 26 20 26ZM20 24.4C19.3083 24.4 18.75 23.864 18.75 23.2C18.75 22.536 19.3083 22 20 22C20.6917 22 21.25 22.536 21.25 23.2C21.25 23.864 20.6917 24.4 20 24.4Z" fill="black"/>
<path fill-rule="evenodd" clip-rule="evenodd" d="M27.9167 14.4V12.8C27.9167 12.36 27.5417 12 27.0833 12C26.625 12 26.25 12.36 26.25 12.8V14.4C26.25 14.84 26.625 15.2 27.0833 15.2C27.5417 15.2 27.9167 14.84 27.9167 14.4Z" fill="black"/>
<path fill-rule="evenodd" clip-rule="evenodd" d="M27.9167 27.2V19.2C27.9167 18.76 27.5417 18.4 27.0833 18.4C26.625 18.4 26.25 18.76 26.25 19.2V27.2C26.25 27.64 26.625 28 27.0833 28C27.5417 28 27.9167 27.64 27.9167 27.2Z" fill="black"/>
<path fill-rule="evenodd" clip-rule="evenodd" d="M27.0833 19.6C28.6958 19.6 30 18.348 30 16.8C30 15.252 28.6958 14 27.0833 14C25.4708 14 24.1667 15.252 24.1667 16.8C24.1667 18.348 25.4708 19.6 27.0833 19.6ZM27.0833 18C26.3917 18 25.8333 17.464 25.8333 16.8C25.8333 16.136 26.3917 15.6 27.0833 15.6C27.775 15.6 28.3333 16.136 28.3333 16.8C28.3333 17.464 27.775 18 27.0833 18Z" fill="black"/>
<path fill-rule="evenodd" clip-rule="evenodd" d="M12.9167 21.6C14.5292 21.6 15.8333 20.348 15.8333 18.8C15.8333 17.252 14.5292 16 12.9167 16C11.3042 16 10 17.252 10 18.8C10 20.348 11.3042 21.6 12.9167 21.6ZM12.9167 20C12.225 20 11.6667 19.464 11.6667 18.8C11.6667 18.136 12.225 17.6 12.9167 17.6C13.6083 17.6 14.1667 18.136 14.1667 18.8C14.1667 19.464 13.6083 20 12.9167 20Z" fill="black"/>
<path fill-rule="evenodd" clip-rule="evenodd" d="M13.75 27.2V20.8C13.75 20.36 13.375 20 12.9167 20C12.4583 20 12.0833 20.36 12.0833 20.8V27.2C12.0833 27.64 12.4583 28 12.9167 28C13.375 28 13.75 27.64 13.75 27.2Z" fill="black"/>
<path fill-rule="evenodd" clip-rule="evenodd" d="M13.75 16.4V12.8C13.75 12.36 13.375 12 12.9167 12C12.4583 12 12.0833 12.36 12.0833 12.8V16.4C12.0833 16.84 12.4583 17.2 12.9167 17.2C13.375 17.2 13.75 16.84 13.75 16.4Z" fill="black"/>
</svg>
