<svg width="178" height="150" viewBox="0 0 178 150" fill="none" xmlns="http://www.w3.org/2000/svg">
<rect x="0.5" y="0.5" width="177" height="149" fill="white" stroke="#CCCCCC"/>
<path d="M111.238 70.848H110.038V59.712H111.238V70.848ZM105.082 69.396C103.45 69.396 102.118 68.34 102.118 65.664V63.972C102.118 61.296 103.45 60.24 105.082 60.24C106.69 60.24 108.022 61.296 108.022 63.972V65.664C108.022 68.34 106.69 69.396 105.082 69.396ZM105.082 68.304C106.066 68.304 106.834 67.584 106.834 65.652V63.984C106.834 62.04 106.066 61.332 105.082 61.332C104.098 61.332 103.318 62.04 103.318 63.984V65.652C103.318 67.584 104.098 68.304 105.082 68.304ZM120.685 63.72V64.944H123.541V65.976H113.077V64.944H115.945V63.72C114.925 63.444 114.301 62.82 114.301 61.86C114.301 60.492 115.561 59.832 117.433 59.832H119.185C121.069 59.832 122.317 60.492 122.317 61.86C122.317 62.82 121.705 63.432 120.685 63.72ZM115.501 61.872C115.501 62.544 116.269 62.904 117.649 62.904H118.981C120.361 62.904 121.129 62.532 121.129 61.872C121.129 61.188 120.361 60.84 118.981 60.84H117.649C116.269 60.84 115.501 61.188 115.501 61.872ZM117.085 63.888V64.944H119.545V63.888C118.729 63.9 117.901 63.9 117.085 63.888ZM117.037 66.924H119.581C121.381 66.924 122.377 67.776 122.377 68.94C122.377 70.116 121.381 70.968 119.581 70.968H117.037C115.237 70.968 114.241 70.116 114.241 68.94C114.241 67.776 115.237 66.924 117.037 66.924ZM117.277 69.924H119.353C120.613 69.924 121.189 69.54 121.189 68.928C121.189 68.34 120.613 67.956 119.353 67.956H117.277C116.017 67.956 115.441 68.34 115.441 68.928C115.441 69.54 116.017 69.924 117.277 69.924ZM133.012 63.9V59.712H134.176V70.848H133.012V64.992H131.584V70.62H130.456V59.88H131.584V63.9H133.012ZM126.088 67.944H126.628C127.492 67.944 128.476 67.884 129.592 67.716L129.712 68.772C128.632 68.964 127.612 69.036 126.46 69.036H124.888V60.528H126.088V67.944ZM144.175 61.104V59.712H145.375V65.964H144.175V64.236H141.823C141.331 65.112 140.359 65.532 139.219 65.532C137.563 65.532 136.255 64.656 136.255 62.844V62.652C136.255 60.828 137.563 59.952 139.219 59.952C140.287 59.952 141.223 60.324 141.739 61.104H144.175ZM140.971 62.82V62.664C140.971 61.56 140.215 61.008 139.219 61.008C138.211 61.008 137.455 61.56 137.455 62.664V62.82C137.455 63.924 138.211 64.476 139.219 64.476C140.215 64.476 140.971 63.924 140.971 62.82ZM142.135 63.264H144.175V62.076H142.111C142.147 62.256 142.159 62.448 142.159 62.652V62.844C142.159 62.988 142.147 63.132 142.135 63.264ZM144.175 67.752H137.899V66.66H145.375V70.968H144.175V67.752Z" fill="black"/>
<path d="M91.0698 97.4478V47.8609C91.0698 47.0862 90.7604 46.3664 90.2284 45.854C89.6839 45.305 88.9601 45.0061 88.1744 45.0061C86.572 45.0061 85.2729 46.2871 85.2729 47.867V51.6795H70.7713C70.2393 51.6795 69.8062 52.1065 69.8062 52.6311C69.8062 53.1557 70.2393 53.5827 70.7713 53.5827H85.2729V90.7561H42.7333V53.5766H60.1302C60.6623 53.5766 61.0954 53.1496 61.0954 52.625C61.0954 51.7527 61.4913 50.9353 62.1904 50.3863C62.8957 49.8312 63.7866 49.636 64.6898 49.8434C65.6302 50.0569 66.4159 50.7767 66.7314 51.6734H63.0256C62.4935 51.6734 62.0605 52.1004 62.0605 52.625C62.0605 53.1496 62.4935 53.5766 63.0256 53.5766H66.719C66.5087 54.1744 66.1004 54.699 65.525 55.0528C64.1887 55.8763 63.3164 57.1512 63.0937 58.5603L50.1945 62.1959C49.7799 62.3118 49.4954 62.6839 49.4954 63.1109V66.9234C49.4954 67.448 49.9284 67.875 50.4605 67.875H55.2923V84.0766C55.2923 84.6012 55.7253 85.0282 56.2574 85.0282H61.0892V87.8891C61.0892 88.4137 61.5222 88.8407 62.0543 88.8407H71.7179C72.2499 88.8407 72.683 88.4137 72.683 87.8891V67.875H77.5148C78.0468 67.875 78.4799 67.448 78.4799 66.9234V63.1109C78.4799 62.6839 78.1953 62.3118 77.7808 62.1959L65.0425 58.6091C65.2404 57.8405 65.7725 57.1512 66.5396 56.6754C67.9687 55.7909 68.7792 54.3086 68.8039 52.6982C68.8039 52.6738 68.8163 52.6555 68.8163 52.6311C68.8163 52.6067 68.8039 52.5884 68.8039 52.564C68.8039 52.2163 68.773 51.8686 68.6864 51.5209C68.2843 49.7763 66.8799 48.3916 65.1043 47.989C63.6257 47.6535 62.1223 47.989 60.9654 48.8979C60.0622 49.6055 59.4683 50.5876 59.2455 51.6734H42.7333V47.8609C42.7333 47.0862 42.424 46.3664 41.8919 45.854C41.3475 45.305 40.6175 45 39.8318 45C38.2356 45 36.9302 46.281 36.9302 47.8609V97.4478C35.761 98.3201 35 99.6865 35 101.236C35 103.865 37.1653 106 39.8318 106C42.4982 106 44.6636 103.865 44.6636 101.236C44.6636 99.6865 43.8964 98.3201 42.7333 97.4478V96.4718H85.2667V97.4478C84.0974 98.3201 83.3364 99.6865 83.3364 101.236C83.3364 103.865 85.5018 106 88.1682 106C90.8347 106 93 103.865 93 101.236C93 99.6865 92.2328 98.3201 91.0698 97.4478ZM57.2349 65.9657H70.7713V69.4122C70.7713 70.1808 70.6414 70.9372 70.3754 71.657L66.2241 83.125H57.2411V65.9657H57.2349ZM63.0318 86.9375V85.0343H66.8985C67.3068 85.0343 67.6718 84.7842 67.8079 84.3999L70.7651 76.2381V86.9375H63.0318ZM76.5682 65.9657H72.7015V65.0141C72.7015 64.4895 72.2685 64.0625 71.7364 64.0625H56.2698C55.7377 64.0625 55.3046 64.4895 55.3046 65.0141V65.9657H51.438V63.8246L64.0031 60.2866L76.5682 63.8246V65.9657ZM87.2031 47.8609C87.2031 47.3363 87.6362 46.9093 88.1682 46.9093C88.4281 46.9093 88.6631 47.0069 88.8549 47.2021C89.0343 47.3729 89.1333 47.6108 89.1333 47.8609V90.75H87.2031V47.8609ZM39.8318 46.9032C40.0916 46.9032 40.3267 47.0008 40.5185 47.196C40.6979 47.3668 40.7969 47.6047 40.7969 47.8548V90.7439H38.8667V47.8609C38.8667 47.3363 39.2997 46.9093 39.8318 46.9093V46.9032ZM39.8318 104.091C38.2294 104.091 36.9302 102.81 36.9302 101.23C36.9302 99.6499 38.2294 98.3689 39.8318 98.3689C41.4341 98.3689 42.7333 99.6499 42.7333 101.23C42.7333 102.81 41.4341 104.091 39.8318 104.091ZM39.8318 96.4657C39.4977 96.4657 39.176 96.4962 38.8667 96.5633V92.6532H40.7969V96.5633C40.4876 96.5023 40.1597 96.4657 39.8318 96.4657ZM42.7333 94.5625V92.6593H85.2667V94.5625H42.7333ZM87.2031 92.6532H89.1333V96.5633C88.824 96.5023 88.4961 96.4657 88.1682 96.4657C87.8403 96.4657 87.5124 96.4962 87.2031 96.5633V92.6532ZM88.1682 104.091C86.5659 104.091 85.2667 102.81 85.2667 101.23C85.2667 99.6499 86.5659 98.3689 88.1682 98.3689C89.7706 98.3689 91.0698 99.6499 91.0698 101.23C91.0698 102.81 89.7706 104.091 88.1682 104.091ZM66.8985 76.4516V72.6391C66.8985 70.5346 65.1662 68.8266 63.0318 68.8266C60.8974 68.8266 59.1651 70.5346 59.1651 72.6391V76.4516C59.1651 76.9762 59.5982 77.4032 60.1302 77.4032H65.9333C66.4654 77.4032 66.8985 76.9762 66.8985 76.4516ZM64.9682 75.5H61.1015V72.6391C61.1015 71.5899 61.9677 70.7359 63.0318 70.7359C64.0959 70.7359 64.962 71.5899 64.962 72.6391V75.5H64.9682Z" fill="black"/>
<rect x="67.5" y="93.5" width="79" height="29" fill="white" stroke="#CCCCCC"/>
<rect x="114" y="107" width="20" height="2" fill="#CCCCCC"/>
<rect x="128.414" y="101" width="10" height="2" transform="rotate(45 128.414 101)" fill="#CCCCCC"/>
<rect x="135.485" y="108.071" width="10" height="2" transform="rotate(135 135.485 108.071)" fill="#CCCCCC"/>
<path d="M88.4005 103.84C90.0105 103.84 91.2305 104.66 91.2305 106.41C91.2305 108.18 90.0105 108.98 88.4005 108.98H86.5405V112.06H84.9705V103.84H88.4005ZM86.5405 107.6H88.3205C89.1905 107.6 89.6605 107.17 89.6605 106.41C89.6605 105.65 89.1905 105.22 88.3205 105.22H86.5405V107.6ZM93.7475 112.06H92.1775V103.84H93.7475V112.06ZM98.4663 112.21C96.5563 112.21 94.8963 110.92 94.8963 108.65V107.25C94.8963 104.99 96.5463 103.69 98.4663 103.69C100.236 103.69 101.496 104.72 101.896 106.42L100.406 106.85C100.136 105.74 99.5463 105.15 98.4663 105.15C97.3863 105.15 96.4663 105.88 96.4663 107.31V108.59C96.4663 110.03 97.3863 110.75 98.4663 110.75C99.5463 110.75 100.136 110.16 100.406 109.05L101.896 109.48C101.496 111.18 100.236 112.21 98.4663 112.21ZM109.678 112.06H107.698L105.118 108.69L104.568 109.32V112.06H102.998V103.84H104.568V107.03L107.328 103.84H109.378L106.178 107.49L109.678 112.06Z" fill="black"/>
</svg>
