<svg width="178" height="150" viewBox="0 0 178 150" fill="none" xmlns="http://www.w3.org/2000/svg">
<rect x="0.5" y="0.5" width="177" height="149" fill="white" stroke="#CCCCCC"/>
<path d="M110.05 62.196H107.53C106.894 63.72 105.154 64.716 102.646 65.376L102.238 64.332C104.878 63.648 106.45 62.532 106.606 61.308H102.478V60.24H107.806V60.804C107.806 60.948 107.794 61.092 107.782 61.224H110.05V59.712H111.25V65.148H110.05V64.236H107.53V63.264H110.05V62.196ZM105.082 68.832V69.888H111.658V70.908H103.882V67.848H110.05V66.84H103.822V65.844H111.25V68.832H105.082ZM121.621 70.848V59.712H122.785V70.848H121.621ZM117.433 63.78H119.209V59.88H120.349V70.62H119.209V64.872H117.433V63.78ZM116.281 61.68V62.28C116.281 63.096 116.197 63.876 116.041 64.632L118.561 68.544L117.613 69.204L115.621 66.108C115.225 67.224 114.625 68.28 113.857 69.324L112.945 68.616C114.409 66.672 115.177 64.764 115.177 62.28V61.68H113.341V60.588H118.189V61.68H116.281ZM133.672 65.328L129.424 62.988C128.668 63.864 127.432 64.644 125.608 65.328L125.128 64.284C127.948 63.192 129.148 61.956 129.148 60.576V59.892H130.348V60.576C130.348 61.08 130.252 61.548 130.048 62.004L134.248 64.32L133.672 65.328ZM124.456 66.576H134.92V67.656H130.288V70.968H129.1V67.656H124.456V66.576ZM144.751 59.712V62.508H146.479V63.588H144.751V68.052H143.551V59.712H144.751ZM142.411 64.692L142.555 65.724C141.223 65.952 139.579 66.096 138.019 66.096H136.099V60.3H141.511V61.356H137.275V65.028H138.235C139.471 65.028 141.031 64.908 142.411 64.692ZM137.623 67.356H138.811V69.756H145.327V70.848H137.623V67.356Z" fill="black"/>
<path d="M46.3064 68.0771C46.5224 68.0771 46.7384 67.9967 46.9004 67.8539C47.0983 67.6843 47.2063 67.4433 47.2063 67.1844H49.9058C50.4008 67.1844 50.8057 66.7827 50.8057 66.2917H51.7056V77.0042C51.7056 78.4771 52.9203 79.6823 54.4051 79.6823H77.8012C79.286 79.6823 80.5008 78.4771 80.5008 77.0042V61.8281C80.5008 60.3552 79.286 59.15 77.8012 59.15H68.3528L66.4631 56.6504C65.9592 55.9809 65.1493 55.5792 64.3034 55.5792H50.8057C50.8057 55.0882 50.4008 54.6865 49.9058 54.6865H47.2063C47.2063 54.2401 46.8644 53.8562 46.4144 53.8027L32.0168 52.0083C31.7649 51.9726 31.5039 52.053 31.3059 52.2226C31.108 52.3922 31 52.6332 31 52.8921V65.39C31 65.8364 31.3419 66.2203 31.7919 66.2738L46.1895 68.0592C46.1895 68.0592 46.2615 68.0592 46.2975 68.0592L46.3064 68.0771ZM78.701 74.326H53.5053V72.5406H78.701V74.326ZM77.8012 77.8969H54.4051C53.9102 77.8969 53.5053 77.4952 53.5053 77.0042V76.1115H78.701V77.0042C78.701 77.4952 78.2961 77.8969 77.8012 77.8969ZM78.701 61.8281V70.7552H53.5053V66.2917H54.0362L55.5749 67.8182C55.7459 67.9878 55.9708 68.0771 56.2138 68.0771H62.5127C62.7107 68.0771 62.8907 68.0592 63.0797 68.0146C63.1336 68.0057 63.1876 67.9789 63.2506 67.961C63.3676 67.9253 63.4936 67.8896 63.6106 67.845C63.6826 67.8182 63.7455 67.7736 63.8085 67.7379C63.8985 67.6843 63.9975 67.6397 64.0875 67.5772C64.1505 67.5325 64.2135 67.479 64.2765 67.4254C64.3574 67.354 64.4294 67.2915 64.5014 67.2112C64.5284 67.1844 64.5554 67.1665 64.5824 67.1397C64.6094 67.104 64.6364 67.0594 64.6634 67.0237C64.7264 66.9433 64.7894 66.8541 64.8434 66.7648C64.8794 66.6934 64.9243 66.6309 64.9603 66.5595C65.0053 66.4613 65.0503 66.3631 65.0773 66.256C65.1043 66.1845 65.1223 66.1131 65.1403 66.0417C65.1673 65.9346 65.1853 65.8275 65.1943 65.7114C65.1943 65.6311 65.2123 65.5597 65.2213 65.4793C65.2213 65.4525 65.2303 65.4347 65.2303 65.4079C65.2303 65.3186 65.2123 65.2383 65.2033 65.1579C65.2033 65.0954 65.2033 65.033 65.1943 64.9705C65.1943 64.9526 65.1853 64.9348 65.1763 64.9169C65.1673 64.8544 65.1493 64.8008 65.1313 64.7384C65.1043 64.6402 65.0773 64.542 65.0413 64.4438C65.0053 64.3545 64.9603 64.2742 64.9153 64.1849C64.8884 64.1402 64.8704 64.0867 64.8434 64.042C64.3664 63.2654 63.5206 62.7298 62.5307 62.7298H58.9313C58.8054 62.7298 58.6794 62.703 58.5714 62.6494C58.5354 62.6316 58.5084 62.6048 58.4814 62.5869C58.4094 62.5423 58.3374 62.4977 58.2835 62.4352C58.2475 62.3995 58.2295 62.3548 58.2025 62.3191C58.1575 62.2566 58.1215 62.1941 58.0945 62.1227C58.0765 62.0692 58.0675 62.0156 58.0585 61.962C58.0495 61.8906 58.0405 61.8281 58.0495 61.7478C58.0495 61.6853 58.0675 61.6317 58.0855 61.5782C58.1035 61.5246 58.1215 61.471 58.1485 61.4264C58.1665 61.3996 58.1845 61.3729 58.2025 61.3461C58.3824 61.105 58.6884 60.9354 59.0303 60.9354H77.8282C78.3231 60.9354 78.728 61.3371 78.728 61.8281H78.701ZM64.3034 57.3646C64.5824 57.3646 64.8524 57.4985 65.0233 57.7217L66.1031 59.15H58.9044C57.9235 59.15 57.0687 59.6767 56.5917 60.4623C56.5647 60.5069 56.5377 60.5516 56.5107 60.6051C56.4658 60.6855 56.4208 60.7747 56.3848 60.864C56.3488 60.9622 56.3218 61.0604 56.2948 61.1586C56.2768 61.2211 56.2588 61.2747 56.2498 61.3371C56.2498 61.355 56.2408 61.3729 56.2318 61.3907C56.2228 61.4532 56.2318 61.5157 56.2228 61.5782C56.2228 61.6585 56.1958 61.7389 56.1958 61.8281C56.1958 61.8549 56.1958 61.8817 56.1958 61.9085C56.1958 61.9888 56.2138 62.0602 56.2228 62.1406C56.2318 62.2477 56.2498 62.3638 56.2768 62.4709C56.2948 62.5423 56.3218 62.6137 56.3488 62.6851C56.3848 62.7923 56.4208 62.8905 56.4658 62.9887C56.5018 63.0601 56.5377 63.1315 56.5827 63.194C56.6367 63.2832 56.6997 63.3725 56.7627 63.4529C56.7897 63.4886 56.8077 63.5332 56.8437 63.5689C56.8707 63.5957 56.8977 63.6135 56.9247 63.6403C56.9967 63.7207 57.0777 63.7832 57.1496 63.8546C57.2126 63.9081 57.2666 63.9617 57.3386 64.0063C57.4286 64.0688 57.5186 64.1224 57.6176 64.167C57.6806 64.2027 57.7435 64.2474 57.8155 64.2742C57.9325 64.3277 58.0495 64.3545 58.1755 64.3902C58.2295 64.4081 58.2835 64.4348 58.3464 64.4438C58.5264 64.4795 58.7154 64.5063 58.9133 64.5063H62.4138C62.7557 64.5063 63.0617 64.6759 63.2416 64.9169C63.2596 64.9437 63.2776 64.9705 63.2956 64.9972C63.3226 65.0419 63.3406 65.0954 63.3586 65.149C63.3766 65.2026 63.3856 65.2651 63.3946 65.3186C63.3946 65.39 63.3946 65.4615 63.3856 65.5329C63.3856 65.5864 63.3676 65.64 63.3496 65.6936C63.3226 65.765 63.2866 65.8275 63.2416 65.89C63.2146 65.9257 63.1966 65.9703 63.1606 66.006C63.1066 66.0685 63.0347 66.1131 62.9627 66.1578C62.9267 66.1756 62.9087 66.2024 62.8727 66.2203C62.7557 66.2649 62.6387 66.3006 62.5127 66.3006H56.5827L55.044 64.7741C54.873 64.6045 54.6481 64.5152 54.4051 64.5152H50.8057V57.3646H64.3034ZM49.006 56.4719V65.399H47.2063V56.4719H49.006ZM32.8087 53.9098L45.4066 55.472V66.1667L32.8087 64.6045V53.9098Z" fill="black"/>
<path d="M70.6024 68.0771H76.0015C76.4964 68.0771 76.9014 67.6754 76.9014 67.1844V63.6135C76.9014 63.1226 76.4964 62.7208 76.0015 62.7208H70.6024C70.1075 62.7208 69.7025 63.1226 69.7025 63.6135V67.1844C69.7025 67.6754 70.1075 68.0771 70.6024 68.0771ZM71.5023 64.5063H75.1017V66.2917H71.5023V64.5063Z" fill="black"/>
<path d="M82.3004 81.4677H39.1076C37.6229 81.4677 36.4081 82.6729 36.4081 84.1458V101.107C36.4081 101.598 36.813 102 37.3079 102H84.1002C84.5951 102 85 101.598 85 101.107V84.1458C85 82.6729 83.7852 81.4677 82.3004 81.4677ZM39.1076 83.2531H82.3004C82.7954 83.2531 83.2003 83.6548 83.2003 84.1458V85.9313H38.2078V84.1458C38.2078 83.6548 38.6127 83.2531 39.1076 83.2531ZM83.2003 87.7167V96.6438H38.2078V87.7167H83.2003ZM38.2078 100.215V98.4292H83.2003V100.215H38.2078Z" fill="black"/>
<rect x="67.5" y="93.5" width="79" height="29" fill="white" stroke="#CCCCCC"/>
<rect x="114" y="107" width="20" height="2" fill="#CCCCCC"/>
<rect x="128.414" y="101" width="10" height="2" transform="rotate(45 128.414 101)" fill="#CCCCCC"/>
<rect x="135.485" y="108.071" width="10" height="2" transform="rotate(135 135.485 108.071)" fill="#CCCCCC"/>
<path d="M88.4005 103.84C90.0105 103.84 91.2305 104.66 91.2305 106.41C91.2305 108.18 90.0105 108.98 88.4005 108.98H86.5405V112.06H84.9705V103.84H88.4005ZM86.5405 107.6H88.3205C89.1905 107.6 89.6605 107.17 89.6605 106.41C89.6605 105.65 89.1905 105.22 88.3205 105.22H86.5405V107.6ZM93.7475 112.06H92.1775V103.84H93.7475V112.06ZM98.4663 112.21C96.5563 112.21 94.8963 110.92 94.8963 108.65V107.25C94.8963 104.99 96.5463 103.69 98.4663 103.69C100.236 103.69 101.496 104.72 101.896 106.42L100.406 106.85C100.136 105.74 99.5463 105.15 98.4663 105.15C97.3863 105.15 96.4663 105.88 96.4663 107.31V108.59C96.4663 110.03 97.3863 110.75 98.4663 110.75C99.5463 110.75 100.136 110.16 100.406 109.05L101.896 109.48C101.496 111.18 100.236 112.21 98.4663 112.21ZM109.678 112.06H107.698L105.118 108.69L104.568 109.32V112.06H102.998V103.84H104.568V107.03L107.328 103.84H109.378L106.178 107.49L109.678 112.06Z" fill="black"/>
</svg>
