<svg width="70" height="75" viewBox="0 0 70 75" fill="none" xmlns="http://www.w3.org/2000/svg">
<rect width="70" height="75" fill="white"/>
<path d="M49.2186 24.0012C46.1116 24.0012 43.2613 25.1056 41.0465 26.9504L25.7872 18.1857C25.524 18.0325 25.1966 18.0325 24.9334 18.1857L9.43011 27.0781C9.16691 27.2313 9 27.5122 9 27.8122V45.6099C9 45.9163 9.16049 46.1908 9.43011 46.344L24.927 55.2428C25.0618 55.3194 25.2094 55.3577 25.3507 55.3577C25.4919 55.3577 25.646 55.3194 25.7743 55.2428L41.0337 46.478C43.2484 48.3165 46.0987 49.4273 49.2058 49.4273C56.2545 49.4273 61.9936 43.7267 61.9936 36.711C61.9936 29.6954 56.2609 23.9948 49.2058 23.9948L49.2186 24.0012ZM18.7513 38.4282L16.6008 37.1962L16.543 32.6383L18.6936 33.8703L18.7513 38.4282ZM17.3775 31.1509L31.1668 23.2351L33.3302 24.48L19.5409 32.3957L17.3775 31.1509ZM35.0378 25.463L39.1399 27.8186L25.3507 35.7343L21.2485 33.3788L35.0378 25.463ZM26.2045 37.2026L38.1513 30.3402C37.0535 32.2169 36.4244 34.3874 36.4244 36.711C36.4244 39.9986 37.6827 42.9926 39.7498 45.2524L26.2045 53.0277V37.1962V37.2026ZM25.3507 19.9029L29.4528 22.2584L15.6635 30.1742L11.5614 27.8186L25.3507 19.9029ZM10.7076 29.2932L14.8161 31.6552L14.8932 37.7069C14.8932 38.0069 15.0601 38.2814 15.3169 38.4346L19.1943 40.6561C19.3291 40.7327 19.4767 40.771 19.618 40.771C19.7592 40.771 19.9133 40.7327 20.0481 40.6561C20.3113 40.5029 20.4718 40.2157 20.4718 39.9093L20.4076 34.8662L24.4904 37.209V53.0404L10.7076 45.1183V29.2868V29.2932ZM49.2122 47.7292C43.1008 47.7292 38.1384 42.7883 38.1384 36.7174C38.1384 30.6466 43.1072 25.7056 49.2122 25.7056C55.3172 25.7056 60.286 30.6466 60.286 36.7174C60.286 42.7883 55.3172 47.7292 49.2122 47.7292ZM49.2122 27.1419C43.9032 27.1419 39.5893 31.4381 39.5893 36.711C39.5893 41.9839 43.9032 46.2801 49.2122 46.2801C54.5212 46.2801 58.8352 41.9903 58.8352 36.711C58.8352 31.4318 54.5148 27.1419 49.2122 27.1419ZM49.2122 44.5821C44.8469 44.5821 41.2969 41.0519 41.2969 36.711C41.2969 32.3702 44.8469 28.84 49.2122 28.84C53.5775 28.84 57.1275 32.3702 57.1275 36.711C57.1275 41.0519 53.5775 44.5821 49.2122 44.5821ZM22.8021 16.8004C28.3807 14.0044 33.9657 13.5001 39.4095 15.3003L38.2283 17.3303C38.0678 17.6048 38.0807 17.9559 38.254 18.2176C38.4145 18.4602 38.6841 18.6006 38.9666 18.6006C38.9987 18.6006 39.0308 18.6006 39.0629 18.6006L48.673 17.5154C48.9426 17.4835 49.1801 17.3303 49.3149 17.0941C49.4497 16.8579 49.4626 16.577 49.3599 16.328L45.5017 7.51219C45.3733 7.21854 45.0908 7.02065 44.7699 7.0015C44.4489 6.98235 44.1407 7.14832 43.9803 7.42282L42.6578 9.70178C35.4679 7.04618 28.4577 8.96766 21.8199 15.4343C21.5182 15.728 21.4732 16.194 21.7236 16.5387C21.9675 16.8834 22.4233 16.9919 22.8021 16.8004ZM42.7028 11.5467C43.1008 11.7063 43.5566 11.553 43.7684 11.1828L44.6094 9.7337L47.3313 15.9514L40.5522 16.7174L41.3932 15.2683C41.5216 15.0513 41.5408 14.7959 41.4574 14.5597C41.3739 14.3236 41.1942 14.1384 40.9566 14.0491C38.3118 13.0404 35.6412 12.5425 32.9514 12.5425C30.9742 12.5425 28.9906 12.817 27.0005 13.3596C32.104 9.91883 37.2718 9.33153 42.6899 11.553L42.7028 11.5467ZM48.1979 57.2026C42.6193 59.9986 37.0343 60.5029 31.5905 58.7027L32.7717 56.6727C32.9322 56.3982 32.9193 56.0471 32.746 55.7854C32.5663 55.5173 32.2517 55.3769 31.9307 55.4088L22.3206 56.494C22.051 56.5259 21.8135 56.6791 21.6787 56.9153C21.5438 57.1515 21.531 57.4324 21.6337 57.6814L25.4983 66.4972C25.6267 66.7908 25.9092 66.9887 26.2301 67.0079C26.243 67.0079 26.2622 67.0079 26.2751 67.0079C26.5768 67.0079 26.8593 66.8483 27.0133 66.5802L28.3358 64.3012C35.5257 66.9568 42.5359 65.0353 49.1737 58.5687C49.4754 58.275 49.5204 57.809 49.27 57.4643C49.0196 57.1196 48.5638 57.0111 48.1915 57.2026H48.1979ZM28.2972 62.4563C27.8992 62.2904 27.4434 62.4499 27.2316 62.8202L26.3906 64.2693L23.6687 58.0516L30.4478 57.2856L29.6068 58.7347C29.4784 58.9517 29.4592 59.2071 29.5426 59.4432C29.6261 59.6794 29.8058 59.8646 30.0434 59.9539C34.6334 61.6967 39.3068 61.9265 43.9931 60.6498C38.8895 64.0905 33.7218 64.6778 28.3037 62.4563H28.2972Z" fill="black"/>
<path d="M46.6187 40.7456C46.4197 40.7456 46.2528 40.586 46.2528 40.3817V33.0341C46.2528 32.8362 46.4133 32.6702 46.6187 32.6702H49.7001C51.4912 32.6702 52.6082 33.6916 52.6082 35.3322C52.6082 36.9728 51.4912 37.9942 49.7001 37.9942H48.3905V40.3881C48.3905 40.586 48.23 40.752 48.0246 40.752H46.6123L46.6187 40.7456ZM49.6359 36.0344C50.387 36.0344 50.4769 35.6323 50.4769 35.3322C50.4769 35.0322 50.387 34.63 49.6359 34.63H48.3969V36.0344H49.6359Z" fill="black"/>
</svg>
