<svg width="178" height="150" viewBox="0 0 178 150" fill="none" xmlns="http://www.w3.org/2000/svg">
<rect x="0.5" y="0.5" width="177" height="149" fill="white" stroke="#CCCCCC"/>
<path d="M110.242 70.848V59.712H111.406V70.848H110.242ZM106.054 63.78H107.83V59.88H108.97V70.62H107.83V64.872H106.054V63.78ZM104.902 61.68V62.28C104.902 63.096 104.818 63.876 104.662 64.632L107.182 68.544L106.234 69.204L104.242 66.108C103.846 67.224 103.246 68.28 102.478 69.324L101.566 68.616C103.03 66.672 103.798 64.764 103.798 62.28V61.68H101.962V60.588H106.81V61.68H104.902ZM120.661 63.096H122.317V64.104H114.301V63.096H115.969V60.948H114.301V59.952H122.317V60.948H120.661V63.096ZM119.497 60.948H117.133V63.096H119.497V60.948ZM123.541 65.052V66.096H118.909V67.212H122.269V70.848H114.361V67.212H117.709V66.096H113.077V65.052H123.541ZM115.561 69.852H121.069V68.196H115.561V69.852ZM133.996 65.904H132.796V64.104H131.152V63.156H132.796V62.184H131.152V61.236H132.796V59.712H133.996V65.904ZM131.452 64.212L131.584 65.256C129.952 65.508 127.996 65.64 126.364 65.64H124.72L124.66 64.572H125.932V61.308H124.804V60.24H131.092V61.308H129.82V64.404C130.372 64.356 130.924 64.284 131.452 64.212ZM128.68 64.488V61.308H127.084V64.56C127.576 64.548 128.116 64.524 128.68 64.488ZM129.052 66.492H131.488C133.108 66.492 134.14 67.416 134.14 68.724C134.14 70.044 133.108 70.968 131.488 70.968H129.052C127.432 70.968 126.4 70.044 126.4 68.724C126.4 67.416 127.432 66.492 129.052 66.492ZM129.244 69.9H131.296C132.4 69.9 132.952 69.408 132.952 68.724C132.952 68.04 132.4 67.548 131.296 67.548H129.244C128.14 67.548 127.588 68.04 127.588 68.724C127.588 69.408 128.14 69.9 129.244 69.9ZM144.751 63.9H146.479V64.992H144.751V70.848H143.551V59.712H144.751V63.9ZM140.311 61.68H136.243V60.588H141.511V61.572C141.511 64.728 139.735 67.464 136.735 69.516L135.991 68.568C138.811 66.72 140.311 64.164 140.311 61.812V61.68Z" fill="black"/>
<path d="M60.7083 41.9535C60.7083 41.5186 61.0646 41.1628 61.5 41.1628C61.9354 41.1628 62.2917 41.5186 62.2917 41.9535C62.2917 42.3884 61.9354 42.7442 61.5 42.7442C61.0646 42.7442 60.7083 42.3884 60.7083 41.9535ZM59.9167 89.3953C59.9167 91.5777 58.1433 93.3488 55.9583 93.3488C53.7733 93.3488 52 91.5777 52 89.3953C52 87.213 53.7733 85.4419 55.9583 85.4419C58.1433 85.4419 59.9167 87.213 59.9167 89.3953ZM58.3333 89.3953C58.3333 88.0828 57.2725 87.0233 55.9583 87.0233C54.6442 87.0233 53.5833 88.0828 53.5833 89.3953C53.5833 90.7079 54.6442 91.7674 55.9583 91.7674C57.2725 91.7674 58.3333 90.7079 58.3333 89.3953ZM67.8333 89.3953C67.8333 89.8302 68.1896 90.186 68.625 90.186H85.25C85.6854 90.186 86.0417 89.8302 86.0417 89.3953C86.0417 88.9605 85.6854 88.6046 85.25 88.6046H68.625C68.1896 88.6046 67.8333 88.9605 67.8333 89.3953ZM81.2917 91.7674H68.625C68.1896 91.7674 67.8333 92.1233 67.8333 92.5581C67.8333 92.993 68.1896 93.3488 68.625 93.3488H81.2917C81.7271 93.3488 82.0833 92.993 82.0833 92.5581C82.0833 92.1233 81.7271 91.7674 81.2917 91.7674ZM67.0417 75.1628C70.2004 75.1628 72.9475 77.3056 73.7075 80.3656L74.135 82.0893C74.2379 82.5163 73.9846 82.9433 73.5571 83.046C73.4937 83.0619 73.4304 83.0698 73.3671 83.0698H60.7004C60.265 83.0698 59.9088 82.714 59.9088 82.2791C59.9088 82.2158 59.9167 82.1526 59.9325 82.0893L60.36 80.3656C61.12 77.3056 63.875 75.1628 67.0337 75.1628H67.0417ZM67.0417 76.7442C64.6112 76.7442 62.4975 78.3967 61.9037 80.7451L61.7217 81.4884H72.3617L72.1796 80.7451C71.5938 78.3888 69.4721 76.7363 67.0417 76.7442ZM67.0417 65.6744C69.2267 65.6744 71 67.4456 71 69.6279C71 71.8102 69.2267 73.5814 67.0417 73.5814C64.8567 73.5814 63.0833 71.8102 63.0833 69.6279C63.0833 67.4456 64.8567 65.6744 67.0417 65.6744ZM67.0417 67.2558C65.7275 67.2558 64.6667 68.3153 64.6667 69.6279C64.6667 70.9405 65.7275 72 67.0417 72C68.3558 72 69.4167 70.9405 69.4167 69.6279C69.4167 68.3153 68.3558 67.2558 67.0417 67.2558ZM62.2917 63.3023H49.625C49.1896 63.3023 48.8333 62.9465 48.8333 62.5116C48.8333 62.4484 48.8413 62.3851 48.8571 62.3219L49.2846 60.5981C50.2029 56.9214 53.9396 54.6837 57.6208 55.6009C60.0829 56.2177 62.0067 58.1391 62.6242 60.5981L63.0517 62.3219C63.1546 62.7488 62.9012 63.1758 62.4737 63.2786C62.4104 63.2944 62.3471 63.3023 62.2838 63.3023H62.2917ZM61.2783 61.7209L61.0963 60.9777C60.3838 58.147 57.5179 56.4233 54.6758 57.1349C52.7758 57.6093 51.2954 59.0879 50.8283 60.9777L50.6462 61.7209H61.2862H61.2783ZM52 49.8605C52 47.6781 53.7733 45.907 55.9583 45.907C58.1433 45.907 59.9167 47.6781 59.9167 49.8605C59.9167 52.0428 58.1433 53.814 55.9583 53.814C53.7733 53.814 52 52.0428 52 49.8605ZM53.5833 49.8605C53.5833 51.173 54.6442 52.2326 55.9583 52.2326C57.2725 52.2326 58.3333 51.173 58.3333 49.8605C58.3333 48.5479 57.2725 47.4884 55.9583 47.4884C54.6442 47.4884 53.5833 48.5479 53.5833 49.8605ZM55.1667 69.6279C55.1667 69.193 54.8104 68.8372 54.375 68.8372H37.75C37.3146 68.8372 36.9583 69.193 36.9583 69.6279C36.9583 70.0628 37.3146 70.4186 37.75 70.4186H54.375C54.8104 70.4186 55.1667 70.0628 55.1667 69.6279ZM55.1667 72.7907C55.1667 72.3558 54.8104 72 54.375 72H41.7083C41.2729 72 40.9167 72.3558 40.9167 72.7907C40.9167 73.2256 41.2729 73.5814 41.7083 73.5814H54.375C54.8104 73.5814 55.1667 73.2256 55.1667 72.7907ZM81.2917 56.9767V85.4419H87.625C88.9392 85.4419 90 86.5014 90 87.814V94.1395C90 95.4521 88.9392 96.5116 87.625 96.5116H81.2917V102.837C81.2917 104.585 79.8746 106 78.125 106H44.875C43.1254 106 41.7083 104.585 41.7083 102.837V76.7442H35.375C34.0608 76.7442 33 75.6847 33 74.3721V68.0465C33 66.734 34.0608 65.6744 35.375 65.6744H41.7083V41.1628C41.7083 39.4153 43.1254 38 44.875 38H78.125C79.8746 38 81.2917 39.4153 81.2917 41.1628V45.907H87.625C88.9392 45.907 90 46.9665 90 48.2791V54.6047C90 55.9172 88.9392 56.9767 87.625 56.9767H81.2917ZM87.625 47.4884H66.25C65.8146 47.4884 65.4583 47.8442 65.4583 48.2791V57.1586L68.2213 55.506C68.3479 55.4349 68.4825 55.3953 68.625 55.3953H87.625C88.0604 55.3953 88.4167 55.0395 88.4167 54.6047V48.2791C88.4167 47.8442 88.0604 47.4884 87.625 47.4884ZM76.5417 56.9767H68.8467L65.0783 59.2381C64.8329 59.3884 64.5321 59.3884 64.2787 59.246C64.0333 59.1037 63.875 58.8428 63.875 58.5581V48.2791C63.875 46.9665 64.9358 45.907 66.25 45.907H76.5417V42.7442H65.3792C64.9438 44.887 62.8538 46.2628 60.7083 45.8279C59.1488 45.5116 57.9375 44.294 57.6208 42.7442H46.4583V65.6744H56.75C58.0642 65.6744 59.125 66.734 59.125 68.0465V78.3256C59.125 78.6102 58.9746 78.8712 58.7213 79.0135C58.4758 79.1558 58.1671 79.1558 57.9217 79.0056L54.1533 76.7442H46.4583V101.256H49.0075L49.2925 100.133C50.2108 96.4563 53.9475 94.2186 57.6287 95.1358C60.0908 95.7526 62.0146 97.674 62.6321 100.133L62.9092 101.256H76.5417V96.5116H68.8467L65.0783 98.773C64.8329 98.9233 64.5242 98.9233 64.2787 98.7809C64.0333 98.6386 63.875 98.3777 63.875 98.093V87.814C63.875 86.5014 64.9358 85.4419 66.25 85.4419H76.5417V56.9767ZM61.0963 100.513C60.3838 97.6819 57.5179 95.9581 54.6758 96.6698C52.7758 97.1442 51.2954 98.6228 50.8283 100.513L50.6462 101.256H61.2862L61.1042 100.513H61.0963ZM43.2917 65.6744H44.875V41.9535C44.875 41.5186 45.2312 41.1628 45.6667 41.1628H58.3333C58.7687 41.1628 59.125 41.5186 59.125 41.9535C59.125 42.586 59.3783 43.187 59.8217 43.6377C60.7638 44.5233 62.2442 44.5233 63.1863 43.6298C63.6296 43.187 63.875 42.586 63.875 41.9535C63.875 41.5186 64.2313 41.1628 64.6667 41.1628H77.3333C77.7687 41.1628 78.125 41.5186 78.125 41.9535V45.907H79.7083V41.1628C79.7083 40.293 78.9958 39.5814 78.125 39.5814H44.875C44.0042 39.5814 43.2917 40.293 43.2917 41.1628V65.6744ZM35.375 75.1628H54.375C54.5175 75.1628 54.66 75.2023 54.7787 75.2735L57.5417 76.926V68.0465C57.5417 67.6116 57.1854 67.2558 56.75 67.2558H35.375C34.9396 67.2558 34.5833 67.6116 34.5833 68.0465V74.3721C34.5833 74.807 34.9396 75.1628 35.375 75.1628ZM79.7083 96.5116H78.125V102.047C78.125 102.481 77.7687 102.837 77.3333 102.837H45.6667C45.2312 102.837 44.875 102.481 44.875 102.047V76.7442H43.2917V102.837C43.2917 103.707 44.0042 104.419 44.875 104.419H78.125C78.9958 104.419 79.7083 103.707 79.7083 102.837V96.5116ZM87.625 87.0233H66.25C65.8146 87.0233 65.4583 87.3791 65.4583 87.814V96.6935L68.2213 95.0409C68.3479 94.9698 68.4825 94.9302 68.625 94.9302H87.625C88.0604 94.9302 88.4167 94.5744 88.4167 94.1395V87.814C88.4167 87.3791 88.0604 87.0233 87.625 87.0233ZM79.7083 56.9767H78.125V85.4419H79.7083V56.9767ZM67.8333 49.8605C67.8333 50.2953 68.1896 50.6512 68.625 50.6512H85.25C85.6854 50.6512 86.0417 50.2953 86.0417 49.8605C86.0417 49.4256 85.6854 49.0698 85.25 49.0698H68.625C68.1896 49.0698 67.8333 49.4256 67.8333 49.8605ZM81.2917 52.2326H68.625C68.1896 52.2326 67.8333 52.5884 67.8333 53.0233C67.8333 53.4581 68.1896 53.814 68.625 53.814H81.2917C81.7271 53.814 82.0833 53.4581 82.0833 53.0233C82.0833 52.5884 81.7271 52.2326 81.2917 52.2326Z" fill="black"/>
<rect x="67.5" y="93.5" width="79" height="29" fill="white" stroke="#CCCCCC"/>
<rect x="114" y="107" width="20" height="2" fill="#CCCCCC"/>
<rect x="128.414" y="101" width="10" height="2" transform="rotate(45 128.414 101)" fill="#CCCCCC"/>
<rect x="135.485" y="108.071" width="10" height="2" transform="rotate(135 135.485 108.071)" fill="#CCCCCC"/>
<path d="M88.4005 103.84C90.0105 103.84 91.2305 104.66 91.2305 106.41C91.2305 108.18 90.0105 108.98 88.4005 108.98H86.5405V112.06H84.9705V103.84H88.4005ZM86.5405 107.6H88.3205C89.1905 107.6 89.6605 107.17 89.6605 106.41C89.6605 105.65 89.1905 105.22 88.3205 105.22H86.5405V107.6ZM93.7475 112.06H92.1775V103.84H93.7475V112.06ZM98.4663 112.21C96.5563 112.21 94.8963 110.92 94.8963 108.65V107.25C94.8963 104.99 96.5463 103.69 98.4663 103.69C100.236 103.69 101.496 104.72 101.896 106.42L100.406 106.85C100.136 105.74 99.5463 105.15 98.4663 105.15C97.3863 105.15 96.4663 105.88 96.4663 107.31V108.59C96.4663 110.03 97.3863 110.75 98.4663 110.75C99.5463 110.75 100.136 110.16 100.406 109.05L101.896 109.48C101.496 111.18 100.236 112.21 98.4663 112.21ZM109.678 112.06H107.698L105.118 108.69L104.568 109.32V112.06H102.998V103.84H104.568V107.03L107.328 103.84H109.378L106.178 107.49L109.678 112.06Z" fill="black"/>
</svg>
