<svg width="178" height="150" viewBox="0 0 178 150" fill="none" xmlns="http://www.w3.org/2000/svg">
<rect x="0.5" y="0.5" width="177" height="149" fill="white" stroke="#CCCCCC"/>
<path d="M122.428 70.848H121.228V59.712H122.428V70.848ZM116.272 69.396C114.64 69.396 113.308 68.34 113.308 65.664V63.972C113.308 61.296 114.64 60.24 116.272 60.24C117.88 60.24 119.212 61.296 119.212 63.972V65.664C119.212 68.34 117.88 69.396 116.272 69.396ZM116.272 68.304C117.256 68.304 118.024 67.584 118.024 65.652V63.984C118.024 62.04 117.256 61.332 116.272 61.332C115.288 61.332 114.508 62.04 114.508 63.984V65.652C114.508 67.584 115.288 68.304 116.272 68.304ZM131.875 63.72V64.944H134.731V65.976H124.267V64.944H127.135V63.72C126.115 63.444 125.491 62.82 125.491 61.86C125.491 60.492 126.751 59.832 128.623 59.832H130.375C132.259 59.832 133.507 60.492 133.507 61.86C133.507 62.82 132.895 63.432 131.875 63.72ZM126.691 61.872C126.691 62.544 127.459 62.904 128.839 62.904H130.171C131.551 62.904 132.319 62.532 132.319 61.872C132.319 61.188 131.551 60.84 130.171 60.84H128.839C127.459 60.84 126.691 61.188 126.691 61.872ZM128.275 63.888V64.944H130.735V63.888C129.919 63.9 129.091 63.9 128.275 63.888ZM128.227 66.924H130.771C132.571 66.924 133.567 67.776 133.567 68.94C133.567 70.116 132.571 70.968 130.771 70.968H128.227C126.427 70.968 125.431 70.116 125.431 68.94C125.431 67.776 126.427 66.924 128.227 66.924ZM128.467 69.924H130.543C131.803 69.924 132.379 69.54 132.379 68.928C132.379 68.34 131.803 67.956 130.543 67.956H128.467C127.207 67.956 126.631 68.34 126.631 68.928C126.631 69.54 127.207 69.924 128.467 69.924ZM140.889 67.08V66.108H143.997V59.712H145.185V68.58H143.997V67.08H140.889ZM139.521 67.476L138.369 67.392C138.453 66.636 138.525 65.916 138.573 65.208C138.261 65.22 137.961 65.22 137.673 65.22H135.813L135.765 64.188H137.769C138.549 64.188 139.593 64.14 140.661 64.068C140.841 62.988 140.961 61.92 140.961 61.224H136.533V60.18H142.125V60.78C142.125 61.836 142.017 62.928 141.849 63.972C142.269 63.936 142.677 63.888 143.073 63.84L143.193 64.848C142.137 64.992 140.901 65.1 139.737 65.16C139.689 65.904 139.617 66.672 139.521 67.476ZM138.897 67.884V69.756H145.653V70.848H137.709V67.884H138.897Z" fill="black"/>
<path d="M43.925 71.6147C43.6476 71.4827 43.5173 71.1673 43.6204 70.88C43.9555 69.9529 44.3415 69.0276 44.768 68.1314C46.2719 64.9716 48.2823 63.6516 50.4107 62.2553C50.6124 62.1232 50.8142 61.991 51.0166 61.8556C51.189 61.7411 51.4127 61.725 51.6006 61.8144L57.3681 64.5595C57.556 64.6489 57.6853 64.8331 57.7044 65.0388C57.7277 65.2816 57.7524 65.5214 57.7767 65.7602C58.0344 68.2941 58.2781 70.686 56.7739 73.8465C56.3477 74.742 55.8736 75.6255 55.3643 76.4705C55.2072 76.7321 54.8795 76.8295 54.602 76.6974L43.9232 71.6148L43.925 71.6147ZM54.62 75.3994C55.0068 74.7278 55.3712 74.0346 55.7032 73.337C57.0665 70.4727 56.8491 68.3422 56.5979 65.8746C56.5847 65.7439 56.5712 65.6121 56.5577 65.4803L51.3985 63.0248C51.2873 63.0981 51.1776 63.1703 51.0672 63.2422C48.9936 64.6034 47.203 65.7782 45.8398 68.6424C45.5074 69.3408 45.1992 70.0607 44.9222 70.7837L54.62 75.3994Z" fill="black"/>
<path d="M51.0953 62.8796C50.8001 62.7391 50.6734 62.3857 50.813 62.0924L53.5416 56.3595C53.6812 56.0662 54.0354 55.9417 54.3306 56.0822L60.098 58.8273C60.3932 58.9678 60.52 59.3211 60.3804 59.6145L57.6518 65.3474C57.5122 65.6407 57.158 65.7652 56.8628 65.6247L51.0953 62.8796ZM56.833 64.3048L59.0549 59.6365L54.3589 57.4013L52.1369 62.0697L56.833 64.3048Z" fill="black"/>
<path d="M51.8222 61.3524C51.527 61.2119 51.4003 60.8585 51.5399 60.5652C51.6795 60.2718 52.0337 60.1474 52.3289 60.2879L58.0963 63.0329C58.3915 63.1734 58.5183 63.5268 58.3787 63.8201C58.2391 64.1135 57.8849 64.238 57.5897 64.0974L51.8222 61.3524Z" fill="black"/>
<path d="M58.7629 59.4975C58.4677 59.357 58.341 59.0036 58.4806 58.7103L59.3917 56.7959C59.5314 56.5025 59.8855 56.3781 60.1808 56.5186C60.476 56.6591 60.6027 57.0125 60.4631 57.3058L59.5519 59.2202C59.4123 59.5135 59.0581 59.638 58.7629 59.4975Z" fill="black"/>
<path d="M54.6521 57.5409C54.3569 57.4004 54.2301 57.047 54.3697 56.7537L55.2809 54.8393C55.4205 54.546 55.7747 54.4215 56.0699 54.562C56.3651 54.7025 56.4919 55.0559 56.3523 55.3492L55.4411 57.2636C55.3015 57.5569 54.9473 57.6814 54.6521 57.5409Z" fill="black"/>
<path d="M48.1987 68.968C48.1588 68.949 48.1202 68.9252 48.0851 68.8977C47.8281 68.6942 47.784 68.3216 47.9867 68.0673L52.2975 62.652C52.4692 62.4361 52.7653 62.3688 53.0177 62.4888C53.0569 62.5075 53.0947 62.5309 53.1293 62.5573C53.3871 62.7612 53.4312 63.1338 53.2285 63.3881L48.9177 68.8035C48.7457 69.0201 48.4506 69.087 48.1998 68.9676L48.1987 68.968Z" fill="black"/>
<path d="M51.0813 70.34C50.7861 70.1995 50.6594 69.8461 50.799 69.5528L53.6966 63.4648C53.8362 63.1715 54.1904 63.047 54.4856 63.1875C54.7808 63.328 54.9076 63.6814 54.7679 63.9747L51.8703 70.0627C51.7307 70.356 51.3765 70.4805 51.0813 70.34Z" fill="black"/>
<path d="M53.9639 71.712C53.7131 71.5926 53.5794 71.3207 53.6386 71.0513L55.123 64.2907C55.1925 63.9731 55.5092 63.773 55.8285 63.8438C55.8719 63.8537 55.914 63.8683 55.9539 63.8873C56.2018 64.0053 56.339 64.2833 56.2807 64.5487L54.7963 71.3093C54.7268 71.627 54.4101 71.827 54.0908 71.7562C54.0467 71.746 54.0039 71.731 53.9639 71.712Z" fill="black"/>
<path d="M87.9118 74.4195L75.7776 68.6442L75.0778 70.1145L87.2119 75.8899L87.9118 74.4195Z" fill="black"/>
<path d="M91.3334 80.9588L73.872 72.6479L73.1721 74.1183L90.6335 82.4291L91.3334 80.9588Z" fill="black"/>
<path d="M80.4332 81.3614L71.7025 77.206L71.0027 78.6763L79.7334 82.8318L80.4332 81.3614Z" fill="black"/>
<path d="M96.4308 80.871L100.844 71.5997L98.5292 70.4982L99.992 63.2701L70.7038 57.2536L43.6963 44.3992L40.5286 51.0547L38.0188 50.5392L35.9822 60.6068L31.5695 69.8781L33.8838 70.9797L32.4214 78.207L61.7096 84.2235L88.7171 97.0779L91.8848 90.4223L94.3946 90.9379L96.4308 80.871ZM38.8889 54.4998L39.3007 52.4658L39.8074 52.5699L38.8889 54.4998ZM98.0639 64.5373L97.005 69.7727L76.8504 60.18L98.0639 64.5373ZM34.3488 76.9413L35.4077 71.7058L55.5623 81.2985L34.3488 76.9413ZM87.9364 94.9047L65.6147 84.2805L66.5447 82.3264L65.065 81.6221L64.1349 83.5762L33.7484 69.1135L44.4763 46.5739L74.8628 61.0365L73.9996 62.8502L75.4793 63.5545L76.3426 61.7408L98.6643 72.365L87.9364 94.9047ZM93.5238 86.9788L93.112 89.0128L92.6053 88.9086L93.5238 86.9788Z" fill="black"/>
<path d="M74.593 65.4167L73.1132 64.7124L71.947 67.1627L73.4268 67.867L74.593 65.4167Z" fill="black"/>
<path d="M72.5884 69.6285L71.1086 68.9242L69.9424 71.3745L71.4221 72.0789L72.5884 69.6285Z" fill="black"/>
<path d="M70.5355 73.9418L69.0557 73.2375L67.8894 75.6878L69.3692 76.3921L70.5355 73.9418Z" fill="black"/>
<path d="M68.5977 78.0132L67.1179 77.3089L65.9516 79.7592L67.4314 80.4635L68.5977 78.0132Z" fill="black"/>
<rect x="67.5" y="93.5" width="79" height="29" fill="white" stroke="#CCCCCC"/>
<rect x="114" y="107" width="20" height="2" fill="#CCCCCC"/>
<rect x="128.414" y="101" width="10" height="2" transform="rotate(45 128.414 101)" fill="#CCCCCC"/>
<rect x="135.485" y="108.071" width="10" height="2" transform="rotate(135 135.485 108.071)" fill="#CCCCCC"/>
<path d="M88.4005 103.84C90.0105 103.84 91.2305 104.66 91.2305 106.41C91.2305 108.18 90.0105 108.98 88.4005 108.98H86.5405V112.06H84.9705V103.84H88.4005ZM86.5405 107.6H88.3205C89.1905 107.6 89.6605 107.17 89.6605 106.41C89.6605 105.65 89.1905 105.22 88.3205 105.22H86.5405V107.6ZM93.7475 112.06H92.1775V103.84H93.7475V112.06ZM98.4663 112.21C96.5563 112.21 94.8963 110.92 94.8963 108.65V107.25C94.8963 104.99 96.5463 103.69 98.4663 103.69C100.236 103.69 101.496 104.72 101.896 106.42L100.406 106.85C100.136 105.74 99.5463 105.15 98.4663 105.15C97.3863 105.15 96.4663 105.88 96.4663 107.31V108.59C96.4663 110.03 97.3863 110.75 98.4663 110.75C99.5463 110.75 100.136 110.16 100.406 109.05L101.896 109.48C101.496 111.18 100.236 112.21 98.4663 112.21ZM109.678 112.06H107.698L105.118 108.69L104.568 109.32V112.06H102.998V103.84H104.568V107.03L107.328 103.84H109.378L106.178 107.49L109.678 112.06Z" fill="black"/>
</svg>
