<svg xmlns="http://www.w3.org/2000/svg" width="28" height="28" fill="none"><path fill="#999" d="M14 0C6.266 0 0 6.268 0 14s6.267 14 14 14c7.731 0 14-6.268 14-14C27.99 6.27 21.727.009 14 0M8.165 24.089v-.756a5.83 5.83 0 0 1 5.833-5.833 5.83 5.83 0 0 1 5.833 5.833v.756a11.58 11.58 0 0 1-11.666 0m2.333-12.422a3.5 3.5 0 0 1 3.5-3.5c1.934 0 3.5 1.566 3.5 3.5s-1.566 3.5-3.5 3.5a3.5 3.5 0 0 1-3.5-3.5m11.606 10.707a8.17 8.17 0 0 0-4.346-6.283 5.83 5.83 0 0 0 .7-8.219 5.83 5.83 0 0 0-8.22-.7 5.83 5.83 0 0 0 0 8.92 8.17 8.17 0 0 0-4.345 6.282C1.259 17.897 1.13 10.512 5.608 5.877s11.862-4.763 16.497-.286 4.762 11.862.285 16.497q-.141.145-.285.286"/></svg>