<svg xmlns="http://www.w3.org/2000/svg" width="47" height="46" fill="none"><path fill="#F6AE24" d="M17.199 35.938H3.74A1.444 1.444 0 0 1 2.299 34.5V2.875c0-.79.649-1.437 1.442-1.437h13.162c.512 0 .995.28 1.247.725l2.264 3.946c.13.223.367.36.627.36h21.625v19.406a.722.722 0 0 0 1.441 0v-23A2.88 2.88 0 0 0 41.224 0H3.741A2.88 2.88 0 0 0 .858 2.875V34.5a2.88 2.88 0 0 0 2.883 2.875h13.458c.396 0 .72-.323.72-.719a.72.72 0 0 0-.72-.718M42.666 2.874v2.156H21.459l-2.055-3.586v-.008h21.827c.793 0 1.442.647 1.442 1.438zm4.325 42.342a.717.717 0 0 1-.721.776H34.765a.72.72 0 0 1-.72-.719c0-.395.324-.719.72-.719h10.72l-1.32-15.093h-14.54l-.251 2.94a.72.72 0 0 1-.779.653.72.72 0 0 1-.656-.776l.31-3.594a.716.716 0 0 1 .72-.654h15.86c.374 0 .684.288.72.654zM30.41 34.5H20.32a.72.72 0 0 0-.714.618l-1.441 10.063a.72.72 0 0 0 .166.575.72.72 0 0 0 .547.244h12.975c.21 0 .411-.093.548-.244a.7.7 0 0 0 .166-.575l-1.442-10.063a.72.72 0 0 0-.713-.618M19.708 44.563l1.233-8.626h8.845l1.232 8.626zm7.821-5.75v.718a2.166 2.166 0 0 1-2.162 2.157c-1.19 0-2.163-.97-2.163-2.157v-.718a.722.722 0 0 1 1.442 0v.718a.722.722 0 0 0 1.442 0v-.718a.722.722 0 0 1 1.441 0m7.209-6.47v1.438c0 1.186.973 2.157 2.162 2.157s2.163-.97 2.163-2.157v-1.437a.722.722 0 0 1 1.441 0v1.437a3.6 3.6 0 0 1-3.604 3.594 3.6 3.6 0 0 1-3.604-3.594v-1.437a.722.722 0 0 1 1.442 0M15.995 5.032a.72.72 0 0 1-.72-.718.722.722 0 0 1 1.44 0 .72.72 0 0 1-.72.718m-5.767 26.594h11.534c.396 0 .72-.323.72-.719v-8.014l3.72-.618a.726.726 0 0 0 .591-.848l-1.442-7.188a.74.74 0 0 0-.382-.503l-5.766-2.875a.9.9 0 0 0-.325-.079h-5.766a.8.8 0 0 0-.325.08l-5.766 2.874a.72.72 0 0 0-.382.503l-1.442 7.188a.7.7 0 0 0 .115.546.74.74 0 0 0 .476.302l3.72.618v8.014c0 .396.324.719.72.719m7.93-19.406a2.166 2.166 0 0 1-2.163 2.156c-1.19 0-2.162-.97-2.162-2.156zM6.753 20.973l1.225-6.116 4.448-2.221c.216 1.782 1.723 3.17 3.56 3.17a3.59 3.59 0 0 0 3.562-3.17l4.447 2.22 1.226 6.117-2.754.46v-2.745a.722.722 0 0 0-1.442 0v11.5H10.935v-11.5a.722.722 0 0 0-1.442 0v2.745l-2.753-.46zM39.782 11.5a.72.72 0 0 0-.72-.719H28.97a.72.72 0 0 0-.72.719v4.313c0 .395.323.718.72.718h10.092c.396 0 .72-.323.72-.718zm-1.441 3.594h-8.65v-2.875h8.65zm1.441 4.312a.72.72 0 0 1-.72.719H28.97a.72.72 0 0 1-.72-.719c0-.395.323-.718.72-.718h10.092c.396 0 .72.323.72.718m0 3.594a.72.72 0 0 1-.72.719H28.97a.72.72 0 0 1-.72-.719c0-.395.323-.719.72-.719h10.092c.396 0 .72.324.72.719"/></svg>