<svg xmlns="http://www.w3.org/2000/svg" width="36" height="52" fill="none"><path fill="#F6AE24" d="M9.92 24.767a10.15 10.15 0 0 0-.95 6.344l2.586 20.135c.051.433.42.754.848.754H24.39c.428 0 .796-.32.848-.754l2.577-19.961.017-.174a10.15 10.15 0 0 0-.95-6.344l-1.636-4.135v-3.137c.317-.832 1.713-4.62 1.713-7.099 0-1.153-.18-2.297-.531-3.389a6.1 6.1 0 0 1-.326-1.803c.103-1.378.377-2.747.814-4.056a.875.875 0 0 0-.54-1.101.82.82 0 0 0-.59.017 24.1 24.1 0 0 1-7.39 1.673A24.1 24.1 0 0 1 11.009.064.855.855 0 0 0 9.895.55a.9.9 0 0 0-.017.598c.437 1.317.71 2.678.813 4.056a6 6 0 0 1-.334 1.812 11.2 11.2 0 0 0-.522 3.389c0 2.479 1.396 6.266 1.712 7.098v3.138l-1.635 4.134zM11.977 2.24a22.3 22.3 0 0 0 6.43 1.222 22.3 22.3 0 0 0 6.43-1.222 13.3 13.3 0 0 0-.437 2.956c.017.78.154 1.551.393 2.288.309.936.463 1.924.463 2.912a22.4 22.4 0 0 1-1.447 6.067H13.003a22.4 22.4 0 0 1-1.447-6.067c0-.988.154-1.968.462-2.912a7.7 7.7 0 0 0 .394-2.288 13.3 13.3 0 0 0-.436-2.956m11.566 17.69H13.268v-1.733h10.274zm-10.548 1.734h10.83l1.5 3.787s.025.061.033.087a8.6 8.6 0 0 1 .78 5.4l-2.483 19.329h-10.48L10.71 31.11l-.018-.173a8.6 8.6 0 0 1 .78-5.4c.017-.026.025-.052.042-.087l1.49-3.787z"/><path fill="#F6AE24" d="M22.686 32.932c-4.76 0-8.844-3.242-8.887-3.277l-1.07 1.352c.188.148 4.58 3.658 9.949 3.658v-1.733zM14.98 39.866v1.733a10.03 10.03 0 0 0 7.535-3.814l-1.37-1.04a8.4 8.4 0 0 1-6.164 3.12M21.83 7.796c-2.526 0-5.034-.286-7.5-.841l-.42 1.682a35.2 35.2 0 0 0 7.912.892V7.796zM20.974 12.13c-3.09 0-6.302-2.401-6.336-2.427l-1.027 1.386c.145.113 3.698 2.774 7.363 2.774zM21.83 23.397h-1.712v1.734h1.712zM19.262 25.998h-1.713v1.733h1.713zM17.55 46.8h-1.713v1.733h1.712zM33.816 12.996h-1.712v1.734h1.712zM33.816 16.463h-1.712v1.734h1.712zM32.104 14.73h-1.712v1.733h1.712zM35.529 14.73h-1.713v1.733h1.713zM3.85 25.998H2.139v1.733h1.713zM3.85 29.465H2.139v1.733h1.713zM2.138 27.731H.426v1.733h1.712zM5.563 27.731H3.85v1.733h1.712z"/></svg>