<svg xmlns="http://www.w3.org/2000/svg" width="39" height="46" fill="none"><path fill="#F6AE24" d="M1.085 37.375h18.347c.185 0 .37-.078.501-.212l7.055-7.185a.72.72 0 0 0 .208-.51V.718A.71.71 0 0 0 26.49 0H1.085A.71.71 0 0 0 .38.718v35.935c0 .395.317.717.705.717zm19.056-2.456v-4.734h4.647zM1.794 1.439h23.997v27.316h-6.35a.71.71 0 0 0-.705.717v6.468H1.794zM37.783 0h-8.469a.71.71 0 0 0-.704.718v35.935c0 .395.316.717.704.717h8.469a.71.71 0 0 0 .704-.717V.718A.706.706 0 0 0 37.784 0m-.705 1.44v30.907h-1.53a2.12 2.12 0 0 0-1.997-1.435c-.922 0-1.703.598-1.997 1.435h-1.53v-4.315h1.408a.71.71 0 0 0 .705-.717.71.71 0 0 0-.705-.718h-1.409v-2.875h2.119a.71.71 0 0 0 .704-.717.71.71 0 0 0-.704-.718h-2.119v-2.875h1.41a.71.71 0 0 0 .704-.718.71.71 0 0 0-.705-.717h-1.409v-2.875h2.119a.71.71 0 0 0 .704-.718.71.71 0 0 0-.704-.717h-2.119v-2.875h1.41a.71.71 0 0 0 .704-.718.71.71 0 0 0-.705-.718h-1.409V6.481h2.119a.71.71 0 0 0 .704-.717.71.71 0 0 0-.704-.718h-2.119V1.44zm0 34.5h-7.055v-2.158h2.119a.71.71 0 0 0 .704-.717c0-.396.316-.718.705-.718s.704.322.704.718.316.717.705.717h2.118zm1.057 5.842-4.941-2.875a.8.8 0 0 0-.348-.097H3.908C1.96 38.815.38 40.425.38 42.407.38 44.39 1.961 46 3.908 46h28.938a.8.8 0 0 0 .348-.092l4.941-2.875a.72.72 0 0 0 .357-.626.72.72 0 0 0-.357-.625m-5.1 2.562-1.426-1.937 1.427-1.936 1.942 1.131c0 .028-.018.056-.018.088v1.435c0 .032.014.055.018.087zm-2.872-1.504 1.27 1.725h-21.17V40.25h21.174l-1.27 1.725a.73.73 0 0 0 0 .865zm-28.369-.433c0-1.191.949-2.157 2.118-2.157h2.119v4.315H3.912c-1.17 0-2.118-.966-2.118-2.158m5.646 2.158V40.25h1.41v4.315zm.705-32.881v.534q.001.137.05.266l1.354 3.455a8.84 8.84 0 0 1-1.445 4.743l-2.67 4.075a.71.71 0 0 0-.08.626c.144.441 1.232 2.645 8.432 2.645s8.288-2.204 8.432-2.645a.73.73 0 0 0-.08-.626l-2.67-4.075a8.9 8.9 0 0 1-1.445-4.743l1.355-3.455a.8.8 0 0 0 .05-.266v-.534c0-1.37-.895-2.52-2.12-2.907V7.19a.71.71 0 0 0-.704-.718.71.71 0 0 0-.704.718v1.49a3 3 0 0 0-1.979 1.311l-.14.216-.14-.216a2.98 2.98 0 0 0-1.978-1.31V7.19a.71.71 0 0 0-.705-.718.71.71 0 0 0-.704.718v1.587a3.04 3.04 0 0 0-2.119 2.907zm8.694 6.284h-6.102c.1-.474.172-.953.203-1.436h5.696c.032.483.104.966.203 1.436m3.853 7.171c-.271.244-.89.649-2.155.97-.009-.009-.009-.018-.018-.022-.018-.019-1.992-2.061-2.637-4.697a.704.704 0 0 0-.854-.524.72.72 0 0 0-.515.869c.51 2.075 1.685 3.777 2.407 4.674-.853.11-1.888.179-3.134.179-1.247 0-2.281-.069-3.14-.18.723-.896 1.902-2.603 2.413-4.678a.717.717 0 0 0-.515-.869.7.7 0 0 0-.854.524c-.646 2.636-2.62 4.679-2.638 4.697q-.012.017-.018.032c-1.273-.322-1.883-.731-2.15-.975l2.399-3.662c.429-.653.772-1.347 1.039-2.07h6.937a10.3 10.3 0 0 0 1.039 2.07zM9.554 11.684c0-.897.713-1.624 1.594-1.624.533 0 1.03.272 1.324.722l.727 1.114c.262.4.912.4 1.174 0l.727-1.114c.298-.45.79-.722 1.324-.722.88 0 1.594.727 1.594 1.624v.396l-1.183 3.013h-6.102L9.549 12.08v-.396zm-5.646-7.37c0-.395.316-.717.704-.717h1.41c.388 0 .704.322.704.718a.71.71 0 0 1-.704.717h-1.41a.71.71 0 0 1-.704-.717m0 2.876c0-.396.316-.718.704-.718h2.823c.389 0 .705.322.705.718a.71.71 0 0 1-.705.717H4.612a.71.71 0 0 1-.704-.717m4.237 25.875a.71.71 0 0 1-.705.717H4.617a.71.71 0 0 1-.705-.717c0-.396.317-.718.705-.718H7.44c.388 0 .705.322.705.718m3.527-2.875a.71.71 0 0 1-.705.717h-6.35a.71.71 0 0 1-.705-.717c0-.396.317-.718.705-.718h6.35c.389 0 .705.322.705.718"/></svg>