<svg xmlns="http://www.w3.org/2000/svg" width="28" height="26" fill="none"><path fill="#999" d="M27.57 10.902 14.737.266a1.16 1.16 0 0 0-1.476 0L.428 10.902a1.193 1.193 0 0 0-.166 1.664 1.157 1.157 0 0 0 1.642.168L3.5 11.411v11.044C3.5 24.413 5.066 26 7 26h13.999c1.934 0 3.5-1.587 3.5-3.545V11.41l1.595 1.323a1.157 1.157 0 0 0 1.642-.168 1.193 1.193 0 0 0-.166-1.664M11.666 23.636v-5.909c0-.653.522-1.181 1.166-1.181h2.334c.644 0 1.166.528 1.166 1.181v5.91zm10.5-1.181c0 .653-.523 1.181-1.167 1.181h-2.333v-5.909c0-1.959-1.567-3.545-3.5-3.545h-2.334c-1.933 0-3.5 1.586-3.5 3.545v5.91H7a1.174 1.174 0 0 1-1.166-1.182V9.478l8.166-6.769 8.167 6.77z"/></svg>