<svg xmlns="http://www.w3.org/2000/svg" width="26" height="170" fill="none"><path fill="#AAA" d="M13.331 60.66h.79v-1.52h.93v1.52h4.95v1h-4.95v1.06h-.93v-1.06h-.83c-1.09 0-1.67-.61-1.67-1.52 0-.38.14-.9.39-1.28l.79.36c-.18.31-.27.54-.27.8 0 .4.21.64.8.64m6.82-4.845c0 1.43-.92 2.7-2.69 2.7h-.8c-1.76 0-2.69-1.27-2.69-2.7 0-1.44.93-2.71 2.69-2.71h.8c1.77 0 2.69 1.27 2.69 2.71m-.92 0c0-.91-.62-1.7-1.8-1.7h-.74c-1.18 0-1.8.79-1.8 1.7 0 .92.62 1.7 1.8 1.7h.74c1.18 0 1.8-.79 1.8-1.7m-5.26-6.465c0-.28.05-.57.13-.78l.9.24c-.07.23-.11.49-.11.71 0 .71.65 1.28 1.59 1.28h3.52v1h-5.88v-.93l.88-.05c-.62-.28-1.03-.78-1.03-1.47m0-10.29c0-1.19.96-2 2.45-2h3.58v1.01h-3.57c-1.03 0-1.54.5-1.54 1.26 0 .75.6 1.3 1.56 1.3h3.55v.98h-3.57c-1.04 0-1.55.5-1.55 1.26 0 .75.55 1.3 1.57 1.3h3.55v1h-5.88v-.93l.79-.05c-.55-.32-.94-.87-.94-1.59 0-.8.43-1.41 1.16-1.73-.68-.33-1.16-.98-1.16-1.81m0-5.732c0-1.36.84-2.35 2.28-2.35h3.75v.92l-.77.05c.56.32.92.93.92 1.72v.39c0 1.09-.77 1.9-1.86 1.9-1.05 0-1.8-.79-1.8-2.23v-1.76h-.19c-.84 0-1.41.48-1.41 1.43 0 .67.31 1.16.83 1.43l-.4.9c-.78-.42-1.35-1.31-1.35-2.4m5.26.54v-.38c0-.74-.44-1.43-1.17-1.52h-.69v1.72c0 .87.37 1.28.93 1.28.57 0 .93-.44.93-1.1m-5.26-7.144c0-1.31.96-2.22 2.45-2.22h3.58v1.01h-3.53c-1.04 0-1.58.54-1.58 1.47 0 .89.63 1.58 1.56 1.58h3.55v1h-5.88v-.93l.85-.05c-.6-.37-1-1.02-1-1.86m0-5.955c0-1.36.84-2.35 2.28-2.35h3.75v.92l-.77.05c.56.32.92.93.92 1.72v.39c0 1.09-.77 1.9-1.86 1.9-1.05 0-1.8-.79-1.8-2.23v-1.76h-.19c-.84 0-1.41.48-1.41 1.43 0 .67.31 1.16.83 1.43l-.4.9c-.78-.42-1.35-1.31-1.35-2.4m5.26.54v-.38c0-.74-.44-1.43-1.17-1.52h-.69v1.72c0 .87.37 1.28.93 1.28.57 0 .93-.44.93-1.1m-4.31-8.424-.8-.06v-.93h5.08c1.76 0 2.65 1.2 2.65 2.68 0 1.11-.36 2.08-1.18 2.5l-.4-1.01c.48-.24.73-.83.73-1.49 0-1.07-.68-1.67-1.86-1.67h-.39c.58.46.91 1.17.91 1.94 0 1.2-.97 2.41-2.55 2.41h-.59c-1.57 0-2.55-1.21-2.55-2.41 0-.79.34-1.51.95-1.96m3.85 1.68c0-.92-.63-1.66-1.69-1.66h-.53c-1.06 0-1.69.75-1.69 1.66 0 .94.63 1.69 1.69 1.69h.53c1.06 0 1.69-.75 1.69-1.69m-1.99-9.231h.64v4.33c1.21-.02 1.84-.79 1.84-1.69 0-.71-.35-1.36-1.03-1.63l.3-.92c1.07.37 1.62 1.41 1.62 2.55 0 1.42-.94 2.67-2.76 2.67h-.67c-1.81 0-2.75-1.23-2.75-2.65 0-1.45.95-2.66 2.81-2.66m-.21 4.32v-3.32c-1.04 0-1.7.71-1.7 1.66 0 .87.58 1.6 1.7 1.66m-2.6-8.068c0-.28.05-.57.13-.78l.9.24c-.07.23-.11.49-.11.71 0 .71.65 1.28 1.59 1.28h3.52v1h-5.88v-.93l.88-.05c-.62-.28-1.03-.78-1.03-1.47"/><path fill="#1F1F1F" d="M3 90.669v.029c0 1.321 1.04 2.393 2.323 2.393s2.323-1.072 2.323-2.393c0-1.322-1.04-2.393-2.323-2.393S3.014 89.362 3 90.669"/><path fill="#F6AC36" d="M2.865 151.989c0 1.211.228 2.33.68 3.33a7.2 7.2 0 0 0 1.209 1.864 6 6 0 0 0-1.213 1.678c-.452.918-.68 1.96-.68 3.099 0 .937.158 1.822.475 2.634.163.423.368.822.606 1.187a2.3 2.3 0 0 0-.298.264c-.406.433-.607.98-.607 1.629s.21 1.206.625 1.648c.42.452.97.678 1.633.678H18.22c.64 0 1.18-.226 1.61-.668.429-.442.648-.999.648-1.658s-.22-1.245-.658-1.682q-.645-.643-1.6-.644h-8.19c-.891 0-1.591-.259-2.146-.788-.537-.514-.798-1.172-.798-2.004 0-.831.224-1.408.681-1.864s1.18-.688 2.15-.688h8.308c.64 0 1.18-.225 1.61-.668.428-.442.648-.999.648-1.658s-.22-1.249-.658-1.681q-.647-.643-1.6-.644h-8.19c-.892 0-1.591-.26-2.147-.789-.536-.514-.797-1.158-.797-1.975s.224-1.408.68-1.864c.458-.457 1.181-.687 2.151-.687h8.308c.639 0 1.18-.226 1.609-.668s.648-1 .648-1.658c0-.659-.219-1.25-.657-1.682-.43-.428-.966-.644-1.6-.644H9.922c-2.169 0-3.904.61-5.15 1.816-1.259 1.221-1.898 2.831-1.898 4.787zM3.905 129.489c-.732 1.24-1.1 2.72-1.1 4.392s.382 3.229 1.133 4.575a8.17 8.17 0 0 0 3.176 3.177c1.339.749 2.864 1.129 4.539 1.129s3.209-.404 4.543-1.202c1.339-.797 2.402-1.927 3.153-3.344.747-1.408 1.124-3.018 1.124-4.782 0-.999-.182-2.057-.531-3.143-.355-1.091-.826-2.018-1.395-2.753-.378-.524-.896-.798-1.493-.798-.415 0-1.026.139-1.562.802q-.49.558-.49 1.433c0 .581.163 1.057.48 1.47.257.346.48.807.667 1.374.187.563.28 1.106.28 1.615 0 1.341-.35 2.432-1.073 3.34-.527.658-1.152 1.115-1.907 1.389v-10.356c0-.611-.196-1.13-.579-1.543a1.97 1.97 0 0 0-1.474-.634c-1.642 0-3.125.331-4.408.98a7.36 7.36 0 0 0-3.078 2.874zm2.948 4.392c0-1.11.308-1.975.942-2.643.48-.505 1.064-.855 1.782-1.076v7.953a4.1 4.1 0 0 1-1.754-1.216c-.653-.764-.97-1.754-.97-3.018"/><path fill="#1F1F1F" d="M3.97 100.727c-.774 1.384-1.161 2.932-1.161 4.604s.392 3.21 1.166 4.58a8.8 8.8 0 0 0 3.186 3.253c1.343.793 2.855 1.197 4.496 1.197h12.086c.663 0 1.213-.226 1.633-.678.415-.442.625-.995.625-1.648 0-.654-.215-1.24-.635-1.673-.42-.432-.965-.653-1.623-.653h-4.865c.317-.433.597-.904.826-1.399.513-1.1.774-2.306.774-3.575 0-1.581-.392-3.037-1.162-4.325-.764-1.283-1.837-2.307-3.19-3.042-1.339-.726-2.84-1.096-4.473-1.096s-3.149.4-4.492 1.182a8.6 8.6 0 0 0-3.195 3.273zm3.601 6.901c-.406-.687-.601-1.437-.601-2.297s.2-1.615.601-2.297.961-1.23 1.67-1.629c.714-.404 1.53-.606 2.416-.606.887 0 1.694.202 2.398.606.7.399 1.26.946 1.66 1.629.397.677.602 1.451.602 2.297s-.196 1.61-.601 2.297a4.3 4.3 0 0 1-1.652 1.61c-.704.394-1.511.591-2.407.591-.895 0-1.707-.202-2.425-.596a4.35 4.35 0 0 1-1.665-1.61zM8.85 90.698c0 .653.21 1.206.624 1.648.42.452.97.678 1.633.678h7.118c.64 0 1.18-.226 1.61-.668.428-.442.648-1 .648-1.658s-.22-1.245-.658-1.682q-.647-.643-1.6-.644h-7.118c-.658 0-1.203.221-1.623.653s-.635.995-.635 1.673"/><path fill="#F6AC36" d="M0 120.276c0 1.264.999 2.293 2.226 2.293h16.032c1.227 0 2.225-1.029 2.225-2.293 0-1.263-.998-2.292-2.225-2.292H2.226c-1.227 0-2.225 1.029-2.225 2.292"/><path fill="#1F1F1F" d="m16.914 70.51-6.33 5.314-3.866-4.901a1.97 1.97 0 0 0-1.59-.774 1.96 1.96 0 0 0-1.414.591c-.476.409-.728.966-.728 1.615 0 .562.205 1.081.57 1.456l4.738 5.887H5.09c-1.227 0-2.225 1.028-2.225 2.292s.998 2.292 2.225 2.292h13.168c1.227 0 2.225-1.028 2.225-2.292s-.998-2.292-2.225-2.292h-4.329l-.462-.538 6.185-5.157a2.13 2.13 0 0 0 .821-1.706q-.001-.786-.527-1.47c-.438-.539-1.017-.827-1.67-.827-.536 0-1.007.178-1.366.514z"/><path fill="#fff" d="M17.964 121.915a.2.2 0 0 0 .196.202c1.567 0 1.786-1.495 1.786-1.509.014-.106-.056-.211-.163-.226a.193.193 0 0 0-.22.168c-.004.048-.181 1.168-1.403 1.168a.2.2 0 0 0-.196.202zM17.549 121.915a.204.204 0 0 0-.2-.207c-.112 0-.201.093-.201.207s.09.207.2.207.2-.093.2-.207"/></svg>