<svg xmlns="http://www.w3.org/2000/svg" width="28" height="28" fill="none"><path fill="#999" d="M1.166 7c.645 0 1.167-.522 1.167-1.167v-3.5h3.5a1.166 1.166 0 1 0 0-2.333h-3.5A2.333 2.333 0 0 0 0 2.333v3.5C0 6.478.522 7 1.166 7M2.333 28h3.5a1.166 1.166 0 1 0 0-2.333h-3.5v-3.5a1.166 1.166 0 1 0-2.333 0v3.5A2.333 2.333 0 0 0 2.333 28M28 25.667v-3.5a1.166 1.166 0 1 0-2.334 0v3.5h-3.5a1.166 1.166 0 1 0 0 2.333h3.5A2.333 2.333 0 0 0 28 25.667M22.166 0a1.166 1.166 0 1 0 0 2.333h3.5v3.5a1.166 1.166 0 1 0 2.334 0v-3.5A2.333 2.333 0 0 0 25.666 0zM7 19.834a1.166 1.166 0 1 0 2.333 0A4.665 4.665 0 0 1 14 15.167a4.665 4.665 0 0 1 4.666 4.667 1.166 1.166 0 1 0 2.334 0 6.99 6.99 0 0 0-3.626-6.125 4.667 4.667 0 1 0-6.749 0A7 7 0 0 0 7 19.834m4.666-9.334a2.333 2.333 0 1 1 4.666-.001 2.333 2.333 0 0 1-4.666.001"/></svg>