<svg xmlns="http://www.w3.org/2000/svg" width="28" height="28" fill="none"><path fill="#999" d="M3.936 28c-1.05 0-2.037-.37-2.782-1.045C.41 26.282 0 25.39 0 24.44V3.561c0-.95.41-1.842 1.155-2.516S2.887 0 3.936 0h20.126c1.05 0 2.037.37 2.782 1.045S28 2.612 28 3.56v20.878c0 .95-.41 1.843-1.155 2.516C26.1 27.63 25.112 28 24.062 28zm-1.984-3.564c0 .478.208.924.584 1.264s.872.528 1.397.528H24.06a2.07 2.07 0 0 0 1.397-.528c.376-.34.584-.789.584-1.264V7.249H1.952zM26.046 5.48V3.558a1.7 1.7 0 0 0-.584-1.264 2.08 2.08 0 0 0-1.4-.528H21.75V5.48zm-6.253 0V1.766H3.936c-.528 0-1.024.189-1.397.528a1.7 1.7 0 0 0-.584 1.267v1.92h17.841zM16.939 23.59c-.54 0-.978-.396-.978-.884 0-.489.438-.885.978-.885h2.432v-.368c0-.488.438-.884.978-.884s.978.396.978.884v1.253c0 .488-.438.884-.978.884zm-9.29 0c-.54 0-.977-.396-.977-.884v-1.253c0-.488.437-.884.978-.884s.978.396.978.884v.37h2.431c.54 0 .978.397.978.885 0 .49-.438.885-.978.885h-3.41zm-1.2-4.257c-.541 0-.979-.396-.979-.884 0-.49.438-.885.978-.885H21.55c.54 0 .978.396.978.884 0 .49-.437.885-.978.885zm0-2.968c-.541 0-.979-.396-.979-.885 0-.488.438-.884.978-.884H21.55c.54 0 .978.396.978.884 0 .489-.437.885-.978.885zm1.2-3.005c-.54 0-.977-.396-.977-.884v-1.253c0-.488.437-.884.978-.884h3.409c.54 0 .978.396.978.884 0 .489-.438.885-.978.885H8.628v.368c0 .488-.438.884-.978.884m12.697 0c-.54 0-.978-.396-.978-.884v-.368h-2.435c-.537 0-.975-.399-.975-.885s.438-.884.978-.884h3.41c.54 0 .978.396.978.884v1.253c0 .488-.438.884-.978.884"/></svg>