<svg xmlns="http://www.w3.org/2000/svg" width="26" height="26" fill="none"><path fill="#999" d="m.457 19.091.514.813c.818 1.313 2.565 1.88 4.102 1.324l1.44-.515c.744.531 1.565.967 2.437 1.298l.237 1.392c.242 1.497 1.646 2.605 3.298 2.597h1.028c1.652.005 3.056-1.1 3.301-2.595l.234-1.392c.878-.33 1.702-.766 2.453-1.297l1.44.515c1.53.547 3.27-.017 4.086-1.325l.515-.812c.839-1.308.496-2.985-.804-3.927l-1.182-.878a8.9 8.9 0 0 0 0-2.594l1.182-.878c1.288-.94 1.631-2.605.804-3.91l-.515-.813c-.821-1.311-2.565-1.874-4.102-1.322l-1.424.512a10.8 10.8 0 0 0-2.438-1.297l-.234-1.392c-.248-1.5-1.66-2.608-3.316-2.595h-1.028c-1.652-.005-3.056 1.1-3.301 2.595L8.95 3.987c-.872.33-1.693.766-2.438 1.297l-1.44-.514C3.537 4.217 1.79 4.778.972 6.09l-.514.813c-.84 1.31-.497 2.987.803 3.93l1.183.877a8.9 8.9 0 0 0 0 2.595l-1.183.877c-1.288.94-1.63 2.603-.803 3.908m2.281-2.226 1.735-1.276c.346-.254.508-.663.42-1.061a7 7 0 0 1 0-3.055c.088-.399-.074-.808-.42-1.062L2.738 9.135c-.378-.276-.476-.763-.233-1.145l.514-.813c.24-.384.748-.547 1.197-.384l2.086.742c.414.146.881.07 1.212-.198a8.4 8.4 0 0 1 2.873-1.525c.42-.127.727-.463.794-.864l.34-2.023c.071-.436.482-.76.964-.758h1.028c.482 0 .893.322.964.758l.34 2.02c.068.401.375.737.795.865a8.4 8.4 0 0 1 2.872 1.524c.331.268.798.344 1.212.198l2.086-.742c.444-.154.946.008 1.183.385l.514.812c.242.382.145.87-.234 1.146l-1.735 1.275c-.345.255-.508.664-.42 1.062a7 7 0 0 1 0 3.055c-.088.398.075.807.42 1.061l1.735 1.276c.378.276.476.761.234 1.143l-.514.813c-.237.379-.74.541-1.183.387l-2.086-.742a1.27 1.27 0 0 0-1.212.197 8.4 8.4 0 0 1-2.872 1.525c-.42.128-.727.463-.795.864l-.34 2.026c-.071.436-.482.761-.964.758h-1.028c-.482 0-.893-.322-.964-.758l-.34-2.02c-.067-.401-.375-.737-.794-.864a8.4 8.4 0 0 1-2.873-1.525 1.24 1.24 0 0 0-.783-.27q-.223-.002-.429.075l-2.086.742c-.45.162-.96 0-1.197-.387l-.514-.813c-.246-.382-.148-.872.233-1.148"/><path fill="#999" d="M13 17.333c2.612 0 4.728-1.939 4.728-4.333s-2.116-4.333-4.729-4.333S8.271 10.606 8.271 13s2.116 4.333 4.728 4.333m0-6.5c1.305 0 2.363.97 2.363 2.167S14.305 15.167 13 15.167s-2.364-.97-2.364-2.167 1.058-2.167 2.364-2.167"/></svg>