<svg xmlns="http://www.w3.org/2000/svg" width="72" height="72" fill="none"><circle cx="36" cy="36" r="35.5" fill="#fff" stroke="#DDD"/><path fill="#F6AE24" stroke="#F6AE24" d="M19.479 18.5h3.608a3.94 3.94 0 0 1 3.724 2.697l.094.326v.001l.636 2.595.093.381H53.49q.089.001.21.023a.995.995 0 0 1 .791 1.056l-.014.102-2.956 16.498a1 1 0 0 1-.988.821h-20.55l-.078.026-1.848.63a2.5 2.5 0 0 0-1.677 2.165l-.008.185c-.037 1.293.943 2.416 2.245 2.493l.371.021.128-.348a3.98 3.98 0 0 1 2.113-2.264l.196-.08h.002c2.027-.77 4.298.275 5.061 2.345l.121.327h7.167l.117-.337a3.96 3.96 0 0 1 2.195-2.356l.207-.081c1.977-.707 4.158.29 4.95 2.246l.072.192c.726 2.087-.36 4.38-2.402 5.11-2.041.73-4.299-.357-5.022-2.438l-.118-.336h-7.168l-.12.33c-.384 1.056-1.16 1.892-2.159 2.32l-.203.08h-.001c-2.027.743-4.286-.315-5.037-2.4l-.114-.318-.34-.012-.218-.013c-2.177-.186-3.899-2.008-3.996-4.24l-.005-.224v-.004c0-1.812 1.079-3.43 2.689-4.124l.329-.126.002-.001.873-.3.405-.14-.076-.422-2.751-15.18-.002-.013-.003-.014-.873-3.675v-.002l-.047-.165a1.97 1.97 0 0 0-1.874-1.357h-3.608a.994.994 0 0 1-.979-1c0-.555.448-1 .979-1Zm13.31 29c-1.097 0-1.98.906-1.98 2s.883 2 1.98 2c1.095 0 1.978-.906 1.978-2s-.883-2-1.979-2Zm14.787 0c-1.096 0-1.978.906-1.978 2s.882 2 1.978 2 1.979-.906 1.979-2-.883-2-1.979-2Zm-19.42-20.412 2.41 13.5.074.412h19.07l.074-.411 2.425-13.5.105-.589H28.052zM34.265 29c.531 0 .98.444.98 1v6c0 .556-.449 1-.98 1a.994.994 0 0 1-.978-1v-6c0-.555.448-1 .979-1Zm5.917 0c.53 0 .978.445.978 1v6c0 .556-.448 1-.978 1a.995.995 0 0 1-.98-1v-6c0-.556.45-1 .98-1Zm5.915 0c.53 0 .978.445.978 1v6c0 .556-.448 1-.978 1a.994.994 0 0 1-.979-1v-6c0-.556.448-1 .979-1Z"/></svg>