<svg xmlns="http://www.w3.org/2000/svg" width="72" height="72" fill="none"><circle cx="36" cy="36" r="35.5" fill="#fff" stroke="#DDD"/><path fill="#F6AE24" d="M52.5 18h-33c-.825 0-1.5.675-1.5 1.5s.675 1.5 1.5 1.5H21v16.5c0 2.483 2.017 4.5 4.5 4.5h6.877l-6.435 6.443a1.5 1.5 0 0 0-.165 2.114 1.498 1.498 0 0 0 2.28 0l6.443-6.434V52.5c0 .825.675 1.5 1.5 1.5s1.5-.675 1.5-1.5v-8.377l6.443 6.435a1.5 1.5 0 0 0 2.115-2.115L39.622 42H46.5c2.483 0 4.5-2.017 4.5-4.5V21h1.5c.825 0 1.5-.675 1.5-1.5s-.675-1.5-1.5-1.5M48 37.5c0 .825-.675 1.5-1.5 1.5h-21c-.825 0-1.5-.675-1.5-1.5V21h24z"/><path fill="#F6AE24" d="M30 36c.825 0 1.5-.675 1.5-1.5V30c0-.825-.675-1.5-1.5-1.5s-1.5.675-1.5 1.5v4.5c0 .825.675 1.5 1.5 1.5M36 36c.825 0 1.5-.675 1.5-1.5v-9c0-.825-.675-1.5-1.5-1.5s-1.5.675-1.5 1.5v9c0 .825.675 1.5 1.5 1.5M42 36c.825 0 1.5-.675 1.5-1.5v-6c0-.825-.675-1.5-1.5-1.5s-1.5.675-1.5 1.5v6c0 .825.675 1.5 1.5 1.5"/></svg>