<svg xmlns="http://www.w3.org/2000/svg" width="72" height="72" fill="none"><circle cx="36" cy="36" r="35.5" fill="#fff" stroke="#DDD"/><path fill="#F6AE24" d="M19.5 54h21c.825 0 1.5-.675 1.5-1.5s-.675-1.5-1.5-1.5H21v-1.305c0-.555.352-1.05.878-1.237l10.117-3.54c.6-.21 1.005-.78 1.005-1.418v-3c0-.825-.675-1.5-1.5-1.5a9.7 9.7 0 0 1-5.25-1.62c1.5-1.778 3.75-5.43 3.75-11.82.098-2.43 2.903-4.56 6-4.56s5.903 2.13 6 4.5c0 6.435 2.19 10.103 3.75 11.888A9.7 9.7 0 0 1 40.5 39c-.825 0-1.5.675-1.5 1.5v3c0 .825.675 1.5 1.5 1.5s1.5-.675 1.5-1.5v-1.597c2.64-.368 5.1-1.538 7.057-3.346.316-.315.48-.75.443-1.192a1.5 1.5 0 0 0-.638-1.102C48.69 36.15 45 33.473 45 25.44c-.172-4.035-4.29-7.44-9-7.44s-8.827 3.405-9 7.5c0 7.972-3.69 10.65-3.832 10.755a1.49 1.49 0 0 0-.668 1.095 1.5 1.5 0 0 0 .435 1.207A13.1 13.1 0 0 0 30 41.903v.532l-9.12 3.195A4.31 4.31 0 0 0 18 49.695V52.5c0 .825.675 1.5 1.5 1.5"/><path fill="#F6AE24" d="M52.5 46.5h-3v-3c0-.825-.675-1.5-1.5-1.5s-1.5.675-1.5 1.5v3h-3c-.825 0-1.5.675-1.5 1.5s.675 1.5 1.5 1.5h3v3c0 .825.675 1.5 1.5 1.5s1.5-.675 1.5-1.5v-3h3c.825 0 1.5-.675 1.5-1.5s-.675-1.5-1.5-1.5"/></svg>