<svg xmlns="http://www.w3.org/2000/svg" width="72" height="72" fill="none"><circle cx="36" cy="36" r="35.5" fill="#fff" stroke="#DDD"/><path fill="#F6AE24" d="M42 30c0-3.315-2.685-6-6-6s-6 2.685-6 6 2.684 6 6 6 6-2.684 6-6m-9 0a3 3 0 1 1 6 0 3 3 0 1 1-6 0"/><path fill="#F6AE24" d="m22.596 39.976-4.5 12a1.496 1.496 0 0 0 .878 1.928c.165.06.345.097.525.097h33c.826 0 1.501-.675 1.501-1.5 0-.18-.03-.352-.097-.525l-4.5-12A1.5 1.5 0 0 0 48 39h-2.49A17.85 17.85 0 0 0 48 30C48 23.37 42.622 18 36 18c-6.623 0-12.001 5.37-12.001 12a20.94 20.94 0 0 0 2.543 9h-2.543a1.5 1.5 0 0 0-1.403.976M36 21c4.973 0 9 4.028 9 9 0 7.943-6.75 13.208-9 14.738A18.54 18.54 0 0 1 27 30c0-4.972 4.028-9 9-9m-7.5 21a22.7 22.7 0 0 0 6.75 5.806 1.49 1.49 0 0 0 1.5 0 26.9 26.9 0 0 0 6.683-5.805h3.525l3.375 9H21.666l3.375-9z"/></svg>