<svg width="36" height="32" viewBox="0 0 36 32" fill="none" xmlns="http://www.w3.org/2000/svg">
<path d="M34.3783 11.7041C34.7203 11.4433 35.0502 11.1767 35.3742 10.8922C35.6142 10.6789 35.6382 10.3174 35.4342 10.0745L31.6546 5.55307C31.5406 5.41678 31.3786 5.33381 31.1986 5.33381H24.8513L23.3994 0.42131C23.3214 0.160574 23.0755 -0.0112749 22.7995 0.000576689H21.5996C21.2697 0.000576689 20.9997 0.261313 20.9937 0.587233C20.9937 0.616862 20.9937 0.646491 20.9937 0.67612L21.6716 5.33381H14.3224L14.9943 0.67612C15.0423 0.3502 14.8143 0.0539091 14.4844 0.00650251C14.4544 0.00650251 14.4244 0.000576689 14.3944 0.00650251H13.1945C12.9185 -0.00534913 12.6726 0.1665 12.5946 0.427236L11.1307 5.28641H4.77737C4.59139 5.28641 4.41741 5.36937 4.30342 5.51751L0.625802 10.1989C0.433821 10.4478 0.469818 10.7974 0.703793 11.0048C0.991764 11.2537 1.30373 11.4907 1.5917 11.7218L0.0318631 16.4032C-0.0701263 16.6995 0.0798581 17.0255 0.379827 17.144L6.37921 19.5143C6.68517 19.6328 7.03314 19.4847 7.15912 19.1825L8.401 16.1129V31.4074C8.401 31.7333 8.67097 32 9.00093 32H26.9991C27.329 32 27.599 31.7333 27.599 31.4074V16.1129L28.8409 19.1825C28.9609 19.4847 29.3088 19.6328 29.6208 19.5143L35.6202 17.144C35.9201 17.0255 36.0701 16.6995 35.9681 16.4032L34.3783 11.7041ZM29.3628 6.51898C28.2409 7.25378 26.9871 7.77525 25.6732 8.05377L25.1993 6.51898H29.3628ZM22.3495 1.18574L24.4793 8.24339C24.1194 8.29672 23.7594 8.29672 23.3994 8.29672H23.3214L22.2896 1.18574H22.3495ZM21.8456 6.51898L22.1036 8.29672H13.8904L14.1544 6.47157L21.8456 6.51898ZM13.6505 1.18574H13.7104L12.6786 8.29672H12.6006C12.2406 8.29672 11.8806 8.29672 11.5207 8.24339L13.6505 1.18574ZM10.3268 8.04784C8.97694 7.7634 7.69307 7.21822 6.55319 6.45379H10.8067L10.3268 8.04784ZM4.92736 6.69675C7.07513 8.48635 9.79285 9.47596 12.6006 9.48189H23.3994C26.2131 9.48189 28.9309 8.50413 31.0846 6.72046L34.1443 10.3826C33.3944 11.0048 32.5905 11.5559 31.7446 12.0418L29.9448 9.17374L28.9249 9.80188L30.6887 12.587C29.5008 13.15 28.2469 13.5707 26.9571 13.8433L26.3991 11.71L25.1993 11.9944L25.7152 14.0448C24.9473 14.1574 24.1734 14.2166 23.3994 14.2225H22.1996V11.2596H20.9997V14.2225H18.5519L18.5999 13.0374H17.4001L17.3461 14.2225H15.0003V11.2596H13.8004V14.2225H12.6006C11.8206 14.2225 11.0407 14.1574 10.2668 14.0448L10.8007 11.9944L9.60087 11.71L9.06093 13.8374C7.77106 13.5648 6.51719 13.144 5.32931 12.5811L7.09313 9.79596L6.07324 9.16782L4.27342 12.0359C3.45151 11.5737 2.67759 11.0463 1.94566 10.4537L4.92736 6.69675ZM6.26522 18.1928L1.34573 16.2492L2.64159 12.4448C4.18943 13.464 5.88726 14.2344 7.67507 14.7381L6.26522 18.1928ZM9.60087 30.8148V15.1529C10.5908 15.3188 11.5927 15.4077 12.6006 15.4077H23.3994C24.4073 15.4077 25.4092 15.3188 26.3991 15.1529V30.8148H9.60087ZM29.7348 18.1928L28.3309 14.7262C30.1187 14.2285 31.8106 13.4581 33.3584 12.4448L34.6483 16.267L29.7348 18.1928Z" fill="black"/>
</svg>
