<svg width="30" height="40" viewBox="0 0 30 40" fill="none" xmlns="http://www.w3.org/2000/svg">
<path d="M9.27017 0.307048C9.14651 0.111654 8.93353 0 8.69994 0C7.5526 0 6.43961 0.38381 5.51899 1.08165L4.20676 2.07955C3.3411 2.73552 2.69529 3.64969 2.35865 4.68946L0.0364887 11.7446C-0.0803064 12.0935 0.091451 12.4773 0.434966 12.6169L5.03807 14.4941C5.38845 14.6336 5.78006 14.4662 5.92434 14.1172L7.39458 10.5932C7.60069 11.5492 7.73122 12.5122 7.78619 13.4892C7.64191 15.0035 7.3671 16.5038 6.95488 17.9693C6.7419 18.8625 6.53579 19.7069 6.42587 20.3419C5.61517 24.9826 4.73577 38.6811 4.69455 39.2603C4.67394 39.6441 4.96249 39.9791 5.34036 40C5.3541 40 5.36784 40 5.38158 40H24.6596C25.0375 40 25.3467 39.686 25.3467 39.3022C25.3467 39.2882 25.3467 39.2743 25.3467 39.2603C25.3054 38.6811 24.4467 24.9756 23.5879 20.335C23.4779 19.7418 23.265 18.9393 23.0451 18.1228C22.6466 16.8388 22.3718 15.5199 22.2138 14.187C22.255 13.0147 22.3924 11.8493 22.6192 10.6978L24.0551 14.1382C24.165 14.3964 24.4123 14.5639 24.6871 14.5639C24.7764 14.5639 24.8589 14.5499 24.9413 14.515L29.565 12.6378C29.9085 12.4983 30.0803 12.1144 29.9635 11.7655L27.6413 4.68946C27.3047 3.64969 26.6589 2.73552 25.7932 2.07955L24.481 1.08165C23.5604 0.38381 22.4405 0.00697837 21.2932 0.00697837C21.0665 0.00697837 20.8535 0.118632 20.723 0.314027L16.8275 6.12701H16.8756L14.8763 6.47592L13.0694 6.15492L13.1519 6.09909L9.27017 0.307048ZM4.94188 12.9449L1.54795 11.5492L3.66401 5.11514C3.91821 4.34054 4.39913 3.67062 5.03807 3.18214L6.34342 2.19819C6.9274 1.75157 7.6213 1.48639 8.34955 1.41661L11.3313 5.86881L7.20908 5.1291C6.83808 5.05932 6.47396 5.30356 6.40526 5.68039C6.38464 5.77809 6.39152 5.88276 6.41213 5.98046C6.41213 5.98046 6.64572 6.94348 6.90679 8.17865L4.94188 12.9449ZM22.2138 20.6001C22.9558 24.5429 23.7184 35.6385 23.9108 38.6113H20.0978L19.4657 30.8793L18.0916 30.9979L18.7168 38.6113H15.3435V25.3524H13.9695V38.6113H10.5961L11.2213 30.9909L9.84728 30.8723L9.21521 38.6113H6.10983C6.30907 35.6315 7.09916 24.5499 7.78619 20.5862C7.88924 20 8.08848 19.1905 8.29459 18.3043L8.47322 17.5227V17.6762H21.5268L21.7398 18.4857C21.9253 19.2952 22.1245 20.0558 22.2138 20.6001ZM21.6504 1.41661C22.3787 1.48639 23.0726 1.75157 23.6566 2.19819L24.9619 3.19609C25.6009 3.6776 26.0818 4.34752 26.336 5.11514L28.4452 11.5492L25.0512 12.9449L23.0863 8.22052C23.3474 6.95045 23.5604 5.99442 23.5673 5.97348C23.6634 5.59665 23.4367 5.21982 23.0726 5.1291C22.9764 5.10816 22.8802 5.10119 22.784 5.11514L18.6619 5.81298L21.6504 1.41661ZM15 7.90649L22.0077 6.68528C21.6024 8.56943 20.7985 12.5401 20.8398 14.2149C20.881 14.9197 20.984 15.6246 21.1558 16.3084H8.78925C9.00223 15.3803 9.12589 14.4382 9.16025 13.4892C9.02971 11.7446 8.76864 10.014 8.36329 8.31124L8.41825 8.17865L8.32894 8.13678C8.21214 7.59246 8.10222 7.09002 8.00603 6.68528L14.7664 7.90649C14.842 7.92045 14.9244 7.92045 15 7.90649Z" fill="black"/>
</svg>
