<svg width="50" height="51" viewBox="0 0 50 51" fill="none" xmlns="http://www.w3.org/2000/svg">
<rect width="50" height="51" fill="white"/>
<path d="M26.6909 42.9958C26.4418 42.9958 26.2136 42.8475 26.1057 42.6231L24.9975 40.2813L23.8894 42.6231C23.7815 42.8518 23.5533 43 23.3042 43C23.2503 43 23.1922 42.9915 23.1424 42.9788L15.286 40.8953C14.9664 40.8106 14.7589 40.493 14.8045 40.1585C14.8502 39.8367 15.896 32.2861 15.5765 29.7877C15.3648 28.3775 15.0577 26.9631 14.6634 25.591C13.85 22.4489 12.8456 18.5868 13.0199 12.8149C13.0241 12.6201 13.1154 12.438 13.2648 12.3152C14.4891 11.3243 18.8054 9.04598 20.6024 8.11434L20.6813 8.07199C20.7726 8.02541 20.8722 8 20.976 8C21.1171 8 21.2582 8.04658 21.3702 8.13551C21.3827 8.14398 21.391 8.15245 21.4034 8.16092C21.42 8.17786 23.1175 9.65154 25.2217 9.65154C26.4418 9.65154 27.5707 9.15608 28.5751 8.18633C28.5834 8.17786 28.5917 8.16939 28.6041 8.16515C28.7203 8.06352 28.8697 8.00423 29.0233 8.00423C29.127 8.00423 29.2267 8.02964 29.318 8.07623C29.3761 8.10587 35.2819 11.1379 36.7345 12.3194C36.8839 12.4422 36.9752 12.6201 36.9793 12.8191C37.1578 18.608 36.1451 22.4785 35.3358 25.5868C34.9415 26.9673 34.6344 28.3817 34.4186 29.7961C34.1032 32.2819 35.1491 39.8367 35.1947 40.1585C35.2404 40.493 35.037 40.8106 34.7133 40.8953L26.861 42.9788C26.8071 42.9915 26.7531 43 26.6991 43L26.6909 42.9958ZM27.0436 41.5517L33.821 39.7562C33.6799 38.6933 33.3977 36.4574 33.2192 34.2807C32.1567 34.6788 31.0486 34.8778 29.9114 34.8778H29.762C29.5836 34.8778 29.4217 34.8016 29.3014 34.6745C29.181 34.5475 29.1146 34.3781 29.1187 34.2002C29.1312 33.8234 29.4134 33.5481 29.7579 33.5481H29.8658C30.9864 33.5481 32.0779 33.3279 33.1154 32.8875C33.0324 31.8034 33.0324 30.7066 33.1196 29.6225C33.3437 28.1319 33.6633 26.6582 34.07 25.2311C34.8834 22.1186 35.8048 18.591 35.6761 13.1706C34.4145 12.2686 31.1565 10.5281 29.5172 9.66848C29.1229 12.1881 27.8737 19.3152 25.591 25.0998C25.3545 25.6969 25.1221 26.2432 24.8979 26.7387V37.029L27.0353 41.5433L27.0436 41.5517ZM22.9515 41.5517L24.2754 38.7483L23.6736 37.4737C23.6321 37.3848 23.6072 37.2831 23.6072 37.1857V26.5989C23.6072 26.4973 23.6321 26.3999 23.6736 26.3152C23.8728 25.8832 24.0803 25.4047 24.3003 24.8584C22.0799 19.1373 20.8597 12.1585 20.4738 9.67695C19.0502 10.4265 15.6138 12.2559 14.319 13.1791C14.1903 18.5741 15.1075 22.1016 15.9168 25.2142C16.3318 26.6624 16.6472 28.1361 16.8714 29.6098C16.9585 30.7108 16.9627 31.8076 16.8797 32.8917C17.9048 33.3321 18.9921 33.5523 20.1086 33.5523H20.2206C20.5817 33.5523 20.8722 33.8361 20.8805 34.2045C20.8805 34.3823 20.8182 34.5517 20.6979 34.6788C20.5775 34.8058 20.4157 34.8778 20.2414 34.8778H20.1003C18.9548 34.8778 17.8425 34.6788 16.7801 34.2807C16.6016 36.4574 16.3194 38.6933 16.1783 39.7562L22.9598 41.556L22.9515 41.5517ZM21.8434 10.0327C22.2708 12.637 23.2876 18.0913 24.9975 22.9867C26.6825 18.1591 27.6952 12.7768 28.1268 10.1766C27.2594 10.6933 26.28 10.9643 25.2632 10.9685C24.0596 10.9347 22.8892 10.6128 21.8434 10.0369V10.0327Z" fill="black"/>
<path d="M25.6202 28.9111C25.2632 28.9111 24.9686 28.6146 24.9686 28.2462V28.1785C24.9686 27.8143 25.2591 27.5136 25.6202 27.5136C25.9812 27.5136 26.2717 27.81 26.2717 28.1785V28.2462C26.2717 28.6104 25.9812 28.9111 25.6202 28.9111Z" fill="black"/>
<path d="M25.6202 31.2656C25.2632 31.2656 24.9686 30.9691 24.9686 30.6007V30.533C24.9686 30.1688 25.2591 29.8681 25.6202 29.8681C25.9812 29.8681 26.2717 30.1645 26.2717 30.533V30.6007C26.2717 30.9649 25.9812 31.2656 25.6202 31.2656Z" fill="black"/>
<path d="M25.6202 33.6582C25.2632 33.6582 24.9686 33.3618 24.9686 32.9933V32.9256C24.9686 32.5614 25.2591 32.2607 25.6202 32.2607C25.9812 32.2607 26.2717 32.5572 26.2717 32.9256V32.9933C26.2717 33.3575 25.9812 33.6582 25.6202 33.6582Z" fill="black"/>
<path d="M25.6202 35.9746C25.2632 35.9746 24.9686 35.6782 24.9686 35.3097V35.242C24.9686 34.8778 25.2591 34.5771 25.6202 34.5771C25.9812 34.5771 26.2717 34.8736 26.2717 35.242V35.3097C26.2717 35.6739 25.9812 35.9746 25.6202 35.9746Z" fill="black"/>
</svg>
