<svg width="50" height="51" viewBox="0 0 50 51" fill="none" xmlns="http://www.w3.org/2000/svg">
<path d="M25.0001 22.083C26.9108 22.0813 28.4598 20.5523 28.4616 18.6664V15.9331C28.4616 15.5556 28.1518 15.2498 27.7693 15.2498H22.2309C21.8484 15.2498 21.5386 15.5556 21.5386 15.9331V18.6664C21.5403 20.5523 23.0894 22.0813 25.0001 22.083ZM22.9232 16.6164H27.077V18.6664C27.077 19.7981 26.1467 20.7163 25.0001 20.7163C23.8535 20.7163 22.9232 19.7981 22.9232 18.6664V16.6164Z" fill="black"/>
<path d="M33.7974 18.1829L31.923 16.3328V12.5498L32.6118 5.7508C32.6499 5.37497 32.373 5.04014 31.9922 5.00256C31.9688 5.00085 31.9463 5 31.923 5H29.1538C28.7981 5 28.5004 5.26564 28.4649 5.61499L27.835 11.8332H22.165L21.5351 5.61499C21.4996 5.26564 21.2019 5 20.8462 5H18.077C17.6945 5 17.3847 5.30579 17.3847 5.68332C17.3847 5.70638 17.3856 5.72859 17.3882 5.75165L18.077 12.5507V16.3337L16.2026 18.1838C16.0573 18.3273 15.9846 18.5272 16.0027 18.7287L16.6924 26.2145V45.3167C16.6924 45.6942 17.0022 46 17.3847 46H22.9231C23.3056 46 23.6154 45.6942 23.6154 45.3167V42.6124L24.0593 37.3509C24.1995 35.6981 24.5145 34.0641 25 32.4754C25.4855 34.0633 25.8005 35.6973 25.9407 37.3509L26.3846 42.6124V45.3167C26.3846 45.6942 26.6944 46 27.0769 46H32.6153C32.9978 46 33.3076 45.6942 33.3076 45.3167V26.2145L33.9973 18.7287C34.0154 18.5272 33.9427 18.3264 33.7974 18.1829ZM31.923 29.5072C30.9572 29.2433 30.2355 28.4498 30.0737 27.4744L29.9707 26.8662H31.923V29.5072ZM29.5034 9.09991H30.8811L30.6041 11.8332H29.2265L29.5034 9.09991ZM31.158 6.36664L31.0195 7.73328H29.6418L29.7803 6.36664H31.158ZM20.7735 11.8332H19.3959L19.1189 9.09991H20.4966L20.7735 11.8332ZM20.2197 6.36664L20.3582 7.73328H18.9805L18.842 6.36664H20.2197ZM19.2591 17.0999C19.3889 16.9718 19.4616 16.7975 19.4616 16.6164V13.1998H30.5384V16.6164C30.5384 16.7975 30.6111 16.9718 30.7409 17.0999L32.5884 18.9235L31.9835 25.4996H18.0165L17.4107 18.9235L19.2591 17.0999ZM20.0293 26.8662L19.9263 27.4744C19.7645 28.4498 19.0428 29.2433 18.077 29.5072V26.8662H20.0293ZM22.2308 44.6325H18.077V43.2659H22.2308V44.6325ZM25.6568 30.0667C25.5357 29.7088 25.1437 29.5149 24.7811 29.6345C24.5742 29.7028 24.4115 29.8626 24.3432 30.0667L23.8941 31.3958C23.2554 33.2877 22.8478 35.2488 22.6799 37.2356L22.2862 41.8984H18.077V30.9055C19.7308 30.6202 21.021 29.333 21.2919 27.6982L21.4321 26.8654H28.5671L28.7072 27.6982C28.979 29.333 30.2684 30.6202 31.9221 30.9055V41.8984H27.7129L27.3192 37.2356C27.1513 35.248 26.7437 33.2877 26.1051 31.3958L25.6568 30.0667ZM31.923 44.6325H27.7692V43.2659H31.923V44.6325Z" fill="black"/>
<path d="M25.6924 17.9831H24.3078V19.3497H25.6924V17.9831Z" fill="black"/>
</svg>
