<svg width="50" height="51" viewBox="0 0 50 51" fill="none" xmlns="http://www.w3.org/2000/svg">
<path d="M39.4267 40C39.7439 40 40.0035 39.7486 40.0093 39.4343C40.0093 39.4114 40.0093 39.3886 40.0093 39.3657L37.1194 12.5086C37.0848 12.2171 36.8368 12 36.5426 12H13.4702C13.176 12 12.9279 12.2171 12.8933 12.5086L10.0035 39.3657C9.9689 39.68 10.1939 39.96 10.5111 39.9943C10.5342 39.9943 10.5573 39.9943 10.5803 39.9943H39.4209L39.4267 40ZM36.0235 13.1429L36.2715 15.4286H13.7413L13.9893 13.1429H36.0235ZM13.6201 16.5714H36.3984L38.7922 38.8571H32.5799L30.6303 23.64L29.4767 23.7829L31.4148 38.8571H25.439V30.5714H24.2854V38.8571H18.3096L20.2477 23.7886L19.0941 23.6457L17.1444 38.8571H11.2264L13.6201 16.5714Z" fill="black"/>
</svg>
