<svg width="50" height="51" viewBox="0 0 50 51" fill="none" xmlns="http://www.w3.org/2000/svg">
<path d="M39.9546 22.3769L36.6213 14.4435C36.5636 14.3054 36.4539 14.1963 36.3171 14.1404L30.9352 11.9445L29.3643 9.27483C29.2636 9.10483 29.0831 9.00071 28.888 9.00071L21.1102 9C20.915 9 20.7345 9.10483 20.6338 9.27483L19.0636 11.9445L13.6817 14.1404C13.5449 14.1963 13.4359 14.3054 13.3775 14.4435L10.0449 22.3769C10.0102 22.459 9.99559 22.5476 10.0011 22.6368L11.1123 40.2035C11.131 40.5017 11.3734 40.7333 11.6664 40.7333H14.5706L14.4456 42.3901C14.422 42.7025 14.6511 42.9745 14.9567 42.9986C14.9706 43 14.9852 43 14.9991 43H23.3324C23.5428 43 23.7352 42.8789 23.8289 42.6869L24.9991 40.3005L26.1692 42.6869C26.2636 42.8789 26.456 43 26.6657 43H34.9991C35.306 43 35.5546 42.7464 35.5546 42.4333C35.5546 42.4192 35.5546 42.4043 35.5532 42.3901L35.4282 40.7333H38.3324C38.6255 40.7333 38.8678 40.501 38.8866 40.2035L39.9977 22.6368C40.0032 22.5483 39.9893 22.459 39.9546 22.3769ZM29.915 12.4135L27.0414 17.7869L25.715 16.7725L28.9143 10.7127L29.915 12.4135ZM24.9998 15.7377L23.2373 12.4H26.7616L24.9998 15.7377ZM27.3602 11.2667H22.6393L22.0407 10.1333H27.9581L27.3602 11.2667ZM21.0845 10.7127L24.2838 16.7725L22.9574 17.7869L20.0838 12.4135L21.0845 10.7127ZM14.656 39.6H12.1873L12.1157 38.4667H13.8886V37.3333H12.0442L11.1185 22.6985L13.6623 16.6443L15.5518 27.7269L14.656 39.6ZM22.9893 41.8667H15.5998L16.665 27.7432C16.6685 27.6965 16.6664 27.649 16.6581 27.603L14.513 15.0222L19.1921 13.1126L22.2893 18.9046C22.4366 19.1795 22.7741 19.2808 23.0428 19.1306C23.0664 19.1178 23.0886 19.103 23.1102 19.0867L24.4435 18.0667V38.8995L22.9893 41.8667ZM27.0095 41.8667L25.5553 38.8995V18.0667L26.8886 19.0867C27.1338 19.2744 27.4824 19.2234 27.6664 18.9733C27.6824 18.9514 27.697 18.9287 27.7095 18.9046L30.8067 13.1126L35.4866 15.0222L33.3414 27.603C33.3338 27.649 33.331 27.6965 33.3345 27.7432L34.3998 41.8667H27.0095ZM37.9553 37.3333H36.1109V38.4667H37.8838L37.8123 39.6H35.3435L34.4484 27.7276L36.338 16.645L38.8817 22.6992L37.9553 37.3333Z" fill="black"/>
<path d="M23.3329 20.9H22.2218V22.0333H23.3329V20.9Z" fill="black"/>
<path d="M23.3329 26H22.2218V27.1333H23.3329V26Z" fill="black"/>
<path d="M23.3329 31.1H22.2218V32.2333H23.3329V31.1Z" fill="black"/>
<path d="M23.3329 36.2H22.2218V37.3333H23.3329V36.2Z" fill="black"/>
<path d="M31.6662 20.9H28.3329V22.0333H31.6662V20.9Z" fill="black"/>
</svg>
