<svg width="50" height="51" viewBox="0 0 50 51" fill="none" xmlns="http://www.w3.org/2000/svg">
<rect width="50" height="51" fill="white"/>
<path d="M39.1204 16.4879C38.7181 15.2822 37.959 14.2245 36.9449 13.4624L35.3417 12.2511C34.2653 11.4436 32.951 11 31.6027 11H18.3803C17.032 11 15.7233 11.4436 14.6413 12.2511L13.0381 13.4624C12.024 14.2245 11.2649 15.2822 10.8627 16.4879L8.03009 25.0182C7.93378 25.3025 8.07541 25.6153 8.35867 25.7291L14.0238 28.0038C14.3127 28.1176 14.6413 27.9754 14.7603 27.6853L16.1482 24.1936C16.4315 29.2606 16.1652 34.3447 15.3608 39.3549C15.3155 39.6676 15.5307 39.952 15.8423 39.9975C15.8706 39.9975 15.899 40.0032 15.9273 39.9975H34.0557C34.3673 39.9975 34.6279 39.7472 34.6279 39.4345C34.6279 39.406 34.6279 39.3719 34.6222 39.3435C33.8291 33.9182 33.172 28.6464 33.7328 23.9149L35.2397 27.691C35.353 27.9811 35.6816 28.1232 35.9762 28.0095L41.6413 25.7347C41.9246 25.621 42.0662 25.3082 41.9699 25.0239L39.1204 16.4822V16.4879ZM29.5689 12.1374C28.3906 15.4073 26.3285 19.4905 24.9915 19.5303C23.5696 19.5303 21.2015 15.4472 19.7513 12.1374H29.5689ZM36.0725 26.7527L34.0557 21.7425L34.6222 18.4896L33.4892 18.302L32.9227 21.7141C31.8746 26.9233 32.5205 32.7922 33.3986 38.8658H16.5788C17.4909 32.36 17.6268 26.9233 17.0603 21.8051H17.1056L16.4938 18.2906L15.3608 18.4896L15.9273 21.6743L13.9105 26.7527L9.26509 24.8874L11.9617 16.8461C12.2903 15.8566 12.9134 14.9979 13.7405 14.3723L15.3438 13.161C16.2275 12.5013 17.2982 12.1374 18.403 12.1374H18.4993C19.3264 14.1847 22.2892 20.6677 24.9575 20.6677H24.9915C27.5691 20.5881 30.0278 14.2074 30.7586 12.1374H31.5857C32.6904 12.1374 33.7611 12.5013 34.6449 13.161L36.2481 14.3723C37.0752 14.9979 37.6927 15.8623 38.0213 16.8461L40.6896 24.8874L36.0725 26.7527Z" fill="black"/>
</svg>
