<svg width="30" height="40" viewBox="0 0 30 40" fill="none" xmlns="http://www.w3.org/2000/svg">
<path d="M3.91304 40H19.5652C21.7174 40 23.4783 38.3125 23.4783 36.25V26.875H28.0435C29.1522 26.875 30 26.0625 30 25V13.75C30 12.6875 29.1522 11.875 28.0435 11.875H23.4783V3.75C23.4783 1.6875 21.7174 0 19.5652 0H3.91304C1.76087 0 0 1.6875 0 3.75V36.25C0 38.3125 1.76087 40 3.91304 40ZM28.6957 25C28.6957 25.375 28.4348 25.625 28.0435 25.625H7.17391C6.78261 25.625 6.52174 25.375 6.52174 25V19.375H28.6957V25ZM28.6957 18.125H6.52174V16.25H28.6957V18.125ZM28.0435 13.125C28.4348 13.125 28.6957 13.375 28.6957 13.75V15H6.52174V13.75C6.52174 13.375 6.78261 13.125 7.17391 13.125H28.0435ZM1.30435 3.75C1.30435 2.375 2.47826 1.25 3.91304 1.25H19.5652C21 1.25 22.1739 2.375 22.1739 3.75V5H1.30435V3.75ZM1.30435 6.25H22.1739V11.875H7.17391C6.06522 11.875 5.21739 12.6875 5.21739 13.75V25C5.21739 26.0625 6.06522 26.875 7.17391 26.875H22.1739V33.75H1.30435V6.25ZM1.30435 35H22.1739V36.25C22.1739 37.625 21 38.75 19.5652 38.75H3.91304C2.47826 38.75 1.30435 37.625 1.30435 36.25V35Z" fill="black"/>
<path d="M9.13043 37.5H14.3478C14.7391 37.5 15 37.25 15 36.875C15 36.5 14.7391 36.25 14.3478 36.25H9.13043C8.73913 36.25 8.47826 36.5 8.47826 36.875C8.47826 37.25 8.73913 37.5 9.13043 37.5Z" fill="black"/>
<path d="M8.47826 21.875H16.3043C16.6957 21.875 16.9565 21.625 16.9565 21.25C16.9565 20.875 16.6957 20.625 16.3043 20.625H8.47826C8.08696 20.625 7.82609 20.875 7.82609 21.25C7.82609 21.625 8.08696 21.875 8.47826 21.875Z" fill="black"/>
<path d="M18.913 21.875H22.1739C22.5652 21.875 22.8261 21.625 22.8261 21.25C22.8261 20.875 22.5652 20.625 22.1739 20.625H18.913C18.5217 20.625 18.2609 20.875 18.2609 21.25C18.2609 21.625 18.5217 21.875 18.913 21.875Z" fill="black"/>
</svg>
