<svg width="50" height="51" viewBox="0 0 50 51" fill="none" xmlns="http://www.w3.org/2000/svg">
<path d="M19.2702 5.31472C19.1465 5.11445 18.9335 5 18.6999 5C17.5526 5 16.4396 5.39341 15.519 6.10869L14.2068 7.13154C13.3411 7.80391 12.6953 8.74093 12.3586 9.8067L10.0365 17.0382C9.91969 17.3958 10.0915 17.7893 10.435 17.9323L15.0381 19.8564C15.3885 19.9995 15.7801 19.8278 15.9243 19.4702L17.3946 15.858C17.6007 16.8379 17.7312 17.825 17.7862 18.8264C17.6419 20.3786 17.3671 21.9164 16.9549 23.4185C16.7419 24.3341 16.5358 25.1996 16.4259 25.8505C15.6152 30.6071 14.7358 44.6481 14.6946 45.2418C14.6739 45.6352 14.9625 45.9785 15.3404 46C15.3541 46 15.3678 46 15.3816 46H34.6596C35.0375 46 35.3467 45.6781 35.3467 45.2847C35.3467 45.2704 35.3467 45.2561 35.3467 45.2418C35.3054 44.6481 34.4467 30.6 33.5879 25.8433C33.4779 25.2353 33.265 24.4128 33.0451 23.5759C32.6466 22.2598 32.3718 20.9079 32.2138 19.5417C32.255 18.34 32.3924 17.1455 32.6192 15.9653L34.0551 19.4916C34.165 19.7563 34.4123 19.9279 34.6871 19.9279C34.7764 19.9279 34.8589 19.9136 34.9413 19.8779L39.565 17.9538C39.9085 17.8107 40.0803 17.4173 39.9635 17.0597L37.6413 9.8067C37.3047 8.74093 36.6589 7.80391 35.7932 7.13154L34.481 6.10869C33.5604 5.39341 32.4405 5.00715 31.2932 5.00715C31.0665 5.00715 30.8535 5.1216 30.723 5.32188L26.8275 11.2802H26.8756L24.8763 11.6378L23.0694 11.3088L23.1519 11.2516L19.2702 5.31472ZM14.9419 18.2685L11.548 16.8379L13.664 10.243C13.9182 9.44906 14.3991 8.76239 15.0381 8.26169L16.3434 7.25314C16.9274 6.79536 17.6213 6.52355 18.3496 6.45202L21.3313 11.0155L17.2091 10.2573C16.8381 10.1858 16.474 10.4361 16.4053 10.8224C16.3846 10.9225 16.3915 11.0298 16.4121 11.13C16.4121 11.13 16.6457 12.1171 16.9068 13.3831L14.9419 18.2685ZM32.2138 26.1151C32.9558 30.1565 33.7184 41.5295 33.9108 44.5766H30.0978L29.4657 36.6513L28.0916 36.7729L28.7168 44.5766H25.3435V30.9862H23.9695V44.5766H20.5961L21.2213 36.7657L19.8473 36.6441L19.2152 44.5766H16.1098C16.3091 41.5223 17.0992 30.1636 17.7862 26.1008C17.8892 25.5 18.0885 24.6703 18.2946 23.7619L18.4732 22.9607V23.1181H31.5268L31.7398 23.9478C31.9253 24.7776 32.1245 25.5572 32.2138 26.1151ZM31.6504 6.45202C32.3787 6.52355 33.0726 6.79536 33.6566 7.25314L34.9619 8.27599C35.6009 8.76954 36.0818 9.45621 36.336 10.243L38.4452 16.8379L35.0512 18.2685L33.0863 13.426C33.3474 12.1242 33.5604 11.1443 33.5673 11.1228C33.6634 10.7366 33.4367 10.3503 33.0726 10.2573C32.9764 10.2359 32.8802 10.2287 32.784 10.243L28.6619 10.9583L31.6504 6.45202ZM25 13.1042L32.0077 11.8524C31.6024 13.7837 30.7985 17.8536 30.8398 19.5703C30.881 20.2927 30.984 21.0152 31.1558 21.7162H18.7892C19.0022 20.7648 19.1259 19.7992 19.1602 18.8264C19.0297 17.0382 18.7686 15.2643 18.3633 13.519L18.4183 13.3831L18.3289 13.3402C18.2121 12.7823 18.1022 12.2673 18.006 11.8524L24.7664 13.1042C24.842 13.1185 24.9244 13.1185 25 13.1042Z" fill="black"/>
</svg>
