<svg width="50" height="51" viewBox="0 0 50 51" fill="none" xmlns="http://www.w3.org/2000/svg">
<path d="M14.9493 30.4766C14.047 35.5411 13.0187 44.1855 13.0054 44.2709C12.959 44.6322 13.2177 44.9606 13.5826 45C13.6091 45 13.6357 45 13.6688 45H35.3299C35.6948 45 35.9934 44.711 36 44.3497C36 44.3234 36 44.2971 36 44.2709C36 44.1855 34.9916 35.5214 34.0097 30.4766C33.8836 29.8197 33.6514 28.9723 33.406 28.0659C32.9615 26.647 32.6497 25.1822 32.4772 23.7042C32.4175 21.4906 33.9898 14.7642 34.0031 14.6985C34.0031 14.6723 34.0031 14.646 34.0031 14.6197L34.7925 7.72256C34.8324 7.36128 34.5736 7.03941 34.2087 7C34.1822 7 34.1557 7 34.1291 7H32.59C32.3577 7 32.1455 7.11824 32.026 7.3153L27.3289 14.8956L24.3567 15.4277L21.6632 14.9547L16.9396 7.3153C16.8201 7.11824 16.6012 7 16.3756 7H14.8033C14.4384 7 14.1399 7.28902 14.1332 7.6503C14.1332 7.67658 14.1332 7.70285 14.1332 7.72913L14.9028 14.6066L15.5662 14.5343L14.9028 14.692C14.9028 14.7511 16.4287 20.8797 16.4287 22.9423C16.2894 24.6239 15.9908 26.2857 15.5397 27.9082C15.2942 28.8607 15.0687 29.7869 14.9426 30.4766H14.9493ZM32.9615 8.31374H33.3794L32.716 13.9694L29.0273 14.6263L32.9615 8.31374ZM16.0041 8.31374L19.9117 14.6197L16.2098 13.9628L15.5463 8.30061L16.0041 8.31374ZM16.4818 15.3554L24.2307 16.7151C24.3037 16.7283 24.3833 16.7283 24.4563 16.7151L32.4838 15.3488C32.0393 17.3194 31.0906 21.8584 31.1569 23.7239C31.21 24.5319 31.3361 25.3267 31.5417 26.1084H17.331C17.5964 25.0705 17.7556 24.013 17.8087 22.9423C17.8087 21.2278 16.9196 17.2143 16.4818 15.3554ZM16.8334 28.1907C16.9396 27.7703 17.0457 27.3302 17.1519 26.8769V27.4024H31.8137V27.2513C31.9132 27.6389 32.0194 28.033 32.1255 28.4074C32.3644 29.2876 32.59 30.1219 32.7094 30.7262C33.5055 34.8776 34.3281 41.512 34.5869 43.706H30.1021L29.3988 36.638L28.072 36.7694L28.7354 43.6731H19.4473L20.1108 36.7694L18.7839 36.638L18.1205 43.6731H14.4185C14.6839 41.4792 15.5132 34.8513 16.2562 30.6868C16.3756 30.0562 16.5946 29.1497 16.8334 28.1907Z" fill="black"/>
<path d="M24.7614 30.5882H23.4346V43.5812H24.7614V30.5882Z" fill="black"/>
</svg>
