<svg width="50" height="51" viewBox="0 0 50 51" fill="none" xmlns="http://www.w3.org/2000/svg">
<rect width="50" height="51" fill="white"/>
<path d="M41.9518 29.4396L35.5815 14.3812V11.5833C35.5815 11.261 35.3205 11 34.9982 11H13.9997C13.6774 11 13.4164 11.261 13.4164 11.5833V14.382L7.04611 29.4396C6.92653 29.7233 7.04684 30.0507 7.32244 30.1885L11.4317 32.2434L11.1 33.6128C11.0242 33.9256 11.2167 34.2413 11.5294 34.3172C11.5331 34.3179 11.5367 34.3186 11.5404 34.3194L16.4619 35.4131L16.3365 36.6054C16.303 36.9211 16.529 37.2062 16.844 37.2456L21.0306 37.7691L21.0007 38.3889C20.9854 38.7105 21.2333 38.984 21.5555 39C21.565 39 21.5745 39 21.5832 39H27.4162C27.7384 39 27.9994 38.739 27.9994 38.4167C27.9994 38.4072 27.9994 38.3977 27.9994 38.3882L27.9696 37.7684L32.1561 37.2449C32.4711 37.2055 32.6971 36.9211 32.6636 36.6046L32.5382 35.4124L37.4597 34.3186C37.774 34.2486 37.9723 33.9373 37.9023 33.6223C37.9016 33.6186 37.9008 33.615 37.9001 33.6113L37.5684 32.2419L41.6777 30.1871C41.9525 30.0492 42.0736 29.7218 41.954 29.4382L41.9518 29.4396ZM31.4985 13.9167V12.1667H34.4149V13.9167H31.4985ZM20.9992 13.9167V12.1667H27.9987V13.9167H20.9992ZM18.666 13.9167V12.1667H19.8326V13.9167H18.666ZM29.1653 12.1667H30.3319V13.9167H29.1653V12.1667ZM14.583 12.1667H17.4994V13.9167H14.583V12.1667ZM8.33373 29.3901L14.3861 15.0834H15.5913L11.7139 31.0803L8.33446 29.3901H8.33373ZM12.3738 33.3102L16.7915 15.0834H18.6011L16.5844 34.2457L12.3738 33.3102ZM17.5563 36.1598L19.7743 15.0834H22.1366L21.0867 36.601L17.5563 36.1598ZM22.195 37.834L23.3047 15.0834H25.6933L26.803 37.834H22.195ZM27.9112 36.601L26.862 15.0834H29.2244L31.4423 36.1598L27.9112 36.601ZM32.4135 34.2457L30.3968 15.0834H32.2064L36.6249 33.3102L32.4135 34.2457ZM37.2847 31.0803L33.4073 15.0834H34.6125L40.6649 29.3901L37.2855 31.0803H37.2847Z" fill="black"/>
</svg>
