<svg width="50" height="51" viewBox="0 0 50 51" fill="none" xmlns="http://www.w3.org/2000/svg">
<rect width="50" height="51" fill="white"/>
<path d="M14.6202 41.0039C14.5926 41.0039 14.5612 41.0039 14.5336 40.9961C14.3723 40.9726 14.2267 40.8902 14.1283 40.757C14.0299 40.6276 13.9867 40.4629 14.0103 40.3022C15.0491 32.8893 14.0142 20.6075 14.0024 20.486C13.9827 20.2625 14.085 20.0469 14.27 19.9254C18.1537 17.3185 17.0874 10.6033 17.0795 10.5367C17.0283 10.2231 17.2211 9.92515 17.5281 9.84283L20.5815 9.02352C20.6248 9.01176 20.6681 9.00392 20.7114 9.00392C21.0695 9.00392 21.341 9.25873 21.3567 9.5841C21.5889 14.0217 24.5519 14.5509 25.0004 14.6058C25.449 14.5509 28.412 14.0256 28.6441 9.5841C28.6441 9.54098 28.652 9.49786 28.6638 9.45865C28.7386 9.18817 28.9825 9 29.258 9C29.3131 9 29.3642 9.00784 29.4193 9.0196L32.4767 9.83499C32.7837 9.91731 32.9765 10.2152 32.9253 10.5288C32.9135 10.5955 31.859 17.3146 35.727 19.9176C35.9119 20.043 36.0142 20.2586 35.9945 20.4781C35.9512 20.9838 34.9597 32.9598 35.9945 40.2983C35.9945 40.3257 36.0024 40.3532 36.0024 40.3845C36.0024 40.7217 35.727 41 35.3846 41H14.6202V41.0039ZM34.6842 39.7769C33.85 32.7991 34.6094 22.4225 34.7432 20.7329C31.2018 18.0633 31.4301 12.7594 31.6386 10.8934L29.8128 10.4034C29.1832 15.4604 25.0909 15.8367 25.0477 15.8406C25.0437 15.8406 25.0122 15.8406 25.0004 15.8406C24.9886 15.8406 24.9808 15.8406 24.9729 15.8406C24.9178 15.8406 20.8255 15.5192 20.192 10.4034L18.3662 10.8934C18.5708 12.7594 18.799 18.0633 15.2576 20.7329C15.3914 22.4264 16.1469 32.8461 15.3167 39.7769H34.6803H34.6842Z" fill="black"/>
</svg>
