<svg width="50" height="51" viewBox="0 0 50 51" fill="none" xmlns="http://www.w3.org/2000/svg">
<path d="M40.78 14.475L39.8267 13.5C36.9668 10.575 33.2269 9 29.2671 9C28.8271 9 28.5338 9.3 28.5338 9.75C28.5338 11.85 26.9205 13.5 24.8672 13.5C22.8139 13.5 21.2007 11.85 21.2007 9.75C21.2007 9.3 20.9073 9 20.4674 9C16.5075 9 12.7676 10.575 9.90771 13.425L8.95441 14.475C8.66109 14.775 8.66109 15.225 8.95441 15.525L14.0876 20.775C14.3809 21.075 14.8209 21.075 15.1142 20.775L16.0675 19.8V24H11.6677C11.2277 24 10.9343 24.3 10.9343 24.75V27.45C7.85445 31.05 8.00111 40.8 8.00111 41.25C8.00111 41.625 8.36776 42 8.73442 42H29.2671C29.6337 42 30.0004 41.7 30.0004 41.25C30.0004 41.025 30.0737 37.875 29.5604 34.5H32.9336C33.3736 34.5 33.6669 34.2 33.6669 33.75V19.8L34.6202 20.775C34.9135 21.075 35.3535 21.075 35.6468 20.775L40.78 15.525C41.0733 15.225 41.0733 14.775 40.78 14.475ZM12.401 25.5H25.6005V27H12.401V25.5ZM9.46773 40.5C9.46773 37.35 9.98104 30.9 11.961 28.5H25.9672C27.9471 30.9 28.4604 37.35 28.4604 40.5H9.46773ZM35.1335 19.2L33.4469 17.475C33.2269 17.25 32.9336 17.175 32.6403 17.325C32.347 17.4 32.2003 17.7 32.2003 18V33H29.2671C28.8271 30.825 28.1671 28.725 27.0671 27.45V24.75C27.0671 24.3 26.7738 24 26.3338 24H17.5341V18C17.5341 17.7 17.3875 17.4 17.0941 17.325C16.8008 17.175 16.5075 17.25 16.2875 17.475L14.6009 19.2L10.4944 15L10.9343 14.55C13.2809 12.15 16.4342 10.725 19.734 10.575C20.1007 13.125 22.2273 15.075 24.7939 15.075C27.3605 15.075 29.4871 13.125 29.8537 10.575C33.1536 10.725 36.3068 12.15 38.6534 14.55L39.0934 15L35.1335 19.2Z" fill="black"/>
<path d="M19.4627 32.76H17.9961V40.9275H19.4627V32.76Z" fill="black"/>
<path d="M25.5272 13.62H24.0606V24H25.5272V13.62Z" fill="black"/>
<path d="M14.3589 35.265H12.8923V40.5H14.3589V35.265Z" fill="black"/>
<path d="M24.6252 35.265H23.1586V40.5H24.6252V35.265Z" fill="black"/>
</svg>
