<svg width="25" height="21" viewBox="0 0 25 21" fill="none" xmlns="http://www.w3.org/2000/svg">
<path d="M24.9668 5.23186V5.16589C24.9668 5.1329 24.9668 5.09991 24.9335 5.09991C24.9335 5.06692 24.9003 5.03394 24.9003 5.03394C24.9003 5.00095 24.867 5.00095 24.867 4.96796C24.867 4.93497 24.8338 4.93497 24.8338 4.90198C24.8338 4.869 24.8005 4.869 24.7673 4.83601L24.7008 4.77003C24.6786 4.74804 24.6565 4.73705 24.6343 4.73705L24.5678 4.67107H24.5346C24.5346 4.67107 24.5013 4.67107 24.5013 4.63808C24.4681 4.63808 24.4348 4.6051 24.4348 4.6051C24.4016 4.6051 24.3684 4.57211 24.3684 4.57211C24.3351 4.57211 24.3019 4.57211 24.3019 4.53912H23.5705L24.1356 2.26297C24.2021 2.03205 24.1689 1.83412 24.0359 1.6362C23.9029 1.43827 23.7367 1.30632 23.504 1.27333L18.0851 0.0197981C17.6529 -0.0791652 17.2207 0.184737 17.0878 0.613578L16.988 1.00943L15.2593 0.448639C15.0266 0.382663 14.7939 0.382663 14.5944 0.514614L12.7992 1.50425C12.1011 1.07541 11.3032 0.844492 10.4056 0.844492C8.17819 0.844492 6.31649 2.46089 5.91755 4.57211H4.92021L4.58777 1.20736C4.55452 0.778516 4.18883 0.448639 3.75665 0.448639H0.831117C0.365692 0.448639 0 0.811504 0 1.27333C0 1.73516 0.365692 2.09803 0.831117 2.09803H3.02527L3.35771 5.46278L4.18883 15.0622L3.69016 16.0848C3.55718 16.0518 3.45745 16.0518 3.35771 16.0518C1.99468 16.0518 0.864362 17.1734 0.864362 18.5259C0.864362 19.8784 1.99468 21 3.35771 21C4.45479 21 5.35239 20.3073 5.71809 19.3506H17.6529C17.9854 20.3073 18.9162 21 20.0133 21C21.3763 21 22.5066 19.8784 22.5066 18.5259C22.5066 17.1734 21.3431 16.0518 19.9801 16.0518C18.883 16.0518 17.9854 16.7446 17.6197 17.7012H5.71809C5.58511 17.3714 5.41888 17.0745 5.15293 16.8106L5.55186 16.0518H18.3178C18.617 16.0518 18.883 15.8869 19.0492 15.656L24.867 5.75967C24.867 5.75967 24.867 5.72668 24.9003 5.72668C24.9003 5.69369 24.9335 5.6607 24.9335 5.62772C24.9335 5.59473 24.9335 5.56174 24.9668 5.56174C24.9668 5.52875 24.9668 5.49576 25 5.49576V5.33083C24.9668 5.26485 24.9668 5.23186 24.9668 5.23186ZM3.35771 19.3506C2.89229 19.3506 2.5266 18.9878 2.5266 18.5259C2.5266 18.0641 2.89229 17.7012 3.35771 17.7012C3.82314 17.7012 4.18883 18.0641 4.18883 18.5259C4.18883 18.9878 3.82314 19.3506 3.35771 19.3506ZM19.9801 17.7012C20.4455 17.7012 20.8112 18.0641 20.8112 18.5259C20.8112 18.9878 20.4455 19.3506 19.9801 19.3506C19.5146 19.3506 19.1489 18.9878 19.1489 18.5259C19.1489 18.0641 19.5146 17.7012 19.9801 17.7012ZM18.484 1.76815L22.3072 2.65882L21.8085 4.50613H17.7194L18.484 1.76815ZM16.6556 6.15552H17.8856L17.1875 7.80491H14.3617L14.7939 6.15552H16.6556ZM15.0931 2.09803L16.5559 2.59284L16.0239 4.50613H14.9269C14.7939 3.81339 14.5279 3.18662 14.129 2.65882L15.0931 2.09803ZM10.4388 2.46089C11.7686 2.46089 12.8657 3.31857 13.2314 4.53912H7.64628C7.97872 3.31857 9.10904 2.46089 10.4388 2.46089ZM7.57979 14.4025H5.78457L5.6516 12.7531H7.71277L7.57979 14.4025ZM7.84574 11.1037H5.48537L5.35239 9.45429H7.97872L7.84574 11.1037ZM8.14495 7.80491H5.25266L5.11968 6.15552H8.27793L8.14495 7.80491ZM11.004 14.4025H9.24202L9.375 12.7531H11.4362L11.004 14.4025ZM11.8351 11.1037H9.50798L9.64096 9.45429H12.234L11.8351 11.1037ZM9.80718 7.80491L9.94016 6.15552H13.0984L12.6662 7.80491H9.80718ZM14.4282 14.4025H12.7327L13.1649 12.7531H15.1596L14.4282 14.4025ZM13.5638 11.1037L13.996 9.45429H16.5226L15.8245 11.1037H13.5638ZM17.8524 14.4025H16.2566L16.9548 12.7531H18.8165L17.8524 14.4025ZM19.7806 11.1037H17.6197L18.3178 9.45429H20.7447L19.7806 11.1037ZM21.7088 7.80491H19.016L19.7141 6.15552H22.7061L21.7088 7.80491Z" fill="black"/>
</svg>
