<svg width="24" height="24" viewBox="0 0 24 24" fill="none" xmlns="http://www.w3.org/2000/svg">
<path d="M12 0C5.3725 0 0 5.3725 0 12C0 18.6275 5.3725 24 12 24C18.6275 24 24 18.6275 24 12C23.9925 5.375 18.625 0.0075 12 0ZM7 20.6475V20C7 17.2375 9.2375 15 12 15C14.7625 15 17 17.2375 17 20V20.6475C13.91 22.45 10.09 22.45 7 20.6475ZM9 10C9 8.3425 10.3425 7 12 7C13.6575 7 15 8.3425 15 10C15 11.6575 13.6575 13 12 13C10.3425 13 9 11.6575 9 10ZM18.9475 19.1775C18.6725 16.8775 17.28 14.86 15.2225 13.7925C17.335 12.0125 17.6025 8.8575 15.8225 6.7475C14.0425 4.635 10.8875 4.3675 8.7775 6.1475C6.665 7.9275 6.3975 11.0825 8.1775 13.1925C8.36 13.41 8.56 13.61 8.7775 13.7925C6.72 14.86 5.3275 16.8775 5.0525 19.1775C1.08 15.34 0.97 9.01 4.8075 5.0375C8.645 1.065 14.975 0.955 18.9475 4.7925C22.92 8.63 23.03 14.96 19.1925 18.9325C19.1125 19.015 19.03 19.0975 18.9475 19.1775Z" fill="black"/>
</svg>
