<svg width="178" height="230" viewBox="0 0 178 230" fill="none" xmlns="http://www.w3.org/2000/svg">
<rect x="0.5" y="0.5" width="177" height="229" fill="white" stroke="#CCCCCC"/>
<path d="M64.7353 127.9H66.4513V128.992H64.7353V134.848H63.5353V123.712H64.7353V127.9ZM59.5753 125.68V126.16C59.5753 127 59.4793 127.792 59.2753 128.56L62.4313 132.436L61.5313 133.216L58.8193 129.868C58.3033 131.08 57.5113 132.208 56.4553 133.336L55.6033 132.544C57.4153 130.588 58.4113 128.728 58.4113 126.16V125.68H56.0353V124.588H61.9873V125.68H59.5753ZM68.4222 129.568L67.9902 128.536C70.6782 127.588 71.9022 126.496 71.9022 125.296H68.5902V124.24H76.2702V125.296H73.1022C73.1022 125.74 73.0182 126.148 72.8262 126.544L76.8702 128.56L76.3422 129.568L72.1902 127.48C71.4462 128.272 70.2102 128.968 68.4222 129.568ZM67.1982 130.636H77.6622V131.728H73.0302V134.98H71.8422V131.728H67.1982V130.636ZM79.9691 123.952H87.6491V127.756H79.9691V123.952ZM81.1691 126.748H86.4491V124.948H81.1691V126.748ZM89.0411 128.764V129.808H84.4091V130.972H87.7691V132.016H81.0611V133.804H87.9371V134.848H79.8611V130.972H83.2211V129.808H78.5771V128.764H89.0411ZM92.548 127.276H99.088V128.38H91.348V123.952H92.548V127.276ZM100.42 130.684H89.956V129.58H100.42V130.684ZM99.316 134.848H91.348V131.62H92.548V133.732H99.316V134.848ZM109.687 123.712H110.875V129.148H109.687V123.712ZM107.971 129.148L104.803 127.372C104.215 128.14 103.279 128.788 101.971 129.376L101.467 128.38C103.399 127.456 104.347 126.508 104.395 125.248H101.899V124.18H108.079V125.248H105.571C105.559 125.668 105.487 126.064 105.343 126.436L108.511 128.116L107.971 129.148ZM104.707 132.832V133.888H111.283V134.908H103.507V131.848H109.687V130.84H103.459V129.844H110.875V132.832H104.707ZM114.106 123.952H121.786V128.344H114.106V123.952ZM115.306 127.276H120.586V124.996H115.306V127.276ZM112.714 130.612V129.508H123.178V130.612H118.546V132.58H117.358V130.612H112.714ZM114.058 131.62H115.258V133.732H122.074V134.848H114.058V131.62Z" fill="black"/>
<path d="M110.848 92.7306V48.8791C110.848 46.6673 109.042 44.8655 106.825 44.8655H98.4364C97.9095 41.5468 95.0304 39 91.5588 39H84.2895C80.818 39 77.9388 41.5468 77.412 44.8655H69.0235C66.8062 44.8655 65 46.6673 65 48.8791V104.456C65 106.67 66.8062 108.469 69.0235 108.469H94.4592C94.6097 108.677 94.7602 108.879 94.9146 109.078C94.5943 109.459 94.3917 109.942 94.3917 110.475V113.815C94.3917 115.022 95.3739 116 96.5819 116H110.036C111.246 116 112.226 115.02 112.226 113.815V110.475C112.226 110.025 112.089 109.605 111.852 109.257C112.375 108.706 112.647 108.19 112.927 107.478C112.975 107.351 113 107.216 113 107.081V95.5526C113 94.2629 112.103 93.1695 110.844 92.7345H110.848V92.7306ZM97.0875 108.288C95.8428 106.82 94.6425 104.797 93.475 102.833C91.9834 100.317 90.4434 97.7202 88.724 96.1359C88.6855 96.1013 88.6237 96.0435 88.6507 95.8703C88.6932 95.5796 88.9595 95.1734 89.3917 94.9578C90.0903 94.6094 91.0436 94.8077 91.4295 95.3794L93.0389 97.7799C93.3091 98.1803 93.805 98.3554 94.2682 98.2188C94.7294 98.0783 95.0439 97.6547 95.0439 97.1754V83.9892C95.0439 83.5406 95.5823 83.1479 96.1959 83.1479C96.8096 83.1479 97.348 83.5406 97.348 83.9892V90.9769C97.348 91.5794 97.8381 92.0684 98.4421 92.0684C99.0462 92.0684 99.5363 91.5794 99.5363 90.9769C99.5363 90.5284 100.075 90.1357 100.688 90.1357C101.302 90.1357 101.84 90.5284 101.84 90.9769V93.2657C101.84 93.8683 102.331 94.3572 102.935 94.3572C103.539 94.3572 104.029 93.8683 104.029 93.2657C104.029 92.8172 104.567 92.4245 105.181 92.4245C105.794 92.4245 106.333 92.8172 106.333 93.2657V95.5507C106.333 96.1532 106.823 96.6422 107.427 96.6422C108.031 96.6422 108.521 96.1532 108.521 95.5507C108.521 95.1022 109.059 94.7095 109.673 94.7095C110.287 94.7095 110.825 95.1022 110.825 95.5507V106.872C110.623 107.374 110.437 107.692 109.673 108.288H97.0875ZM104.193 90.384C104.119 90.4033 104.042 90.4168 103.971 90.4418C103.691 89.0269 102.325 87.9528 100.683 87.9528C100.279 87.9528 99.8894 88.0163 99.5305 88.1375V83.9872C99.5305 82.3202 98.033 80.9631 96.1921 80.9631C94.3511 80.9631 92.8537 82.3202 92.8537 83.9872V93.6854C91.7537 92.5689 89.9224 92.2551 88.4134 93.004C87.3906 93.5121 86.6303 94.517 86.4817 95.5603C86.3621 96.3919 86.638 97.185 87.2382 97.7356C87.8692 98.3189 88.4963 99.1043 89.1177 99.9917H71.6576V53.3355H104.187V90.384H104.193ZM84.2915 41.183H91.5607C93.8224 41.183 95.7174 42.7576 96.2152 44.8655H79.637C80.1348 42.7576 82.0298 41.183 84.2915 41.183ZM69.0254 106.286C68.0142 106.286 67.1902 105.464 67.1902 104.456V48.8791C67.1902 47.8704 68.0142 47.0484 69.0254 47.0484H106.829C107.84 47.0484 108.664 47.8704 108.664 48.8791V92.6767C108.6 92.6959 108.529 92.7056 108.465 92.7287C108.257 91.6815 107.452 90.821 106.379 90.4437L106.375 52.2459C106.375 51.6434 105.885 51.1544 105.281 51.1544H70.5634C69.9594 51.1544 69.4692 51.6434 69.4692 52.2459V101.087C69.4692 101.69 69.9594 102.179 70.5634 102.179H90.5322C90.8892 102.762 91.2404 103.357 91.5916 103.946C92.0567 104.727 92.5256 105.516 93.0023 106.288H69.0215H69.0254V106.286ZM110.04 113.821L96.58 113.817L96.5857 110.469L110.046 110.473L110.04 113.821ZM75.0153 65.8807H82.3579C82.9619 65.8807 83.452 65.3918 83.452 64.7892V57.4646C83.452 56.8621 82.9619 56.3731 82.3579 56.3731H75.0153C74.4113 56.3731 73.9211 56.8621 73.9211 57.4646V64.7892C73.9211 65.3918 74.4113 65.8807 75.0153 65.8807ZM76.1075 58.5561H81.2618V63.6978H76.1075V58.5561ZM86.4566 61.1279C86.4566 60.5253 86.9468 60.0364 87.5508 60.0364H100.837C101.441 60.0364 101.931 60.5253 101.931 61.1279C101.931 61.7304 101.441 62.2194 100.837 62.2194H87.5508C86.9468 62.2194 86.4566 61.7304 86.4566 61.1279ZM75.0153 78.1776H82.3579C82.9619 78.1776 83.452 77.6887 83.452 77.0861V69.7615C83.452 69.159 82.9619 68.67 82.3579 68.67H75.0153C74.4113 68.67 73.9211 69.159 73.9211 69.7615V77.0861C73.9211 77.6887 74.4113 78.1776 75.0153 78.1776ZM76.1075 70.853H81.2618V75.9946H76.1075V70.853ZM86.4566 73.4248C86.4566 72.8223 86.9468 72.3333 87.5508 72.3333H100.837C101.441 72.3333 101.931 72.8223 101.931 73.4248C101.931 74.0273 101.441 74.5163 100.837 74.5163H87.5508C86.9468 74.5163 86.4566 74.0273 86.4566 73.4248ZM75.0153 90.4745H82.3579C82.9619 90.4745 83.452 89.9855 83.452 89.383V82.0584C83.452 81.4559 82.9619 80.9669 82.3579 80.9669H75.0153C74.4113 80.9669 73.9211 81.4559 73.9211 82.0584V89.383C73.9211 89.9855 74.4113 90.4745 75.0153 90.4745ZM76.1075 83.1499H81.2618V88.2915H76.1075V83.1499Z" fill="#010101"/>
<rect x="49.5" y="156.5" width="79" height="29" fill="white" stroke="#CCCCCC"/>
<rect x="96" y="170" width="20" height="2" fill="#CCCCCC"/>
<rect x="110.414" y="164" width="10" height="2" transform="rotate(45 110.414 164)" fill="#CCCCCC"/>
<rect x="117.485" y="171.071" width="10" height="2" transform="rotate(135 117.485 171.071)" fill="#CCCCCC"/>
<path d="M70.4005 166.84C72.0105 166.84 73.2305 167.66 73.2305 169.41C73.2305 171.18 72.0105 171.98 70.4005 171.98H68.5405V175.06H66.9705V166.84H70.4005ZM68.5405 170.6H70.3205C71.1905 170.6 71.6605 170.17 71.6605 169.41C71.6605 168.65 71.1905 168.22 70.3205 168.22H68.5405V170.6ZM75.7475 175.06H74.1775V166.84H75.7475V175.06ZM80.4663 175.21C78.5563 175.21 76.8963 173.92 76.8963 171.65V170.25C76.8963 167.99 78.5463 166.69 80.4663 166.69C82.2363 166.69 83.4963 167.72 83.8963 169.42L82.4063 169.85C82.1363 168.74 81.5463 168.15 80.4663 168.15C79.3863 168.15 78.4663 168.88 78.4663 170.31V171.59C78.4663 173.03 79.3863 173.75 80.4663 173.75C81.5463 173.75 82.1363 173.16 82.4063 172.05L83.8963 172.48C83.4963 174.18 82.2363 175.21 80.4663 175.21ZM91.6779 175.06H89.6979L87.1179 171.69L86.5679 172.32V175.06H84.9979V166.84H86.5679V170.03L89.3279 166.84H91.3779L88.1779 170.49L91.6779 175.06Z" fill="black"/>
</svg>
