<svg width="178" height="230" viewBox="0 0 178 230" fill="none" xmlns="http://www.w3.org/2000/svg">
<rect x="0.5" y="0.5" width="177" height="229" fill="white" stroke="#CCCCCC"/>
<path d="M70.3862 127.888L69.2102 127.756C69.4022 126.772 69.5102 125.728 69.5222 125.152H63.0422V124.072H70.7102V124.684C70.7102 125.596 70.6022 126.784 70.3862 127.888ZM67.0622 126.424V128.524H72.1622V129.58H61.6982V128.524H65.8742V126.424H67.0622ZM65.6822 130.696H68.1902C69.9902 130.696 70.9982 131.62 70.9982 132.82C70.9982 134.044 69.9902 134.968 68.1902 134.968H65.6822C63.8702 134.968 62.8622 134.044 62.8622 132.82C62.8622 131.62 63.8702 130.696 65.6822 130.696ZM65.9462 133.936H67.9262C69.2102 133.936 69.8102 133.492 69.8102 132.82C69.8102 132.16 69.2102 131.716 67.9262 131.716H65.9462C64.6622 131.716 64.0622 132.16 64.0622 132.82C64.0622 133.492 64.6622 133.936 65.9462 133.936ZM81.4171 134.848V123.712H82.6171V134.848H81.4171ZM77.3011 125.68V126.148C77.3011 127 77.1931 127.804 76.9891 128.572L80.2531 132.424L79.3771 133.216L76.5331 129.832C75.9811 131.056 75.1531 132.196 74.0491 133.336L73.1971 132.532C75.0811 130.576 76.1251 128.716 76.1251 126.148V125.68H73.6411V124.588H79.8091V125.68H77.3011ZM93.372 127.9H95.088V128.992H93.372V134.848H92.172V123.712H93.372V127.9ZM88.176 124.36V125.812C88.176 126.748 88.068 127.648 87.852 128.5L91.02 132.46L90.12 133.216L87.408 129.82C86.892 131.056 86.112 132.208 85.032 133.336L84.18 132.544C86.112 130.528 87 128.476 87 125.812V124.36H88.176ZM99.7229 124.708H102.375V125.68H95.8589V124.708H98.5109V123.58H99.7229V124.708ZM104.751 123.712V126.388H106.479V127.48H104.751V130.168H103.551V123.712H104.751ZM101.883 128.104V128.248C101.883 129.484 100.671 130.12 99.1349 130.12C97.5869 130.12 96.3749 129.484 96.3749 128.248V128.104C96.3749 126.88 97.5869 126.232 99.1349 126.232C100.671 126.232 101.883 126.88 101.883 128.104ZM97.5509 128.128V128.236C97.5509 128.8 98.2349 129.136 99.1349 129.136C100.023 129.136 100.719 128.8 100.719 128.236V128.128C100.719 127.564 100.023 127.216 99.1349 127.216C98.2349 127.216 97.5509 127.564 97.5509 128.128ZM100.023 130.744H102.375C103.983 130.744 105.003 131.584 105.003 132.856C105.003 134.14 103.983 134.968 102.375 134.968H100.023C98.4149 134.968 97.3829 134.14 97.3829 132.856C97.3829 131.584 98.4149 130.744 100.023 130.744ZM100.215 133.9H102.183C103.263 133.9 103.815 133.48 103.815 132.856C103.815 132.22 103.263 131.8 102.183 131.8H100.215C99.1229 131.8 98.5709 132.22 98.5709 132.856C98.5709 133.48 99.1229 133.9 100.215 133.9Z" fill="black"/>
<path d="M72.2794 66.9396L78.4582 70.4952C78.6217 70.5878 78.8038 70.636 78.9821 70.636C79.1605 70.636 79.3462 70.5897 79.506 70.4952L85.6849 66.9396C86.0118 66.7525 86.2125 66.4081 86.2125 66.0322V58.919C86.2125 58.5431 86.0118 58.1986 85.6849 58.0116L79.506 54.4559C79.1828 54.2689 78.7815 54.2689 78.4545 54.4559L72.2757 58.0116C71.9487 58.1986 71.7481 58.5431 71.7481 58.919V66.0322C71.7481 66.4081 71.9487 66.7525 72.2757 66.9396H72.2794ZM73.8548 60.7339L77.9306 63.0802V67.7729L73.8548 65.4266V60.7339ZM80.0336 67.7711V63.0784L84.1095 60.732V65.4247L80.0336 67.7711ZM78.9821 56.5708L83.058 58.9172L78.9821 61.2635L74.9062 58.9172L78.9821 56.5708ZM64.9636 75.2879C64.9636 74.7102 65.4355 74.2398 66.0151 74.2398H80.7786C81.3582 74.2398 81.83 74.7102 81.83 75.2879C81.83 75.8657 81.3582 76.3361 80.7786 76.3361H66.0151C65.4355 76.3361 64.9636 75.8657 64.9636 75.2879ZM64.9636 82.0548C64.9636 81.477 65.4355 81.0066 66.0151 81.0066H77.3157C77.8953 81.0066 78.3672 81.477 78.3672 82.0548C78.3672 82.6326 77.8953 83.103 77.3157 83.103H66.0151C65.4355 83.103 64.9636 82.6326 64.9636 82.0548ZM64.9636 88.8198C64.9636 88.242 65.4355 87.7716 66.0151 87.7716H76.5968C77.1764 87.7716 77.6483 88.242 77.6483 88.8198C77.6483 89.3976 77.1764 89.8679 76.5968 89.8679H66.0151C65.4355 89.8679 64.9636 89.3976 64.9636 88.8198ZM64.9636 95.5848C64.9636 95.007 65.4355 94.5366 66.0151 94.5366H78.278C78.8577 94.5366 79.3295 95.007 79.3295 95.5848C79.3295 96.1625 78.8577 96.6329 78.278 96.6329H66.0151C65.4355 96.6329 64.9636 96.1625 64.9636 95.5848ZM120.345 103.376L111.756 94.8144C112.825 92.5995 113.423 90.1179 113.423 87.5012C113.423 80.0936 108.628 73.7861 101.972 71.4879L101.975 48.8706C101.975 46.6743 100.183 44.889 97.9813 44.889H89.5137C89.0046 41.5612 86.1196 39 82.64 39H75.3354C71.8558 39 68.9745 41.5612 68.4617 44.889H59.9941C57.7909 44.889 56 46.6761 56 48.8706V104.678C56 106.874 57.7927 108.659 59.9941 108.659H97.9794C100.183 108.659 101.974 106.872 101.974 104.678V103.522C102.587 103.309 103.187 103.07 103.766 102.79L112.355 111.352C113.456 112.45 114.903 113 116.352 113C117.802 113 119.247 112.45 120.35 111.352C121.415 110.291 122 108.876 122 107.367C122 105.857 121.413 104.442 120.35 103.385L120.347 103.378L120.345 103.376ZM111.322 87.5012C111.322 95.6866 104.639 102.344 96.4282 102.344C88.217 102.344 81.5384 95.6829 81.5384 87.5012C81.5384 79.3195 88.2207 72.6545 96.4282 72.6545C104.636 72.6545 111.322 79.3158 111.322 87.5012ZM95.3767 70.5934C86.493 71.1378 79.4336 78.5121 79.4336 87.5012C79.4336 92.5754 81.6851 97.1329 85.2427 100.242H62.5931V53.2985H95.3767V70.6008V70.5934ZM75.3335 41.0908H82.6382C84.9548 41.0908 86.8961 42.7168 87.3773 44.8816H70.5944C71.0756 42.7131 73.0169 41.0908 75.3335 41.0908ZM99.8706 104.676C99.8706 105.715 99.0216 106.561 97.9794 106.561H59.9904C58.9482 106.561 58.0992 105.715 58.0992 104.676V48.8688C58.0992 47.8299 58.9482 46.9835 59.9904 46.9835H97.9757C99.0179 46.9835 99.8669 47.8299 99.8669 48.8688V70.9119C99.0903 70.7526 98.2896 70.6471 97.4797 70.5989V52.2485C97.4797 51.6707 97.0078 51.2003 96.4282 51.2003H61.5398C60.9602 51.2003 60.4883 51.6707 60.4883 52.2485V101.292C60.4883 101.87 60.9602 102.34 61.5398 102.34H88.23C90.6618 103.681 93.4558 104.448 96.4263 104.448C97.6041 104.448 98.7559 104.328 99.8669 104.098V104.674L99.8706 104.678V104.676ZM118.859 109.867C117.476 111.244 115.225 111.244 113.839 109.867L105.663 101.716C107.668 100.418 109.38 98.7126 110.683 96.7126L118.855 104.863C119.522 105.528 119.888 106.417 119.888 107.363C119.888 108.309 119.52 109.198 118.855 109.867H118.859ZM83.372 87.5068C83.372 94.6847 89.2294 100.524 96.43 100.524C103.631 100.524 109.488 94.6847 109.488 87.5068C109.488 80.3288 103.631 74.4898 96.43 74.4898C89.2294 74.4898 83.372 80.3288 83.372 87.5068ZM107.385 87.5068C107.385 93.5273 102.471 98.4274 96.43 98.4274C90.3887 98.4274 85.4749 93.5291 85.4749 87.5068C85.4749 81.4844 90.3887 76.5861 96.43 76.5861C102.471 76.5861 107.385 81.4844 107.385 87.5068Z" fill="#010101"/>
<rect x="44.5" y="156.5" width="79" height="29" fill="white" stroke="#CCCCCC"/>
<rect x="91" y="170" width="20" height="2" fill="#CCCCCC"/>
<rect x="105.414" y="164" width="10" height="2" transform="rotate(45 105.414 164)" fill="#CCCCCC"/>
<rect x="112.485" y="171.071" width="10" height="2" transform="rotate(135 112.485 171.071)" fill="#CCCCCC"/>
<path d="M65.4005 166.84C67.0105 166.84 68.2305 167.66 68.2305 169.41C68.2305 171.18 67.0105 171.98 65.4005 171.98H63.5405V175.06H61.9705V166.84H65.4005ZM63.5405 170.6H65.3205C66.1905 170.6 66.6605 170.17 66.6605 169.41C66.6605 168.65 66.1905 168.22 65.3205 168.22H63.5405V170.6ZM70.7475 175.06H69.1775V166.84H70.7475V175.06ZM75.4663 175.21C73.5563 175.21 71.8963 173.92 71.8963 171.65V170.25C71.8963 167.99 73.5463 166.69 75.4663 166.69C77.2363 166.69 78.4963 167.72 78.8963 169.42L77.4063 169.85C77.1363 168.74 76.5463 168.15 75.4663 168.15C74.3863 168.15 73.4663 168.88 73.4663 170.31V171.59C73.4663 173.03 74.3863 173.75 75.4663 173.75C76.5463 173.75 77.1363 173.16 77.4063 172.05L78.8963 172.48C78.4963 174.18 77.2363 175.21 75.4663 175.21ZM86.6779 175.06H84.6979L82.1179 171.69L81.5679 172.32V175.06H79.9979V166.84H81.5679V170.03L84.3279 166.84H86.3779L83.1779 170.49L86.6779 175.06Z" fill="black"/>
</svg>
