<svg width="70" height="75" viewBox="0 0 70 75" fill="none" xmlns="http://www.w3.org/2000/svg">
<rect width="70" height="75" fill="white"/>
<path d="M37.7465 11.5318C37.7465 11.1664 37.5515 10.8316 37.2355 10.6498L28.4199 5.5756C28.1039 5.3938 27.7138 5.3938 27.396 5.5756L18.5804 10.6498C18.2643 10.8316 18.0693 11.17 18.0693 11.5318V21.6784C18.0693 22.0438 18.2643 22.3786 18.5804 22.5604L27.396 27.6346C27.5549 27.7246 27.7319 27.7714 27.907 27.7714C28.0822 27.7714 28.261 27.7264 28.4181 27.6346L37.2337 22.5604C37.5497 22.3786 37.7447 22.0402 37.7447 21.6784V11.5318H37.7483H37.7465ZM27.907 7.6366L34.675 11.5318L27.907 15.427L21.1391 11.5318L27.907 7.6366ZM20.1134 13.2976L26.8814 17.1928V24.985L20.1134 21.0898V13.2976ZM28.9309 24.9832V17.191L35.6988 13.2958V21.088L28.9309 24.9832ZM62.0103 29.5552H53.8123V2.0206C53.8123 1.4572 53.3536 1 52.7884 1H13.8981C13.6272 1 13.3672 1.108 13.174 1.2988L2.29975 12.1384C2.10834 12.3292 2 12.5902 2 12.8602V71.9794C2 72.5428 2.45866 73 3.02386 73H52.7902C53.3554 73 53.8141 72.5428 53.8141 71.9794V56.3428H62.0121C65.313 56.3428 68 53.6644 68 50.374V35.524C68 32.2336 65.313 29.5552 62.0121 29.5552H62.0103ZM12.8742 4.483V11.8396H5.49412L12.8742 4.483ZM51.7663 70.9588H4.04772V13.8808H13.8981C14.4633 13.8808 14.9219 13.4236 14.9219 12.8602V3.0412H51.7663V29.557H43.5683C40.2674 29.557 37.5804 32.2354 37.5804 35.5258V50.3758C37.5804 53.2576 39.639 55.6696 42.3674 56.2258L41.0294 63.6526C40.9517 64.09 41.1648 64.5292 41.5603 64.7362C41.7101 64.8136 41.8763 64.8532 42.037 64.8532C42.3006 64.8532 42.5625 64.7506 42.7575 64.5562L51.0838 56.3428H51.7681V70.9624V70.9588H51.7663ZM65.9523 50.374C65.9523 52.5394 64.1845 54.3034 62.0103 54.3034H50.6612C50.3904 54.3034 50.1321 54.4078 49.9407 54.6004L43.6134 60.841L44.5741 55.5058C44.6282 55.2088 44.547 54.901 44.352 54.6706C44.1569 54.4402 43.868 54.3052 43.5665 54.3052C41.3941 54.3052 39.6245 52.543 39.6245 50.3758V35.5258C39.6245 33.3604 41.3923 31.5964 43.5665 31.5964H62.0085C64.1808 31.5964 65.9505 33.3586 65.9505 35.5258V50.3758L65.9541 50.3722L65.9523 50.374ZM34.303 33.319C34.303 33.8824 33.8443 34.3396 33.2791 34.3396H10.2324C9.6672 34.3396 9.20854 33.8824 9.20854 33.319C9.20854 32.7556 9.6672 32.2984 10.2324 32.2984H33.2791C33.8443 32.2984 34.303 32.7556 34.303 33.319ZM34.303 43.489C34.303 44.0524 33.8443 44.5096 33.2791 44.5096H10.2324C9.6672 44.5096 9.20854 44.0524 9.20854 43.489C9.20854 42.9256 9.6672 42.4684 10.2324 42.4684H33.2791C33.8443 42.4684 34.303 42.9256 34.303 43.489ZM34.303 53.659C34.303 54.2224 33.8443 54.6796 33.2791 54.6796H10.2324C9.6672 54.6796 9.20854 54.2224 9.20854 53.659C9.20854 53.0956 9.6672 52.6384 10.2324 52.6384H33.2791C33.8443 52.6384 34.303 53.0956 34.303 53.659ZM34.303 63.829C34.303 64.3924 33.8443 64.8496 33.2791 64.8496H10.2324C9.6672 64.8496 9.20854 64.3924 9.20854 63.829C9.20854 63.2656 9.6672 62.8084 10.2324 62.8084H33.2791C33.8443 62.8084 34.303 63.2656 34.303 63.829ZM53.8105 39.9286V49.5874C53.8105 50.1508 53.3518 50.608 52.7866 50.608C52.2214 50.608 51.7627 50.1508 51.7627 49.5874V39.9286C51.7627 39.3652 52.2214 38.908 52.7866 38.908C53.3518 38.908 53.8105 39.3652 53.8105 39.9286ZM53.8105 36.307V36.4024C53.8105 36.9658 53.3518 37.423 52.7866 37.423C52.2214 37.423 51.7627 36.9658 51.7627 36.4024V36.307C51.7627 35.7436 52.2214 35.2864 52.7866 35.2864C53.3518 35.2864 53.8105 35.7436 53.8105 36.307Z" fill="#010101"/>
</svg>
