<svg width="70" height="75" viewBox="0 0 70 75" fill="none" xmlns="http://www.w3.org/2000/svg">
<rect width="70" height="75" fill="white"/>
<path d="M18.2794 27.9396L24.4582 31.4952C24.6217 31.5878 24.8038 31.636 24.9821 31.636C25.1605 31.636 25.3462 31.5897 25.506 31.4952L31.6849 27.9396C32.0118 27.7525 32.2125 27.4081 32.2125 27.0322V19.919C32.2125 19.5431 32.0118 19.1986 31.6849 19.0116L25.506 15.4559C25.1828 15.2689 24.7815 15.2689 24.4545 15.4559L18.2757 19.0116C17.9487 19.1986 17.7481 19.5431 17.7481 19.919V27.0322C17.7481 27.4081 17.9487 27.7525 18.2757 27.9396H18.2794ZM19.8548 21.7339L23.9306 24.0802V28.7729L19.8548 26.4266V21.7339ZM26.0336 28.7711V24.0784L30.1095 21.732V26.4247L26.0336 28.7711ZM24.9821 17.5708L29.058 19.9172L24.9821 22.2635L20.9062 19.9172L24.9821 17.5708ZM10.9636 36.2879C10.9636 35.7102 11.4355 35.2398 12.0151 35.2398H26.7786C27.3582 35.2398 27.83 35.7102 27.83 36.2879C27.83 36.8657 27.3582 37.3361 26.7786 37.3361H12.0151C11.4355 37.3361 10.9636 36.8657 10.9636 36.2879ZM10.9636 43.0548C10.9636 42.477 11.4355 42.0066 12.0151 42.0066H23.3157C23.8953 42.0066 24.3672 42.477 24.3672 43.0548C24.3672 43.6326 23.8953 44.103 23.3157 44.103H12.0151C11.4355 44.103 10.9636 43.6326 10.9636 43.0548ZM10.9636 49.8198C10.9636 49.242 11.4355 48.7716 12.0151 48.7716H22.5968C23.1764 48.7716 23.6483 49.242 23.6483 49.8198C23.6483 50.3976 23.1764 50.8679 22.5968 50.8679H12.0151C11.4355 50.8679 10.9636 50.3976 10.9636 49.8198ZM10.9636 56.5847C10.9636 56.007 11.4355 55.5366 12.0151 55.5366H24.278C24.8577 55.5366 25.3295 56.007 25.3295 56.5847C25.3295 57.1625 24.8577 57.6329 24.278 57.6329H12.0151C11.4355 57.6329 10.9636 57.1625 10.9636 56.5847ZM66.3448 64.3757L57.7564 55.8144C58.8246 53.5995 59.4228 51.1179 59.4228 48.5012C59.4228 41.0936 54.628 34.7861 47.9717 32.4879L47.9754 9.87062C47.9754 7.67427 46.1827 5.88904 43.9813 5.88904H35.5137C35.0046 2.56118 32.1196 0 28.64 0H21.3354C17.8558 0 14.9745 2.56118 14.4617 5.88904H5.99415C3.79086 5.88904 2 7.67612 2 9.87062V65.6776C2 67.8739 3.79272 69.6592 5.99415 69.6592H43.9794C46.1827 69.6592 47.9735 67.8721 47.9735 65.6776V64.522C48.5866 64.309 49.1866 64.0701 49.7663 63.7905L58.3546 72.3518C59.4562 73.45 60.9034 74 62.3525 74C63.8015 74 65.2468 73.45 66.3503 72.3518C67.4148 71.2907 68 69.8758 68 68.3665C68 66.8572 67.413 65.4424 66.3503 64.385L66.3466 64.3775L66.3448 64.3757ZM57.3217 48.5012C57.3217 56.6866 50.6394 63.3442 42.4282 63.3442C34.217 63.3442 27.5384 56.6829 27.5384 48.5012C27.5384 40.3195 34.2207 33.6545 42.4282 33.6545C50.6357 33.6545 57.3217 40.3158 57.3217 48.5012ZM41.3767 31.5934C32.493 32.1378 25.4336 39.5121 25.4336 48.5012C25.4336 53.5754 27.6851 58.1329 31.2427 61.2423H8.59313V14.2985H41.3767V31.6008V31.5934ZM21.3335 2.09079H28.6382C30.9548 2.09079 32.8961 3.71676 33.3773 5.88163H16.5944C17.0756 3.71306 19.0169 2.09079 21.3335 2.09079ZM45.8706 65.6757C45.8706 66.7146 45.0216 67.561 43.9794 67.561H5.99043C4.94824 67.561 4.09925 66.7146 4.09925 65.6757V9.86877C4.09925 8.82985 4.94824 7.98353 5.99043 7.98353H43.9757C45.0179 7.98353 45.8669 8.82985 45.8669 9.86877V31.9119C45.0903 31.7526 44.2896 31.6471 43.4797 31.5989V13.2485C43.4797 12.6707 43.0078 12.2003 42.4282 12.2003H7.53979C6.96017 12.2003 6.4883 12.6707 6.4883 13.2485V62.2923C6.4883 62.8701 6.96017 63.3405 7.53979 63.3405H34.23C36.6618 64.6813 39.4558 65.4479 42.4263 65.4479C43.6041 65.4479 44.7559 65.3276 45.8669 65.0979V65.6739L45.8706 65.6776V65.6757ZM64.8586 70.8666C63.4764 72.2444 61.2248 72.2444 59.8389 70.8666L51.663 62.7164C53.6675 61.4182 55.3804 59.7126 56.6826 57.7126L64.8548 65.8628C65.5218 66.5276 65.8877 67.4165 65.8877 68.3628C65.8877 69.3091 65.5199 70.1981 64.8548 70.8666H64.8586ZM29.372 48.5068C29.372 55.6847 35.2294 61.5238 42.43 61.5238C49.6306 61.5238 55.4881 55.6847 55.4881 48.5068C55.4881 41.3288 49.6306 35.4898 42.43 35.4898C35.2294 35.4898 29.372 41.3288 29.372 48.5068ZM53.3851 48.5068C53.3851 54.5273 48.4714 59.4274 42.43 59.4274C36.3887 59.4274 31.4749 54.5291 31.4749 48.5068C31.4749 42.4844 36.3887 37.5861 42.43 37.5861C48.4714 37.5861 53.3851 42.4844 53.3851 48.5068Z" fill="#010101"/>
</svg>
