<svg width="178" height="230" viewBox="0 0 178 230" fill="none" xmlns="http://www.w3.org/2000/svg">
<rect x="0.5" y="0.5" width="177" height="229" fill="white" stroke="#CCCCCC"/>
<path d="M76.2382 134.848H75.0382V123.712H76.2382V134.848ZM70.0822 133.396C68.4502 133.396 67.1182 132.34 67.1182 129.664V127.972C67.1182 125.296 68.4502 124.24 70.0822 124.24C71.6902 124.24 73.0222 125.296 73.0222 127.972V129.664C73.0222 132.34 71.6902 133.396 70.0822 133.396ZM70.0822 132.304C71.0662 132.304 71.8342 131.584 71.8342 129.652V127.984C71.8342 126.04 71.0662 125.332 70.0822 125.332C69.0982 125.332 68.3182 126.04 68.3182 127.984V129.652C68.3182 131.584 69.0982 132.304 70.0822 132.304ZM85.6851 127.72V128.944H88.5411V129.976H78.0771V128.944H80.9451V127.72C79.9251 127.444 79.3011 126.82 79.3011 125.86C79.3011 124.492 80.5611 123.832 82.4331 123.832H84.1851C86.0691 123.832 87.3171 124.492 87.3171 125.86C87.3171 126.82 86.7051 127.432 85.6851 127.72ZM80.5011 125.872C80.5011 126.544 81.2691 126.904 82.6491 126.904H83.9811C85.3611 126.904 86.1291 126.532 86.1291 125.872C86.1291 125.188 85.3611 124.84 83.9811 124.84H82.6491C81.2691 124.84 80.5011 125.188 80.5011 125.872ZM82.0851 127.888V128.944H84.5451V127.888C83.7291 127.9 82.9011 127.9 82.0851 127.888ZM82.0371 130.924H84.5811C86.3811 130.924 87.3771 131.776 87.3771 132.94C87.3771 134.116 86.3811 134.968 84.5811 134.968H82.0371C80.2371 134.968 79.2411 134.116 79.2411 132.94C79.2411 131.776 80.2371 130.924 82.0371 130.924ZM82.2771 133.924H84.3531C85.6131 133.924 86.1891 133.54 86.1891 132.928C86.1891 132.34 85.6131 131.956 84.3531 131.956H82.2771C81.0171 131.956 80.4411 132.34 80.4411 132.928C80.4411 133.54 81.0171 133.924 82.2771 133.924ZM100.1 124.972V125.992H98.372V127.24H100.1V128.26H98.372V129.964H97.172V123.712H98.372V124.972H100.1ZM95.384 126.652V126.844C95.384 128.656 94.1 129.532 92.48 129.532C90.836 129.532 89.54 128.656 89.54 126.844V126.652C89.54 124.828 90.836 123.952 92.48 123.952C94.1 123.952 95.384 124.828 95.384 126.652ZM90.74 126.664V126.82C90.74 127.924 91.484 128.476 92.48 128.476C93.452 128.476 94.196 127.924 94.196 126.82V126.664C94.196 125.56 93.452 125.008 92.48 125.008C91.484 125.008 90.74 125.56 90.74 126.664ZM97.172 131.752H91.124V130.66H98.372V134.968H97.172V131.752ZM109.859 123.712V127.084H111.479V128.176H109.859V132.292H108.659V123.712H109.859ZM106.607 128.56L105.467 128.416C105.671 127.264 105.803 126.076 105.803 125.308H101.387V124.276H106.967V124.852C106.967 126.076 106.823 127.372 106.607 128.56ZM107.735 129.244L107.867 130.3C106.199 130.54 104.075 130.672 102.491 130.672H100.727L100.667 129.58H102.587H102.947V126.94H104.147V129.544C105.287 129.484 106.607 129.388 107.735 129.244ZM102.611 131.824H103.811V133.756H110.447V134.848H102.611V131.824Z" fill="black"/>
<path d="M91.7465 48.5318C91.7465 48.1664 91.5515 47.8316 91.2355 47.6498L82.4199 42.5756C82.1039 42.3938 81.7138 42.3938 81.396 42.5756L72.5804 47.6498C72.2643 47.8316 72.0693 48.17 72.0693 48.5318V58.6784C72.0693 59.0438 72.2643 59.3786 72.5804 59.5604L81.396 64.6346C81.5549 64.7246 81.7319 64.7714 81.907 64.7714C82.0822 64.7714 82.261 64.7264 82.4181 64.6346L91.2337 59.5604C91.5497 59.3786 91.7447 59.0402 91.7447 58.6784V48.5318H91.7483H91.7465ZM81.907 44.6366L88.675 48.5318L81.907 52.427L75.1391 48.5318L81.907 44.6366ZM74.1134 50.2976L80.8814 54.1928V61.985L74.1134 58.0898V50.2976ZM82.9309 61.9832V54.191L89.6988 50.2958V58.088L82.9309 61.9832ZM116.01 66.5552H107.812V39.0206C107.812 38.4572 107.354 38 106.788 38H67.8981C67.6272 38 67.3672 38.108 67.174 38.2988L56.2998 49.1384C56.1083 49.3292 56 49.5902 56 49.8602V108.979C56 109.543 56.4587 110 57.0239 110H106.79C107.355 110 107.814 109.543 107.814 108.979V93.3428H116.012C119.313 93.3428 122 90.6644 122 87.374V72.524C122 69.2336 119.313 66.5552 116.012 66.5552H116.01ZM66.8742 41.483V48.8396H59.4941L66.8742 41.483ZM105.766 107.959H58.0477V50.8808H67.8981C68.4633 50.8808 68.9219 50.4236 68.9219 49.8602V40.0412H105.766V66.557H97.5683C94.2674 66.557 91.5804 69.2354 91.5804 72.5258V87.3758C91.5804 90.2576 93.639 92.6696 96.3674 93.2258L95.0294 100.653C94.9517 101.09 95.1648 101.529 95.5603 101.736C95.7102 101.814 95.8763 101.853 96.037 101.853C96.3006 101.853 96.5625 101.751 96.7575 101.556L105.084 93.3428H105.768V107.962V107.959H105.766ZM119.952 87.374C119.952 89.5394 118.184 91.3034 116.01 91.3034H104.661C104.39 91.3034 104.132 91.4078 103.941 91.6004L97.6134 97.841L98.5741 92.5058C98.6282 92.2088 98.547 91.901 98.352 91.6706C98.1569 91.4402 97.868 91.3052 97.5665 91.3052C95.3941 91.3052 93.6245 89.543 93.6245 87.3758V72.5258C93.6245 70.3604 95.3923 68.5964 97.5665 68.5964H116.009C118.181 68.5964 119.95 70.3586 119.95 72.5258V87.3758L119.954 87.3722L119.952 87.374ZM88.303 70.319C88.303 70.8824 87.8443 71.3396 87.2791 71.3396H64.2324C63.6672 71.3396 63.2085 70.8824 63.2085 70.319C63.2085 69.7556 63.6672 69.2984 64.2324 69.2984H87.2791C87.8443 69.2984 88.303 69.7556 88.303 70.319ZM88.303 80.489C88.303 81.0524 87.8443 81.5096 87.2791 81.5096H64.2324C63.6672 81.5096 63.2085 81.0524 63.2085 80.489C63.2085 79.9256 63.6672 79.4684 64.2324 79.4684H87.2791C87.8443 79.4684 88.303 79.9256 88.303 80.489ZM88.303 90.659C88.303 91.2224 87.8443 91.6796 87.2791 91.6796H64.2324C63.6672 91.6796 63.2085 91.2224 63.2085 90.659C63.2085 90.0956 63.6672 89.6384 64.2324 89.6384H87.2791C87.8443 89.6384 88.303 90.0956 88.303 90.659ZM88.303 100.829C88.303 101.392 87.8443 101.85 87.2791 101.85H64.2324C63.6672 101.85 63.2085 101.392 63.2085 100.829C63.2085 100.266 63.6672 99.8084 64.2324 99.8084H87.2791C87.8443 99.8084 88.303 100.266 88.303 100.829ZM107.81 76.9286V86.5874C107.81 87.1508 107.352 87.608 106.787 87.608C106.221 87.608 105.763 87.1508 105.763 86.5874V76.9286C105.763 76.3652 106.221 75.908 106.787 75.908C107.352 75.908 107.81 76.3652 107.81 76.9286ZM107.81 73.307V73.4024C107.81 73.9658 107.352 74.423 106.787 74.423C106.221 74.423 105.763 73.9658 105.763 73.4024V73.307C105.763 72.7436 106.221 72.2864 106.787 72.2864C107.352 72.2864 107.81 72.7436 107.81 73.307Z" fill="#010101"/>
<rect x="44.5" y="156.5" width="79" height="29" fill="white" stroke="#CCCCCC"/>
<rect x="91" y="170" width="20" height="2" fill="#CCCCCC"/>
<rect x="105.414" y="164" width="10" height="2" transform="rotate(45 105.414 164)" fill="#CCCCCC"/>
<rect x="112.485" y="171.071" width="10" height="2" transform="rotate(135 112.485 171.071)" fill="#CCCCCC"/>
<path d="M65.4005 166.84C67.0105 166.84 68.2305 167.66 68.2305 169.41C68.2305 171.18 67.0105 171.98 65.4005 171.98H63.5405V175.06H61.9705V166.84H65.4005ZM63.5405 170.6H65.3205C66.1905 170.6 66.6605 170.17 66.6605 169.41C66.6605 168.65 66.1905 168.22 65.3205 168.22H63.5405V170.6ZM70.7475 175.06H69.1775V166.84H70.7475V175.06ZM75.4663 175.21C73.5563 175.21 71.8963 173.92 71.8963 171.65V170.25C71.8963 167.99 73.5463 166.69 75.4663 166.69C77.2363 166.69 78.4963 167.72 78.8963 169.42L77.4063 169.85C77.1363 168.74 76.5463 168.15 75.4663 168.15C74.3863 168.15 73.4663 168.88 73.4663 170.31V171.59C73.4663 173.03 74.3863 173.75 75.4663 173.75C76.5463 173.75 77.1363 173.16 77.4063 172.05L78.8963 172.48C78.4963 174.18 77.2363 175.21 75.4663 175.21ZM86.6779 175.06H84.6979L82.1179 171.69L81.5679 172.32V175.06H79.9979V166.84H81.5679V170.03L84.3279 166.84H86.3779L83.1779 170.49L86.6779 175.06Z" fill="black"/>
</svg>
