<svg width="70" height="75" viewBox="0 0 70 75" fill="none" xmlns="http://www.w3.org/2000/svg">
<rect width="70" height="75" fill="white"/>
<path d="M69.5084 41.9459L66.1758 40.0226C66.3655 38.6031 66.4656 37.1662 66.4656 35.7329V13.4786C66.4656 13.0456 66.1809 12.6679 65.7687 12.5403L34.0122 3.0414C33.8294 2.9862 33.6345 2.9862 33.4533 3.0414L1.69688 12.542C1.28462 12.6645 1 13.0474 1 13.4803V35.7329C1 53.7819 15.6846 68.4657 33.7345 68.4657C37.1189 68.4657 40.4532 67.9414 43.6565 66.9151L52.2381 71.8689C52.3899 71.9552 52.559 72 52.7263 72C52.8936 72 53.0644 71.9569 53.2144 71.8689L69.5118 62.458C69.8137 62.2838 70 61.9613 70 61.6128V42.7945C70 42.4443 69.8137 42.1235 69.5118 41.9493V41.9459H69.5084ZM45.6971 53.8785L43.5926 52.6625L43.5323 48.026L45.6367 49.2421L45.6971 53.8785ZM38.3764 42.791L52.7194 34.5099L56.8748 36.9092L42.5318 45.1903L38.3764 42.791ZM44.4862 46.3219L58.8292 38.0407L60.9474 39.2654L46.6044 47.5465L44.4862 46.3219ZM57.2698 34.8842L53.2058 32.5384C52.9039 32.3642 52.5314 32.3642 52.2278 32.5384L35.9304 41.9493C35.6285 42.1235 35.4422 42.4478 35.4422 42.7945V59.2187C34.8713 59.2618 34.3003 59.2912 33.7276 59.2912C20.7473 59.2912 10.1837 48.7315 10.1837 35.7484V19.4449L33.7276 12.4005L57.2715 19.4449V34.8877L57.2681 34.8842H57.2698ZM37.3966 44.4866L41.5606 46.8893L41.6417 53.2455C41.6469 53.5887 41.8315 53.9078 42.1299 54.0803L46.2042 56.4348C46.356 56.521 46.5251 56.5659 46.6924 56.5659C46.8597 56.5659 47.0339 56.5227 47.1857 56.4313C47.4893 56.2537 47.6739 55.9259 47.667 55.5775L47.6014 50.3856L51.7362 52.7746V69.3351L37.3931 61.054V44.4935L37.3983 44.4883L37.3966 44.4866ZM52.7159 51.0721L48.5605 48.6729L62.9035 40.3917L67.0589 42.791L52.7159 51.0721ZM33.7259 66.5097C16.754 66.5097 2.94748 52.7039 2.94748 35.7329V14.2082L33.7328 4.99913L64.5112 14.2082V35.7329C64.5112 36.8075 64.4508 37.889 64.337 38.9584L59.2242 36.0054C59.2242 35.9157 59.2328 35.8312 59.2328 35.7415V18.7101C59.2328 18.2772 58.9482 17.8994 58.5359 17.7718L34.0139 10.4342C33.8311 10.379 33.6362 10.379 33.4551 10.4342L8.92963 17.7735C8.51736 17.896 8.23274 18.2789 8.23274 18.7118V35.7432C8.23274 49.8009 19.6709 61.242 33.7328 61.242C34.3055 61.242 34.8764 61.2161 35.4474 61.1782V61.6146C35.4474 61.9647 35.6337 62.2855 35.9355 62.4597L41.3036 65.5593C38.8369 66.1906 36.2995 66.5115 33.7311 66.5115H33.7259V66.5097ZM53.694 69.3282V52.7677L68.037 44.4866V61.0471L53.694 69.3282ZM65.7859 58.7702C66.055 59.2377 65.8946 59.8362 65.4271 60.107L61.3528 62.458C61.1975 62.5477 61.0319 62.5891 60.8646 62.5891C60.5265 62.5891 60.1988 62.4149 60.0159 62.0992C59.7469 61.6318 59.9073 61.0333 60.3747 60.7625L64.4491 58.4115C64.92 58.1424 65.5151 58.3028 65.7859 58.7702ZM31.5559 41.4353L44.857 28.1348C45.2382 27.7536 45.8575 27.7536 46.2387 28.1348C46.6199 28.516 46.6199 29.1352 46.2387 29.5164L32.2459 43.5086C32.063 43.6914 31.8129 43.7949 31.5542 43.7949C31.2954 43.7949 31.047 43.6914 30.8625 43.5086L21.2079 33.8545C20.8267 33.4733 20.8267 32.8541 21.2079 32.4729C21.5891 32.0917 22.2083 32.0917 22.5896 32.4729L31.5524 41.4353H31.5559Z" fill="#010101"/>
</svg>
