<svg width="116" height="90" viewBox="0 0 116 90" fill="none" xmlns="http://www.w3.org/2000/svg">
<circle cx="20" cy="20" r="20" fill="#F6AE24"/>
<path d="M113.44 70.38V56.69C113.44 54.9 112.45 53.3 110.85 52.5L106.99 50.57L103.31 34.61C102.65 31.76 100.15 29.77 97.22 29.77H79.08V21.96C79.08 21.1 78.38 20.4 77.52 20.4H21.25C20.39 20.4 19.69 21.1 19.69 21.96V28.21H16.56C15.7 28.21 15 28.91 15 29.77C15 30.63 15.7 31.33 16.56 31.33H32.18C33.04 31.33 33.74 30.63 33.74 29.77C33.74 28.91 33.04 28.21 32.18 28.21H22.81V23.52H75.93V70.39H50.76C48.79 68.46 46.09 67.27 43.12 67.27C40.15 67.27 37.45 68.47 35.48 70.39H22.81V67.27H27.5C28.36 67.27 29.06 66.57 29.06 65.71V56.33C29.06 55.47 28.36 54.77 27.5 54.77H22.81V45.39C22.81 44.53 22.11 43.83 21.25 43.83C20.39 43.83 19.69 44.53 19.69 45.39V70.39C18.83 70.39 18.13 71.09 18.13 71.95V79.76C18.13 80.62 18.83 81.32 19.69 81.32H32.65C34 85.83 38.18 89.13 43.13 89.13C48.08 89.13 52.26 85.83 53.61 81.32H82.66C84.01 85.83 88.19 89.13 93.14 89.13C98.09 89.13 102.27 85.83 103.62 81.32H113.46C114.32 81.32 115.02 80.62 115.02 79.76V71.95C115.02 71.09 114.32 70.39 113.46 70.39L113.44 70.38ZM25.94 57.88V64.13H22.82V57.88H25.94ZM110.31 64.13H105.62V61.01H110.31V64.13ZM103.66 50.06H86.87V39.12H100.93C101 39.12 101.05 39.09 101.12 39.08L103.65 50.06H103.66ZM79.06 32.88H97.2C98.66 32.88 99.91 33.88 100.24 35.3L100.4 36H85.3C84.44 36 83.74 36.7 83.74 37.56V51.62C83.74 52.48 84.44 53.18 85.3 53.18H105.24L109.43 55.28C109.96 55.55 110.29 56.08 110.29 56.68V57.87H104.04C103.18 57.87 102.48 58.57 102.48 59.43V65.68C102.48 66.54 103.18 67.24 104.04 67.24H110.29V70.36H100.74C98.77 68.43 96.07 67.24 93.1 67.24C90.13 67.24 87.43 68.44 85.46 70.36H79.04V32.88H79.06ZM21.25 78.19V73.5H33.26C32.58 74.92 32.19 76.51 32.19 78.19H21.25ZM43.13 86C38.82 86 35.32 82.5 35.32 78.19C35.32 73.88 38.82 70.38 43.13 70.38C47.44 70.38 50.94 73.88 50.94 78.19C50.94 82.5 47.44 86 43.13 86ZM54.06 78.19C54.06 76.51 53.67 74.92 52.99 73.5H83.26C82.58 74.92 82.19 76.51 82.19 78.19H54.06ZM93.13 86C88.82 86 85.32 82.5 85.32 78.19C85.32 73.88 88.82 70.38 93.13 70.38C97.44 70.38 100.94 73.88 100.94 78.19C100.94 82.5 97.44 86 93.13 86ZM111.88 78.19H104.07C104.07 76.51 103.68 74.92 103 73.5H111.88V78.19ZM43.13 73.5C40.54 73.5 38.44 75.6 38.44 78.19C38.44 80.78 40.54 82.88 43.13 82.88C45.72 82.88 47.82 80.78 47.82 78.19C47.82 75.6 45.72 73.5 43.13 73.5ZM43.13 79.75C42.27 79.75 41.57 79.05 41.57 78.19C41.57 77.33 42.27 76.63 43.13 76.63C43.99 76.63 44.69 77.33 44.69 78.19C44.69 79.05 43.99 79.75 43.13 79.75ZM93.13 73.5C90.54 73.5 88.44 75.6 88.44 78.19C88.44 80.78 90.54 82.88 93.13 82.88C95.72 82.88 97.82 80.78 97.82 78.19C97.82 75.6 95.72 73.5 93.13 73.5ZM93.13 79.75C92.27 79.75 91.57 79.05 91.57 78.19C91.57 77.33 92.27 76.63 93.13 76.63C93.99 76.63 94.69 77.33 94.69 78.19C94.69 79.05 93.99 79.75 93.13 79.75ZM85.31 61C84.45 61 83.75 60.3 83.75 59.44C83.75 58.58 84.45 57.88 85.31 57.88H88.43C89.29 57.88 89.99 58.58 89.99 59.44C89.99 60.3 89.29 61 88.43 61H85.31ZM52.44 38.74C50.83 39.63 49.77 41.08 49.47 42.8L34.61 50.23C34.08 50.5 33.75 51.03 33.75 51.63V56.32C33.75 57.18 34.45 57.88 35.31 57.88H66.56C67.42 57.88 68.12 57.18 68.12 56.32V51.63C68.12 51.04 67.78 50.5 67.26 50.23L52.65 42.93C52.86 42.35 53.31 41.84 53.95 41.48C56.29 40.19 57.56 37.54 57.09 34.88C56.65 32.36 54.58 30.29 52.06 29.85C50.21 29.53 48.34 30.02 46.92 31.21C45.5 32.4 44.69 34.15 44.69 36C44.69 36.86 45.39 37.56 46.25 37.56C47.11 37.56 47.81 36.86 47.81 36C47.81 35.07 48.22 34.2 48.93 33.61C49.65 33 50.57 32.76 51.52 32.93C52.75 33.14 53.8 34.2 54.01 35.42C54.25 36.78 53.63 38.08 52.44 38.74ZM65 54.75H36.88V52.59L50.94 45.56L65 52.59V54.75ZM25.94 12.56C25.94 11.7 26.64 11 27.5 11H43.12C43.98 11 44.68 11.7 44.68 12.56C44.68 13.42 43.98 14.12 43.12 14.12H27.5C26.64 14.12 25.94 13.42 25.94 12.56ZM18.13 42.25C17.27 42.25 16.57 41.55 16.57 40.69C16.57 39.83 17.27 39.13 18.13 39.13H19.69V34.44C19.69 33.58 20.39 32.88 21.25 32.88C22.11 32.88 22.81 33.58 22.81 34.44V39.13H27.5C28.36 39.13 29.06 39.83 29.06 40.69C29.06 41.55 28.36 42.25 27.5 42.25H18.13Z" fill="black"/>
</svg>
