<svg width="36" height="36" viewBox="0 0 36 36" fill="none" xmlns="http://www.w3.org/2000/svg">
<path d="M34.4993 0.000244141H1.49927C0.674268 0.000244141 -0.000732422 0.675244 -0.000732422 1.50024C-0.000732422 2.32524 0.674268 3.00024 1.49927 3.00024H2.99927V19.5002C2.99927 21.9827 5.01677 24.0002 7.49927 24.0002H14.3768L7.94177 30.4427C7.31177 30.9827 7.23677 31.9277 7.77677 32.5577C8.31677 33.1877 9.26177 33.2627 9.89177 32.7227C9.95177 32.6702 10.0043 32.6177 10.0568 32.5577L16.4993 26.1227V34.5002C16.4993 35.3252 17.1743 36.0002 17.9993 36.0002C18.8243 36.0002 19.4993 35.3252 19.4993 34.5002V26.1227L25.9418 32.5577C26.5718 33.0977 27.5168 33.0227 28.0568 32.3927C28.5368 31.8302 28.5368 31.0052 28.0568 30.4427L21.6218 24.0002H28.4993C30.9818 24.0002 32.9993 21.9827 32.9993 19.5002V3.00024H34.4993C35.3243 3.00024 35.9993 2.32524 35.9993 1.50024C35.9993 0.675244 35.3243 0.000244141 34.4993 0.000244141ZM29.9993 19.5002C29.9993 20.3252 29.3243 21.0002 28.4993 21.0002H7.49927C6.67427 21.0002 5.99927 20.3252 5.99927 19.5002V3.00024H29.9993V19.5002Z" fill="#F6AE24"/>
<path d="M11.9993 18.0002C12.8243 18.0002 13.4993 17.3252 13.4993 16.5002V12.0002C13.4993 11.1752 12.8243 10.5002 11.9993 10.5002C11.1743 10.5002 10.4993 11.1752 10.4993 12.0002V16.5002C10.4993 17.3252 11.1743 18.0002 11.9993 18.0002Z" fill="#F6AE24"/>
<path d="M17.9993 18.0002C18.8243 18.0002 19.4993 17.3252 19.4993 16.5002V7.50024C19.4993 6.67524 18.8243 6.00024 17.9993 6.00024C17.1743 6.00024 16.4993 6.67524 16.4993 7.50024V16.5002C16.4993 17.3252 17.1743 18.0002 17.9993 18.0002Z" fill="#F6AE24"/>
<path d="M23.9993 18.0002C24.8243 18.0002 25.4993 17.3252 25.4993 16.5002V10.5002C25.4993 9.67524 24.8243 9.00024 23.9993 9.00024C23.1743 9.00024 22.4993 9.67524 22.4993 10.5002V16.5002C22.4993 17.3252 23.1743 18.0002 23.9993 18.0002Z" fill="#F6AE24"/>
</svg>
