<svg width="35" height="42" viewBox="0 0 35 42" fill="none" xmlns="http://www.w3.org/2000/svg">
<path d="M0.647073 34.125L17.4959 34.125C17.6659 34.125 17.836 34.0536 17.9563 33.9318L24.4353 27.3714C24.5556 27.2496 24.6261 27.0858 24.6261 26.9052L24.6261 0.6552C24.6261 0.294 24.3357 0 23.979 0L0.647073 0C0.290353 0 0 0.294 0 0.6552L0 33.4656C0 33.8268 0.290353 34.1208 0.647073 34.1208V34.125ZM18.1471 31.8822L18.1471 27.5604L22.4153 27.5604L18.1471 31.8822ZM1.29829 1.3146L23.3361 1.3146L23.3361 26.2542L17.5041 26.2542C17.1474 26.2542 16.8571 26.5482 16.8571 26.9094L16.8571 32.8146L1.29829 32.8146L1.29829 1.3146ZM34.3488 0L26.5715 0C26.2147 0 25.9244 0.294 25.9244 0.6552L25.9244 33.4656C25.9244 33.8268 26.2147 34.1208 26.5715 34.1208L34.3488 34.1208C34.7055 34.1208 34.9959 33.8268 34.9959 33.4656L34.9959 0.6552C35 0.294 34.7096 0 34.3488 0ZM33.7017 1.3146L33.7017 29.5344L32.2956 29.5344C32.0301 28.77 31.3084 28.224 30.4622 28.224C29.616 28.224 28.8984 28.77 28.6288 29.5344L27.2227 29.5344L27.2227 25.5948L28.5168 25.5948C28.8735 25.5948 29.1639 25.3008 29.1639 24.9396C29.1639 24.5784 28.8735 24.2844 28.5168 24.2844L27.2227 24.2844L27.2227 21.6594L29.168 21.6594C29.5248 21.6594 29.8151 21.3654 29.8151 21.0042C29.8151 20.643 29.5248 20.349 29.168 20.349L27.2227 20.349L27.2227 17.724L28.5168 17.724C28.8735 17.724 29.1639 17.43 29.1639 17.0688C29.1639 16.7076 28.8735 16.4136 28.5168 16.4136L27.2227 16.4136L27.2227 13.7886L29.168 13.7886C29.5248 13.7886 29.8151 13.4946 29.8151 13.1334C29.8151 12.7722 29.5248 12.4782 29.168 12.4782L27.2227 12.4782L27.2227 9.8532L28.5168 9.8532C28.8735 9.8532 29.1639 9.5592 29.1639 9.198C29.1639 8.8368 28.8735 8.5428 28.5168 8.5428L27.2227 8.5428L27.2227 5.9178L29.168 5.9178C29.5248 5.9178 29.8151 5.6238 29.8151 5.2626C29.8151 4.9014 29.5248 4.6074 29.168 4.6074L27.2227 4.6074L27.2227 1.3146L33.7017 1.3146ZM33.7017 32.8146L27.2227 32.8146L27.2227 30.8448L29.168 30.8448C29.5248 30.8448 29.8151 30.5508 29.8151 30.1896C29.8151 29.8284 30.1055 29.5344 30.4622 29.5344C30.8189 29.5344 31.1093 29.8284 31.1093 30.1896C31.1093 30.5508 31.3996 30.8448 31.7563 30.8448L33.7017 30.8448L33.7017 32.8146ZM34.6723 38.1486L30.1345 35.5236C30.0267 35.4606 29.8898 35.4354 29.8151 35.4354L3.23951 35.4354C1.45177 35.4396 0 36.9096 0 38.7198C0 40.53 1.45177 42 3.23951 42L29.8151 42C29.923 42 30.0516 41.9622 30.1345 41.916L34.6723 39.291C34.8756 39.1734 35 38.955 35 38.7198C35 38.4846 34.8756 38.2662 34.6723 38.1486ZM29.9893 40.488L28.6786 38.7198L29.9893 36.9516L31.7729 37.9848C31.7729 38.01 31.7563 38.0352 31.7563 38.0646L31.7563 39.375C31.7563 39.4044 31.7688 39.4254 31.7729 39.4548L29.9893 40.488ZM27.3513 39.1146L28.5168 40.6896L9.07561 40.6896L9.07561 36.75L28.521 36.75L27.3554 38.325C27.1812 38.556 27.1812 38.8794 27.3554 39.1146H27.3513ZM1.29829 38.7198C1.29829 37.632 2.16935 36.75 3.24366 36.75L5.18903 36.75L5.18903 40.6896L3.24366 40.6896C2.16935 40.6896 1.29829 39.8076 1.29829 38.7198ZM6.48317 40.6896L6.48317 36.75L7.77732 36.75L7.77732 40.6896L6.48317 40.6896ZM7.13024 10.668L7.13024 11.1552C7.13024 11.2392 7.14684 11.319 7.17587 11.3988L8.42024 14.553C8.3995 16.0986 7.94323 17.5938 7.09291 18.8832L4.6415 22.6044C4.52951 22.7724 4.50047 22.9824 4.56684 23.1756C4.69957 23.5788 5.69922 25.5906 12.311 25.5906C18.9227 25.5906 19.9224 23.5788 20.0551 23.1756C20.1173 22.9824 20.0924 22.7724 19.9804 22.6044L17.529 18.8832C16.6787 17.5938 16.2266 16.0986 16.2017 14.553L17.4461 11.3988C17.4751 11.3232 17.4917 11.2392 17.4917 11.1552L17.4917 10.668C17.4917 9.4164 16.6704 8.3664 15.5463 8.0136L15.5463 6.5646C15.5463 6.2034 15.256 5.9094 14.8993 5.9094C14.5425 5.9094 14.2522 6.2034 14.2522 6.5646L14.2522 7.9254C13.518 8.0556 12.8585 8.4798 12.4354 9.1224L12.3068 9.3198L12.1782 9.1224C11.7552 8.4798 11.0998 8.0556 10.3615 7.9254L10.3615 6.5646C10.3615 6.2034 10.0711 5.9094 9.71439 5.9094C9.35767 5.9094 9.06732 6.2034 9.06732 6.5646L9.06732 8.0136C7.94323 8.3664 7.12195 9.4164 7.12195 10.668L7.13024 10.668ZM15.115 16.4052L9.51114 16.4052C9.60239 15.9726 9.66876 15.5358 9.6978 15.0948L14.9283 15.0948C14.9573 15.5358 15.0237 15.9768 15.115 16.4052ZM18.6531 22.953C18.4042 23.1756 17.836 23.5452 16.6746 23.8392C16.6663 23.8308 16.6663 23.8224 16.658 23.8182C16.6414 23.8014 14.8288 21.9366 14.2356 19.53C14.1485 19.1772 13.7959 18.963 13.4516 19.0512C13.1032 19.1394 12.8917 19.4964 12.9788 19.845C13.4475 21.7392 14.526 23.2932 15.1896 24.1122C14.4057 24.213 13.4558 24.276 12.311 24.276C11.1662 24.276 10.2163 24.213 9.42818 24.1122C10.0918 23.2932 11.1744 21.735 11.6432 19.8408C11.7303 19.488 11.5187 19.1352 11.1703 19.047C10.8219 18.9588 10.4693 19.173 10.3863 19.5258C9.7932 21.9324 7.98056 23.7972 7.96397 23.814C7.95568 23.8224 7.95153 23.835 7.94738 23.8434C6.77767 23.5494 6.21771 23.1756 5.97298 22.953L8.17552 19.6098C8.56957 19.0134 8.88481 18.3792 9.12953 17.7198L15.5007 17.7198C15.7454 18.3792 16.0648 19.0176 16.4547 19.6098L18.6531 22.953ZM8.42439 10.668C8.42439 9.849 9.07976 9.1854 9.8886 9.1854C10.3781 9.1854 10.8343 9.4332 11.1039 9.8448L11.7717 10.8612C12.0123 11.2266 12.6096 11.2266 12.8502 10.8612L13.518 9.8448C13.7918 9.4332 14.2439 9.1854 14.7333 9.1854C15.5422 9.1854 16.1976 9.849 16.1976 10.668L16.1976 11.0292L15.1108 13.7802L9.50699 13.7802L8.42024 11.0292L8.42024 10.668H8.42439ZM3.23951 3.9396C3.23951 3.5784 3.52987 3.2844 3.88658 3.2844L5.18073 3.2844C5.53745 3.2844 5.8278 3.5784 5.8278 3.9396C5.8278 4.3008 5.53745 4.5948 5.18073 4.5948L3.88658 4.5948C3.52987 4.5948 3.23951 4.3008 3.23951 3.9396ZM3.23951 6.5646C3.23951 6.2034 3.52987 5.9094 3.88658 5.9094L6.47902 5.9094C6.83574 5.9094 7.1261 6.2034 7.1261 6.5646C7.1261 6.9258 6.83574 7.2198 6.47902 7.2198L3.88658 7.2198C3.52987 7.2198 3.23951 6.9258 3.23951 6.5646ZM7.13024 30.1896C7.13024 30.5508 6.83989 30.8448 6.48317 30.8448L3.89073 30.8448C3.53401 30.8448 3.24366 30.5508 3.24366 30.1896C3.24366 29.8284 3.53401 29.5344 3.89073 29.5344L6.48317 29.5344C6.83989 29.5344 7.13024 29.8284 7.13024 30.1896ZM10.3698 27.5646C10.3698 27.9258 10.0794 28.2198 9.72268 28.2198L3.89073 28.2198C3.53401 28.2198 3.24366 27.9258 3.24366 27.5646C3.24366 27.2034 3.53401 26.9094 3.89073 26.9094L9.72268 26.9094C10.0794 26.9094 10.3698 27.2034 10.3698 27.5646Z" fill="#F6AE24"/>
</svg>
