<svg width="41" height="45" viewBox="0 0 41 45" fill="none" xmlns="http://www.w3.org/2000/svg">
<path d="M8.69066 44.9892C8.21971 44.9892 7.83091 44.6104 7.83091 44.1397V41.9214H7.35996C6.88901 41.9214 6.5002 41.5426 6.5002 41.0719V37.0518H0.914518C0.443569 37.0518 0.0547616 36.6731 0.0547616 36.2024V26.6797C0.0547616 26.2144 0.438093 25.8302 0.914518 25.8302H6.53306V21.4422L0.410712 17.7251C0.158809 17.5736 0 17.2977 0 17.0055V13.678C0 13.586 0.0164285 13.4995 0.0438093 13.4129L3.47736 3.98762C3.49927 3.93892 3.52117 3.90105 3.5376 3.86858C3.61974 3.65757 3.78403 3.48984 3.99212 3.39786L10.8264 0.530239H10.8757C10.8757 0.530239 10.9195 0.519418 10.9414 0.514007L13.9697 0.0108212C14.019 0.00541061 14.0628 0 14.1121 0C14.594 0.00541061 14.9718 0.389564 14.9663 0.860286C14.9663 3.63052 17.4525 5.89215 20.5082 5.89215C23.5639 5.89215 26.0446 3.63052 26.0446 0.849465C26.0446 0.600577 26.1541 0.367921 26.3458 0.205603C26.5046 0.0757485 26.6963 0.00541061 26.8989 0.00541061C26.9482 0.00541061 26.9975 0.00541061 27.0413 0.0162318L30.0422 0.519418C30.1572 0.541061 30.2613 0.578935 30.3543 0.638451L36.9969 3.39786C37.1174 3.45197 37.216 3.5223 37.2926 3.61428C37.3693 3.66839 37.4569 3.79283 37.5117 3.9281L40.9562 13.375C40.989 13.467 41 13.559 41 13.6455V16.9731C41 17.2652 40.8412 17.5412 40.5893 17.6927L34.4943 21.3935V25.8519H40.08C40.551 25.8519 40.9398 26.2306 40.9398 26.7013V36.2348C40.9398 36.7001 40.5564 37.0843 40.08 37.0843H34.4943V41.1044C34.4943 41.5697 34.111 41.9538 33.6346 41.9538H33.0869V44.1505C33.0869 44.6158 32.7036 45 32.2272 45H8.69066V44.9892ZM31.4277 43.2903V41.9376H9.59423V43.2903H31.4277ZM32.7858 40.2441V37.0681H8.21424V40.2441H32.7858ZM39.2476 35.3529V27.5346H35.4855V28.7465C35.4855 29.2119 35.1022 29.596 34.6257 29.596C34.1274 29.596 33.7441 29.2119 33.7441 28.7465V27.5346H31.9315V30.0667C31.9315 30.532 31.5481 30.9162 31.0717 30.9162C30.5953 30.9162 30.212 30.5375 30.212 30.0667V27.5346H28.3994V28.7465C28.3994 29.2119 28.016 29.596 27.5396 29.596C27.0632 29.596 26.6798 29.2173 26.6798 28.7465V27.5346H24.8672V30.0667C24.8672 30.532 24.4839 30.9162 24.0075 30.9162C23.5311 30.9162 23.1477 30.5375 23.1477 30.0667V27.5346H21.3351V28.7465C21.3351 29.2119 20.9518 29.596 20.4754 29.596C19.9989 29.596 19.6156 29.2173 19.6156 28.7465V27.5346H17.7975V30.0667C17.7975 30.532 17.4142 30.9162 16.9378 30.9162C16.4613 30.9162 16.078 30.5375 16.078 30.0667V27.5346H14.2654V28.7465C14.2654 29.2119 13.8821 29.596 13.4056 29.596C12.9292 29.596 12.5459 29.2173 12.5459 28.7465V27.5346H10.7333V30.0667C10.7333 30.532 10.3499 30.9162 9.87351 30.9162C9.39709 30.9162 9.01376 30.5375 9.01376 30.0667V27.5346H7.20115V28.7465C7.20115 29.2119 6.81782 29.596 6.34139 29.596C5.86497 29.596 5.48163 29.2173 5.48163 28.7465V27.5346H1.7688V35.3529H39.2476ZM32.7474 25.841V11.7085C32.7474 11.6003 32.7693 11.4975 32.8077 11.3947L35.5567 4.63148L30.672 2.59709C30.0039 7.26103 25.6284 10.8537 20.5137 10.8537C15.399 10.8537 11.0071 7.25562 10.3445 2.59168L5.44878 4.63689L8.19781 11.4218V11.4488C8.21971 11.5408 8.22519 11.6382 8.20876 11.7302V25.841H32.742H32.7474ZM6.53306 19.4728V17.7576L1.71404 15.1335V16.551L6.53306 19.4728ZM34.4998 19.4133L39.3188 16.4753V15.0739L34.4998 17.6981V19.4133ZM6.5002 15.8152V11.8709L4.36997 6.54683L1.8838 13.2993L6.5002 15.8152ZM34.4998 15.7557L39.0943 13.2452L36.641 6.52519L34.4998 11.8709V15.7557ZM11.9983 2.06144C12.3925 6.06529 16.0725 9.16015 20.4973 9.16015C24.922 9.16015 28.6129 6.06529 29.0072 2.06144L27.6765 1.83961C27.1617 5.09138 24.0732 7.59108 20.4973 7.59108C16.9213 7.59108 13.8383 5.08597 13.3235 1.8342L11.9928 2.05603L11.9983 2.06144Z" fill="#F6AE24"/>
</svg>
