<svg width="36" height="36" viewBox="0 0 36 36" fill="none" xmlns="http://www.w3.org/2000/svg">
<path d="M1.49927 36.0002H22.4993C23.3243 36.0002 23.9993 35.3252 23.9993 34.5002C23.9993 33.6752 23.3243 33.0002 22.4993 33.0002H2.99927V31.6952C2.99927 31.1402 3.35177 30.6452 3.87677 30.4577L13.9943 26.9177C14.5943 26.7077 14.9993 26.1377 14.9993 25.5002V22.5002C14.9993 21.6752 14.3243 21.0002 13.4993 21.0002C11.6318 20.9777 9.80927 20.4152 8.24927 19.3802C9.74927 17.6027 11.9993 13.9502 11.9993 7.56024C12.0968 5.13024 14.9018 3.00024 17.9993 3.00024C21.0968 3.00024 23.9018 5.13024 23.9993 7.50024C23.9993 13.9352 26.1893 17.6027 27.7493 19.3877C26.1893 20.4227 24.3668 20.9777 22.4993 21.0002C21.6743 21.0002 20.9993 21.6752 20.9993 22.5002V25.5002C20.9993 26.3252 21.6743 27.0002 22.4993 27.0002C23.3243 27.0002 23.9993 26.3252 23.9993 25.5002V23.9027C26.6393 23.5352 29.0993 22.3652 31.0568 20.5577C31.3718 20.2427 31.5368 19.8077 31.4993 19.3652C31.4618 18.9227 31.2293 18.5177 30.8618 18.2627C30.6893 18.1502 26.9993 15.4727 26.9993 7.44024C26.8268 3.40524 22.7093 0.000244141 17.9993 0.000244141C13.2893 0.000244141 9.17177 3.40524 8.99927 7.50024C8.99927 15.4727 5.30927 18.1502 5.16677 18.2552C4.79177 18.5027 4.54427 18.9002 4.49927 19.3502C4.45427 19.8002 4.61927 20.2427 4.93427 20.5577C6.89177 22.3652 9.35927 23.5352 11.9993 23.9027V24.4352L2.87927 27.6302C1.15427 28.2377 -0.000732422 29.8652 -0.000732422 31.6952V34.5002C-0.000732422 35.3252 0.674268 36.0002 1.49927 36.0002Z" fill="#F6AE24"/>
<path d="M34.4993 28.5002H31.4993V25.5002C31.4993 24.6752 30.8243 24.0002 29.9993 24.0002C29.1743 24.0002 28.4993 24.6752 28.4993 25.5002V28.5002H25.4993C24.6743 28.5002 23.9993 29.1752 23.9993 30.0002C23.9993 30.8252 24.6743 31.5002 25.4993 31.5002H28.4993V34.5002C28.4993 35.3252 29.1743 36.0002 29.9993 36.0002C30.8243 36.0002 31.4993 35.3252 31.4993 34.5002V31.5002H34.4993C35.3243 31.5002 35.9993 30.8252 35.9993 30.0002C35.9993 29.1752 35.3243 28.5002 34.4993 28.5002Z" fill="#F6AE24"/>
</svg>
