<svg width="36" height="36" viewBox="0 0 36 36" fill="none" xmlns="http://www.w3.org/2000/svg">
<path d="M23.9988 12.0007C23.9988 8.68555 21.3138 6.00045 17.9986 6.00045C14.6835 6.00045 11.9984 8.68555 11.9984 12.0007C11.9984 15.3158 14.6835 18.0009 17.9986 18.0009C21.3138 18.0009 23.9988 15.3158 23.9988 12.0007ZM14.9985 12.0007C14.9985 10.3431 16.3411 9.00056 17.9986 9.00056C19.6562 9.00056 20.9987 10.3431 20.9987 12.0007C20.9987 13.6582 19.6562 15.0008 17.9986 15.0008C16.3411 15.0008 14.9985 13.6582 14.9985 12.0007Z" fill="#F6AE24"/>
<path d="M4.59567 21.976L0.0955079 33.9764C-0.197002 34.749 0.200511 35.619 0.973039 35.904C1.13804 35.964 1.31805 36.0015 1.49806 36.0015H34.4992C35.3242 36.0015 35.9993 35.3265 35.9993 34.5015C35.9993 34.3214 35.9693 34.1489 35.9018 33.9764L31.4016 21.976C31.1841 21.391 30.6216 21.001 29.9991 21.001H27.509C29.1215 18.2784 29.9841 15.1658 29.9991 12.0007C29.9991 5.37043 24.6214 0.000244141 17.9986 0.000244141C11.3759 0.000244141 5.99821 5.37043 5.99821 12.0007C6.15572 15.1508 7.02575 18.2334 8.5408 21.001H5.99821C5.37569 21.001 4.81317 21.391 4.59567 21.976ZM17.9986 3.00035C22.9713 3.00035 26.999 7.02799 26.999 12.0007C26.999 19.9434 20.2487 25.2086 17.9986 26.7387C12.756 23.6111 9.38833 18.0984 8.99832 12.0007C8.99832 7.02799 13.026 3.00035 17.9986 3.00035ZM10.4984 24.0011C12.3434 26.3637 14.6385 28.3362 17.2486 29.8063C17.7136 30.0763 18.2836 30.0763 18.7487 29.8063C21.2838 28.2537 23.5413 26.2887 25.4314 24.0011H28.9565L32.3316 33.0014H3.66563L7.04075 24.0011H10.4984Z" fill="#F6AE24"/>
</svg>
