<svg width="34" height="34" viewBox="0 0 34 34" fill="none" xmlns="http://www.w3.org/2000/svg">
<path d="M6.01273 34.0002C2.68348 34.0002 -0.000732422 31.2952 -0.000732422 27.966V6.01371C-0.000732422 2.70526 2.70429 0.000244141 6.01273 0.000244141H27.965C31.2942 0.000244141 33.9785 2.70526 33.9785 6.01371V27.966C33.9785 31.2952 31.2734 34.0002 27.965 34.0002H6.01273ZM2.78752 27.9868C2.78752 29.7971 4.20245 31.212 6.01273 31.212H27.965C29.7753 31.212 31.1902 29.7971 31.1902 27.9868V16.3136H25.1976C25.5097 17.2083 25.6553 18.1447 25.6553 19.081C25.6553 23.8668 21.7643 27.7579 16.9785 27.7579C12.1927 27.7579 8.30159 23.8668 8.30159 19.081C8.30159 18.1447 8.46806 17.2083 8.75937 16.3136H2.78752V27.9868ZM16.9993 13.1924C13.7532 13.1924 11.1107 15.835 11.1107 19.081C11.1107 22.327 13.7532 24.9696 16.9993 24.9696C20.2453 24.9696 22.8879 22.327 22.8879 19.081C22.8879 15.835 20.2453 13.1924 16.9993 13.1924ZM31.211 13.5253V6.01371C31.211 4.20343 29.7961 2.78849 27.9858 2.78849H15.2722V9.03084H12.484V2.78849H11.1107V9.03084H8.3224V2.78849H6.94908V9.03084H4.16083V3.37111C3.30771 3.95373 2.78752 4.9317 2.78752 6.01371V13.5253H10.3824C12.047 11.5278 14.4607 10.4042 16.9993 10.4042C19.5378 10.4042 21.9307 11.5486 23.6162 13.5253H31.211ZM16.9993 23.5963C14.5023 23.5963 12.484 21.578 12.484 19.081C12.484 16.5841 14.5023 14.5657 16.9993 14.5657C19.4962 14.5657 21.5146 16.6049 21.5146 19.081C21.5146 21.5572 19.4962 23.5963 16.9993 23.5963ZM16.9993 17.354C16.0213 17.354 15.2722 18.1031 15.2722 19.081C15.2722 20.059 16.0213 20.8081 16.9993 20.8081C17.9772 20.8081 18.7263 20.059 18.7263 19.081C18.7263 18.1031 17.9772 17.354 16.9993 17.354ZM24.282 11.1116C23.5121 11.1116 22.8879 10.4874 22.8879 9.7175V5.55594C22.8879 4.78605 23.5121 4.16181 24.282 4.16181H28.4436C29.2135 4.16181 29.8377 4.78605 29.8377 5.55594V9.7175C29.8377 10.4874 29.2135 11.1116 28.4436 11.1116H24.282ZM27.0495 8.32338V6.95006H25.6761V8.32338H27.0495Z" fill="#F6AE24"/>
</svg>
