<svg width="30" height="46" viewBox="0 0 30 46" fill="none" xmlns="http://www.w3.org/2000/svg">
<path d="M25 16.3226H27.8571C29.0429 16.3226 30 15.3284 30 14.0968C30 12.8652 29.0429 11.871 27.8571 11.871H20.7143C20.3214 11.871 20 11.5371 20 11.129C20 10.721 20.3214 10.3871 20.7143 10.3871H27.8571C29.0429 10.3871 30 9.3929 30 8.16129C30 6.92968 29.0429 5.93548 27.8571 5.93548H22.8571V7.41936H27.8571C28.25 7.41936 28.5714 7.75323 28.5714 8.16129C28.5714 8.56936 28.25 8.90323 27.8571 8.90323H20.7143C19.5286 8.90323 18.5714 9.89742 18.5714 11.129C18.5714 12.3606 19.5286 13.3548 20.7143 13.3548H27.8571C28.25 13.3548 28.5714 13.6887 28.5714 14.0968C28.5714 14.5048 28.25 14.8387 27.8571 14.8387H25C23.8143 14.8387 22.8571 15.8329 22.8571 17.0645V17.8065H18.5714V17.0645C18.5714 16.6565 18.25 16.3226 17.8571 16.3226C15.8857 16.3226 14.2857 14.6606 14.2857 12.6129C14.2857 12.2048 13.9643 11.871 13.5714 11.871H10V11.129C10 9.89742 9.04286 8.90323 7.85714 8.90323H6.42857C6.03571 8.90323 5.71429 8.56936 5.71429 8.16129C5.71429 7.75323 6.03571 7.41936 6.42857 7.41936H12.1429C13.3286 7.41936 14.2857 6.42516 14.2857 5.19355C14.2857 3.96194 13.3286 2.96774 12.1429 2.96774H6.42857C6.03571 2.96774 5.71429 2.63387 5.71429 2.22581C5.71429 1.81774 6.03571 1.48387 6.42857 1.48387H10V0H6.42857C5.24286 0 4.28571 0.994194 4.28571 2.22581C4.28571 3.45742 5.24286 4.45161 6.42857 4.45161H12.1429C12.5357 4.45161 12.8571 4.78548 12.8571 5.19355C12.8571 5.60161 12.5357 5.93548 12.1429 5.93548H6.42857C5.24286 5.93548 4.28571 6.92968 4.28571 8.16129C4.28571 9.3929 5.24286 10.3871 6.42857 10.3871H7.85714C8.25 10.3871 8.57143 10.721 8.57143 11.129V11.871H5C4.60714 11.871 4.28571 12.2048 4.28571 12.6129C4.28571 14.6606 2.68571 16.3226 0.714286 16.3226C0.321429 16.3226 0 16.6565 0 17.0645V45.2581C0 45.6661 0.321429 46 0.714286 46H17.8571C18.25 46 18.5714 45.6661 18.5714 45.2581V38.5806H29.2857C29.6786 38.5806 30 38.2468 30 37.8387V18.5484C30 18.1403 29.6786 17.8065 29.2857 17.8065H24.2857V17.0645C24.2857 16.6565 24.6071 16.3226 25 16.3226ZM5.66429 13.3548H8.57143V14.9426C7.04286 15.3506 6.12143 16.9681 6.52143 18.5558C6.91429 20.1435 8.47143 21.1006 10 20.6852C11.5286 20.2771 12.45 18.6597 12.05 17.0719C11.7929 16.0258 11.0071 15.2097 10 14.9426V13.3548H12.9071C13.2286 15.6326 14.95 17.4206 17.1429 17.7545V41.5484H1.42857V17.7545C3.62143 17.4206 5.34286 15.6326 5.66429 13.3548ZM9.28571 16.3226C10.0714 16.3226 10.7143 16.9903 10.7143 17.8065C10.7143 18.6226 10.0714 19.2903 9.28571 19.2903C8.5 19.2903 7.85714 18.6226 7.85714 17.8065C7.85714 16.9903 8.5 16.3226 9.28571 16.3226ZM1.42857 44.5161V43.0323H17.1429V44.5161H1.42857ZM18.5714 37.0968V35.6129H28.5714V37.0968H18.5714ZM28.5714 19.2903V34.129H18.5714V19.2903H22.8571V20.8781C21.3286 21.2861 20.4071 22.9035 20.8071 24.4913C21.2 26.079 22.7571 27.0361 24.2857 26.6206C25.8143 26.2052 26.7357 24.5952 26.3357 23.0074C26.0786 21.9613 25.2929 21.1452 24.2857 20.8781V19.2903H28.5714ZM23.5714 22.2581C24.3571 22.2581 25 22.9258 25 23.7419C25 24.5581 24.3571 25.2258 23.5714 25.2258C22.7857 25.2258 22.1429 24.5581 22.1429 23.7419C22.1429 22.9258 22.7857 22.2581 23.5714 22.2581Z" fill="#F6AE24"/>
<path d="M3.57143 40.0645H15C15.3929 40.0645 15.7143 39.7306 15.7143 39.3226V23C15.7143 22.5919 15.3929 22.2581 15 22.2581H3.57143C3.17857 22.2581 2.85714 22.5919 2.85714 23V39.3226C2.85714 39.7306 3.17857 40.0645 3.57143 40.0645ZM4.28571 23.7419H14.2857V38.5806H12.8571V25.9677H11.4286V38.5806H10V27.4516H8.57143V38.5806H7.14286V28.9355H5.71429V38.5806H4.28571V23.7419Z" fill="#F6AE24"/>
</svg>
