<svg width="20" height="22" viewBox="0 0 20 22" fill="none" xmlns="http://www.w3.org/2000/svg">
<path d="M0.351947 16.154L0.747508 16.8415C1.37722 17.9529 2.72077 18.4319 3.9029 17.9621L5.01002 17.5267C5.5829 17.9758 6.21489 18.3448 6.88552 18.6244L7.06739 19.8023C7.25381 21.0696 8.33364 22.0068 9.60444 22H10.3956C11.6664 22.0045 12.7462 21.0696 12.9349 19.8046L13.1145 18.6267C13.7897 18.3471 14.4239 17.9781 15.0013 17.5289L16.1085 17.9644C17.2861 18.4273 18.6251 17.9506 19.2525 16.8437L19.6481 16.1562C20.2937 15.0494 20.03 13.6309 19.0297 12.8334L18.1204 12.0909C18.2181 11.3621 18.2181 10.6242 18.1204 9.89546L19.0297 9.15296C20.0209 8.35776 20.2846 6.94839 19.6481 5.84382L19.2525 5.15632C18.6205 4.04716 17.2792 3.5705 16.0971 4.038L15.0013 4.47112C14.4285 4.02195 13.7965 3.653 13.1258 3.37342L12.9462 2.19551C12.7553 0.925931 11.6686 -0.0113543 10.3956 0.000103925H9.60444C8.33364 -0.00447938 7.25381 0.930515 7.06512 2.19551L6.88552 3.37342C6.21489 3.653 5.5829 4.02195 5.01002 4.47112L3.9029 4.0357C2.72077 3.56821 1.37722 4.04258 0.747508 5.15403L0.351947 5.84153C-0.293682 6.95069 -0.0299746 8.36922 0.970295 9.16671L1.87963 9.90921C1.78188 10.638 1.78188 11.3759 1.87963 12.1046L0.970295 12.8471C-0.0208812 13.6423 -0.284589 15.0494 0.351947 16.154ZM2.10696 14.2702L3.44142 13.1909C3.7074 12.9754 3.83243 12.6294 3.76423 12.2925C3.59146 11.44 3.59146 10.56 3.76423 9.70754C3.83243 9.37067 3.7074 9.02463 3.44142 8.80921L2.10696 7.72985C1.81598 7.4961 1.74096 7.0836 1.92737 6.76048L2.32293 6.07298C2.50707 5.74757 2.89809 5.61007 3.24363 5.74757L4.84861 6.37548C5.16688 6.49923 5.52607 6.43506 5.78068 6.20819C6.42176 5.63069 7.17424 5.1907 7.99037 4.91799C8.31318 4.81028 8.54961 4.52612 8.6019 4.18695L8.86333 2.47509C8.91789 2.10613 9.23388 1.83113 9.60444 1.83343H10.3956C10.7661 1.83343 11.0821 2.10613 11.1367 2.47509L11.3981 4.18466C11.4504 4.52383 11.6868 4.80799 12.0096 4.9157C12.8258 5.1884 13.5782 5.6284 14.2193 6.2059C14.4739 6.43277 14.8331 6.49694 15.1514 6.37319L16.7564 5.74528C17.0974 5.61465 17.4838 5.75215 17.6657 6.07069L18.0613 6.75819C18.2477 7.08131 18.1727 7.49381 17.8817 7.72756L16.5472 8.80692C16.2812 9.02234 16.1562 9.36838 16.2244 9.70525C16.3972 10.5577 16.3972 11.4377 16.2244 12.2902C16.1562 12.6271 16.2812 12.9731 16.5472 13.1886L17.8817 14.2679C18.1727 14.5017 18.2477 14.9119 18.0613 15.235L17.6657 15.9225C17.4838 16.2433 17.0974 16.3808 16.7564 16.2502L15.1514 15.6223C14.8331 15.4985 14.4739 15.5627 14.2193 15.7896C13.5782 16.3671 12.8258 16.8048 12.0096 17.0798C11.6868 17.1875 11.4504 17.4717 11.3981 17.8108L11.1367 19.525C11.0821 19.8939 10.7661 20.1689 10.3956 20.1666H9.60444C9.23388 20.1666 8.91789 19.8939 8.86333 19.525L8.6019 17.8154C8.54961 17.4762 8.31318 17.1921 7.99037 17.0844C7.17424 16.8117 6.42176 16.3717 5.78068 15.7942C5.61473 15.6452 5.40103 15.565 5.17825 15.565C5.06458 15.565 4.95319 15.5856 4.84861 15.6292L3.24363 16.2571C2.89809 16.3946 2.5048 16.2571 2.32293 15.9294L1.92737 15.2419C1.73868 14.9188 1.8137 14.504 2.10696 14.2702Z" fill="black"/>
<path d="M10 14.6667C12.0096 14.6667 13.6373 13.0259 13.6373 11C13.6373 8.97421 12.0096 7.33339 10 7.33339C7.99037 7.33339 6.36266 8.97421 6.36266 11C6.36266 13.0259 7.99037 14.6667 10 14.6667ZM10 9.16671C11.0048 9.16671 11.8187 9.98712 11.8187 11C11.8187 12.0129 11.0048 12.8334 10 12.8334C8.99518 12.8334 8.18133 12.0129 8.18133 11C8.18133 9.98712 8.99518 9.16671 10 9.16671Z" fill="black"/>
</svg>
