<svg width="64" height="58" viewBox="0 0 64 58" fill="none" xmlns="http://www.w3.org/2000/svg">
<path d="M50 54H1C0.45 54 0 53.55 0 53V1C0 0.45 0.45 0 1 0H63C63.55 0 64 0.45 64 1V31H62V2H2V52H50V54Z" fill="#CCCCCC"/>
<path d="M63 6H1V8H63V6Z" fill="#CCCCCC"/>
<path d="M12 1H10V7H12V1Z" fill="#CCCCCC"/>
<path d="M56 1H54V7H56V1Z" fill="#CCCCCC"/>
<path d="M49 49H24C23.45 49 23 48.55 23 48V26C23 25.45 23.45 25 24 25H58C58.55 25 59 25.45 59 26V30H57V27H25V47H49V49Z" fill="#CCCCCC"/>
<path d="M63 58H52C51.45 58 51 57.55 51 57V55.41L48.29 52.7C48.1 52.51 48 52.26 48 51.99V35.99C48 34.33 49.34 32.99 51 32.99C51.8 32.99 52.57 33.31 53.13 33.88C53.34 34.08 53.51 34.31 53.65 34.57C53.88 35.01 54.01 35.49 54.01 35.99V41.42L57.01 43.22V29.99C57.01 29.44 57.46 28.99 58.01 28.99C58.28 28.99 58.53 29.1 58.72 29.28L63.72 34.28C63.91 34.47 64.01 34.72 64.01 34.99V56.99C64.01 57.54 63.56 57.99 63.01 57.99L63 58ZM53 56H62V35.41L59 32.41V45C59 45.55 58.55 46 58 46C57.82 46 57.64 45.95 57.49 45.86L52.49 42.86C52.19 42.68 52.01 42.35 52 42V36C52 35.83 51.96 35.67 51.88 35.52C51.84 35.45 51.79 35.38 51.73 35.32C51.35 34.92 50.72 34.9 50.32 35.28C50.12 35.47 50.01 35.73 50.01 36V51.59L52.72 54.3C52.91 54.49 53.01 54.74 53.01 55.01V56.01L53 56Z" fill="#CCCCCC"/>
<path d="M58 30H24V32H58V30Z" fill="#CCCCCC"/>
<path d="M49 34H24V36H49V34Z" fill="#CCCCCC"/>
<path d="M58 34H53V36H58V34Z" fill="#CCCCCC"/>
<path d="M31 38H27V40H31V38Z" fill="#CCCCCC"/>
<path d="M37 38H33V40H37V38Z" fill="#CCCCCC"/>
<path d="M43 38H39V40H43V38Z" fill="#CCCCCC"/>
<path d="M10 29C9.45 29 9 28.55 9 28V19.41L8.71 19.7C8.32 20.09 7.69 20.09 7.3 19.7L4.3 16.7C3.91 16.31 3.91 15.68 4.3 15.29L9.3 10.29C9.49 10.1 9.74 10 10.01 10H20.01C20.28 10 20.53 10.11 20.72 10.29L25.72 15.29C26.11 15.68 26.11 16.31 25.72 16.7L22.72 19.7C22.33 20.09 21.7 20.09 21.31 19.7L21.02 19.41V28C21.02 28.55 20.57 29 20.02 29H10ZM11 27H19V17C19 16.45 19.45 16 20 16C20.27 16 20.52 16.11 20.71 16.29L22 17.58L23.59 15.99L19.59 11.99H10.42L6.42 15.99L8.01 17.58L9.3 16.29C9.69 15.9 10.32 15.9 10.71 16.29C10.9 16.48 11 16.73 11 17V27Z" fill="#CCCCCC"/>
<path d="M20 23H10V25H20V23Z" fill="#CCCCCC"/>
<path d="M9 31H5V33H9V31Z" fill="#CCCCCC"/>
<path d="M21 31H11V33H21V31Z" fill="#CCCCCC"/>
<path d="M21 35H5V37H21V35Z" fill="#CCCCCC"/>
<path d="M21 39H9V41H21V39Z" fill="#CCCCCC"/>
<path d="M21 43H5V45H21V43Z" fill="#CCCCCC"/>
<path d="M21 47H5V49H21V47Z" fill="#CCCCCC"/>
<path d="M7 39H5V41H7V39Z" fill="#CCCCCC"/>
<path d="M56 26H54V23C54 22.45 53.55 22 53 22H41C39.34 22 38 20.66 38 19C38 17.34 39.34 16 41 16H53C53.55 16 54 15.55 54 15C54 14.45 53.55 14 53 14H30C29.45 14 29 13.55 29 13C29 12.73 29.11 12.48 29.29 12.29L32.29 9.29L33.7 10.7L32.41 11.99H53C54.66 11.99 56 13.33 56 14.99C56 16.65 54.66 17.99 53 17.99H41C40.45 17.99 40 18.44 40 18.99C40 19.54 40.45 19.99 41 19.99H53C54.66 19.99 56 21.33 56 22.99V26Z" fill="#CCCCCC"/>
<path d="M30.705 12.293L29.2907 13.7072L32.2889 16.7054L33.7031 15.2911L30.705 12.293Z" fill="#CCCCCC"/>
</svg>
