<svg width="178" height="230" viewBox="0 0 178 230" fill="none" xmlns="http://www.w3.org/2000/svg">
<rect x="0.5" y="0.5" width="177" height="229" fill="white" stroke="#CCCCCC"/>
<path d="M75.6142 123.712V126.508H77.3422V127.588H75.6142V132.052H74.4142V123.712H75.6142ZM73.5022 128.836L73.6342 129.868C71.9542 130.144 69.9382 130.276 68.3062 130.276H66.6262L66.5662 129.22H67.8622V125.356H66.7102V124.3H73.1422V125.356H72.0022V129.016C72.5062 128.968 73.0222 128.908 73.5022 128.836ZM70.8502 129.124V125.356H69.0262V129.208C69.5782 129.196 70.2022 129.172 70.8502 129.124ZM68.4742 131.476H69.6742V133.756H76.1902V134.848H68.4742V131.476ZM86.6211 127.9V123.712H87.7971V134.848H86.6211V128.992H85.2051V134.62H84.0651V123.88H85.2051V127.9H86.6211ZM82.8411 133.048H78.3891V124.528H82.8411V133.048ZM81.7251 125.632H79.4931V131.944H81.7251V125.632ZM95.624 127.156V126.124H97.796V123.712H98.996V129.784H97.796V127.156H95.624ZM95.852 129.724L92.828 127.732C92.264 128.536 91.364 129.244 90.14 129.904L89.576 128.944C91.496 127.864 92.42 126.784 92.42 125.308H90.02V124.24H96.02V125.308H93.584C93.584 125.836 93.5 126.316 93.332 126.772L96.452 128.74L95.852 129.724ZM94.052 130.372H96.476C98.108 130.372 99.14 131.332 99.14 132.664C99.14 134.008 98.108 134.968 96.476 134.968H94.052C92.432 134.968 91.4 134.008 91.4 132.664C91.4 131.332 92.432 130.372 94.052 130.372ZM94.244 133.888H96.296C97.4 133.888 97.94 133.372 97.94 132.664C97.94 131.956 97.4 131.44 96.296 131.44H94.244C93.14 131.44 92.588 131.956 92.588 132.664C92.588 133.372 93.14 133.888 94.244 133.888ZM109.751 123.712V126.508H111.479V127.588H109.751V132.052H108.551V123.712H109.751ZM106.763 130.192L103.847 127.912C103.283 128.824 102.431 129.652 101.279 130.42L100.607 129.496C102.563 128.188 103.463 126.772 103.463 124.996V124.132H104.627V124.996C104.627 125.656 104.531 126.28 104.327 126.856L107.447 129.292L106.763 130.192ZM102.611 131.356H103.811V133.756H110.327V134.848H102.611V131.356Z" fill="black"/>
<path d="M82.3298 99.2689C82.6289 99.7874 82.4511 100.444 81.9336 100.743L77.7455 103.165C77.5757 103.263 77.3898 103.311 77.2119 103.311C76.84 103.311 76.4762 103.117 76.274 102.769C75.9749 102.25 76.1528 101.594 76.6702 101.294L80.8583 98.872C81.3757 98.5723 82.0306 98.7505 82.3298 99.2689ZM125.229 107.475C124.049 108.658 122.497 109.249 120.944 109.249C119.392 109.249 117.84 108.658 116.659 107.475L115.026 105.839L102.89 112.862C102.72 112.959 102.534 113.008 102.357 113.008C102.179 113.008 101.985 112.959 101.823 112.862L85.6043 103.481L69.3855 112.862C69.2157 112.959 69.0298 113.008 68.8519 113.008C68.674 113.008 68.48 112.959 68.3183 112.862L51.5336 103.165C51.2021 102.971 51 102.615 51 102.234V82.8484C51 82.4595 51.2021 82.1112 51.5336 81.9168L67.7523 72.5359V53.7742C67.7523 53.3854 67.9545 53.037 68.286 52.8426L85.0464 43.1458C85.3779 42.9514 85.7902 42.9514 86.1217 43.1458L102.874 52.8426C103.206 53.037 103.408 53.3935 103.408 53.7742V63.6168C111.339 65.4233 117.338 72.3901 117.678 80.7989L119.626 81.9249C119.958 82.1193 120.16 82.4758 120.16 82.8565V93.8251L125.213 98.8882C127.582 101.254 127.582 105.11 125.213 107.483L125.229 107.475ZM118.017 83.4722L117.629 83.2453C117.427 85.4731 116.821 87.5955 115.891 89.5235L118.026 91.6622V83.4722H118.017ZM99.3409 65.3018C90.3987 65.3018 83.1302 72.5845 83.1302 81.5441C83.1302 90.5038 90.3987 97.7865 99.3409 97.7865C108.283 97.7865 115.551 90.5038 115.551 81.5441C115.551 72.5845 108.283 65.3018 99.3409 65.3018ZM84.5047 92.3589C83.203 90.5767 82.2247 88.5595 81.6345 86.3723L69.9111 93.1528V110.043L84.5128 101.594V92.3508L84.5047 92.3589ZM69.903 55.6374V72.5278L81.1574 79.041C81.5779 75.9626 82.7583 73.1273 84.5047 70.7213V64.0786L78.3034 60.4899L78.3681 65.715C78.3681 66.3063 77.8991 66.8005 77.3008 66.8086H77.2847C76.6945 66.8086 76.2174 66.3306 76.2094 65.7393L76.1285 59.2342L69.8949 55.6293L69.903 55.6374ZM100.182 53.7661L93.9562 50.1612L79.3545 58.6105L85.58 62.2154L100.182 53.7661ZM68.8277 74.3991L54.226 82.8484L60.4515 86.4533L75.0532 78.004L68.8277 74.3991ZM62.6021 87.6927L68.8277 91.2976L81.1736 84.1526C81.0523 83.302 80.9877 82.4271 80.9877 81.5441C80.9877 81.5036 80.9877 81.4712 80.9877 81.4307L77.2038 79.2435L62.6021 87.6927ZM101.257 63.2442V55.6374L86.6553 64.0867V68.2668C89.954 65.0993 94.4251 63.1551 99.3409 63.1551C99.9877 63.1551 100.626 63.1875 101.257 63.2523V63.2442ZM70.9783 53.7742L77.2038 57.3791L91.8055 48.9299L85.58 45.325L70.9783 53.7742ZM53.1506 101.61L67.7523 110.059V93.169L61.5511 89.5803L61.6157 94.8053C61.6157 95.3967 61.1468 95.8909 60.5485 95.899H60.5323C59.9421 95.899 59.4651 95.421 59.457 94.8296L59.3762 88.3246L53.1426 84.7197V101.618L53.1506 101.61ZM86.6553 101.61L101.257 110.059V99.8441C100.626 99.9089 99.9877 99.9413 99.3409 99.9413C94.4251 99.9413 89.954 97.989 86.6553 94.8296V101.618V101.61ZM113.441 104.259L107.313 98.1186C106.084 98.71 104.782 99.1717 103.416 99.4796V110.059L113.441 104.259ZM123.701 100.411L114.783 91.4759C113.352 93.6955 111.469 95.583 109.253 97.0169L118.171 105.952C119.699 107.475 122.181 107.483 123.701 105.952C125.229 104.421 125.229 101.942 123.701 100.411ZM99.3409 67.4243C107.111 67.4243 113.433 73.7592 113.433 81.5441C113.433 89.3291 107.111 95.664 99.3409 95.664C91.5711 95.664 85.2485 89.3291 85.2485 81.5441C85.2485 73.7592 91.5711 67.4243 99.3409 67.4243ZM99.3409 69.5791C92.7596 69.5791 87.3992 74.9419 87.3992 81.5441C87.3992 88.1464 92.7515 93.5092 99.3409 93.5092C105.93 93.5092 111.283 88.1464 111.283 81.5441C111.283 74.9419 105.93 69.5791 99.3409 69.5791ZM94.7889 86.105C94.9991 86.3156 95.274 86.4209 95.5489 86.4209C95.8238 86.4209 96.0987 86.3156 96.3089 86.105L103.885 78.5144C104.305 78.0932 104.305 77.4127 103.885 76.9914C103.464 76.5702 102.785 76.5702 102.365 76.9914L94.7889 84.582C94.3685 85.0032 94.3685 85.6837 94.7889 86.105ZM95.7349 79.0977C96.0098 79.0977 96.2847 78.9924 96.4949 78.7817L96.5838 78.6926C97.0043 78.2714 97.0043 77.5909 96.5838 77.1697C96.1634 76.7484 95.4843 76.7484 95.0638 77.1697L94.9749 77.2588C94.5545 77.68 94.5545 78.3605 94.9749 78.7817C95.1851 78.9924 95.46 79.0977 95.743 79.0977H95.7349ZM102.179 84.3066L102.09 84.3957C101.669 84.8169 101.669 85.4974 102.09 85.9186C102.3 86.1293 102.575 86.2346 102.85 86.2346C103.125 86.2346 103.4 86.1293 103.618 85.9186L103.707 85.8295C104.127 85.4083 104.127 84.7278 103.707 84.3066C103.286 83.8853 102.607 83.8853 102.187 84.3066H102.179Z" fill="black"/>
<rect x="44.5" y="156.5" width="79" height="29" fill="white" stroke="#CCCCCC"/>
<rect x="91" y="170" width="20" height="2" fill="#CCCCCC"/>
<rect x="105.414" y="164" width="10" height="2" transform="rotate(45 105.414 164)" fill="#CCCCCC"/>
<rect x="112.485" y="171.071" width="10" height="2" transform="rotate(135 112.485 171.071)" fill="#CCCCCC"/>
<path d="M65.4005 166.84C67.0105 166.84 68.2305 167.66 68.2305 169.41C68.2305 171.18 67.0105 171.98 65.4005 171.98H63.5405V175.06H61.9705V166.84H65.4005ZM63.5405 170.6H65.3205C66.1905 170.6 66.6605 170.17 66.6605 169.41C66.6605 168.65 66.1905 168.22 65.3205 168.22H63.5405V170.6ZM70.7475 175.06H69.1775V166.84H70.7475V175.06ZM75.4663 175.21C73.5563 175.21 71.8963 173.92 71.8963 171.65V170.25C71.8963 167.99 73.5463 166.69 75.4663 166.69C77.2363 166.69 78.4963 167.72 78.8963 169.42L77.4063 169.85C77.1363 168.74 76.5463 168.15 75.4663 168.15C74.3863 168.15 73.4663 168.88 73.4663 170.31V171.59C73.4663 173.03 74.3863 173.75 75.4663 173.75C76.5463 173.75 77.1363 173.16 77.4063 172.05L78.8963 172.48C78.4963 174.18 77.2363 175.21 75.4663 175.21ZM86.6779 175.06H84.6979L82.1179 171.69L81.5679 172.32V175.06H79.9979V166.84H81.5679V170.03L84.3279 166.84H86.3779L83.1779 170.49L86.6779 175.06Z" fill="black"/>
</svg>
