<svg width="70" height="75" viewBox="0 0 70 75" fill="none" xmlns="http://www.w3.org/2000/svg">
<rect width="70" height="75" fill="white"/>
<path d="M69.4955 18.1692L43.3716 3.13404C43.0654 2.95532 42.6845 2.95532 42.3783 3.13404L16.2618 18.1692C15.9556 18.3479 15.7689 18.6755 15.7689 19.0255V37.2777H15.0221C13.4761 37.2777 12.214 38.5362 12.214 40.0777V41.5596C10.3917 42.1702 8.69644 43.1457 7.2476 44.4191L5.95559 43.6745C5.30585 43.3021 4.55156 43.2053 3.82713 43.3915C3.10271 43.5851 2.49778 44.0468 2.12437 44.6947L0.376799 47.7032C-0.3999 49.0362 0.0631317 50.7564 1.40742 51.5234L2.69196 52.2681C2.50525 53.2064 2.40817 54.167 2.40817 55.1277C2.40817 56.0883 2.50525 57.0489 2.69196 57.9872L1.40742 58.7319C0.75768 59.1043 0.294648 59.7074 0.100473 60.4372C-0.0937018 61.1596 0.00338558 61.9117 0.376799 62.5596L2.1169 65.5681C2.49032 66.216 3.09524 66.6777 3.81967 66.8713C4.55156 67.0649 5.29838 66.9681 5.94812 66.5957L7.24013 65.8511C8.68897 67.1245 10.3768 68.1074 12.2065 68.7106V70.1926C12.2065 71.734 13.4612 72.9926 15.0146 72.9926H18.5023C20.0482 72.9926 21.3103 71.7415 21.3103 70.1926V68.7106C23.1326 68.1 24.8279 67.1245 26.2767 65.8511L27.5687 66.5957C28.913 67.3702 30.6307 66.9085 31.3999 65.5681L33.1475 62.5596C33.6927 61.6138 33.6106 60.4745 33.043 59.6181L42.3932 65.0021C42.5501 65.0915 42.7218 65.1362 42.8861 65.1362C43.0504 65.1362 43.2297 65.0915 43.379 65.0021L69.503 49.967C69.8092 49.7883 69.9959 49.4606 69.9959 49.1106V19.033C70.0034 18.6755 69.8167 18.3553 69.5105 18.1766L69.4955 18.1692ZM42.8787 32.9213L35.0743 28.4234L59.2043 14.5277L67.0086 19.0255L42.8787 32.9213ZM57.2177 13.3883L33.0878 27.284L28.5471 24.6702L52.677 10.7745L57.2177 13.3883ZM42.8787 5.13723L50.683 9.63511L26.5531 23.5309L18.7487 19.033L42.8787 5.13723ZM17.748 20.7532L29.3163 27.4181L32.5799 29.2947L41.8779 34.6489V62.433L31.0639 56.2074C31.0938 55.8574 31.1087 55.5 31.1087 55.15C31.1087 54.1894 31.0116 53.2287 30.8249 52.2904L32.1094 51.5457C32.7592 51.1734 33.2222 50.5702 33.4164 49.8479C33.6106 49.1255 33.5135 48.3734 33.1326 47.7255L32.4604 46.5638C32.6173 46.5713 32.7816 46.5862 32.9384 46.5862C34.8876 46.5862 36.8294 45.8489 38.3156 44.367C40.1602 42.5277 40.922 39.9138 40.3619 37.3745C40.2797 37.017 40.0183 36.734 39.6673 36.6372C39.3163 36.533 38.9429 36.6372 38.6815 36.8904L35.1191 40.4426L32.6023 39.3404L31.5045 36.8309L35.0669 33.2787C35.3208 33.0255 35.4179 32.6457 35.3208 32.2957C35.2162 31.9457 34.9324 31.6851 34.5814 31.6032C32.0348 31.0447 29.4059 31.8043 27.5687 33.6436C26.1348 35.0734 25.3432 36.9798 25.3432 39.0053C25.3432 39.3628 25.3805 39.7202 25.4253 40.0702L23.0728 42.3043C22.4978 42.0213 21.9153 41.7681 21.3103 41.567V40.0851C21.3103 38.5436 20.0557 37.2851 18.5023 37.2851H17.7554V20.7457L17.748 20.7532ZM23.9168 55.1426C23.9168 59.0819 20.7054 62.284 16.7547 62.284C12.804 62.284 9.59263 59.0819 9.59263 55.1426C9.59263 51.2032 12.804 48.0011 16.7547 48.0011C16.8518 48.0011 16.9489 48.0011 17.046 48.016L13.2446 51.6202C12.3036 52.5138 11.7808 53.7351 11.7584 55.0532C11.7435 56.3936 12.2737 57.7117 13.2222 58.6574C14.1557 59.5883 15.4477 60.117 16.7846 60.117H16.8443C18.1662 60.1021 19.391 59.5734 20.2872 58.6351L23.9018 54.8447C23.9018 54.9415 23.9168 55.0383 23.9168 55.1351V55.1426ZM18.8533 57.2723C18.3305 57.816 17.6135 58.1287 16.8294 58.1362C16.0153 58.1362 15.2162 57.8234 14.6412 57.2574C14.0661 56.6915 13.745 55.8947 13.7599 55.0755C13.7674 54.2936 14.0811 53.5787 14.6262 53.0574L26.0601 42.2149C26.4336 43.0043 26.9339 43.734 27.5687 44.367C28.2035 45 28.9504 45.5064 29.7345 45.8713L18.8533 57.2798V57.2723ZM29.4134 37.0021L30.9444 40.4872C31.0415 40.7181 31.2282 40.8968 31.4597 41.0011L34.9548 42.5277C35.3283 42.6915 35.7689 42.6096 36.0601 42.3191L38.4948 39.8915C38.3081 41.0383 37.7704 42.1106 36.919 42.9596C34.7308 45.1415 31.1684 45.1415 28.9802 42.9596C26.792 40.7777 26.792 37.2255 28.9802 35.0436C29.8316 34.1947 30.9145 33.6585 32.0572 33.4723L29.6225 35.9C29.3312 36.1904 29.2491 36.6223 29.4134 37.0021ZM31.4149 61.5766L29.6673 64.5851C29.4433 64.9723 28.9429 65.1064 28.5471 64.883L26.6203 63.7734C26.2319 63.55 25.739 63.617 25.4253 63.9223C23.9242 65.3968 22.0572 66.4692 20.0407 67.0277C19.6076 67.1468 19.3088 67.534 19.3088 67.9883V70.2074C19.3088 70.6617 18.9429 71.0191 18.4948 71.0191H15.0071C14.559 71.0191 14.1931 70.6543 14.1931 70.2074V67.9883C14.1931 67.5415 13.8943 67.1543 13.4612 67.0277C11.4373 66.4766 9.57769 65.3968 8.07657 63.9223C7.75544 63.6096 7.27 63.5426 6.88165 63.766L4.95484 64.8755C4.76814 64.9798 4.55156 65.0096 4.33498 64.9574C4.1184 64.9053 3.94663 64.7638 3.84207 64.5777L2.10197 61.5692C1.99741 61.383 1.96754 61.1596 2.01982 60.9511C2.07209 60.7351 2.21399 60.5638 2.4007 60.4596L4.32004 59.35C4.70839 59.1266 4.8951 58.6723 4.78307 58.2404C4.52168 57.2351 4.38725 56.1926 4.38725 55.1351C4.38725 54.0777 4.52168 53.0426 4.78307 52.0298C4.8951 51.5979 4.70092 51.1436 4.32004 50.9202L2.4007 49.8106C2.01235 49.5872 1.87792 49.0883 2.10197 48.6936L3.84954 45.6851C3.95409 45.4989 4.13333 45.3649 4.34244 45.3053C4.55902 45.2532 4.7756 45.2755 4.96231 45.3872L6.88912 46.4968C7.27747 46.7202 7.77038 46.6532 8.08404 46.3479C9.58516 44.8734 11.4448 43.8011 13.4687 43.2426C13.9018 43.1234 14.2005 42.7362 14.2005 42.2819V40.0628C14.2005 39.616 14.5665 39.2511 15.0146 39.2511H18.5023C18.9504 39.2511 19.3163 39.616 19.3163 40.0628V42.2819C19.3163 42.7287 19.615 43.116 20.0482 43.2426C20.5486 43.3766 21.0489 43.5553 21.5269 43.7564L18.8906 46.2585C18.1961 46.0947 17.4791 46.0053 16.7547 46.0053C11.7061 46.0053 7.60607 50.1011 7.60607 55.1277C7.60607 60.1543 11.7136 64.25 16.7547 64.25C21.7958 64.25 25.9033 60.1543 25.9033 55.1277C25.9033 54.4053 25.8137 53.6979 25.6494 53.0053L30.7876 47.6213L31.4149 48.7011C31.5194 48.8872 31.5493 49.1032 31.497 49.3192C31.4448 49.5351 31.3029 49.7064 31.1162 49.8106L29.1893 50.9202C28.801 51.1436 28.6143 51.5979 28.7263 52.0298C28.9877 53.0351 29.1221 54.0777 29.1221 55.1351C29.1221 56.1926 28.9877 57.2277 28.7263 58.2404C28.6143 58.6723 28.8085 59.1266 29.1893 59.35L31.1087 60.4596C31.497 60.683 31.6315 61.1819 31.4074 61.5766H31.4149ZM43.8719 62.433V34.6489L68.0019 20.7532V48.5372L43.8719 62.433ZM63.3342 44.8585C63.6106 45.3351 63.4463 45.9383 62.9683 46.2138L56.4336 49.9745C56.2767 50.0638 56.105 50.1085 55.9407 50.1085C55.5971 50.1085 55.261 49.9298 55.0743 49.6096C54.798 49.133 54.9623 48.5298 55.4403 48.2543L61.975 44.4936C62.453 44.2181 63.0579 44.3819 63.3342 44.8585Z" fill="black"/>
</svg>
