<svg width="70" height="75" viewBox="0 0 70 75" fill="none" xmlns="http://www.w3.org/2000/svg">
<rect width="70" height="75" fill="white"/>
<path d="M40.1846 55.6319L46.7946 52.0053C47.2958 51.7298 47.9302 51.8936 48.22 52.3702C48.5097 52.8468 48.3374 53.45 47.8362 53.7255L41.2262 57.3521C41.0618 57.4415 40.8816 57.4862 40.7093 57.4862C40.3491 57.4862 39.9966 57.3074 39.8009 56.9872C39.5111 56.5106 39.6834 55.9074 40.1846 55.6319ZM69.9843 8.75425V45.1915C69.9843 46.7926 68.6138 48.1032 66.9221 48.1032H54.9631V56.4957C54.9631 56.8532 54.7673 57.1734 54.4384 57.3521L27.9984 71.866C27.834 71.9553 27.6538 72 27.4815 72C27.3092 72 27.1213 71.9553 26.9646 71.866L0.524726 57.3521C0.203625 57.1734 0 56.8457 0 56.4957V27.4681C0 27.1106 0.195793 26.7904 0.524726 26.6117L26.9646 12.0904C27.2857 11.9117 27.6852 11.9117 28.0063 12.0904L37.8664 17.5043V8.75425C37.8664 7.15319 39.237 5.84255 40.9286 5.84255H46.45C46.9356 3.64574 48.9796 2 51.431 2H56.4354C58.8789 2 60.9309 3.65319 61.4164 5.84255H66.9378C68.6216 5.84255 70 7.14574 70 8.75425H69.9843ZM48.6272 5.84255H59.2314C58.8085 4.75532 57.712 3.98085 56.4276 3.98085H51.4231C50.1387 3.98085 49.0423 4.75532 48.6194 5.84255H48.6272ZM37.8664 26.5372L19.6576 36.5383L27.4894 40.8351L37.8664 35.1383V26.5447V26.5372ZM16.5406 37.1117L12.0295 34.6394L12.1392 42.9947L16.6503 45.467L16.5406 37.1117ZM37.4043 19.5298L13.0477 32.8968L17.5744 35.384L37.8664 24.2436V19.7904L37.4043 19.5372V19.5298ZM3.13269 27.4606L10.9644 31.7574L35.3211 18.3904L27.4894 14.0936L3.13269 27.4606ZM2.09107 55.9149L26.4478 69.2819V42.5404L18.6395 38.2585L18.757 47.1798C18.757 47.5372 18.5612 47.8723 18.2401 48.0511C18.0756 48.1404 17.8955 48.1851 17.7154 48.1851C17.5352 48.1851 17.3551 48.1404 17.1985 48.0511L10.5885 44.417C10.2674 44.2457 10.0716 43.9181 10.0716 43.5681L9.93846 33.4702L2.0989 29.166V55.9074L2.09107 55.9149ZM52.8877 48.0957H40.9286C39.2448 48.0957 37.8664 46.7926 37.8664 45.184V37.417L28.531 42.5404V69.2819L52.8877 55.9149V48.0957ZM67.9011 8.74681C67.9011 8.24043 67.4704 7.8234 66.93 7.8234H40.9286C40.3961 7.8234 39.9575 8.24043 39.9575 8.74681V45.184C39.9575 45.6904 40.3882 46.1074 40.9286 46.1074H66.93C67.4625 46.1074 67.9011 45.6979 67.9011 45.184V8.74681ZM66.1625 11.9713V41.9745C66.1625 42.5181 65.6926 42.9649 65.1208 42.9649H42.7456C42.1739 42.9649 41.704 42.5181 41.704 41.9745V11.9713C41.704 11.4277 42.166 10.9809 42.7456 10.9809H65.1208C65.6926 10.9809 66.1625 11.4277 66.1625 11.9713ZM64.0714 12.9617H43.7794V40.984H64.0714V12.9617ZM53.9293 18.8149H61.8315C62.4032 18.8149 62.8731 18.3681 62.8731 17.8245C62.8731 17.2809 62.4032 16.834 61.8315 16.834H53.9293C53.3576 16.834 52.8877 17.2809 52.8877 17.8245C52.8877 18.3681 53.3576 18.8149 53.9293 18.8149ZM46.2464 19.2394C46.3873 19.4628 46.6145 19.634 46.8807 19.7011C46.9669 19.7234 47.0609 19.7383 47.147 19.7383C47.3271 19.7383 47.5073 19.6936 47.6639 19.6043L50.8828 17.8394C51.384 17.5638 51.5563 16.9606 51.2665 16.484C50.9767 16.0074 50.3424 15.8436 49.8411 16.1191L47.5308 17.3851L46.9277 16.3947C46.6379 15.9181 46.0036 15.7543 45.5024 16.0298C45.0011 16.3053 44.8288 16.9085 45.1186 17.3851L46.2385 19.2319L46.2464 19.2394ZM53.9293 24.9138H61.8315C62.4032 24.9138 62.8731 24.467 62.8731 23.9234C62.8731 23.3798 62.4032 22.933 61.8315 22.933H53.9293C53.3576 22.933 52.8877 23.3798 52.8877 23.9234C52.8877 24.467 53.3576 24.9138 53.9293 24.9138ZM46.2464 25.3383C46.3873 25.5617 46.6145 25.733 46.8807 25.8C46.9669 25.8223 47.0609 25.8372 47.147 25.8372C47.3271 25.8372 47.5073 25.7926 47.6639 25.7032L50.8828 23.9383C51.384 23.6628 51.5563 23.0596 51.2665 22.583C50.9767 22.1064 50.3424 21.9426 49.8411 22.2181L47.5308 23.484L46.9277 22.4936C46.6379 22.017 46.0036 21.8532 45.5024 22.1287C45.0011 22.4043 44.8288 23.0074 45.1186 23.484L46.2385 25.3309L46.2464 25.3383ZM53.9293 31.0128H61.8315C62.4032 31.0128 62.8731 30.566 62.8731 30.0223C62.8731 29.4787 62.4032 29.0319 61.8315 29.0319H53.9293C53.3576 29.0319 52.8877 29.4787 52.8877 30.0223C52.8877 30.566 53.3576 31.0128 53.9293 31.0128ZM46.2464 31.4372C46.3873 31.6606 46.6145 31.8319 46.8807 31.8989C46.9669 31.9213 47.0609 31.9362 47.147 31.9362C47.3271 31.9362 47.5073 31.8915 47.6639 31.8021L50.8828 30.0372C51.384 29.7617 51.5563 29.1585 51.2665 28.6819C50.9767 28.2053 50.3424 28.0415 49.8411 28.317L47.5308 29.583L46.9277 28.5926C46.6379 28.116 46.0036 27.9521 45.5024 28.2277C45.0011 28.5032 44.8288 29.1064 45.1186 29.583L46.2385 31.4298L46.2464 31.4372ZM53.9293 37.1043H61.8315C62.4032 37.1043 62.8731 36.6574 62.8731 36.1138C62.8731 35.5702 62.4032 35.1234 61.8315 35.1234H53.9293C53.3576 35.1234 52.8877 35.5702 52.8877 36.1138C52.8877 36.6574 53.3576 37.1043 53.9293 37.1043ZM46.2464 37.5362C46.3873 37.7596 46.6145 37.9309 46.8807 37.9979C46.9669 38.0202 47.0609 38.0351 47.147 38.0351C47.3271 38.0351 47.5073 37.9904 47.6639 37.9011L50.8828 36.1362C51.384 35.8606 51.5563 35.2574 51.2665 34.7808C50.9767 34.3043 50.3424 34.1404 49.8411 34.416L47.5308 35.6819L46.9277 34.6915C46.6379 34.2149 46.0036 34.0511 45.5024 34.3266C45.0011 34.6021 44.8288 35.2053 45.1186 35.6819L46.2385 37.5287L46.2464 37.5362Z" fill="black"/>
</svg>
