<svg width="178" height="230" viewBox="0 0 178 230" fill="none" xmlns="http://www.w3.org/2000/svg">
<rect x="0.5" y="0.5" width="177" height="229" fill="white" stroke="#CCCCCC"/>
<path d="M68.454 123.712V126.508H70.182V127.588H68.454V132.052H67.254V123.712H68.454ZM66.342 128.836L66.474 129.868C64.794 130.144 62.778 130.276 61.146 130.276H59.466L59.406 129.22H60.702V125.356H59.55V124.3H65.982V125.356H64.842V129.016C65.346 128.968 65.862 128.908 66.342 128.836ZM63.69 129.124V125.356H61.866V129.208C62.418 129.196 63.042 129.172 63.69 129.124ZM61.314 131.476H62.514V133.756H69.03V134.848H61.314V131.476ZM79.4609 127.9V123.712H80.6369V134.848H79.4609V128.992H78.0449V134.62H76.9049V123.88H78.0449V127.9H79.4609ZM75.6809 133.048H71.2289V124.528H75.6809V133.048ZM74.5649 125.632H72.3329V131.944H74.5649V125.632ZM94.5133 130.66L90.2533 127.78C89.4973 128.812 88.2253 129.784 86.3293 130.66L85.7773 129.628C88.7173 128.224 89.9293 126.784 89.9293 125.14V124.288H91.1293V125.14C91.1293 125.692 91.0333 126.232 90.8173 126.76L95.1613 129.664L94.5133 130.66ZM85.2373 134.008V132.916H95.7013V134.008H85.2373ZM105.16 134.848V123.712H106.324V134.848H105.16ZM101.104 128.128H102.748V123.88H103.888V134.62H102.748V129.22H100.756C100.12 130.84 99.0402 132.28 97.6242 133.54L96.7722 132.664C98.0562 131.572 98.9922 130.312 99.5682 128.992C98.7522 129.076 97.7802 129.124 97.0362 129.136H96.8682L96.8082 128.044H96.9762C97.7682 128.032 99.0522 127.984 99.9642 127.9C100.156 127.204 100.252 126.508 100.252 125.812V125.68H97.0362V124.588H101.428V125.572C101.428 126.472 101.32 127.324 101.104 128.128ZM109.159 127.756L108.883 126.772C111.295 126.328 112.531 125.644 112.711 124.876H109.447V123.892H117.007V124.876H113.887C113.863 125.14 113.791 125.392 113.659 125.632L117.571 126.76L117.211 127.756L112.879 126.484C112.123 127.036 110.899 127.444 109.159 127.756ZM118.459 128.152V129.136H113.827V130.108H117.187V132.952H110.479V133.936H117.475V134.908H109.279V132.004H115.987V131.068H109.219V130.108H112.639V129.136H107.995V128.152H118.459Z" fill="black"/>
<path d="M94.1891 96.6319L100.8 93.0053C101.301 92.7298 101.936 92.8936 102.225 93.3702C102.515 93.8468 102.343 94.45 101.842 94.7255L95.2308 98.3521C95.0664 98.4415 94.8862 98.4862 94.7139 98.4862C94.3536 98.4862 94.0011 98.3074 93.8053 97.9872C93.5155 97.5106 93.6878 96.9074 94.1891 96.6319ZM123.992 49.7543V86.1915C123.992 87.7926 122.621 89.1032 120.93 89.1032H108.969V97.4957C108.969 97.8532 108.773 98.1734 108.444 98.3521L82.0016 112.866C81.8371 112.955 81.6569 113 81.4846 113C81.3123 113 81.1243 112.955 80.9677 112.866L54.5248 98.3521C54.2036 98.1734 54 97.8457 54 97.4957V68.4681C54 68.1106 54.1958 67.7904 54.5248 67.6117L80.9677 53.0904C81.2888 52.9117 81.6883 52.9117 82.0094 53.0904L91.8706 58.5043V49.7543C91.8706 48.1532 93.2414 46.8426 94.9332 46.8426H100.455C100.941 44.6457 102.985 43 105.437 43H110.442C112.886 43 114.938 44.6532 115.423 46.8426H120.945C122.629 46.8426 124.008 48.1457 124.008 49.7543H123.992ZM102.633 46.8426H113.238C112.815 45.7553 111.718 44.9809 110.434 44.9809H105.429C104.144 44.9809 103.048 45.7553 102.625 46.8426H102.633ZM91.8706 67.5372L73.6598 77.5383L81.4924 81.8351L91.8706 76.1383V67.5447V67.5372ZM70.5425 78.1117L66.0309 75.6394L66.1405 83.9947L70.6521 86.467L70.5425 78.1117ZM91.4085 60.5298L67.0491 73.8968L71.5764 76.384L91.8706 65.2436V60.7904L91.4085 60.5372V60.5298ZM57.133 68.4606L64.9656 72.7574L89.3251 59.3904L81.4924 55.0936L57.133 68.4606ZM56.0913 96.9149L80.4507 110.282V83.5404L72.6416 79.2585L72.7591 88.1798C72.7591 88.5372 72.5633 88.8723 72.2421 89.0511C72.0777 89.1404 71.8975 89.1851 71.7174 89.1851C71.5372 89.1851 71.3571 89.1404 71.2004 89.0511L64.5897 85.417C64.2685 85.2457 64.0727 84.9181 64.0727 84.5681L63.9396 74.4702L56.0991 70.166V96.9074L56.0913 96.9149ZM106.894 89.0957H94.9332C93.2492 89.0957 91.8706 87.7926 91.8706 86.184V78.417L82.5342 83.5404V110.282L106.894 96.9149V89.0957ZM121.909 49.7468C121.909 49.2404 121.478 48.8234 120.937 48.8234H94.9332C94.4006 48.8234 93.962 49.2404 93.962 49.7468V86.184C93.962 86.6904 94.3927 87.1074 94.9332 87.1074H120.937C121.47 87.1074 121.909 86.6979 121.909 86.184V49.7468ZM120.17 52.9713V82.9745C120.17 83.5181 119.7 83.9649 119.128 83.9649H96.7504C96.1786 83.9649 95.7086 83.5181 95.7086 82.9745V52.9713C95.7086 52.4277 96.1707 51.9809 96.7504 51.9809H119.128C119.7 51.9809 120.17 52.4277 120.17 52.9713ZM118.079 53.9617H97.7843V81.984H118.079V53.9617ZM107.935 59.8149H115.838C116.41 59.8149 116.88 59.3681 116.88 58.8245C116.88 58.2809 116.41 57.834 115.838 57.834H107.935C107.364 57.834 106.894 58.2809 106.894 58.8245C106.894 59.3681 107.364 59.8149 107.935 59.8149ZM100.252 60.2394C100.393 60.4628 100.62 60.634 100.886 60.7011C100.972 60.7234 101.066 60.7383 101.152 60.7383C101.332 60.7383 101.513 60.6936 101.669 60.6043L104.888 58.8394C105.39 58.5638 105.562 57.9606 105.272 57.484C104.982 57.0074 104.348 56.8436 103.847 57.1191L101.536 58.3851L100.933 57.3947C100.643 56.9181 100.009 56.7543 99.5074 57.0298C99.0062 57.3053 98.8338 57.9085 99.1236 58.3851L100.244 60.2319L100.252 60.2394ZM107.935 65.9138H115.838C116.41 65.9138 116.88 65.467 116.88 64.9234C116.88 64.3798 116.41 63.933 115.838 63.933H107.935C107.364 63.933 106.894 64.3798 106.894 64.9234C106.894 65.467 107.364 65.9138 107.935 65.9138ZM100.252 66.3383C100.393 66.5617 100.62 66.733 100.886 66.8C100.972 66.8223 101.066 66.8372 101.152 66.8372C101.332 66.8372 101.513 66.7926 101.669 66.7032L104.888 64.9383C105.39 64.6628 105.562 64.0596 105.272 63.583C104.982 63.1064 104.348 62.9426 103.847 63.2181L101.536 64.484L100.933 63.4936C100.643 63.017 100.009 62.8532 99.5074 63.1287C99.0062 63.4043 98.8338 64.0074 99.1236 64.484L100.244 66.3309L100.252 66.3383ZM107.935 72.0128H115.838C116.41 72.0128 116.88 71.566 116.88 71.0223C116.88 70.4787 116.41 70.0319 115.838 70.0319H107.935C107.364 70.0319 106.894 70.4787 106.894 71.0223C106.894 71.566 107.364 72.0128 107.935 72.0128ZM100.252 72.4372C100.393 72.6606 100.62 72.8319 100.886 72.8989C100.972 72.9213 101.066 72.9362 101.152 72.9362C101.332 72.9362 101.513 72.8915 101.669 72.8021L104.888 71.0372C105.39 70.7617 105.562 70.1585 105.272 69.6819C104.982 69.2053 104.348 69.0415 103.847 69.317L101.536 70.583L100.933 69.5926C100.643 69.116 100.009 68.9521 99.5074 69.2277C99.0062 69.5032 98.8338 70.1064 99.1236 70.583L100.244 72.4298L100.252 72.4372ZM107.935 78.1043H115.838C116.41 78.1043 116.88 77.6574 116.88 77.1138C116.88 76.5702 116.41 76.1234 115.838 76.1234H107.935C107.364 76.1234 106.894 76.5702 106.894 77.1138C106.894 77.6574 107.364 78.1043 107.935 78.1043ZM100.252 78.5362C100.393 78.7596 100.62 78.9309 100.886 78.9979C100.972 79.0202 101.066 79.0351 101.152 79.0351C101.332 79.0351 101.513 78.9904 101.669 78.9011L104.888 77.1362C105.39 76.8606 105.562 76.2574 105.272 75.7808C104.982 75.3043 104.348 75.1404 103.847 75.416L101.536 76.6819L100.933 75.6915C100.643 75.2149 100.009 75.0511 99.5074 75.3266C99.0062 75.6021 98.8338 76.2053 99.1236 76.6819L100.244 78.5287L100.252 78.5362Z" fill="black"/>
<rect x="49.5" y="156.5" width="79" height="29" fill="white" stroke="#CCCCCC"/>
<rect x="96" y="170" width="20" height="2" fill="#CCCCCC"/>
<rect x="110.414" y="164" width="10" height="2" transform="rotate(45 110.414 164)" fill="#CCCCCC"/>
<rect x="117.485" y="171.071" width="10" height="2" transform="rotate(135 117.485 171.071)" fill="#CCCCCC"/>
<path d="M70.4005 166.84C72.0105 166.84 73.2305 167.66 73.2305 169.41C73.2305 171.18 72.0105 171.98 70.4005 171.98H68.5405V175.06H66.9705V166.84H70.4005ZM68.5405 170.6H70.3205C71.1905 170.6 71.6605 170.17 71.6605 169.41C71.6605 168.65 71.1905 168.22 70.3205 168.22H68.5405V170.6ZM75.7475 175.06H74.1775V166.84H75.7475V175.06ZM80.4663 175.21C78.5563 175.21 76.8963 173.92 76.8963 171.65V170.25C76.8963 167.99 78.5463 166.69 80.4663 166.69C82.2363 166.69 83.4963 167.72 83.8963 169.42L82.4063 169.85C82.1363 168.74 81.5463 168.15 80.4663 168.15C79.3863 168.15 78.4663 168.88 78.4663 170.31V171.59C78.4663 173.03 79.3863 173.75 80.4663 173.75C81.5463 173.75 82.1363 173.16 82.4063 172.05L83.8963 172.48C83.4963 174.18 82.2363 175.21 80.4663 175.21ZM91.6779 175.06H89.6979L87.1179 171.69L86.5679 172.32V175.06H84.9979V166.84H86.5679V170.03L89.3279 166.84H91.3779L88.1779 170.49L91.6779 175.06Z" fill="black"/>
</svg>
