<svg width="70" height="75" viewBox="0 0 70 75" fill="none" xmlns="http://www.w3.org/2000/svg">
<g clip-path="url(#clip0_906_9322)">
<rect width="70" height="75" fill="white"/>
<path d="M29.8602 57.0474C30.1358 57.5362 29.9719 58.1548 29.4953 58.4374L25.6373 60.7209C25.4809 60.8125 25.3096 60.8584 25.1458 60.8584C24.8032 60.8584 24.468 60.6751 24.2818 60.3467C24.0063 59.8579 24.1701 59.2393 24.6468 58.9567L28.5047 56.6732C28.9814 56.3907 29.5847 56.5587 29.8602 57.0474ZM69.3782 64.7838C68.2909 65.8989 66.8609 66.4564 65.4309 66.4564C64.0009 66.4564 62.571 65.8989 61.4836 64.7838L59.9791 63.2411L48.8 69.8625C48.6436 69.9542 48.4723 70 48.3084 70C48.1446 70 47.9658 69.9542 47.8169 69.8625L32.8766 61.0187L17.9363 69.8625C17.7799 69.9542 17.6086 70 17.4447 70C17.2809 70 17.1021 69.9542 16.9532 69.8625L1.49155 60.7209C1.18619 60.5376 1 60.2016 1 59.8426V41.567C1 41.2004 1.18619 40.872 1.49155 40.6887L16.4318 31.8449V14.1574C16.4318 13.7908 16.618 13.4624 16.9234 13.2791L32.3627 4.13747C32.668 3.95418 33.0479 3.95418 33.3532 4.13747L48.7851 13.2791C49.0904 13.4624 49.2766 13.7984 49.2766 14.1574V23.4365C56.5829 25.1396 62.1092 31.7075 62.422 39.6348L64.2169 40.6964C64.5223 40.8797 64.7085 41.2157 64.7085 41.5746V51.9153L69.3633 56.6885C71.5456 58.9185 71.5456 62.5538 69.3633 64.7915L69.3782 64.7838ZM62.7348 42.1551L62.3773 41.9412C62.1911 44.0414 61.6325 46.0424 60.776 47.86L62.7423 49.8762V42.1551H62.7348ZM45.5304 25.025C37.2931 25.025 30.5976 31.8908 30.5976 40.3374C30.5976 48.7841 37.2931 55.6498 45.5304 55.6498C53.7677 55.6498 60.4632 48.7841 60.4632 40.3374C60.4632 31.8908 53.7677 25.025 45.5304 25.025ZM31.8637 50.533C30.6646 48.8528 29.7634 46.9512 29.2197 44.8891L18.4204 51.2814V67.2048L31.8711 59.2393V50.5253L31.8637 50.533ZM18.413 15.9139V31.8373L28.7803 37.9776C29.1676 35.0754 30.255 32.4025 31.8637 30.1342V23.8718L26.1512 20.4885L26.2108 25.4145C26.2108 25.972 25.7788 26.4379 25.2277 26.4455H25.2128C24.6691 26.4455 24.2297 25.9949 24.2222 25.4374L24.1478 19.3048L18.4055 15.9063L18.413 15.9139ZM46.305 14.1497L40.5702 10.7512L27.1194 18.7167L32.8542 22.1153L46.305 14.1497ZM17.4224 33.6015L3.97167 41.567L9.70648 44.9655L23.1572 37L17.4224 33.6015ZM11.6876 46.134L17.4224 49.5325L28.7952 42.7966C28.6835 41.9947 28.6239 41.1699 28.6239 40.3374C28.6239 40.2992 28.6239 40.2687 28.6239 40.2305L25.1383 38.1685L11.6876 46.134ZM47.2955 23.0852V15.9139L33.8448 23.8794V27.8202C36.8835 24.8341 41.0021 23.0012 45.5304 23.0012C46.1262 23.0012 46.7146 23.0317 47.2955 23.0928V23.0852ZM19.4035 14.1574L25.1383 17.5559L38.589 9.59037L32.8542 6.19185L19.4035 14.1574ZM2.98111 59.2546L16.4318 67.2201V51.2967L10.7194 47.9134L10.779 52.8394C10.779 53.3969 10.347 53.8628 9.79585 53.8704H9.78095C9.23727 53.8704 8.79785 53.4198 8.7904 52.8623L8.71592 46.7297L2.97367 43.3312V59.2622L2.98111 59.2546ZM33.8448 59.2546L47.2955 67.2201V57.5897C46.7146 57.6508 46.1262 57.6813 45.5304 57.6813C41.0021 57.6813 36.8835 55.8408 33.8448 52.8623V59.2622V59.2546ZM58.5194 61.7519L52.8739 55.963C51.7419 56.5205 50.5428 56.9558 49.2841 57.246V67.2201L58.5194 61.7519ZM67.9706 58.1243L59.7557 49.7005C58.4374 51.7931 56.7021 53.5726 54.6614 54.9243L62.8763 63.3481C64.2839 64.7838 66.5704 64.7915 67.9706 63.3481C69.3782 61.9047 69.3782 59.5677 67.9706 58.1243ZM45.5304 27.0259C52.6877 27.0259 58.5119 32.9982 58.5119 40.3374C58.5119 47.6767 52.6877 53.6489 45.5304 53.6489C38.3731 53.6489 32.5489 47.6767 32.5489 40.3374C32.5489 32.9982 38.3731 27.0259 45.5304 27.0259ZM45.5304 29.0574C39.4679 29.0574 34.53 34.1132 34.53 40.3374C34.53 46.5617 39.4604 51.6174 45.5304 51.6174C51.6003 51.6174 56.5308 46.5617 56.5308 40.3374C56.5308 34.1132 51.6003 29.0574 45.5304 29.0574ZM41.3373 44.6371C41.5309 44.8357 41.7841 44.935 42.0374 44.935C42.2906 44.935 42.5438 44.8357 42.7375 44.6371L49.7161 37.4811C50.1033 37.084 50.1033 36.4425 49.7161 36.0454C49.3288 35.6482 48.7032 35.6482 48.3159 36.0454L41.3373 43.2013C40.95 43.5985 40.95 44.24 41.3373 44.6371ZM42.2087 38.031C42.4619 38.031 42.7151 37.9317 42.9088 37.7332L42.9907 37.6492C43.378 37.252 43.378 36.6105 42.9907 36.2134C42.6034 35.8162 41.9778 35.8162 41.5905 36.2134L41.5086 36.2974C41.1213 36.6945 41.1213 37.336 41.5086 37.7332C41.7022 37.9317 41.9554 38.031 42.2161 38.031H42.2087ZM48.1446 42.9417L48.0626 43.0257C47.6754 43.4228 47.6754 44.0643 48.0626 44.4615C48.2563 44.66 48.5095 44.7593 48.7627 44.7593C49.016 44.7593 49.2692 44.66 49.4703 44.4615L49.5522 44.3775C49.9395 43.9803 49.9395 43.3388 49.5522 42.9417C49.1649 42.5446 48.5393 42.5446 48.152 42.9417H48.1446Z" fill="black"/>
</g>
<defs>
<clipPath id="clip0_906_9322">
<rect width="70" height="75" fill="white"/>
</clipPath>
</defs>
</svg>
