<svg width="178" height="230" viewBox="0 0 178 230" fill="none" xmlns="http://www.w3.org/2000/svg">
<rect x="0.5" y="0.5" width="177" height="229" fill="white" stroke="#CCCCCC"/>
<path d="M70.2902 123.712H71.4182V129.148H70.2902V123.712ZM67.9262 127.048H66.5582V128.716H62.0222V124.18H66.5582V125.992H67.9262V123.832H69.0422V129.148H67.9262V127.048ZM63.0902 127.684H65.4662V125.224H63.0902V127.684ZM65.1902 132.832V133.888H71.8262V134.908H64.0022V131.848H70.2302V130.84H63.9422V129.844H71.4182V132.832H65.1902ZM81.4171 130.072V123.712H82.6171V130.072H81.4171ZM80.4451 128.236L80.5771 129.28C78.8251 129.556 76.7491 129.7 75.0691 129.7H73.3411L73.2811 128.632H74.6371V125.308H73.4371V124.24H80.0731V125.308H78.8731V128.428C79.4011 128.38 79.9411 128.308 80.4451 128.236ZM77.6971 128.536V125.308H75.8131V128.62C76.3891 128.608 77.0251 128.584 77.6971 128.536ZM81.4171 131.872H75.1291V130.78H82.6171V134.968H81.4171V131.872ZM93.024 127.108H91.644V129.676H90.528V123.832H91.644V126.052H93.024V123.712H94.164V129.784H93.024V127.108ZM90.036 128.656L89.34 129.52L87.108 127.576C86.64 128.392 85.956 129.1 85.044 129.76L84.36 128.86C85.932 127.708 86.652 126.352 86.652 124.828V124.072H87.804V124.828C87.804 125.428 87.72 125.992 87.564 126.52L90.036 128.656ZM89.124 130.372H91.644C93.276 130.372 94.308 131.332 94.308 132.664C94.308 134.008 93.276 134.968 91.644 134.968H89.124C87.492 134.968 86.46 134.008 86.46 132.664C86.46 131.332 87.492 130.372 89.124 130.372ZM89.316 133.888H91.452C92.568 133.888 93.12 133.372 93.12 132.664C93.12 131.956 92.568 131.44 91.452 131.44H89.316C88.2 131.44 87.648 131.956 87.648 132.664C87.648 133.372 88.2 133.888 89.316 133.888ZM105.375 129.784H104.175V126.82H101.763V125.764H104.175V123.712H105.375V129.784ZM102.135 129.58L99.1709 127.492C98.6069 128.332 97.7549 129.076 96.5789 129.76L95.9429 128.8C97.9109 127.648 98.7989 126.376 98.7989 124.792V124.072H99.9629V124.792C99.9629 125.392 99.8669 125.956 99.6869 126.484L102.783 128.644L102.135 129.58ZM100.431 130.372H102.855C104.487 130.372 105.519 131.332 105.519 132.664C105.519 134.008 104.487 134.968 102.855 134.968H100.431C98.8109 134.968 97.7789 134.008 97.7789 132.664C97.7789 131.332 98.8109 130.372 100.431 130.372ZM100.623 133.888H102.675C103.779 133.888 104.319 133.372 104.319 132.664C104.319 131.956 103.779 131.44 102.675 131.44H100.623C99.5189 131.44 98.9669 131.956 98.9669 132.664C98.9669 133.372 99.5189 133.888 100.623 133.888Z" fill="black"/>
<path d="M77.3225 71.0074L83.531 74.5894C83.6875 74.6787 83.8589 74.7234 84.0229 74.7234C84.1869 74.7234 84.3657 74.6787 84.5148 74.5894L90.7233 71.0074C91.0289 70.8287 91.2152 70.5011 91.2152 70.1511V62.9947C91.2152 62.6372 91.0289 62.317 90.7233 62.1383L84.5148 58.5564C84.2092 58.3777 83.8291 58.3777 83.5235 58.5564L77.315 62.1383C77.0094 62.317 76.8231 62.6447 76.8231 62.9947V70.1511C76.8231 70.5085 77.0094 70.8287 77.315 71.0074H77.3225ZM78.8131 64.7074L83.0316 67.1426V72.0128L78.8131 69.5777V64.7074ZM85.0216 72.0128V67.1426L89.2401 64.7074V69.5777L85.0216 72.0128ZM84.0229 60.5521L88.2414 62.9872L84.0229 65.4223L79.8044 62.9872L84.0229 60.5521ZM70.2867 79.9436C70.2867 79.4 70.7339 78.9532 71.2779 78.9532H85.9756C86.5197 78.9532 86.9669 79.4 86.9669 79.9436C86.9669 80.4872 86.5197 80.934 85.9756 80.934H71.2854C70.7413 80.934 70.2941 80.4872 70.2941 79.9436H70.2867ZM90.5444 76.6372L92.4524 78.5436L96.0672 74.9319C96.4548 74.5447 97.0809 74.5447 97.4684 74.9319C97.856 75.3191 97.856 75.9447 97.4684 76.3319L93.153 80.6436C92.9593 80.8372 92.7058 80.934 92.4524 80.934C92.199 80.934 91.9456 80.8372 91.7518 80.6436L89.1432 78.0372C88.7557 77.65 88.7557 77.0245 89.1432 76.6372C89.5308 76.25 90.1569 76.25 90.5444 76.6372ZM70.2867 89.1702C70.2867 88.6266 70.7339 88.1798 71.2779 88.1798H85.9756C86.5197 88.1798 86.9669 88.6266 86.9669 89.1702C86.9669 89.7138 86.5197 90.1606 85.9756 90.1606H71.2854C70.7413 90.1606 70.2941 89.7138 70.2941 89.1702H70.2867ZM114.73 61.2521C112.569 60.0085 109.796 60.7457 108.544 62.9053L107.046 65.4968V52.8745C107.046 50.7 105.272 48.9277 103.096 48.9277H94.5393C94.0549 45.584 91.1705 43 87.6899 43H80.3559C76.8753 43 73.9909 45.584 73.5064 48.9277H64.9502C62.7739 48.9277 61 50.7 61 52.8745V109.053C61 111.228 62.7739 113 64.9502 113H103.103C105.279 113 107.053 111.228 107.053 109.053V83.6L116.392 67.433C117.644 65.2734 116.899 62.5032 114.737 61.2521H114.73ZM100.554 76.7415L92.1618 91.2628C92.0872 91.3968 92.0425 91.5383 92.0276 91.6872L91.5208 98.8138H71.2854C70.7413 98.8138 70.2941 99.2606 70.2941 99.8043C70.2941 100.348 70.7413 100.795 71.2854 100.795H92.4524C92.5419 100.795 92.6239 100.78 92.7133 100.757C92.7357 100.757 92.7506 100.743 92.7729 100.743C92.8549 100.713 92.9369 100.676 93.0114 100.631L99.7044 96.1106C99.8311 96.0287 99.928 95.917 100.01 95.783L100.554 94.8372V104.652H67.4992V57.2681H100.554V76.7415ZM98.4001 94.5989L93.5853 97.8457L93.9952 92.0596L106.45 70.5085L110.854 73.0479L98.4001 94.5989ZM107.433 68.7883L108.32 67.2543L112.725 69.7936L111.838 71.3277L107.433 68.7883ZM80.3634 44.9809H87.6973C90.0823 44.9809 92.0798 46.6787 92.5419 48.9277H75.5263C75.9884 46.6787 77.9858 44.9809 80.3708 44.9809H80.3634ZM105.063 109.053C105.063 110.133 104.184 111.019 103.096 111.019H64.9502C63.8695 111.019 62.99 110.14 62.99 109.053V52.8745C62.99 51.7947 63.8695 50.916 64.9502 50.916H103.103C104.184 50.916 105.071 51.7947 105.071 52.8745V68.9372L102.544 73.3085V56.2777C102.544 55.734 102.097 55.2872 101.553 55.2872H66.5079C65.9638 55.2872 65.5166 55.734 65.5166 56.2851V105.657C65.5166 106.201 65.9638 106.648 66.5079 106.648H101.545C102.089 106.648 102.537 106.201 102.537 105.657V91.4191L105.063 87.0479V109.068V109.053ZM114.678 66.4426L113.731 68.0809L109.326 65.5415L110.273 63.9032C110.974 62.6894 112.531 62.2723 113.746 62.9723C114.961 63.6723 115.378 65.2287 114.678 66.4426Z" fill="black"/>
<rect x="44.5" y="156.5" width="79" height="29" fill="white" stroke="#CCCCCC"/>
<rect x="91" y="170" width="20" height="2" fill="#CCCCCC"/>
<rect x="105.414" y="164" width="10" height="2" transform="rotate(45 105.414 164)" fill="#CCCCCC"/>
<rect x="112.485" y="171.071" width="10" height="2" transform="rotate(135 112.485 171.071)" fill="#CCCCCC"/>
<path d="M65.4005 166.84C67.0105 166.84 68.2305 167.66 68.2305 169.41C68.2305 171.18 67.0105 171.98 65.4005 171.98H63.5405V175.06H61.9705V166.84H65.4005ZM63.5405 170.6H65.3205C66.1905 170.6 66.6605 170.17 66.6605 169.41C66.6605 168.65 66.1905 168.22 65.3205 168.22H63.5405V170.6ZM70.7475 175.06H69.1775V166.84H70.7475V175.06ZM75.4663 175.21C73.5563 175.21 71.8963 173.92 71.8963 171.65V170.25C71.8963 167.99 73.5463 166.69 75.4663 166.69C77.2363 166.69 78.4963 167.72 78.8963 169.42L77.4063 169.85C77.1363 168.74 76.5463 168.15 75.4663 168.15C74.3863 168.15 73.4663 168.88 73.4663 170.31V171.59C73.4663 173.03 74.3863 173.75 75.4663 173.75C76.5463 173.75 77.1363 173.16 77.4063 172.05L78.8963 172.48C78.4963 174.18 77.2363 175.21 75.4663 175.21ZM86.6779 175.06H84.6979L82.1179 171.69L81.5679 172.32V175.06H79.9979V166.84H81.5679V170.03L84.3279 166.84H86.3779L83.1779 170.49L86.6779 175.06Z" fill="black"/>
</svg>
