<svg width="70" height="75" viewBox="0 0 70 75" fill="none" xmlns="http://www.w3.org/2000/svg">
<rect width="70" height="75" fill="white"/>
<path d="M23.3225 30.0074L29.531 33.5894C29.6875 33.6787 29.8589 33.7234 30.0229 33.7234C30.1869 33.7234 30.3657 33.6787 30.5148 33.5894L36.7233 30.0074C37.0289 29.8287 37.2152 29.5011 37.2152 29.1511V21.9947C37.2152 21.6372 37.0289 21.317 36.7233 21.1383L30.5148 17.5564C30.2092 17.3777 29.8291 17.3777 29.5235 17.5564L23.315 21.1383C23.0094 21.317 22.8231 21.6447 22.8231 21.9947V29.1511C22.8231 29.5085 23.0094 29.8287 23.315 30.0074H23.3225ZM24.8131 23.7074L29.0316 26.1426V31.0128L24.8131 28.5777V23.7074ZM31.0216 31.0128V26.1426L35.2401 23.7074V28.5777L31.0216 31.0128ZM30.0229 19.5521L34.2414 21.9872L30.0229 24.4223L25.8044 21.9872L30.0229 19.5521ZM16.2867 38.9436C16.2867 38.4 16.7339 37.9532 17.2779 37.9532H31.9756C32.5197 37.9532 32.9669 38.4 32.9669 38.9436C32.9669 39.4872 32.5197 39.934 31.9756 39.934H17.2854C16.7413 39.934 16.2941 39.4872 16.2941 38.9436H16.2867ZM36.5444 35.6372L38.4524 37.5436L42.0672 33.9319C42.4548 33.5447 43.0809 33.5447 43.4684 33.9319C43.856 34.3191 43.856 34.9447 43.4684 35.3319L39.153 39.6436C38.9593 39.8372 38.7058 39.934 38.4524 39.934C38.199 39.934 37.9456 39.8372 37.7518 39.6436L35.1432 37.0372C34.7557 36.65 34.7557 36.0245 35.1432 35.6372C35.5308 35.25 36.1569 35.25 36.5444 35.6372ZM16.2867 48.1702C16.2867 47.6266 16.7339 47.1798 17.2779 47.1798H31.9756C32.5197 47.1798 32.9669 47.6266 32.9669 48.1702C32.9669 48.7138 32.5197 49.1606 31.9756 49.1606H17.2854C16.7413 49.1606 16.2941 48.7138 16.2941 48.1702H16.2867ZM60.73 20.2521C58.5686 19.0085 55.796 19.7457 54.5439 21.9053L53.0458 24.4968V11.8745C53.0458 9.7 51.2719 7.92766 49.0956 7.92766H40.5393C40.0549 4.58404 37.1705 2 33.6899 2H26.3559C22.8753 2 19.9909 4.58404 19.5064 7.92766H10.9502C8.77386 7.92766 7 9.7 7 11.8745V68.0532C7 70.2277 8.77386 72 10.9502 72H49.103C51.2794 72 53.0532 70.2277 53.0532 68.0532V42.6L62.3921 26.433C63.6442 24.2734 62.8989 21.5032 60.7375 20.2521H60.73ZM46.554 35.7415L38.1618 50.2628C38.0872 50.3968 38.0425 50.5383 38.0276 50.6872L37.5208 57.8138H17.2854C16.7413 57.8138 16.2941 58.2606 16.2941 58.8043C16.2941 59.3479 16.7413 59.7947 17.2854 59.7947H38.4524C38.5419 59.7947 38.6239 59.7798 38.7133 59.7574C38.7357 59.7574 38.7506 59.7426 38.7729 59.7426C38.8549 59.7128 38.9369 59.6755 39.0114 59.6308L45.7044 55.1106C45.8311 55.0287 45.928 54.917 46.01 54.783L46.554 53.8372V63.6521H13.4992V16.2681H46.554V35.7415ZM44.4001 53.5989L39.5853 56.8457L39.9952 51.0596L52.4495 29.5085L56.8543 32.0479L44.4001 53.5989ZM53.4333 27.7883L54.3203 26.2543L58.7251 28.7936L57.8382 30.3277L53.4333 27.7883ZM26.3634 3.98085H33.6973C36.0823 3.98085 38.0798 5.67872 38.5419 7.92766H21.5263C21.9884 5.67872 23.9858 3.98085 26.3708 3.98085H26.3634ZM51.0632 68.0532C51.0632 69.133 50.1837 70.0191 49.0956 70.0191H10.9502C9.86948 70.0191 8.99 69.1404 8.99 68.0532V11.8745C8.99 10.7947 9.86948 9.91596 10.9502 9.91596H49.103C50.1837 9.91596 51.0707 10.7947 51.0707 11.8745V27.9372L48.544 32.3085V15.2777C48.544 14.734 48.0969 14.2872 47.5528 14.2872H12.5079C11.9638 14.2872 11.5166 14.734 11.5166 15.2851V64.6574C11.5166 65.2011 11.9638 65.6479 12.5079 65.6479H47.5453C48.0894 65.6479 48.5366 65.2011 48.5366 64.6574V50.4191L51.0632 46.0479V68.0681V68.0532ZM60.6778 25.4426L59.7313 27.0809L55.3264 24.5415L56.273 22.9032C56.9736 21.6894 58.5313 21.2723 59.7462 21.9723C60.961 22.6723 61.3784 24.2287 60.6778 25.4426Z" fill="black"/>
</svg>
