<svg width="39" height="32" viewBox="0 0 39 32" fill="none" xmlns="http://www.w3.org/2000/svg">
<path d="M35.1883 15.7213C35.1903 15.7207 35.1903 15.7179 35.1883 15.7173L18.3772 11.3591C18.1083 11.2903 17.85 11.2609 17.5873 11.2488C17.4876 11.2442 17.4319 11.1722 17.4061 11.0758V11.0758L17.1421 10.0906C17.1188 10.0037 16.9468 9.2423 17.6512 8.6498C17.744 8.57836 20.0021 6.68445 19.2024 3.69989C19.1519 3.51155 18.6899 1.78746 17.0805 0.852199C16.0091 0.254174 14.763 0.137749 13.4057 0.501429C13.2267 0.549387 11.5485 0.968017 10.5439 2.58817C9.74887 3.85711 9.60014 5.4498 10.1048 7.33326C10.264 7.92728 10.9031 8.284 11.5146 8.12014C12.1261 7.95628 12.5012 7.32781 12.3421 6.73379C12.0082 5.48781 12.0581 4.48064 12.4883 3.75974V3.75974C13.1317 2.70827 14.6483 2.20071 15.7564 2.7406C15.7847 2.75435 15.8124 2.76884 15.8397 2.78409C16.648 3.23523 16.9159 4.23492 16.9236 4.26389C17.0705 4.812 17.0292 5.29297 16.9103 5.68982C16.6302 6.62467 15.6836 7.18603 15.2127 8.04086C14.6501 9.06231 14.7134 10.122 14.8899 10.6941L15.143 11.6386C15.1477 11.656 15.1449 11.656 15.154 11.6715V11.6715C15.1966 11.7435 15.1732 11.8457 15.1028 11.891C14.8704 12.0406 14.6468 12.2105 14.4506 12.3957L2.06935 24.5955C-0.840919 27.4561 1.93862 32.1617 5.90603 31.0987L35.1097 23.2736C39.0746 22.2112 39.1275 16.7381 35.1885 15.7252C35.1864 15.7247 35.1863 15.7218 35.1883 15.7213V15.7213ZM35.8089 19.4992C35.8081 19.7944 35.7096 20.7991 34.5313 21.1148L5.3276 28.9399C4.16423 29.2517 3.58049 28.4453 3.41336 28.1795C3.26502 27.9242 2.82983 27.016 3.69265 26.1792L16.0778 13.9939C16.2926 13.7811 16.5565 13.6327 16.8548 13.5528C17.1531 13.4728 17.4559 13.4693 17.7483 13.5463L34.5668 17.9065C35.7364 18.2142 35.8097 19.2039 35.8089 19.4992Z" fill="#F5AB35"/>
</svg>
