<svg width="51" height="51" viewBox="0 0 51 51" fill="none" xmlns="http://www.w3.org/2000/svg">
<path d="M24.9934 48.7305C24.6911 48.7305 24.447 48.4966 24.447 48.2068V9.80368C24.447 9.51388 24.6911 9.27995 24.9934 9.27995C25.2957 9.27995 25.5397 9.51388 25.5397 9.80368V48.2068C25.5397 48.4966 25.2957 48.7305 24.9934 48.7305Z" fill="black"/>
<path d="M48.6325 51H9.36755C8.05993 51 7 49.984 7 48.7305V9.26948C7 8.01603 8.05993 7 9.36755 7H48.6325C49.9401 7 51 8.01603 51 9.26948V48.7305C51 49.984 49.9401 51 48.6325 51ZM9.36755 8.04745C8.66457 8.04745 8.09272 8.59562 8.09272 9.26948V48.7305C8.09272 49.4044 8.66457 49.9525 9.36755 49.9525H48.6325C49.3354 49.9525 49.9073 49.4044 49.9073 48.7305V9.26948C49.9073 8.59562 49.3354 8.04745 48.6325 8.04745H9.36755Z" fill="black"/>
<path d="M47.7911 9.27298H10.2089C9.69172 9.27298 9.27285 9.6745 9.27285 10.1703V47.8262C9.27285 48.322 9.69172 48.7235 10.2089 48.7235H24.9424C24.9424 48.7235 24.9752 48.727 24.9897 48.727C25.0043 48.727 25.0225 48.7235 25.0371 48.7235H47.7838C48.301 48.7235 48.7199 48.322 48.7199 47.8262V10.1703C48.7199 9.6745 48.301 9.27298 47.7838 9.27298H47.7911ZM24.447 47.6761H10.3656V37.4355H24.447V47.6761ZM24.447 36.3915H10.3656V22.3103H24.447V36.3915ZM24.447 21.2593H10.3656V10.3204H24.447V21.2593ZM47.6344 47.6761H25.5397V16.9543H47.6344V47.6761ZM47.6344 15.9068H25.5397V10.3239H47.6344V15.9068Z" fill="black"/>
<path d="M23.2341 18.3369C23.2341 17.4152 22.451 16.6645 21.4894 16.6645H13.3232C12.3616 16.6645 11.5821 17.4082 11.5785 18.3265C11.5785 18.7594 11.7497 19.1749 12.0629 19.4856C11.3964 20.1525 11.4219 21.207 12.1176 21.8459C12.4417 22.1462 12.8752 22.3103 13.3268 22.3103H21.4931C22.4546 22.3103 23.2341 21.5701 23.2378 20.6483C23.2378 20.2154 23.0666 19.7999 22.7533 19.4891C23.0629 19.1784 23.2378 18.7699 23.2378 18.3404L23.2341 18.3369ZM13.3232 17.7085H21.4894C21.85 17.7015 22.1487 17.9738 22.156 18.3195C22.1633 18.6651 21.8791 18.9514 21.5185 18.9584C21.5076 18.9584 21.4967 18.9584 21.4894 18.9584H13.3232C12.9626 18.9514 12.6785 18.6651 12.6858 18.3195C12.6931 17.9843 12.9735 17.7154 13.3232 17.7085ZM21.4858 21.2593H13.3195C12.9589 21.2523 12.6748 20.966 12.6821 20.6204C12.6894 20.2852 12.9699 20.0164 13.3195 20.0094H21.4858C21.8464 20.0024 22.145 20.2747 22.1523 20.6204C22.1596 20.966 21.8755 21.2523 21.5149 21.2593C21.504 21.2593 21.4931 21.2593 21.4858 21.2593Z" fill="black"/>
<path d="M22.8553 32.3169C23.5219 31.6501 23.4964 30.5956 22.8007 29.9567C22.4765 29.6564 22.0431 29.4923 21.5914 29.4923H13.4252C12.4636 29.4923 11.6841 30.2325 11.6805 31.1543C11.6805 31.5872 11.8517 32.0027 12.1649 32.3134C11.5202 32.9559 11.5202 33.9719 12.1649 34.6109C11.4984 35.2777 11.5238 36.3322 12.2195 36.9711C12.5437 37.2679 12.9772 37.4355 13.4288 37.4355H21.595C22.5566 37.4355 23.3361 36.6918 23.3397 35.77C23.3397 35.3371 23.1686 34.9251 22.8553 34.6109C23.5 33.9684 23.5 32.9524 22.8553 32.3134V32.3169ZM12.7768 33.4656C12.7768 33.12 13.0682 32.8407 13.4288 32.8407H21.595C21.9556 32.8477 22.2397 33.134 22.2325 33.4796C22.2252 33.8148 21.9447 34.0836 21.595 34.0906H13.4288C13.0682 34.0906 12.7768 33.8113 12.7768 33.4656ZM13.4288 30.5398H21.595C21.9556 30.5467 22.2397 30.833 22.2325 31.1787C22.2252 31.5139 21.9447 31.7827 21.595 31.7897H13.4288C13.0682 31.7967 12.7695 31.5244 12.7623 31.1787C12.755 30.833 13.0391 30.5467 13.3997 30.5398C13.4106 30.5398 13.4215 30.5398 13.4288 30.5398ZM21.595 36.388H13.4288C13.0682 36.388 12.7768 36.1087 12.7768 35.7631C12.7768 35.4174 13.0682 35.1381 13.4288 35.1381H21.595C21.9556 35.1381 22.247 35.4174 22.247 35.7631C22.247 36.1087 21.9556 36.388 21.595 36.388Z" fill="black"/>
<path d="M46.8222 26.9854C46.5308 25.9065 45.7513 23.2844 44.8225 22.3033C44.2761 21.6923 43.5987 21.1965 42.8411 20.8508C42.4914 20.6972 42.0907 20.7007 41.7447 20.8648C41.2603 20.4947 40.7248 20.0652 40.3497 19.737C40.5136 19.5136 40.6593 19.2796 40.7868 19.0352C41.5371 17.5828 41.4023 16.3398 40.4407 15.7916C39.9454 15.5088 39.3371 15.4634 38.8017 15.6729C38.3099 15.8649 37.942 16.27 37.8109 16.7623C37.7381 17.0416 37.9129 17.3279 38.2043 17.3977C38.4957 17.4676 38.7944 17.3 38.8672 17.0206C38.9146 16.8461 39.042 16.7064 39.2169 16.6401C39.4354 16.5563 39.6795 16.5772 39.8798 16.6924C40.3897 16.9857 40.1566 17.8865 39.8033 18.5744C39.6321 18.8956 39.4281 19.1993 39.195 19.4822C38.7834 19.9814 38.3281 20.4458 37.8364 20.8753C37.5122 20.7775 37.1626 20.8054 36.8603 20.9591C36.7765 21.001 36.6781 21.0498 36.5689 21.1022C36.3904 21.1895 36.1755 21.2942 35.9533 21.413C35.7056 20.994 35.243 20.7391 34.7404 20.7391H34.1722C33.4546 20.2782 32.8901 19.8872 32.5295 19.6113C32.7225 19.3914 32.8864 19.154 33.0248 18.8991C33.7934 17.4396 33.6841 16.2804 32.7189 15.7183C32.1762 15.425 31.5169 15.4145 30.9632 15.6904C30.4132 15.9487 30.0381 16.4585 29.9762 17.0416C29.947 17.3279 30.1656 17.5863 30.4679 17.6142C30.7666 17.6421 31.0361 17.4326 31.0652 17.1428C31.0944 16.9159 31.2437 16.7204 31.4586 16.6261C31.6735 16.5109 31.9358 16.5074 32.1579 16.6121C32.7444 16.9543 32.2818 17.9948 32.0523 18.4277C31.8666 18.7454 31.6371 19.0387 31.3675 19.2971C30.8285 19.8208 30.2493 20.3061 29.6265 20.7391H29.1384C28.5447 20.7391 28.0166 21.0952 27.8162 21.6329C26.9056 24.1817 26.5159 26.8772 26.6725 29.5656C26.7599 30.7877 26.8765 33.8392 26.9275 41.4333V41.5275C26.9275 41.9465 27.2371 42.3061 27.6669 42.383C28.0712 42.4493 28.4828 42.4807 28.8944 42.4737C29.448 42.4737 29.998 42.4353 30.548 42.362C30.9632 42.2992 31.2838 41.971 31.3166 41.5694L31.7901 36.0354L32.2126 41.5939C32.2381 41.9814 32.5295 42.3061 32.9265 42.3899C33.8881 42.5156 34.8642 42.5052 35.8222 42.3585C36.2702 42.3061 36.6126 41.9535 36.6271 41.5206L36.6344 41.3215C36.6672 40.3719 36.7401 38.1792 36.8275 35.9027C37.6069 35.9621 38.503 35.9935 39.4828 35.9935C41.0271 35.9935 42.7682 35.9202 44.5275 35.77C44.8298 35.7456 45.052 35.4907 45.0228 35.2009L44.4146 28.8394C44.4 28.6788 44.5093 28.5356 44.6732 28.5007C45.2523 28.3995 45.8132 28.2249 46.3414 27.9805C46.7238 27.8024 46.9242 27.3904 46.8185 26.9924L46.8222 26.9854ZM39.6795 20.561C40.0182 20.8543 40.4298 21.1825 40.7685 21.4479C40.1384 21.7412 39.4063 21.7481 38.7689 21.4688C39.042 21.2174 39.3626 20.9102 39.6795 20.561ZM31.7864 20.3725C31.9248 20.4807 32.0851 20.5994 32.2745 20.7356H31.3712C31.5169 20.6134 31.6589 20.4912 31.7864 20.3725ZM35.5454 41.2831V41.3285C34.8023 41.4298 34.0483 41.4507 33.298 41.3844L32.3983 29.5936C32.3983 29.5691 32.402 29.5482 32.3983 29.5237L32.2818 27.8234C32.2781 27.7466 32.2526 27.6697 32.2126 27.6034L31.3967 26.2138C31.2437 25.9589 30.9086 25.8681 30.6427 26.0113C30.3805 26.1474 30.2785 26.4617 30.4205 26.7131C30.4205 26.7131 30.4242 26.72 30.4278 26.7235L31.1818 28.0084L31.2692 29.2968L30.2421 41.3425C29.5063 41.4403 28.7632 41.4507 28.0238 41.3739C27.9692 33.7869 27.8526 30.7248 27.7652 29.4888C27.6195 26.94 27.9874 24.3877 28.8507 21.9751C28.8944 21.8564 29.0109 21.7796 29.1421 21.7831H34.7477C34.8788 21.7831 34.9954 21.8634 35.0391 21.9821L35.1483 22.3277C35.8914 24.7543 36.1973 27.2822 36.0553 29.8065C35.9715 30.8156 35.8768 32.5648 35.7639 35.3057C35.6619 37.7777 35.5818 40.2566 35.5454 41.2831ZM44.4656 27.4672C43.7517 27.6034 43.2636 28.2354 43.3328 28.9302L43.8901 34.7645C41.5553 34.96 39.2132 34.9879 36.8748 34.8483C36.9805 32.4042 37.0679 30.8226 37.1444 29.8869C37.2937 27.3695 37.0132 24.8486 36.3103 22.4185C36.5762 22.2684 36.842 22.1392 37.0715 22.0275C37.1917 21.9681 37.2973 21.9192 37.3848 21.8738C37.454 21.8424 37.5341 21.8529 37.5924 21.9018C37.6069 21.9122 37.6215 21.9262 37.6361 21.9402C38.6742 23.04 40.7613 22.9876 42.1891 21.8284C42.2437 21.7831 42.3166 21.7726 42.3821 21.804C43.0086 22.0938 43.5622 22.5023 44.0139 23.0121C44.6185 23.6545 45.2851 25.519 45.7258 27.1041C45.3252 27.2752 44.9026 27.4009 44.4692 27.4742L44.4656 27.4672Z" fill="black"/>
<path d="M17.053 47.3863C16.9255 46.5518 16.8927 45.7069 16.951 44.8619C16.9546 44.6943 16.9473 44.5302 16.9255 44.3626C16.8017 43.2733 16.1242 42.4807 15.2391 42.3899C14.6053 42.3131 13.9788 42.5855 13.6255 43.0987C13.3159 43.5282 13.1411 44.0379 13.1265 44.5617C13.1156 44.7013 13.1119 44.848 13.1046 44.9946C13.1046 45.3507 13.0682 45.7034 13.0063 46.0525C12.8387 46.7229 12.7003 47.2501 12.5911 47.6132C12.4563 48.0776 12.7368 48.5594 13.2212 48.6886C13.3013 48.7096 13.3851 48.7201 13.4689 48.7201H16.197C16.6997 48.7201 17.1076 48.3255 17.1076 47.8437C17.1076 47.8088 17.1076 47.7738 17.1003 47.7389C17.0821 47.6097 17.0639 47.498 17.0493 47.3828L17.053 47.3863ZM15.5523 47.6761C15.5523 47.2536 15.596 46.8346 15.6798 46.4226C15.7454 46.1398 15.556 45.8605 15.2609 45.7977C14.9659 45.7348 14.6745 45.9164 14.6089 46.1992C14.5069 46.6845 14.456 47.1803 14.456 47.6761H13.7056C13.8076 47.3165 13.9278 46.8521 14.0735 46.276C14.15 45.864 14.1901 45.4485 14.1937 45.033C14.1973 44.8968 14.2046 44.7642 14.2119 44.6385C14.2119 44.3138 14.3139 43.9925 14.5033 43.7237C14.6271 43.5142 14.8785 43.399 15.1262 43.4409C15.4139 43.4688 15.7599 43.811 15.8364 44.4953C15.851 44.6105 15.8583 44.7293 15.8546 44.8445C15.7927 45.7488 15.8291 46.6566 15.9675 47.5539C15.9748 47.5958 15.9821 47.6412 15.9894 47.6831H15.5523V47.6761Z" fill="black"/>
<path d="M22.2325 47.6132C22.1232 47.2466 21.9848 46.7229 21.8209 46.0735C21.7553 45.7174 21.7225 45.3542 21.7189 44.9946C21.7152 44.8445 21.7079 44.7013 21.697 44.5582C21.6825 44.0344 21.5113 43.5282 21.198 43.0987C20.8447 42.5855 20.2146 42.3096 19.5772 42.3899C18.6957 42.4807 18.0219 43.2733 17.898 44.3522C17.8762 44.5198 17.8689 44.6908 17.8725 44.8619C17.9308 45.7034 17.898 46.5483 17.7705 47.3828C17.7523 47.4945 17.7341 47.6098 17.7159 47.7389C17.654 48.2173 18.0109 48.6537 18.5099 48.7131C18.5464 48.7166 18.5828 48.7201 18.6192 48.7201H21.3474C21.85 48.7201 22.2579 48.329 22.2579 47.8472C22.2579 47.7669 22.247 47.6866 22.2252 47.6098L22.2325 47.6132ZM20.3676 47.6761C20.3676 47.1803 20.3166 46.6845 20.2146 46.1992C20.149 45.9164 19.8576 45.7383 19.5626 45.7977C19.2676 45.8605 19.0818 46.1398 19.1437 46.4226C19.2311 46.8346 19.2748 47.2536 19.2712 47.6761H18.8305C18.8378 47.6307 18.845 47.5888 18.8523 47.5469C18.9871 46.6496 19.0272 45.7453 18.9652 44.841C18.9652 44.7188 18.9652 44.6001 18.9834 44.4814C19.0599 43.804 19.406 43.4653 19.6864 43.4374C19.9378 43.3955 20.1891 43.5072 20.3166 43.7202C20.506 43.9891 20.6043 44.3068 20.6043 44.6315C20.6152 44.7607 20.6189 44.8934 20.6225 45.0295C20.6262 45.4555 20.6699 45.878 20.75 46.2969C20.8884 46.8556 21.0123 47.32 21.1142 47.6761H20.3639H20.3676Z" fill="black"/>
<circle cx="12" cy="12" r="12" fill="#F6AE24"/>
<path d="M12.264 14.848H10.984L10.36 13.024H8.024L7.4 14.848H6.12L8.408 8.272H9.976L12.264 14.848ZM9.192 9.624L8.416 11.896H9.968L9.192 9.624ZM14.1988 14.848H12.9428V8.272H14.1988V14.848ZM16.5738 14.848H15.3178V8.272H16.5738V14.848Z" fill="white"/>
</svg>
