<svg width="18" height="40" viewBox="0 0 18 40" fill="none" xmlns="http://www.w3.org/2000/svg">
<path d="M9.0001 16.6663C10.9108 16.6647 12.4598 15.173 12.4616 13.3331V10.6664C12.4616 10.2981 12.1518 9.99979 11.7693 9.99979H6.23091C5.84842 9.99979 5.53861 10.2981 5.53861 10.6664V13.3331C5.54035 15.173 7.08936 16.6647 9.0001 16.6663ZM6.92321 11.3331H11.077V13.3331C11.077 14.4372 10.1467 15.333 9.0001 15.333C7.85348 15.333 6.92321 14.4372 6.92321 13.3331V11.3331Z" fill="black"/>
<path d="M17.7974 12.8614L15.923 11.0564V7.36568L16.6118 0.732485C16.6499 0.365826 16.373 0.0391658 15.9922 0.00249995C15.9688 0.000833316 15.9463 0 15.923 0H13.1538C12.7981 0 12.5004 0.259161 12.4649 0.599988L11.835 6.66653H6.16505L5.53506 0.599988C5.49958 0.259161 5.20189 0 4.84622 0H2.07704C1.69454 0 1.38474 0.298327 1.38474 0.666653C1.38474 0.689152 1.38561 0.710818 1.3882 0.733318L2.07704 7.36651V11.0573L0.202645 12.8622C0.0572627 13.0022 -0.0154284 13.1972 0.00274437 13.3939L0.692445 20.6971V39.3333C0.692445 39.7017 1.00225 40 1.38474 40H6.92311C7.3056 40 7.61541 39.7017 7.61541 39.3333V36.6951L8.05934 31.5618C8.19953 29.9494 8.51453 28.3552 9 26.8053C9.48547 28.3544 9.80047 29.9485 9.94066 31.5618L10.3846 36.6951V39.3333C10.3846 39.7017 10.6944 40 11.0769 40H16.6153C16.9978 40 17.3076 39.7017 17.3076 39.3333V20.6971L17.9973 13.3939C18.0154 13.1972 17.9427 13.0014 17.7974 12.8614ZM15.923 23.9095C14.9572 23.652 14.2355 22.8779 14.0737 21.9262L13.9707 21.3329H15.923V23.9095ZM13.5034 3.99992H14.8811L14.6041 6.66653H13.2265L13.5034 3.99992ZM15.158 1.33331L15.0195 2.66661H13.6418L13.7803 1.33331H15.158ZM4.77353 6.66653H3.39586L3.11894 3.99992H4.49661L4.77353 6.66653ZM4.21969 1.33331L4.35815 2.66661H2.98048L2.84202 1.33331H4.21969ZM3.25913 11.8048C3.38894 11.6798 3.46163 11.5098 3.46163 11.3331V7.99983H14.5384V11.3331C14.5384 11.5098 14.6111 11.6798 14.7409 11.8048L16.5884 13.5839L15.9835 19.9996H2.01646L1.4107 13.5839L3.25913 11.8048ZM4.02931 21.3329L3.92633 21.9262C3.76451 22.8779 3.04279 23.652 2.07704 23.9095V21.3329H4.02931ZM6.23081 38.6659H2.07704V37.3326H6.23081V38.6659ZM9.65682 24.4553C9.53566 24.1062 9.14365 23.917 8.78106 24.0337C8.57424 24.1003 8.41155 24.2562 8.34318 24.4553L7.89406 25.752C7.25541 27.5978 6.84782 29.511 6.67994 31.4493L6.2862 35.9984H2.07704V25.2736C3.73076 24.9953 5.02103 23.7395 5.29189 22.1445L5.43208 21.3321H12.5671L12.7072 22.1445C12.979 23.7395 14.2684 24.9953 15.9221 25.2736V35.9984H11.7129L11.3192 31.4493C11.1513 29.5102 10.7437 27.5978 10.1051 25.752L9.65682 24.4553ZM15.923 38.6659H11.7692V37.3326H15.923V38.6659Z" fill="black"/>
<path d="M9.69239 12.6664H8.3078V13.9997H9.69239V12.6664Z" fill="black"/>
</svg>
