<svg width="22" height="44" viewBox="0 0 22 44" fill="none" xmlns="http://www.w3.org/2000/svg">
<path d="M18.7667 22.3612C18.8224 22.6333 19.0593 22.8303 19.338 22.8303H21.4191C21.577 22.8303 21.7257 22.7646 21.8325 22.652C21.944 22.5394 22.0044 22.3846 21.9998 22.2252C21.865 15.8269 20.8245 9.48486 18.9014 3.38678V3.34456L18.8689 3.29765C18.8456 3.25544 18.8178 3.21791 18.7853 3.18507L18.762 3.15693C18.7202 3.1194 18.6691 3.08657 18.618 3.06311L16.8018 2.24691L14.716 0.614499L14.5628 0.314286C14.4652 0.121962 14.2655 0 14.0518 0H7.89687C7.67854 0 7.48345 0.121962 7.38125 0.314286L7.22796 0.614499L5.14226 2.24691L3.35385 3.05842C3.30275 3.08188 3.25165 3.11471 3.20985 3.15224V3.18038C3.17733 3.21322 3.14946 3.25075 3.12623 3.29296L3.09836 3.33987V3.38209C1.17524 9.48486 0.130066 15.8362 0 22.2392C0 22.3987 0.0557426 22.5535 0.167228 22.6661C0.274068 22.7787 0.422715 22.8443 0.580652 22.8443H2.61061C2.88933 22.8443 3.12623 22.6473 3.18197 22.3753C3.18197 22.3049 4.05527 17.2154 4.77064 13.4627L5.04935 15.4844C4.96109 16.0942 4.4176 19.8422 4.14818 22.7411C4.13424 22.9006 4.18534 23.0554 4.28754 23.1774C4.38973 23.2994 4.53838 23.3744 4.69631 23.3791H4.82638L4.39902 43.3996C4.39438 43.5591 4.45476 43.7092 4.56625 43.8217C4.67309 43.9343 4.82174 44 4.97967 44H7.6739C7.95261 44 8.18952 43.8077 8.24526 43.5309L10.972 27.9902L13.6987 43.5028C13.7545 43.7795 13.9914 43.9765 14.2701 43.9719H16.9643C17.1223 43.9719 17.2709 43.9062 17.3778 43.7936C17.4892 43.681 17.5496 43.5309 17.545 43.3714L17.1223 23.3697H17.2523C17.4103 23.365 17.5589 23.29 17.6611 23.168C17.7633 23.0461 17.8144 22.8913 17.8005 22.7318C17.531 19.8328 16.9876 16.0849 16.8993 15.4751L17.178 13.4486C17.8934 17.1825 18.7527 22.2908 18.7667 22.3612ZM20.8199 21.6763H19.8258C19.4913 19.7015 18.2511 12.4776 17.6518 10.0337L18.4694 5.97143C19.849 11.0985 20.6387 16.3663 20.8199 21.6763ZM14.0657 1.59019L15.6544 2.83326L14.3816 4.28273C14.2608 4.42345 14.2097 4.61578 14.2469 4.79872L14.6371 6.59531L12.059 9.09083C12.5792 7.13475 13.3922 4.0951 14.0657 1.59019ZM10.972 8.65927C10.6747 7.52878 10.2195 5.84478 9.53199 3.2742H12.412C11.7245 5.8307 11.2693 7.52878 10.972 8.65927ZM12.9741 1.18209L12.7279 2.12026H9.21611L8.96991 1.18209H12.9741ZM7.86435 1.59957C8.53791 4.10448 9.35082 7.14414 9.87109 9.1049L7.29299 6.60938L7.72035 4.79872C7.75751 4.61578 7.70642 4.42345 7.58564 4.28273L6.28962 2.83326L7.86435 1.59957ZM2.11822 21.6763H1.12414C1.30531 16.3663 2.09499 11.0938 3.47462 5.96674L4.29218 10.0337C3.69295 12.4729 2.45267 19.7015 2.11822 21.6763ZM5.45349 9.94925L4.25037 3.93092L5.2909 3.46183L6.49866 4.84094L6.10382 6.66567C6.06201 6.86738 6.1224 7.07377 6.27104 7.2145L10.3914 11.2064V18.6226L9.29973 22.4362L5.36058 22.2252C5.66717 19.209 6.20136 15.597 6.20601 15.5548C6.2153 15.4985 6.2153 15.4469 6.20601 15.3906L5.45349 9.94925ZM14.7439 42.832L11.5294 24.5377C11.4737 24.2188 11.1717 24.0077 10.8559 24.064C10.619 24.1062 10.4332 24.2938 10.3867 24.5377L7.17222 42.832H5.57426L5.98304 23.4495L9.69921 23.6512H9.72709C9.98722 23.6512 10.2102 23.4776 10.2845 23.229L10.972 20.8132L11.6595 23.229C11.7338 23.4776 11.9568 23.6512 12.2169 23.6512H12.2448L15.961 23.4495L16.3744 42.832H14.7439ZM15.7241 15.5736C15.7241 15.6158 16.2629 19.2277 16.5695 22.2439L12.6303 22.455L11.5387 18.6414V11.2064L15.659 7.2145C15.8077 7.07377 15.8681 6.86738 15.8263 6.66567L15.4314 4.84094L16.6392 3.46183L17.6797 3.93092L16.4719 9.96802L15.738 15.3906C15.7287 15.4469 15.7287 15.4985 15.738 15.5548L15.7241 15.5736Z" fill="black"/>
</svg>
