<svg width="51" height="56" viewBox="0 0 51 56" fill="none" xmlns="http://www.w3.org/2000/svg">
<path d="M17.0142 48.6797C15.6404 48.6797 14.5296 49.7648 14.5296 51.1046C14.5296 52.4443 15.6414 53.5294 17.0142 53.5294C18.387 53.5294 19.4988 52.4443 19.4988 51.1046C19.4988 49.7648 18.387 48.6797 17.0142 48.6797ZM17.0142 52.2074C16.3901 52.2074 15.8842 51.7137 15.8842 51.1046C15.8842 50.4955 16.3901 50.0018 17.0142 50.0018C17.6383 50.0018 18.1441 50.4955 18.1441 51.1046C18.1441 51.7137 17.6383 52.2074 17.0142 52.2074Z" fill="black"/>
<path d="M50.7998 25.1423L46.1554 20.6096C45.8934 20.3539 45.4589 20.3539 45.198 20.6096L43.3278 22.4347C43.2011 22.5584 43.1287 22.7257 43.1287 22.9024C43.1287 23.0791 43.2011 23.2465 43.3278 23.3701L43.8965 23.9252L42.2969 25.4863C40.4353 24.1809 38.2575 23.2724 35.8996 22.8941V20.6896H38.3128C39.6867 20.6896 40.7974 19.6045 40.7974 18.2648C40.7974 16.925 39.6856 15.8399 38.3128 15.8399H34.0295V4.18968C34.0295 1.87917 32.105 0 29.7376 0H4.29189C1.92443 0 0 1.87813 0 4.18968V51.8114C0 54.1219 1.92443 56 4.29189 56H29.7376C31.8793 56 33.6503 54.4565 33.9666 52.4454C42.1265 52.1543 48.6773 45.6105 48.6773 37.5772C48.6773 34.35 47.6016 31.3598 45.8039 28.9172L47.4035 27.3561L47.9722 27.9111C48.1075 28.0431 48.28 28.1055 48.4515 28.1055C48.623 28.1055 48.7944 28.0442 48.9307 27.9111L50.8008 26.0777C50.9276 25.954 51 25.7867 51 25.61C51 25.4333 50.9276 25.2659 50.8008 25.1423H50.7998ZM34.5343 22.7351C34.1637 22.7091 33.7845 22.6821 33.4043 22.6821C33.0241 22.6821 32.645 22.7081 32.2744 22.7351V20.6896H34.5332V22.7351H34.5343ZM39.4407 18.2637C39.4407 18.8728 38.9348 19.3655 38.3107 19.3655H28.5065C27.8824 19.3655 27.3765 18.8718 27.3765 18.2637C27.3765 17.6557 27.8824 17.162 28.5065 17.162H38.3107C38.9252 17.162 39.4407 17.6557 39.4407 18.2637ZM22.8684 1.32207V3.30622C22.8684 3.42991 22.7694 3.52657 22.6426 3.52657H11.3836C11.2569 3.52657 11.1578 3.42991 11.1578 3.30622V1.32207H22.8684ZM9.80212 1.32207V3.30622C9.80212 4.15227 10.5157 4.84968 11.3836 4.84968H22.6426C23.5095 4.84968 24.2241 4.15331 24.2241 3.30622V1.32207H29.7365C31.3542 1.32207 32.6727 2.60985 32.6727 4.18761V15.8379H28.5075C27.1337 15.8379 26.0229 16.923 26.0229 18.2627C26.0229 19.6024 27.1348 20.6875 28.5075 20.6875H30.9208V22.892C23.6831 24.0561 18.1431 30.1853 18.1431 37.5752C18.1431 40.7941 19.2091 43.7656 20.9898 46.2092H1.35253V4.18864C1.35253 2.60985 2.67205 1.32207 4.28869 1.32207H9.80212ZM29.7354 54.6769H4.28976C2.67205 54.6769 1.3536 53.3891 1.3536 51.8114V47.5344H22.0825C24.7119 50.3739 28.4255 52.2167 32.5917 52.4381C32.3031 53.7165 31.137 54.6779 29.7365 54.6779H29.7354V54.6769ZM33.4043 51.1493C25.7322 51.1493 19.4977 45.0638 19.4977 37.5772C19.4977 30.0907 25.7332 24.0052 33.4043 24.0052C41.0754 24.0052 47.3109 30.0907 47.3109 37.5772C47.3109 45.0638 41.0754 51.1493 33.4043 51.1493ZM44.953 27.8581C44.4557 27.3031 43.9232 26.7824 43.3534 26.297L44.8348 24.8512L46.4344 26.4124L44.953 27.8581ZM48.4504 26.4997L44.7549 22.8931L45.6676 22.0023L49.3546 25.6006L48.4504 26.4997Z" fill="black"/>
<path d="M33.4054 25.8833C26.8003 25.8833 21.4318 31.1217 21.4318 37.5689C21.4318 44.0161 26.8089 49.2535 33.4054 49.2535C40.0019 49.2535 45.379 44.0151 45.379 37.5689C45.379 31.1228 40.0115 25.8833 33.4054 25.8833ZM33.4054 47.9304C27.5501 47.9304 22.7875 43.2834 22.7875 37.5679C22.7875 31.8524 27.549 27.2054 33.4054 27.2054C39.2617 27.2054 44.0233 31.8524 44.0233 37.5679C44.0233 43.2834 39.2617 47.9304 33.4054 47.9304Z" fill="black"/>
<path d="M33.4054 31.9241C33.1072 31.9241 32.8367 32.1185 32.7547 32.4002C32.4565 33.4322 31.4629 36.8538 31.4629 37.5679C31.4629 38.6083 32.3298 39.4637 33.4054 39.4637C34.481 39.4637 35.3479 38.6176 35.3479 37.5679C35.3479 36.8538 34.3628 33.4322 34.0561 32.4002C33.9741 32.1268 33.7132 31.9241 33.4054 31.9241ZM33.4054 38.1416C33.0806 38.1416 32.8175 37.8859 32.8175 37.5679C32.8175 37.3205 33.071 36.3071 33.4054 35.0807C33.7398 36.3061 33.9837 37.3299 33.9933 37.5679C33.9933 37.8849 33.7313 38.1416 33.4054 38.1416Z" fill="black"/>
<path d="M33.4054 30.5833C33.776 30.5833 34.0827 30.283 34.0827 29.9223V28.9962C34.0827 28.6345 33.7749 28.3352 33.4054 28.3352C33.0358 28.3352 32.7281 28.6356 32.7281 28.9962V29.9223C32.7281 30.2934 33.0348 30.5833 33.4054 30.5833Z" fill="black"/>
<path d="M33.4054 44.5607C33.0348 44.5607 32.7281 44.8611 32.7281 45.2218V46.1479C32.7281 46.5096 33.0358 46.8089 33.4054 46.8089C33.7749 46.8089 34.0827 46.5085 34.0827 46.1479V45.2218C34.0827 44.8518 33.7845 44.5607 33.4054 44.5607Z" fill="black"/>
<path d="M30.6769 29.4016C30.532 29.0669 30.1348 28.9079 29.7908 29.0399C29.4479 29.1812 29.2754 29.5689 29.4202 29.9046L29.7812 30.76C29.8899 31.0157 30.1423 31.1654 30.4053 31.1654C30.4958 31.1654 30.5768 31.1477 30.6673 31.1124C31.0102 30.971 31.1828 30.5833 31.0379 30.2476L30.6769 29.4016Z" fill="black"/>
<path d="M37.0295 44.3851C36.8847 44.0504 36.4874 43.8914 36.1435 44.0234C35.8005 44.1554 35.6376 44.5524 35.7728 44.8881L36.1339 45.7435C36.2425 45.9992 36.4949 46.1489 36.758 46.1489C36.8485 46.1489 36.9294 46.1312 37.0199 46.0959C37.3629 45.9545 37.5258 45.5668 37.3906 45.2311L37.0295 44.3851Z" fill="black"/>
<path d="M27.6768 31.0417C27.4148 30.786 26.9803 30.786 26.7194 31.0417C26.4574 31.2974 26.4574 31.7215 26.7194 31.9761L27.3882 32.6288C27.5235 32.7608 27.696 32.8232 27.8675 32.8232C28.0389 32.8232 28.2104 32.7619 28.3467 32.6288C28.6087 32.3731 28.6087 31.9491 28.3467 31.6944L27.6779 31.0417H27.6768Z" fill="black"/>
<path d="M39.4236 42.5153C39.1616 42.2596 38.7271 42.2596 38.4662 42.5153C38.2042 42.771 38.2042 43.195 38.4662 43.4497L39.135 44.1024C39.2703 44.2344 39.4428 44.2967 39.6142 44.2967C39.7857 44.2967 39.9572 44.2354 40.0935 44.1024C40.3555 43.8467 40.3555 43.4226 40.0935 43.168L39.4247 42.5153H39.4236Z" fill="black"/>
<path d="M25.0293 34.905L25.9058 35.2574C25.9867 35.2927 26.0772 35.3104 26.1677 35.3104C26.4297 35.3104 26.6832 35.1607 26.7918 34.905C26.9367 34.5704 26.7737 34.1816 26.4212 34.0403L25.5447 33.6879C25.2018 33.5466 24.8035 33.7056 24.6587 34.0496C24.5234 34.376 24.6864 34.7637 25.0293 34.905Z" fill="black"/>
<path d="M41.7826 40.2401L40.9061 39.8877C40.5631 39.7464 40.1648 39.9054 40.02 40.2494C39.8752 40.5841 40.0381 40.9728 40.3906 41.1142L41.2671 41.4665C41.348 41.5019 41.4386 41.5196 41.5291 41.5196C41.7911 41.5196 42.0445 41.3699 42.1532 41.1142C42.2884 40.7702 42.1255 40.3825 41.7826 40.2411V40.2401Z" fill="black"/>
<path d="M25.5714 38.23C25.942 38.23 26.2487 37.9296 26.2487 37.5689C26.2487 37.2083 25.9409 36.9079 25.5714 36.9079H24.6225C24.2518 36.9079 23.9451 37.2083 23.9451 37.5689C23.9451 37.9296 24.2529 38.23 24.6225 38.23H25.5714Z" fill="black"/>
<path d="M41.2394 36.9068C40.8688 36.9068 40.5621 37.2072 40.5621 37.5679C40.5621 37.9285 40.8699 38.2289 41.2394 38.2289H42.1883C42.5589 38.2289 42.8656 37.9285 42.8656 37.5679C42.8656 37.2072 42.5579 36.9068 42.1883 36.9068H41.2394Z" fill="black"/>
<path d="M26.7908 40.2495C26.6459 39.9148 26.2487 39.7558 25.9047 39.8878L25.0282 40.2401C24.6853 40.3815 24.5223 40.7691 24.6576 41.1049C24.7662 41.3605 25.0186 41.5102 25.2817 41.5102C25.3722 41.5102 25.4531 41.4925 25.5437 41.4572L26.4201 41.1049C26.7727 40.9729 26.9356 40.5841 26.7908 40.2495Z" fill="black"/>
<path d="M40.02 34.8957C40.1286 35.1514 40.381 35.301 40.6441 35.301C40.7346 35.301 40.8155 35.2834 40.9061 35.248L41.7826 34.8957C42.1255 34.7543 42.2884 34.3666 42.1532 34.0309C42.0083 33.6963 41.6111 33.5372 41.2671 33.6692L40.3906 34.0216C40.0381 34.1723 39.8752 34.56 40.02 34.8946V34.8957Z" fill="black"/>
<path d="M27.3872 42.5153L26.7183 43.168C26.4564 43.4237 26.4564 43.8477 26.7183 44.1024C26.8536 44.2344 27.0261 44.2967 27.1976 44.2967C27.369 44.2967 27.5405 44.2354 27.6768 44.1024L28.3456 43.4497C28.6076 43.194 28.6076 42.7699 28.3456 42.5153C28.0837 42.2596 27.6502 42.2502 27.3882 42.5153H27.3872Z" fill="black"/>
<path d="M38.9444 32.8232C39.1158 32.8232 39.2873 32.7619 39.4236 32.6288L40.0924 31.9761C40.3544 31.7204 40.3544 31.2964 40.0924 31.0417C39.8304 30.786 39.3959 30.786 39.135 31.0417L38.4662 31.6944C38.2042 31.9501 38.2042 32.3742 38.4662 32.6288C38.6014 32.7608 38.7729 32.8232 38.9454 32.8232H38.9444Z" fill="black"/>
<path d="M30.6684 44.0234C30.3254 43.882 29.9271 44.0411 29.7823 44.3851L29.4213 45.2405C29.2764 45.5752 29.4394 45.9639 29.7919 46.1052C29.8728 46.1406 29.9634 46.1582 30.0539 46.1582C30.3159 46.1582 30.5693 46.0086 30.678 45.7529L31.039 44.8975C31.1742 44.5535 31.0113 44.1658 30.6684 44.0244V44.0234Z" fill="black"/>
<path d="M37.0295 29.0399C36.6866 28.8985 36.2883 29.0576 36.1435 29.4016L35.7824 30.257C35.6376 30.5917 35.8005 30.9804 36.153 31.1217C36.234 31.1571 36.3245 31.1747 36.415 31.1747C36.677 31.1747 36.9305 31.0251 37.0391 30.7694L37.4001 29.914C37.5354 29.57 37.3735 29.1823 37.0295 29.0409V29.0399Z" fill="black"/>
<path d="M10.5625 12.4869L8.39421 14.6031L7.95118 14.1707C7.68919 13.915 7.25468 13.915 6.99376 14.1707C6.73177 14.4264 6.73177 14.8505 6.99376 15.1051L7.91603 16.0052C8.05129 16.1372 8.22381 16.1996 8.39528 16.1996C8.56674 16.1996 8.7382 16.1382 8.87452 16.0052L11.5221 13.4213C11.7841 13.1657 11.7841 12.7416 11.5221 12.4869C11.2601 12.2313 10.8256 12.2313 10.5636 12.4869H10.5625Z" fill="black"/>
<path d="M5.06826 18.9955H13.4454C13.8161 18.9955 14.1228 18.6951 14.1228 18.3344V10.1588C14.1228 9.79706 13.815 9.49773 13.4454 9.49773H5.06826C4.69765 9.49773 4.39093 9.7981 4.39093 10.1588V18.3344C4.39093 18.6961 4.68913 18.9955 5.06826 18.9955ZM5.74559 10.8198H12.767V17.6723H5.74559V10.8198Z" fill="black"/>
<path d="M10.5625 24.2515L8.39421 26.3677L7.95118 25.9353C7.68919 25.6796 7.25468 25.6796 6.99376 25.9353C6.73177 26.191 6.73177 26.615 6.99376 26.8697L7.91603 27.7698C8.05129 27.9018 8.22381 27.9641 8.39528 27.9641C8.56674 27.9641 8.7382 27.9028 8.87452 27.7698L11.5221 25.1859C11.7841 24.9302 11.7841 24.5062 11.5221 24.2515C11.2601 23.9958 10.8256 23.9958 10.5636 24.2515H10.5625Z" fill="black"/>
<path d="M5.06826 30.76H13.4454C13.8161 30.76 14.1228 30.4597 14.1228 30.099V21.9233C14.1228 21.5616 13.815 21.2623 13.4454 21.2623H5.06826C4.69765 21.2623 4.39093 21.5627 4.39093 21.9233V30.099C4.39093 30.4607 4.68913 30.76 5.06826 30.76ZM5.74559 22.5844H12.767V29.4369H5.74559V22.5844Z" fill="black"/>
<path d="M10.5625 36.0161L8.39421 38.1323L7.95118 37.6999C7.68919 37.4442 7.25468 37.4442 6.99376 37.6999C6.73177 37.9556 6.73177 38.3796 6.99376 38.6343L7.91603 39.5344C8.05129 39.6664 8.22381 39.7287 8.39528 39.7287C8.56674 39.7287 8.7382 39.6674 8.87452 39.5344L11.5221 36.9505C11.7841 36.6948 11.7841 36.2708 11.5221 36.0161C11.2601 35.7604 10.8266 35.7604 10.5647 36.0161H10.5625Z" fill="black"/>
<path d="M5.06826 42.5246H13.4454C13.8161 42.5246 14.1228 42.2242 14.1228 41.8636V33.6879C14.1228 33.3262 13.815 33.0269 13.4454 33.0269H5.06826C4.69765 33.0269 4.39093 33.3273 4.39093 33.6879V41.8636C4.39093 42.2253 4.68913 42.5246 5.06826 42.5246ZM5.74559 34.349H12.767V41.2015H5.74559V34.349Z" fill="black"/>
</svg>
