<svg width="56" height="56" viewBox="0 0 56 56" fill="none" xmlns="http://www.w3.org/2000/svg">
<path d="M33.3375 32.4888L32.6812 30.73C32.5675 30.4325 32.3838 30.17 32.1387 29.9775L29.1463 27.5888C28.7963 27.3088 28.3587 27.1688 27.9037 27.2038L19.5387 27.9037C18.5238 27.9825 17.5788 27.4925 17.0713 26.6263L13.7025 21.0263C13.2562 20.2738 13.2125 19.355 13.58 18.5675C13.9475 17.78 14.6737 17.2288 15.5312 17.0888L22.6187 15.9075C22.89 15.8638 23.135 15.68 23.2575 15.4262L25.13 11.6813C25.235 11.4625 25.2525 11.2 25.165 10.9637L24.0013 8.0675C23.905 7.83125 23.7125 7.6475 23.4762 7.56875L21.6125 6.9475C21.28 6.83375 21.0438 6.53625 21.0175 6.195L20.8425 4.095C20.2125 4.235 19.5825 4.40125 18.9613 4.59375C18.4975 4.73375 18.0075 4.48 17.8675 4.01625C17.7275 3.5525 17.9813 3.0625 18.445 2.9225C19.4425 2.61625 20.4575 2.38875 21.4812 2.19625C21.5075 2.19625 21.525 2.17875 21.5512 2.17875C21.5512 2.17875 21.5688 2.17875 21.5775 2.17875C23.1262 1.89875 24.6925 1.74125 26.2675 1.74125C31.3512 1.74125 36.2863 3.2025 40.53 5.95875C40.9325 6.22125 41.0462 6.76375 40.7838 7.16625C40.6175 7.42 40.3375 7.56875 40.0488 7.56875C39.8825 7.56875 39.7163 7.525 39.5762 7.42875C38.0187 6.41375 36.3563 5.6 34.6237 4.97L34.2738 8.33875C34.2125 8.9075 34.44 9.47625 34.8775 9.84375L39.9613 14.2013C40.1362 14.35 40.2412 14.56 40.2675 14.7875L41.02 23.03C41.0725 23.6075 41.405 24.1237 41.9125 24.4037L47.7925 27.6675C48.125 27.8513 48.5187 27.93 48.9037 27.8687L50.7675 27.5888C50.715 24.5438 50.1287 21.595 48.9825 18.8037C48.7987 18.3575 49.0175 17.85 49.4637 17.6663C49.91 17.4825 50.4175 17.7013 50.6012 18.1475C52.4038 22.5575 52.8937 27.3 52.2637 31.6225C52.2025 32.06 51.8263 32.375 51.3975 32.375C51.3538 32.375 51.31 32.375 51.2663 32.3663C50.785 32.2963 50.4525 31.85 50.5225 31.3775C50.6188 30.73 50.6712 30.0562 50.715 29.3737L49.1488 29.61C48.9825 29.6362 48.8075 29.645 48.6325 29.645C48.0375 29.645 47.4513 29.4963 46.9263 29.2075L41.0462 25.9438C40.0312 25.3837 39.3662 24.36 39.2612 23.205L38.5438 15.3125L33.7313 11.1912C32.8563 10.4475 32.41 9.31875 32.5238 8.1725L32.9088 4.43625C30.7563 3.8325 28.5163 3.50875 26.25 3.50875C25.0075 3.50875 23.7738 3.605 22.5487 3.78875L22.6975 5.48625L24.01 5.92375C24.7362 6.16 25.34 6.72875 25.6112 7.44625L26.775 10.3338C27.0462 11.025 27.02 11.8038 26.6875 12.4688L24.815 16.2312C24.4388 16.975 23.7213 17.5088 22.9075 17.6488L15.8112 18.83C15.5225 18.8738 15.2863 19.0575 15.1637 19.32C15.0413 19.5912 15.0587 19.8888 15.2075 20.1425L18.5763 25.7513C18.7512 26.04 19.0662 26.2062 19.3988 26.18L27.7638 25.48C28.6562 25.41 29.54 25.6812 30.24 26.2412L33.2413 28.63C33.7313 29.0238 34.1075 29.54 34.3262 30.135L34.9825 31.9025C35.1488 32.3575 34.9212 32.8563 34.4662 33.0312C34.3612 33.0662 34.265 33.0838 34.16 33.0838C33.8013 33.0838 33.4688 32.865 33.3375 32.515V32.4888ZM31.3338 51.9662C29.7063 52.3162 27.9912 52.5 26.25 52.5C12.74 52.5 1.75 41.51 1.75 28C1.75 26.4425 1.9075 24.885 2.205 23.3538C2.4325 23.3275 2.66 23.2925 2.8875 23.2312L6.83375 22.19C7.21 22.0938 7.60375 22.2512 7.79625 22.5837L14.7438 34.16C14.8313 34.3088 14.875 34.4575 14.875 34.615V35.7C14.875 37.765 16.2838 39.5238 18.2962 39.9787L22.8725 40.9937L24.0537 46.9C24.395 48.6412 25.7425 49.9888 27.475 50.33L29.5662 50.75C29.6275 50.7588 29.68 50.7675 29.7413 50.7675C29.9425 50.7675 30.135 50.6975 30.2925 50.5662C30.4937 50.4 30.6163 50.155 30.6163 49.8925V45.7887L32.2088 43.5137C32.4888 43.12 32.3925 42.5687 31.99 42.2975C31.5963 42.0175 31.045 42.1138 30.7737 42.5163L29.0237 45.0187C28.9187 45.1675 28.8663 45.3425 28.8663 45.5175V48.825L27.8162 48.615C26.775 48.4137 25.97 47.6087 25.7688 46.5675L24.4737 40.1012C24.4037 39.76 24.1412 39.4975 23.8088 39.4188L18.6725 38.2812C17.465 38.01 16.6162 36.9512 16.6162 35.7175V34.6325C16.6162 34.1688 16.485 33.6963 16.24 33.285L9.2925 21.7087C8.6975 20.7113 7.49875 20.2213 6.37 20.5188L2.63375 21.5075C3.2025 19.425 4.03375 17.43 5.13625 15.5575C5.38125 15.1375 5.24125 14.6038 4.83 14.3587C4.41 14.1137 3.87625 14.2537 3.63125 14.665C1.16375 18.8475 0 23.4762 0 28C0 42.4725 11.7775 54.25 26.25 54.25C28.1138 54.25 29.9513 54.0575 31.7013 53.6812C32.1737 53.5762 32.4712 53.1125 32.375 52.64C32.27 52.1675 31.8063 51.87 31.3338 51.9662ZM56 36.75V52.5C56 54.4338 54.4338 56 52.5 56H36.75C34.8162 56 33.25 54.4338 33.25 52.5V36.75C33.25 34.8162 34.8162 33.25 36.75 33.25H52.5C54.4338 33.25 56 34.8162 56 36.75ZM42.875 35V39.375H46.375V35H42.875ZM54.25 36.75C54.25 35.7875 53.4625 35 52.5 35H48.125V40.25C48.125 40.7313 47.7313 41.125 47.25 41.125H42C41.5187 41.125 41.125 40.7313 41.125 40.25V35H36.75C35.7875 35 35 35.7875 35 36.75V52.5C35 53.4625 35.7875 54.25 36.75 54.25H52.5C53.4625 54.25 54.25 53.4625 54.25 52.5V36.75ZM39.375 50.75H37.625C37.1437 50.75 36.75 51.1437 36.75 51.625C36.75 52.1063 37.1437 52.5 37.625 52.5H39.375C39.8563 52.5 40.25 52.1063 40.25 51.625C40.25 51.1437 39.8563 50.75 39.375 50.75ZM41.125 47.25H37.625C37.1437 47.25 36.75 47.6437 36.75 48.125C36.75 48.6063 37.1437 49 37.625 49H41.125C41.6063 49 42 48.6063 42 48.125C42 47.6437 41.6063 47.25 41.125 47.25ZM2.625 7C2.625 3.14125 5.76625 0 9.625 0C13.4837 0 16.625 3.14125 16.625 7C16.625 10.5612 13.9475 13.51 10.5 13.9388V17.5C10.5 17.9813 10.1062 18.375 9.625 18.375C9.14375 18.375 8.75 17.9813 8.75 17.5V13.9388C5.3025 13.51 2.625 10.5612 2.625 7ZM4.375 7C4.375 9.89625 6.72875 12.25 9.625 12.25C12.5212 12.25 14.875 9.89625 14.875 7C14.875 4.10375 12.5212 1.75 9.625 1.75C6.72875 1.75 4.375 4.10375 4.375 7ZM7 7C7 5.55625 8.18125 4.375 9.625 4.375C11.0688 4.375 12.25 5.55625 12.25 7C12.25 8.44375 11.0688 9.625 9.625 9.625C8.18125 9.625 7 8.44375 7 7ZM8.75 7C8.75 7.48125 9.14375 7.875 9.625 7.875C10.1062 7.875 10.5 7.48125 10.5 7C10.5 6.51875 10.1062 6.125 9.625 6.125C9.14375 6.125 8.75 6.51875 8.75 7ZM41.125 11.375C41.125 8.47875 43.4787 6.125 46.375 6.125C49.2713 6.125 51.625 8.47875 51.625 11.375C51.625 13.9738 49.7262 16.1262 47.25 16.5462V20.125C47.25 20.6063 46.8563 21 46.375 21C45.8937 21 45.5 20.6063 45.5 20.125V16.5462C43.0238 16.1262 41.125 13.9738 41.125 11.375ZM42.875 11.375C42.875 13.3088 44.4412 14.875 46.375 14.875C48.3088 14.875 49.875 13.3088 49.875 11.375C49.875 9.44125 48.3088 7.875 46.375 7.875C44.4412 7.875 42.875 9.44125 42.875 11.375ZM46.375 12.25C46.8563 12.25 47.25 11.8562 47.25 11.375C47.25 10.8938 46.8563 10.5 46.375 10.5C45.8937 10.5 45.5 10.8938 45.5 11.375C45.5 11.8562 45.8937 12.25 46.375 12.25Z" fill="black"/>
</svg>
