<svg width="44" height="56" viewBox="0 0 44 56" fill="none" xmlns="http://www.w3.org/2000/svg">
<path d="M39.6 56H11.44C9.9792 56 8.8 54.8277 8.8 53.3755V37.6288H10.56V53.3755C10.56 53.8567 10.956 54.2504 11.44 54.2504H39.6C40.084 54.2504 40.48 53.8567 40.48 53.3755V37.6288H42.24V53.3755C42.24 54.8277 41.0608 56 39.6 56Z" fill="black"/>
<path d="M28.16 52.5007H22.88C21.912 52.5007 21.12 51.7134 21.12 50.7511V49.0015C21.12 48.0392 21.912 47.2518 22.88 47.2518H28.16C29.128 47.2518 29.92 48.0392 29.92 49.0015V50.7511C29.92 51.7134 29.128 52.5007 28.16 52.5007ZM22.88 49.0015V50.7511H28.16V49.0015H22.88Z" fill="black"/>
<path d="M37.84 43.7526H13.2V45.5022H37.84V43.7526Z" fill="black"/>
<path d="M38.72 0.886489H36.96V5.26058H38.72V0.886489Z" fill="black"/>
<path d="M29.04 42.0029C28.8376 42.0029 28.644 41.9329 28.4944 41.8105L24.332 38.5036H7.92C7.436 38.5036 7.04 38.11 7.04 37.6288V31.5051H8.8V36.754H24.64C24.8424 36.754 25.036 36.824 25.1856 36.9465L28.16 39.3085V37.6288C28.16 37.1477 28.556 36.754 29.04 36.754H42.24V1.76131H10.56V0.00292284H43.12C43.604 0.00292284 44 0.396591 44 0.87774V37.6201C44 38.1012 43.604 38.4949 43.12 38.4949H29.92V41.1194C29.92 41.6005 29.524 41.9942 29.04 41.9942V42.0029Z" fill="black"/>
<path d="M43.12 4.38576H14.96V6.13539H43.12V4.38576Z" fill="black"/>
<path d="M20.24 18.3828H0.88C0.396 18.3828 0 17.9892 0 17.508V14.0088C0 13.5276 0.396 13.1339 0.88 13.1339H6.9696L7.788 9.72215C5.3064 8.19996 4.532 4.96314 6.0632 2.49615C7.5944 0.0291672 10.8504 -0.740672 13.332 0.78151C15.8136 2.30369 16.588 5.54052 15.0568 8.0075C14.6256 8.70736 14.036 9.29349 13.332 9.72215L14.1504 13.1339H20.24C20.724 13.1339 21.12 13.5276 21.12 14.0088V17.508C21.12 17.9892 20.724 18.3828 20.24 18.3828ZM1.76 16.6332H19.36V14.8836H13.4552C13.0504 14.8836 12.6896 14.6036 12.6016 14.21L11.4664 9.46845C11.3696 9.05728 11.5808 8.63737 11.968 8.46241C13.7456 7.69257 14.564 5.628 13.7896 3.85212C13.0152 2.08499 10.9384 1.27141 9.152 2.04125C7.3744 2.81109 6.556 4.87566 7.3304 6.65154C7.6824 7.45637 8.3336 8.10373 9.152 8.46241C9.5392 8.62862 9.7504 9.05728 9.6536 9.46845L8.5184 14.21C8.4216 14.6036 8.0696 14.8836 7.6648 14.8836H1.76V16.6332Z" fill="black"/>
<path d="M22 29.7555H2.64C1.2232 29.7992 0.044 28.6882 0 27.2797C0 27.2272 0 27.1835 0 27.131V17.508H1.76V27.131C1.716 27.5684 2.0416 27.9621 2.4816 28.0058C2.5344 28.0058 2.5872 28.0058 2.64 28.0058H20.2928C19.6856 26.9386 19.3688 25.7313 19.36 24.5066V17.508H21.12V24.5066C21.1464 25.8975 21.6832 27.2272 22.6248 28.2595C22.968 28.6007 22.968 29.1518 22.6248 29.493C22.4576 29.6592 22.2376 29.7467 22 29.7467V29.7555Z" fill="black"/>
<path d="M20.24 20.1325H0.88V21.8821H20.24V20.1325Z" fill="black"/>
<path d="M35.2 19.2577C32.2872 19.2577 29.92 16.9044 29.92 14.0088C29.92 11.1131 32.2872 8.75985 35.2 8.75985C38.1128 8.75985 40.48 11.1131 40.48 14.0088C40.48 16.9044 38.1128 19.2577 35.2 19.2577ZM35.2 10.5095C33.2552 10.5095 31.68 12.0754 31.68 14.0088C31.68 15.9421 33.2552 17.508 35.2 17.508C37.1448 17.508 38.72 15.9421 38.72 14.0088C38.72 12.0754 37.1448 10.5095 35.2 10.5095Z" fill="black"/>
<path d="M39.6 14.8836H35.2C34.716 14.8836 34.32 14.4899 34.32 14.0088V9.63466H36.08V13.1339H39.6V14.8836Z" fill="black"/>
<path d="M34.5854 13.3882L31.5052 16.4502L32.7497 17.6874L35.8299 14.6254L34.5854 13.3882Z" fill="black"/>
<path d="M40.48 33.2547H25.52V35.0044H40.48V33.2547Z" fill="black"/>
<path d="M40.48 29.7555H25.52V31.5051H40.48V29.7555Z" fill="black"/>
<path d="M40.48 26.2562H25.52V28.0058H40.48V26.2562Z" fill="black"/>
<path d="M40.48 22.7569H22.88V24.5066H40.48V22.7569Z" fill="black"/>
<path d="M12.32 33.2547H10.56V35.0044H12.32V33.2547Z" fill="black"/>
<path d="M15.84 33.2547H14.08V35.0044H15.84V33.2547Z" fill="black"/>
<path d="M28.16 16.6332H23.76V18.3828H28.16V16.6332Z" fill="black"/>
<path d="M28.16 13.1339H23.76V14.8836H28.16V13.1339Z" fill="black"/>
<path d="M28.16 9.63466H23.76V11.3843H28.16V9.63466Z" fill="black"/>
</svg>
