<svg width="20" height="25" viewBox="0 0 20 25" fill="none" xmlns="http://www.w3.org/2000/svg">
<path d="M8.05556 0C7.36944 0 6.71389 0.212766 6.25 0.656915C5.98056 0.912234 5.81667 1.24468 5.70278 1.59574H4.72222C4.12222 1.59574 3.61111 2.08511 3.61111 2.65957V3.19149H2.5C1.13056 3.19149 0 4.27394 0 5.58511V21.0106C0 22.3218 1.13056 23.4043 2.5 23.4043H11.2833C12.2 24.3803 13.525 25 15 25C17.7528 25 20 22.8484 20 20.2128C20 18.8005 19.3528 17.5319 18.3333 16.6543V5.58511C18.3333 4.27394 17.2028 3.19149 15.8333 3.19149H14.7222V2.65957C14.7222 2.08511 14.2111 1.59574 13.6111 1.59574H12.6306C12.5167 1.24468 12.35 0.922872 12.0833 0.664894C11.6222 0.220745 10.9639 0 10.2778 0H8.05556ZM8.05556 1.59574H10.2778C10.6139 1.59574 10.7889 1.67553 10.9028 1.78723C11.0167 1.89628 11.1111 2.07181 11.1111 2.39362C11.1111 2.83511 11.4833 3.19149 11.9444 3.19149H13.0556V4.78723H5.27778V3.19149H6.38889C6.85 3.19149 7.22222 2.83511 7.22222 2.39362C7.22222 2.39096 7.22222 2.3883 7.22222 2.38564C7.22222 2.06649 7.31667 1.89628 7.43056 1.78723C7.54445 1.67819 7.71944 1.59574 8.05556 1.59574ZM2.5 4.78723H3.61111V5.31915C3.61111 5.89362 4.12222 6.38298 4.72222 6.38298H13.6111C14.2111 6.38298 14.7222 5.89362 14.7222 5.31915V4.78723H15.8333C16.3083 4.78723 16.6667 5.13032 16.6667 5.58511V15.7074C16.1444 15.5293 15.5861 15.4255 15 15.4255C12.2472 15.4255 10 17.5771 10 20.2128C10 20.7739 10.1083 21.3085 10.2944 21.8085H2.5C2.025 21.8085 1.66667 21.4654 1.66667 21.0106V5.58511C1.66667 5.13032 2.025 4.78723 2.5 4.78723ZM15 16.7553C17.0028 16.7553 18.6111 18.2952 18.6111 20.2128C18.6111 22.1303 17.0028 23.6702 15 23.6702C12.9972 23.6702 11.3889 22.1303 11.3889 20.2128C11.3889 18.2952 12.9972 16.7553 15 16.7553ZM15 17.0133C14.5389 17.0133 14.1667 17.3697 14.1667 17.8112C14.1667 18.2527 14.5389 18.609 15 18.609C15.4611 18.609 15.8333 18.2527 15.8333 17.8112C15.8333 17.3697 15.4611 17.0133 15 17.0133ZM15.0083 19.016C14.6278 19.016 14.3194 19.3085 14.3139 19.6729V22.6064C14.3139 22.9734 14.625 23.2713 15.0083 23.2713C15.3639 23.2713 15.7028 23.0106 15.7028 22.6064V19.6729C15.6972 19.3085 15.3889 19.016 15.0083 19.016Z" fill="black"/>
</svg>
