<svg width="20" height="18" viewBox="0 0 20 18" fill="none" xmlns="http://www.w3.org/2000/svg">
<path d="M0.640062 6.37476L6.49186 5.91656C6.75157 5.89635 6.9803 5.74137 7.08037 5.51227L9.34866 0.406954C9.58931 -0.134349 10.4018 -0.134349 10.6424 0.406954L12.9131 5.51227C13.0132 5.73912 13.2419 5.89635 13.5016 5.91656L19.3534 6.37476C19.9729 6.42417 20.2255 7.1519 19.7537 7.53373L15.3053 11.1454C15.1075 11.3071 15.0194 11.5587 15.0813 11.799L16.4275 17.1851C16.5705 17.7556 15.9129 18.2071 15.3815 17.9016L10.3637 15.0289C10.1397 14.9008 9.85855 14.9008 9.63458 15.0289L4.61671 17.9016C4.08538 18.2071 3.42777 17.7556 3.57073 17.1851L4.91693 11.799C4.97649 11.5587 4.89072 11.3071 4.69296 11.1454L0.244539 7.53373C-0.227226 7.1519 0.0253353 6.42193 0.644827 6.37476H0.640062Z" fill="#F6AE24"/>
</svg>
