<svg width="20" height="20" viewBox="0 0 20 20" fill="none" xmlns="http://www.w3.org/2000/svg">
<path d="M3.33333 20H16.6667C18.5083 20 20 18.5083 20 16.6667V3.33333C20 1.49167 18.5083 0 16.6667 0H3.33333C1.49167 0 0 1.49167 0 3.33333V16.6667C0 18.5083 1.49167 20 3.33333 20ZM16.6667 18.3333H3.33333C2.4125 18.3333 1.66667 17.5875 1.66667 16.6667V6.66667H18.3333V16.6667C18.3333 17.5875 17.5875 18.3333 16.6667 18.3333ZM3.33333 1.66667H16.6667C17.5875 1.66667 18.3333 2.4125 18.3333 3.33333V5H1.66667V3.33333C1.66667 2.4125 2.4125 1.66667 3.33333 1.66667Z" fill="black"/>
<path d="M5 13.3333C5.46024 13.3333 5.83333 12.9602 5.83333 12.5C5.83333 12.0398 5.46024 11.6667 5 11.6667C4.53976 11.6667 4.16667 12.0398 4.16667 12.5C4.16667 12.9602 4.53976 13.3333 5 13.3333Z" fill="black"/>
<path d="M5 16.6667C5.46024 16.6667 5.83333 16.2936 5.83333 15.8333C5.83333 15.3731 5.46024 15 5 15C4.53976 15 4.16667 15.3731 4.16667 15.8333C4.16667 16.2936 4.53976 16.6667 5 16.6667Z" fill="black"/>
<path d="M8.33333 13.3333C8.79357 13.3333 9.16667 12.9602 9.16667 12.5C9.16667 12.0398 8.79357 11.6667 8.33333 11.6667C7.8731 11.6667 7.5 12.0398 7.5 12.5C7.5 12.9602 7.8731 13.3333 8.33333 13.3333Z" fill="black"/>
<path d="M8.33333 16.6667C8.79357 16.6667 9.16667 16.2936 9.16667 15.8333C9.16667 15.3731 8.79357 15 8.33333 15C7.8731 15 7.5 15.3731 7.5 15.8333C7.5 16.2936 7.8731 16.6667 8.33333 16.6667Z" fill="black"/>
<path d="M11.6667 13.3333C12.1269 13.3333 12.5 12.9602 12.5 12.5C12.5 12.0398 12.1269 11.6667 11.6667 11.6667C11.2064 11.6667 10.8333 12.0398 10.8333 12.5C10.8333 12.9602 11.2064 13.3333 11.6667 13.3333Z" fill="black"/>
<path d="M11.6667 16.6667C12.1269 16.6667 12.5 16.2936 12.5 15.8333C12.5 15.3731 12.1269 15 11.6667 15C11.2064 15 10.8333 15.3731 10.8333 15.8333C10.8333 16.2936 11.2064 16.6667 11.6667 16.6667Z" fill="black"/>
<path d="M15 13.3333C15.4602 13.3333 15.8333 12.9602 15.8333 12.5C15.8333 12.0398 15.4602 11.6667 15 11.6667C14.5398 11.6667 14.1667 12.0398 14.1667 12.5C14.1667 12.9602 14.5398 13.3333 15 13.3333Z" fill="black"/>
<path d="M8.33333 10C8.79357 10 9.16667 9.6269 9.16667 9.16667C9.16667 8.70643 8.79357 8.33333 8.33333 8.33333C7.8731 8.33333 7.5 8.70643 7.5 9.16667C7.5 9.6269 7.8731 10 8.33333 10Z" fill="black"/>
<path d="M11.6667 10C12.1269 10 12.5 9.6269 12.5 9.16667C12.5 8.70643 12.1269 8.33333 11.6667 8.33333C11.2064 8.33333 10.8333 8.70643 10.8333 9.16667C10.8333 9.6269 11.2064 10 11.6667 10Z" fill="black"/>
<path d="M15 10C15.4602 10 15.8333 9.6269 15.8333 9.16667C15.8333 8.70643 15.4602 8.33333 15 8.33333C14.5398 8.33333 14.1667 8.70643 14.1667 9.16667C14.1667 9.6269 14.5398 10 15 10Z" fill="black"/>
</svg>
