<svg width="66" height="50" viewBox="0 0 66 50" fill="none" xmlns="http://www.w3.org/2000/svg">
<circle cx="20" cy="30" r="20" fill="#F6AE24"/>
<path d="M65.1148 8.07504H47.4098V6.28059C47.4098 5.78711 47.0115 5.38336 46.5246 5.38336C46.0377 5.38336 45.6393 5.78711 45.6393 6.28059V8.07504H28.8197C28.3328 8.07504 27.9344 8.47879 27.9344 8.97227V35.8891C27.9344 36.3825 28.3328 36.7863 28.8197 36.7863H45.6393V42.2055H36.6895C36.2026 42.2055 35.8043 42.6093 35.8043 43.1028C35.8043 43.5962 36.2026 44 36.6895 44H56.3597C56.8466 44 57.2449 43.5962 57.2449 43.1028C57.2449 42.6093 56.8466 42.2055 56.3597 42.2055H47.4098V36.7863H65.1148C65.6016 36.7863 66 36.3825 66 35.8891V8.97227C66 8.47879 65.6016 8.07504 65.1148 8.07504ZM64.2295 34.9918H29.7049V9.86949H64.2295V34.9918Z" fill="black"/>
<path d="M39.6993 13.7186L36.7869 16.6705L34.7597 14.6158C34.4144 14.2659 33.8567 14.2659 33.5115 14.6158C33.1662 14.9657 33.1662 15.531 33.5115 15.8809L36.1672 18.5726C36.3443 18.752 36.5656 18.8328 36.7957 18.8328C37.0259 18.8328 37.2472 18.7431 37.4243 18.5726L40.9652 14.9837C41.3105 14.6338 41.3105 14.0685 40.9652 13.7186C40.62 13.3687 40.0623 13.3687 39.717 13.7186H39.6993Z" fill="black"/>
<path d="M43.8689 15.2529C43.8689 15.7463 44.2672 16.1501 44.7541 16.1501H58.918C59.4049 16.1501 59.8033 15.7463 59.8033 15.2529C59.8033 14.7594 59.4049 14.3556 58.918 14.3556H44.7541C44.2672 14.3556 43.8689 14.7594 43.8689 15.2529Z" fill="black"/>
<path d="M39.6993 20.8964L36.7869 23.8483L34.7597 21.7936C34.4144 21.4437 33.8567 21.4437 33.5115 21.7936C33.1662 22.1436 33.1662 22.7088 33.5115 23.0587L36.1672 25.7504C36.3443 25.9299 36.5656 26.0106 36.7957 26.0106C37.0259 26.0106 37.2472 25.9209 37.4243 25.7504L40.9652 22.1615C41.3105 21.8116 41.3105 21.2463 40.9652 20.8964C40.62 20.5465 40.0623 20.5465 39.717 20.8964H39.6993Z" fill="black"/>
<path d="M58.918 21.5334H44.7541C44.2672 21.5334 43.8689 21.9372 43.8689 22.4307C43.8689 22.9241 44.2672 23.3279 44.7541 23.3279H58.918C59.4049 23.3279 59.8033 22.9241 59.8033 22.4307C59.8033 21.9372 59.4049 21.5334 58.918 21.5334Z" fill="black"/>
<path d="M58.918 28.7113H44.7541C44.2672 28.7113 43.8689 29.115 43.8689 29.6085C43.8689 30.102 44.2672 30.5057 44.7541 30.5057H58.918C59.4049 30.5057 59.8033 30.102 59.8033 29.6085C59.8033 29.115 59.4049 28.7113 58.918 28.7113Z" fill="black"/>
<path d="M36.7869 30.5057C37.2758 30.5057 37.6721 30.104 37.6721 29.6085C37.6721 29.113 37.2758 28.7113 36.7869 28.7113C36.298 28.7113 35.9016 29.113 35.9016 29.6085C35.9016 30.104 36.298 30.5057 36.7869 30.5057Z" fill="black"/>
<path d="M23.5082 11.6639H19.082V10.2643C19.082 9.7708 18.6836 9.36705 18.1967 9.36705C17.7098 9.36705 17.3115 9.7708 17.3115 10.2643V11.6639H12.8852C12.3984 11.6639 12 12.0677 12 12.5612V19.739C12 20.2325 12.3984 20.6362 12.8852 20.6362H17.3115V22.4307H15.541C15.0541 22.4307 14.6557 22.8344 14.6557 23.3279C14.6557 23.8214 15.0541 24.2251 15.541 24.2251H20.8525C21.3393 24.2251 21.7377 23.8214 21.7377 23.3279C21.7377 22.8344 21.3393 22.4307 20.8525 22.4307H19.082V20.6362H23.5082C23.9951 20.6362 24.3934 20.2325 24.3934 19.739V12.5612C24.3934 12.0677 23.9951 11.6639 23.5082 11.6639ZM22.623 18.8418H13.7705V13.4584H22.623V18.8418Z" fill="black"/>
<path d="M29.0675 1.79445H31.7233C32.2102 1.79445 32.6085 1.3907 32.6085 0.897227C32.6085 0.403752 32.2102 0 31.7233 0H29.0675C28.5807 0 28.1823 0.403752 28.1823 0.897227C28.1823 1.3907 28.5807 1.79445 29.0675 1.79445Z" fill="black"/>
<path d="M43.1695 1.80343C43.8334 1.84829 44.462 2.15334 44.9223 2.65579C45.0993 2.84421 45.3295 2.9429 45.5685 2.9429C45.781 2.9429 46.0023 2.86215 46.1705 2.70065C46.5246 2.35971 46.5511 1.79445 46.2148 1.43556C45.4446 0.601142 44.4089 0.0986949 43.2934 0.0179445C42.7977 -0.0269168 42.3816 0.358891 42.3462 0.852365C42.3108 1.34584 42.6826 1.77651 43.1695 1.8124V1.80343Z" fill="black"/>
<path d="M36.1495 1.79445H38.8052C39.2921 1.79445 39.6905 1.3907 39.6905 0.897227C39.6905 0.403752 39.2921 0 38.8052 0H36.1495C35.6626 0 35.2643 0.403752 35.2643 0.897227C35.2643 1.3907 35.6626 1.79445 36.1495 1.79445Z" fill="black"/>
<path d="M18.1967 6.67537C18.6836 6.67537 19.082 6.27162 19.082 5.77814V4.48613C19.082 4.13622 19.1528 3.7863 19.2856 3.4633C19.4715 3.00571 19.259 2.48532 18.8075 2.28793C18.3561 2.09951 17.8338 2.31484 17.6479 2.77243C17.4266 3.31974 17.3115 3.89396 17.3115 4.48613V5.77814C17.3115 6.27162 17.7098 6.67537 18.1967 6.67537Z" fill="black"/>
<path d="M24.6413 0H21.9856C21.4987 0 21.1003 0.403752 21.1003 0.897227C21.1003 1.3907 21.4987 1.79445 21.9856 1.79445H24.6413C25.1282 1.79445 25.5266 1.3907 25.5266 0.897227C25.5266 0.403752 25.1282 0 24.6413 0Z" fill="black"/>
</svg>
