<svg width="22" height="24" viewBox="0 0 22 24" fill="none" xmlns="http://www.w3.org/2000/svg">
<path d="M18.3816 0H3.61842C1.62105 0 0 1.52727 0 3.40909V23.9182H2.02632V21.4636C2.52132 21.6955 3.06553 21.8182 3.61842 21.8182H18.3816C18.9345 21.8182 19.4787 21.6955 19.9737 21.4636V24H22V3.40909C22 1.52727 20.3789 0 18.3816 0ZM9.98684 19.9091H3.61842C2.73842 19.9091 2.02632 19.2382 2.02632 18.4091V14.3455H9.98684V19.9091ZM9.98684 12.4636H2.02632V3.40909C2.02632 2.58 2.73842 1.90909 3.61842 1.90909H9.98684V12.4636ZM19.9737 18.4091C19.9737 19.2382 19.2616 19.9091 18.3816 19.9091H12.0132V14.3455H19.9737V18.4091ZM19.9737 12.4636H12.0132V8.29091H19.9737V12.4636ZM19.9737 6.40909H12.0132V1.90909H18.3816C19.2616 1.90909 19.9737 2.58 19.9737 3.40909V6.40909Z" fill="black"/>
<path d="M5.0369 17.6182H8.22111C8.77979 17.6182 9.23427 17.19 9.23427 16.6636C9.23427 16.1373 8.77979 15.7091 8.22111 15.7091H5.0369C4.47821 15.7091 4.02374 16.1373 4.02374 16.6636C4.02374 17.19 4.47821 17.6182 5.0369 17.6182Z" fill="black"/>
<path d="M13.779 17.8364H16.9632C17.5219 17.8364 17.9764 17.4082 17.9764 16.8818C17.9764 16.3555 17.5219 15.9273 16.9632 15.9273H13.779C13.2203 15.9273 12.7658 16.3555 12.7658 16.8818C12.7658 17.4082 13.2203 17.8364 13.779 17.8364Z" fill="black"/>
</svg>
