<svg width="25" height="26" viewBox="0 0 25 26" fill="none" xmlns="http://www.w3.org/2000/svg">
<path d="M11.19 5.86999H9.94998C4.48998 5.86999 0.0499878 10.31 0.0499878 15.77C0.0499878 21.23 4.48998 25.67 9.94998 25.67C15.41 25.67 19.85 21.23 19.85 15.77V14.53H11.19V5.86999ZM17.27 17.01C16.68 20.51 13.62 23.2 9.94998 23.2C5.85998 23.2 2.52998 19.87 2.52998 15.78C2.52998 12.11 5.20999 9.04999 8.71999 8.45999V17.02H17.27V17.01Z" fill="#555555"/>
<path d="M14.9 0.929993H13.66V12.07H24.8V10.83C24.8 5.36999 20.36 0.929993 14.9 0.929993ZM16.14 9.58999V3.50999C19.24 4.02999 21.7 6.48999 22.22 9.58999H16.14Z" fill="#555555"/>
</svg>
