<svg width="20" height="16" viewBox="0 0 20 16" fill="none" xmlns="http://www.w3.org/2000/svg">
<path d="M2.40336 16.0002H17.5976C18.9246 16.0002 19.9994 14.969 19.9994 13.6959C19.9994 12.8526 19.5203 12.0771 18.7496 11.6734L10.8337 7.53055V6.30547C12.5252 5.88778 13.5939 4.28498 13.2814 2.63622C12.9564 0.897521 11.2254 -0.259612 9.41304 0.050156C7.81946 0.323951 6.66125 1.65495 6.66749 3.20779C6.66749 3.64946 7.04037 4.00719 7.50074 4.00719C7.96111 4.00719 8.33399 3.64946 8.33399 3.20779C8.33399 2.32445 9.07766 1.60899 9.9984 1.60699C10.1026 1.60699 10.2067 1.61698 10.3088 1.63497C10.9816 1.76087 11.5087 2.2645 11.6399 2.91001C11.8107 3.77736 11.217 4.61473 10.3129 4.77861C10.2109 4.7966 10.1046 4.80659 10.0005 4.80659C9.54011 4.80659 9.16723 5.16432 9.16723 5.60599V7.52855L1.25139 11.6734C0.0869306 12.283 -0.342191 13.6839 0.295242 14.8011C0.716032 15.5405 1.52636 16.0022 2.40336 16.0002ZM2.05131 13.0764L10.0005 8.91751L17.9497 13.0764C18.3059 13.2622 18.4371 13.6919 18.2434 14.0337C18.1142 14.2615 17.8663 14.4014 17.5976 14.4014H2.40336C1.99715 14.4014 1.66802 14.0856 1.66802 13.6959C1.66802 13.4381 1.81592 13.2003 2.05131 13.0764Z" fill="#F6AE24"/>
</svg>
