<svg width="80" height="80" viewBox="0 0 80 80" fill="none" xmlns="http://www.w3.org/2000/svg">
<rect x="0.5" y="0.5" width="79" height="79" rx="3.5" fill="white" stroke="#CCCCCC"/>
<path d="M30.4969 62.192V55.712H31.6369V62.192H30.4969ZM29.2489 62.192H28.1449V59.216H26.8369V58.184H28.1449V55.832H29.2489V62.192ZM27.1249 60.572L27.2569 61.592C26.3089 61.772 25.3489 61.868 23.9089 61.868H22.2289V56.24H26.5129V57.284H23.3929V58.496H26.4169V59.516H23.3929V60.824H24.1369C25.2409 60.824 26.1409 60.74 27.1249 60.572ZM30.4369 63.992H24.0889V62.888H31.6369V66.968H30.4369V63.992ZM37.4133 61.904L36.9573 60.848C39.5973 59.936 40.8333 58.928 40.9173 57.824H37.5813V56.768H40.9173V55.532H42.1172V56.768H45.3693V57.824H42.1172C42.1053 58.196 42.0213 58.544 41.8773 58.88L45.9813 60.872L45.4533 61.904L41.2173 59.828C40.4613 60.608 39.2253 61.292 37.4133 61.904ZM36.2373 62.852H46.7013V63.944H42.0693V66.968H40.8813V63.944H36.2373V62.852ZM56.5322 59.9H58.2602V60.992H56.5322V66.848H55.3322V55.712H56.5322V59.9ZM52.0922 57.68H48.0242V56.588H53.2922V57.572C53.2922 60.728 51.5162 63.464 48.5162 65.516L47.7722 64.568C50.5922 62.72 52.0922 60.164 52.0922 57.812V57.68Z" fill="black"/>
<path d="M49.3333 23.1935H52C53.1067 23.1935 54 22.329 54 21.2581C54 20.1871 53.1067 19.3226 52 19.3226H45.3333C44.9667 19.3226 44.6667 19.0323 44.6667 18.6774C44.6667 18.3226 44.9667 18.0323 45.3333 18.0323H52C53.1067 18.0323 54 17.1677 54 16.0968C54 15.0258 53.1067 14.1613 52 14.1613H47.3333V15.4516H52C52.3667 15.4516 52.6667 15.7419 52.6667 16.0968C52.6667 16.4516 52.3667 16.7419 52 16.7419H45.3333C44.2267 16.7419 43.3333 17.6065 43.3333 18.6774C43.3333 19.7484 44.2267 20.6129 45.3333 20.6129H52C52.3667 20.6129 52.6667 20.9032 52.6667 21.2581C52.6667 21.6129 52.3667 21.9032 52 21.9032H49.3333C48.2267 21.9032 47.3333 22.7677 47.3333 23.8387V24.4839H43.3333V23.8387C43.3333 23.4839 43.0333 23.1935 42.6667 23.1935C40.8267 23.1935 39.3333 21.7484 39.3333 19.9677C39.3333 19.6129 39.0333 19.3226 38.6667 19.3226H35.3333V18.6774C35.3333 17.6065 34.44 16.7419 33.3333 16.7419H32C31.6333 16.7419 31.3333 16.4516 31.3333 16.0968C31.3333 15.7419 31.6333 15.4516 32 15.4516H37.3333C38.44 15.4516 39.3333 14.5871 39.3333 13.5161C39.3333 12.4452 38.44 11.5806 37.3333 11.5806H32C31.6333 11.5806 31.3333 11.2903 31.3333 10.9355C31.3333 10.5806 31.6333 10.2903 32 10.2903H35.3333V9H32C30.8933 9 30 9.86452 30 10.9355C30 12.0065 30.8933 12.871 32 12.871H37.3333C37.7 12.871 38 13.1613 38 13.5161C38 13.871 37.7 14.1613 37.3333 14.1613H32C30.8933 14.1613 30 15.0258 30 16.0968C30 17.1677 30.8933 18.0323 32 18.0323H33.3333C33.7 18.0323 34 18.3226 34 18.6774V19.3226H30.6667C30.3 19.3226 30 19.6129 30 19.9677C30 21.7484 28.5067 23.1935 26.6667 23.1935C26.3 23.1935 26 23.4839 26 23.8387V48.3548C26 48.7097 26.3 49 26.6667 49H42.6667C43.0333 49 43.3333 48.7097 43.3333 48.3548V42.5484H53.3333C53.7 42.5484 54 42.2581 54 41.9032V25.129C54 24.7742 53.7 24.4839 53.3333 24.4839H48.6667V23.8387C48.6667 23.4839 48.9667 23.1935 49.3333 23.1935ZM31.2867 20.6129H34V21.9935C32.5733 22.3484 31.7133 23.7548 32.0867 25.1355C32.4533 26.5161 33.9067 27.3484 35.3333 26.9871C36.76 26.6323 37.62 25.2258 37.2467 23.8452C37.0067 22.9355 36.2733 22.2258 35.3333 21.9935V20.6129H38.0467C38.3467 22.5935 39.9533 24.1484 42 24.4387V45.129H27.3333V24.4387C29.38 24.1484 30.9867 22.5935 31.2867 20.6129ZM34.6667 23.1935C35.4 23.1935 36 23.7742 36 24.4839C36 25.1935 35.4 25.7742 34.6667 25.7742C33.9333 25.7742 33.3333 25.1935 33.3333 24.4839C33.3333 23.7742 33.9333 23.1935 34.6667 23.1935ZM27.3333 47.7097V46.4194H42V47.7097H27.3333ZM43.3333 41.2581V39.9677H52.6667V41.2581H43.3333ZM52.6667 25.7742V38.6774H43.3333V25.7742H47.3333V27.1548C45.9067 27.5097 45.0467 28.9161 45.42 30.2968C45.7867 31.6774 47.24 32.5097 48.6667 32.1484C50.0933 31.7871 50.9533 30.3871 50.58 29.0065C50.34 28.0968 49.6067 27.3871 48.6667 27.1548V25.7742H52.6667ZM48 28.3548C48.7333 28.3548 49.3333 28.9355 49.3333 29.6452C49.3333 30.3548 48.7333 30.9355 48 30.9355C47.2667 30.9355 46.6667 30.3548 46.6667 29.6452C46.6667 28.9355 47.2667 28.3548 48 28.3548Z" fill="black"/>
<path d="M29.3333 43.8387H40C40.3667 43.8387 40.6667 43.5484 40.6667 43.1935V29C40.6667 28.6452 40.3667 28.3548 40 28.3548H29.3333C28.9667 28.3548 28.6667 28.6452 28.6667 29V43.1935C28.6667 43.5484 28.9667 43.8387 29.3333 43.8387ZM30 29.6452H39.3333V42.5484H38V31.5806H36.6667V42.5484H35.3333V32.871H34V42.5484H32.6667V34.1613H31.3333V42.5484H30V29.6452Z" fill="black"/>
</svg>
