<svg width="24" height="24" viewBox="0 0 24 24" fill="none" xmlns="http://www.w3.org/2000/svg">
<path d="M4 24H20C22.21 24 24 22.21 24 20V4C24 1.79 22.21 0 20 0H4C1.79 0 0 1.79 0 4V20C0 22.21 1.79 24 4 24ZM20 22H4C2.895 22 2 21.105 2 20V8H22V20C22 21.105 21.105 22 20 22ZM4 2H20C21.105 2 22 2.895 22 4V6H2V4C2 2.895 2.895 2 4 2Z" fill="black"/>
<path d="M6 16C6.55228 16 7 15.5523 7 15C7 14.4477 6.55228 14 6 14C5.44772 14 5 14.4477 5 15C5 15.5523 5.44772 16 6 16Z" fill="black"/>
<path d="M6 20C6.55228 20 7 19.5523 7 19C7 18.4477 6.55228 18 6 18C5.44772 18 5 18.4477 5 19C5 19.5523 5.44772 20 6 20Z" fill="black"/>
<path d="M10 16C10.5523 16 11 15.5523 11 15C11 14.4477 10.5523 14 10 14C9.44771 14 9 14.4477 9 15C9 15.5523 9.44771 16 10 16Z" fill="black"/>
<path d="M10 20C10.5523 20 11 19.5523 11 19C11 18.4477 10.5523 18 10 18C9.44771 18 9 18.4477 9 19C9 19.5523 9.44771 20 10 20Z" fill="black"/>
<path d="M14 16C14.5523 16 15 15.5523 15 15C15 14.4477 14.5523 14 14 14C13.4477 14 13 14.4477 13 15C13 15.5523 13.4477 16 14 16Z" fill="black"/>
<path d="M14 20C14.5523 20 15 19.5523 15 19C15 18.4477 14.5523 18 14 18C13.4477 18 13 18.4477 13 19C13 19.5523 13.4477 20 14 20Z" fill="black"/>
<path d="M18 16C18.5523 16 19 15.5523 19 15C19 14.4477 18.5523 14 18 14C17.4477 14 17 14.4477 17 15C17 15.5523 17.4477 16 18 16Z" fill="black"/>
<path d="M10 12C10.5523 12 11 11.5523 11 11C11 10.4477 10.5523 10 10 10C9.44771 10 9 10.4477 9 11C9 11.5523 9.44771 12 10 12Z" fill="black"/>
<path d="M14 12C14.5523 12 15 11.5523 15 11C15 10.4477 14.5523 10 14 10C13.4477 10 13 10.4477 13 11C13 11.5523 13.4477 12 14 12Z" fill="black"/>
<path d="M18 12C18.5523 12 19 11.5523 19 11C19 10.4477 18.5523 10 18 10C17.4477 10 17 10.4477 17 11C17 11.5523 17.4477 12 18 12Z" fill="black"/>
</svg>
