<svg width="41" height="34" viewBox="0 0 41 34" fill="none" xmlns="http://www.w3.org/2000/svg">
<path d="M24.9668 18.2328V18.1669C24.9668 18.1339 24.9668 18.1009 24.9335 18.1009C24.9335 18.0679 24.9003 18.0349 24.9003 18.0349C24.9003 18.0019 24.867 18.0019 24.867 17.9689C24.867 17.9359 24.8338 17.9359 24.8338 17.903C24.8338 17.87 24.8005 17.87 24.7673 17.837L24.7008 17.771C24.6786 17.749 24.6565 17.738 24.6343 17.738L24.5678 17.672H24.5346C24.5346 17.672 24.5013 17.672 24.5013 17.6391C24.4681 17.6391 24.4348 17.6061 24.4348 17.6061C24.4016 17.6061 24.3684 17.5731 24.3684 17.5731C24.3351 17.5731 24.3019 17.5731 24.3019 17.5401H23.5705L24.1356 15.2639C24.2021 15.033 24.1689 14.8351 24.0359 14.6372C23.9029 14.4392 23.7367 14.3073 23.504 14.2743L18.0851 13.0208C17.6529 12.9218 17.2207 13.1857 17.0878 13.6146L16.988 14.0104L15.2593 13.4496C15.0266 13.3836 14.7939 13.3836 14.5944 13.5156L12.7992 14.5052C12.1011 14.0764 11.3032 13.8455 10.4056 13.8455C8.17819 13.8455 6.31649 15.4619 5.91755 17.5731H4.92021L4.58777 14.2083C4.55452 13.7795 4.18883 13.4496 3.75665 13.4496H0.831117C0.365692 13.4496 0 13.8125 0 14.2743C0 14.7361 0.365692 15.099 0.831117 15.099H3.02527L3.35771 18.4638L4.18883 28.0632L3.69016 29.0858C3.55718 29.0528 3.45745 29.0528 3.35771 29.0528C1.99468 29.0528 0.864362 30.1744 0.864362 31.5269C0.864362 32.8794 1.99468 34.001 3.35771 34.001C4.45479 34.001 5.35239 33.3082 5.71809 32.3516H17.6529C17.9854 33.3082 18.9162 34.001 20.0133 34.001C21.3763 34.001 22.5066 32.8794 22.5066 31.5269C22.5066 30.1744 21.3431 29.0528 19.9801 29.0528C18.883 29.0528 17.9854 29.7456 17.6197 30.7022H5.71809C5.58511 30.3723 5.41888 30.0754 5.15293 29.8115L5.55186 29.0528H18.3178C18.617 29.0528 18.883 28.8879 19.0492 28.657L24.867 18.7606C24.867 18.7606 24.867 18.7277 24.9003 18.7277C24.9003 18.6947 24.9335 18.6617 24.9335 18.6287C24.9335 18.5957 24.9335 18.5627 24.9668 18.5627C24.9668 18.5297 24.9668 18.4967 25 18.4967V18.3318C24.9668 18.2658 24.9668 18.2328 24.9668 18.2328ZM3.35771 32.3516C2.89229 32.3516 2.5266 31.9887 2.5266 31.5269C2.5266 31.0651 2.89229 30.7022 3.35771 30.7022C3.82314 30.7022 4.18883 31.0651 4.18883 31.5269C4.18883 31.9887 3.82314 32.3516 3.35771 32.3516ZM19.9801 30.7022C20.4455 30.7022 20.8112 31.0651 20.8112 31.5269C20.8112 31.9887 20.4455 32.3516 19.9801 32.3516C19.5146 32.3516 19.1489 31.9887 19.1489 31.5269C19.1489 31.0651 19.5146 30.7022 19.9801 30.7022ZM18.484 14.7691L22.3072 15.6598L21.8085 17.5071H17.7194L18.484 14.7691ZM16.6556 19.1565H17.8856L17.1875 20.8059H14.3617L14.7939 19.1565H16.6556ZM15.0931 15.099L16.5559 15.5938L16.0239 17.5071H14.9269C14.7939 16.8144 14.5279 16.1876 14.129 15.6598L15.0931 15.099ZM10.4388 15.4619C11.7686 15.4619 12.8657 16.3195 13.2314 17.5401H7.64628C7.97872 16.3195 9.10904 15.4619 10.4388 15.4619ZM7.57979 27.4034H5.78457L5.6516 25.754H7.71277L7.57979 27.4034ZM7.84575 24.1047H5.48537L5.35239 22.4553H7.97872L7.84575 24.1047ZM8.14495 20.8059H5.25266L5.11968 19.1565H8.27793L8.14495 20.8059ZM11.004 27.4034H9.24202L9.375 25.754H11.4362L11.004 27.4034ZM11.8351 24.1047H9.50798L9.64096 22.4553H12.234L11.8351 24.1047ZM9.80718 20.8059L9.94016 19.1565H13.0984L12.6662 20.8059H9.80718ZM14.4282 27.4034H12.7327L13.1649 25.754H15.1596L14.4282 27.4034ZM13.5638 24.1047L13.996 22.4553H16.5226L15.8245 24.1047H13.5638ZM17.8524 27.4034H16.2566L16.9548 25.754H18.8165L17.8524 27.4034ZM19.7806 24.1047H17.6197L18.3178 22.4553H20.7447L19.7806 24.1047ZM21.7088 20.8059H19.016L19.7141 19.1565H22.7061L21.7088 20.8059Z" fill="black"/>
<circle cx="28" cy="13" r="13" fill="#F6AE24"/>
<path d="M23 12H33V14H23V12Z" fill="white"/>
<path d="M29 8L29 18H27L27 8L29 8Z" fill="white"/>
</svg>
