<svg width="25" height="26" viewBox="0 0 25 26" fill="none" xmlns="http://www.w3.org/2000/svg">
<path d="M25 13.8652C25 10.8148 22.6657 8.29138 19.6429 7.86988V3.00597C19.6429 1.3477 18.2543 0 16.5457 0H3.09714C1.38857 0 0 1.3477 0 3.00597V25.132C0 25.4343 0.16 25.7116 0.422857 25.8697C0.685714 26.0277 1.01429 26.0416 1.29143 25.9085L9.82 21.7683L18.3486 25.9085C18.4771 25.9695 18.6114 26 18.7486 26C18.9114 26 19.0743 25.9556 19.2171 25.8724C19.48 25.7144 19.64 25.4371 19.64 25.1348V19.866C22.6629 19.4445 24.9971 16.9183 24.9971 13.8707L25 13.8652ZM3.09714 1.73315H16.5486C17.2714 1.73315 17.86 2.30162 17.86 3.00597V4.33426H1.78571V3.00597C1.78571 2.30439 2.37143 1.73315 3.09714 1.73315ZM10.22 20.0213C9.96857 19.8993 9.67429 19.8993 9.42 20.0213L1.78286 23.7261V6.06741H17.8543V7.86988C14.8314 8.29138 12.4971 10.8176 12.4971 13.8652C12.4971 16.9128 14.8314 19.439 17.8543 19.8605V23.7261L10.2171 20.0213H10.22ZM18.7514 18.1967C16.2886 18.1967 14.2886 16.2528 14.2886 13.8652C14.2886 11.4776 16.2914 9.5337 18.7514 9.5337C21.2114 9.5337 23.2143 11.4776 23.2143 13.8652C23.2143 16.2528 21.2114 18.1967 18.7514 18.1967Z" fill="#555555"/>
<path d="M9.82 8.66574H4.46286C3.96857 8.66574 3.57143 9.05397 3.57143 9.53093C3.57143 10.0079 3.97143 10.3961 4.46286 10.3961H9.82C10.3143 10.3961 10.7114 10.0079 10.7114 9.53093C10.7114 9.05397 10.3114 8.66574 9.82 8.66574Z" fill="#555555"/>
<path d="M9.82 12.132H4.46286C3.96857 12.132 3.57143 12.5203 3.57143 12.9972C3.57143 13.4742 3.97143 13.8624 4.46286 13.8624H9.82C10.3143 13.8624 10.7114 13.4742 10.7114 12.9972C10.7114 12.5203 10.3114 12.132 9.82 12.132Z" fill="#555555"/>
<path d="M9.82 15.5983H4.46286C3.96857 15.5983 3.57143 15.9866 3.57143 16.4635C3.57143 16.9405 3.97143 17.3287 4.46286 17.3287H9.82C10.3143 17.3287 10.7114 16.9405 10.7114 16.4635C10.7114 15.9866 10.3114 15.5983 9.82 15.5983Z" fill="#555555"/>
<path d="M18.7514 15.9477C19.9365 15.9477 20.8971 15.0153 20.8971 13.8652C20.8971 12.715 19.9365 11.7826 18.7514 11.7826C17.5664 11.7826 16.6057 12.715 16.6057 13.8652C16.6057 15.0153 17.5664 15.9477 18.7514 15.9477Z" fill="#555555"/>
</svg>
