<svg width="24" height="24" viewBox="0 0 24 24" fill="none" xmlns="http://www.w3.org/2000/svg">
<path d="M22.323 10.3965H20.8022V8.79684C20.8022 3.94668 16.8543 0 12.0026 0C7.15084 0 3.20034 3.94668 3.20034 8.7994V10.3991H1.67954C0.75272 10.3991 0 11.1515 0 12.0781V18.318C0 19.2445 0.75272 19.997 1.67954 19.997H3.34884C3.67911 20.9261 4.55985 21.5967 5.60188 21.5967C6.92554 21.5967 8.00341 20.5191 8.00341 19.1959V11.1976C8.00341 9.87437 6.92554 8.79684 5.60188 8.79684C5.32025 8.79684 5.05398 8.85571 4.80307 8.94273V8.79684C4.80307 4.82713 8.03414 1.59966 12.0026 1.59966C15.971 1.59966 19.202 4.82969 19.202 8.79684V8.94273C18.9511 8.85315 18.6849 8.79684 18.4032 8.79684C17.0796 8.79684 16.0017 9.87437 16.0017 11.1976V19.1959C16.0017 20.5191 17.0796 21.5967 18.4032 21.5967C19.4453 21.5967 20.326 20.9261 20.6563 19.997H21.6036V20.4091C21.6036 21.5045 20.7126 22.3978 19.6143 22.3978H14.2556C14.3452 22.147 14.4015 21.8808 14.4015 21.5992C14.4015 20.276 13.3237 19.1985 12 19.1985C10.6763 19.1985 9.59846 20.276 9.59846 21.5992C9.59846 22.9225 10.6763 24 12 24H19.6117C21.5908 24 23.2012 22.3901 23.2012 20.4116V19.7462C23.68 19.4493 24 18.9246 24 18.3231V12.0832C24 11.1567 23.2473 10.4042 22.3205 10.4042L22.323 10.3965ZM1.60017 18.318V12.0781C1.60017 12.0346 1.63601 11.9987 1.67954 11.9987H3.20034V18.3974H1.67954C1.63601 18.3974 1.60017 18.3615 1.60017 18.318ZM5.60188 10.3965C6.04224 10.3965 6.40068 10.7548 6.40068 11.1951V19.1933C6.40068 19.6361 6.04224 19.9919 5.60188 19.9919C5.16151 19.9919 4.80307 19.6336 4.80307 19.1933V11.1951C4.80307 10.7523 5.16151 10.3965 5.60188 10.3965ZM12.0026 20.7956C12.4429 20.7956 12.8014 21.1539 12.8014 21.5941C12.8014 22.0343 12.4429 22.3927 12.0026 22.3927C11.5622 22.3927 11.2038 22.0343 11.2038 21.5941C11.2038 21.1539 11.5622 20.7956 12.0026 20.7956ZM18.4032 19.9945C17.9629 19.9945 17.6044 19.6361 17.6044 19.1959V11.1976C17.6044 10.7548 17.9629 10.3991 18.4032 10.3991C18.8436 10.3991 19.202 10.7574 19.202 11.1976V19.1959C19.202 19.6387 18.8436 19.9945 18.4032 19.9945ZM20.8022 15.198V11.9987H22.323C22.3665 11.9987 22.4024 12.0346 22.4024 12.0781V18.318C22.4024 18.3615 22.3665 18.3974 22.323 18.3974H20.8022V15.198Z" fill="#555555"/>
</svg>
