<svg width="25" height="26" viewBox="0 0 25 26" fill="none" xmlns="http://www.w3.org/2000/svg">
<path d="M12.7653 13C12.9831 13 13.201 12.9168 13.3671 12.7476L16.7708 9.28056C17.103 8.94218 17.103 8.393 16.7708 8.05462C16.4386 7.71624 15.8995 7.71624 15.5673 8.05462L12.1635 11.5217C11.8313 11.86 11.8313 12.4092 12.1635 12.7476C12.3296 12.9168 12.5474 13 12.7653 13Z" fill="#555555"/>
<path d="M17.0186 12.1346C17.0186 13.2912 15.3167 13.2912 15.3167 12.1346C15.3167 10.978 17.0186 10.978 17.0186 12.1346Z" fill="#555555"/>
<path d="M13.6149 8.66759C13.6149 9.82419 11.913 9.82419 11.913 8.66759C11.913 7.51099 13.6149 7.51099 13.6149 8.66759Z" fill="#555555"/>
<path d="M23.9162 14.0429C23.3416 13.6518 22.6609 13.5492 22.0346 13.6906L21.2694 5.12012C21.2285 4.67356 20.8609 4.33241 20.4225 4.33241H18.7207C18.7207 1.94154 16.8118 0 14.4673 0C12.1228 0 10.214 1.94431 10.214 4.33241H8.51207C8.07094 4.33241 7.70606 4.67356 7.66521 5.12012L6.84014 14.3619H6.83742L5.92248 14.5477C5.74821 13.6657 4.98032 12.9972 4.06266 12.9972H1.90059C0.854952 12.9972 0.00537109 13.8626 0.00537109 14.9277V24.064C0.00537109 25.1291 0.854952 25.9945 1.90059 25.9945H4.06266C4.97215 25.9945 5.73459 25.3371 5.91704 24.4662L10.9002 25.595C11.3631 25.7004 11.8314 25.7531 12.2998 25.7531C13.1112 25.7531 13.92 25.595 14.6879 25.2816L19.6846 23.2458C21.0951 22.6716 22.2851 21.6121 23.0394 20.2697L24.6868 17.3324C25.3185 16.2035 24.9836 14.7557 23.9243 14.0318L23.9162 14.0429ZM14.4673 1.73352C15.8751 1.73352 17.0215 2.90122 17.0215 4.33518H11.9158C11.9158 2.90122 13.0622 1.73352 14.47 1.73352H14.4673ZM11.0635 6.06593H19.6465L20.428 14.8112C20.428 14.8334 20.4416 14.85 20.4443 14.8694L18.4021 17.9454L18.2632 17.521C17.8874 16.37 16.8336 15.5961 15.6436 15.5961H11.3985C10.5897 14.8777 9.59583 14.434 8.55291 14.3008L9.28813 6.06315H11.0635V6.06593ZM4.256 24.0696C4.256 24.1805 4.16886 24.2665 4.06266 24.2665H1.90059C1.79167 24.2665 1.70726 24.1777 1.70726 24.0696V14.9332C1.70726 14.8223 1.79439 14.7363 1.90059 14.7363H4.06266C4.17158 14.7363 4.256 14.825 4.256 14.9332V24.0696ZM23.2055 16.4837L21.558 19.4182C20.9944 20.4222 20.1012 21.2155 19.0474 21.6454L14.0507 23.6812C13.163 24.0418 12.199 24.1223 11.265 23.9115L5.95788 22.7105V16.3145L7.16962 16.0676C8.36775 15.8236 9.59855 16.2035 10.4617 17.0828C10.6224 17.2464 10.8375 17.3352 11.0635 17.3352H15.6436C16.1011 17.3352 16.5041 17.632 16.6512 18.073L16.7383 18.3392L10.9601 19.0742C10.4944 19.1325 10.1649 19.5624 10.2221 20.0339C10.2766 20.5082 10.6932 20.841 11.1616 20.7939L18.383 19.9729C18.9085 19.9174 19.3769 19.6317 19.6683 19.1852L21.9556 15.6904C22.1816 15.3465 22.6391 15.255 22.9767 15.4824C23.298 15.7015 23.3988 16.137 23.2082 16.4781L23.2055 16.4837Z" fill="#555555"/>
</svg>
