<svg width="178" height="230" viewBox="0 0 178 230" fill="none" xmlns="http://www.w3.org/2000/svg">
<rect x="0.5" y="0.5" width="177" height="229" fill="white" stroke="#CCCCCC"/>
<path d="M75.2902 123.712H76.4182V129.148H75.2902V123.712ZM72.9262 127.048H71.5582V128.716H67.0222V124.18H71.5582V125.992H72.9262V123.832H74.0422V129.148H72.9262V127.048ZM68.0902 127.684H70.4662V125.224H68.0902V127.684ZM70.1902 132.832V133.888H76.8262V134.908H69.0022V131.848H75.2302V130.84H68.9422V129.844H76.4182V132.832H70.1902ZM86.4171 130.072V123.712H87.6171V130.072H86.4171ZM85.4451 128.236L85.5771 129.28C83.8251 129.556 81.7491 129.7 80.0691 129.7H78.3411L78.2811 128.632H79.6371V125.308H78.4371V124.24H85.0731V125.308H83.8731V128.428C84.4011 128.38 84.9411 128.308 85.4451 128.236ZM82.6971 128.536V125.308H80.8131V128.62C81.3891 128.608 82.0251 128.584 82.6971 128.536ZM86.4171 131.872H80.1291V130.78H87.6171V134.968H86.4171V131.872ZM98.996 129.148H97.808V126.592H95.396V125.524H97.808V123.712H98.996V129.148ZM95.804 129.088L92.792 127.204C92.228 127.972 91.352 128.644 90.176 129.256L89.576 128.284C91.544 127.252 92.432 126.1 92.432 124.648V124.036H93.596V124.648C93.596 125.212 93.512 125.728 93.32 126.208L96.404 128.116L95.804 129.088ZM92.828 132.832V133.888H99.404V134.908H91.628V131.848H97.808V130.84H91.58V129.844H98.996V132.832H92.828ZM107.003 127.156V126.124H109.175V123.712H110.375V129.784H109.175V127.156H107.003ZM107.231 129.724L104.207 127.732C103.643 128.536 102.743 129.244 101.519 129.904L100.955 128.944C102.875 127.864 103.799 126.784 103.799 125.308H101.399V124.24H107.399V125.308H104.963C104.963 125.836 104.879 126.316 104.711 126.772L107.831 128.74L107.231 129.724ZM105.431 130.372H107.855C109.487 130.372 110.519 131.332 110.519 132.664C110.519 134.008 109.487 134.968 107.855 134.968H105.431C103.811 134.968 102.779 134.008 102.779 132.664C102.779 131.332 103.811 130.372 105.431 130.372ZM105.623 133.888H107.675C108.779 133.888 109.319 133.372 109.319 132.664C109.319 131.956 108.779 131.44 107.675 131.44H105.623C104.519 131.44 103.967 131.956 103.967 132.664C103.967 133.372 104.519 133.888 105.623 133.888Z" fill="black"/>
<path d="M123.496 58.1692L97.3716 43.134C97.0654 42.9553 96.6845 42.9553 96.3783 43.134L70.2618 58.1692C69.9556 58.3479 69.7689 58.6755 69.7689 59.0255V77.2777H69.0221C67.4761 77.2777 66.214 78.5362 66.214 80.0777V81.5596C64.3917 82.1702 62.6964 83.1457 61.2476 84.4192L59.9556 83.6745C59.3059 83.3021 58.5516 83.2053 57.8271 83.3915C57.1027 83.5851 56.4978 84.0468 56.1244 84.6947L54.3768 87.7032C53.6001 89.0362 54.0631 90.7564 55.4074 91.5234L56.692 92.2681C56.5053 93.2064 56.4082 94.167 56.4082 95.1277C56.4082 96.0883 56.5053 97.0489 56.692 97.9872L55.4074 98.7319C54.7577 99.1043 54.2946 99.7074 54.1005 100.437C53.9063 101.16 54.0034 101.912 54.3768 102.56L56.1169 105.568C56.4903 106.216 57.0952 106.678 57.8197 106.871C58.5516 107.065 59.2984 106.968 59.9481 106.596L61.2401 105.851C62.689 107.124 64.3768 108.107 66.2065 108.711V110.193C66.2065 111.734 67.4612 112.993 69.0146 112.993H72.5023C74.0482 112.993 75.3103 111.741 75.3103 110.193V108.711C77.1326 108.1 78.8279 107.124 80.2767 105.851L81.5687 106.596C82.913 107.37 84.6307 106.909 85.4 105.568L87.1475 102.56C87.6927 101.614 87.6106 100.474 87.043 99.6181L96.3932 105.002C96.5501 105.091 96.7218 105.136 96.8861 105.136C97.0504 105.136 97.2297 105.091 97.379 105.002L123.503 89.967C123.809 89.7883 123.996 89.4606 123.996 89.1106V59.033C124.003 58.6755 123.817 58.3553 123.51 58.1766L123.496 58.1692ZM96.8787 72.9213L89.0743 68.4234L113.204 54.5277L121.009 59.0255L96.8787 72.9213ZM111.218 53.3883L87.0878 67.284L82.5471 64.6702L106.677 50.7745L111.218 53.3883ZM96.8787 45.1372L104.683 49.6351L80.5531 63.5309L72.7487 59.033L96.8787 45.1372ZM71.748 60.7532L83.3163 67.4181L86.5799 69.2947L95.8779 74.6489V102.433L85.0639 96.2074C85.0938 95.8574 85.1087 95.5 85.1087 95.15C85.1087 94.1894 85.0116 93.2287 84.8249 92.2904L86.1094 91.5457C86.7592 91.1734 87.2222 90.5702 87.4164 89.8479C87.6106 89.1255 87.5135 88.3734 87.1326 87.7255L86.4604 86.5638C86.6173 86.5713 86.7816 86.5862 86.9384 86.5862C88.8876 86.5862 90.8294 85.8489 92.3156 84.367C94.1602 82.5277 94.922 79.9138 94.3619 77.3745C94.2797 77.017 94.0183 76.734 93.6673 76.6372C93.3163 76.533 92.9429 76.6372 92.6815 76.8904L89.1191 80.4426L86.6023 79.3404L85.5045 76.8309L89.0669 73.2787C89.3208 73.0255 89.4179 72.6457 89.3208 72.2957C89.2162 71.9457 88.9324 71.6851 88.5814 71.6032C86.0348 71.0447 83.4059 71.8043 81.5687 73.6436C80.1348 75.0734 79.3432 76.9798 79.3432 79.0053C79.3432 79.3628 79.3805 79.7202 79.4253 80.0702L77.0728 82.3043C76.4978 82.0213 75.9153 81.7681 75.3103 81.567V80.0851C75.3103 78.5436 74.0557 77.2851 72.5023 77.2851H71.7554V60.7457L71.748 60.7532ZM77.9168 95.1426C77.9168 99.0819 74.7054 102.284 70.7547 102.284C66.804 102.284 63.5926 99.0819 63.5926 95.1426C63.5926 91.2032 66.804 88.0011 70.7547 88.0011C70.8518 88.0011 70.9489 88.0011 71.046 88.016L67.2446 91.6202C66.3036 92.5138 65.7808 93.7351 65.7584 95.0532C65.7435 96.3936 66.2737 97.7117 67.2222 98.6574C68.1557 99.5883 69.4477 100.117 70.7846 100.117H70.8443C72.1662 100.102 73.391 99.5734 74.2872 98.6351L77.9018 94.8447C77.9018 94.9415 77.9168 95.0383 77.9168 95.1351V95.1426ZM72.8533 97.2723C72.3305 97.816 71.6135 98.1287 70.8294 98.1362C70.0153 98.1362 69.2162 97.8234 68.6412 97.2575C68.0661 96.6915 67.745 95.8947 67.7599 95.0755C67.7674 94.2936 68.0811 93.5787 68.6262 93.0574L80.0601 82.2149C80.4336 83.0043 80.9339 83.734 81.5687 84.367C82.2035 85 82.9504 85.5064 83.7345 85.8713L72.8533 97.2798V97.2723ZM83.4134 77.0021L84.9444 80.4872C85.0415 80.7181 85.2282 80.8968 85.4597 81.0011L88.9548 82.5277C89.3283 82.6915 89.7689 82.6096 90.0601 82.3191L92.4948 79.8915C92.3081 81.0383 91.7704 82.1106 90.919 82.9596C88.7308 85.1415 85.1684 85.1415 82.9802 82.9596C80.792 80.7777 80.792 77.2255 82.9802 75.0436C83.8316 74.1947 84.9145 73.6585 86.0572 73.4723L83.6225 75.9C83.3312 76.1904 83.2491 76.6223 83.4134 77.0021ZM85.4149 101.577L83.6673 104.585C83.4433 104.972 82.9429 105.106 82.5471 104.883L80.6203 103.773C80.2319 103.55 79.739 103.617 79.4253 103.922C77.9242 105.397 76.0572 106.469 74.0407 107.028C73.6076 107.147 73.3088 107.534 73.3088 107.988V110.207C73.3088 110.662 72.9429 111.019 72.4948 111.019H69.0071C68.559 111.019 68.1931 110.654 68.1931 110.207V107.988C68.1931 107.541 67.8944 107.154 67.4612 107.028C65.4373 106.477 63.5777 105.397 62.0766 103.922C61.7554 103.61 61.27 103.543 60.8817 103.766L58.9548 104.876C58.7681 104.98 58.5516 105.01 58.335 104.957C58.1184 104.905 57.9466 104.764 57.8421 104.578L56.102 101.569C55.9974 101.383 55.9675 101.16 56.0198 100.951C56.0721 100.735 56.214 100.564 56.4007 100.46L58.32 99.35C58.7084 99.1266 58.8951 98.6723 58.7831 98.2404C58.5217 97.2351 58.3873 96.1926 58.3873 95.1351C58.3873 94.0777 58.5217 93.0426 58.7831 92.0298C58.8951 91.5979 58.7009 91.1436 58.32 90.9202L56.4007 89.8106C56.0123 89.5872 55.8779 89.0883 56.102 88.6936L57.8495 85.6851C57.9541 85.4989 58.1333 85.3649 58.3424 85.3053C58.559 85.2532 58.7756 85.2755 58.9623 85.3872L60.8891 86.4968C61.2775 86.7202 61.7704 86.6532 62.084 86.3479C63.5852 84.8734 65.4448 83.8011 67.4687 83.2426C67.9018 83.1234 68.2005 82.7362 68.2005 82.2819V80.0628C68.2005 79.616 68.5665 79.2511 69.0146 79.2511H72.5023C72.9504 79.2511 73.3163 79.616 73.3163 80.0628V82.2819C73.3163 82.7287 73.615 83.116 74.0482 83.2426C74.5486 83.3766 75.0489 83.5553 75.5269 83.7564L72.8906 86.2585C72.1961 86.0947 71.4791 86.0053 70.7547 86.0053C65.7061 86.0053 61.6061 90.1011 61.6061 95.1277C61.6061 100.154 65.7136 104.25 70.7547 104.25C75.7958 104.25 79.9033 100.154 79.9033 95.1277C79.9033 94.4053 79.8137 93.6979 79.6494 93.0053L84.7876 87.6213L85.4149 88.7011C85.5194 88.8872 85.5493 89.1032 85.497 89.3192C85.4448 89.5351 85.3029 89.7064 85.1162 89.8106L83.1893 90.9202C82.801 91.1436 82.6143 91.5979 82.7263 92.0298C82.9877 93.0351 83.1221 94.0777 83.1221 95.1351C83.1221 96.1926 82.9877 97.2277 82.7263 98.2404C82.6143 98.6723 82.8085 99.1266 83.1893 99.35L85.1087 100.46C85.497 100.683 85.6315 101.182 85.4074 101.577H85.4149ZM97.8719 102.433V74.6489L122.002 60.7532V88.5372L97.8719 102.433ZM117.334 84.8585C117.611 85.3351 117.446 85.9383 116.968 86.2138L110.434 89.9745C110.277 90.0638 110.105 90.1085 109.941 90.1085C109.597 90.1085 109.261 89.9298 109.074 89.6096C108.798 89.133 108.962 88.5298 109.44 88.2543L115.975 84.4936C116.453 84.2181 117.058 84.3819 117.334 84.8585Z" fill="black"/>
<rect x="49.5" y="156.5" width="79" height="29" fill="white" stroke="#CCCCCC"/>
<rect x="96" y="170" width="20" height="2" fill="#CCCCCC"/>
<rect x="110.414" y="164" width="10" height="2" transform="rotate(45 110.414 164)" fill="#CCCCCC"/>
<rect x="117.485" y="171.071" width="10" height="2" transform="rotate(135 117.485 171.071)" fill="#CCCCCC"/>
<path d="M70.4005 166.84C72.0105 166.84 73.2305 167.66 73.2305 169.41C73.2305 171.18 72.0105 171.98 70.4005 171.98H68.5405V175.06H66.9705V166.84H70.4005ZM68.5405 170.6H70.3205C71.1905 170.6 71.6605 170.17 71.6605 169.41C71.6605 168.65 71.1905 168.22 70.3205 168.22H68.5405V170.6ZM75.7475 175.06H74.1775V166.84H75.7475V175.06ZM80.4663 175.21C78.5563 175.21 76.8963 173.92 76.8963 171.65V170.25C76.8963 167.99 78.5463 166.69 80.4663 166.69C82.2363 166.69 83.4963 167.72 83.8963 169.42L82.4063 169.85C82.1363 168.74 81.5463 168.15 80.4663 168.15C79.3863 168.15 78.4663 168.88 78.4663 170.31V171.59C78.4663 173.03 79.3863 173.75 80.4663 173.75C81.5463 173.75 82.1363 173.16 82.4063 172.05L83.8963 172.48C83.4963 174.18 82.2363 175.21 80.4663 175.21ZM91.6779 175.06H89.6979L87.1179 171.69L86.5679 172.32V175.06H84.9979V166.84H86.5679V170.03L89.3279 166.84H91.3779L88.1779 170.49L91.6779 175.06Z" fill="black"/>
</svg>
