<svg width="24" height="24" viewBox="0 0 24 24" fill="none" xmlns="http://www.w3.org/2000/svg">
<path fill-rule="evenodd" clip-rule="evenodd" d="M19.5 0H16.5V3H19.5V0ZM22.5 0H21V4.5H15V0H9V4.5H3V0H1.5C0.670781 0 0 0.671719 0 1.5V22.5C0 23.3292 0.670781 24 1.5 24H22.5C23.3292 24 24 23.3292 24 22.5V1.5C24 0.671719 23.3292 0 22.5 0ZM21 21H3V7.5H21V21ZM7.5 0H4.5V3H7.5V0ZM13.5 10.5H10.5V13.5H13.5V10.5ZM18 10.5H15V13.5H18V10.5ZM9 15H6V18H9V15ZM9 10.5H6V13.5H9V10.5ZM13.5 15H10.5V18H13.5V15ZM18 15H15V18H18V15Z" fill="white"/>
</svg>
