<svg width="40" height="40" viewBox="0 0 40 40" fill="none" xmlns="http://www.w3.org/2000/svg">
<rect x="0.5" y="0.5" width="39" height="39" fill="#F6AE24" stroke="#CA8500"/>
<path d="M10.3519 25.154L10.7475 25.8415C11.3772 26.9529 12.7208 27.4319 13.9029 26.9621L15.01 26.5267C15.5829 26.9758 16.2149 27.3448 16.8855 27.6244L17.0674 28.8023C17.2538 30.0696 18.3336 31.0068 19.6044 31H20.3956C21.6664 31.0045 22.7462 30.0696 22.9349 28.8046L23.1145 27.6267C23.7897 27.3471 24.4239 26.9781 25.0013 26.5289L26.1085 26.9644C27.2861 27.4273 28.6251 26.9506 29.2525 25.8437L29.6481 25.1562C30.2937 24.0494 30.03 22.6309 29.0297 21.8334L28.1204 21.0909C28.2181 20.3621 28.2181 19.6242 28.1204 18.8955L29.0297 18.153C30.0209 17.3578 30.2846 15.9484 29.6481 14.8438L29.2525 14.1563C28.6205 13.0472 27.2792 12.5705 26.0971 13.038L25.0013 13.4711C24.4285 13.022 23.7965 12.653 23.1258 12.3734L22.9462 11.1955C22.7553 9.92593 21.6686 8.98865 20.3956 9.0001H19.6044C18.3336 8.99552 17.2538 9.93051 17.0651 11.1955L16.8855 12.3734C16.2149 12.653 15.5829 13.022 15.01 13.4711L13.9029 13.0357C12.7208 12.5682 11.3772 13.0426 10.7475 14.154L10.3519 14.8415C9.70632 15.9507 9.97003 17.3692 10.9703 18.1667L11.8796 18.9092C11.7819 19.638 11.7819 20.3759 11.8796 21.1046L10.9703 21.8471C9.97912 22.6423 9.71541 24.0494 10.3519 25.154ZM12.107 23.2702L13.4414 22.1909C13.7074 21.9754 13.8324 21.6294 13.7642 21.2925C13.5915 20.44 13.5915 19.56 13.7642 18.7075C13.8324 18.3707 13.7074 18.0246 13.4414 17.8092L12.107 16.7298C11.816 16.4961 11.741 16.0836 11.9274 15.7605L12.3229 15.073C12.5071 14.7476 12.8981 14.6101 13.2436 14.7476L14.8486 15.3755C15.1669 15.4992 15.5261 15.4351 15.7807 15.2082C16.4218 14.6307 17.1742 14.1907 17.9904 13.918C18.3132 13.8103 18.5496 13.5261 18.6019 13.187L18.8633 11.4751C18.9179 11.1061 19.2339 10.8311 19.6044 10.8334H20.3956C20.7661 10.8334 21.0821 11.1061 21.1367 11.4751L21.3981 13.1847C21.4504 13.5238 21.6868 13.808 22.0096 13.9157C22.8258 14.1884 23.5782 14.6284 24.2193 15.2059C24.4739 15.4328 24.8331 15.4969 25.1514 15.3732L26.7564 14.7453C27.0974 14.6147 27.4838 14.7522 27.6657 15.0707L28.0613 15.7582C28.2477 16.0813 28.1727 16.4938 27.8817 16.7276L26.5472 17.8069C26.2812 18.0223 26.1562 18.3684 26.2244 18.7053C26.3972 19.5577 26.3972 20.4377 26.2244 21.2902C26.1562 21.6271 26.2812 21.9731 26.5472 22.1886L27.8817 23.2679C28.1727 23.5017 28.2477 23.9119 28.0613 24.235L27.6657 24.9225C27.4838 25.2433 27.0974 25.3808 26.7564 25.2502L25.1514 24.6223C24.8331 24.4985 24.4739 24.5627 24.2193 24.7896C23.5782 25.3671 22.8258 25.8048 22.0096 26.0798C21.6868 26.1875 21.4504 26.4717 21.3981 26.8108L21.1367 28.525C21.0821 28.8939 20.7661 29.1689 20.3956 29.1666H19.6044C19.2339 29.1666 18.9179 28.8939 18.8633 28.525L18.6019 26.8154C18.5496 26.4762 18.3132 26.1921 17.9904 26.0844C17.1742 25.8117 16.4218 25.3717 15.7807 24.7942C15.6147 24.6452 15.401 24.565 15.1782 24.565C15.0646 24.565 14.9532 24.5856 14.8486 24.6292L13.2436 25.2571C12.8981 25.3946 12.5048 25.2571 12.3229 24.9294L11.9274 24.2419C11.7387 23.9188 11.8137 23.504 12.107 23.2702Z" fill="white"/>
<path d="M20 23.6667C22.0096 23.6667 23.6373 22.0259 23.6373 20C23.6373 17.9742 22.0096 16.3334 20 16.3334C17.9904 16.3334 16.3627 17.9742 16.3627 20C16.3627 22.0259 17.9904 23.6667 20 23.6667ZM20 18.1667C21.0048 18.1667 21.8187 18.9871 21.8187 20C21.8187 21.0129 21.0048 21.8334 20 21.8334C18.9952 21.8334 18.1813 21.0129 18.1813 20C18.1813 18.9871 18.9952 18.1667 20 18.1667Z" fill="white"/>
</svg>
