<svg width="323" height="93" viewBox="0 0 323 93" fill="none" xmlns="http://www.w3.org/2000/svg">
<g clip-path="url(#clip0_2285_24)">
<path d="M163.904 0L153.189 10.6431V67.2286C153.189 71.2289 156.313 74.6473 160.341 74.7685C164.539 74.914 168.029 71.5683 168.029 67.4226V6.57013C168.029 3.68509 166.37 1.2122 163.929 0H163.904Z" fill="#F5B319"/>
<path d="M256.242 16.9951C256.242 16.9951 256.218 16.9951 256.193 16.9951C256.193 16.9951 256.193 16.9951 256.169 16.9951C251.898 16.9951 248.432 20.4377 248.432 24.6804C248.432 28.9231 251.898 32.3658 256.169 32.3658C260.441 32.3658 263.907 28.9231 263.907 24.6804C263.907 20.4377 260.489 17.0678 256.267 16.9951H256.242Z" fill="#F5B319"/>
<path d="M58.1659 16.5344C54.2605 16.5344 50.648 17.286 47.4016 18.7891C45.156 19.8316 43.1301 21.165 41.3727 22.7894C39.8105 21.165 38.0043 19.8074 35.954 18.7891C33.0005 17.3102 29.6321 16.5344 25.9464 16.5344C22.9197 16.5344 20.0639 17.0678 17.4522 18.1103C16.0853 18.6679 14.7917 19.3225 13.62 20.0983C13.3759 19.7346 13.083 19.4195 12.7657 19.1043C11.3744 17.7709 9.5926 17.092 7.49346 17.092C5.39431 17.092 3.58807 17.7951 2.17237 19.1528C0.707846 20.5347 -0.0244141 22.353 -0.0244141 24.5592V67.2771C-0.0244141 69.3864 0.707846 71.1804 2.12355 72.5866C3.56366 74.017 5.34549 74.72 7.46905 74.72C9.5926 74.72 11.4965 73.9927 12.8878 72.5381C14.2791 71.1319 14.9625 69.3379 14.9625 67.2529V40.1723C14.9625 37.2388 15.7924 34.9114 17.501 33.0931C19.1608 31.3233 21.2844 30.4505 23.9693 30.4505C26.6543 30.4505 28.5337 31.1778 29.9983 32.7052C31.4628 34.2325 32.2194 36.6085 32.2194 39.8087V67.2771C32.2194 69.3864 32.9517 71.1804 34.3674 72.5866C35.8075 74.017 37.5894 74.72 39.7129 74.72C41.8365 74.72 43.7403 73.9927 45.156 72.5381C46.5229 71.1319 47.2308 69.3379 47.2308 67.2529V40.1723C47.2308 37.2388 48.0607 34.9114 49.7693 33.0931C51.4291 31.3233 53.5282 30.4505 56.1399 30.4505C58.7517 30.4505 60.7044 31.1778 62.1689 32.7052C63.6334 34.2083 64.3901 36.6085 64.3901 39.8087V67.2771C64.3901 69.3864 65.1223 71.1804 66.538 72.5866C67.9782 74.017 69.76 74.72 71.8835 74.72C74.0071 74.72 75.911 73.9927 77.3267 72.5381C78.6936 71.1319 79.4014 69.3379 79.4014 67.2529V39.7844C79.4014 32.6082 77.4243 26.8866 73.5189 22.7651C69.5891 18.5952 64.3901 16.4859 58.0682 16.4859L58.1659 16.5344Z" fill="#F5B319"/>
<path d="M130.855 19.9771C126.852 17.5527 122.068 16.3405 116.649 16.3405C111.23 16.3405 106.227 17.6011 101.882 20.0983C97.5127 22.5954 94.0711 26.135 91.6302 30.5959C89.2137 35.0326 87.9933 40.0753 87.9933 45.603C87.9933 51.1306 89.2869 56.2218 91.8743 60.61C94.4616 65.0467 98.0985 68.5378 102.687 71.0349C107.227 73.5078 112.426 74.7685 118.138 74.7685C121.36 74.7685 124.777 74.1866 128.292 72.9987C131.807 71.8107 134.809 70.2591 137.177 68.3923C138.861 67.1316 139.764 65.4346 139.764 63.4708C139.764 62.0889 139.3 60.0766 137.177 58.3068C135.981 57.2401 134.419 56.6825 132.539 56.6825C130.66 56.6825 129.122 57.2158 127.779 58.2583C126.657 59.1069 125.168 59.8584 123.337 60.4645C121.531 61.0706 119.773 61.3858 118.114 61.3858C113.793 61.3858 110.254 60.2221 107.325 57.8462C105.201 56.1006 103.712 54.0399 102.834 51.5427H136.274C138.251 51.5427 139.911 50.8882 141.253 49.6275C142.595 48.3425 143.303 46.6697 143.303 44.7544C143.303 39.3238 142.229 34.4265 140.13 30.1838C137.982 25.8441 134.858 22.4257 130.831 20.0013L130.855 19.9771ZM116.649 29.7231C120.237 29.7231 123.02 30.7414 125.192 32.8264C126.827 34.4022 127.975 36.3418 128.658 38.7177H102.956C103.786 36.3902 105.079 34.4992 106.886 32.9234C109.351 30.7656 112.548 29.7231 116.649 29.7231Z" fill="#F5B319"/>
<path d="M223.73 20.1953C219.263 17.6496 214.259 16.3405 208.865 16.3405C203.471 16.3405 198.491 17.6254 194.073 20.1953C189.68 22.7409 186.141 26.3047 183.578 30.7414C181.015 35.178 179.697 40.1723 179.697 45.603V85.5571C179.697 87.739 180.429 89.5573 181.893 90.9635C183.309 92.3212 185.115 93.0242 187.215 93.0242C189.314 93.0242 191.218 92.3212 192.609 90.9392C194 89.5573 194.708 87.739 194.708 85.5813V69.5076C196.099 70.55 197.637 71.4713 199.224 72.2471C202.787 73.9442 206.668 74.7927 210.769 74.7927C215.87 74.7927 220.581 73.5078 224.731 70.9622C228.88 68.4166 232.175 64.8769 234.543 60.4161C236.886 56.0036 238.082 51.0336 238.082 45.6272C238.082 40.2208 236.789 35.2023 234.274 30.7656C231.736 26.329 228.172 22.7651 223.705 20.2195L223.73 20.1953ZM201.445 32.0991C203.666 30.7656 206.082 30.111 208.865 30.111C211.648 30.111 214.088 30.7899 216.285 32.0991C218.482 33.4325 220.264 35.275 221.558 37.6267C222.851 39.9784 223.51 42.6694 223.51 45.6272C223.51 48.585 222.851 51.2276 221.558 53.555C220.264 55.8582 218.506 57.7007 216.285 59.0341C214.088 60.3433 211.599 61.0222 208.865 61.0222C206.131 61.0222 203.666 60.3676 201.445 59.0341C199.248 57.7007 197.491 55.8824 196.246 53.5792C194.976 51.2518 194.342 48.585 194.342 45.6272C194.342 42.6694 194.976 39.9784 196.27 37.6267C197.515 35.2993 199.272 33.4567 201.469 32.1233L201.445 32.0991Z" fill="#F5B319"/>
<path d="M256.145 36.3175C254.046 36.3175 252.239 37.0206 250.824 38.3783C249.359 39.7602 248.627 41.5785 248.627 43.7604V67.2771C248.627 69.3863 249.359 71.1804 250.775 72.5866C252.215 74.0169 253.997 74.72 256.12 74.72C258.244 74.72 260.148 73.9927 261.539 72.5381C262.93 71.1319 263.614 69.3379 263.614 67.2529V43.7362C263.614 41.5542 262.906 39.7602 261.515 38.3783C260.123 36.9963 258.293 36.2933 256.12 36.2933L256.145 36.3175Z" fill="#F5B319"/>
<path d="M321.34 62.9859L304.181 42.0634L320.022 29.2868C321.658 27.9776 322.512 26.1593 322.512 24.0258C322.512 22.2318 321.853 20.6074 320.608 19.3467C319.29 17.7709 317.484 16.9466 315.385 16.9466C313.578 16.9466 311.894 17.6254 310.698 18.8376L291.684 34.4992V23.9046C291.684 19.8559 288.364 16.5344 284.263 16.5344C280.163 16.5344 276.843 19.8316 276.843 23.9046V67.4226C276.843 71.4713 280.163 74.7928 284.263 74.7928C288.364 74.7928 291.684 71.4956 291.684 67.4226V53.1186L293.441 51.5913L310.088 72.0532C311.479 73.823 313.383 74.7685 315.604 74.7685C317.288 74.7685 318.875 74.1867 320.339 73.023C322.072 71.5683 323 69.6773 323 67.4953C323 65.7255 322.439 64.1496 321.34 62.9859Z" fill="#F5B319"/>
</g>
<defs>
<clipPath id="clip0_2285_24">
<rect width="323" height="93" fill="white"/>
</clipPath>
</defs>
</svg>
