<svg width="15" height="13" viewBox="0 0 15 13" fill="none" xmlns="http://www.w3.org/2000/svg">
<path d="M14.3949 4.29417C14.3949 4.29417 14.3965 4.2598 14.3933 4.20925C14.3356 2.90873 13.4827 1.74608 12.2307 1.23445C11.6536 0.997017 11.256 1.03072 11.256 1.03072C9.25696 1.03072 7.59454 2.74329 7.59454 2.74329C7.59454 2.74329 5.93053 1.03072 3.93146 1.03072C3.93146 1.03072 3.53389 0.997017 2.95677 1.23292C1.70475 1.74608 0.8519 2.90873 0.794188 4.20771C0.792585 4.25826 0.790982 4.30881 0.790982 4.3609C0.790982 4.3609 0.714033 6.68161 2.90066 8.87364C2.90066 8.87364 5.07287 11.1086 7.59294 11.9128C10.1146 11.1086 12.2852 8.87364 12.2852 8.87364C14.4718 6.68161 14.3949 4.3609 14.3949 4.3609V4.29417Z" stroke="black"/>
</svg>
