<svg width="32" height="28" viewBox="0 0 32 28" fill="none" xmlns="http://www.w3.org/2000/svg">
<path d="M30.9965 8.5C30.9965 8.5 31 8.42104 30.9929 8.30493C30.8657 5.31763 28.9852 2.64701 26.2246 1.4718C24.9521 0.926413 24.0755 1.00382 24.0755 1.00382C19.6676 1.00382 16.0021 4.93762 16.0021 4.93762C16.0021 4.93762 12.3331 1.00382 7.92527 1.00382C7.92527 1.00382 7.04866 0.926413 5.77616 1.46828C3.01553 2.64701 1.13505 5.31763 1.0078 8.30141C1.00427 8.41753 1.00073 8.53364 1.00073 8.65327C1.00073 8.65327 0.831066 13.984 5.65244 19.0191C5.65244 19.0191 10.442 24.1527 15.9986 26C21.5587 24.1527 26.3448 19.0191 26.3448 19.0191C31.1661 13.984 30.9965 8.65327 30.9965 8.65327V8.5Z" stroke="white" stroke-width="2"/>
</svg>
