<svg width="51" height="40" viewBox="0 0 51 40" fill="none" xmlns="http://www.w3.org/2000/svg">
<path d="M2 4.9801C2.48759 3.63484 4.19414 1.67817 8.9481 2.045C13.7021 2.41182 23.9414 6.81454 26.1355 13.7854C26.5974 15.253 26.1355 19.6556 21.3816 19.6556C19.1874 19.6556 15.0186 18.4816 15.8962 13.7854C16.3838 11.4618 19.6994 7.6217 29.061 10.8503C32.1085 11.951 38.4227 15.9867 39.3003 23.3245C39.4222 25.0366 38.9347 28.6811 36.0091 29.5616C33.815 30.222 29.7924 28.094 32.7179 23.3245C34.0588 21.3678 38.569 19.2887 43.6886 25.5258C46.0389 28.3891 49.9054 33.2305 48.8083 38" stroke="#FF979C" stroke-width="3" stroke-linecap="round" stroke-linejoin="round"/>
</svg>
