<svg width="136" height="135" viewBox="0 0 136 135" fill="none" xmlns="http://www.w3.org/2000/svg">
<rect x="81.2188" y="26.9375" width="54" height="8" fill="#C68721"/>
<rect x="27.2188" y="80.9375" width="8" height="54" fill="#C68721"/>
<path d="M27.2183 80.937L80.7183 27.0005L134.718 27.0005L27.2183 134.937L27.2183 80.937Z" fill="#F6AC36"/>
<path d="M27.2187 89.4375L88.7187 26.9375L125.983 26.9375L27.2187 125.437L27.2187 89.4375Z" fill="white"/>
<path d="M47.2569 93.3528L46.1679 94.4417L40.3555 88.6293L41.8333 87.1515L47.9286 89.9233L45.1567 83.8281L46.6346 82.3502L52.447 88.1626L51.3581 89.2516L47.37 85.2635L49.859 90.7506L48.7559 91.8537L43.2688 89.3647L47.2569 93.3528ZM50.8371 80.9762C51.8412 79.9721 53.2412 79.7882 54.3019 80.8489L57.0313 83.5783L56.006 84.6036L55.4403 84.1369C55.6171 84.7521 55.4474 85.3744 54.9383 85.8835L54.6767 86.1451C53.9271 86.8946 52.7604 86.9159 51.926 86.0815C51.1694 85.3249 51.127 84.2218 52.1594 83.1894L53.3049 82.0439L53.2412 81.9803C52.8665 81.6055 52.3079 81.5277 51.7705 82.0651C51.4098 82.4257 51.3108 82.85 51.4452 83.3096L50.038 83.8824C49.7764 82.9561 50.0098 81.8035 50.8371 80.9762ZM53.8989 84.8865L54.1676 84.6178C54.5635 84.2218 54.7403 83.6349 54.4363 83.1753L54.2453 82.9843L53.121 84.1086C52.8311 84.3986 52.7816 84.745 53.0291 84.9925C53.2695 85.2329 53.6089 85.1764 53.8989 84.8865ZM59.2025 79.3848L60.3621 80.0778C60.2278 80.4667 59.9096 80.9122 59.5914 81.2304C58.7641 82.0577 57.8095 82.1355 56.9892 81.3152L54.8608 79.1869L54.2103 79.8374L53.1991 78.8262L53.8497 78.1757L52.7537 77.0797L53.8638 75.9695L54.9598 77.0655L55.9498 76.0756L56.961 77.0867L55.971 78.0767L57.9226 80.0283C58.2479 80.3536 58.4883 80.3112 58.7499 80.0495C58.9691 79.8303 59.0893 79.6253 59.2025 79.3848ZM62.9315 77.8903C61.8425 78.9792 60.2374 79.2409 58.908 77.9115L58.406 77.4095C57.0766 76.0801 57.3383 74.475 58.4272 73.386C59.2757 72.5375 60.492 72.1981 61.6304 72.7991L60.9586 74.2204C60.3505 73.8952 59.8343 74.0012 59.4384 74.3972C58.9575 74.878 58.8373 75.6205 59.5444 76.3276L59.9899 76.7731C60.697 77.4802 61.4395 77.36 61.9203 76.8791C62.3163 76.4832 62.4224 75.967 62.0971 75.3589L63.5184 74.6871C64.1194 75.8256 63.78 77.0418 62.9315 77.8903ZM63.3534 68.4598C64.2019 67.6113 65.6586 67.5264 66.79 68.6578L69.3709 71.2388L68.2607 72.3489L65.7293 69.8175C65.001 69.0891 64.4353 69.3296 64.011 69.7538C63.5868 70.1781 63.4453 70.8428 63.9757 71.3731L66.6061 74.0035L65.496 75.1137L59.6835 69.3013L60.7937 68.1911L62.7595 70.1569C62.6817 69.5841 62.8584 68.9548 63.3534 68.4598ZM65.9545 64.8122C65.608 65.1587 65.0565 65.1587 64.71 64.8122C64.3635 64.4657 64.3635 63.9142 64.71 63.5677C65.0565 63.2212 65.608 63.2212 65.9545 63.5677C66.301 63.9142 66.301 64.4657 65.9545 64.8122ZM71.4346 69.175L70.3244 70.2852L66.0323 65.9931L67.1425 64.8829L71.4346 69.175ZM70.3556 61.4576C71.2041 60.6091 72.6466 60.5243 73.7921 61.6698L76.366 64.2436L75.2559 65.3538L72.7244 62.8224C72.0385 62.1365 71.4587 62.3627 71.0344 62.787C70.6102 63.2113 70.4829 63.8901 70.9779 64.3851L73.6012 67.0084L72.4911 68.1186L68.1989 63.8264L69.2384 62.787L69.7616 63.2254C69.6626 62.6314 69.8323 61.9809 70.3556 61.4576ZM76.2589 56.714L75.8276 56.1978L76.867 55.1584L80.5652 58.8565C81.8875 60.1788 81.4915 61.7345 80.4025 62.8234C79.5469 63.679 78.5004 64.1457 77.5883 63.8134L78.3166 62.2365C78.7126 62.3921 79.151 62.2507 79.4904 61.9112C80.0914 61.3102 80.1056 60.6172 79.4055 59.9172L79.2146 59.7263C79.2358 60.4122 78.9813 61.0627 78.5075 61.5365C77.6731 62.3709 76.0609 62.5264 74.9083 61.3738L74.5618 61.0274C73.3951 59.8606 73.5577 58.2555 74.3921 57.4211C74.88 56.9332 75.5518 56.6716 76.2589 56.714ZM77.8782 60.2425C78.3802 59.7404 78.4721 58.9838 77.8499 58.3616L77.567 58.0787C76.9519 57.4635 76.1882 57.5484 75.6861 58.0504C75.1699 58.5666 75.0851 59.3303 75.7003 59.9455L75.9831 60.2283C76.6054 60.8506 77.362 60.7587 77.8782 60.2425Z" fill="black"/>
<path d="M88.9127 51.6969L87.7814 52.8283L85.6176 51.7676L83.5529 53.8324L84.6135 55.9961L83.4822 57.1275L79.6921 49.2928L81.078 47.9068L88.9127 51.6969ZM81.58 49.7948L82.9023 52.4889L84.2741 51.1171L81.58 49.7948ZM90.6229 49.9868L89.5127 51.0969L83.7003 45.2845L84.8105 44.1743L90.6229 49.9868ZM92.2766 48.5452C91.9089 48.9128 91.315 48.9128 90.9473 48.5452C90.5796 48.1775 90.5796 47.5835 90.9473 47.2158C91.315 46.8481 91.9089 46.8481 92.2766 47.2158C92.6443 47.5835 92.6443 48.1775 92.2766 48.5452Z" fill="#F6AC36"/>
</svg>
