<svg width="259" height="583" viewBox="0 0 259 583" fill="none" xmlns="http://www.w3.org/2000/svg">
<circle cx="130.545" cy="129.545" r="87.0451" transform="rotate(90 130.545 129.545)" fill="white" stroke="#C9C9CA"/>
<circle cx="130.545" cy="453.545" r="87.0451" transform="rotate(90 130.545 453.545)" fill="white" stroke="#C9C9CA"/>
<circle cx="130.545" cy="291.545" r="87.0451" transform="rotate(90 130.545 291.545)" fill="white" stroke="#C9C9CA"/>
<path d="M122.832 87.5408V87.5408C125.688 90.3969 130.319 90.3969 133.175 87.5408L138.716 82" stroke="#F5B31C" stroke-width="5"/>
<path d="M126.645 118.711V111.731H128.585V130.291H126.645V120.531H124.265V129.911H122.385V112.011H124.265V118.711H126.645ZM115.105 125.451H115.925C117.505 125.451 119.105 125.351 120.945 125.071L121.145 126.851C119.365 127.171 117.685 127.271 115.645 127.271H113.105V113.091H120.065V114.931H115.105V125.451ZM145.25 115.991V111.731H147.25V130.291H145.25V123.631H141.63C141.07 126.631 139.17 127.871 136.93 127.871C134.25 127.871 132.05 126.111 132.05 121.651V118.831C132.05 114.371 134.25 112.611 136.93 112.611C138.95 112.611 140.67 113.611 141.41 115.991H145.25ZM139.81 121.631V118.851C139.81 115.611 138.55 114.431 136.93 114.431C135.31 114.431 134.05 115.611 134.05 118.851V121.631C134.05 124.851 135.31 126.051 136.93 126.051C138.55 126.051 139.81 124.851 139.81 121.631ZM141.79 121.811H145.25V117.811H141.75C141.77 118.131 141.79 118.471 141.79 118.831V121.651V121.811Z" fill="black"/>
<path d="M103.835 156.4H102.71L101.18 152.41H95.9151L94.4001 156.4H93.2601L97.8951 144.34H99.2151L103.835 156.4ZM98.5551 145.495L96.2901 151.42H100.805L98.5551 145.495ZM106.547 156.4H105.452V144.34H106.547V156.4ZM119.843 148.825H110.213V145.81H118.478V144.49H110.138V143.62H119.558V146.65H111.278V147.985H119.843V148.825ZM121.358 150.82H108.398V149.95H121.358V150.82ZM120.068 157.27H110.078V154.15H118.613V152.83H110.003V151.96H119.693V155.02H111.143V156.385H120.068V157.27ZM130.829 144.49H134.264V145.345H126.299V144.49H129.749V143.17H130.829V144.49ZM137.324 143.35V147.31H139.484V148.3H137.324V151.135H136.259V143.35H137.324ZM134.954 149.86L135.059 150.715C133.034 150.985 130.364 151.165 128.384 151.165H126.104L126.059 150.28H128.444C128.849 150.28 129.314 150.265 129.824 150.25V149.335C128.174 149.245 126.974 148.72 126.974 147.7V147.58C126.974 146.455 128.414 145.915 130.304 145.915C132.164 145.915 133.604 146.455 133.604 147.58V147.7C133.604 148.69 132.464 149.23 130.904 149.335V150.205C132.239 150.145 133.694 150.025 134.954 149.86ZM128.024 147.61V147.685C128.024 148.195 129.014 148.525 130.304 148.525C131.579 148.525 132.554 148.195 132.554 147.685V147.61C132.554 147.1 131.579 146.74 130.304 146.74C129.014 146.74 128.024 147.1 128.024 147.61ZM137.324 155.095H129.629V156.37H137.909V157.255H128.579V154.225H136.274V152.995H128.504V152.125H137.324V155.095ZM149.702 148.345V150.055H153.452V151H140.492V150.055H144.257V148.345C142.892 148 142.097 147.235 142.097 146.035C142.097 144.37 143.612 143.545 146.012 143.545H147.947C150.347 143.545 151.862 144.37 151.862 146.035C151.862 147.235 151.067 148 149.702 148.345ZM143.162 146.035C143.162 147.055 144.227 147.61 146.192 147.61H147.767C149.717 147.61 150.782 147.025 150.782 146.035C150.782 145.03 149.717 144.49 147.767 144.49H146.192C144.227 144.49 143.162 145.03 143.162 146.035ZM145.292 148.495V150.055H148.667V148.495C148.442 148.54 145.517 148.54 145.292 148.495ZM145.457 152.41H148.487C150.752 152.41 151.937 153.46 151.937 154.87C151.937 156.295 150.752 157.345 148.487 157.345H145.457C143.207 157.345 142.022 156.295 142.022 154.87C142.022 153.46 143.207 152.41 145.457 152.41ZM145.697 156.385H148.247C150.017 156.385 150.857 155.785 150.857 154.87C150.857 153.955 150.017 153.37 148.247 153.37H145.697C143.927 153.37 143.087 153.955 143.087 154.87C143.087 155.785 143.927 156.385 145.697 156.385ZM159.336 144.91H162.816V145.84H154.791V144.91H158.271V143.17H159.336V144.91ZM165.636 143.35V147.595H167.946V148.6H165.636V154H164.571V143.35H165.636ZM162.171 149.365V149.62C162.171 151.27 160.701 152.215 158.826 152.215C156.951 152.215 155.466 151.27 155.466 149.62V149.365C155.466 147.715 156.951 146.8 158.826 146.8C160.701 146.8 162.171 147.715 162.171 149.365ZM156.531 149.395V149.605C156.531 150.625 157.536 151.27 158.826 151.27C160.101 151.27 161.121 150.625 161.121 149.605V149.395C161.121 148.375 160.101 147.73 158.826 147.73C157.536 147.73 156.531 148.375 156.531 149.395ZM157.026 153.46H158.106V156.205H166.431V157.18H157.026V153.46ZM109.469 163.62H110.549V169.515H101.204V163.62H102.269V165.66H109.469V163.62ZM102.269 166.605V168.585H109.469V166.605H102.269ZM99.3888 172.14V171.15H112.349V172.14H106.409V174.525H105.344V172.14H99.3888ZM101.129 173.46H102.209V176.205H110.909V177.195H101.129V173.46ZM124.232 166.275V163.365H125.297V171.15H124.232V167.25H120.962V166.275H124.232ZM121.637 170.73L117.692 167.88C117.002 169.02 115.877 170.025 114.317 170.955L113.762 170.085C116.192 168.63 117.467 166.995 117.467 164.775V163.845H118.532V164.775C118.532 165.555 118.397 166.275 118.142 166.95L122.207 169.89L121.637 170.73ZM124.232 173.1H116.252V172.125H125.297V177.33H124.232V173.1ZM128.526 178.5H127.401L132.651 162.84H133.776L128.526 178.5ZM136.014 171L135.594 170.07C138.879 168.825 140.619 167.445 140.619 165.795H136.344V164.82H140.619V163.14H141.684V164.82H145.824V165.795H141.684C141.684 166.32 141.579 166.815 141.354 167.295L146.559 170.085L146.064 171L140.784 168.15C139.899 169.2 138.339 170.145 136.014 171ZM134.604 172.395H147.564V173.385H141.624V177.33H140.559V173.385H134.604V172.395ZM156.912 172.2L153.042 169.08C152.352 170.295 151.197 171.375 149.592 172.41L149.037 171.555C151.362 170.01 152.727 168.375 152.727 166.215V166.185H149.502V165.225H152.727V163.245H153.777V165.225H157.032V166.185H153.777V166.215C153.777 166.905 153.672 167.535 153.462 168.135L157.512 171.345L156.912 172.2ZM156.477 168.48V167.535H159.462V163.35H160.527V174H159.462V168.48H156.477ZM152.697 173.28V176.205H161.172V177.18H151.632V173.28H152.697Z" fill="black"/>
<path d="M122.996 249.541V249.541C125.852 252.397 130.483 252.397 133.339 249.541L138.88 244" stroke="#F5B31C" stroke-width="5"/>
<path d="M126.99 283.531H129.99V285.351H122.27V292.511H120.29V285.351H112.55V283.531H124.97C125.41 280.991 125.67 278.271 125.67 276.731V276.531H114.49V274.711H127.67V276.191C127.67 278.311 127.41 280.991 126.99 283.531ZM145.754 280.711V273.731H147.714V292.291H145.754V282.531H143.394V291.911H141.494V274.011H143.394V280.711H145.754ZM139.454 289.291H132.034V275.091H139.454V289.291ZM137.594 276.931H133.874V287.451H137.594V276.931Z" fill="black"/>
<path d="M111.539 306.241H112.619V313.861H103.004V306.241H104.069V309.106H111.539V306.241ZM104.069 310.081V312.871H111.539V310.081H104.069ZM101.324 318.031V317.041H114.284V318.031H101.324ZM126.408 310.246H124.308V315.511H123.288V305.446H124.308V309.271H126.408V305.296H127.443V315.946H126.408V310.246ZM122.133 312.481L122.253 313.426C120.948 313.651 119.733 313.771 117.873 313.771H116.058V309.406H120.243V307.081H116.058V306.121H121.263V310.351H117.063V312.796H118.068C119.568 312.796 120.723 312.691 122.133 312.481ZM119.433 315.226V318.151H128.088V319.141H118.353V315.226H119.433ZM131.452 306.316H140.932V307.306H132.517V312.586H141.067V313.561H131.452V306.316ZM142.732 318.031H129.772V317.041H142.732V318.031ZM155.44 310.771H145.81V307.756H154.075V306.436H145.735V305.566H155.155V308.596H146.875V309.931H155.44V310.771ZM156.955 312.766H143.995V311.896H156.955V312.766ZM155.665 319.216H145.675V316.096H154.21V314.776H145.6V313.906H155.29V316.966H146.74V318.331H155.665V319.216ZM91.0484 330.711H93.3434V331.701H91.0484V339.141H89.9684V325.296H91.0484V330.711ZM81.5984 335.856H82.8584C84.5084 335.856 86.6384 335.661 88.3934 335.406L88.5134 336.351C86.8784 336.636 84.6734 336.831 82.6784 336.831H80.5184V326.406H87.0284V327.396H81.5984V335.856ZM107.567 326.931V327.876H105.257V329.691H107.567V330.636H105.257V332.871H104.192V325.311H105.257V326.931H107.567ZM101.567 328.866V329.136C101.567 331.266 99.992 332.316 98.057 332.316C96.077 332.316 94.517 331.266 94.517 329.136V328.866C94.517 326.736 96.077 325.686 98.057 325.686C99.992 325.686 101.567 326.736 101.567 328.866ZM95.582 328.881V329.106C95.582 330.576 96.617 331.356 98.057 331.356C99.452 331.356 100.487 330.576 100.487 329.106V328.881C100.487 327.411 99.452 326.646 98.057 326.646C96.617 326.646 95.582 327.411 95.582 328.881ZM99.587 333.711H102.377C104.402 333.711 105.602 334.941 105.602 336.501C105.602 338.076 104.402 339.276 102.377 339.276H99.587C97.562 339.276 96.347 338.076 96.347 336.501C96.347 334.941 97.562 333.711 99.587 333.711ZM99.782 338.316H102.167C103.757 338.316 104.522 337.536 104.522 336.486C104.522 335.481 103.757 334.671 102.167 334.671H99.782C98.207 334.671 97.427 335.481 97.427 336.486C97.427 337.536 98.207 338.316 99.782 338.316ZM119.481 330.711H121.791V331.701H119.481V339.141H118.416V325.296H119.481V330.711ZM112.116 325.311H113.181V327.501H116.661V328.476H108.636V327.501H112.116V325.311ZM112.671 329.901C114.531 329.901 116.001 331.131 116.001 333.141V333.936C116.001 335.931 114.531 337.191 112.671 337.191C110.796 337.191 109.311 335.931 109.311 333.936V333.141C109.311 331.131 110.796 329.901 112.671 329.901ZM114.936 333.891V333.186C114.936 331.746 113.931 330.891 112.671 330.891C111.381 330.891 110.391 331.746 110.391 333.186V333.891C110.391 335.331 111.381 336.216 112.671 336.216C113.931 336.216 114.936 335.331 114.936 333.891ZM133.614 339.141V325.296H134.664V339.141H133.614ZM128.034 331.011H130.629V325.521H131.664V338.886H130.629V331.986H127.704C126.894 334.026 125.574 335.841 123.894 337.386L123.129 336.606C125.784 334.236 127.479 330.996 127.479 327.756V327.456H123.384V326.481H128.544V327.546C128.544 328.761 128.364 329.916 128.034 331.011ZM142.11 330.336L141.84 329.436C145.005 328.746 146.655 327.696 146.7 326.481H142.545V325.566H151.74V326.481H147.765C147.75 326.916 147.645 327.321 147.42 327.696L152.43 329.451L152.07 330.336L146.745 328.476C145.83 329.241 144.315 329.856 142.11 330.336ZM140.655 331.986V331.071H153.615V331.986H140.655ZM151.95 336.696H143.4V338.301H152.325V339.216H142.335V335.796H150.87V334.251H142.26V333.336H151.95V336.696ZM165.529 325.296H166.594V335.811H165.529V325.296ZM162.424 326.196V326.931C162.424 329.961 160.024 332.241 156.124 333.741L155.674 332.826C159.154 331.491 161.359 329.376 161.359 327.171H155.899V326.196H162.424ZM158.764 334.716V338.151H167.239V339.141H157.699V334.716H158.764ZM180.038 330.711H182.333V331.701H180.038V339.141H178.958V325.296H180.038V330.711ZM170.588 335.856H171.848C173.498 335.856 175.628 335.661 177.383 335.406L177.503 336.351C175.868 336.636 173.663 336.831 171.668 336.831H169.508V326.406H176.018V327.396H170.588V335.856Z" fill="black"/>
<path d="M122.996 410.541V410.541C125.852 413.397 130.483 413.397 133.339 410.541L138.88 405" stroke="#F5B31C" stroke-width="5"/>
<path d="M127.41 434.731V439.391H130.29V441.191H127.41V448.631H125.41V434.731H127.41ZM123.89 443.271L124.11 444.991C121.31 445.451 117.95 445.671 115.23 445.671H112.43L112.33 443.911H114.49V437.471H112.57V435.711H123.29V437.471H121.39V443.571C122.23 443.491 123.09 443.391 123.89 443.271ZM119.47 443.751V437.471H116.43V443.891C117.35 443.871 118.39 443.831 119.47 443.751ZM115.51 447.671H117.51V451.471H128.37V453.291H115.51V447.671ZM145.754 441.711V434.731H147.714V453.291H145.754V443.531H143.394V452.911H141.494V435.011H143.394V441.711H145.754ZM139.454 450.291H132.034V436.091H139.454V450.291ZM137.594 437.931H133.874V448.451H137.594V437.931Z" fill="black"/>
<path d="M106.515 476.949L107.475 476.529C108.105 478.194 109.53 479.049 111.36 479.049C113.19 479.049 114.51 478.254 114.51 476.844C114.51 475.449 113.445 474.879 112.17 474.519L110.34 473.979C108.735 473.514 107.175 472.614 107.175 470.694C107.175 468.759 108.885 467.529 111.12 467.529C113.325 467.529 114.87 468.744 115.485 470.424L114.54 470.859C113.955 469.404 112.8 468.519 111.12 468.519C109.425 468.519 108.24 469.329 108.24 470.694C108.24 472.059 109.335 472.629 110.565 472.989L112.395 473.529C114 474.009 115.59 474.864 115.59 476.844C115.59 478.839 113.745 480.039 111.36 480.039C109.02 480.039 107.22 478.914 106.515 476.949ZM118.568 479.814H117.488V467.754H118.523L125.528 477.909V467.754H126.608V479.814H125.588L118.568 469.644V479.814ZM128.327 476.949L129.287 476.529C129.917 478.194 131.342 479.049 133.172 479.049C135.002 479.049 136.322 478.254 136.322 476.844C136.322 475.449 135.257 474.879 133.982 474.519L132.152 473.979C130.547 473.514 128.987 472.614 128.987 470.694C128.987 468.759 130.697 467.529 132.932 467.529C135.137 467.529 136.682 468.744 137.297 470.424L136.352 470.859C135.767 469.404 134.612 468.519 132.932 468.519C131.237 468.519 130.052 469.329 130.052 470.694C130.052 472.059 131.147 472.629 132.377 472.989L134.207 473.529C135.812 474.009 137.402 474.864 137.402 476.844C137.402 478.839 135.557 480.039 133.172 480.039C130.832 480.039 129.032 478.914 128.327 476.949ZM150.399 480.609H149.334V466.764H150.399V480.609ZM143.259 474.999C141.249 474.999 139.629 473.844 139.629 471.414V471.099C139.629 468.669 141.249 467.514 143.259 467.514C145.239 467.514 146.874 468.669 146.874 471.099V471.414C146.874 473.844 145.239 474.999 143.259 474.999ZM143.259 474.009C144.714 474.009 145.794 473.124 145.794 471.399V471.114C145.794 469.374 144.714 468.489 143.259 468.489C141.789 468.489 140.709 469.374 140.709 471.114V471.399C140.709 473.124 141.789 474.009 143.259 474.009ZM141.294 478.329H138.894L138.834 477.339H141.354C143.064 477.339 145.839 477.174 148.014 476.904L148.134 477.849C146.049 478.149 143.334 478.329 141.294 478.329ZM98.0552 492.179V486.764H99.1052V500.609H98.0552V493.169H95.9102V500.354H94.8602V486.989H95.9102V492.179H98.0552ZM91.9202 488.924H87.8252V487.949H92.9852V489.014C92.9852 492.929 91.1402 496.259 88.3352 498.854L87.5702 498.074C90.2252 495.704 91.9202 492.464 91.9202 489.224V488.924ZM113.164 497.279H112.084V486.764H113.164V497.279ZM105.664 494.789C103.669 494.789 102.049 493.619 102.049 491.174V490.859C102.049 488.399 103.669 487.214 105.664 487.214C107.629 487.214 109.249 488.399 109.249 490.859V491.174C109.249 493.619 107.629 494.789 105.664 494.789ZM105.664 493.829C107.104 493.829 108.184 492.929 108.184 491.159V490.859C108.184 489.089 107.104 488.174 105.664 488.174C104.209 488.174 103.129 489.089 103.129 490.859V491.159C103.129 492.929 104.209 493.829 105.664 493.829ZM113.809 500.609H104.254V496.184H105.334V499.619H113.809V500.609ZM129.535 487.709H130.615V495.329H121V487.709H122.065V490.574H129.535V487.709ZM122.065 491.549V494.339H129.535V491.549H122.065ZM119.32 499.499V498.509H132.28V499.499H119.32ZM144.404 491.714H142.304V496.979H141.284V486.914H142.304V490.739H144.404V486.764H145.439V497.414H144.404V491.714ZM140.129 493.949L140.249 494.894C138.944 495.119 137.729 495.239 135.869 495.239H134.054V490.874H138.239V488.549H134.054V487.589H139.259V491.819H135.059V494.264H136.064C137.564 494.264 138.719 494.159 140.129 493.949ZM137.429 496.694V499.619H146.084V500.609H136.349V496.694H137.429ZM159.467 494.339H158.402V486.779H159.467V494.339ZM150.917 493.769H148.742V487.514H155.402V488.489H149.807V492.794H151.112C152.792 492.794 154.982 492.599 156.752 492.329L156.887 493.274C155.222 493.559 152.957 493.769 150.917 493.769ZM156.437 500.744H153.527C151.487 500.744 150.287 499.544 150.287 497.969C150.287 496.409 151.487 495.179 153.527 495.179H156.437C158.477 495.179 159.677 496.409 159.677 497.969C159.677 499.544 158.477 500.744 156.437 500.744ZM153.737 499.784H156.227C157.832 499.784 158.612 499.004 158.612 497.954C158.612 496.949 157.832 496.139 156.227 496.139H153.737C152.132 496.139 151.352 496.949 151.352 497.954C151.352 499.004 152.132 499.784 153.737 499.784ZM173.046 492.329H175.206V493.304H173.046V500.609H171.981V486.764H173.046V492.329ZM166.551 488.534H169.986V489.449H162.021V488.534H165.471V486.779H166.551V488.534ZM166.626 495.824V497.714C167.961 497.639 169.416 497.519 170.661 497.354L170.781 498.299C168.756 498.569 166.086 498.764 164.106 498.764H161.826L161.781 497.789H164.166C164.571 497.789 165.036 497.774 165.546 497.759V495.839C163.896 495.689 162.696 494.774 162.696 493.274V493.019C162.696 491.354 164.136 490.439 166.026 490.439C167.886 490.439 169.326 491.354 169.326 493.019V493.274C169.326 494.744 168.186 495.644 166.626 495.824ZM163.746 493.049V493.259C163.746 494.309 164.736 494.954 166.026 494.954C167.301 494.954 168.276 494.309 168.276 493.259V493.049C168.276 491.999 167.301 491.339 166.026 491.339C164.736 491.339 163.746 491.999 163.746 493.049Z" fill="black"/>
<path d="M219.333 384.738C219.333 384.731 219.335 384.725 219.34 384.721C243.764 361.154 259 328.067 259 291.394C259 254.716 243.875 221.837 219.58 198.288C216.403 194.892 211.913 192.773 206.909 192.773C197.302 192.773 189.52 200.578 189.52 210.215C189.52 215.253 191.67 219.776 195.076 222.963C213.073 240.194 224.298 264.487 224.298 291.413C224.298 318.339 213.397 341.906 195.875 359.1C192.013 362.306 189.539 367.133 189.539 372.553C189.539 382.19 197.321 389.995 206.928 389.995C211.795 389.995 216.187 387.994 219.326 384.754C219.33 384.749 219.333 384.744 219.333 384.738V384.738Z" fill="#F5B317"/>
<path d="M52.8439 389.937C52.8439 389.947 52.8526 389.956 52.8631 389.956C62.462 389.945 70.2329 382.144 70.2329 372.514C70.2329 367.094 67.7596 362.247 63.8975 359.061C46.3754 341.867 35.474 317.899 35.474 291.374C35.474 264.848 46.6988 240.174 64.6966 222.923C68.1021 219.737 70.252 215.214 70.252 210.176C70.252 200.539 62.4707 192.734 52.863 192.734C47.8594 192.734 43.3694 194.872 40.1922 198.249C15.8972 221.798 0.77219 254.792 0.772188 291.335C0.772187 327.879 16.0113 361.121 40.4396 384.67C43.5936 387.89 47.981 389.912 52.8248 389.918C52.8354 389.918 52.8439 389.926 52.8439 389.937V389.937Z" fill="#F5B317"/>
<path d="M52.9199 354.937C48.0304 354.937 43.5975 356.979 40.4394 360.243C16.0301 383.791 0.829066 416.861 0.829065 453.52C0.829061 525.023 58.6274 582.997 129.915 582.997C201.202 582.997 259 525.023 259 453.52C259 416.88 243.799 383.81 219.39 360.243C216.232 356.979 211.818 354.937 206.909 354.937C197.302 354.937 189.52 362.742 189.52 372.379C189.52 377.722 191.917 382.493 195.703 385.699C213.321 402.893 224.279 426.918 224.279 453.539C224.279 505.826 182.024 548.209 129.895 548.209C77.7667 548.209 35.5119 505.826 35.5119 453.539C35.5119 426.937 46.4703 402.912 64.0876 385.699C67.8736 382.493 70.2708 377.722 70.2708 372.379C70.2708 362.742 62.4895 354.937 52.8818 354.937L52.9199 354.937ZM222.271 364.243C222.276 364.255 222.288 364.255 222.282 364.243V364.243C222.277 364.233 222.266 364.231 222.271 364.242C222.271 364.242 222.271 364.242 222.271 364.243Z" fill="#F5B317" fill-opacity="0.5"/>
<path d="M70.3088 210.637C70.3088 205.293 67.9116 200.504 64.1256 197.317C46.5084 180.123 35.5499 156.098 35.5499 129.477C35.5499 77.1901 77.8047 34.8071 129.934 34.8071C182.062 34.8071 224.317 77.1901 224.317 129.477C224.317 156.079 213.359 180.104 195.741 197.317C191.955 200.523 189.558 205.293 189.558 210.637C189.558 220.273 197.34 228.078 206.947 228.078C211.837 228.078 216.27 226.036 219.428 222.773C243.799 199.187 259 166.135 259 129.477C259 57.9737 201.202 -2.52645e-06 129.915 -5.64251e-06C58.6274 -8.75857e-06 0.829066 57.9737 0.829063 129.477C0.829062 166.135 16.0301 199.206 40.4394 222.754C43.5975 226.017 48.0114 228.059 52.9198 228.059C62.5275 228.059 70.3088 220.254 70.3088 210.617L70.3088 210.637Z" fill="#F5B317" fill-opacity="0.5"/>
</svg>
