<svg width="40" height="40" viewBox="0 0 40 40" fill="none" xmlns="http://www.w3.org/2000/svg">
<circle cx="20" cy="20" r="20" fill="white"/>
<path fill-rule="evenodd" clip-rule="evenodd" d="M27.5 20.002C27.5 15.8594 24.1432 12.5004 19.9998 12.5004C15.8564 12.5004 12.4996 15.859 12.4996 20.002C12.4996 22.607 13.8278 24.9016 15.8431 26.2465L13.7544 28.3348L15.417 30L18.1447 27.2719C18.7379 27.4227 19.3593 27.5031 19.9994 27.5031C20.6395 27.5031 21.2609 27.4227 21.8542 27.2719L24.5818 30L26.2444 28.3348L24.1557 26.2465C26.1714 24.9016 27.5 22.607 27.5 20.002ZM20.0002 25.0027C17.239 25.0027 15.0003 22.7637 15.0003 20.002C15.0003 17.2402 17.239 15.0012 20.0002 15.0012C22.7614 15.0012 25.0001 17.2402 25.0001 20.002C25.0001 22.7637 22.7614 25.0027 20.0002 25.0027Z" fill="#F6AE24"/>
<path fill-rule="evenodd" clip-rule="evenodd" d="M27.5 10C26.1194 10 25.0001 11.1195 25.0001 12.5004C25.0001 12.6141 25.0083 12.7258 25.0231 12.8352C25.8554 13.4195 26.5811 14.1453 27.1653 14.9777C27.2751 14.9926 27.3868 15.0008 27.5 15.0008C28.8807 15.0008 30 13.8813 30 12.5004C30 11.1195 28.8807 10 27.5 10Z" fill="#F6AE24"/>
<path fill-rule="evenodd" clip-rule="evenodd" d="M12.835 14.9777C13.4193 14.1453 14.145 13.4195 14.9773 12.8352C14.9921 12.7254 15.0003 12.6137 15.0003 12.5004C15.0003 11.1195 13.881 10 12.5003 10C11.1197 10 10 11.1195 10 12.5004C10 13.8813 11.1193 15.0008 12.5 15.0008C12.6136 15.0008 12.7257 14.9926 12.835 14.9777Z" fill="#F6AE24"/>
<path fill-rule="evenodd" clip-rule="evenodd" d="M21.25 18.7516V16.2512H18.75V21.252H22.5001V18.7516H21.25Z" fill="#F6AE24"/>
</svg>
