<svg width="50" height="51" viewBox="0 0 50 51" fill="none" xmlns="http://www.w3.org/2000/svg">
<path d="M40.4684 21.9726C40.7914 21.7281 41.103 21.4781 41.409 21.2115C41.6356 21.0115 41.6583 20.6726 41.4656 20.4448L37.896 16.206C37.7883 16.0782 37.6354 16.0005 37.4654 16.0005H31.4707L30.0995 11.395C30.0258 11.1505 29.7935 10.9894 29.5329 11.0005H28.3996C28.088 11.0005 27.833 11.245 27.8274 11.5505C27.8274 11.5783 27.8274 11.6061 27.8274 11.6339L28.4676 16.0005H21.5267L22.1613 11.6339C22.2066 11.3283 21.9913 11.0505 21.6797 11.0061C21.6513 11.0061 21.623 11.0005 21.5947 11.0061H20.4615C20.2008 10.995 19.9685 11.1561 19.8949 11.4005L18.5123 15.956H12.512C12.3363 15.956 12.172 16.0338 12.0643 16.1727L8.59103 20.5615C8.40972 20.7948 8.44372 21.1226 8.66469 21.317C8.93667 21.5504 9.2313 21.7726 9.50327 21.9892L8.03009 26.378C7.93377 26.6558 8.07542 26.9614 8.35873 27.0725L14.0248 29.2947C14.3138 29.4058 14.6424 29.2669 14.7614 28.9835L15.9343 26.1058V40.4445C15.9343 40.75 16.1892 41 16.5009 41H33.4991C33.8108 41 34.0657 40.75 34.0657 40.4445V26.1058L35.2386 28.9835C35.3519 29.2669 35.6806 29.4058 35.9752 29.2947L41.6413 27.0725C41.9246 26.9614 42.0662 26.6558 41.9699 26.378L40.4684 21.9726ZM35.7316 17.1115C34.672 17.8004 33.4878 18.2893 32.2469 18.5504L31.7993 17.1115H35.7316ZM29.1079 12.1116L31.1194 18.7282C30.7794 18.7782 30.4394 18.7782 30.0995 18.7782H30.0258L29.0512 12.1116H29.1079ZM28.632 17.1115L28.8756 18.7782H21.1187L21.368 17.0671L28.632 17.1115ZM20.8921 12.1116H20.9488L19.9742 18.7782H19.9005C19.5606 18.7782 19.2206 18.7782 18.8806 18.7282L20.8921 12.1116ZM17.7531 18.5448C16.4782 18.2782 15.2657 17.7671 14.1891 17.0504H18.2064L17.7531 18.5448ZM12.6536 17.2782C14.6821 18.956 17.2488 19.8837 19.9005 19.8893H30.0995C32.7569 19.8893 35.3236 18.9726 37.3577 17.3004L40.2474 20.7337C39.5392 21.317 38.7799 21.8337 37.981 22.2892L36.2812 19.6004L35.3179 20.1893L36.9838 22.8003C35.8619 23.3281 34.6777 23.7225 33.4595 23.9781L32.9325 21.9781L31.7993 22.2448L32.2866 24.167C31.5613 24.2725 30.8304 24.3281 30.0995 24.3336H28.9663V21.5559H27.833V24.3336H25.5213L25.5666 23.2225H24.4334L24.3824 24.3336H22.167V21.5559H21.0337V24.3336H19.9005C19.1639 24.3336 18.4273 24.2725 17.6964 24.167L18.2007 22.2448L17.0675 21.9781L16.5575 23.9725C15.3393 23.717 14.1551 23.3225 13.0332 22.7948L14.6991 20.1837L13.7358 19.5948L12.036 22.2837C11.2598 21.8503 10.5288 21.3559 9.83757 20.8004L12.6536 17.2782ZM13.9171 28.0558L9.27096 26.2336L10.4948 22.667C11.9567 23.6225 13.5602 24.3447 15.2487 24.817L13.9171 28.0558ZM17.0675 39.8889V25.2058C18.0024 25.3614 18.9486 25.4447 19.9005 25.4447H30.0995C31.0514 25.4447 31.9976 25.3614 32.9325 25.2058V39.8889H17.0675ZM36.0828 28.0558L34.757 24.8058C36.4455 24.3392 38.0433 23.617 39.5052 22.667L40.7234 26.2503L36.0828 28.0558Z" fill="black"/>
</svg>
