<svg width="50" height="51" viewBox="0 0 50 51" fill="none" xmlns="http://www.w3.org/2000/svg">
<rect width="50" height="51" fill="white"/>
<path d="M38.8884 41C38.562 41 38.2842 40.7789 38.2136 40.4605L34.5664 24.0934L33.9623 27.2731L34.3283 36.6086C34.3415 36.9315 34.121 37.2278 33.8079 37.3074L25.1728 39.5185C25.1155 39.5318 25.0582 39.5406 25.0008 39.5406C24.9435 39.5406 24.8862 39.5318 24.8289 39.5185L16.1938 37.3074C15.8807 37.2278 15.6602 36.9315 15.6734 36.6086L16.0394 27.2775L15.4308 24.0978L11.7836 40.4649C11.7131 40.7833 11.4352 41.0044 11.1089 41.0044C11.0604 41.0044 11.0119 41 10.9634 40.9867L7.5455 40.2482C7.18828 40.173 6.95454 39.8281 7.00746 39.4654C7.87185 33.7562 10.8399 15.0099 12.7803 13.5638C14.1651 12.5334 17.0538 11.6844 17.7373 11.4942L20.8289 9.14151C20.9347 9.06191 21.067 9.01327 21.1993 9.00442C21.2169 9.00442 21.2302 9 21.2478 9H28.7451C28.873 9 28.992 9.0398 29.0979 9.10614C29.1199 9.11498 29.1464 9.12825 29.164 9.14151L32.2599 11.4942C32.9435 11.6844 35.8322 12.5334 37.2169 13.5638C39.1662 15.0144 42.1298 33.7606 42.9942 39.4699C43.0472 39.8325 42.8134 40.173 42.4562 40.2526L39.0383 40.9912C38.9898 41 38.9413 41.0088 38.8928 41.0088L38.8884 41ZM10.5841 39.4876L14.7781 20.6617C14.4871 18.8795 13.9446 17.1592 13.1684 15.5406C11.9512 18.7689 9.9358 29.4887 8.47163 39.0321L10.5841 39.4876ZM39.4176 39.4831L41.5301 39.0276C40.0703 29.4842 38.0505 18.7601 36.8333 15.5318C36.0527 17.1548 35.5102 18.8706 35.2236 20.6528L39.4176 39.4787V39.4831ZM24.3085 37.953V27.3527C21.6271 22.8065 20.8377 14.236 20.6304 11.0387L18.4738 12.6794C18.3989 12.7324 18.3195 12.7722 18.2357 12.7988C18.1254 12.8297 15.6028 13.5196 14.1166 14.3554C15.1442 16.3101 15.8366 18.4063 16.1673 20.5909L17.411 27.0918C17.4198 27.1493 17.4242 27.1979 17.4198 27.251L17.0758 36.1045L24.3085 37.953ZM25.6888 37.953L32.9215 36.1001L32.5775 27.2465C32.5775 27.1935 32.5775 27.1448 32.5907 27.0918L33.8388 20.5511C34.1695 18.3842 34.8575 16.2968 35.8851 14.351C34.3945 13.5108 31.8763 12.8209 31.766 12.7944C31.6778 12.7722 31.5984 12.7324 31.5279 12.6794L29.3713 11.0387C29.164 14.236 28.3746 22.8021 25.6932 27.3527V37.953H25.6888ZM21.9755 10.3886C22.1078 12.6263 22.7296 20.927 24.9964 25.7031C27.2677 20.9138 27.8895 12.6219 28.0174 10.3886H21.9755Z" fill="black"/>
<path d="M37.067 13.7629C35.6778 12.728 32.6965 11.8745 32.1453 11.7197L29.0141 9.34052C29.0141 9.34052 29.0008 9.34052 28.992 9.3361C28.9215 9.28303 28.8333 9.25207 28.7451 9.25207H21.2478C21.2478 9.25207 21.2434 9.25207 21.239 9.25207C21.1464 9.25207 21.0538 9.28303 20.9788 9.34052L17.8476 11.7197C17.2963 11.8745 14.3151 12.728 12.9259 13.7629C11.0207 15.1868 7.86744 35.4544 7.25443 39.5053C7.21915 39.7352 7.36909 39.9563 7.59842 40.005L11.0163 40.7435C11.2544 40.7966 11.4882 40.6462 11.5411 40.4074L15.4485 22.8596L16.2864 27.2554L15.9204 36.6175C15.9115 36.8253 16.0483 37.0111 16.2511 37.0641L24.8862 39.2753C24.9567 39.293 25.0317 39.293 25.1023 39.2753L33.7373 37.0641C33.9402 37.0111 34.0769 36.8253 34.0681 36.6175L33.7021 27.2554L34.54 22.8552L38.4518 40.403C38.5047 40.6418 38.7384 40.7877 38.9766 40.7391L42.3945 40.0006C42.6238 39.9519 42.7737 39.7352 42.7384 39.5008C42.1298 35.45 38.9766 15.1824 37.0626 13.7584L37.067 13.7629ZM25.1023 26.0614C25.0361 26.0348 24.9612 26.0348 24.895 26.0614C22.4297 21.1305 21.8211 12.2371 21.7109 10.1365H28.282C28.1717 12.246 27.5631 21.1349 25.1023 26.0614ZM10.7737 39.7839L8.18938 39.2266C9.78585 28.7369 11.9468 17.4245 13.1464 14.9392C14.0725 16.7347 14.712 18.6716 15.0295 20.6661L10.7693 39.7839H10.7737ZM17.164 27.136L15.9204 20.6263C15.5808 18.393 14.8575 16.2394 13.7814 14.2582C15.2853 13.3339 18.1387 12.56 18.1695 12.5511C18.2269 12.5379 18.2754 12.5113 18.3239 12.476L20.8553 10.5522C21.0185 13.3958 21.7462 22.5721 24.5642 27.2819V38.2714L16.8244 36.2902L17.1773 27.2333C17.1773 27.1979 17.1773 27.1669 17.1684 27.1316L17.164 27.136ZM33.1817 36.2902L25.4419 38.2714V27.2775C28.2599 22.5633 28.9876 13.3825 29.1508 10.5478L31.6822 12.4715C31.7263 12.5069 31.7792 12.5334 31.8366 12.5467C31.8674 12.5556 34.7208 13.3295 36.2247 14.2537C35.153 16.2261 34.4297 18.3709 34.0902 20.5909L32.8421 27.1316C32.8377 27.1625 32.8333 27.1979 32.8333 27.2333L33.1861 36.2858L33.1817 36.2902ZM39.228 39.7794L34.9678 20.6617C35.2853 18.6628 35.9248 16.7302 36.8553 14.9348C38.0549 17.4201 40.2158 28.7369 41.8167 39.2222L39.2324 39.7794H39.228Z" fill="black"/>
<path d="M27.863 34.906C27.5367 34.906 27.2544 34.6716 27.1883 34.3532C27.1486 34.1719 27.1883 33.9862 27.2853 33.8314C27.3867 33.6766 27.5411 33.5705 27.7219 33.5351L30.7561 32.8718C30.8134 32.8585 30.8619 32.8541 30.906 32.8541C31.2324 32.8541 31.5146 33.0884 31.5808 33.4069C31.6602 33.7828 31.4176 34.1498 31.0427 34.225L28.0086 34.8883C27.9512 34.9016 27.9027 34.906 27.8586 34.906H27.863Z" fill="black"/>
<path d="M30.809 33.1194L27.7748 33.7828C27.5367 33.8314 27.3823 34.0658 27.4308 34.3046C27.4793 34.5434 27.7131 34.6982 27.9512 34.6495C27.9512 34.6495 27.9556 34.6495 27.9601 34.6495L30.9942 33.9862C31.2324 33.9375 31.3867 33.7032 31.3382 33.4643C31.2897 33.2255 31.056 33.0708 30.8178 33.1194C30.8178 33.1194 30.8134 33.1194 30.809 33.1194Z" fill="black"/>
<path d="M22.1343 34.906C22.0813 34.906 22.0284 34.9016 21.9799 34.8883L18.9457 34.225C18.562 34.1365 18.3283 33.7651 18.4165 33.3936C18.4871 33.0752 18.7649 32.8541 19.0913 32.8541C19.1442 32.8541 19.1927 32.8585 19.2456 32.8718L22.2798 33.5351C22.4694 33.5793 22.6238 33.6855 22.7208 33.8447C22.8178 33.9994 22.8487 34.1852 22.809 34.3665C22.7384 34.6849 22.4606 34.906 22.1343 34.906Z" fill="black"/>
<path d="M19.0031 33.9818L22.0372 34.6451C22.2754 34.6982 22.5091 34.5522 22.5664 34.3134C22.6238 34.0746 22.4738 33.8402 22.2357 33.7828C22.2357 33.7828 22.2313 33.7828 22.2269 33.7828L19.1927 33.1194C18.9545 33.0663 18.7208 33.2123 18.6635 33.4511C18.6061 33.6899 18.7561 33.9243 18.9942 33.9818C18.9942 33.9818 18.9986 33.9818 19.0031 33.9818Z" fill="black"/>
</svg>
