<svg width="50" height="51" viewBox="0 0 50 51" fill="none" xmlns="http://www.w3.org/2000/svg">
<path d="M22.9 22.0003H21.5V23.3337H22.9V22.0003Z" fill="black"/>
<path d="M38.9982 31.2864L37.7155 14.1827C37.628 12.9935 36.9866 11.9043 35.9672 11.2126L32.4226 8.80089L28.9375 6.14584C28.8132 6.05167 28.6592 6.00083 28.5 6.00083L21.5 6C21.3408 6 21.1868 6.05167 21.0625 6.14584L17.5774 8.80172L14.0328 11.2134C13.0134 11.9051 12.372 12.9943 12.2845 14.1835L11.0018 31.2864C10.9782 31.6005 11.1891 31.888 11.5075 31.9747L15.8195 33.1481L14.5035 45.265C14.4633 45.6308 14.7433 45.9592 15.1274 45.9967C15.1519 45.9992 15.1755 46 15.2 46H34.8C35.1867 46 35.5 45.7017 35.5 45.3333C35.5 45.31 35.4991 45.2875 35.4965 45.265L34.1805 33.1481L38.4925 31.9739C38.811 31.8872 39.0218 31.6005 38.9982 31.2864ZM32.3132 13.2627C32.5504 13.1493 32.7 12.9185 32.7 12.6668V10.6284L35.1535 12.2976C35.8333 12.7585 36.2603 13.4852 36.319 14.2777L37.3462 27.9763L33.7307 29.0096L33.4061 26.0163L34.7921 17.4344L33.4087 17.2319L32.0997 25.3337H25.7V21.6595L31.7296 17.1927C31.9387 17.0377 32.0385 16.7836 31.986 16.5361L31.391 13.7018L32.3132 13.2627ZM33.4446 39.334H32.7C31.9274 39.3332 31.3009 38.7365 31.3 38.0007V35.3339H33.0097L33.4437 39.334H33.4446ZM27.1 26.6671H32.0691L32.2135 28.0005H27.1V26.6671ZM24.3 28.0005V26.6671H25.7V28.0005H24.3ZM27.3047 8.66672H22.6953L22.3768 7.33336H27.6232L27.3047 8.66672ZM26.9862 10.0001L24.9991 18.3253L23.0129 10.0001H26.9862ZM28.9349 7.85171L31.3 9.65341V12.2543L30.2867 12.7368C30.0041 12.871 29.8519 13.1693 29.9131 13.4635L30.5282 16.3927L26.1165 19.6611L28.9349 7.85171ZM18.7 9.65424L21.0651 7.85254L23.8835 19.6628L19.4718 16.3944L20.0869 13.4652C20.149 13.1701 19.9959 12.8726 19.7133 12.7385L18.7 12.256V9.65424ZM13.681 14.2785C13.7397 13.486 14.1667 12.7593 14.8465 12.2985L17.3 10.6293V12.6676C17.3 12.9201 17.4497 13.151 17.6868 13.2635L18.609 13.7027L18.014 16.5369C17.9624 16.7844 18.0613 17.0386 18.2704 17.1936L24.3 21.6603V25.3346H17.9003L16.5913 17.2327L15.2079 17.4352L16.5939 26.0171L16.2684 29.0105L12.6529 27.9771L13.6802 14.2785H13.681ZM22.9 28.0005H17.7865L17.9309 26.6671H22.9V28.0005ZM18.7 35.3339V38.0007C18.6991 38.7365 18.0727 39.3332 17.3 39.334H16.5554L16.9894 35.3339H18.7ZM12.4385 30.8414L12.5514 29.3397L16.1232 30.3605L15.9665 31.8014L12.4394 30.8414H12.4385ZM16.411 40.6674H17.3C18.8453 40.6657 20.0983 39.4724 20.1 38.0007V34.6673C20.1 34.2989 19.7868 34.0006 19.4 34.0006H17.1347L17.6413 29.3338H24.3V44.6675H15.9762L16.411 40.6674ZM25.7 44.6675V29.3338H32.3587L32.8653 34.0006H30.6C30.2132 34.0006 29.9 34.2989 29.9 34.6673V38.0007C29.9017 39.4724 31.1547 40.6657 32.7 40.6674H33.589L34.0238 44.6675H25.7ZM34.0335 31.8014L33.8768 30.3605L37.4486 29.3397L37.5615 30.8414L34.0343 31.8014H34.0335Z" fill="black"/>
</svg>
