<svg width="44" height="48" viewBox="0 0 44 48" fill="none" xmlns="http://www.w3.org/2000/svg">
<path d="M20.3576 45.9368C20.0828 45.9368 19.8609 45.7242 19.8609 45.4607V10.5488C19.8609 10.2853 20.0828 10.0727 20.3576 10.0727C20.6324 10.0727 20.8543 10.2853 20.8543 10.5488V45.4607C20.8543 45.7242 20.6324 45.9368 20.3576 45.9368Z" fill="black"/>
<path d="M41.8477 48H6.15232C4.96358 48 4 47.0763 4 45.9368V10.0632C4 8.92366 4.96358 8 6.15232 8H41.8477C43.0364 8 44 8.92366 44 10.0632V45.9368C44 47.0763 43.0364 48 41.8477 48ZM6.15232 8.95223C5.51325 8.95223 4.99338 9.45056 4.99338 10.0632V45.9368C4.99338 46.5494 5.51325 47.0478 6.15232 47.0478H41.8477C42.4868 47.0478 43.0066 46.5494 43.0066 45.9368V10.0632C43.0066 9.45056 42.4868 8.95223 41.8477 8.95223H6.15232Z" fill="black"/>
<path d="M41.0828 10.0663H6.91722C6.44702 10.0663 6.06622 10.4314 6.06622 10.8821V45.1147C6.06622 45.5655 6.44702 45.9305 6.91722 45.9305H20.3113C20.3113 45.9305 20.3411 45.9337 20.3543 45.9337C20.3675 45.9337 20.3841 45.9305 20.3974 45.9305H41.0762C41.5464 45.9305 41.9272 45.5655 41.9272 45.1147V10.8821C41.9272 10.4314 41.5464 10.0663 41.0762 10.0663H41.0828ZM19.8609 44.9783H7.0596V35.6686H19.8609V44.9783ZM19.8609 34.7196H7.0596V21.9184H19.8609V34.7196ZM19.8609 20.963H7.0596V11.0186H19.8609V20.963ZM40.9404 44.9783H20.8543V17.0494H40.9404V44.9783ZM40.9404 16.0971H20.8543V11.0217H40.9404V16.0971Z" fill="black"/>
<path d="M18.7583 18.3063C18.7583 17.4683 18.0464 16.7859 17.1722 16.7859H9.74835C8.87418 16.7859 8.16557 17.462 8.16226 18.2968C8.16226 18.6904 8.31789 19.0681 8.60265 19.3506C7.99669 19.9568 8.01987 20.9154 8.65232 21.4963C8.94703 21.7692 9.34107 21.9184 9.75166 21.9184H17.1755C18.0497 21.9184 18.7583 21.2455 18.7616 20.4076C18.7616 20.014 18.606 19.6363 18.3212 19.3538C18.6027 19.0713 18.7616 18.6999 18.7616 18.3095L18.7583 18.3063ZM9.74835 17.735H17.1722C17.5 17.7286 17.7715 17.9762 17.7782 18.2904C17.7848 18.6047 17.5265 18.8649 17.1987 18.8713C17.1887 18.8713 17.1788 18.8713 17.1722 18.8713H9.74835C9.42054 18.8649 9.16226 18.6047 9.16888 18.2904C9.1755 17.9857 9.43047 17.7413 9.74835 17.735ZM17.1689 20.963H9.74504C9.41722 20.9567 9.15895 20.6964 9.16557 20.3822C9.17219 20.0775 9.42716 19.833 9.74504 19.8267H17.1689C17.4967 19.8204 17.7682 20.0679 17.7748 20.3822C17.7815 20.6964 17.5232 20.9567 17.1954 20.963C17.1854 20.963 17.1755 20.963 17.1689 20.963Z" fill="black"/>
<path d="M18.4139 31.0154C19.0199 30.4091 18.9967 29.4506 18.3642 28.8697C18.0695 28.5967 17.6755 28.4476 17.2649 28.4476H9.84107C8.96689 28.4476 8.25829 29.1205 8.25497 29.9584C8.25497 30.352 8.4106 30.7297 8.69537 31.0122C8.10928 31.5963 8.10928 32.5199 8.69537 33.1008C8.08941 33.707 8.11259 34.6656 8.74504 35.2465C9.03974 35.5163 9.43378 35.6686 9.84438 35.6686H17.2682C18.1424 35.6686 18.851 34.9925 18.8543 34.1546C18.8543 33.761 18.6987 33.3865 18.4139 33.1008C19 32.5168 19 31.5931 18.4139 31.0122V31.0154ZM9.25166 32.0597C9.25166 31.7454 9.51656 31.4915 9.84438 31.4915H17.2682C17.596 31.4979 17.8543 31.7581 17.8477 32.0724C17.8411 32.3771 17.5861 32.6215 17.2682 32.6278H9.84438C9.51656 32.6278 9.25166 32.3739 9.25166 32.0597ZM9.84438 29.3998H17.2682C17.596 29.4061 17.8543 29.6664 17.8477 29.9806C17.8411 30.2854 17.5861 30.5298 17.2682 30.5361H9.84438C9.51656 30.5425 9.24504 30.2949 9.23842 29.9806C9.23179 29.6664 9.49007 29.4061 9.81789 29.3998C9.82782 29.3998 9.83776 29.3998 9.84438 29.3998ZM17.2682 34.7164H9.84438C9.51656 34.7164 9.25166 34.4625 9.25166 34.1482C9.25166 33.834 9.51656 33.5801 9.84438 33.5801H17.2682C17.596 33.5801 17.8609 33.834 17.8609 34.1482C17.8609 34.4625 17.596 34.7164 17.2682 34.7164Z" fill="black"/>
<path d="M40.202 26.1686C39.9371 25.1878 39.2285 22.804 38.3841 21.9121C37.8874 21.3566 37.2715 20.9059 36.5828 20.5917C36.2649 20.452 35.9007 20.4552 35.5861 20.6044C35.1457 20.2679 34.6589 19.8775 34.3179 19.5791C34.4669 19.376 34.5993 19.1633 34.7152 18.9411C35.3973 17.6207 35.2748 16.4907 34.4007 15.9924C33.9503 15.7353 33.3973 15.694 32.9106 15.8845C32.4636 16.059 32.1291 16.4272 32.0099 16.8748C31.9437 17.1287 32.1026 17.389 32.3675 17.4525C32.6324 17.516 32.904 17.3636 32.9702 17.1097C33.0132 16.951 33.1291 16.824 33.2881 16.7637C33.4868 16.6875 33.7086 16.7066 33.8907 16.8113C34.3543 17.0779 34.1424 17.8968 33.8212 18.5221C33.6656 18.8142 33.4801 19.0903 33.2682 19.3474C32.894 19.8013 32.4801 20.2235 32.0331 20.6139C31.7384 20.525 31.4205 20.5504 31.1457 20.6901C31.0695 20.7281 30.9801 20.7726 30.8808 20.8202C30.7185 20.8995 30.5232 20.9948 30.3212 21.1027C30.096 20.7218 29.6755 20.4901 29.2185 20.4901H28.702C28.0497 20.0711 27.5364 19.7156 27.2086 19.4649C27.3841 19.2649 27.5331 19.049 27.6589 18.8173C28.3576 17.4906 28.2583 16.4368 27.3808 15.9257C26.8874 15.6591 26.2881 15.6496 25.7848 15.9003C25.2848 16.1352 24.9437 16.5986 24.8874 17.1287C24.8609 17.389 25.0596 17.6239 25.3344 17.6493C25.606 17.6747 25.851 17.4842 25.8775 17.2208C25.904 17.0144 26.0397 16.8367 26.2351 16.751C26.4305 16.6463 26.6689 16.6431 26.8709 16.7383C27.404 17.0494 26.9834 17.9952 26.7748 18.3888C26.606 18.6777 26.3974 18.9443 26.1523 19.1792C25.6623 19.6553 25.1358 20.0965 24.5695 20.4901H24.1258C23.5861 20.4901 23.106 20.8138 22.9238 21.3027C22.096 23.6197 21.7417 26.0702 21.8841 28.5142C21.9636 29.6251 22.0695 32.3993 22.1159 39.303V39.3887C22.1159 39.7696 22.3974 40.0965 22.7881 40.1663C23.1556 40.2266 23.5298 40.2552 23.904 40.2489C24.4073 40.2489 24.9073 40.2139 25.4073 40.1473C25.7848 40.0901 26.0762 39.7918 26.106 39.4268L26.5364 34.3958L26.9205 39.449C26.9437 39.8013 27.2086 40.0965 27.5695 40.1727C28.4437 40.2869 29.3311 40.2774 30.202 40.1441C30.6093 40.0965 30.9205 39.7759 30.9338 39.3823L30.9404 39.2014C30.9702 38.3381 31.0364 36.3447 31.1159 34.2752C31.8245 34.3292 32.6391 34.3577 33.5298 34.3577C34.9338 34.3577 36.5166 34.2911 38.1159 34.1546C38.3907 34.1324 38.5927 33.9007 38.5662 33.6372L38.0132 27.854C38 27.708 38.0993 27.5779 38.2483 27.5461C38.7748 27.4541 39.2848 27.2954 39.7649 27.0732C40.1126 26.9113 40.2947 26.5367 40.1987 26.1749L40.202 26.1686ZM33.7086 20.3282C34.0166 20.5948 34.3907 20.8932 34.6987 21.1344C34.1258 21.4011 33.4603 21.4074 32.8808 21.1535C33.1291 20.9249 33.4205 20.6456 33.7086 20.3282ZM26.5331 20.1568C26.6589 20.2552 26.8046 20.3631 26.9768 20.4869H26.1556C26.2881 20.3758 26.4172 20.2647 26.5331 20.1568ZM29.9503 39.1665V39.2078C29.2748 39.2998 28.5894 39.3188 27.9073 39.2585L27.0894 28.5396C27.0894 28.5174 27.0927 28.4983 27.0894 28.4761L26.9834 26.9303C26.9801 26.8605 26.957 26.7907 26.9205 26.7304L26.1788 25.4671C26.0397 25.2354 25.7351 25.1528 25.4934 25.283C25.255 25.4068 25.1623 25.6924 25.2914 25.921C25.2914 25.921 25.2947 25.9273 25.298 25.9305L25.9834 27.0986L26.0629 28.2698L25.1291 39.2204C24.4603 39.3093 23.7848 39.3188 23.1126 39.249C23.0629 32.3517 22.957 29.568 22.8775 28.4444C22.745 26.1273 23.0795 23.807 23.8642 21.6137C23.904 21.5058 24.0099 21.436 24.1291 21.4391H29.2252C29.3444 21.4391 29.4503 21.5121 29.4901 21.6201L29.5894 21.9343C30.2649 24.1403 30.543 26.4383 30.4139 28.7332C30.3377 29.6505 30.2517 31.2408 30.149 33.7324C30.0563 35.9797 29.9834 38.2333 29.9503 39.1665ZM38.0596 26.6066C37.4106 26.7304 36.9669 27.3049 37.0298 27.9365L37.5364 33.2404C35.4139 33.4182 33.2848 33.4436 31.1589 33.3166C31.255 31.0948 31.3344 29.6569 31.404 28.8062C31.5397 26.5177 31.2848 24.226 30.6457 22.0168C30.8874 21.8803 31.1291 21.7629 31.3377 21.6613C31.447 21.6074 31.543 21.5629 31.6225 21.5217C31.6854 21.4931 31.7583 21.5026 31.8113 21.5471C31.8245 21.5566 31.8377 21.5693 31.851 21.582C32.7947 22.5818 34.692 22.5342 35.9901 21.4804C36.0397 21.4391 36.106 21.4296 36.1656 21.4582C36.7351 21.7216 37.2384 22.093 37.649 22.5564C38.1987 23.1405 38.8046 24.8354 39.2053 26.2765C38.8411 26.432 38.4569 26.5463 38.0629 26.6129L38.0596 26.6066Z" fill="black"/>
<path d="M13.1391 44.7148C13.0232 43.9562 12.9934 43.1881 13.0464 42.4199C13.0497 42.2676 13.043 42.1184 13.0232 41.966C12.9106 40.9757 12.2947 40.2552 11.4901 40.1727C10.9139 40.1028 10.3444 40.3504 10.0232 40.817C9.74172 41.2074 9.58278 41.6708 9.56953 42.147C9.5596 42.2739 9.55629 42.4072 9.54967 42.5406C9.54967 42.8643 9.51655 43.1849 9.46026 43.5023C9.30794 44.1117 9.18212 44.591 9.08278 44.9211C8.96026 45.3433 9.21523 45.7813 9.65563 45.8988C9.72847 45.9178 9.80463 45.9273 9.88079 45.9273H12.3609C12.8179 45.9273 13.1887 45.5686 13.1887 45.1306C13.1887 45.0989 13.1887 45.0671 13.1821 45.0354C13.1656 44.918 13.149 44.8164 13.1358 44.7116L13.1391 44.7148ZM11.7748 44.9783C11.7748 44.5942 11.8146 44.2133 11.8907 43.8388C11.9503 43.5817 11.7781 43.3277 11.5099 43.2706C11.2417 43.2135 10.9768 43.3785 10.9172 43.6356C10.8245 44.0768 10.7781 44.5275 10.7781 44.9783H10.096C10.1887 44.6513 10.298 44.2292 10.4305 43.7054C10.5 43.3309 10.5364 42.9532 10.5397 42.5755C10.543 42.4517 10.5497 42.3311 10.5563 42.2168C10.5563 41.9216 10.649 41.6296 10.8212 41.3852C10.9338 41.1947 11.1622 41.09 11.3874 41.1281C11.649 41.1535 11.9636 41.4645 12.0331 42.0867C12.0464 42.1914 12.053 42.2993 12.0497 42.4041C11.9934 43.2262 12.0265 44.0514 12.1523 44.8672C12.1589 44.9053 12.1656 44.9465 12.1722 44.9846H11.7748V44.9783Z" fill="black"/>
<path d="M17.8477 44.9211C17.7483 44.5879 17.6225 44.1117 17.4735 43.5214C17.4139 43.1976 17.3841 42.8675 17.3808 42.5406C17.3775 42.4041 17.3709 42.2739 17.3609 42.1438C17.3477 41.6677 17.1921 41.2074 16.9073 40.817C16.5861 40.3504 16.0132 40.0997 15.4338 40.1727C14.6325 40.2552 14.0199 40.9757 13.9073 41.9565C13.8874 42.1089 13.8808 42.2644 13.8841 42.4199C13.9371 43.1849 13.9073 43.953 13.7914 44.7116C13.7748 44.8132 13.7583 44.918 13.7417 45.0354C13.6854 45.4702 14.0099 45.867 14.4636 45.921C14.4967 45.9241 14.5298 45.9273 14.5629 45.9273H17.043C17.5 45.9273 17.8709 45.5718 17.8709 45.1338C17.8709 45.0608 17.8609 44.9878 17.8411 44.918L17.8477 44.9211ZM16.1523 44.9783C16.1523 44.5275 16.106 44.0768 16.0132 43.6356C15.9536 43.3785 15.6887 43.2166 15.4205 43.2706C15.1523 43.3277 14.9834 43.5817 15.0397 43.8388C15.1192 44.2133 15.1589 44.5942 15.1556 44.9783H14.755C14.7616 44.937 14.7682 44.8989 14.7748 44.8608C14.8974 44.0451 14.9338 43.223 14.8775 42.4009C14.8775 42.2898 14.8775 42.1819 14.894 42.074C14.9636 41.4582 15.2781 41.1503 15.5331 41.1249C15.7616 41.0868 15.9901 41.1884 16.106 41.382C16.2781 41.6264 16.3676 41.9153 16.3676 42.2105C16.3775 42.3279 16.3808 42.4485 16.3841 42.5723C16.3874 42.9595 16.4272 43.3436 16.5 43.7245C16.6258 44.2324 16.7384 44.6545 16.8311 44.9783H16.149H16.1523Z" fill="black"/>
<circle cx="12" cy="12" r="12" fill="#F6AE24"/>
<path d="M4.2 13.232L5.256 12.704C5.568 13.392 6.16 13.832 6.952 13.832C7.736 13.832 8.176 13.56 8.176 13.064C8.176 12.624 7.952 12.392 7.352 12.232L6.4 11.976C5.528 11.744 4.576 11.256 4.576 10.072C4.576 8.872 5.592 8.152 6.896 8.152C8.16 8.152 9.032 8.896 9.392 9.736L8.352 10.264C8.08 9.736 7.6 9.288 6.896 9.288C6.184 9.288 5.816 9.584 5.816 10.072C5.816 10.544 6.176 10.728 6.688 10.864L7.6 11.104C8.48 11.336 9.416 11.864 9.416 13.064C9.416 14.264 8.328 14.968 6.952 14.968C5.608 14.968 4.64 14.312 4.2 13.232ZM14.7193 12.208V12.88H11.4473C11.5353 13.552 11.9673 13.864 12.4633 13.864C12.9433 13.864 13.3273 13.664 13.4953 13.256L14.6393 13.592C14.3673 14.488 13.5193 14.968 12.4633 14.968C11.2313 14.968 10.2153 14.184 10.2153 12.632V12.2C10.2153 10.656 11.2313 9.872 12.4633 9.872C13.7033 9.872 14.7193 10.656 14.7193 12.208ZM11.4633 11.856H13.4873C13.4873 11.384 13.0233 10.976 12.4633 10.976C11.9913 10.976 11.5833 11.256 11.4633 11.856ZM18.4037 13.704L18.6677 14.752C18.3717 14.896 17.9397 14.968 17.5797 14.968C16.6437 14.968 16.0597 14.472 16.0597 13.544V11.136H15.3237V9.992H16.0597V8.752H17.3157V9.992H18.4357V11.136H17.3157V13.344C17.3157 13.712 17.4757 13.824 17.7717 13.824C18.0197 13.824 18.2037 13.776 18.4037 13.704Z" fill="white"/>
</svg>
