<svg width="40" height="40" viewBox="0 0 40 40" fill="none" xmlns="http://www.w3.org/2000/svg">
<path d="M36.3312 33.2948L36.6875 32.9386C36.9313 32.6949 36.9313 32.3012 36.6875 32.0575C36.6688 32.0387 36.6562 32.0262 36.6375 32.0137L34.6375 30.414C36.9312 25.7772 35.0375 20.1593 30.4 17.8597C25.7625 15.5663 20.1437 17.4598 17.8438 22.0965C16.9187 23.965 16.6438 26.0834 17.0563 28.1269H16.2437C15.5562 28.1269 14.9937 28.6893 14.9937 29.3767V38.7502C14.9937 39.4376 15.5562 40 16.2437 40H19.9937C20.6812 40 21.2438 39.4376 21.2438 38.7502V34.1697C24 35.9319 27.4813 36.1069 30.4062 34.6383L32.0062 36.638C32.1187 36.7755 32.2812 36.863 32.4625 36.8692C32.475 36.8692 32.4875 36.8692 32.5 36.8692C32.6688 36.8692 32.825 36.8005 32.9437 36.688L33.3 36.3318L35.8937 39.2126C36.3375 39.7125 36.975 40 37.6437 40C38.9437 40 40 38.9439 40 37.6441C40 36.9755 39.7188 36.3443 39.2188 35.9006L36.3312 33.3073V33.2948ZM20 38.7439H16.25V29.3704H17.425C17.95 30.8452 18.8375 32.17 20 33.2136V38.7439ZM18.125 26.2459C18.125 21.7591 21.7625 18.1222 26.25 18.1222C30.7375 18.1222 34.375 21.7591 34.375 26.2459C34.375 30.7327 30.7375 34.3696 26.25 34.3696C21.7625 34.3696 18.1313 30.7327 18.125 26.2459ZM31.5063 34.0009C32.4875 33.3323 33.3375 32.4824 34.0062 31.5013L35.3125 32.5449L32.55 35.307L31.5063 34.0009ZM37.6437 38.7439C37.3312 38.7439 37.0312 38.6127 36.825 38.3753L34.1812 35.4445L35.4437 34.1822L38.3812 36.8255C38.6125 37.0317 38.7438 37.3254 38.7438 37.6379C38.7438 38.2503 38.25 38.7439 37.6375 38.7439H37.6437ZM10.625 21.2467C16.4937 21.2467 21.25 16.4912 21.25 10.6233C21.25 4.75551 16.4937 0 10.625 0C4.75625 0 0 4.75551 0 10.6233C0.00625 16.4849 4.7625 21.2404 10.625 21.2467ZM16.0562 18.2534L11.7438 11.2482H19.9688C19.7812 14.0541 18.3438 16.6224 16.0562 18.2534ZM19.9688 9.99844H11.25V1.28105C15.925 1.59975 19.65 5.32417 19.9688 9.99844ZM10 1.28105V10.6233C10 10.6233 10.0063 10.6546 10.0063 10.6671C10.0188 10.7483 10.0375 10.8296 10.075 10.9045C10.0813 10.917 10.0813 10.9358 10.0938 10.9483L14.9937 18.9095C10.4187 21.3217 4.75 19.5719 2.3375 14.9977C-0.0812499 10.4234 1.66875 4.76176 6.24375 2.34338C7.40625 1.73098 8.6875 1.36854 10 1.28105ZM5 31.2451H1.25C0.5625 31.2451 0 31.8075 0 32.4949V38.7439C0 39.4313 0.5625 39.9938 1.25 39.9938H5C5.6875 39.9938 6.25 39.4313 6.25 38.7439V32.4949C6.25 31.8075 5.6875 31.2451 5 31.2451ZM1.25 38.7439V32.4949H5V38.7439H1.25ZM12.5 23.7463H8.75C8.0625 23.7463 7.5 24.3087 7.5 24.9961V38.7439C7.5 39.4313 8.0625 39.9938 8.75 39.9938H12.5C13.1875 39.9938 13.75 39.4313 13.75 38.7439V24.9961C13.75 24.3087 13.1875 23.7463 12.5 23.7463ZM8.75 38.7439V24.9961H12.5V38.7439H8.75ZM26.25 19.372C22.45 19.372 19.375 22.4465 19.375 26.2459C19.375 30.0453 22.45 33.1198 26.25 33.1198C30.05 33.1198 33.125 30.0453 33.125 26.2459C33.125 22.4527 30.0438 19.3782 26.25 19.372ZM26.25 31.87C23.1437 31.87 20.625 29.3517 20.625 26.2459C20.625 23.1401 23.1437 20.6218 26.25 20.6218C29.3563 20.6218 31.875 23.1401 31.875 26.2459C31.875 29.3517 29.3563 31.8638 26.25 31.87ZM38.75 0H25C24.3125 0 23.75 0.562412 23.75 1.2498V4.99922C23.75 5.68661 24.3125 6.24902 25 6.24902H38.75C39.4375 6.24902 40 5.68661 40 4.99922V1.2498C40 0.562412 39.4375 0 38.75 0ZM25 4.99922V1.2498H38.75V4.99922H25ZM40 8.74863C40 9.09233 39.7188 9.37354 39.375 9.37354H24.375C24.0312 9.37354 23.75 9.09233 23.75 8.74863C23.75 8.40494 24.0312 8.12373 24.375 8.12373H39.375C39.7188 8.12373 40 8.40494 40 8.74863ZM40 11.8731C40 12.2168 39.7188 12.498 39.375 12.498H24.375C24.0312 12.498 23.75 12.2168 23.75 11.8731C23.75 11.5294 24.0312 11.2482 24.375 11.2482H39.375C39.7188 11.2482 40 11.5294 40 11.8731ZM24.375 15.6226C24.0312 15.6226 23.75 15.3414 23.75 14.9977C23.75 14.654 24.0312 14.3728 24.375 14.3728H35C35.3438 14.3728 35.625 14.654 35.625 14.9977C35.625 15.3414 35.3438 15.6226 35 15.6226H24.375ZM29.1937 24.5524C29.4375 24.7961 29.4375 25.1898 29.1937 25.4335L26.0687 28.558C25.825 28.8018 25.4312 28.8018 25.1875 28.558L23.3125 26.6833C23.0688 26.4396 23.0688 26.0459 23.3125 25.8022C23.5562 25.5585 23.95 25.5585 24.1937 25.8022L25.625 27.2332L28.3063 24.5524C28.55 24.3087 28.9438 24.3087 29.1875 24.5524H29.1937Z" fill="black"/>
</svg>
