<svg width="33" height="40" viewBox="0 0 33 40" fill="none" xmlns="http://www.w3.org/2000/svg">
<path d="M0.610097 32.5H16.4961C16.6564 32.5 16.8168 32.432 16.9302 32.316L23.039 26.068C23.1524 25.952 23.2189 25.796 23.2189 25.624V0.624C23.2189 0.28 22.9451 0 22.6088 0H0.610097C0.273762 0 0 0.28 0 0.624V31.872C0 32.216 0.273762 32.496 0.610097 32.496V32.5ZM17.1101 30.364V26.248H21.1344L17.1101 30.364ZM1.22411 1.252H22.0026V25.004H16.5039C16.1676 25.004 15.8938 25.284 15.8938 25.628V31.252H1.22411V1.252ZM32.386 0H25.0531C24.7168 0 24.443 0.28 24.443 0.624V31.872C24.443 32.216 24.7168 32.496 25.0531 32.496H32.386C32.7223 32.496 32.9961 32.216 32.9961 31.872V0.624C33 0.28 32.7262 0 32.386 0ZM31.7759 1.252V28.128H30.4501C30.1998 27.4 29.5193 26.88 28.7215 26.88C27.9237 26.88 27.2471 27.4 26.9929 28.128H25.6671V24.376H26.8873C27.2236 24.376 27.4974 24.096 27.4974 23.752C27.4974 23.408 27.2236 23.128 26.8873 23.128H25.6671V20.628H27.5013C27.8376 20.628 28.1114 20.348 28.1114 20.004C28.1114 19.66 27.8376 19.38 27.5013 19.38H25.6671V16.88H26.8873C27.2236 16.88 27.4974 16.6 27.4974 16.256C27.4974 15.912 27.2236 15.632 26.8873 15.632H25.6671V13.132H27.5013C27.8376 13.132 28.1114 12.852 28.1114 12.508C28.1114 12.164 27.8376 11.884 27.5013 11.884H25.6671V9.384H26.8873C27.2236 9.384 27.4974 9.104 27.4974 8.76C27.4974 8.416 27.2236 8.136 26.8873 8.136H25.6671V5.636H27.5013C27.8376 5.636 28.1114 5.356 28.1114 5.012C28.1114 4.668 27.8376 4.388 27.5013 4.388H25.6671V1.252H31.7759ZM31.7759 31.252H25.6671V29.376H27.5013C27.8376 29.376 28.1114 29.096 28.1114 28.752C28.1114 28.408 28.3852 28.128 28.7215 28.128C29.0578 28.128 29.3316 28.408 29.3316 28.752C29.3316 29.096 29.6054 29.376 29.9417 29.376H31.7759V31.252ZM32.691 36.332L28.4125 33.832C28.3109 33.772 28.1818 33.748 28.1114 33.748H3.0544C1.36881 33.752 0 35.152 0 36.876C0 38.6 1.36881 40 3.0544 40H28.1114C28.2131 40 28.3343 39.964 28.4125 39.92L32.691 37.42C32.8827 37.308 33 37.1 33 36.876C33 36.652 32.8827 36.444 32.691 36.332ZM28.2757 38.56L27.0398 36.876L28.2757 35.192L29.9573 36.176C29.9573 36.2 29.9417 36.224 29.9417 36.252V37.5C29.9417 37.528 29.9534 37.548 29.9573 37.576L28.2757 38.56ZM25.7883 37.252L26.8873 38.752H8.557V35H26.8912L25.7922 36.5C25.628 36.72 25.628 37.028 25.7922 37.252H25.7883ZM1.22411 36.876C1.22411 35.84 2.04539 35 3.05831 35H4.89251V38.752H3.05831C2.04539 38.752 1.22411 37.912 1.22411 36.876ZM6.1127 38.752V35H7.3329V38.752H6.1127ZM6.7228 10.16V10.624C6.7228 10.704 6.73845 10.78 6.76582 10.856L7.93909 13.86C7.91953 15.332 7.48933 16.756 6.6876 17.984L4.37627 21.528C4.27068 21.688 4.2433 21.888 4.30588 22.072C4.43103 22.456 5.37355 24.372 11.6075 24.372C17.8414 24.372 18.784 22.456 18.9091 22.072C18.9678 21.888 18.9443 21.688 18.8387 21.528L16.5274 17.984C15.7256 16.756 15.2994 15.332 15.2759 13.86L16.4492 10.856C16.4765 10.784 16.4922 10.704 16.4922 10.624V10.16C16.4922 8.968 15.7178 7.968 14.658 7.632V6.252C14.658 5.908 14.3842 5.628 14.0479 5.628C13.7115 5.628 13.4378 5.908 13.4378 6.252V7.548C12.7456 7.672 12.1237 8.076 11.7248 8.688L11.6036 8.876L11.4823 8.688C11.0834 8.076 10.4655 7.672 9.76938 7.548V6.252C9.76938 5.908 9.49562 5.628 9.15928 5.628C8.82294 5.628 8.54918 5.908 8.54918 6.252V7.632C7.48933 7.968 6.71498 8.968 6.71498 10.16H6.7228ZM14.2512 15.624H8.96765C9.05369 15.212 9.11626 14.796 9.14364 14.376H14.0753C14.1026 14.796 14.1652 15.216 14.2512 15.624ZM17.5872 21.86C17.3526 22.072 16.8168 22.424 15.7217 22.704C15.7139 22.696 15.7139 22.688 15.7061 22.684C15.6904 22.668 13.9814 20.892 13.4221 18.6C13.34 18.264 13.0076 18.06 12.683 18.144C12.3545 18.228 12.155 18.568 12.2371 18.9C12.6791 20.704 13.6959 22.184 14.3216 22.964C13.5825 23.06 12.6869 23.12 11.6075 23.12C10.5281 23.12 9.6325 23.06 8.88943 22.964C9.51517 22.184 10.5359 20.7 10.9778 18.896C11.06 18.56 10.8605 18.224 10.532 18.14C10.2035 18.056 9.87106 18.26 9.79284 18.596C9.23359 20.888 7.52453 22.664 7.50889 22.68C7.50107 22.688 7.49716 22.7 7.49325 22.708C6.39038 22.428 5.86241 22.072 5.63167 21.86L7.70834 18.676C8.07988 18.108 8.3771 17.504 8.60785 16.876H14.615C14.8457 17.504 15.1468 18.112 15.5145 18.676L17.5872 21.86ZM7.943 10.16C7.943 9.38 8.56091 8.748 9.32354 8.748C9.78502 8.748 10.2152 8.984 10.4694 9.376L11.0991 10.344C11.3259 10.692 11.8891 10.692 12.1159 10.344L12.7456 9.376C13.0037 8.984 13.43 8.748 13.8914 8.748C14.6541 8.748 15.272 9.38 15.272 10.16V10.504L14.2473 13.124H8.96374L7.93909 10.504V10.16H7.943ZM3.0544 3.752C3.0544 3.408 3.32816 3.128 3.66449 3.128H4.88469C5.22102 3.128 5.49479 3.408 5.49479 3.752C5.49479 4.096 5.22102 4.376 4.88469 4.376H3.66449C3.32816 4.376 3.0544 4.096 3.0544 3.752ZM3.0544 6.252C3.0544 5.908 3.32816 5.628 3.66449 5.628H6.10879C6.44513 5.628 6.71889 5.908 6.71889 6.252C6.71889 6.596 6.44513 6.876 6.10879 6.876H3.66449C3.32816 6.876 3.0544 6.596 3.0544 6.252ZM6.7228 28.752C6.7228 29.096 6.44904 29.376 6.1127 29.376H3.66841C3.33207 29.376 3.05831 29.096 3.05831 28.752C3.05831 28.408 3.33207 28.128 3.66841 28.128H6.1127C6.44904 28.128 6.7228 28.408 6.7228 28.752ZM9.7772 26.252C9.7772 26.596 9.50344 26.876 9.1671 26.876H3.66841C3.33207 26.876 3.05831 26.596 3.05831 26.252C3.05831 25.908 3.33207 25.628 3.66841 25.628H9.1671C9.50344 25.628 9.7772 25.908 9.7772 26.252Z" fill="black"/>
</svg>
