<svg width="44" height="40" viewBox="0 0 44 40" fill="none" xmlns="http://www.w3.org/2000/svg">
<path d="M44 10.6667V36C44 38.2067 42.1506 40 39.875 40H4.125C1.84938 40 0 38.2067 0 36V10.6667C0 8.46 1.84938 6.66667 4.125 6.66667H21.1337C21.5119 6.66667 21.8212 6.96667 21.8212 7.33333C21.8212 7.7 21.5119 8 21.1337 8H4.125C2.60562 8 1.375 9.19333 1.375 10.6667V36C1.375 37.4733 2.60562 38.6667 4.125 38.6667H39.875C41.3944 38.6667 42.625 37.4733 42.625 36V10.6667C42.625 9.19333 41.3944 8 39.875 8H36.6162C36.2381 8 35.9287 7.7 35.9287 7.33333C35.9287 6.96667 36.2381 6.66667 36.6162 6.66667H39.875C42.1506 6.66667 44 8.46 44 10.6667ZM17.1875 11.3333V22H21.9656C22.3438 22 22.6531 22.3 22.6531 22.6667C22.6531 23.0333 22.3438 23.3333 21.9656 23.3333H16.5C16.1219 23.3333 15.8125 23.0333 15.8125 22.6667V11.3333H11.6875V22.6667C11.6875 23.0333 11.3781 23.3333 11 23.3333H4.8125V27.3333H21.3125C21.6906 27.3333 22 27.6333 22 28V35.3333H26.125V30.46C26.125 30.0933 26.4344 29.7933 26.8125 29.7933C27.1906 29.7933 27.5 30.0933 27.5 30.46V35.3333H39.1875V28.6667H35.3237C34.9456 28.6667 34.6362 28.3667 34.6362 28C34.6362 27.6333 34.9456 27.3333 35.3237 27.3333H39.1875V23.3333H35.7844C35.4062 23.3333 35.0969 23.0333 35.0969 22.6667C35.0969 22.3 35.4062 22 35.7844 22H39.1875V11.3333H37.4275C37.0494 11.3333 36.74 11.0333 36.74 10.6667C36.74 10.3 37.0494 10 37.4275 10H39.875C40.2531 10 40.5625 10.3 40.5625 10.6667V36C40.5625 36.3667 40.2531 36.6667 39.875 36.6667H4.125C3.74688 36.6667 3.4375 36.3667 3.4375 36V10.6667C3.4375 10.3 3.74688 10 4.125 10H20.3225C20.7006 10 21.01 10.3 21.01 10.6667C21.01 11.0333 20.7006 11.3333 20.3225 11.3333H17.1875ZM4.8125 28.6667V35.3333H20.625V28.6667H4.8125ZM10.3125 11.3333H4.8125V22H10.3125V11.3333ZM25.795 22.7133C26.1319 22.54 26.2556 22.1333 26.0769 21.8133C25.8981 21.4867 25.4856 21.3667 25.1488 21.54C23.6088 22.3333 22.6875 23.6267 22.6875 25C22.6875 27.4333 25.4031 29.3333 28.875 29.3333C32.3469 29.3333 35.0625 27.4333 35.0625 25C35.0625 23.6267 34.1413 22.3333 32.6012 21.54C32.2644 21.3667 31.8519 21.4933 31.6731 21.8133C31.4944 22.14 31.625 22.54 31.955 22.7133C33.0412 23.2733 33.6875 24.1267 33.6875 25C33.6875 26.6267 31.4806 28 28.875 28C26.2694 28 24.0625 26.6267 24.0625 25C24.0625 24.1267 24.7087 23.2733 25.795 22.7133ZM21.3125 2.66667V2C21.3125 0.9 22.2406 0 23.375 0H34.375C35.5094 0 36.4375 0.9 36.4375 2V2.66667C36.4375 3.71333 35.6056 4.56 34.5537 4.64667L37.1112 15.18C37.1594 15.38 37.1113 15.5867 36.9806 15.7467C36.85 15.9067 36.6506 16 36.4444 16H30.9444V21.4467C30.9444 22.84 30.3875 24.1533 29.37 25.14C29.2325 25.2733 29.0606 25.3333 28.8819 25.3333C28.7031 25.3333 28.5312 25.2667 28.3937 25.14C27.3762 24.1533 26.8194 22.8467 26.8194 21.4467V16H21.3194C21.1063 16 20.9137 15.9067 20.7831 15.7467C20.6525 15.5867 20.6044 15.38 20.6525 15.18L23.21 4.64667C22.1581 4.56 21.3263 3.70667 21.3263 2.66667H21.3125ZM33.1444 4.66667H24.6056L24.2825 6H33.4675L33.1444 4.66667ZM29.5625 16H28.1875V21.4467C28.1875 22.2333 28.4281 22.9867 28.875 23.6267C29.3219 22.9867 29.5625 22.2333 29.5625 21.4467V16ZM35.5713 14.6667L33.7906 7.33333H23.9594L22.1787 14.6667H35.5644H35.5713ZM22.6875 2.66667C22.6875 3.03333 22.9969 3.33333 23.375 3.33333H34.375C34.7531 3.33333 35.0625 3.03333 35.0625 2.66667V2C35.0625 1.63333 34.7531 1.33333 34.375 1.33333H23.375C22.9969 1.33333 22.6875 1.63333 22.6875 2V2.66667Z" fill="black"/>
</svg>
