<svg width="50" height="51" viewBox="0 0 50 51" fill="none" xmlns="http://www.w3.org/2000/svg">
<path d="M33.472 38.3369C33.556 38.4731 33.688 38.5678 33.844 38.6033L39.844 39.9822L39.982 40C40.276 40 40.534 39.7988 40.582 39.5088L42.982 25.8965C43.006 25.8018 43.006 25.7012 42.982 25.6065L39.982 16.729C39.556 15.4743 38.752 14.3735 37.678 13.5804L35.944 12.302C34.798 11.4616 33.412 11 31.984 11H17.98C16.552 11 15.166 11.4616 14.02 12.302L12.322 13.5627C11.248 14.3557 10.444 15.4565 10.018 16.7112L7.018 25.5888C6.994 25.6835 6.994 25.7841 7.018 25.8788L9.418 39.491C9.478 39.8106 9.79 40.0296 10.114 39.9704C10.126 39.9704 10.132 39.9704 10.144 39.9645L16.144 38.5855C16.456 38.5086 16.648 38.2008 16.582 37.8871L16.354 36.9402L21.646 34.6202C21.832 34.5373 21.958 34.3716 21.994 34.1763L22.186 33.0459H27.82L27.982 34.1763C28.012 34.3539 28.12 34.5078 28.282 34.5965L33.502 37.4551L33.394 37.8871C33.358 38.041 33.388 38.2008 33.472 38.3369ZM34.582 27.4235V25.3165L35.782 28.2047L34.582 33.0222V27.4235ZM31.984 12.1837C32.404 12.1837 32.818 12.2369 33.226 12.3316L29.254 19.5994C29.146 19.7829 29.146 20.0078 29.254 20.1912L30.208 21.5998L27.58 24.7069L27.382 23.4286L30.382 12.1837H31.984ZM19.582 12.1837L22.582 23.4286L22.366 24.6951L19.738 21.588L20.692 20.1794C20.8 19.9959 20.8 19.771 20.692 19.5876L16.744 12.3316C17.146 12.2369 17.566 12.1837 17.98 12.1837H19.582ZM15.382 33.0222L14.182 28.2047L15.382 25.3165V33.0222ZM20.842 33.6673L16.582 35.5376V18.102H15.382V22.1324L13.024 27.9443C12.988 28.0627 12.988 28.181 13.024 28.2994L15.286 37.5853L10.486 38.6861L8.182 25.8433L11.182 17.0841C11.53 16.0543 12.19 15.1606 13.066 14.5096L14.764 13.249C15.034 13.0537 15.322 12.8761 15.622 12.7341L19.504 19.8361L18.502 21.3157C18.358 21.5347 18.37 21.8188 18.538 22.02L22.138 26.2516L20.842 33.6673ZM22.366 31.8622L23.782 23.5233C23.8 23.4404 23.8 23.3576 23.782 23.2747L20.782 12.1837H29.182L26.182 23.2806C26.164 23.3635 26.164 23.4463 26.182 23.5292L27.592 31.8682H22.366V31.8622ZM33.382 36.0347L29.128 33.7029L27.868 26.2635L31.468 22.0318C31.636 21.8306 31.648 21.5465 31.504 21.3276L30.502 19.848L34.384 12.7459C34.684 12.888 34.972 13.0655 35.242 13.2608L36.94 14.5214C37.804 15.1724 38.446 16.0661 38.782 17.0841L41.782 25.8433L39.502 38.692L34.702 37.5912L36.982 28.2994C37.018 28.181 37.018 28.0627 36.982 27.9443L34.582 22.1324V18.102H33.382V36.0347Z" fill="black"/>
</svg>
