<svg width="50" height="51" viewBox="0 0 50 51" fill="none" xmlns="http://www.w3.org/2000/svg">
<path d="M39.957 15.8657C39.5308 14.5771 38.7266 13.4465 37.6522 12.632L35.9537 11.3373C34.8073 10.4741 33.4208 10 31.9923 10H17.9837C16.5552 10 15.1687 10.4741 14.0223 11.3373L12.3238 12.632C11.2494 13.4465 10.4451 14.5771 10.019 15.8657L7.01801 24.9833C6.994 25.0806 6.994 25.1839 7.01801 25.2812L9.41881 39.2616C9.47883 39.5898 9.79093 39.8147 10.115 39.7539C10.127 39.7539 10.133 39.7539 10.145 39.7478L15.4088 38.5322V40.3922C15.4088 40.7265 15.6789 41 16.009 41H33.991C34.3211 41 34.5912 40.7265 34.5912 40.3922V38.5261L39.855 39.7418C40.1791 39.8147 40.5032 39.6141 40.5752 39.2859C40.5752 39.2737 40.5752 39.2676 40.5812 39.2555L42.982 25.2751C43.006 25.1778 43.006 25.0745 42.982 24.9773L39.957 15.8657ZM29.6335 11.2157C28.9613 13.8112 26.3384 15.3673 23.7756 14.6925C22.095 14.2488 20.7806 12.9176 20.3424 11.2157H29.6335ZM15.3848 32.6178L14.1844 27.67L15.3848 24.7037V32.6178ZM33.3908 26.8676V29.451H16.5852V22.7647H33.3908V26.8676ZM33.3908 37.7602V39.7843H16.5852V37.7602V30.6667H33.3908V37.7541V37.7602ZM34.5912 30.0588V24.7037L35.7916 27.67L34.5912 32.6178V30.0588ZM39.5128 38.441L34.7112 37.3104L36.992 27.7673C37.028 27.6457 37.028 27.5241 36.992 27.4025L34.5912 21.4335V17.2941H33.3908V21.549H16.5852V17.2941H15.3848V21.4335L13.026 27.4025C12.99 27.5241 12.99 27.6457 13.026 27.7673L15.2888 37.3043L10.4872 38.4349L8.18239 25.2447L11.1834 16.2486C11.5315 15.191 12.1917 14.2731 13.068 13.6045L14.7666 12.3098C15.7029 11.6047 16.8373 11.2157 18.0077 11.2157H19.106C19.7663 14.5041 22.9353 16.6316 26.1824 15.9629C28.5472 15.4767 30.3898 13.6106 30.87 11.2157H31.9923C33.1627 11.2157 34.2971 11.6047 35.2334 12.3098L36.932 13.6045C37.8023 14.2731 38.4505 15.1971 38.7926 16.2486L41.7936 25.2447L39.5128 38.441Z" fill="black"/>
</svg>
