<svg width="50" height="51" viewBox="0 0 50 51" fill="none" xmlns="http://www.w3.org/2000/svg">
<path d="M36.9153 43C37.2378 43 37.5015 42.7354 37.5015 42.412C37.5015 42.4002 37.5015 42.3826 37.5015 42.3708L35.0688 9.54687C35.0512 9.24109 34.7933 9 34.4826 9H15.0146C14.704 9 14.4519 9.24109 14.4284 9.54687L12.0015 42.3532C11.9781 42.6766 12.2243 42.9588 12.5467 42.9824C12.5584 42.9824 12.576 42.9824 12.5878 42.9824L36.9153 43ZM33.9433 10.1761L34.0781 12.0107H15.425L15.5598 10.1761H33.9433ZM15.3371 13.1868H34.166L36.2881 41.8239H31.8388L30.1798 23.148L29.0074 23.2539L30.6605 41.8239H25.1912V31.5745H24.0188V41.8239H18.6022L20.2495 23.2715L19.0771 23.1657L17.424 41.8239H13.215L15.3371 13.1868Z" fill="black"/>
</svg>
