<svg width="50" height="51" viewBox="0 0 50 51" fill="none" xmlns="http://www.w3.org/2000/svg">
<path d="M37.7707 36.8313L31.1235 23.7379C30.9483 22.9427 30.85 22.0778 30.8434 21.1491V21.1416C30.8293 19.8754 31.2078 18.5594 31.9647 17.2227C32.3292 16.5759 32.4135 15.8719 32.406 15.3304H32.925C33.1564 15.3304 33.3737 15.2177 33.5001 15.0278L36.3263 10.9115C36.4386 10.7424 36.4808 10.5384 36.4312 10.3418C36.3825 10.1445 36.256 9.98279 36.0734 9.88411L30.7161 7.08383C30.4219 6.92876 30.0641 6.99925 29.8534 7.25962C29.6501 7.5059 29.4394 7.71735 29.2369 7.92134L28.0809 8.83515C26.272 9.98859 24.687 9.7987 24.6027 9.7846C24.5325 9.77714 24.4622 9.77714 24.3994 9.7846C24.3788 9.7846 22.7657 10.0027 20.9213 8.83515L19.7644 7.91388C19.5537 7.70989 19.3504 7.49844 19.1405 7.25216C18.9298 6.99925 18.5728 6.92876 18.2778 7.07637L12.9213 9.87665C12.7462 9.96786 12.6131 10.137 12.5635 10.3344C12.514 10.5317 12.5495 10.7357 12.6685 10.9041L15.4946 15.0203C15.6277 15.2102 15.8384 15.323 16.0698 15.323H16.5953C16.5879 15.8578 16.6722 16.561 17.0366 17.2086C17.7935 18.5528 18.1728 19.8754 18.158 21.1342V21.1549C18.1439 22.0695 18.0456 22.9344 17.8778 23.7296L11.2314 36.8239C10.9654 37.3446 10.9298 37.9359 11.1191 38.484C11.3083 39.0329 11.7223 39.4832 12.2553 39.7154C13.994 40.4965 15.8169 41.101 17.682 41.538L17.5696 42.2561C17.4787 42.8191 17.6258 43.4096 17.9696 43.8673C18.3133 44.325 18.8042 44.6128 19.3653 44.6832C21.0692 44.8947 22.7806 45 24.4986 45C26.2166 45 27.9338 44.8947 29.6311 44.6832C30.1922 44.6128 30.6831 44.3242 31.0268 43.8673C31.3706 43.4096 31.5177 42.8258 31.4268 42.2561L31.3144 41.538C33.1795 41.1018 35.0024 40.4965 36.7411 39.7154C37.2667 39.4757 37.6807 39.0255 37.8773 38.484C38.0732 37.935 38.0319 37.3513 37.7724 36.8305L37.7707 36.8313ZM18.0539 14.7939C18.1026 14.5825 18.0613 14.3644 17.9274 14.1886C17.7944 14.0194 17.5911 13.9216 17.3738 13.9216H16.4416L14.2749 10.7697L18.4464 8.58804C21.0403 11.3676 23.9152 11.2474 24.497 11.1984C25.0225 11.2474 27.3925 11.3394 29.7559 9.3476C29.7633 9.34014 29.7699 9.34014 29.7699 9.33351C30.0294 9.10879 30.2889 8.86914 30.5484 8.59467L34.7198 10.7755L32.5531 13.9274H31.621C31.4037 13.9274 31.2004 14.0261 31.0673 14.1944C30.9343 14.3636 30.8847 14.5883 30.9409 14.7997C30.9409 14.8072 31.1648 15.7774 30.7442 16.5303C30.0013 17.8463 29.5733 19.1548 29.4683 20.4492H19.533C19.4281 19.1614 18.9926 17.8455 18.2497 16.5303C17.8291 15.7708 18.053 14.7989 18.053 14.7923L18.0539 14.7939ZM29.6023 23.2587H19.3934C19.4637 22.8084 19.5133 22.3441 19.5339 21.8515H29.4552C29.4833 22.33 29.532 22.801 29.6023 23.2587ZM17.8928 40.1508C16.1533 39.7362 14.4502 39.1657 12.8231 38.4418C12.6404 38.3572 12.5074 38.2096 12.4372 38.0263C12.3744 37.8439 12.3884 37.6465 12.4727 37.4707L18.9728 24.6651L20.3404 24.6658L17.8935 40.1515L17.8928 40.1508ZM29.9113 43.0224C29.7989 43.17 29.6378 43.262 29.4626 43.2828C26.1671 43.6907 22.8294 43.6907 19.5347 43.2828C19.3596 43.262 19.1984 43.17 19.086 43.0224C18.967 42.8673 18.9175 42.6708 18.953 42.4801L21.7643 24.6659H27.2331L30.0444 42.4809C30.0799 42.6783 30.0303 42.8682 29.9113 43.0224ZM36.5577 38.0189C36.4949 38.2088 36.3544 38.3572 36.1718 38.4343C34.5455 39.1665 32.8416 39.7362 31.1029 40.1442L28.6561 24.6659H30.0237L36.5238 37.4715C36.608 37.6398 36.6213 37.8372 36.5585 38.0196L36.5577 38.0189Z" fill="black"/>
</svg>
