<svg width="50" height="51" viewBox="0 0 50 51" fill="none" xmlns="http://www.w3.org/2000/svg">
<rect width="50" height="51" fill="white"/>
<path d="M17.5867 42C17.2285 42 16.9328 41.7057 16.9328 41.34V40.2638C16.3914 39.9696 16.0499 39.4021 16.0499 38.7757C16.0207 38.5193 15.6334 34.1222 15.6334 32.6172V29.9773L13.5968 38.4857C13.5301 38.7631 13.2969 38.9649 13.0179 38.9859L12.7138 40.1251C12.6389 40.411 12.3765 40.6128 12.0849 40.6128C12.0474 40.6128 12.01 40.6128 11.9725 40.6044L8.69059 40.0453C8.34075 39.9864 8.09919 39.6501 8.15333 39.297C8.15333 39.297 8.21997 38.8682 8.33658 38.1199C8.09919 37.9854 7.96591 37.7248 8.00756 37.4473C8.76556 32.428 11.3644 15.9199 13.2136 14.2552C13.2219 14.251 13.2636 14.2132 13.2761 14.2047C14.5005 13.2883 16.8703 12.271 17.695 11.9305L18.8861 9.37883C18.9444 9.25272 19.0402 9.15183 19.161 9.08877C19.1735 9.08037 19.186 9.07196 19.2026 9.06355C19.4359 8.95425 21.5724 8 24.846 8C26.8201 8 28.8026 8.34891 30.7476 9.03833C30.76 9.04253 30.7725 9.05094 30.785 9.05514C30.9308 9.1182 31.0474 9.2275 31.1182 9.37463L32.3094 11.9305C33.134 12.271 35.4996 13.2841 36.7283 14.2047C36.7366 14.209 36.7699 14.2426 36.7782 14.2468C38.6399 15.9157 41.2388 32.4322 41.9926 37.4515C42.0342 37.729 41.8968 37.998 41.6636 38.1283C41.7802 38.8724 41.8468 39.3012 41.8468 39.3012C41.901 39.6543 41.6594 39.9906 41.3096 40.0495L38.0277 40.6086C37.9944 40.617 37.9569 40.617 37.9194 40.617C37.6237 40.617 37.3655 40.4152 37.2905 40.1293L36.9823 38.9901C36.7033 38.9649 36.47 38.7673 36.4034 38.4899L35.104 33.0712C35.104 33.0712 35.104 33.0544 35.0998 33.0418L34.3626 29.973V31.9362C34.3626 33.6766 33.9503 38.7799 33.9461 38.8304C33.9378 39.4315 33.5963 39.9864 33.0674 40.2681V41.34C33.0674 41.7015 32.7758 42 32.4135 42H17.5867ZM31.7596 40.68V40.4656H18.2406V40.68H31.7596ZM11.606 39.2129L11.7226 38.7799L9.61519 38.3932C9.5902 38.5655 9.56521 38.7211 9.54438 38.8598L11.6101 39.2129H11.606ZM38.39 39.2087L40.4516 38.8556L40.3808 38.389L38.2734 38.7757L38.39 39.2087ZM16.9828 33.8111C17.0786 35.5725 17.3076 38.1704 17.3534 38.6958C17.3534 38.7043 17.3534 38.7379 17.3534 38.7463C17.3534 38.8598 17.3909 38.9565 17.4617 39.0321C17.5325 39.1078 17.6283 39.1499 17.7324 39.1499H24.3462V34.1852C21.8015 34.1684 19.3276 34.0423 16.9828 33.8111ZM32.2677 39.1499C32.4718 39.1499 32.6384 38.9817 32.6384 38.7757L32.6509 38.6076C32.8341 36.2366 32.9341 34.7191 32.9841 33.8153C30.6934 34.0423 28.1695 34.1684 25.6498 34.1894V39.1541H32.2677V39.1499ZM12.4764 37.5734L13.476 33.3907C12.3348 33.0754 11.2311 32.6298 10.1899 32.0623C9.90673 33.7438 9.63601 35.4421 9.39445 37.0101L12.4764 37.5734ZM37.5237 37.5734L40.6057 37.0101C40.3641 35.4421 40.0934 33.7438 39.8102 32.0623C38.7649 32.6256 37.6612 33.0712 36.5242 33.3907L37.5279 37.5734H37.5237ZM25.654 32.8694C28.1987 32.8484 30.7434 32.7181 33.0507 32.4827C33.059 32.2725 33.059 32.0875 33.059 31.932V26.8581C30.7267 27.0935 28.2362 27.2196 25.654 27.2364V32.8652V32.8694ZM16.9411 32.4827C19.2818 32.7181 21.7682 32.8484 24.3462 32.8652V27.2364C21.764 27.2196 19.2734 27.0893 16.9411 26.8581V32.4827ZM10.4232 30.6793C11.481 31.293 12.6097 31.7723 13.7842 32.1002L15.042 26.8412C13.78 26.3116 12.5889 25.618 11.5019 24.7856C11.1562 26.5638 10.7897 28.5438 10.4232 30.6793ZM36.216 32.1002C37.3905 31.7681 38.5191 31.293 39.577 30.6793C39.2105 28.5522 38.8482 26.5722 38.4983 24.7856C37.4071 25.618 36.2201 26.3116 34.9582 26.8412L36.216 32.1002ZM25.654 25.9206C28.2487 25.9038 30.7975 25.7735 33.059 25.5423V21.0737C33.059 20.7038 33.0799 20.3338 33.1298 19.9681C30.8017 20.1993 28.2278 20.3338 25.654 20.3506V25.9206ZM16.9411 25.5381C19.2026 25.7693 21.7557 25.8996 24.3462 25.9164V20.3506C23.9131 20.3506 23.4841 20.3422 23.0551 20.3338V21.1494C23.0551 21.5109 22.7636 21.8093 22.4012 21.8093C22.0389 21.8093 21.7473 21.5151 21.7473 21.1494V20.296C20.0564 20.2329 18.4196 20.1236 16.8703 19.9681C16.9203 20.338 16.9411 20.7164 16.9411 21.0905V25.5423V25.5381ZM34.6417 25.5423C35.9286 24.979 37.1239 24.2391 38.2026 23.3311C37.4196 19.4931 36.7574 16.9078 36.266 15.7938C35.079 17.2861 34.4043 19.14 34.3585 21.0611V24.3652L34.6417 25.5381V25.5423ZM11.7934 23.3311C12.8721 24.2349 14.0674 24.979 15.3543 25.5381L15.6334 24.3652V21.0653C15.5876 19.1484 14.917 17.2861 13.7259 15.7896C13.2344 16.9078 12.5722 19.4889 11.7892 23.3269L11.7934 23.3311ZM25.654 19.0223C28.232 19.0096 30.835 18.8709 33.4005 18.6103C33.7671 17.2357 34.4334 15.9493 35.3372 14.8605C34.2335 14.2258 33.084 13.6625 31.9095 13.1832C30.7767 13.9441 29.5481 14.5453 28.2528 14.9614V17.9545C28.2528 18.316 27.9613 18.6145 27.5989 18.6145C27.2366 18.6145 26.9451 18.3202 26.9451 17.9545V15.3019C26.5161 15.386 26.0829 15.4449 25.654 15.4743V19.0223ZM23.0551 19.0054C23.4841 19.0138 23.9172 19.0223 24.3462 19.0223V15.4785C23.9131 15.4533 23.4799 15.3986 23.0551 15.3187V19.0054ZM16.6038 18.6103C18.2031 18.7784 19.9315 18.9003 21.7515 18.9634V14.9909C20.4396 14.5831 19.2068 13.9777 18.0865 13.1832C16.9161 13.6625 15.7666 14.2216 14.6671 14.8563C15.5751 15.9451 16.2373 17.2315 16.6038 18.6061V18.6103ZM20.3938 10.0136C21.0726 11.2579 22.901 14.1879 25.0001 14.1879C27.0992 14.1879 28.915 11.2747 29.5939 10.0388C28.0946 9.55959 26.5369 9.31578 24.9584 9.31578C23.38 9.31578 21.8723 9.55119 20.3938 10.0178V10.0136ZM18.9986 12.2248C19.6774 12.683 20.3938 13.0655 21.1476 13.3766C20.527 12.6872 19.9773 11.9347 19.5108 11.1276L18.9986 12.2248ZM30.4852 11.1234C30.0312 11.9053 29.5023 12.6409 28.9025 13.3136C29.6272 13.0067 30.3269 12.6367 30.9891 12.208L30.4852 11.1234Z" fill="black"/>
</svg>
