<svg width="50" height="51" viewBox="0 0 50 51" fill="none" xmlns="http://www.w3.org/2000/svg">
<path d="M21.6667 44C22.0133 44 22.3 43.7468 22.3333 43.4158L24.9333 19.3333H25.0667L27.6667 43.4158C27.7 43.7468 27.9867 44 28.3333 44H38.3333C38.7 44 39 43.7079 39 43.3509L37.6667 7.64912C37.6667 7.29211 37.3667 7 37 7H13C12.6333 7 12.3333 7.29211 12.3333 7.64912L11 43.3509C11 43.7079 11.3 44 11.6667 44H21.6667ZM36.6933 17.2951C35 16.2954 34.4867 13.6405 34.3333 12.193H36.4933L36.6933 17.2951ZM36.3333 8.29825L36.4333 10.8947H13.5467L13.6667 8.29825H36.3333ZM15.6667 12.193C15.5 13.8353 14.9 16.3279 13.3067 17.2821L13.5 12.193H15.6667ZM13.2533 18.7426C16.14 17.743 16.8333 13.9975 17 12.193H33C33.1667 13.9975 33.86 17.743 36.7467 18.7426L37.6667 42.7018H28.9333L26.3733 19.0218L27.8267 18.6842L27.5067 17.386L25 18.0351L22.4933 17.386L22.1733 18.6842L23.6267 19.0412L21.0667 42.7018H12.3333L13.2533 18.7426Z" fill="black"/>
</svg>
