<svg width="52" height="60" viewBox="0 0 52 60" fill="none" xmlns="http://www.w3.org/2000/svg">
<path d="M36.2143 60H2.78571C1.24429 60 0 58.7438 0 57.1875V2.8125C0 1.25625 1.24429 0 2.78571 0H36.2143C37.7557 0 39 1.25625 39 2.8125V5.625H37.1429V2.8125C37.1429 2.29688 36.725 1.875 36.2143 1.875H2.78571C2.275 1.875 1.85714 2.29688 1.85714 2.8125V57.1875C1.85714 57.7031 2.275 58.125 2.78571 58.125H36.2143C36.725 58.125 37.1429 57.7031 37.1429 57.1875V31.875H39V57.1875C39 58.7438 37.7557 60 36.2143 60Z" fill="black"/>
<path d="M22.2857 56.25H16.7143C15.6929 56.25 14.8571 55.4062 14.8571 54.375V52.5C14.8571 51.4688 15.6929 50.625 16.7143 50.625H22.2857C23.3071 50.625 24.1429 51.4688 24.1429 52.5V54.375C24.1429 55.4062 23.3071 56.25 22.2857 56.25ZM16.7143 52.5V54.375H22.2857V52.5H16.7143Z" fill="black"/>
<path d="M34.3571 46.875H4.64286V48.75H34.3571V46.875Z" fill="black"/>
<path d="M27.8571 5.625H0.928571V7.5H27.8571V5.625Z" fill="black"/>
<path d="M9.28571 0.9375H7.42857V6.5625H9.28571V0.9375Z" fill="black"/>
<path d="M38.0714 32.8125C30.3829 32.8125 24.1429 26.5125 24.1429 18.75C24.1429 10.9875 30.3829 4.6875 38.0714 4.6875C45.76 4.6875 52 10.9875 52 18.75C52 26.5125 45.76 32.8031 38.0714 32.8125ZM38.0714 6.5625C31.4043 6.5625 26 12.0188 26 18.75C26 25.4813 31.4043 30.9375 38.0714 30.9375C44.7386 30.9375 50.1429 25.4813 50.1429 18.75C50.1429 12.0188 44.7386 6.57188 38.0714 6.5625Z" fill="black"/>
<path d="M42.7143 25.3125H33.4286C32.9179 25.3125 32.5 24.8906 32.5 24.375V16.875C32.5 16.3594 32.9179 15.9375 33.4286 15.9375H42.7143C43.225 15.9375 43.6429 16.3594 43.6429 16.875V24.375C43.6429 24.8906 43.225 25.3125 42.7143 25.3125ZM34.3571 23.4375H41.7857V17.8125H34.3571V23.4375Z" fill="black"/>
<path d="M39.9286 16.875V13.5094L39.5479 13.125H36.6043L36.2236 13.5094V16.875H34.3664V13.125C34.3664 12.8719 34.4686 12.6375 34.6357 12.4594L35.5643 11.5219C35.7407 11.3438 35.9729 11.25 36.2236 11.25H39.9379C40.1886 11.25 40.4207 11.3531 40.5971 11.5219L41.5257 12.4594C41.7021 12.6375 41.795 12.8719 41.795 13.125V16.875H39.9286Z" fill="black"/>
<path d="M7.42857 16.875C5.37643 16.875 3.71429 15.1969 3.71429 13.125C3.71429 11.0531 5.37643 9.375 7.42857 9.375C9.48071 9.375 11.1429 11.0531 11.1429 13.125C11.1429 15.1969 9.48071 16.875 7.42857 16.875ZM7.42857 11.25C6.40714 11.25 5.57143 12.0938 5.57143 13.125C5.57143 14.1562 6.40714 15 7.42857 15C8.45 15 9.28571 14.1562 9.28571 13.125C9.28571 12.0938 8.45 11.25 7.42857 11.25Z" fill="black"/>
<path d="M16.7143 16.875C14.6621 16.875 13 15.1969 13 13.125C13 11.0531 14.6621 9.375 16.7143 9.375C18.7664 9.375 20.4286 11.0531 20.4286 13.125C20.4286 15.1969 18.7664 16.875 16.7143 16.875ZM16.7143 11.25C15.6929 11.25 14.8571 12.0938 14.8571 13.125C14.8571 14.1562 15.6929 15 16.7143 15C17.7357 15 18.5714 14.1562 18.5714 13.125C18.5714 12.0938 17.7357 11.25 16.7143 11.25Z" fill="black"/>
<path d="M16.7143 26.25C14.6621 26.25 13 24.5719 13 22.5C13 20.4281 14.6621 18.75 16.7143 18.75C18.7664 18.75 20.4286 20.4281 20.4286 22.5C20.4286 24.5719 18.7664 26.25 16.7143 26.25ZM16.7143 20.625C15.6929 20.625 14.8571 21.4688 14.8571 22.5C14.8571 23.5312 15.6929 24.375 16.7143 24.375C17.7357 24.375 18.5714 23.5312 18.5714 22.5C18.5714 21.4688 17.7357 20.625 16.7143 20.625Z" fill="black"/>
<path d="M7.42857 26.25C5.37643 26.25 3.71429 24.5719 3.71429 22.5C3.71429 20.4281 5.37643 18.75 7.42857 18.75C9.48071 18.75 11.1429 20.4281 11.1429 22.5C11.1429 24.5719 9.48071 26.25 7.42857 26.25ZM7.42857 20.625C6.40714 20.625 5.57143 21.4688 5.57143 22.5C5.57143 23.5312 6.40714 24.375 7.42857 24.375C8.45 24.375 9.28571 23.5312 9.28571 22.5C9.28571 21.4688 8.45 20.625 7.42857 20.625Z" fill="black"/>
<path d="M7.42857 35.625C5.37643 35.625 3.71429 33.9469 3.71429 31.875C3.71429 29.8031 5.37643 28.125 7.42857 28.125C9.48071 28.125 11.1429 29.8031 11.1429 31.875C11.1429 33.9469 9.48071 35.625 7.42857 35.625ZM7.42857 30C6.40714 30 5.57143 30.8438 5.57143 31.875C5.57143 32.9062 6.40714 33.75 7.42857 33.75C8.45 33.75 9.28571 32.9062 9.28571 31.875C9.28571 30.8438 8.45 30 7.42857 30Z" fill="black"/>
<path d="M16.7143 35.625C14.6621 35.625 13 33.9469 13 31.875C13 29.8031 14.6621 28.125 16.7143 28.125C18.7664 28.125 20.4286 29.8031 20.4286 31.875C20.4286 33.9469 18.7664 35.625 16.7143 35.625ZM16.7143 30C15.6929 30 14.8571 30.8438 14.8571 31.875C14.8571 32.9062 15.6929 33.75 16.7143 33.75C17.7357 33.75 18.5714 32.9062 18.5714 31.875C18.5714 30.8438 17.7357 30 16.7143 30Z" fill="black"/>
<path d="M26 35.625C23.9479 35.625 22.2857 33.9469 22.2857 31.875C22.2857 29.8031 23.9479 28.125 26 28.125V30C24.9786 30 24.1429 30.8438 24.1429 31.875C24.1429 32.9062 24.9786 33.75 26 33.75C27.0214 33.75 27.8571 32.9062 27.8571 31.875H29.7143C29.7143 33.9469 28.0521 35.625 26 35.625Z" fill="black"/>
<path d="M9.94165 14.3413L8.62845 15.6671L14.203 21.2953L15.5162 19.9694L9.94165 14.3413Z" fill="black"/>
<path d="M13.9286 21.5625H10.2143V23.4375H13.9286V21.5625Z" fill="black"/>
<path d="M9.94264 23.7173L8.62944 25.0431L14.204 30.6713L15.5172 29.3454L9.94264 23.7173Z" fill="black"/>
<path d="M24.1429 30.9375H19.5V32.8125H24.1429V30.9375Z" fill="black"/>
<path d="M14.8571 44.0625H5.57143C5.06071 44.0625 4.64286 43.6406 4.64286 43.125V39.375C4.64286 38.8594 5.06071 38.4375 5.57143 38.4375H14.8571C15.3679 38.4375 15.7857 38.8594 15.7857 39.375V43.125C15.7857 43.6406 15.3679 44.0625 14.8571 44.0625ZM6.5 42.1875H13.9286V40.3125H6.5V42.1875Z" fill="black"/>
<path d="M33.4286 44.0625H18.5714C18.0607 44.0625 17.6429 43.6406 17.6429 43.125V39.375C17.6429 38.8594 18.0607 38.4375 18.5714 38.4375H33.4286C33.9393 38.4375 34.3571 38.8594 34.3571 39.375V43.125C34.3571 43.6406 33.9393 44.0625 33.4286 44.0625ZM19.5 42.1875H32.5V40.3125H19.5V42.1875Z" fill="black"/>
<path d="M10.2143 39.375H8.35714V43.125H10.2143V39.375Z" fill="black"/>
</svg>
