<svg width="42" height="60" viewBox="0 0 42 60" fill="none" xmlns="http://www.w3.org/2000/svg">
<path d="M36 60H6C2.69 60 0 57.31 0 54V6C0 2.69 2.69 0 6 0H36C39.31 0 42 2.69 42 6V54C42 57.31 39.31 60 36 60ZM6 2C3.79 2 2 3.79 2 6V54C2 56.21 3.79 58 6 58H36C38.21 58 40 56.21 40 54V6C40 3.79 38.21 2 36 2H6Z" fill="black"/>
<path d="M23 7H19C18.45 7 18 6.55 18 6C18 5.45 18.45 5 19 5H23C23.55 5 24 5.45 24 6C24 6.55 23.55 7 23 7Z" fill="black"/>
<path d="M21 55C21.5523 55 22 54.5523 22 54C22 53.4477 21.5523 53 21 53C20.4477 53 20 53.4477 20 54C20 54.5523 20.4477 55 21 55Z" fill="black"/>
<path d="M21 25C18.24 25 16 22.76 16 20C16 17.24 18.24 15 21 15C23.76 15 26 17.24 26 20C26 22.76 23.76 25 21 25ZM21 17C19.34 17 18 18.34 18 20C18 21.66 19.34 23 21 23C22.66 23 24 21.66 24 20C24 18.34 22.66 17 21 17Z" fill="black"/>
<path d="M26 31C25.45 31 25 30.55 25 30V29C25 26.79 23.21 25 21 25C18.79 25 17 26.79 17 29V30C17 30.55 16.55 31 16 31C15.45 31 15 30.55 15 30V29C15 25.69 17.69 23 21 23C24.31 23 27 25.69 27 29V30C27 30.55 26.55 31 26 31Z" fill="black"/>
<path d="M21 33C14.92 33 10 28.08 10 22C10 15.92 14.92 11 21 11C27.08 11 32 15.92 32 22C32 28.07 27.07 32.99 21 33ZM21 13C16.03 13 12 17.03 12 22C12 26.97 16.03 31 21 31C25.97 31 30 26.97 30 22C30 17.03 25.97 13.01 21 13Z" fill="black"/>
<path d="M11 45H7C6.45 45 6 44.55 6 44C6 43.45 6.45 43 7 43H11C11.55 43 12 43.45 12 44C12 44.55 11.55 45 11 45Z" fill="black"/>
<path d="M19 45H15C14.45 45 14 44.55 14 44C14 43.45 14.45 43 15 43H19C19.55 43 20 43.45 20 44C20 44.55 19.55 45 19 45Z" fill="black"/>
<path d="M27 45H23C22.45 45 22 44.55 22 44C22 43.45 22.45 43 23 43H27C27.55 43 28 43.45 28 44C28 44.55 27.55 45 27 45Z" fill="black"/>
<path d="M35 45H31C30.45 45 30 44.55 30 44C30 43.45 30.45 43 31 43H35C35.55 43 36 43.45 36 44C36 44.55 35.55 45 35 45Z" fill="black"/>
<path d="M9 41C9.55228 41 10 40.5523 10 40C10 39.4477 9.55228 39 9 39C8.44771 39 8 39.4477 8 40C8 40.5523 8.44771 41 9 41Z" fill="black"/>
<path d="M17 41C17.5523 41 18 40.5523 18 40C18 39.4477 17.5523 39 17 39C16.4477 39 16 39.4477 16 40C16 40.5523 16.4477 41 17 41Z" fill="black"/>
<path d="M25 41C25.5523 41 26 40.5523 26 40C26 39.4477 25.5523 39 25 39C24.4477 39 24 39.4477 24 40C24 40.5523 24.4477 41 25 41Z" fill="black"/>
<path d="M33 41C33.5523 41 34 40.5523 34 40C34 39.4477 33.5523 39 33 39C32.4477 39 32 39.4477 32 40C32 40.5523 32.4477 41 33 41Z" fill="black"/>
</svg>
