<svg width="384" height="168" viewBox="0 0 384 168" fill="none" xmlns="http://www.w3.org/2000/svg">
<g filter="url(#filter0_d_624_26259)">
<mask id="mask0_624_26259" style="mask-type:alpha" maskUnits="userSpaceOnUse" x="4" y="0" width="377" height="160">
<path d="M192.008 15.2094C201.288 15.2094 208.964 8.72027 209.264 0.5H379.508V159.5H209.264C208.964 151.28 201.288 144.791 192.008 144.791C182.727 144.791 175.051 151.28 174.751 159.5H4.50781V0.5H174.751C175.051 8.72027 182.727 15.2094 192.008 15.2094Z" fill="white" stroke="#DDDDDD"/>
</mask>
<g mask="url(#mask0_624_26259)">
<path d="M192.008 15.2094C201.288 15.2094 208.964 8.72027 209.264 0.5H379.508V159.5H209.264C208.964 151.28 201.288 144.791 192.008 144.791C182.727 144.791 175.051 151.28 174.751 159.5H4.50781V0.5H174.751C175.051 8.72027 182.727 15.2094 192.008 15.2094Z" fill="white" stroke="#EEEEEE"/>
<line x1="192.5" y1="103" x2="192.5" y2="143" stroke="#EEEEEE" stroke-dasharray="5 5"/>
<line x1="192.5" y1="16" x2="192.5" y2="56" stroke="#EEEEEE" stroke-dasharray="5 5"/>
<path d="M318.67 126H300C298.9 126 298 125.1 298 124V80C298 78.9 298.9 78 300 78H318.26C318.97 78 319.64 78.39 319.99 79.01L323.13 84.5C323.31 84.81 323.64 85 324 85H354V112C354 112.55 354.45 113 355 113C355.55 113 356 112.55 356 112V80C356 77.79 354.21 76 352 76H300C297.79 76 296 77.79 296 80V124C296 126.21 297.79 128 300 128H318.67C319.22 128 319.67 127.55 319.67 127C319.67 126.45 319.22 126 318.67 126ZM354 80V83H324.58L321.73 78.01C321.73 78.01 321.73 78.01 321.73 78H352.01C353.11 78 354.01 78.9 354.01 80H354ZM360 138.91C360.02 139.19 359.93 139.47 359.74 139.67C359.55 139.88 359.28 139.99 359 139.99H343.04C342.49 139.99 342.04 139.54 342.04 138.99C342.04 138.44 342.49 137.99 343.04 137.99H357.91L356.08 116.99H335.91L335.56 121.08C335.51 121.63 335.03 122.04 334.48 121.99C333.93 121.94 333.52 121.46 333.57 120.91L334 115.91C334.04 115.39 334.48 115 335 115H357C357.52 115 357.95 115.4 358 115.91L360 138.91ZM337 124H323C322.5 124 322.08 124.37 322.01 124.86L320.01 138.86C319.97 139.15 320.05 139.44 320.24 139.66C320.43 139.88 320.71 140 321 140H339C339.29 140 339.57 139.87 339.76 139.66C339.95 139.44 340.04 139.15 339.99 138.86L337.99 124.86C337.92 124.37 337.5 124 337 124ZM322.15 138L323.86 126H336.13L337.84 138H322.15ZM333 130V131C333 132.65 331.65 134 330 134C328.35 134 327 132.65 327 131V130C327 129.45 327.45 129 328 129C328.55 129 329 129.45 329 130V131C329 131.55 329.45 132 330 132C330.55 132 331 131.55 331 131V130C331 129.45 331.45 129 332 129C332.55 129 333 129.45 333 130ZM343 121V123C343 124.65 344.35 126 346 126C347.65 126 349 124.65 349 123V121C349 120.45 349.45 120 350 120C350.55 120 351 120.45 351 121V123C351 125.76 348.76 128 346 128C343.24 128 341 125.76 341 123V121C341 120.45 341.45 120 342 120C342.55 120 343 120.45 343 121ZM317 83C316.45 83 316 82.55 316 82C316 81.45 316.45 81 317 81C317.55 81 318 81.45 318 82C318 82.55 317.55 83 317 83ZM309 120H325C325.55 120 326 119.55 326 119V107.85L331.16 106.99C331.43 106.95 331.66 106.79 331.82 106.57C331.97 106.35 332.03 106.07 331.98 105.81L329.98 95.81C329.92 95.51 329.72 95.25 329.45 95.11L321.45 91.11C321.34 91.06 321.15 91 321 91H313C312.87 91 312.69 91.04 312.55 91.11L304.55 95.11C304.27 95.25 304.08 95.51 304.02 95.81L302.02 105.81C301.97 106.08 302.02 106.35 302.18 106.57C302.33 106.79 302.57 106.94 302.84 106.99L308 107.85V119C308 119.55 308.45 120 309 120ZM320 93C320 94.65 318.65 96 317 96C315.35 96 314 94.65 314 93H320ZM304.18 105.18L305.88 96.67L312.05 93.58C312.35 96.06 314.44 97.99 316.99 97.99C319.54 97.99 321.64 96.06 321.93 93.58L328.1 96.67L329.8 105.18L325.98 105.82V102C325.98 101.45 325.53 101 324.98 101C324.43 101 323.98 101.45 323.98 102V118H309.98V102C309.98 101.45 309.53 101 308.98 101C308.43 101 307.98 101.45 307.98 102V105.82L304.16 105.18H304.18ZM350 92C350 91.45 349.55 91 349 91H335C334.45 91 334 91.45 334 92V98C334 98.55 334.45 99 335 99H349C349.55 99 350 98.55 350 98V92ZM348 97H336V93H348V97ZM350 103C350 103.55 349.55 104 349 104H335C334.45 104 334 103.55 334 103C334 102.45 334.45 102 335 102H349C349.55 102 350 102.45 350 103ZM350 108C350 108.55 349.55 109 349 109H335C334.45 109 334 108.55 334 108C334 107.45 334.45 107 335 107H349C349.55 107 350 107.45 350 108Z" fill="#EEEEEE"/>
</g>
</g>
<defs>
<filter id="filter0_d_624_26259" x="0.0078125" y="0" width="384" height="168" filterUnits="userSpaceOnUse" color-interpolation-filters="sRGB">
<feFlood flood-opacity="0" result="BackgroundImageFix"/>
<feColorMatrix in="SourceAlpha" type="matrix" values="0 0 0 0 0 0 0 0 0 0 0 0 0 0 0 0 0 0 127 0" result="hardAlpha"/>
<feOffset dy="4"/>
<feGaussianBlur stdDeviation="2"/>
<feComposite in2="hardAlpha" operator="out"/>
<feColorMatrix type="matrix" values="0 0 0 0 0 0 0 0 0 0 0 0 0 0 0 0 0 0 0.25 0"/>
<feBlend mode="normal" in2="BackgroundImageFix" result="effect1_dropShadow_624_26259"/>
<feBlend mode="normal" in="SourceGraphic" in2="effect1_dropShadow_624_26259" result="shape"/>
</filter>
</defs>
</svg>
