<svg width="376" height="160" viewBox="0 0 376 160" fill="none" xmlns="http://www.w3.org/2000/svg">
<mask id="mask0_941_359" style="mask-type:alpha" maskUnits="userSpaceOnUse" x="0" y="0" width="377" height="160">
<path d="M170.753 0.5C171.053 8.72024 178.727 15.209 188.008 15.209C197.288 15.209 204.962 8.72024 205.263 0.5H375.508V159.5H205.263C204.962 151.28 197.288 144.791 188.008 144.791C178.727 144.791 171.053 151.28 170.753 159.5H0.507812V0.5H170.753Z" fill="white" stroke="#DDDDDD"/>
</mask>
<g mask="url(#mask0_941_359)">
<path d="M170.753 0.5C171.053 8.72024 178.727 15.209 188.008 15.209C197.288 15.209 204.962 8.72024 205.263 0.5H375.508V159.5H205.263C204.962 151.28 197.288 144.791 188.008 144.791C178.727 144.791 171.053 151.28 170.753 159.5H0.507812V0.5H170.753Z" fill="white" stroke="#DDDDDD"/>
<rect x="188" width="188" height="160" fill="#F6AE24"/>
<line x1="188.508" y1="16" x2="188.508" y2="143" stroke="white" stroke-dasharray="5 5"/>
<path d="M314.67 126H296C294.9 126 294 125.1 294 124V80C294 78.9 294.9 78 296 78H314.26C314.97 78 315.64 78.39 315.99 79.01L319.13 84.5C319.31 84.81 319.64 85 320 85H350V112C350 112.55 350.45 113 351 113C351.55 113 352 112.55 352 112V80C352 77.79 350.21 76 348 76H296C293.79 76 292 77.79 292 80V124C292 126.21 293.79 128 296 128H314.67C315.22 128 315.67 127.55 315.67 127C315.67 126.45 315.22 126 314.67 126ZM350 80V83H320.58L317.73 78.01C317.73 78.01 317.73 78.01 317.73 78H348.01C349.11 78 350.01 78.9 350.01 80H350ZM356 138.91C356.02 139.19 355.93 139.47 355.74 139.67C355.55 139.88 355.28 139.99 355 139.99H339.04C338.49 139.99 338.04 139.54 338.04 138.99C338.04 138.44 338.49 137.99 339.04 137.99H353.91L352.08 116.99H331.91L331.56 121.08C331.51 121.63 331.03 122.04 330.48 121.99C329.93 121.94 329.52 121.46 329.57 120.91L330 115.91C330.04 115.39 330.48 115 331 115H353C353.52 115 353.95 115.4 354 115.91L356 138.91ZM333 124H319C318.5 124 318.08 124.37 318.01 124.86L316.01 138.86C315.97 139.15 316.05 139.44 316.24 139.66C316.43 139.88 316.71 140 317 140H335C335.29 140 335.57 139.87 335.76 139.66C335.95 139.44 336.04 139.15 335.99 138.86L333.99 124.86C333.92 124.37 333.5 124 333 124ZM318.15 138L319.86 126H332.13L333.84 138H318.15ZM329 130V131C329 132.65 327.65 134 326 134C324.35 134 323 132.65 323 131V130C323 129.45 323.45 129 324 129C324.55 129 325 129.45 325 130V131C325 131.55 325.45 132 326 132C326.55 132 327 131.55 327 131V130C327 129.45 327.45 129 328 129C328.55 129 329 129.45 329 130ZM339 121V123C339 124.65 340.35 126 342 126C343.65 126 345 124.65 345 123V121C345 120.45 345.45 120 346 120C346.55 120 347 120.45 347 121V123C347 125.76 344.76 128 342 128C339.24 128 337 125.76 337 123V121C337 120.45 337.45 120 338 120C338.55 120 339 120.45 339 121ZM313 83C312.45 83 312 82.55 312 82C312 81.45 312.45 81 313 81C313.55 81 314 81.45 314 82C314 82.55 313.55 83 313 83ZM305 120H321C321.55 120 322 119.55 322 119V107.85L327.16 106.99C327.43 106.95 327.66 106.79 327.82 106.57C327.97 106.35 328.03 106.07 327.98 105.81L325.98 95.81C325.92 95.51 325.72 95.25 325.45 95.11L317.45 91.11C317.34 91.06 317.15 91 317 91H309C308.87 91 308.69 91.04 308.55 91.11L300.55 95.11C300.27 95.25 300.08 95.51 300.02 95.81L298.02 105.81C297.97 106.08 298.02 106.35 298.18 106.57C298.33 106.79 298.57 106.94 298.84 106.99L304 107.85V119C304 119.55 304.45 120 305 120ZM316 93C316 94.65 314.65 96 313 96C311.35 96 310 94.65 310 93H316ZM300.18 105.18L301.88 96.67L308.05 93.58C308.35 96.06 310.44 97.99 312.99 97.99C315.54 97.99 317.64 96.06 317.93 93.58L324.1 96.67L325.8 105.18L321.98 105.82V102C321.98 101.45 321.53 101 320.98 101C320.43 101 319.98 101.45 319.98 102V118H305.98V102C305.98 101.45 305.53 101 304.98 101C304.43 101 303.98 101.45 303.98 102V105.82L300.16 105.18H300.18ZM346 92C346 91.45 345.55 91 345 91H331C330.45 91 330 91.45 330 92V98C330 98.55 330.45 99 331 99H345C345.55 99 346 98.55 346 98V92ZM344 97H332V93H344V97ZM346 103C346 103.55 345.55 104 345 104H331C330.45 104 330 103.55 330 103C330 102.45 330.45 102 331 102H345C345.55 102 346 102.45 346 103ZM346 108C346 108.55 345.55 109 345 109H331C330.45 109 330 108.55 330 108C330 107.45 330.45 107 331 107H345C345.55 107 346 107.45 346 108Z" fill="white"/>
</g>
<path d="M45.0886 130.05C45.0886 132.534 45.0943 135.018 45.0867 137.502C45.0961 135.018 45.0886 132.534 45.0886 130.05C45.0886 127.566 45.0943 125.083 45.0867 122.599C45.0961 125.083 45.0886 127.566 45.0886 130.05Z" fill="white"/>
<path d="M50.2777 121.002V138.995H53.1054V121.002H50.2777Z" fill="black"/>
<path d="M84.9281 121.002V138.995H87.0263V121.002H84.9281Z" fill="black"/>
<path d="M25.2065 121.002V138.995H27.3442V121.002H25.2065Z" fill="black"/>
<path d="M30.4031 121.002V138.995H32.5201V121.002H30.4031Z" fill="black"/>
<path d="M56.9183 121.002V138.995H59.0635V121.002H56.9183Z" fill="black"/>
<path d="M77.5524 121.002V138.995H79.6864V121.002H77.5524Z" fill="black"/>
<path d="M67.2194 121.002V138.995H69.3627V121.002H67.2194Z" fill="black"/>
<path d="M72.3671 121.002V138.995H74.5104V121.002H72.3671Z" fill="black"/>
<path d="M23.0538 121.002V138.995H24.3905V121.002H23.0538Z" fill="black"/>
<path d="M34.0524 121.002V138.995H35.4362V121.002H34.0524Z" fill="black"/>
<path d="M88.5736 130.178C88.5736 127.119 88.5811 124.059 88.5605 121.002C88.5811 124.062 88.5717 127.119 88.5717 130.178H88.5736Z" fill="black"/>
<path d="M88.5736 130.178C88.5736 127.119 88.5811 124.059 88.5623 121.002H87.7859C87.7671 127.001 87.7652 132.997 87.7859 138.995H88.5642C88.568 138.513 88.5717 138.031 88.5736 137.549C88.583 135.092 88.5755 132.635 88.5755 130.178H88.5736Z" fill="black"/>
<path d="M70.1016 129.927C70.1016 132.446 70.0959 134.964 70.1035 137.48C70.0941 134.962 70.1016 132.443 70.1016 129.927C70.1016 126.952 70.0922 123.976 70.1129 121.002C70.0922 123.978 70.1016 126.952 70.1016 129.927Z" fill="black"/>
<path d="M70.8856 121.002H70.1129C70.0922 123.978 70.1016 126.952 70.1016 129.927C70.1016 132.446 70.0959 134.964 70.1035 137.48C70.1035 137.984 70.1091 138.488 70.1128 138.993H70.8875C70.9063 132.994 70.9044 126.998 70.8875 121L70.8856 121.002Z" fill="black"/>
<path d="M61.3346 126.347C61.3346 124.569 61.3346 122.788 61.3346 121.002H60.5469C60.5506 127.001 60.5469 132.997 60.5619 138.995H61.3196C61.3384 134.78 61.3328 130.562 61.3328 126.347H61.3346Z" fill="black"/>
<path d="M76.7797 123.302C76.7797 122.535 76.7778 121.77 76.7797 121.002H76.0333V138.995H76.776C76.7835 133.764 76.7816 128.533 76.7816 123.302H76.7797Z" fill="black"/>
<path d="M66.4316 121.002H65.7134C65.704 122.365 65.7002 123.73 65.7002 125.092C65.7002 126.75 65.7021 128.408 65.7021 130.065C65.7021 132.52 65.6946 134.977 65.704 137.431C65.7059 137.952 65.7096 138.474 65.7134 138.995H66.4335C66.4504 132.997 66.4504 127.001 66.4335 121.002H66.4316Z" fill="black"/>
<path d="M81.1434 121.002C81.1359 126.514 81.1397 132.025 81.1397 137.537C81.1397 138.024 81.1416 138.508 81.1434 138.995H81.888V121.002H81.1434Z" fill="black"/>
<path d="M20.0024 121.002C20.0042 124.706 20.0024 128.412 20.0024 132.116C20.0024 134.408 19.9929 136.701 20.0118 138.995H20.7224V121.002H20.0024Z" fill="black"/>
<path d="M22.266 121.002H21.4914C21.4914 124.013 21.4914 127.023 21.4914 130.036C21.4914 133.009 21.4914 135.985 21.4914 138.995H22.2622C22.2679 132.997 22.2679 127.001 22.2641 121.002H22.266Z" fill="black"/>
<path d="M61.9795 129.93C61.9795 132.446 61.9739 134.959 61.9814 137.475C61.972 134.962 61.9795 132.446 61.9795 129.93Z" fill="black"/>
<path d="M62.7466 121.002H61.9927C61.9889 121.524 61.9851 122.048 61.9833 122.569C61.9739 125.024 61.9814 127.475 61.9814 129.93C61.9814 132.446 61.9757 134.959 61.9833 137.475C61.9833 137.982 61.9889 138.488 61.9927 138.998H62.7466C62.7654 132.999 62.7654 127.003 62.7466 121.005V121.002Z" fill="black"/>
<path d="M89.9987 121.002H89.258C89.258 127.001 89.2542 132.997 89.273 138.995H89.9875C90.0025 132.997 90.0006 127.001 89.9987 121.002Z" fill="black"/>
<path d="M56.1286 121.002H55.3766C55.3766 127.001 55.3766 132.997 55.3728 138.995H56.1455C56.1455 132.987 56.1474 126.993 56.1286 121.002Z" fill="black"/>
<path d="M53.88 121.002C53.88 124.957 53.88 128.909 53.88 132.864C53.88 134.908 53.8706 136.951 53.8875 138.995H54.6001V121.002H53.88Z" fill="black"/>
<path d="M49.5012 121.002H48.7511C48.7323 125.488 48.7379 129.974 48.7379 134.462C48.7379 135.965 48.7379 137.47 48.7379 138.995H49.5163C49.5163 132.997 49.52 127.001 49.5012 121.002Z" fill="black"/>
<path d="M47.2846 129.925C47.2846 127.5 47.2771 125.075 47.2846 122.65C47.2752 125.075 47.2846 127.5 47.2846 129.925Z" fill="black"/>
<path d="M48.0141 121.002H47.2959C47.2921 121.551 47.2865 122.099 47.2846 122.648C47.2752 125.073 47.2846 127.498 47.2846 129.923C47.2846 132.409 47.2771 134.895 47.2865 137.382C47.2883 137.918 47.2921 138.456 47.2959 138.993H48.0141C48.031 132.994 48.031 126.998 48.0141 121V121.002Z" fill="black"/>
<path d="M45.0886 130.05C45.0886 127.566 45.0943 125.083 45.0867 122.599C45.0867 122.065 45.0811 121.534 45.0773 121H44.3234C44.3046 126.998 44.3046 132.994 44.3234 138.993H45.0792C45.083 138.496 45.0867 137.999 45.0886 137.5C45.098 135.016 45.0905 132.532 45.0905 130.048L45.0886 130.05Z" fill="black"/>
<path d="M42.8645 121.002H42.1481C42.1256 124.02 42.135 127.038 42.135 130.055H42.1387C42.1387 133.036 42.1293 136.017 42.15 138.995H42.8607C42.8795 132.997 42.8795 127.001 42.8645 121.002Z" fill="black"/>
<path d="M38.4199 121.002C38.4199 126.106 38.4199 131.206 38.4199 136.309C38.4199 137.205 38.4218 138.1 38.4199 138.995H39.1625V121.002H38.418H38.4199Z" fill="black"/>
<path d="M36.9534 121.002C36.9553 124.628 36.9534 128.253 36.9534 131.878C36.9534 134.251 36.9459 136.624 36.9628 138.995H37.6735V121.002H36.9534Z" fill="black"/>
<path d="M28.8539 121.002H28.1357C28.1169 123.981 28.1244 126.959 28.1244 129.937C28.1244 132.916 28.115 135.977 28.1357 138.995H28.8539C28.8708 132.997 28.8708 127.001 28.8539 121.002Z" fill="black"/>
<path d="M82.625 121.002C82.6306 127.001 82.6287 132.997 82.6306 138.995H83.4033C83.4033 132.997 83.4052 127.001 83.4033 121.002H82.625Z" fill="black"/>
</svg>
