<svg width="178" height="150" viewBox="0 0 178 150" fill="none" xmlns="http://www.w3.org/2000/svg">
<rect x="0.5" y="0.5" width="177" height="149" fill="white" stroke="#CCCCCC"/>
<path d="M117.473 63.9V59.712H118.637V70.848H117.473V64.992H116.045V70.62H114.917V59.88H116.045V63.9H117.473ZM110.549 67.944H111.089C111.953 67.944 112.937 67.884 114.053 67.716L114.173 68.772C113.093 68.964 112.073 69.036 110.921 69.036H109.349V60.528H110.549V67.944ZM129.069 63.96V65.052H133.701V66.084H123.237V65.052H127.881V63.96H127.593C125.721 63.96 124.461 63.264 124.461 61.884C124.461 60.516 125.721 59.832 127.593 59.832H129.345C131.229 59.832 132.477 60.516 132.477 61.884C132.477 63.264 131.229 63.96 129.345 63.96H129.069ZM125.661 61.896C125.661 62.556 126.429 62.94 127.809 62.94H129.141C130.509 62.94 131.289 62.556 131.289 61.896C131.289 61.224 130.509 60.864 129.141 60.864H127.809C126.429 60.864 125.661 61.224 125.661 61.896ZM129.153 66.804V67.26C129.153 67.668 129.057 68.028 128.877 68.376L132.993 69.84L132.597 70.908L128.133 69.264C127.269 70.008 125.913 70.548 124.329 70.968L123.957 69.9C126.225 69.288 127.917 68.412 127.917 67.26V66.804H129.153ZM143.532 59.712V62.04H145.248V63.132H143.532V65.784H142.332V59.712H143.532ZM140.616 65.664L137.652 63.708C137.088 64.524 136.2 65.244 134.964 65.904L134.4 64.944C136.308 63.876 137.22 62.772 137.22 61.308H134.832V60.24H140.784V61.308H138.384C138.384 61.812 138.3 62.292 138.144 62.736L141.216 64.692L140.616 65.664ZM138.792 66.372H141.144C142.764 66.372 143.784 67.332 143.784 68.664C143.784 70.008 142.764 70.968 141.144 70.968H138.792C137.196 70.968 136.164 70.008 136.164 68.664C136.164 67.332 137.196 66.372 138.792 66.372ZM138.996 69.888H140.952C142.044 69.888 142.596 69.372 142.596 68.664C142.596 67.956 142.044 67.44 140.952 67.44H138.996C137.904 67.44 137.352 67.956 137.352 68.664C137.352 69.372 137.904 69.888 138.996 69.888Z" fill="black"/>
<path d="M58.399 106.389C57.9387 106.389 57.5671 106.017 57.5671 105.556V44.4604C57.5671 43.9994 57.9387 43.6272 58.399 43.6272C58.8594 43.6272 59.231 43.9994 59.231 44.4604V105.556C59.231 106.017 58.8594 106.389 58.399 106.389Z" fill="black"/>
<path d="M94.3949 110H34.6051C32.614 110 31 108.384 31 106.389V43.6105C31 41.6164 32.614 40 34.6051 40H94.3949C96.386 40 98 41.6164 98 43.6105V106.389C98 108.384 96.386 110 94.3949 110ZM34.6051 41.6664C33.5347 41.6664 32.6639 42.5385 32.6639 43.6105V106.389C32.6639 107.462 33.5347 108.334 34.6051 108.334H94.3949C95.4653 108.334 96.3361 107.462 96.3361 106.389V43.6105C96.3361 42.5385 95.4653 41.6664 94.3949 41.6664H34.6051Z" fill="black"/>
<path d="M93.1137 43.6161H35.8863C35.0988 43.6161 34.4609 44.2549 34.4609 45.0436V104.951C34.4609 105.74 35.0988 106.378 35.8863 106.378H58.3214C58.3214 106.378 58.3713 106.384 58.3935 106.384C58.4156 106.384 58.4434 106.378 58.4656 106.378H93.1026C93.8902 106.378 94.528 105.74 94.528 104.951V45.0436C94.528 44.2549 93.8902 43.6161 93.1026 43.6161H93.1137ZM57.5671 104.712H36.1248V88.4201H57.5671V104.712ZM57.5671 86.7592H36.1248V64.3572H57.5671V86.7592ZM57.5671 62.6853H36.1248V45.2825H57.5671V62.6853ZM92.8752 104.712H59.231V55.8364H92.8752V104.712ZM92.8752 54.17H59.231V45.288H92.8752V54.17Z" fill="black"/>
<path d="M55.7201 58.036C55.7201 56.5696 54.5276 55.3753 53.0634 55.3753H40.6285C39.1642 55.3753 37.9773 56.5585 37.9718 58.0194C37.9718 58.7081 38.2325 59.3691 38.7094 59.8635C37.6945 60.9245 37.7333 62.602 38.7926 63.6185C39.2863 64.0962 39.9463 64.3572 40.634 64.3572H53.069C54.5332 64.3572 55.7201 63.1797 55.7257 61.7132C55.7257 61.0244 55.465 60.3634 54.988 59.8691C55.4594 59.3747 55.7257 58.7248 55.7257 58.0416L55.7201 58.036ZM40.6285 57.0362H53.0634C53.6125 57.0251 54.0673 57.4583 54.0784 58.0083C54.0895 58.5582 53.6569 59.0137 53.1078 59.0248C53.0911 59.0248 53.0745 59.0248 53.0634 59.0248H40.6285C40.0794 59.0137 39.6468 58.5582 39.6579 58.0083C39.669 57.475 40.096 57.0473 40.6285 57.0362ZM53.0579 62.6853H40.6229C40.0738 62.6742 39.6412 62.2187 39.6523 61.6688C39.6634 61.1355 40.0905 60.7078 40.6229 60.6967H53.0579C53.607 60.6856 54.0618 61.1189 54.0728 61.6688C54.0839 62.2187 53.6513 62.6742 53.1022 62.6853C53.0856 62.6853 53.069 62.6853 53.0579 62.6853Z" fill="black"/>
<path d="M55.1433 80.2769C56.1583 79.216 56.1195 77.5385 55.0601 76.522C54.5665 76.0443 53.9065 75.7832 53.2187 75.7832H40.7838C39.3195 75.7832 38.1326 76.9608 38.1271 78.4272C38.1271 79.116 38.3877 79.777 38.8647 80.2714C37.883 81.2934 37.883 82.9099 38.8647 83.9264C37.8498 84.9873 37.8886 86.6648 38.9479 87.6813C39.4416 88.1535 40.1016 88.4201 40.7893 88.4201H53.2243C54.6885 88.4201 55.8754 87.2369 55.881 85.7705C55.881 85.0817 55.6203 84.4263 55.1433 83.9264C56.125 82.9043 56.125 81.2879 55.1433 80.2714V80.2769ZM39.7965 82.1044C39.7965 81.5545 40.2402 81.1101 40.7893 81.1101H53.2243C53.7733 81.1213 54.206 81.5767 54.1949 82.1266C54.1838 82.6599 53.7567 83.0876 53.2243 83.0987H40.7893C40.2402 83.0987 39.7965 82.6543 39.7965 82.1044ZM40.7893 77.4496H53.2243C53.7733 77.4607 54.206 77.9162 54.1949 78.4661C54.1838 78.9994 53.7567 79.4271 53.2243 79.4382H40.7893C40.2402 79.4493 39.7854 79.016 39.7743 78.4661C39.7632 77.9162 40.1959 77.4607 40.7449 77.4496C40.7616 77.4496 40.7782 77.4496 40.7893 77.4496ZM53.2243 86.7537H40.7893C40.2402 86.7537 39.7965 86.3093 39.7965 85.7594C39.7965 85.2095 40.2402 84.7651 40.7893 84.7651H53.2243C53.7733 84.7651 54.2171 85.2095 54.2171 85.7594C54.2171 86.3093 53.7733 86.7537 53.2243 86.7537Z" fill="black"/>
<path d="M91.6383 71.795C91.1946 70.0786 90.0077 65.907 88.5934 64.3461C87.7614 63.3741 86.7298 62.5853 85.5762 62.0354C85.0437 61.791 84.4336 61.7965 83.9067 62.0576C83.169 61.4688 82.3537 60.7856 81.7824 60.2635C82.032 59.908 82.2539 59.5358 82.448 59.147C83.5906 56.8362 83.3853 54.8588 81.9211 53.9867C81.1668 53.5367 80.2406 53.4645 79.4252 53.7978C78.6765 54.1033 78.1163 54.7477 77.9166 55.5309C77.8057 55.9752 78.0719 56.4307 78.5156 56.5418C78.9594 56.6529 79.4142 56.3863 79.5251 55.9419C79.5972 55.6642 79.7913 55.442 80.0575 55.3365C80.3903 55.2031 80.7619 55.2365 81.067 55.4198C81.8435 55.8864 81.4885 57.3195 80.9505 58.4137C80.6898 58.9248 80.3792 59.408 80.0243 59.858C79.3975 60.6523 78.7042 61.3911 77.9555 62.0743C77.4618 61.9187 76.9294 61.9632 76.469 62.2076C76.3415 62.2742 76.1917 62.352 76.0253 62.4353C75.7536 62.5742 75.4263 62.7408 75.088 62.9297C74.7108 62.2631 74.0065 61.8576 73.2411 61.8576H72.3758C71.2832 61.1244 70.4235 60.5023 69.8744 60.0635C70.1684 59.7135 70.418 59.3358 70.6287 58.9303C71.799 56.6085 71.6326 54.7643 70.1628 53.87C69.3364 53.4034 68.3325 53.3868 67.4895 53.8256C66.652 54.2366 66.0807 55.0476 65.9864 55.9752C65.9421 56.4307 66.2748 56.8418 66.7352 56.8862C67.19 56.9306 67.6004 56.5974 67.6448 56.1363C67.6892 55.7753 67.9166 55.4642 68.2438 55.3142C68.571 55.1309 68.9704 55.1254 69.3087 55.292C70.2017 55.8364 69.4973 57.4917 69.1478 58.1804C68.865 58.6859 68.5156 59.1525 68.1051 59.5636C67.2843 60.3968 66.4024 61.1689 65.454 61.8576H64.7108C63.8067 61.8576 63.0025 62.4242 62.6974 63.2796C61.3108 67.3346 60.7174 71.6228 60.9559 75.8999C61.089 77.844 61.2665 82.6988 61.3441 94.7802V94.9302C61.3441 95.5967 61.8156 96.1689 62.47 96.2911C63.0857 96.3966 63.7124 96.4466 64.3392 96.4355C65.1822 96.4355 66.0197 96.3744 66.8572 96.2577C67.4895 96.1578 67.9776 95.6356 68.0275 94.9968L68.7485 86.1927L69.3919 95.0357C69.4307 95.6523 69.8744 96.1689 70.479 96.3022C71.9432 96.5021 73.4296 96.4855 74.8883 96.2522C75.5705 96.1689 76.0919 95.6078 76.1141 94.9191L76.1252 94.6024C76.1751 93.0916 76.286 89.6032 76.4191 85.9816C77.606 86.076 78.9704 86.126 80.4624 86.126C82.8141 86.126 85.4652 86.0094 88.1441 85.7705C88.6045 85.7316 88.9428 85.3261 88.8984 84.8651L87.9722 74.7445C87.95 74.489 88.1164 74.2612 88.366 74.2057C89.2478 74.0446 90.102 73.7669 90.9062 73.378C91.4886 73.0947 91.7936 72.4393 91.6328 71.8061L91.6383 71.795ZM80.7619 61.5744C81.2777 62.0409 81.9045 62.5631 82.4203 62.9852C81.4608 63.4518 80.3459 63.4629 79.3753 63.0186C79.7913 62.6186 80.2794 62.1298 80.7619 61.5744ZM68.743 61.2744C68.9537 61.4466 69.1978 61.6355 69.4862 61.8521H68.1107C68.3325 61.6577 68.5488 61.4633 68.743 61.2744ZM74.4668 94.5413V94.6136C73.3353 94.7746 72.1873 94.808 71.0447 94.7024L69.6748 75.9443C69.6748 75.9054 69.6803 75.8721 69.6748 75.8332L69.4973 73.1281C69.4917 73.0059 69.4529 72.8837 69.3919 72.7781L68.1495 70.5674C67.9166 70.1619 67.4063 70.0175 67.0014 70.2452C66.6021 70.4618 66.4468 70.9618 66.6631 71.3617C66.6631 71.3617 66.6686 71.3728 66.6742 71.3784L67.8223 73.4225L67.9554 75.4721L66.3913 94.6358C65.2709 94.7913 64.1395 94.808 63.0136 94.6858C62.9304 82.6155 62.7529 77.744 62.6198 75.7777C62.3979 71.7227 62.9581 67.6623 64.2726 63.824C64.3392 63.6351 64.5166 63.5129 64.7163 63.5185H73.2522C73.4518 63.5185 73.6293 63.6462 73.6959 63.8351L73.8623 64.385C74.9937 68.2455 75.4596 72.2671 75.2433 76.2831C75.1157 77.8884 74.9715 80.6713 74.7996 85.0317C74.6443 88.9644 74.5223 92.9083 74.4668 94.5413ZM88.0498 72.5615C86.9627 72.7781 86.2195 73.7835 86.3249 74.8889L87.1735 84.1708C83.6183 84.4818 80.052 84.5263 76.4912 84.3041C76.6521 80.4158 76.7852 77.8995 76.9017 76.4109C77.1291 72.406 76.702 68.3955 75.6315 64.5294C76.0364 64.2906 76.4413 64.0851 76.7907 63.9073C76.9738 63.8129 77.1346 63.7351 77.2677 63.6629C77.3731 63.6129 77.4951 63.6296 77.5839 63.7073C77.606 63.724 77.6282 63.7462 77.6504 63.7684C79.2311 65.5182 82.4092 65.4349 84.5834 63.5907C84.6666 63.5185 84.7775 63.5018 84.8773 63.5518C85.8313 64.0129 86.6743 64.6628 87.3621 65.4737C88.2828 66.4958 89.2978 69.462 89.9689 71.9838C89.3588 72.256 88.7154 72.456 88.0554 72.5726L88.0498 72.5615Z" fill="black"/>
<path d="M46.3079 104.251C46.1138 102.923 46.0639 101.579 46.1526 100.235C46.1582 99.9683 46.1471 99.7072 46.1138 99.4406C45.9252 97.7075 44.8936 96.4466 43.5459 96.3022C42.5808 96.18 41.6268 96.6132 41.0888 97.4298C40.6174 98.113 40.3512 98.924 40.329 99.7572C40.3123 99.9794 40.3068 100.213 40.2957 100.446C40.2957 101.013 40.2402 101.574 40.1459 102.129C39.8908 103.196 39.68 104.034 39.5137 104.612C39.3084 105.351 39.7355 106.117 40.4732 106.323C40.5952 106.356 40.7228 106.373 40.8503 106.373H45.0046C45.7699 106.373 46.3911 105.745 46.3911 104.979C46.3911 104.923 46.3911 104.867 46.38 104.812C46.3523 104.606 46.3246 104.429 46.3024 104.245L46.3079 104.251ZM44.0228 104.712C44.0228 104.04 44.0894 103.373 44.217 102.718C44.3168 102.268 44.0284 101.824 43.5791 101.724C43.1299 101.624 42.6862 101.912 42.5863 102.362C42.431 103.134 42.3534 103.923 42.3534 104.712H41.2108C41.3661 104.14 41.5492 103.401 41.771 102.485C41.8875 101.829 41.9485 101.168 41.9541 100.507C41.9596 100.29 41.9707 100.079 41.9818 99.8794C41.9818 99.3628 42.1371 98.8518 42.4255 98.4241C42.6141 98.0908 42.9968 97.9075 43.3739 97.9741C43.8121 98.0186 44.339 98.5629 44.4555 99.6516C44.4776 99.8349 44.4887 100.024 44.4832 100.207C44.3889 101.646 44.4444 103.09 44.6551 104.518C44.6662 104.584 44.6773 104.656 44.6884 104.723H44.0228V104.712Z" fill="black"/>
<path d="M54.1949 104.612C54.0285 104.029 53.8177 103.196 53.5681 102.162C53.4683 101.596 53.4184 101.018 53.4128 100.446C53.4073 100.207 53.3962 99.9794 53.3796 99.7516C53.3574 98.9184 53.0967 98.113 52.6197 97.4298C52.0817 96.6132 51.1222 96.1744 50.1516 96.3022C48.8094 96.4466 47.7833 97.7075 47.5947 99.4239C47.5614 99.6905 47.5503 99.9627 47.5559 100.235C47.6446 101.574 47.5947 102.918 47.4006 104.245C47.3728 104.423 47.3451 104.606 47.3174 104.812C47.2231 105.573 47.7666 106.267 48.5265 106.362C48.582 106.367 48.6374 106.373 48.6929 106.373H52.8471C53.6125 106.373 54.2337 105.751 54.2337 104.984C54.2337 104.856 54.2171 104.729 54.1838 104.606L54.1949 104.612ZM51.3551 104.712C51.3551 103.923 51.2775 103.134 51.1222 102.362C51.0224 101.912 50.5786 101.629 50.1294 101.724C49.6801 101.824 49.3973 102.268 49.4916 102.718C49.6247 103.373 49.6912 104.04 49.6857 104.712H49.0146C49.0257 104.64 49.0368 104.573 49.0478 104.506C49.2531 103.079 49.3141 101.64 49.2198 100.202C49.2198 100.007 49.2198 99.8183 49.2475 99.6294C49.364 98.5518 49.8909 98.013 50.318 97.9686C50.7007 97.9019 51.0834 98.0797 51.2775 98.4185C51.5659 98.8462 51.7156 99.3517 51.7156 99.8683C51.7323 100.074 51.7378 100.285 51.7434 100.502C51.7489 101.179 51.8155 101.851 51.9375 102.518C52.1483 103.407 52.3368 104.145 52.4921 104.712H51.3496H51.3551Z" fill="black"/>
<rect x="67.5" y="93.5" width="79" height="29" fill="white" stroke="#CCCCCC"/>
<rect x="114" y="107" width="20" height="2" fill="#CCCCCC"/>
<rect x="128.414" y="101" width="10" height="2" transform="rotate(45 128.414 101)" fill="#CCCCCC"/>
<rect x="135.485" y="108.071" width="10" height="2" transform="rotate(135 135.485 108.071)" fill="#CCCCCC"/>
<path d="M88.4005 103.84C90.0105 103.84 91.2305 104.66 91.2305 106.41C91.2305 108.18 90.0105 108.98 88.4005 108.98H86.5405V112.06H84.9705V103.84H88.4005ZM86.5405 107.6H88.3205C89.1905 107.6 89.6605 107.17 89.6605 106.41C89.6605 105.65 89.1905 105.22 88.3205 105.22H86.5405V107.6ZM93.7475 112.06H92.1775V103.84H93.7475V112.06ZM98.4663 112.21C96.5563 112.21 94.8963 110.92 94.8963 108.65V107.25C94.8963 104.99 96.5463 103.69 98.4663 103.69C100.236 103.69 101.496 104.72 101.896 106.42L100.406 106.85C100.136 105.74 99.5463 105.15 98.4663 105.15C97.3863 105.15 96.4663 105.88 96.4663 107.31V108.59C96.4663 110.03 97.3863 110.75 98.4663 110.75C99.5463 110.75 100.136 110.16 100.406 109.05L101.896 109.48C101.496 111.18 100.236 112.21 98.4663 112.21ZM109.678 112.06H107.698L105.118 108.69L104.568 109.32V112.06H102.998V103.84H104.568V107.03L107.328 103.84H109.378L106.178 107.49L109.678 112.06Z" fill="black"/>
</svg>
