<svg width="70" height="75" viewBox="0 0 70 75" fill="none" xmlns="http://www.w3.org/2000/svg">
<rect width="70" height="75" fill="white"/>
<path d="M62.0698 59.4478V9.8609C62.0698 9.0862 61.7604 8.3664 61.2284 7.854C60.6839 7.305 59.9601 7.0061 59.1744 7.0061C57.5721 7.0061 56.2729 8.2871 56.2729 9.867V13.6795H41.7713C41.2393 13.6795 40.8062 14.1065 40.8062 14.6311C40.8062 15.1557 41.2393 15.5827 41.7713 15.5827H56.2729V52.7561H13.7333V15.5766H31.1302C31.6623 15.5766 32.0954 15.1496 32.0954 14.625C32.0954 13.7527 32.4913 12.9353 33.1904 12.3863C33.8957 11.8312 34.7866 11.636 35.6898 11.8434C36.6302 12.0569 37.4159 12.7767 37.7314 13.6734H34.0256C33.4935 13.6734 33.0605 14.1004 33.0605 14.625C33.0605 15.1496 33.4935 15.5766 34.0256 15.5766H37.719C37.5087 16.1744 37.1004 16.699 36.525 17.0528C35.1887 17.8763 34.3164 19.1512 34.0937 20.5603L21.1945 24.1959C20.7799 24.3118 20.4954 24.6839 20.4954 25.1109V28.9234C20.4954 29.448 20.9284 29.875 21.4605 29.875H26.2923V46.0766C26.2923 46.6012 26.7253 47.0282 27.2574 47.0282H32.0892V49.8891C32.0892 50.4137 32.5222 50.8407 33.0543 50.8407H42.7179C43.2499 50.8407 43.683 50.4137 43.683 49.8891V29.875H48.5148C49.0468 29.875 49.4799 29.448 49.4799 28.9234V25.1109C49.4799 24.6839 49.1953 24.3118 48.7808 24.1959L36.0425 20.6091C36.2404 19.8405 36.7725 19.1512 37.5396 18.6754C38.9687 17.7909 39.7792 16.3086 39.8039 14.6982C39.8039 14.6738 39.8163 14.6555 39.8163 14.6311C39.8163 14.6067 39.8039 14.5884 39.8039 14.564C39.8039 14.2163 39.773 13.8686 39.6864 13.5209C39.2843 11.7763 37.8799 10.3916 36.1043 9.989C34.6257 9.6535 33.1223 9.989 31.9654 10.8979C31.0622 11.6055 30.4683 12.5876 30.2455 13.6734H13.7333V9.8609C13.7333 9.0862 13.424 8.3664 12.8919 7.854C12.3475 7.305 11.6175 7 10.8318 7C9.23563 7 7.93024 8.281 7.93024 9.8609V59.4478C6.76096 60.3201 6 61.6865 6 63.2359C6 65.865 8.16533 68 10.8318 68C13.4982 68 15.6636 65.865 15.6636 63.2359C15.6636 61.6865 14.8964 60.3201 13.7333 59.4478V58.4718H56.2667V59.4478C55.0974 60.3201 54.3364 61.6865 54.3364 63.2359C54.3364 65.865 56.5018 68 59.1682 68C61.8347 68 64 65.865 64 63.2359C64 61.6865 63.2328 60.3201 62.0698 59.4478ZM28.2349 27.9657H41.7713V31.4122C41.7713 32.1808 41.6414 32.9372 41.3754 33.657L37.2241 45.125H28.2411V27.9657H28.2349ZM34.0318 48.9375V47.0343H37.8985C38.3068 47.0343 38.6718 46.7842 38.8079 46.3999L41.7651 38.2381V48.9375H34.0318ZM47.5682 27.9657H43.7015V27.0141C43.7015 26.4895 43.2685 26.0625 42.7364 26.0625H27.2698C26.7377 26.0625 26.3046 26.4895 26.3046 27.0141V27.9657H22.438V25.8246L35.0031 22.2866L47.5682 25.8246V27.9657ZM58.2031 9.8609C58.2031 9.3363 58.6362 8.9093 59.1682 8.9093C59.4281 8.9093 59.6631 9.0069 59.8549 9.2021C60.0343 9.3729 60.1333 9.6108 60.1333 9.8609V52.75H58.2031V9.8609ZM10.8318 8.9032C11.0916 8.9032 11.3267 9.0008 11.5185 9.196C11.6979 9.3668 11.7969 9.6047 11.7969 9.8548V52.7439H9.86667V9.8609C9.86667 9.3363 10.2997 8.9093 10.8318 8.9093V8.9032ZM10.8318 66.0907C9.22944 66.0907 7.93024 64.8097 7.93024 63.2298C7.93024 61.6499 9.22944 60.3689 10.8318 60.3689C12.4341 60.3689 13.7333 61.6499 13.7333 63.2298C13.7333 64.8097 12.4341 66.0907 10.8318 66.0907ZM10.8318 58.4657C10.4977 58.4657 10.176 58.4962 9.86667 58.5633V54.6532H11.7969V58.5633C11.4876 58.5023 11.1597 58.4657 10.8318 58.4657ZM13.7333 56.5625V54.6593H56.2667V56.5625H13.7333ZM58.2031 54.6532H60.1333V58.5633C59.824 58.5023 59.4961 58.4657 59.1682 58.4657C58.8403 58.4657 58.5124 58.4962 58.2031 58.5633V54.6532ZM59.1682 66.0907C57.5659 66.0907 56.2667 64.8097 56.2667 63.2298C56.2667 61.6499 57.5659 60.3689 59.1682 60.3689C60.7706 60.3689 62.0698 61.6499 62.0698 63.2298C62.0698 64.8097 60.7706 66.0907 59.1682 66.0907ZM37.8985 38.4516V34.6391C37.8985 32.5346 36.1662 30.8266 34.0318 30.8266C31.8974 30.8266 30.1651 32.5346 30.1651 34.6391V38.4516C30.1651 38.9762 30.5982 39.4032 31.1302 39.4032H36.9333C37.4654 39.4032 37.8985 38.9762 37.8985 38.4516ZM35.9682 37.5H32.1015V34.6391C32.1015 33.5899 32.9677 32.7359 34.0318 32.7359C35.0959 32.7359 35.962 33.5899 35.962 34.6391V37.5H35.9682Z" fill="black"/>
</svg>
