<svg width="70" height="75" viewBox="0 0 70 75" fill="none" xmlns="http://www.w3.org/2000/svg">
<rect width="70" height="75" fill="white"/>
<path d="M23.3064 28.0771C23.5224 28.0771 23.7384 27.9967 23.9004 27.8539C24.0983 27.6843 24.2063 27.4433 24.2063 27.1844H26.9059C27.4008 27.1844 27.8057 26.7827 27.8057 26.2917H28.7056V37.0042C28.7056 38.4771 29.9203 39.6823 31.4051 39.6823H54.8012C56.286 39.6823 57.5008 38.4771 57.5008 37.0042V21.8281C57.5008 20.3552 56.286 19.15 54.8012 19.15H45.3528L43.4631 16.6504C42.9592 15.9809 42.1493 15.5792 41.3034 15.5792H27.8057C27.8057 15.0882 27.4008 14.6865 26.9059 14.6865H24.2063C24.2063 14.2401 23.8644 13.8562 23.4144 13.8027L9.01683 12.0083C8.76487 11.9726 8.50392 12.053 8.30595 12.2226C8.10798 12.3922 8 12.6332 8 12.8921V25.39C8 25.8364 8.34194 26.2203 8.79187 26.2738L23.1895 28.0592C23.1895 28.0592 23.2615 28.0592 23.2975 28.0592L23.3064 28.0771ZM55.7011 34.326H30.5053V32.5406H55.7011V34.326ZM54.8012 37.8969H31.4051C30.9102 37.8969 30.5053 37.4952 30.5053 37.0042V36.1115H55.7011V37.0042C55.7011 37.4952 55.2961 37.8969 54.8012 37.8969ZM55.7011 21.8281V30.7552H30.5053V26.2917H31.0362L32.5749 27.8182C32.7459 27.9878 32.9708 28.0771 33.2138 28.0771H39.5127C39.7107 28.0771 39.8907 28.0592 40.0797 28.0146C40.1336 28.0057 40.1876 27.9789 40.2506 27.961C40.3676 27.9253 40.4936 27.8896 40.6106 27.845C40.6826 27.8182 40.7455 27.7736 40.8085 27.7379C40.8985 27.6843 40.9975 27.6397 41.0875 27.5772C41.1505 27.5325 41.2135 27.479 41.2765 27.4254C41.3574 27.354 41.4294 27.2915 41.5014 27.2112C41.5284 27.1844 41.5554 27.1665 41.5824 27.1397C41.6094 27.104 41.6364 27.0594 41.6634 27.0237C41.7264 26.9433 41.7894 26.8541 41.8434 26.7648C41.8794 26.6934 41.9243 26.6309 41.9603 26.5595C42.0053 26.4613 42.0503 26.3631 42.0773 26.256C42.1043 26.1845 42.1223 26.1131 42.1403 26.0417C42.1673 25.9346 42.1853 25.8275 42.1943 25.7114C42.1943 25.6311 42.2123 25.5597 42.2213 25.4793C42.2213 25.4525 42.2303 25.4347 42.2303 25.4079C42.2303 25.3186 42.2123 25.2383 42.2033 25.1579C42.2033 25.0954 42.2033 25.033 42.1943 24.9705C42.1943 24.9526 42.1853 24.9348 42.1763 24.9169C42.1673 24.8544 42.1493 24.8009 42.1313 24.7384C42.1043 24.6402 42.0773 24.542 42.0413 24.4438C42.0053 24.3545 41.9603 24.2742 41.9153 24.1849C41.8884 24.1402 41.8704 24.0867 41.8434 24.042C41.3664 23.2654 40.5206 22.7298 39.5307 22.7298H35.9313C35.8054 22.7298 35.6794 22.703 35.5714 22.6494C35.5354 22.6316 35.5084 22.6048 35.4814 22.5869C35.4094 22.5423 35.3374 22.4977 35.2835 22.4352C35.2475 22.3995 35.2295 22.3548 35.2025 22.3191C35.1575 22.2566 35.1215 22.1941 35.0945 22.1227C35.0765 22.0692 35.0675 22.0156 35.0585 21.962C35.0495 21.8906 35.0405 21.8281 35.0495 21.7478C35.0495 21.6853 35.0675 21.6317 35.0855 21.5782C35.1035 21.5246 35.1215 21.471 35.1485 21.4264C35.1665 21.3996 35.1845 21.3729 35.2025 21.3461C35.3824 21.105 35.6884 20.9354 36.0303 20.9354H54.8282C55.3231 20.9354 55.728 21.3371 55.728 21.8281H55.7011ZM41.3034 17.3646C41.5824 17.3646 41.8524 17.4985 42.0233 17.7217L43.1031 19.15H35.9044C34.9235 19.15 34.0687 19.6767 33.5917 20.4623C33.5647 20.5069 33.5377 20.5516 33.5107 20.6051C33.4658 20.6855 33.4208 20.7747 33.3848 20.864C33.3488 20.9622 33.3218 21.0604 33.2948 21.1586C33.2768 21.2211 33.2588 21.2747 33.2498 21.3371C33.2498 21.355 33.2408 21.3729 33.2318 21.3907C33.2228 21.4532 33.2318 21.5157 33.2228 21.5782C33.2228 21.6585 33.1958 21.7389 33.1958 21.8281C33.1958 21.8549 33.1958 21.8817 33.1958 21.9085C33.1958 21.9888 33.2138 22.0602 33.2228 22.1406C33.2318 22.2477 33.2498 22.3638 33.2768 22.4709C33.2948 22.5423 33.3218 22.6137 33.3488 22.6851C33.3848 22.7923 33.4208 22.8905 33.4658 22.9887C33.5018 23.0601 33.5377 23.1315 33.5827 23.194C33.6367 23.2832 33.6997 23.3725 33.7627 23.4529C33.7897 23.4886 33.8077 23.5332 33.8437 23.5689C33.8707 23.5957 33.8977 23.6135 33.9247 23.6403C33.9967 23.7207 34.0777 23.7832 34.1496 23.8546C34.2126 23.9081 34.2666 23.9617 34.3386 24.0063C34.4286 24.0688 34.5186 24.1224 34.6176 24.167C34.6806 24.2027 34.7435 24.2474 34.8155 24.2742C34.9325 24.3277 35.0495 24.3545 35.1755 24.3902C35.2295 24.4081 35.2835 24.4348 35.3464 24.4438C35.5264 24.4795 35.7154 24.5063 35.9133 24.5063H39.4138C39.7557 24.5063 40.0617 24.6759 40.2416 24.9169C40.2596 24.9437 40.2776 24.9705 40.2956 24.9972C40.3226 25.0419 40.3406 25.0954 40.3586 25.149C40.3766 25.2026 40.3856 25.2651 40.3946 25.3186C40.3946 25.39 40.3946 25.4615 40.3856 25.5329C40.3856 25.5864 40.3676 25.64 40.3496 25.6936C40.3226 25.765 40.2866 25.8275 40.2416 25.89C40.2146 25.9257 40.1966 25.9703 40.1606 26.006C40.1066 26.0685 40.0347 26.1131 39.9627 26.1578C39.9267 26.1756 39.9087 26.2024 39.8727 26.2203C39.7557 26.2649 39.6387 26.3006 39.5127 26.3006H33.5827L32.044 24.7741C31.873 24.6045 31.6481 24.5152 31.4051 24.5152H27.8057V17.3646H41.3034ZM26.006 16.4719V25.399H24.2063V16.4719H26.006ZM9.8087 13.9098L22.4066 15.472V26.1667L9.8087 24.6045V13.9098Z" fill="black"/>
<path d="M47.6024 28.0771H53.0015C53.4964 28.0771 53.9014 27.6754 53.9014 27.1844V23.6135C53.9014 23.1226 53.4964 22.7208 53.0015 22.7208H47.6024C47.1075 22.7208 46.7026 23.1226 46.7026 23.6135V27.1844C46.7026 27.6754 47.1075 28.0771 47.6024 28.0771ZM48.5023 24.5063H52.1017V26.2917H48.5023V24.5063Z" fill="black"/>
<path d="M59.3005 41.4677H16.1076C14.6229 41.4677 13.4081 42.6729 13.4081 44.1458V61.1073C13.4081 61.5983 13.813 62 14.3079 62H61.1002C61.5951 62 62 61.5983 62 61.1073V44.1458C62 42.6729 60.7852 41.4677 59.3005 41.4677ZM16.1076 43.2531H59.3005C59.7954 43.2531 60.2003 43.6548 60.2003 44.1458V45.9313H15.2078V44.1458C15.2078 43.6548 15.6127 43.2531 16.1076 43.2531ZM60.2003 47.7167V56.6438H15.2078V47.7167H60.2003ZM15.2078 60.2146V58.4292H60.2003V60.2146H15.2078Z" fill="black"/>
</svg>
