<svg width="178" height="150" viewBox="0 0 178 150" fill="none" xmlns="http://www.w3.org/2000/svg">
<rect x="0.5" y="0.5" width="177" height="149" fill="white" stroke="#CCCCCC"/>
<path d="M115.72 66.54V68.916H120.352V70.02H109.888V68.916H114.532V66.54H110.992V65.46H112.732V61.548H110.992V60.456H119.248V61.548H117.508V65.46H119.248V66.54H115.72ZM116.344 61.548H113.896V65.46H116.344V61.548ZM130.819 68.052H129.619V59.712H130.819V68.052ZM124.687 66.228C123.031 66.228 121.699 65.256 121.699 63.24V63.012C121.699 60.972 123.031 60.012 124.687 60.012C126.331 60.012 127.663 60.972 127.663 63.012V63.24C127.663 65.256 126.331 66.228 124.687 66.228ZM124.687 65.172C125.683 65.172 126.463 64.524 126.463 63.216V63.024C126.463 61.704 125.683 61.068 124.687 61.068C123.679 61.068 122.899 61.704 122.899 63.024V63.216C122.899 64.524 123.679 65.172 124.687 65.172ZM131.287 70.848H123.451V67.236H124.651V69.756H131.287V70.848ZM135.129 65.88H142.065V66.948H133.929V60.456H141.837V61.548H135.129V63.156H141.837V64.212H135.129V65.88ZM132.645 70.02V68.916H143.109V70.02H132.645Z" fill="black"/>
<path d="M78.2186 59.0012C75.1116 59.0012 72.2613 60.1056 70.0465 61.9504L54.7872 53.1857C54.524 53.0325 54.1966 53.0325 53.9334 53.1857L38.4301 62.0781C38.1669 62.2313 38 62.5122 38 62.8122V80.6099C38 80.9163 38.1605 81.1908 38.4301 81.344L53.927 90.2428C54.0618 90.3194 54.2094 90.3577 54.3507 90.3577C54.4919 90.3577 54.646 90.3194 54.7743 90.2428L70.0337 81.478C72.2484 83.3165 75.0987 84.4273 78.2058 84.4273C85.2545 84.4273 90.9936 78.7267 90.9936 71.711C90.9936 64.6954 85.2609 58.9948 78.2058 58.9948L78.2186 59.0012ZM47.7513 73.4282L45.6008 72.1962L45.543 67.6383L47.6936 68.8703L47.7513 73.4282ZM46.3775 66.1509L60.1668 58.2351L62.3302 59.48L48.5409 67.3957L46.3775 66.1509ZM64.0378 60.463L68.1399 62.8186L54.3507 70.7343L50.2485 68.3788L64.0378 60.463ZM55.2045 72.2026L67.1513 65.3402C66.0535 67.2169 65.4244 69.3874 65.4244 71.711C65.4244 74.9986 66.6827 77.9926 68.7498 80.2524L55.2045 88.0277V72.1962V72.2026ZM54.3507 54.9029L58.4528 57.2584L44.6635 65.1742L40.5614 62.8186L54.3507 54.9029ZM39.7076 64.2932L43.8161 66.6552L43.8932 72.7069C43.8932 73.0069 44.0601 73.2814 44.3169 73.4346L48.1943 75.6561C48.3291 75.7327 48.4767 75.771 48.618 75.771C48.7592 75.771 48.9133 75.7327 49.0481 75.6561C49.3113 75.5029 49.4718 75.2157 49.4718 74.9093L49.4076 69.8662L53.4904 72.209V88.0404L39.7076 80.1183V64.2868V64.2932ZM78.2122 82.7292C72.1008 82.7292 67.1384 77.7883 67.1384 71.7174C67.1384 65.6466 72.1072 60.7056 78.2122 60.7056C84.3172 60.7056 89.286 65.6466 89.286 71.7174C89.286 77.7883 84.3172 82.7292 78.2122 82.7292ZM78.2122 62.1419C72.9032 62.1419 68.5893 66.4381 68.5893 71.711C68.5893 76.9839 72.9032 81.2801 78.2122 81.2801C83.5212 81.2801 87.8352 76.9903 87.8352 71.711C87.8352 66.4318 83.5148 62.1419 78.2122 62.1419ZM78.2122 79.5821C73.8469 79.5821 70.2969 76.0519 70.2969 71.711C70.2969 67.3702 73.8469 63.84 78.2122 63.84C82.5775 63.84 86.1275 67.3702 86.1275 71.711C86.1275 76.0519 82.5775 79.5821 78.2122 79.5821ZM51.8021 51.8004C57.3807 49.0044 62.9657 48.5001 68.4095 50.3003L67.2283 52.3303C67.0678 52.6048 67.0807 52.9559 67.254 53.2176C67.4145 53.4602 67.6841 53.6006 67.9666 53.6006C67.9987 53.6006 68.0308 53.6006 68.0629 53.6006L77.673 52.5154C77.9426 52.4835 78.1801 52.3303 78.3149 52.0941C78.4497 51.8579 78.4626 51.577 78.3599 51.328L74.5017 42.5122C74.3733 42.2185 74.0908 42.0206 73.7699 42.0015C73.4489 41.9823 73.1407 42.1483 72.9803 42.4228L71.6578 44.7018C64.4679 42.0462 57.4577 43.9677 50.8199 50.4343C50.5182 50.728 50.4732 51.194 50.7236 51.5387C50.9675 51.8834 51.4233 51.9919 51.8021 51.8004ZM71.7028 46.5467C72.1008 46.7063 72.5566 46.553 72.7684 46.1828L73.6094 44.7337L76.3313 50.9514L69.5522 51.7174L70.3932 50.2683C70.5216 50.0513 70.5408 49.7959 70.4574 49.5597C70.3739 49.3236 70.1942 49.1384 69.9566 49.0491C67.3118 48.0404 64.6412 47.5425 61.9514 47.5425C59.9742 47.5425 57.9906 47.817 56.0005 48.3596C61.104 44.9188 66.2718 44.3315 71.6899 46.553L71.7028 46.5467ZM77.1979 92.2026C71.6193 94.9986 66.0343 95.5029 60.5905 93.7027L61.7717 91.6727C61.9322 91.3982 61.9193 91.0471 61.746 90.7854C61.5663 90.5173 61.2517 90.3769 60.9307 90.4088L51.3206 91.494C51.051 91.5259 50.8135 91.6791 50.6787 91.9153C50.5438 92.1515 50.531 92.4324 50.6337 92.6814L54.4983 101.497C54.6267 101.791 54.9092 101.989 55.2301 102.008C55.243 102.008 55.2622 102.008 55.2751 102.008C55.5768 102.008 55.8593 101.848 56.0133 101.58L57.3358 99.3012C64.5257 101.957 71.5359 100.035 78.1737 93.5687C78.4754 93.275 78.5204 92.809 78.27 92.4643C78.0196 92.1196 77.5638 92.0111 77.1915 92.2026H77.1979ZM57.2972 97.4563C56.8992 97.2904 56.4434 97.45 56.2316 97.8202L55.3906 99.2693L52.6687 93.0516L59.4478 92.2856L58.6068 93.7347C58.4784 93.9517 58.4592 94.2071 58.5426 94.4432C58.6261 94.6794 58.8058 94.8646 59.0434 94.9539C63.6334 96.6967 68.3068 96.9265 72.9931 95.6498C67.8895 99.0905 62.7218 99.6778 57.3037 97.4563H57.2972Z" fill="black"/>
<path d="M75.6187 75.7456C75.4197 75.7456 75.2528 75.586 75.2528 75.3817V68.0341C75.2528 67.8362 75.4133 67.6702 75.6187 67.6702H78.7001C80.4912 67.6702 81.6082 68.6916 81.6082 70.3322C81.6082 71.9728 80.4912 72.9942 78.7001 72.9942H77.3905V75.3881C77.3905 75.586 77.23 75.752 77.0246 75.752H75.6123L75.6187 75.7456ZM78.6359 71.0344C79.387 71.0344 79.4769 70.6323 79.4769 70.3322C79.4769 70.0322 79.387 69.63 78.6359 69.63H77.3969V71.0344H78.6359Z" fill="black"/>
<rect x="67.5" y="93.5" width="79" height="29" fill="white" stroke="#CCCCCC"/>
<rect x="114" y="107" width="20" height="2" fill="#CCCCCC"/>
<rect x="128.414" y="101" width="10" height="2" transform="rotate(45 128.414 101)" fill="#CCCCCC"/>
<rect x="135.485" y="108.071" width="10" height="2" transform="rotate(135 135.485 108.071)" fill="#CCCCCC"/>
<path d="M88.4005 103.84C90.0105 103.84 91.2305 104.66 91.2305 106.41C91.2305 108.18 90.0105 108.98 88.4005 108.98H86.5405V112.06H84.9705V103.84H88.4005ZM86.5405 107.6H88.3205C89.1905 107.6 89.6605 107.17 89.6605 106.41C89.6605 105.65 89.1905 105.22 88.3205 105.22H86.5405V107.6ZM93.7475 112.06H92.1775V103.84H93.7475V112.06ZM98.4663 112.21C96.5563 112.21 94.8963 110.92 94.8963 108.65V107.25C94.8963 104.99 96.5463 103.69 98.4663 103.69C100.236 103.69 101.496 104.72 101.896 106.42L100.406 106.85C100.136 105.74 99.5463 105.15 98.4663 105.15C97.3863 105.15 96.4663 105.88 96.4663 107.31V108.59C96.4663 110.03 97.3863 110.75 98.4663 110.75C99.5463 110.75 100.136 110.16 100.406 109.05L101.896 109.48C101.496 111.18 100.236 112.21 98.4663 112.21ZM109.678 112.06H107.698L105.118 108.69L104.568 109.32V112.06H102.998V103.84H104.568V107.03L107.328 103.84H109.378L106.178 107.49L109.678 112.06Z" fill="black"/>
</svg>
