<svg width="376" height="160" viewBox="0 0 376 160" fill="none" xmlns="http://www.w3.org/2000/svg">
<mask id="mask0_624_26287" style="mask-type:alpha" maskUnits="userSpaceOnUse" x="0" y="0" width="377" height="160">
<path d="M188.008 15.2094C197.288 15.2094 204.964 8.72027 205.264 0.5H375.508V159.5H205.264C204.964 151.28 197.288 144.791 188.008 144.791C178.727 144.791 171.051 151.28 170.751 159.5H0.507812V0.5H170.751C171.051 8.72027 178.727 15.2094 188.008 15.2094Z" fill="white" stroke="#DDDDDD"/>
</mask>
<g mask="url(#mask0_624_26287)">
<path d="M188.008 15.2094C197.288 15.2094 204.964 8.72027 205.264 0.5H375.508V159.5H205.264C204.964 151.28 197.288 144.791 188.008 144.791C178.727 144.791 171.051 151.28 170.751 159.5H0.507812V0.5H170.751C171.051 8.72027 178.727 15.2094 188.008 15.2094Z" fill="white" stroke="#DDDDDD"/>
<rect x="188" width="188" height="160" fill="#F6AE24"/>
<line x1="188.508" y1="16" x2="188.508" y2="143" stroke="white" stroke-dasharray="5 5"/>
<path d="M314.67 126H296C294.9 126 294 125.1 294 124V80C294 78.9 294.9 78 296 78H314.26C314.97 78 315.64 78.39 315.99 79.01L319.13 84.5C319.31 84.81 319.64 85 320 85H350V112C350 112.55 350.45 113 351 113C351.55 113 352 112.55 352 112V80C352 77.79 350.21 76 348 76H296C293.79 76 292 77.79 292 80V124C292 126.21 293.79 128 296 128H314.67C315.22 128 315.67 127.55 315.67 127C315.67 126.45 315.22 126 314.67 126ZM350 80V83H320.58L317.73 78.01C317.73 78.01 317.73 78.01 317.73 78H348.01C349.11 78 350.01 78.9 350.01 80H350ZM356 138.91C356.02 139.19 355.93 139.47 355.74 139.67C355.55 139.88 355.28 139.99 355 139.99H339.04C338.49 139.99 338.04 139.54 338.04 138.99C338.04 138.44 338.49 137.99 339.04 137.99H353.91L352.08 116.99H331.91L331.56 121.08C331.51 121.63 331.03 122.04 330.48 121.99C329.93 121.94 329.52 121.46 329.57 120.91L330 115.91C330.04 115.39 330.48 115 331 115H353C353.52 115 353.95 115.4 354 115.91L356 138.91ZM333 124H319C318.5 124 318.08 124.37 318.01 124.86L316.01 138.86C315.97 139.15 316.05 139.44 316.24 139.66C316.43 139.88 316.71 140 317 140H335C335.29 140 335.57 139.87 335.76 139.66C335.95 139.44 336.04 139.15 335.99 138.86L333.99 124.86C333.92 124.37 333.5 124 333 124ZM318.15 138L319.86 126H332.13L333.84 138H318.15ZM329 130V131C329 132.65 327.65 134 326 134C324.35 134 323 132.65 323 131V130C323 129.45 323.45 129 324 129C324.55 129 325 129.45 325 130V131C325 131.55 325.45 132 326 132C326.55 132 327 131.55 327 131V130C327 129.45 327.45 129 328 129C328.55 129 329 129.45 329 130ZM339 121V123C339 124.65 340.35 126 342 126C343.65 126 345 124.65 345 123V121C345 120.45 345.45 120 346 120C346.55 120 347 120.45 347 121V123C347 125.76 344.76 128 342 128C339.24 128 337 125.76 337 123V121C337 120.45 337.45 120 338 120C338.55 120 339 120.45 339 121ZM313 83C312.45 83 312 82.55 312 82C312 81.45 312.45 81 313 81C313.55 81 314 81.45 314 82C314 82.55 313.55 83 313 83ZM305 120H321C321.55 120 322 119.55 322 119V107.85L327.16 106.99C327.43 106.95 327.66 106.79 327.82 106.57C327.97 106.35 328.03 106.07 327.98 105.81L325.98 95.81C325.92 95.51 325.72 95.25 325.45 95.11L317.45 91.11C317.34 91.06 317.15 91 317 91H309C308.87 91 308.69 91.04 308.55 91.11L300.55 95.11C300.27 95.25 300.08 95.51 300.02 95.81L298.02 105.81C297.97 106.08 298.02 106.35 298.18 106.57C298.33 106.79 298.57 106.94 298.84 106.99L304 107.85V119C304 119.55 304.45 120 305 120ZM316 93C316 94.65 314.65 96 313 96C311.35 96 310 94.65 310 93H316ZM300.18 105.18L301.88 96.67L308.05 93.58C308.35 96.06 310.44 97.99 312.99 97.99C315.54 97.99 317.64 96.06 317.93 93.58L324.1 96.67L325.8 105.18L321.98 105.82V102C321.98 101.45 321.53 101 320.98 101C320.43 101 319.98 101.45 319.98 102V118H305.98V102C305.98 101.45 305.53 101 304.98 101C304.43 101 303.98 101.45 303.98 102V105.82L300.16 105.18H300.18ZM346 92C346 91.45 345.55 91 345 91H331C330.45 91 330 91.45 330 92V98C330 98.55 330.45 99 331 99H345C345.55 99 346 98.55 346 98V92ZM344 97H332V93H344V97ZM346 103C346 103.55 345.55 104 345 104H331C330.45 104 330 103.55 330 103C330 102.45 330.45 102 331 102H345C345.55 102 346 102.45 346 103ZM346 108C346 108.55 345.55 109 345 109H331C330.45 109 330 108.55 330 108C330 107.45 330.45 107 331 107H345C345.55 107 346 107.45 346 108Z" fill="white"/>
</g>
<path d="M45.0886 130.05C45.0886 132.534 45.0943 135.018 45.0867 137.502C45.0961 135.018 45.0886 132.534 45.0886 130.05C45.0886 127.566 45.0943 125.083 45.0867 122.599C45.0961 125.083 45.0886 127.566 45.0886 130.05Z" fill="white"/>
<path d="M50.2777 121.002V138.995H53.1054V121.002H50.2777Z" fill="black"/>
<path d="M84.9281 121.002V138.995H87.0263V121.002H84.9281Z" fill="black"/>
<path d="M25.2065 121.002V138.995H27.3442V121.002H25.2065Z" fill="black"/>
<path d="M30.4031 121.002V138.995H32.5201V121.002H30.4031Z" fill="black"/>
<path d="M56.9183 121.002V138.995H59.0635V121.002H56.9183Z" fill="black"/>
<path d="M77.5524 121.002V138.995H79.6864V121.002H77.5524Z" fill="black"/>
<path d="M67.2194 121.002V138.995H69.3627V121.002H67.2194Z" fill="black"/>
<path d="M72.3671 121.002V138.995H74.5104V121.002H72.3671Z" fill="black"/>
<path d="M23.0538 121.002V138.995H24.3905V121.002H23.0538Z" fill="black"/>
<path d="M34.0524 121.002V138.995H35.4362V121.002H34.0524Z" fill="black"/>
<path d="M88.5736 130.178C88.5736 127.119 88.5811 124.059 88.5605 121.002C88.5811 124.062 88.5717 127.119 88.5717 130.178H88.5736Z" fill="black"/>
<path d="M88.5736 130.178C88.5736 127.119 88.5811 124.059 88.5623 121.002H87.7859C87.7671 127.001 87.7652 132.997 87.7859 138.995H88.5642C88.568 138.513 88.5717 138.031 88.5736 137.549C88.583 135.092 88.5755 132.635 88.5755 130.178H88.5736Z" fill="black"/>
<path d="M70.1016 129.927C70.1016 132.446 70.0959 134.964 70.1035 137.48C70.0941 134.962 70.1016 132.443 70.1016 129.927C70.1016 126.952 70.0922 123.976 70.1129 121.002C70.0922 123.978 70.1016 126.952 70.1016 129.927Z" fill="black"/>
<path d="M70.8856 121.002H70.1129C70.0922 123.978 70.1016 126.952 70.1016 129.927C70.1016 132.446 70.0959 134.964 70.1035 137.48C70.1035 137.984 70.1091 138.488 70.1128 138.993H70.8875C70.9063 132.994 70.9044 126.998 70.8875 121L70.8856 121.002Z" fill="black"/>
<path d="M61.3346 126.347C61.3346 124.569 61.3346 122.788 61.3346 121.002H60.5469C60.5506 127.001 60.5469 132.997 60.5619 138.995H61.3196C61.3384 134.78 61.3328 130.562 61.3328 126.347H61.3346Z" fill="black"/>
<path d="M76.7797 123.302C76.7797 122.535 76.7778 121.77 76.7797 121.002H76.0333V138.995H76.776C76.7835 133.764 76.7816 128.533 76.7816 123.302H76.7797Z" fill="black"/>
<path d="M66.4316 121.002H65.7134C65.704 122.365 65.7002 123.73 65.7002 125.092C65.7002 126.75 65.7021 128.408 65.7021 130.065C65.7021 132.52 65.6946 134.977 65.704 137.431C65.7059 137.952 65.7096 138.474 65.7134 138.995H66.4335C66.4504 132.997 66.4504 127.001 66.4335 121.002H66.4316Z" fill="black"/>
<path d="M81.1434 121.002C81.1359 126.514 81.1397 132.025 81.1397 137.537C81.1397 138.024 81.1416 138.508 81.1434 138.995H81.888V121.002H81.1434Z" fill="black"/>
<path d="M20.0024 121.002C20.0042 124.706 20.0024 128.412 20.0024 132.116C20.0024 134.408 19.9929 136.701 20.0118 138.995H20.7224V121.002H20.0024Z" fill="black"/>
<path d="M22.266 121.002H21.4914C21.4914 124.013 21.4914 127.023 21.4914 130.036C21.4914 133.009 21.4914 135.985 21.4914 138.995H22.2622C22.2679 132.997 22.2679 127.001 22.2641 121.002H22.266Z" fill="black"/>
<path d="M61.9795 129.93C61.9795 132.446 61.9739 134.959 61.9814 137.475C61.972 134.962 61.9795 132.446 61.9795 129.93Z" fill="black"/>
<path d="M62.7466 121.002H61.9927C61.9889 121.524 61.9851 122.048 61.9833 122.569C61.9739 125.024 61.9814 127.475 61.9814 129.93C61.9814 132.446 61.9757 134.959 61.9833 137.475C61.9833 137.982 61.9889 138.488 61.9927 138.998H62.7466C62.7654 132.999 62.7654 127.003 62.7466 121.005V121.002Z" fill="black"/>
<path d="M89.9987 121.002H89.258C89.258 127.001 89.2542 132.997 89.273 138.995H89.9875C90.0025 132.997 90.0006 127.001 89.9987 121.002Z" fill="black"/>
<path d="M56.1286 121.002H55.3766C55.3766 127.001 55.3766 132.997 55.3728 138.995H56.1455C56.1455 132.987 56.1474 126.993 56.1286 121.002Z" fill="black"/>
<path d="M53.88 121.002C53.88 124.957 53.88 128.909 53.88 132.864C53.88 134.908 53.8706 136.951 53.8875 138.995H54.6001V121.002H53.88Z" fill="black"/>
<path d="M49.5012 121.002H48.7511C48.7323 125.488 48.7379 129.974 48.7379 134.462C48.7379 135.965 48.7379 137.47 48.7379 138.995H49.5163C49.5163 132.997 49.52 127.001 49.5012 121.002Z" fill="black"/>
<path d="M47.2846 129.925C47.2846 127.5 47.2771 125.075 47.2846 122.65C47.2752 125.075 47.2846 127.5 47.2846 129.925Z" fill="black"/>
<path d="M48.0141 121.002H47.2959C47.2921 121.551 47.2865 122.099 47.2846 122.648C47.2752 125.073 47.2846 127.498 47.2846 129.923C47.2846 132.409 47.2771 134.895 47.2865 137.382C47.2883 137.918 47.2921 138.456 47.2959 138.993H48.0141C48.031 132.994 48.031 126.998 48.0141 121V121.002Z" fill="black"/>
<path d="M45.0886 130.05C45.0886 127.566 45.0943 125.083 45.0867 122.599C45.0867 122.065 45.0811 121.534 45.0773 121H44.3234C44.3046 126.998 44.3046 132.994 44.3234 138.993H45.0792C45.083 138.496 45.0867 137.999 45.0886 137.5C45.098 135.016 45.0905 132.532 45.0905 130.048L45.0886 130.05Z" fill="black"/>
<path d="M42.8645 121.002H42.1481C42.1256 124.02 42.135 127.038 42.135 130.055H42.1387C42.1387 133.036 42.1293 136.017 42.15 138.995H42.8607C42.8795 132.997 42.8795 127.001 42.8645 121.002Z" fill="black"/>
<path d="M38.4199 121.002C38.4199 126.106 38.4199 131.206 38.4199 136.309C38.4199 137.205 38.4218 138.1 38.4199 138.995H39.1625V121.002H38.418H38.4199Z" fill="black"/>
<path d="M36.9534 121.002C36.9553 124.628 36.9534 128.253 36.9534 131.878C36.9534 134.251 36.9459 136.624 36.9628 138.995H37.6735V121.002H36.9534Z" fill="black"/>
<path d="M28.8539 121.002H28.1357C28.1169 123.981 28.1244 126.959 28.1244 129.937C28.1244 132.916 28.115 135.977 28.1357 138.995H28.8539C28.8708 132.997 28.8708 127.001 28.8539 121.002Z" fill="black"/>
<path d="M82.625 121.002C82.6306 127.001 82.6287 132.997 82.6306 138.995H83.4033C83.4033 132.997 83.4052 127.001 83.4033 121.002H82.625Z" fill="black"/>
<path d="M82.8022 38L82.2802 37.4861L81.7587 38H79.3128C79.1404 38 79 37.8619 79 37.6918V31.3084C79 31.1384 79.1404 31 79.3128 31H81.7585L82.28 31.5144L82.8022 31H88.6874C88.8596 31 89 31.1384 89 31.3084V37.6918C89 37.8616 88.8599 38 88.6874 38H82.8022ZM88.3746 37.3836V31.6169H83.0612L82.2802 32.3866L81.4997 31.6169H79.6257V37.3836H81.4995L82.28 36.6134L83.061 37.3836H88.3746Z" fill="#F6AE24"/>
<path d="M88.6874 31.0424H82.8202L82.2805 31.5743L81.7408 31.0424H79.3128C79.1639 31.0424 79.043 31.1613 79.043 31.3084V37.6918C79.043 37.8387 79.1639 37.9576 79.3128 37.9576H81.7408L82.2802 37.4262L82.8199 37.9576H88.6872C88.8361 37.9576 88.9568 37.8387 88.9568 37.6918V31.3084C88.9568 31.1616 88.8364 31.0424 88.6874 31.0424ZM88.4176 37.426H83.0432L82.2802 36.6732L81.5175 37.426H79.5827V31.5743H81.5175L82.2802 32.3263L83.0432 31.5743H88.4176V37.426Z" fill="#F6AE24"/>
<path d="M82.2802 33.2127C82.108 33.2127 81.9676 33.0743 81.9676 32.9043C81.9676 32.7342 82.1077 32.5958 82.2802 32.5958C82.4527 32.5958 82.5931 32.7342 82.5931 32.9043C82.5931 33.0743 82.4527 33.2127 82.2802 33.2127Z" fill="#F6AE24"/>
<path d="M82.2802 32.6382C82.1318 32.6382 82.0106 32.7572 82.0106 32.9043C82.0106 33.0514 82.1318 33.1703 82.2802 33.1703C82.4287 33.1703 82.5501 33.0514 82.5501 32.9043C82.5501 32.7572 82.4297 32.6382 82.2802 32.6382Z" fill="#F6AE24"/>
<path d="M82.2802 34.2765C82.108 34.2765 81.9676 34.1381 81.9676 33.968C81.9676 33.798 82.1077 33.6596 82.2802 33.6596C82.4527 33.6596 82.5931 33.798 82.5931 33.968C82.5931 34.1381 82.4527 34.2765 82.2802 34.2765Z" fill="#F6AE24"/>
<path d="M82.2802 33.7022C82.1318 33.7022 82.0106 33.8211 82.0106 33.9683C82.0106 34.1154 82.1318 34.2343 82.2802 34.2343C82.4287 34.2343 82.5501 34.1151 82.5501 33.9683C82.5501 33.8214 82.4297 33.7022 82.2802 33.7022Z" fill="#F6AE24"/>
<path d="M82.2802 35.3404C82.108 35.3404 81.9676 35.2023 81.9676 35.0322C81.9676 34.8622 82.1077 34.7235 82.2802 34.7235C82.4527 34.7235 82.5931 34.8619 82.5931 35.0322C82.5931 35.2025 82.4527 35.3404 82.2802 35.3404Z" fill="#F6AE24"/>
<path d="M82.2802 34.7659C82.1318 34.7659 82.0106 34.8849 82.0106 35.0322C82.0106 35.1796 82.1318 35.298 82.2802 35.298C82.4287 35.298 82.5501 35.1789 82.5501 35.0322C82.5501 34.8856 82.4297 34.7659 82.2802 34.7659Z" fill="#F6AE24"/>
<path d="M82.2802 36.4042C82.108 36.4042 81.9676 36.266 81.9676 36.096C81.9676 35.9259 82.1077 35.7878 82.2802 35.7878C82.4527 35.7878 82.5931 35.9259 82.5931 36.096C82.5931 36.266 82.4527 36.4042 82.2802 36.4042Z" fill="#F6AE24"/>
<path d="M82.2802 35.8302C82.1318 35.8302 82.0106 35.9491 82.0106 36.096C82.0106 36.2428 82.1318 36.3618 82.2802 36.3618C82.4287 36.3618 82.5501 36.2428 82.5501 36.096C82.5501 35.9491 82.4297 35.8302 82.2802 35.8302Z" fill="#F6AE24"/>
<path d="M86.2999 36.5024C86.1846 36.5024 86.091 36.4099 86.091 36.2964V32.7041C86.091 32.5904 86.1849 32.4981 86.2999 32.4981C86.415 32.4981 86.5089 32.5906 86.5089 32.7041V36.2962C86.5089 36.4099 86.415 36.5024 86.2999 36.5024Z" fill="#F6AE24"/>
<path d="M86.4659 36.2962V32.7041C86.4659 32.6135 86.3915 32.5405 86.2999 32.5405C86.2084 32.5405 86.134 32.6138 86.134 32.7041V36.2962C86.134 36.3867 86.2084 36.4598 86.2999 36.4598C86.3915 36.4598 86.4659 36.3865 86.4659 36.2962Z" fill="#F6AE24"/>
<path d="M87.2956 36.5024C87.1803 36.5024 87.0867 36.4099 87.0867 36.2964V34.4964C87.0867 34.3827 87.1806 34.2904 87.2956 34.2904C87.4107 34.2904 87.5046 34.3829 87.5046 34.4964V36.2964C87.5046 36.4101 87.4107 36.5024 87.2956 36.5024Z" fill="#F6AE24"/>
<path d="M87.4618 36.2962V34.4961C87.4618 34.4056 87.3875 34.3326 87.2959 34.3326C87.2043 34.3326 87.13 34.4059 87.13 34.4961V36.2962C87.13 36.3867 87.2043 36.4598 87.2959 36.4598C87.3875 36.4598 87.4618 36.3865 87.4618 36.2962Z" fill="#F6AE24"/>
<path d="M85.304 36.5024C85.1887 36.5024 85.0951 36.4099 85.0951 36.2964V33.4524C85.0951 33.3387 85.1889 33.2464 85.304 33.2464C85.4191 33.2464 85.5129 33.3389 85.5129 33.4524V36.2964C85.5129 36.4101 85.4191 36.5024 85.304 36.5024Z" fill="#F6AE24"/>
<path d="M85.4702 36.2962V33.4521C85.4702 33.3616 85.3958 33.2885 85.3042 33.2885C85.2127 33.2885 85.1383 33.3618 85.1383 33.4521V36.2962C85.1383 36.3867 85.2127 36.4598 85.3042 36.4598C85.3958 36.4598 85.4702 36.3865 85.4702 36.2962Z" fill="#F6AE24"/>
<path d="M84.2924 36.5024C84.177 36.5024 84.0835 36.4099 84.0835 36.2964V32.7041C84.0835 32.5904 84.1773 32.4981 84.2924 32.4981C84.4074 32.4981 84.5013 32.5906 84.5013 32.7041V36.2962C84.5013 36.4099 84.4074 36.5024 84.2924 36.5024Z" fill="#F6AE24"/>
<path d="M84.4585 36.2962V32.7041C84.4585 32.6135 84.3842 32.5405 84.2926 32.5405C84.2011 32.5405 84.1267 32.6138 84.1267 32.7041V36.2962C84.1267 36.3867 84.2011 36.4598 84.2926 36.4598C84.3842 36.4598 84.4585 36.3865 84.4585 36.2962Z" fill="#F6AE24"/>
<path d="M247.368 59.2H240.792V58.264L244.356 54.724C245.448 53.644 245.952 52.888 245.952 51.988C245.952 51.016 245.256 50.38 244.02 50.38C242.82 50.38 242.208 51.256 241.884 52.324L240.744 52.048C241.14 50.62 242.196 49.3 244.02 49.3C245.892 49.3 247.14 50.308 247.14 51.94C247.14 53.26 246.432 54.22 245.268 55.372L242.52 58.096H247.368V59.2ZM252.524 59.38C250.58 59.38 248.996 57.988 248.996 55.276V53.392C248.996 50.704 250.58 49.3 252.524 49.3C254.468 49.3 256.064 50.704 256.064 53.392V55.276C256.064 57.988 254.468 59.38 252.524 59.38ZM252.524 58.3C253.832 58.3 254.852 57.316 254.852 55.216V53.464C254.852 51.364 253.832 50.38 252.524 50.38C251.216 50.38 250.196 51.364 250.196 53.464V55.216C250.196 57.316 251.216 58.3 252.524 58.3ZM264.231 59.2H257.655V58.264L261.219 54.724C262.311 53.644 262.815 52.888 262.815 51.988C262.815 51.016 262.119 50.38 260.883 50.38C259.683 50.38 259.071 51.256 258.747 52.324L257.607 52.048C258.003 50.62 259.059 49.3 260.883 49.3C262.755 49.3 264.003 50.308 264.003 51.94C264.003 53.26 263.295 54.22 262.131 55.372L259.383 58.096H264.231V59.2ZM269.279 52.984C271.115 52.984 272.423 54.292 272.423 56.188C272.423 58.084 271.079 59.38 269.063 59.38C267.671 59.38 266.291 58.768 265.739 57.52L266.759 56.944C267.155 57.856 268.031 58.276 269.003 58.276C270.359 58.276 271.235 57.448 271.235 56.188C271.235 54.916 270.359 54.088 269.063 54.088C268.103 54.088 267.467 54.592 267.131 55.408H266.027L266.639 49.48H272.075V50.584H267.671L267.299 53.848C267.779 53.284 268.511 52.984 269.279 52.984ZM274.771 59.38C274.315 59.38 273.943 59.02 273.943 58.564C273.943 58.108 274.315 57.736 274.771 57.736C275.227 57.736 275.587 58.108 275.587 58.564C275.587 59.02 275.227 59.38 274.771 59.38ZM280.649 59.38C278.705 59.38 277.121 57.988 277.121 55.276V53.392C277.121 50.704 278.705 49.3 280.649 49.3C282.593 49.3 284.189 50.704 284.189 53.392V55.276C284.189 57.988 282.593 59.38 280.649 59.38ZM280.649 58.3C281.957 58.3 282.977 57.316 282.977 55.216V53.464C282.977 51.364 281.957 50.38 280.649 50.38C279.341 50.38 278.321 51.364 278.321 53.464V55.216C278.321 57.316 279.341 58.3 280.649 58.3ZM292.356 59.2H285.78V58.264L289.344 54.724C290.436 53.644 290.94 52.888 290.94 51.988C290.94 51.016 290.244 50.38 289.008 50.38C287.808 50.38 287.196 51.256 286.872 52.324L285.732 52.048C286.128 50.62 287.184 49.3 289.008 49.3C290.88 49.3 292.128 50.308 292.128 51.94C292.128 53.26 291.42 54.22 290.256 55.372L287.508 58.096H292.356V59.2ZM294.716 59.38C294.26 59.38 293.888 59.02 293.888 58.564C293.888 58.108 294.26 57.736 294.716 57.736C295.172 57.736 295.532 58.108 295.532 58.564C295.532 59.02 295.172 59.38 294.716 59.38ZM300.594 59.38C298.65 59.38 297.066 57.988 297.066 55.276V53.392C297.066 50.704 298.65 49.3 300.594 49.3C302.538 49.3 304.134 50.704 304.134 53.392V55.276C304.134 57.988 302.538 59.38 300.594 59.38ZM300.594 58.3C301.902 58.3 302.922 57.316 302.922 55.216V53.464C302.922 51.364 301.902 50.38 300.594 50.38C299.286 50.38 298.266 51.364 298.266 53.464V55.216C298.266 57.316 299.286 58.3 300.594 58.3ZM309.362 59.2H308.162V51.064L305.954 52.828L305.27 51.928L308.342 49.48H309.362V59.2ZM318.886 55.492C317.734 55.492 317.05 54.34 316.282 54.34C315.634 54.34 315.346 54.808 315.118 55.348L314.074 54.94C314.398 54.004 315.142 53.188 316.174 53.188C317.338 53.188 318.01 54.34 318.79 54.34C319.426 54.34 319.714 53.908 319.954 53.332L320.998 53.74C320.674 54.664 319.918 55.492 318.886 55.492ZM328.766 59.38C326.822 59.38 325.238 57.988 325.238 55.276V53.392C325.238 50.704 326.822 49.3 328.766 49.3C330.71 49.3 332.306 50.704 332.306 53.392V55.276C332.306 57.988 330.71 59.38 328.766 59.38ZM328.766 58.3C330.074 58.3 331.094 57.316 331.094 55.216V53.464C331.094 51.364 330.074 50.38 328.766 50.38C327.458 50.38 326.438 51.364 326.438 53.464V55.216C326.438 57.316 327.458 58.3 328.766 58.3ZM340.473 59.2H333.897V58.264L337.461 54.724C338.553 53.644 339.057 52.888 339.057 51.988C339.057 51.016 338.361 50.38 337.125 50.38C335.925 50.38 335.313 51.256 334.989 52.324L333.849 52.048C334.245 50.62 335.301 49.3 337.125 49.3C338.997 49.3 340.245 50.308 340.245 51.94C340.245 53.26 339.537 54.22 338.373 55.372L335.625 58.096H340.473V59.2ZM342.833 59.38C342.377 59.38 342.005 59.02 342.005 58.564C342.005 58.108 342.377 57.736 342.833 57.736C343.289 57.736 343.649 58.108 343.649 58.564C343.649 59.02 343.289 59.38 342.833 59.38ZM351.735 59.2H345.159V58.264L348.723 54.724C349.815 53.644 350.319 52.888 350.319 51.988C350.319 51.016 349.623 50.38 348.387 50.38C347.187 50.38 346.575 51.256 346.251 52.324L345.111 52.048C345.507 50.62 346.563 49.3 348.387 49.3C350.259 49.3 351.507 50.308 351.507 51.94C351.507 53.26 350.799 54.22 349.635 55.372L346.887 58.096H351.735V59.2ZM356.891 59.38C354.839 59.38 353.363 58.3 353.363 56.536C353.363 55.516 354.023 54.616 355.223 54.16C354.131 53.716 353.639 52.9 353.639 51.952C353.639 50.272 354.995 49.3 356.891 49.3C358.787 49.3 360.155 50.272 360.155 51.952C360.155 52.9 359.663 53.716 358.571 54.16C359.759 54.616 360.431 55.516 360.431 56.536C360.431 58.3 358.967 59.38 356.891 59.38ZM356.891 53.668C358.199 53.668 358.967 52.996 358.967 52.024C358.967 51.052 358.199 50.38 356.891 50.38C355.595 50.38 354.827 51.052 354.827 52.024C354.827 52.996 355.595 53.668 356.891 53.668ZM356.891 58.3C358.367 58.3 359.231 57.568 359.231 56.5C359.231 55.456 358.331 54.7 356.891 54.7C355.463 54.7 354.551 55.456 354.551 56.5C354.551 57.568 355.427 58.3 356.891 58.3Z" fill="white"/>
<path d="M27.452 106.908H24.626V95.838L21.926 97.908L20.36 95.82L25.166 92.112H27.452V106.908ZM40.7481 106.908H30.4341V104.73L35.7081 99.51C37.0761 98.16 37.6881 97.278 37.6881 96.216C37.6881 95.154 36.9501 94.362 35.4381 94.362C34.0161 94.362 33.1881 95.406 32.8101 96.846L30.1461 96.198C30.7581 93.894 32.5221 91.842 35.4381 91.842C38.4261 91.842 40.4601 93.372 40.4601 96.09C40.4601 98.016 39.5421 99.33 37.9401 100.914L34.4481 104.334H40.7481V106.908ZM48.546 107.178C45.504 107.178 42.912 105.126 42.912 100.86V98.16C42.912 93.912 45.504 91.842 48.546 91.842C51.588 91.842 54.18 93.912 54.18 98.16V100.86C54.18 105.126 51.588 107.178 48.546 107.178ZM48.546 104.676C50.22 104.676 51.354 103.416 51.354 100.752V98.268C51.354 95.622 50.22 94.344 48.546 94.344C46.872 94.344 45.738 95.622 45.738 98.268V100.752C45.738 103.416 46.872 104.676 48.546 104.676ZM58.5557 109.968H56.2517L56.6477 103.974H59.5457L58.5557 109.968ZM67.4249 107.178C64.3829 107.178 61.7909 105.126 61.7909 100.86V98.16C61.7909 93.912 64.3829 91.842 67.4249 91.842C70.4669 91.842 73.0589 93.912 73.0589 98.16V100.86C73.0589 105.126 70.4669 107.178 67.4249 107.178ZM67.4249 104.676C69.0989 104.676 70.2329 103.416 70.2329 100.752V98.268C70.2329 95.622 69.0989 94.344 67.4249 94.344C65.7509 94.344 64.6169 95.622 64.6169 98.268V100.752C64.6169 103.416 65.7509 104.676 67.4249 104.676ZM80.8546 107.178C77.8126 107.178 75.2206 105.126 75.2206 100.86V98.16C75.2206 93.912 77.8126 91.842 80.8546 91.842C83.8966 91.842 86.4886 93.912 86.4886 98.16V100.86C86.4886 105.126 83.8966 107.178 80.8546 107.178ZM80.8546 104.676C82.5286 104.676 83.6626 103.416 83.6626 100.752V98.268C83.6626 95.622 82.5286 94.344 80.8546 94.344C79.1806 94.344 78.0466 95.622 78.0466 98.268V100.752C78.0466 103.416 79.1806 104.676 80.8546 104.676ZM94.2843 107.178C91.2423 107.178 88.6503 105.126 88.6503 100.86V98.16C88.6503 93.912 91.2423 91.842 94.2843 91.842C97.3263 91.842 99.9183 93.912 99.9183 98.16V100.86C99.9183 105.126 97.3263 107.178 94.2843 107.178ZM94.2843 104.676C95.9583 104.676 97.0923 103.416 97.0923 100.752V98.268C97.0923 95.622 95.9583 94.344 94.2843 94.344C92.6103 94.344 91.4763 95.622 91.4763 98.268V100.752C91.4763 103.416 92.6103 104.676 94.2843 104.676Z" fill="black"/>
<path d="M20.752 76.56C20.752 74.896 21.368 73.496 22.472 72.304L22.864 72.656C21.8 73.848 21.312 75.16 21.312 76.56C21.312 77.96 21.8 79.272 22.864 80.464L22.472 80.816C21.368 79.624 20.752 78.224 20.752 76.56ZM29.1823 75.704V72.816H29.7423V80.2H29.1823V76.232H28.0383V80.064H27.4783V72.936H28.0383V75.704H29.1823ZM26.5183 78.984H23.6303V73.408H26.5183V78.984ZM25.9743 73.936H24.1743V78.456H25.9743V73.936ZM34.4163 76.704V76.272H36.6563V72.816H37.2323V77.016H36.6563V76.704H34.4163ZM33.4163 75.04C32.3363 75.04 31.4883 74.672 31.4883 74.016V73.96C31.4883 73.304 32.3363 72.944 33.4163 72.944C34.4963 72.944 35.3443 73.304 35.3443 73.96V74.016C35.3443 74.672 34.4963 75.04 33.4163 75.04ZM32.0403 73.976V74C32.0403 74.344 32.6083 74.568 33.4163 74.568C34.2243 74.568 34.8003 74.344 34.8003 74V73.976C34.8003 73.64 34.2243 73.408 33.4163 73.408C32.6083 73.408 32.0403 73.64 32.0403 73.976ZM33.0483 76.008C32.8163 76.016 32.5843 76.016 32.3763 76.016H31.0883L31.0643 75.552H32.4083C33.3203 75.552 34.8003 75.472 35.9603 75.328L36.0163 75.768C35.2963 75.864 34.4323 75.944 33.6163 75.984C33.5843 76.352 33.5523 76.744 33.5123 77.112L32.9523 77.064C32.9923 76.736 33.0243 76.352 33.0483 76.008ZM32.9683 79.048V79.76H37.5443V80.24H32.4083V78.576H36.6643V77.888H32.3683V77.416H37.2323V79.048H32.9683ZM44.2502 74.4H42.4182C42.0022 75.368 40.8422 76.072 39.2022 76.536L39.0022 76.04C40.8022 75.528 41.9622 74.688 42.0102 73.736H39.1222V73.216H42.5862V73.552C42.5862 73.672 42.5782 73.792 42.5542 73.912H44.2502V72.816H44.8262V76.432H44.2502V75.712H42.3942V75.224H44.2502V74.4ZM40.6502 78.824V79.736H45.1302V80.24H40.0822V78.328H44.2502V77.448H40.0422V76.96H44.8262V78.824H40.6502ZM51.9321 80.2V72.816H52.4921V80.2H51.9321ZM49.0361 75.632H50.3401V72.936H50.8921V80.064H50.3401V76.152H49.0361V75.632ZM48.1961 73.968V74.456C48.1961 75.04 48.1401 75.592 48.0201 76.112L49.7881 78.76L49.3321 79.088L47.8201 76.824C47.5401 77.632 47.1081 78.4 46.5241 79.176L46.0841 78.824C47.0921 77.504 47.6521 76.232 47.6521 74.456V73.968H46.3401V73.448H49.5321V73.968H48.1961ZM55.7341 76.56C55.7341 78.224 55.1181 79.624 54.0141 80.816L53.6221 80.464C54.6861 79.272 55.1741 77.96 55.1741 76.56C55.1741 75.16 54.6861 73.848 53.6221 72.656L54.0141 72.304C55.1181 73.496 55.7341 74.896 55.7341 76.56Z" fill="black"/>
<path d="M28.832 54.416V52.672H31.456V49.6H33.504V57.728H31.456V54.416H28.832ZM28.944 57.712L25.104 55.312C24.336 56.304 23.168 57.168 21.6 57.952L20.64 56.304C23.152 55.008 24.208 53.68 24.304 52.016H21.232V50.224H29.392V52.016H26.288C26.272 52.608 26.176 53.168 25.984 53.696L29.936 56.032L28.944 57.712ZM26.656 58.384H30.048C32.192 58.384 33.68 59.648 33.68 61.536C33.68 63.44 32.192 64.688 30.048 64.688H26.656C24.512 64.688 23.04 63.44 23.04 61.536C23.04 59.648 24.512 58.384 26.656 58.384ZM26.944 62.864H29.76C30.992 62.864 31.632 62.32 31.632 61.52C31.632 60.736 30.992 60.192 29.76 60.192H26.944C25.712 60.192 25.088 60.736 25.088 61.52C25.088 62.32 25.712 62.864 26.944 62.864ZM46.6279 64.528V49.584H48.6759V64.528H46.6279ZM41.9879 52.56H36.6919V50.688H44.0679V52.16C44.0679 56.416 41.7319 60.096 37.5079 62.832L36.2599 61.216C40.2119 58.736 41.9879 55.392 41.9879 52.56ZM66.6965 57.312H68.9365V59.168H62.9205V64.704H60.8725V59.168H54.8565V57.312H64.6485C64.9365 55.392 65.1285 53.36 65.1285 52.208H56.3765V50.336H67.1765V51.568C67.1765 53.264 67.0005 55.328 66.6965 57.312ZM78.0924 55.312V56.624H84.1084V58.368H70.0284V56.624H76.0444V55.312H71.8204V49.872H82.1724V51.568H73.8684V53.616H82.3324V55.312H78.0924ZM80.4284 61.504H71.6764V59.616H82.4764V64.688H80.4284V61.504ZM92.3203 59.648V58.032H96.1123V49.584H98.1603V61.408H96.1123V59.648H92.3203ZM88.8963 57.168C88.5283 57.184 88.1923 57.184 87.8563 57.184H85.4403L85.3603 55.44H88.0483C89.0403 55.44 90.3363 55.392 91.6963 55.296C91.9043 54 92.0163 52.784 92.0323 51.888H86.3203V50.144H94.0163V50.944C94.0163 52.368 93.9043 53.792 93.7123 55.12L95.0563 54.976L95.2643 56.672C93.9043 56.864 92.3523 57.008 90.8803 57.088C90.8163 58 90.7203 58.944 90.6083 59.968L88.6562 59.856C88.7523 58.896 88.8323 58.032 88.8963 57.168ZM89.9043 60.448V62.672H98.7043V64.528H87.8563V60.448H89.9043Z" fill="black"/>
<path d="M24.912 37.8H20.528V37.176L22.904 34.816C23.632 34.096 23.968 33.592 23.968 32.992C23.968 32.344 23.504 31.92 22.68 31.92C21.88 31.92 21.472 32.504 21.256 33.216L20.496 33.032C20.76 32.08 21.464 31.2 22.68 31.2C23.928 31.2 24.76 31.872 24.76 32.96C24.76 33.84 24.288 34.48 23.512 35.248L21.68 37.064H24.912V37.8ZM28.3491 37.92C27.0531 37.92 25.9971 36.992 25.9971 35.184V33.928C25.9971 32.136 27.0531 31.2 28.3491 31.2C29.6451 31.2 30.7091 32.136 30.7091 33.928V35.184C30.7091 36.992 29.6451 37.92 28.3491 37.92ZM28.3491 37.2C29.2211 37.2 29.9011 36.544 29.9011 35.144V33.976C29.9011 32.576 29.2211 31.92 28.3491 31.92C27.4771 31.92 26.7971 32.576 26.7971 33.976V35.144C26.7971 36.544 27.4771 37.2 28.3491 37.2ZM36.1542 37.8H31.7702V37.176L34.1462 34.816C34.8742 34.096 35.2102 33.592 35.2102 32.992C35.2102 32.344 34.7462 31.92 33.9222 31.92C33.1222 31.92 32.7142 32.504 32.4982 33.216L31.7382 33.032C32.0022 32.08 32.7062 31.2 33.9222 31.2C35.1702 31.2 36.0022 31.872 36.0022 32.96C36.0022 33.84 35.5302 34.48 34.7542 35.248L32.9222 37.064H36.1542V37.8ZM39.5193 33.656C40.7433 33.656 41.6153 34.528 41.6153 35.792C41.6153 37.056 40.7193 37.92 39.3753 37.92C38.4473 37.92 37.5273 37.512 37.1593 36.68L37.8393 36.296C38.1033 36.904 38.6873 37.184 39.3353 37.184C40.2393 37.184 40.8233 36.632 40.8233 35.792C40.8233 34.944 40.2393 34.392 39.3753 34.392C38.7353 34.392 38.3113 34.728 38.0873 35.272H37.3513L37.7593 31.32H41.3833V32.056H38.4473L38.1993 34.232C38.5193 33.856 39.0073 33.656 39.5193 33.656Z" fill="black"/>
<path d="M44.3258 36.24L45.1978 35.808C45.5178 36.568 46.1658 37.008 47.0218 37.008C47.8698 37.008 48.3978 36.688 48.3978 36.104C48.3978 35.568 48.0538 35.312 47.4298 35.136L46.4698 34.872C45.6058 34.632 44.6938 34.152 44.6938 33.016C44.6938 31.872 45.6698 31.176 46.9418 31.176C48.1738 31.176 49.0298 31.888 49.3818 32.744L48.5178 33.176C48.2298 32.568 47.7098 32.112 46.9418 32.112C46.1658 32.112 45.7098 32.448 45.7098 33.016C45.7098 33.576 46.1418 33.8 46.7018 33.952L47.6378 34.208C48.5098 34.448 49.4138 34.952 49.4138 36.104C49.4138 37.264 48.3578 37.944 47.0218 37.944C45.7098 37.944 44.7418 37.304 44.3258 36.24ZM52.9266 31.296C54.2946 31.296 55.1986 31.976 55.1986 33.304C55.1986 34.648 54.2946 35.32 52.9266 35.32H51.3506V37.824H50.3186V31.296H52.9266ZM51.3506 34.408H52.8706C53.7266 34.408 54.1666 34.024 54.1666 33.304C54.1666 32.584 53.7266 32.208 52.8706 32.208H51.3506V34.408ZM59.6297 35.024L61.0777 37.824H59.9337L58.6537 35.168H58.6377H57.0537V37.824H56.0217V31.296H58.6377C60.0057 31.296 60.9097 31.952 60.9097 33.224C60.9097 34.168 60.4297 34.776 59.6297 35.024ZM58.5657 32.208H57.0537V34.256H58.5657C59.4137 34.256 59.8777 33.896 59.8777 33.224C59.8777 32.56 59.4137 32.208 58.5657 32.208ZM62.9756 37.824H61.9436V31.296H62.9756V37.824ZM65.1705 37.824H64.1545V31.296H65.1465L68.3705 36.048V31.296H69.3865V37.824H68.3945L65.1705 33.072V37.824ZM73.0979 37.944C71.5939 37.944 70.3139 36.92 70.3139 35.136V33.984C70.3139 32.2 71.5859 31.176 73.0979 31.176C74.4659 31.176 75.4099 31.904 75.7379 33.2L74.7619 33.488C74.5139 32.568 74.0099 32.136 73.0979 32.136C72.1379 32.136 71.3459 32.776 71.3459 34.04V35.08C71.3459 36.344 72.1379 36.984 73.0979 36.984C74.2899 36.984 74.7459 36.176 74.7459 35.448V35.28H73.1379V34.384H75.7699V35.312C75.7699 37.096 74.5219 37.944 73.0979 37.944Z" fill="#F6AE24"/>
</svg>
