<svg width="13" height="16" viewBox="0 0 13 16" fill="none" xmlns="http://www.w3.org/2000/svg">
<path d="M10.5436 3.89932C10.2224 4.16279 10.1657 4.63326 10.4113 4.95319C11.1105 5.83769 11.4695 6.89156 11.4695 8.00188C11.4695 10.7307 9.23983 12.9513 6.5 12.9513C6.36773 12.9513 6.23546 12.9513 6.1032 12.9325L6.36773 12.669C6.67006 12.3867 6.67006 11.8974 6.38663 11.5963C6.1032 11.2952 5.61192 11.2952 5.30959 11.5775L3.30669 13.5723L5.2907 15.7554C5.44186 15.9247 5.64971 16 5.85756 16C6.04651 16 6.21657 15.9435 6.36773 15.8118C6.67006 15.5295 6.70785 15.059 6.42442 14.7391L6.15988 14.4568C6.27326 14.4568 6.40552 14.4757 6.51889 14.4757C10.0901 14.4757 13 11.5775 13 8.0207C13 6.55281 12.5276 5.17902 11.6206 4.03105C11.3561 3.69231 10.8648 3.63585 10.5436 3.89932Z" fill="black"/>
<path d="M1.96512 12.1985C2.11628 12.1985 2.28634 12.1421 2.4186 12.048C2.75872 11.8033 2.81541 11.3329 2.56977 10.9941C1.90843 10.1284 1.54942 9.0934 1.54942 8.00189C1.54942 5.27312 3.77907 3.05247 6.51889 3.05247C6.63227 3.05247 6.74564 3.05247 6.84012 3.07129L6.59448 3.31593C6.29215 3.59822 6.29215 4.08752 6.57558 4.38862C6.72674 4.53918 6.9157 4.61445 7.12355 4.61445C7.3125 4.61445 7.50145 4.53918 7.65262 4.40744L9.67442 2.43144L7.67151 0.24842C7.38808 -0.0526858 6.9157 -0.090324 6.59448 0.191963C6.29215 0.474249 6.25436 0.944727 6.53779 1.26465L6.80233 1.56576H6.4811C2.90988 1.56576 0 4.4639 0 8.02071C0 9.45096 0.453488 10.7871 1.32267 11.9351C1.51163 12.1045 1.73837 12.1985 1.96512 12.1985Z" fill="black"/>
</svg>
