<svg width="29" height="25" viewBox="0 0 29 25" fill="none" xmlns="http://www.w3.org/2000/svg">
<path d="M14.2074 0.0221581C13.9374 0.0421581 13.6674 0.142157 13.4574 0.322157L0.417383 11.6722C-0.0826169 12.1022 -0.142618 12.9522 0.287382 13.4522C0.717382 13.9522 1.56738 14.0122 2.06738 13.5722L14.2674 2.95216L26.0574 13.5522C26.5474 14.0222 27.4174 13.9822 27.8674 13.4822C28.3174 12.9822 28.2574 12.1122 27.7374 11.6722L15.1174 0.322157C14.8674 0.102157 14.5274 -0.0178423 14.1974 0.00215767L14.2074 0.0221581ZM23.1174 11.4922V22.3022H18.4874V15.5722H9.71738C9.69738 17.8122 9.66738 20.0522 9.63738 22.3022H5.02738V11.5522L2.50738 13.7622V24.8222H12.1374C12.1574 22.5822 12.1874 20.3422 12.2174 18.0922H15.9674V24.8222H25.6374V13.7622C24.7974 13.0022 23.9574 12.2422 23.1174 11.4922Z" fill="#555555"/>
</svg>
