<svg width="26" height="26" viewBox="0 0 26 26" fill="none" xmlns="http://www.w3.org/2000/svg">
<path d="M25.7644 9.18125L22.75 6.16687V3.03063C22.75 1.35688 21.3931 0 19.7194 0H4.65562C2.98187 0 1.625 1.35688 1.625 3.03063V4.875H0.8125C0.365625 4.875 0 5.24062 0 5.6875C0 6.13438 0.365625 6.5 0.8125 6.5H1.625V9.75H0.8125C0.365625 9.75 0 10.1156 0 10.5625C0 11.0094 0.365625 11.375 0.8125 11.375H1.625V14.625H0.8125C0.365625 14.625 0 14.9906 0 15.4375C0 15.8844 0.365625 16.25 0.8125 16.25H1.625V19.5H0.8125C0.365625 19.5 0 19.8656 0 20.3125C0 20.7594 0.365625 21.125 0.8125 21.125H1.625V22.9694C1.625 24.6431 2.98187 26 4.65562 26H19.7194C21.3931 26 22.75 24.6431 22.75 22.9694V13.3331L25.7644 10.3187C26.0812 10.0019 26.0812 9.49 25.7644 9.17313V9.18125ZM21.125 22.9775C21.125 23.7494 20.4994 24.3831 19.7194 24.3831H4.65562C3.88375 24.3831 3.25 23.7575 3.25 22.9775V21.1331H4.0625C4.50938 21.1331 4.875 20.7675 4.875 20.3206C4.875 19.8738 4.50938 19.5081 4.0625 19.5081H3.25V16.2581H4.0625C4.50938 16.2581 4.875 15.8925 4.875 15.4456C4.875 14.9988 4.50938 14.6331 4.0625 14.6331H3.25V11.3831H4.0625C4.50938 11.3831 4.875 11.0175 4.875 10.5706C4.875 10.1238 4.50938 9.75813 4.0625 9.75813H3.25V6.50813H4.0625C4.50938 6.50813 4.875 6.1425 4.875 5.69563C4.875 5.24875 4.50938 4.88313 4.0625 4.88313H3.25V3.03875C3.25 2.26688 3.87562 1.63312 4.65562 1.63312H19.7194C20.4913 1.63312 21.125 2.25875 21.125 3.03875V6.175L11.6106 15.6894C11.4563 15.8438 11.375 16.0469 11.375 16.2663V19.5163C11.375 19.9631 11.7406 20.3288 12.1875 20.3288H15.4375C15.6569 20.3288 15.86 20.2394 16.0144 20.0931L21.125 14.9825V22.9938V22.9775ZM15.0962 18.6956H12.9919V16.5912L19.8981 9.685L22.0025 11.7894L15.0962 18.6956ZM23.1562 10.6438L21.0519 8.53938L21.9375 7.65375L24.0419 9.75813L23.1562 10.6438Z" fill="#555555"/>
<path d="M8.125 6.50812H17.0625C17.5094 6.50812 17.875 6.1425 17.875 5.69562C17.875 5.24875 17.5094 4.88312 17.0625 4.88312H8.125C7.67812 4.88312 7.3125 5.24875 7.3125 5.69562C7.3125 6.1425 7.67812 6.50812 8.125 6.50812Z" fill="#555555"/>
<path d="M8.125 9.75813H13.8125C14.2594 9.75813 14.625 9.3925 14.625 8.94563C14.625 8.49875 14.2594 8.13313 13.8125 8.13313H8.125C7.67812 8.13313 7.3125 8.49875 7.3125 8.94563C7.3125 9.3925 7.67812 9.75813 8.125 9.75813Z" fill="#555555"/>
<path d="M10.5625 11.3831H8.125C7.67812 11.3831 7.3125 11.7488 7.3125 12.1956C7.3125 12.6425 7.67812 13.0081 8.125 13.0081H10.5625C11.0094 13.0081 11.375 12.6425 11.375 12.1956C11.375 11.7488 11.0094 11.3831 10.5625 11.3831Z" fill="#555555"/>
</svg>
