<svg width="16" height="16" viewBox="0 0 16 16" fill="none" xmlns="http://www.w3.org/2000/svg">
<path d="M11.4459 8.50066C11.8109 7.71727 11.9993 6.86387 12.0009 6.00047C12.0009 2.68688 9.31406 0 6.00047 0C2.68688 0 0 2.68688 0 6.00047C0 9.31406 2.68688 12.0009 6.00047 12.0009C6.86387 12.0009 7.71727 11.8109 8.50066 11.4459L12.4493 15.3912C13.261 16.2029 14.5795 16.2029 15.3912 15.3912C16.2029 14.5795 16.2029 13.261 15.3912 12.4493L11.4459 8.50066ZM1.33344 6.00047C1.33344 3.4236 3.4236 1.33344 6.00047 1.33344C8.57734 1.33344 10.6675 3.4236 10.6675 6.00047C10.6675 8.57734 8.57734 10.6675 6.00047 10.6675C3.4236 10.6675 1.33344 8.57734 1.33344 6.00047ZM13.9211 14.6678C13.7227 14.6678 13.5311 14.5895 13.391 14.4495L9.67576 10.7325C10.0708 10.4258 10.4258 10.0708 10.7325 9.67576L14.4495 13.391C14.5878 13.5311 14.6661 13.7211 14.6678 13.9194C14.6678 14.3328 14.3345 14.6661 13.9211 14.6678Z" fill="black"/>
</svg>
