<svg width="27" height="24" viewBox="0 0 27 24" fill="none" xmlns="http://www.w3.org/2000/svg">
<path d="M1.07878 23.9963C0.485832 23.9963 0 23.5296 0 22.9517V4.29326C0 3.7191 0.482006 3.24866 1.07878 3.24866H8.33565C8.92859 3.24866 9.41442 3.71539 9.41442 4.29326C9.41442 4.87113 8.93242 5.33787 8.33565 5.33787H2.15373V21.9145H17.9719V17.8065C17.9719 17.2323 18.454 16.7619 19.0507 16.7619C19.6475 16.7619 20.1295 17.2286 20.1295 17.8065V22.9554C20.1295 23.5296 19.6475 24 19.0507 24H1.07878V23.9963Z" fill="black"/>
<path d="M12.6469 21.1144C12.5016 21.1144 12.36 21.0847 12.2223 21.0292C7.90337 19.2252 5.92944 14.643 7.42137 9.883C8.7947 5.51566 12.1534 3.30421 17.4058 3.30421H17.7692V1.04461C17.7692 0.622318 18.0293 0.244482 18.431 0.081494C18.5649 0.0296342 18.7064 0 18.848 0C19.1311 0 19.3988 0.10372 19.6016 0.296342L26.6748 6.97885C26.8814 7.17518 27 7.44559 27 7.72712C27 8.00864 26.8814 8.27905 26.6748 8.47538L19.6016 15.1616C19.3988 15.3505 19.1311 15.4579 18.848 15.4579C18.7064 15.4579 18.5649 15.432 18.4348 15.3764C18.0332 15.2135 17.773 14.8393 17.773 14.417L17.7654 11.9833C17.5511 11.9574 17.3369 11.9463 17.1303 11.9463C16.0363 11.9463 15.0914 12.2834 14.3186 12.9501C13.0639 14.0318 12.5398 15.7469 12.6852 16.8137C12.8879 18.288 13.565 19.5178 13.5956 19.5697C13.8175 19.9623 13.7601 20.4476 13.4503 20.7736C13.2475 20.9921 12.9568 21.1144 12.6508 21.1144H12.6469ZM17.4058 5.38972C13.1557 5.38972 10.5621 7.05664 9.48328 10.4905C8.68759 13.0242 9.10074 15.5061 10.5735 17.2804C10.5621 17.2138 10.5544 17.1508 10.5429 17.0878C10.3249 15.5024 10.9637 13.0427 12.8803 11.3906C13.6951 10.6905 15.0876 9.85337 17.0959 9.85337C17.7386 9.85337 18.4119 9.93857 19.1005 10.1053C19.5786 10.2238 19.9114 10.6387 19.9114 11.1165V11.9426L24.3719 7.72712L19.9191 3.51906V4.34511C19.9191 4.91928 19.4371 5.38972 18.8403 5.38972C18.8212 5.38972 18.7982 5.38972 18.7791 5.38972H17.402H17.4058Z" fill="black"/>
</svg>
