<svg width="20" height="18" viewBox="0 0 20 18" fill="none" xmlns="http://www.w3.org/2000/svg">
<path d="M19.4521 1.61703L18.9875 1.4586C17.1458 0.82683 15.4167 0.230268 13.4312 0.0053347C13.0396 -0.037696 12.6708 0.183325 12.5458 0.533439C12.225 1.41166 11.125 2.35246 10 2.35246C8.875 2.35246 7.775 1.41166 7.45417 0.533439C7.32917 0.183325 6.96042 -0.037696 6.56875 0.0053347C4.58333 0.230268 2.85417 0.82683 1.0125 1.4586L0.547917 1.61703C0.21875 1.72852 0 2.02191 0 2.35246V7.8291C0 8.26136 0.372917 8.61148 0.833333 8.61148H4.16667V13.3057C4.16667 13.738 4.53958 14.0881 5 14.0881C5.46042 14.0881 5.83333 13.738 5.83333 13.3057V7.8291C5.83333 7.39684 5.46042 7.04672 5 7.04672H1.66667V2.90013C3.18542 2.37789 4.63125 1.88695 6.16042 1.64637C6.92708 2.97641 8.47083 3.91722 10 3.91722C11.5292 3.91722 13.0729 2.97641 13.8396 1.64637C15.3687 1.88695 16.8146 2.37789 18.3333 2.90013V7.04672H15C14.5396 7.04672 14.1667 7.39684 14.1667 7.8291V13.3057C14.1667 13.738 14.5396 14.0881 15 14.0881C15.4604 14.0881 15.8333 13.738 15.8333 13.3057V8.61148H19.1667C19.6271 8.61148 20 8.26136 20 7.8291V2.35246C20 2.02387 19.7812 1.73048 19.4521 1.61703Z" fill="black"/>
<path d="M19.1667 14.8705C18.0354 14.8705 17.45 15.469 17.0229 15.9052C16.6667 16.2827 16.4917 16.4352 16.1083 16.4352C15.725 16.4352 15.5604 16.2827 15.1917 15.9052C14.775 15.469 14.1792 14.8705 13.0479 14.8705C11.9167 14.8705 11.3333 15.469 10.9062 15.9071C10.5396 16.2827 10.375 16.4352 10 16.4352C9.625 16.4352 9.45417 16.2827 9.0875 15.9071C8.65417 15.469 8.07083 14.8705 6.93958 14.8705C5.80833 14.8705 5.225 15.469 4.79167 15.9071C4.425 16.2827 4.26042 16.4352 3.87917 16.4352C3.49792 16.4352 3.33333 16.2827 2.96667 15.9071C2.54792 15.469 1.96458 14.8705 0.833333 14.8705C0.372917 14.8705 0 15.2206 0 15.6529C0 16.0851 0.372917 16.4352 0.833333 16.4352C1.21458 16.4352 1.37917 16.5878 1.74583 16.9634C2.1625 17.4015 2.75625 18 3.8875 18C5.01875 18 5.60208 17.4015 6.02917 16.9634C6.39583 16.5878 6.55833 16.4352 6.93958 16.4352C7.32083 16.4352 7.48542 16.5878 7.85208 16.9634C8.27917 17.4015 8.86458 18 10 18C11.1354 18 11.7146 17.4015 12.1417 16.9634C12.5 16.5878 12.6667 16.4352 13.0479 16.4352C13.4292 16.4352 13.5958 16.5878 13.9646 16.9634C14.3812 17.4015 14.9771 18 16.1083 18C17.2396 18 17.8229 17.4015 18.2521 16.9634C18.6187 16.5878 18.7833 16.4352 19.1667 16.4352C19.6271 16.4352 20 16.0851 20 15.6529C20 15.2206 19.6271 14.8705 19.1667 14.8705Z" fill="black"/>
</svg>
