<svg width="57" height="57" viewBox="0 0 57 57" fill="none" xmlns="http://www.w3.org/2000/svg">
<path d="M28.43 56.86C44.1315 56.86 56.86 44.1315 56.86 28.43C56.86 12.7285 44.1315 0 28.43 0C12.7285 0 0 12.7285 0 28.43C0 44.1315 12.7285 56.86 28.43 56.86Z" fill="#FCE600"/>
<path d="M28.43 17.29C22.09 17.29 16.96 21.46 16.96 26.6C16.96 29.78 18.93 32.59 21.93 34.27L20.13 39.57L26.47 35.77C27.11 35.86 27.77 35.92 28.44 35.92C34.78 35.92 39.92 31.75 39.92 26.61C39.92 21.47 34.78 17.3 28.44 17.3L28.43 17.29Z" fill="#020302"/>
</svg>
