<svg width="64" height="64" viewBox="0 0 64 64" fill="none" xmlns="http://www.w3.org/2000/svg">
<path d="M22.67 50H4C2.9 50 2 49.1 2 48V4C2 2.9 2.9 2 4 2H22.26C22.97 2 23.64 2.39 23.99 3.01L27.13 8.5C27.31 8.81 27.64 9 28 9H58V36C58 36.55 58.45 37 59 37C59.55 37 60 36.55 60 36V4C60 1.79 58.21 0 56 0H4C1.79 0 0 1.79 0 4V48C0 50.21 1.79 52 4 52H22.67C23.22 52 23.67 51.55 23.67 51C23.67 50.45 23.22 50 22.67 50ZM58 4V7H28.58L25.73 2.01C25.73 2.01 25.73 2.01 25.73 2H56.01C57.11 2 58.01 2.9 58.01 4H58ZM64 62.91C64.02 63.19 63.93 63.47 63.74 63.67C63.55 63.88 63.28 63.99 63 63.99H47.04C46.49 63.99 46.04 63.54 46.04 62.99C46.04 62.44 46.49 61.99 47.04 61.99H61.91L60.08 40.99H39.91L39.56 45.08C39.51 45.63 39.03 46.04 38.48 45.99C37.93 45.94 37.52 45.46 37.57 44.91L38 39.91C38.04 39.39 38.48 39 39 39H61C61.52 39 61.95 39.4 62 39.91L64 62.91ZM41 48H27C26.5 48 26.08 48.37 26.01 48.86L24.01 62.86C23.97 63.15 24.05 63.44 24.24 63.66C24.43 63.88 24.71 64 25 64H43C43.29 64 43.57 63.87 43.76 63.66C43.95 63.44 44.04 63.15 43.99 62.86L41.99 48.86C41.92 48.37 41.5 48 41 48ZM26.15 62L27.86 50H40.13L41.84 62H26.15ZM37 54V55C37 56.65 35.65 58 34 58C32.35 58 31 56.65 31 55V54C31 53.45 31.45 53 32 53C32.55 53 33 53.45 33 54V55C33 55.55 33.45 56 34 56C34.55 56 35 55.55 35 55V54C35 53.45 35.45 53 36 53C36.55 53 37 53.45 37 54ZM47 45V47C47 48.65 48.35 50 50 50C51.65 50 53 48.65 53 47V45C53 44.45 53.45 44 54 44C54.55 44 55 44.45 55 45V47C55 49.76 52.76 52 50 52C47.24 52 45 49.76 45 47V45C45 44.45 45.45 44 46 44C46.55 44 47 44.45 47 45ZM21 7C20.45 7 20 6.55 20 6C20 5.45 20.45 5 21 5C21.55 5 22 5.45 22 6C22 6.55 21.55 7 21 7ZM13 44H29C29.55 44 30 43.55 30 43V31.85L35.16 30.99C35.43 30.95 35.66 30.79 35.82 30.57C35.97 30.35 36.03 30.07 35.98 29.81L33.98 19.81C33.92 19.51 33.72 19.25 33.45 19.11L25.45 15.11C25.34 15.06 25.15 15 25 15H17C16.87 15 16.69 15.04 16.55 15.11L8.55 19.11C8.27 19.25 8.08 19.51 8.02 19.81L6.02 29.81C5.97 30.08 6.02 30.35 6.18 30.57C6.33 30.79 6.57 30.94 6.84 30.99L12 31.85V43C12 43.55 12.45 44 13 44ZM24 17C24 18.65 22.65 20 21 20C19.35 20 18 18.65 18 17H24ZM8.18 29.18L9.88 20.67L16.05 17.58C16.35 20.06 18.44 21.99 20.99 21.99C23.54 21.99 25.64 20.06 25.93 17.58L32.1 20.67L33.8 29.18L29.98 29.82V26C29.98 25.45 29.53 25 28.98 25C28.43 25 27.98 25.45 27.98 26V42H13.98V26C13.98 25.45 13.53 25 12.98 25C12.43 25 11.98 25.45 11.98 26V29.82L8.16 29.18H8.18ZM54 16C54 15.45 53.55 15 53 15H39C38.45 15 38 15.45 38 16V22C38 22.55 38.45 23 39 23H53C53.55 23 54 22.55 54 22V16ZM52 21H40V17H52V21ZM54 27C54 27.55 53.55 28 53 28H39C38.45 28 38 27.55 38 27C38 26.45 38.45 26 39 26H53C53.55 26 54 26.45 54 27ZM54 32C54 32.55 53.55 33 53 33H39C38.45 33 38 32.55 38 32C38 31.45 38.45 31 39 31H53C53.55 31 54 31.45 54 32Z" fill="#CCCCCC"/>
</svg>
