<svg width="26" height="24" viewBox="0 0 26 24" fill="none" xmlns="http://www.w3.org/2000/svg">
<path d="M3.25 17.7391C4.5175 17.7365 5.66854 17.0243 6.19667 15.913L8.68833 16.5991C8.6775 16.6304 8.67208 16.6617 8.66667 16.6957V20.3478C8.66667 22.3643 10.3648 24 12.4583 24C14.5519 24 16.25 22.3643 16.25 20.3478V18.6757L19.5 19.5652V19.8261C19.5 21.5557 20.9544 22.9565 22.75 22.9565C24.5456 22.9565 26 21.5557 26 19.8261V3.13043C26 1.40087 24.5456 0 22.75 0C20.9544 0 19.5 1.40087 19.5 3.13043V3.3913L6.19667 7.04348C5.43833 5.47565 3.50729 4.79739 1.87958 5.52522C0.739375 6.03652 0.00541667 7.13739 0 8.34783V14.6087C0 16.3383 1.45438 17.7391 3.25 17.7391ZM14.0833 20.3478C14.0833 21.2113 13.3548 21.913 12.4583 21.913C11.5619 21.913 10.8333 21.2113 10.8333 20.3478V17.1835L14.0833 18.0783V20.3478ZM21.6667 3.13043C21.6667 2.55391 22.1515 2.08696 22.75 2.08696C23.3485 2.08696 23.8333 2.55391 23.8333 3.13043V19.8261C23.8333 20.4026 23.3485 20.8696 22.75 20.8696C22.1515 20.8696 21.6667 20.4026 21.6667 19.8261V3.13043ZM19.5 17.4L6.5 13.8261V9.13043L19.5 5.55652V17.4ZM2.16667 8.34783C2.16667 7.7713 2.65146 7.30435 3.25 7.30435C3.84854 7.30435 4.33333 7.7713 4.33333 8.34783V14.6087C4.33333 15.1852 3.84854 15.6522 3.25 15.6522C2.65146 15.6522 2.16667 15.1852 2.16667 14.6087V8.34783Z" fill="black"/>
</svg>
