<svg width="26" height="24" viewBox="0 0 26 24" fill="none" xmlns="http://www.w3.org/2000/svg">
<path d="M25.6024 10.0636L13.6857 0.245455C13.2876 -0.0818182 12.7134 -0.0818182 12.3153 0.245455L0.398654 10.0636C-0.0644706 10.4455 -0.134887 11.1327 0.244279 11.5991C0.623446 12.0655 1.30595 12.1364 1.76907 11.7545L3.25053 10.5327V20.7273C3.25053 22.5355 4.7049 24 6.50053 24H19.5005C21.2962 24 22.7505 22.5355 22.7505 20.7273V10.5327L24.232 11.7545C24.6951 12.1364 25.3776 12.0655 25.7568 11.5991C26.1359 11.1327 26.0655 10.4455 25.6024 10.0636ZM10.8339 21.8182V16.3636C10.8339 15.7609 11.3187 15.2727 11.9172 15.2727H14.0839C14.6824 15.2727 15.1672 15.7609 15.1672 16.3636V21.8182H10.8339ZM20.5839 20.7273C20.5839 21.33 20.0991 21.8182 19.5005 21.8182H17.3339V16.3636C17.3339 14.5555 15.8795 13.0909 14.0839 13.0909H11.9172C10.1216 13.0909 8.6672 14.5555 8.6672 16.3636V21.8182H6.50053C5.90199 21.8182 5.4172 21.33 5.4172 20.7273V8.74909L13.0005 2.50091L20.5839 8.74909V20.7273Z" fill="black"/>
</svg>
