<?xml version="1.0" encoding="utf-8"?>
<!-- Svg Vector Icons : http://www.onlinewebfonts.com/icon -->
<!DOCTYPE svg PUBLIC "-//W3C//DTD SVG 1.1//EN" "http://www.w3.org/Graphics/SVG/1.1/DTD/svg11.dtd">
<svg version="1.1" xmlns="http://www.w3.org/2000/svg" xmlns:xlink="http://www.w3.org/1999/xlink" x="0px" y="0px" viewBox="0 0 256 256" enable-background="new 0 0 256 256" xml:space="preserve">
<metadata> Svg Vector Icons : http://www.onlinewebfonts.com/icon </metadata>
<g><g><path fill="#000000" d="M243.1,229.2l-31.5-31.5l-0.1,0.1L177.8,164l-14.3-0.2c-0.3,0.3-0.5,0.6-0.7,0.9c-14.1,13.6-33.4,22-54.5,22c-43.4,0-78.6-35.2-78.6-78.5c0-43.4,35.2-78.5,78.6-78.5c43.4,0,78.6,35.2,78.6,78.5c0,7.2-1,14.2-2.8,20.8c-1,1.2-1.8,2.7-2.3,4.4l-0.2,1c-1.6,5.9,1.8,12,7.6,13.5c3.9,1,7.9-0.3,10.6-3.1l0.1,0.1c0-0.1,0.1-0.2,0.1-0.3c1.1-1.3,2-2.8,2.5-4.6l0.2-1c0.3-1.1,0.4-2.1,0.4-3.2c2.5-8.7,3.9-17.9,3.9-27.4c0-54.3-44.1-98.3-98.4-98.3C54.1,10,10,54,10,108.3c0,54.3,44.1,98.3,98.4,98.3c23.6,0,45.2-8.3,62.2-22.1l58.6,58.6c3.8,3.8,10.1,3.8,13.9,0C247,239.3,247,233.1,243.1,229.2z"/></g></g>
</svg>