<svg width="160" height="160" viewBox="0 0 160 160" fill="none" xmlns="http://www.w3.org/2000/svg">
<g clip-path="url(#clip0_948_367)">
<rect width="160" height="160" fill="white"/>
<rect width="160" height="160" rx="20" fill="#F6AE24"/>
<path fill-rule="evenodd" clip-rule="evenodd" d="M114.07 125.608C113.084 125.608 112.147 125.214 111.457 124.524C110.767 123.834 110.372 122.898 110.372 121.912V112.056C110.372 109.1 109.189 106.291 107.119 104.221C105.048 102.151 102.238 100.968 99.2802 100.968C93.1672 100.968 88.188 105.946 88.188 112.056C88.188 113.042 87.7936 113.978 87.1035 114.668C86.4133 115.358 85.4766 115.752 84.4906 115.752C83.5047 115.752 82.568 115.358 81.8778 114.668C81.1876 113.978 80.7932 113.042 80.7932 112.056V87.4167C80.7932 85.3962 79.1171 83.7207 77.0958 83.7207C75.0746 83.7207 73.3984 85.3962 73.3984 87.4167V112.056C73.3984 115.013 74.5816 117.822 76.6521 119.892C78.7227 121.961 81.5327 123.144 84.4906 123.144C87.4486 123.144 90.2586 121.961 92.3291 119.892C94.3997 117.822 95.5828 115.013 95.5828 112.056C95.5828 109.987 97.259 108.36 99.2802 108.36C100.266 108.36 101.203 108.755 101.893 109.445C102.583 110.134 102.978 111.071 102.978 112.056V121.912C102.978 124.869 104.161 127.678 106.231 129.748C108.302 131.817 111.112 133 114.07 133C120.183 133 125.162 128.023 125.162 121.912V62.777C125.162 60.7566 123.486 59.0811 121.465 59.0811C119.443 59.0811 117.767 60.7566 117.767 62.777V121.912C117.767 123.933 116.091 125.608 114.07 125.608Z" fill="#FFC65A"/>
<path fill-rule="evenodd" clip-rule="evenodd" d="M37.854 115.161C40.3189 117.625 43.3755 118.906 45.939 119.054C48.256 119.153 50.3266 118.413 51.8055 116.935L81.434 87.3182C82.8637 85.8891 82.8637 83.5237 81.434 82.0946L70.9827 71.6474C69.5531 70.2183 67.1867 70.2183 65.7571 71.6474C65.7571 71.6474 44.6572 92.7389 36.1286 101.264C34.6496 102.743 33.9101 104.812 34.0087 107.129C34.1566 109.691 35.4384 112.746 37.9033 115.21L37.854 115.161ZM41.4035 106.389L68.3699 79.4335L73.5955 84.6571L46.6292 111.613C46.6292 111.613 46.1362 111.613 45.939 111.613C45.0023 111.416 43.967 110.824 43.129 109.937C42.2416 109.05 41.65 108.065 41.4528 107.129C41.4528 106.882 41.4528 106.488 41.4528 106.389H41.4035Z" fill="white"/>
<path fill-rule="evenodd" clip-rule="evenodd" d="M122.4 67.2119C124.717 64.8958 125.998 61.7912 125.998 58.4895C125.998 55.1878 124.717 52.0832 122.4 49.7671C116.878 44.2478 108.744 36.1167 103.222 30.5974C100.905 28.2813 97.7996 27 94.4965 27C91.1935 27 88.0877 28.2813 85.7707 30.5974C83.4536 32.9135 82.1719 36.0181 82.1719 39.3198C82.1719 42.6215 83.4536 45.7261 85.7707 48.0423C91.2921 53.5616 99.4264 61.6926 104.948 67.2119C107.265 69.5281 110.371 70.8093 113.674 70.8093C116.977 70.8093 120.083 69.5281 122.4 67.2119ZM117.174 62.0376C116.237 62.9739 115.005 63.516 113.674 63.516C112.343 63.516 111.11 63.0232 110.174 62.0869L90.9963 42.9172C90.0597 41.9809 89.5667 40.7489 89.5667 39.4184C89.5667 38.0878 90.0597 36.8559 90.9963 35.9196C91.933 34.9833 93.1655 34.4905 94.4965 34.4905C95.8276 34.4905 97.0601 35.0325 97.9967 35.9196L117.174 55.0892C118.111 56.0255 118.604 57.2575 118.604 58.5881C118.604 59.9186 118.111 61.1506 117.174 62.0869V62.0376Z" fill="white"/>
<path fill-rule="evenodd" clip-rule="evenodd" d="M98.0011 91.6544C100.318 89.3383 101.6 86.2337 101.6 82.932C101.6 79.6303 100.318 76.5257 98.0011 74.2096C92.4797 68.6903 84.3454 60.5592 78.824 55.0399C76.5069 52.7238 73.4011 51.4425 70.0981 51.4425C66.7951 51.4425 63.6893 52.7238 61.3722 55.0399C59.0552 57.356 57.7734 60.4606 57.7734 63.7623C57.7734 67.0641 59.0552 70.1687 61.3722 72.4848C66.8937 78.0041 75.028 86.1352 80.5494 91.6544C82.8665 93.9706 85.9723 95.2518 89.2753 95.2518C92.5783 95.2518 95.6841 93.9706 98.0011 91.6544ZM92.7262 86.4308C91.7895 87.3671 90.557 87.8599 89.226 87.8599C87.8949 87.8599 86.6625 87.3671 85.7751 86.4308L66.5979 67.2612C65.6612 66.3249 65.1682 65.0929 65.1682 63.7623C65.1682 62.4318 65.7105 61.1998 66.5979 60.2635C67.5346 59.3272 68.767 58.8344 70.0488 58.8344C71.3306 58.8344 72.6123 59.3765 73.549 60.2635L92.7262 79.4332C93.6629 80.3695 94.1559 81.6015 94.1559 82.932C94.1559 84.2625 93.6629 85.4945 92.7262 86.4308Z" fill="white"/>
<path fill-rule="evenodd" clip-rule="evenodd" d="M115.398 84.657C117.715 82.3408 118.997 79.2362 118.997 75.9345C118.997 72.6328 117.715 69.5282 115.398 67.2121C107.461 59.2781 93.7064 45.5292 85.7693 37.5952C83.4522 35.2791 80.3464 33.9978 77.0434 33.9978C73.7404 33.9978 70.6346 35.2791 68.3176 37.5952C66.0005 39.9113 64.7188 43.0652 64.7188 46.3176C64.7188 49.5701 66.0005 52.7239 68.3176 55.0401L97.946 84.657C100.263 86.9731 103.369 88.2543 106.672 88.2543C109.975 88.2543 113.081 86.9731 115.398 84.657ZM110.172 79.4333C109.235 80.3697 108.003 80.9117 106.672 80.9117C105.341 80.9117 104.108 80.4189 103.172 79.4826L73.5432 49.8657C72.6065 48.9294 72.1135 47.6975 72.1135 46.3669C72.1135 45.0364 72.6558 43.8044 73.5432 42.8681C74.4799 41.9318 75.7123 41.439 76.9941 41.439C78.2759 41.439 79.5576 41.9811 80.4943 42.8681L110.123 72.485C111.059 73.4213 111.552 74.6533 111.552 75.9345C111.552 77.2158 111.059 78.497 110.123 79.4333H110.172Z" fill="white"/>
</g>
<defs>
<clipPath id="clip0_948_367">
<rect width="160" height="160" fill="white"/>
</clipPath>
</defs>
</svg>
