<svg width="48" height="48" viewBox="0 0 48 48" fill="none" xmlns="http://www.w3.org/2000/svg">
<path d="M43 0H5C2.2 0 0 2.2 0 5V43C0 45.8 2.2 48 5 48H43C45.8 48 48 45.8 48 43V5C48 2.2 45.8 0 43 0ZM46 43C46 44.7 44.7 46 43 46H5C3.3 46 2 44.7 2 43V13.9H36.4C37 13.9 37.4 13.5 37.4 12.9C37.4 12.3 37 11.9 36.4 11.9H2V5C2 3.3 3.3 2 5 2H43C44.7 2 46 3.3 46 5V43Z" fill="#F6AE24"/>
<path d="M7.3 4.1C5.7 4.1 4.5 5.4 4.5 7C4.5 8.6 5.8 9.9 7.4 9.9C9 9.9 10.3 8.6 10.3 7C10.3 5.4 8.9 4.1 7.3 4.1ZM7.3 7.8C6.8 7.8 6.5 7.5 6.5 7C6.5 6.5 6.8 6.1 7.3 6.1C7.8 6.1 8.2 6.5 8.2 7C8.2 7.5 7.8 7.8 7.3 7.8Z" fill="#F6AE24"/>
<path d="M14 4.1C12.4 4.1 11.1 5.4 11.1 7C11.1 8.6 12.4 9.9 14 9.9C15.6 9.9 16.9 8.6 16.9 7C16.9 5.4 15.5 4.1 14 4.1ZM14 7.8C13.5 7.8 13.1 7.4 13.1 6.9C13.1 6.4 13.5 6 14 6C14.5 6 14.9 6.4 14.9 6.9C14.8 7.5 14.4 7.8 14 7.8Z" fill="#F6AE24"/>
<path d="M20.6 4.1C19 4.1 17.7 5.4 17.7 7C17.7 8.6 19 9.9 20.6 9.9C22.2 9.9 23.5 8.6 23.5 7C23.5 5.4 22.2 4.1 20.6 4.1ZM20.6 7.8C20.1 7.8 19.7 7.4 19.7 6.9C19.7 6.4 20.1 6 20.6 6C21.1 6.1 21.5 6.5 21.5 7C21.5 7.5 21.1 7.8 20.6 7.8Z" fill="#F6AE24"/>
<path d="M42.5 11.9H39.8C39.2 11.9 38.8 12.3 38.8 12.9C38.8 13.5 39.2 13.9 39.8 13.9H42.5C43.1 13.9 43.5 13.5 43.5 12.9C43.5 12.4 43 11.9 42.5 11.9Z" fill="#F6AE24"/>
<path d="M24.8 17.2C24.4 16.6 23.5 16.6 23.1 17.2L9.1 40C8.9 40.3 8.9 40.7 9.1 41C9.3 41.3 9.6 41.5 10 41.5H38.2C38.6 41.5 38.9 41.3 39.1 41C39.3 40.7 39.3 40.3 39.1 40L24.8 17.2ZM11.7 39.5L24 19.6L36.3 39.5H11.7Z" fill="#F6AE24"/>
<path d="M23 27V32C23 32.6 23.4 33 24 33C24.6 33 25 32.6 25 32V27C25 26.4 24.6 26 24 26C23.4 26 23 26.4 23 27Z" fill="#F6AE24"/>
<path d="M24 34C23.4 34 23 34.4 23 35V36C23 36.6 23.4 37 24 37C24.6 37 25 36.6 25 36V35C25 34.5 24.6 34 24 34Z" fill="#F6AE24"/>
</svg>
