<svg width="48" height="48" viewBox="0 0 48 48" fill="none" xmlns="http://www.w3.org/2000/svg">
<circle cx="24" cy="24" r="24" fill="#999999"/>
<path fill-rule="evenodd" clip-rule="evenodd" d="M31.1389 19.061C30.5301 19.6681 29.5447 19.6681 28.9355 19.061C28.3281 18.4535 28.3281 17.4676 28.9355 16.8587L33.341 12.4553C33.9503 11.8482 34.9352 11.8482 35.5445 12.4553C36.1518 13.0624 36.1518 14.0487 35.5445 14.6577L31.1389 19.061ZM23.9943 35.9882L17.9974 29.9942H13.4995C12.6707 29.9942 12 29.3238 12 28.4955V19.5045C12 18.6762 12.6707 18.0058 13.4995 18.0058H17.9974L23.9943 12.0118C23.9943 12.0118 25.4938 11.8243 25.4938 13.5106C25.4938 22.4753 25.4938 35.9624 25.4938 34.4899C25.4938 36.1757 23.9943 35.9886 23.9943 35.9886V35.9882ZM22.4948 18.0058L19.4964 21.0028H14.9985V26.9967H19.4964L22.4948 29.9937V18.0053V18.0058ZM29.9912 25.4985C29.1625 25.4985 28.4918 24.8281 28.4918 23.9998C28.4918 23.1714 29.1625 22.501 29.9912 22.501H34.4892C35.3179 22.501 35.9886 23.1714 35.9886 23.9998C35.9886 24.8281 35.3179 25.4985 34.4892 25.4985H29.9912ZM31.1389 28.9389L35.5445 33.3423C36.1518 33.9513 36.1518 34.9376 35.5445 35.5447C34.9352 36.1518 33.9503 36.1518 33.341 35.5447L28.9355 31.1413C28.3281 30.5324 28.3281 29.546 28.9355 28.9389C29.5447 28.3314 30.5297 28.3314 31.1389 28.9389Z" fill="white"/>
</svg>
