<svg width="20" height="26" viewBox="0 0 20 26" fill="none" xmlns="http://www.w3.org/2000/svg">
<rect x="8" y="7" width="4" height="19" rx="2" fill="white"/>
<path d="M11.5858 6.58579L11.4142 6.41421C10.6332 5.63316 9.36684 5.63316 8.58579 6.41421L1.41421 13.5858C0.633165 14.3668 0.633166 15.6332 1.41421 16.4142L1.58579 16.5858C2.36684 17.3668 3.63316 17.3668 4.41421 16.5858L11.5858 9.41421C12.3668 8.63317 12.3668 7.36683 11.5858 6.58579Z" fill="white"/>
<path d="M18.4142 16.5858L18.5858 16.4142C19.3668 15.6332 19.3668 14.3668 18.5858 13.5858L11.4142 6.41421C10.6332 5.63316 9.36683 5.63317 8.58579 6.41421L8.41421 6.58579C7.63317 7.36684 7.63317 8.63317 8.41421 9.41421L15.5858 16.5858C16.3668 17.3668 17.6332 17.3668 18.4142 16.5858Z" fill="white"/>
<rect x="1" width="18" height="2" fill="white"/>
</svg>
