<svg width="54" height="60" viewBox="0 0 54 60" fill="none" xmlns="http://www.w3.org/2000/svg">
<path d="M27.71 28.96L30.19 29.7L32.95 41.01L29.02 58.78C28.9 59.32 29.24 59.85 29.78 59.97C29.85 59.99 29.92 59.99 30 59.99H46C46.55 59.99 47 59.54 47 58.99C47 58.92 47 58.84 46.98 58.77L43.05 41L45.81 29.69L48.29 28.95C48.82 28.79 49.12 28.23 48.96 27.7C48.9 27.51 48.79 27.34 48.64 27.22L43.17 22.66L46.95 11.31C46.98 11.21 46.99 11.1 47 11V7C47 6.54 46.69 6.14 46.24 6.03C43.95 5.22 42.31 3.2 41.98 0.8C41.88 0.33 41.48 0 41 0H35C34.52 0 34.12 0.33 34.02 0.8C33.7 3.21 32.05 5.23 29.76 6.03C29.32 6.14 29 6.54 29 7V11C29 11.11 29.03 11.21 29.05 11.32L32.83 22.67L27.36 27.23C26.94 27.58 26.88 28.21 27.23 28.64C27.36 28.79 27.52 28.9 27.71 28.96ZM37 58H31.24L34.95 41.22C34.98 41.07 34.98 40.92 34.95 40.77L32.41 30.38L36.99 31.76V58.02L37 58ZM41.05 40.76C41.01 40.91 41.01 41.06 41.05 41.21L44.76 57.99H39V31.73L43.58 30.35L41.04 40.74L41.05 40.76ZM31 7.7C33.39 6.64 35.16 4.54 35.79 2H40.21C40.84 4.54 42.61 6.64 45 7.7V10H31V7.7ZM32.72 16H38V14H32.05L31.38 12H44.61L42.61 18H36V20H41.95L41.28 22H34.72L32.72 16ZM34.36 24H41.64L45.93 27.58L38 29.96L30.07 27.58L34.36 24Z" fill="#CCCCCC"/>
<path d="M16.2967 8.29829L13.2986 11.2964L14.7128 12.7106L17.7109 9.71251L16.2967 8.29829Z" fill="#CCCCCC"/>
<path d="M17.2894 13.2967L14.2912 16.2949L15.7055 17.7091L18.7036 14.7109L17.2894 13.2967Z" fill="#CCCCCC"/>
<path d="M9.94 16.96C9.46 18.19 8 22.11 8 24C8 30.14 10.95 37.1 11.08 37.39C11.24 37.76 11.6 38 12 38H13V54H12C9.24 54 7 56.24 7 59C7 59.55 7.45 60 8 60H24C24.55 60 25 59.55 25 59C25 56.24 22.76 54 20 54H19V38H20C20.4 38 20.76 37.76 20.92 37.39C21.05 37.1 24 30.13 24 24C24 22.11 22.53 18.18 22.06 16.96L24.96 7.29C25.12 6.76 24.82 6.2 24.29 6.05C24.2 6.02 24.1 6.01 24.01 6.01C23.6 6.01 20 5.82 20 1.01C20 0.45 19.55 0 19 0H13C12.45 0 12 0.45 12 1C12 5.81 8.4 6 8 6C7.45 6 7 6.45 7 7C7 7.1 7.01 7.19 7.04 7.29L9.94 16.96ZM20 56C21.27 56 22.4 56.8 22.83 58H9.17C9.6 56.8 10.73 56 12 56H20ZM15 54V38H17V54H15ZM13.95 2H18.04C18.4 5.79 20.77 7.36 22.7 7.84L20.04 16.72C19.98 16.94 19.99 17.17 20.07 17.38C20.61 18.72 22 22.53 22 24.01C22 28.74 20.03 34.21 19.33 36.01H12.68C11.98 34.21 10 28.74 10 24.01C10 22.53 11.39 18.72 11.93 17.38C12.01 17.17 12.02 16.94 11.96 16.72L9.3 7.84C11.22 7.37 13.6 5.79 13.95 2Z" fill="#CCCCCC"/>
<path d="M52 17H50V19H52V17Z" fill="#CCCCCC"/>
<path d="M52 21H50V23H52V21Z" fill="#CCCCCC"/>
<path d="M50 19H48V21H50V19Z" fill="#CCCCCC"/>
<path d="M54 19H52V21H54V19Z" fill="#CCCCCC"/>
<path d="M8 41H6V43H8V41Z" fill="#CCCCCC"/>
<path d="M8 45H6V47H8V45Z" fill="#CCCCCC"/>
<path d="M6 43H4V45H6V43Z" fill="#CCCCCC"/>
<path d="M10 43H8V45H10V43Z" fill="#CCCCCC"/>
<path d="M4 17H2V19H4V17Z" fill="#CCCCCC"/>
<path d="M4 21H2V23H4V21Z" fill="#CCCCCC"/>
<path d="M2 19H0V21H2V19Z" fill="#CCCCCC"/>
<path d="M6 19H4V21H6V19Z" fill="#CCCCCC"/>
<path d="M50 38H48V40H50V38Z" fill="#CCCCCC"/>
<path d="M50 42H48V44H50V42Z" fill="#CCCCCC"/>
<path d="M48 40H46V42H48V40Z" fill="#CCCCCC"/>
<path d="M52 40H50V42H52V40Z" fill="#CCCCCC"/>
</svg>
