<svg width="80" height="80" viewBox="0 0 80 80" fill="none" xmlns="http://www.w3.org/2000/svg">
<rect x="0.5" y="0.5" width="79" height="79" rx="3.5" fill="white" stroke="#CCCCCC"/>
<path d="M21.5595 59.96V61.052H26.1915V62.084H15.7275V61.052H20.3715V59.96H20.0835C18.2115 59.96 16.9515 59.264 16.9515 57.884C16.9515 56.516 18.2115 55.832 20.0835 55.832H21.8355C23.7195 55.832 24.9675 56.516 24.9675 57.884C24.9675 59.264 23.7195 59.96 21.8355 59.96H21.5595ZM18.1515 57.896C18.1515 58.556 18.9195 58.94 20.2995 58.94H21.6315C22.9995 58.94 23.7795 58.556 23.7795 57.896C23.7795 57.224 22.9995 56.864 21.6315 56.864H20.2995C18.9195 56.864 18.1515 57.224 18.1515 57.896ZM21.6435 62.804V63.26C21.6435 63.668 21.5475 64.028 21.3675 64.376L25.4835 65.84L25.0875 66.908L20.6235 65.264C19.7595 66.008 18.4035 66.548 16.8195 66.968L16.4475 65.9C18.7155 65.288 20.4075 64.412 20.4075 63.26V62.804H21.6435ZM36.0224 55.712V58.04H37.7384V59.132H36.0224V61.784H34.8224V55.712H36.0224ZM33.1064 61.664L30.1424 59.708C29.5784 60.524 28.6904 61.244 27.4544 61.904L26.8904 60.944C28.7984 59.876 29.7104 58.772 29.7104 57.308H27.3224V56.24H33.2744V57.308H30.8744C30.8744 57.812 30.7904 58.292 30.6344 58.736L33.7064 60.692L33.1064 61.664ZM31.2824 62.372H33.6344C35.2544 62.372 36.2744 63.332 36.2744 64.664C36.2744 66.008 35.2544 66.968 33.6344 66.968H31.2824C29.6864 66.968 28.6544 66.008 28.6544 64.664C28.6544 63.332 29.6864 62.372 31.2824 62.372ZM31.4864 65.888H33.4424C34.5344 65.888 35.0864 65.372 35.0864 64.664C35.0864 63.956 34.5344 63.44 33.4424 63.44H31.4864C30.3944 63.44 29.8424 63.956 29.8424 64.664C29.8424 65.372 30.3944 65.888 31.4864 65.888ZM50.3427 58.04H52.0707V59.132H50.3427V61.724H49.1427V55.712H50.3427V58.04ZM48.0027 59.936L48.1467 60.968C46.8147 61.196 45.1707 61.34 43.6107 61.34H41.6907V56.24H47.1027V57.308H42.9027V60.284H43.8267C45.0627 60.284 46.6227 60.152 48.0027 59.936ZM50.3427 66.848H43.2147V62.432H50.3427V66.848ZM49.1427 63.488H44.4027V65.768H49.1427V63.488ZM61.1576 66.848V55.712H62.3456V66.848H61.1576ZM57.7256 57.68H53.5496V56.588H58.9256V57.572C58.9256 60.728 57.1256 63.476 54.0296 65.516L53.3096 64.568C56.1896 62.72 57.7256 60.164 57.7256 57.812V57.68Z" fill="black"/>
<path d="M35.0429 40.5625H25.1249C24.5406 40.5625 24.0625 40.0844 24.0625 39.5V16.125C24.0625 15.5406 24.5406 15.0625 25.1249 15.0625H34.8251C35.2023 15.0625 35.5582 15.2697 35.7441 15.5991L37.4122 18.5156C37.5078 18.6803 37.6831 18.7812 37.8744 18.7812H53.8112V33.125C53.8112 33.4172 54.0502 33.6562 54.3424 33.6562C54.6346 33.6562 54.8736 33.4172 54.8736 33.125V16.125C54.8736 14.9509 53.9227 14 52.7487 14H25.1249C23.9509 14 23 14.9509 23 16.125V39.5C23 40.6741 23.9509 41.625 25.1249 41.625H35.0429C35.3351 41.625 35.5742 41.3859 35.5742 41.0938C35.5742 40.8016 35.3351 40.5625 35.0429 40.5625ZM53.8112 16.125V17.7188H38.1825L36.6685 15.0678C36.6685 15.0678 36.6685 15.0678 36.6685 15.0625H52.754C53.3384 15.0625 53.8165 15.5406 53.8165 16.125H53.8112ZM56.9986 47.4209C57.0092 47.5697 56.9614 47.7184 56.8604 47.8247C56.7595 47.9362 56.6161 47.9947 56.4673 47.9947H47.9889C47.6968 47.9947 47.4577 47.7556 47.4577 47.4634C47.4577 47.1712 47.6968 46.9322 47.9889 46.9322H55.8883L54.9161 35.7759H44.2013L44.0154 37.9488C43.9888 38.2409 43.7338 38.4588 43.4416 38.4322C43.1495 38.4056 42.9317 38.1506 42.9582 37.8584L43.1866 35.2022C43.2079 34.9259 43.4416 34.7188 43.7179 34.7188H55.4049C55.6811 34.7188 55.9095 34.9312 55.9361 35.2022L56.9986 47.4209ZM44.7803 39.5H37.3431C37.0775 39.5 36.8544 39.6966 36.8172 39.9569L35.7548 47.3944C35.7335 47.5484 35.776 47.7025 35.877 47.8194C35.9779 47.9362 36.1266 48 36.2807 48H45.8428C45.9968 48 46.1456 47.9309 46.2465 47.8194C46.3474 47.7025 46.3953 47.5484 46.3687 47.3944L45.3062 39.9569C45.2691 39.6966 45.0459 39.5 44.7803 39.5ZM36.8916 46.9375L37.8 40.5625H44.3182L45.2266 46.9375H36.8916ZM42.6554 42.6875V43.2188C42.6554 44.0953 41.9383 44.8125 41.0617 44.8125C40.1852 44.8125 39.468 44.0953 39.468 43.2188V42.6875C39.468 42.3953 39.7071 42.1562 39.9993 42.1562C40.2915 42.1562 40.5305 42.3953 40.5305 42.6875V43.2188C40.5305 43.5109 40.7696 43.75 41.0617 43.75C41.3539 43.75 41.593 43.5109 41.593 43.2188V42.6875C41.593 42.3953 41.832 42.1562 42.1242 42.1562C42.4164 42.1562 42.6554 42.3953 42.6554 42.6875ZM47.9677 37.9062V38.9688C47.9677 39.8453 48.6848 40.5625 49.5614 40.5625C50.4379 40.5625 51.1551 39.8453 51.1551 38.9688V37.9062C51.1551 37.6141 51.3941 37.375 51.6863 37.375C51.9785 37.375 52.2175 37.6141 52.2175 37.9062V38.9688C52.2175 40.435 51.0276 41.625 49.5614 41.625C48.0952 41.625 46.9052 40.435 46.9052 38.9688V37.9062C46.9052 37.6141 47.1443 37.375 47.4365 37.375C47.7286 37.375 47.9677 37.6141 47.9677 37.9062ZM34.1558 17.7188C33.8636 17.7188 33.6245 17.4797 33.6245 17.1875C33.6245 16.8953 33.8636 16.6562 34.1558 16.6562C34.4479 16.6562 34.687 16.8953 34.687 17.1875C34.687 17.4797 34.4479 17.7188 34.1558 17.7188ZM29.906 37.375H38.4056C38.6978 37.375 38.9368 37.1359 38.9368 36.8438V30.9203L41.678 30.4634C41.8214 30.4422 41.9436 30.3572 42.0286 30.2403C42.1082 30.1234 42.1401 29.9747 42.1136 29.8366L41.0511 24.5241C41.0192 24.3647 40.913 24.2266 40.7696 24.1522L36.5197 22.0272C36.4613 22.0006 36.3604 21.9688 36.2807 21.9688H32.0309C31.9618 21.9688 31.8662 21.99 31.7918 22.0272L27.542 24.1522C27.3933 24.2266 27.2923 24.3647 27.2604 24.5241L26.198 29.8366C26.1714 29.98 26.198 30.1234 26.283 30.2403C26.3627 30.3572 26.4902 30.4369 26.6336 30.4634L29.3747 30.9203V36.8438C29.3747 37.1359 29.6138 37.375 29.906 37.375ZM35.7495 23.0312C35.7495 23.9078 35.0323 24.625 34.1558 24.625C33.2792 24.625 32.5621 23.9078 32.5621 23.0312H35.7495ZM27.3454 29.5019L28.2485 24.9809L31.5262 23.3394C31.6856 24.6569 32.7958 25.6822 34.1505 25.6822C35.5051 25.6822 36.6207 24.6569 36.7747 23.3394L40.0524 24.9809L40.9555 29.5019L38.9262 29.8419V27.8125C38.9262 27.5203 38.6871 27.2812 38.395 27.2812C38.1028 27.2812 37.8637 27.5203 37.8637 27.8125V36.3125H30.4266V27.8125C30.4266 27.5203 30.1875 27.2812 29.8953 27.2812C29.6032 27.2812 29.3641 27.5203 29.3641 27.8125V29.8419L27.3348 29.5019H27.3454ZM51.6863 22.5C51.6863 22.2078 51.4472 21.9688 51.1551 21.9688H43.7179C43.4257 21.9688 43.1866 22.2078 43.1866 22.5V25.6875C43.1866 25.9797 43.4257 26.2188 43.7179 26.2188H51.1551C51.4472 26.2188 51.6863 25.9797 51.6863 25.6875V22.5ZM50.6238 25.1562H44.2491V23.0312H50.6238V25.1562ZM51.6863 28.3438C51.6863 28.6359 51.4472 28.875 51.1551 28.875H43.7179C43.4257 28.875 43.1866 28.6359 43.1866 28.3438C43.1866 28.0516 43.4257 27.8125 43.7179 27.8125H51.1551C51.4472 27.8125 51.6863 28.0516 51.6863 28.3438ZM51.6863 31C51.6863 31.2922 51.4472 31.5312 51.1551 31.5312H43.7179C43.4257 31.5312 43.1866 31.2922 43.1866 31C43.1866 30.7078 43.4257 30.4688 43.7179 30.4688H51.1551C51.4472 30.4688 51.6863 30.7078 51.6863 31Z" fill="black"/>
</svg>
