<svg width="58" height="58" viewBox="0 0 58 58" fill="none" xmlns="http://www.w3.org/2000/svg">
<path d="M47.1247 9.66594H44.7075V3.62364C44.7075 2.95662 44.1667 2.41576 43.4996 2.41576H14.4989C13.8319 2.41576 13.291 2.95662 13.291 3.62364V7.24873H42.2918V9.66594H12.0832C11.4161 9.66594 10.8753 9.12508 10.8753 8.45806V3.62509C10.8753 1.62259 12.4979 0 14.5004 0H43.5011C45.5036 0 47.1262 1.62259 47.1262 3.62509V9.66739L47.1247 9.66594Z" fill="#CCCCCC"/>
<path d="M43.4996 58H14.4989C12.4964 58 10.8738 56.3774 10.8738 54.3749V39.8745H13.291V54.3749C13.291 55.0419 13.8319 55.5828 14.4989 55.5828H43.4996C44.1667 55.5828 44.7075 55.0419 44.7075 54.3749V50.7498H15.7068V48.3326H45.9154C46.5824 48.3326 47.1233 48.8735 47.1233 49.5405V54.3735C47.1233 56.376 45.5007 57.9986 43.4982 57.9986H43.4996V58Z" fill="#CCCCCC"/>
<path d="M47.1247 42.2918H44.7075V49.5419H47.1247V42.2918Z" fill="#CCCCCC"/>
<path d="M33.8322 45.9169C33.6727 45.9169 33.5161 45.8864 33.3697 45.8255C32.9187 45.6384 32.6244 45.1976 32.6244 44.709V39.876H30.2072C28.2047 39.876 26.5821 38.2534 26.5821 36.2509V15.7082C26.5821 13.7057 28.2047 12.0832 30.2072 12.0832H54.3749C56.3774 12.0832 58 13.7057 58 15.7082V36.2509C58 38.2534 56.3774 39.876 54.3749 39.876H40.3748L34.6863 45.5645C34.4601 45.7907 34.1527 45.9183 33.8322 45.9183V45.9169ZM30.2072 14.4989C29.5401 14.4989 28.9993 15.0398 28.9993 15.7068V36.2495C28.9993 36.9165 29.5401 37.4573 30.2072 37.4573H33.8322C34.4993 37.4573 35.0401 37.9982 35.0401 38.6652V41.79L39.019 37.8111C39.2452 37.5849 39.5526 37.4573 39.8731 37.4573H54.3735C55.0405 37.4573 55.5813 36.9165 55.5813 36.2495V15.7068C55.5813 15.0398 55.0405 14.4989 54.3735 14.4989H30.2057H30.2072Z" fill="#CCCCCC"/>
<path d="M42.2918 30.2072H35.0416C33.0391 30.2072 31.4165 28.5846 31.4165 26.5821V24.1649C31.4165 22.1624 33.0391 20.5398 35.0416 20.5398H42.2918C42.9588 20.5398 43.4996 21.0806 43.4996 21.7476V28.9978C43.4996 29.6648 42.9588 30.2057 42.2918 30.2057V30.2072ZM35.0416 22.957C34.3746 22.957 33.8337 23.4978 33.8337 24.1649V26.5821C33.8337 27.2491 34.3746 27.7899 35.0416 27.7899H41.0839V22.957H35.0416Z" fill="#CCCCCC"/>
<path d="M51.9577 33.8322C51.8127 33.8322 51.6691 33.8061 51.5328 33.7568L41.8654 30.1318C41.3942 29.9549 41.0824 29.5039 41.0824 28.9993V21.7491C41.0824 21.2459 41.3942 20.7935 41.8654 20.6166L51.5328 16.9915C52.1578 16.7566 52.8538 17.0727 53.0887 17.6977C53.1395 17.834 53.1656 17.979 53.1656 18.124V32.6244C53.1656 33.2914 52.6247 33.8322 51.9577 33.8322ZM43.4996 28.1612L50.7498 30.88V19.8669L43.4996 22.5858V28.1612Z" fill="#CCCCCC"/>
<path d="M38.6667 21.7491H36.2495V28.9993H38.6667V21.7491Z" fill="#CCCCCC"/>
<path d="M37.4573 36.2495H35.0401C34.3731 36.2495 33.8322 35.7086 33.8322 35.0416V28.9993H36.2495V33.8322H36.6395L38.7522 28.5498L40.9969 29.4488L38.5797 35.4911C38.3955 35.9493 37.9518 36.2509 37.4573 36.2495Z" fill="#CCCCCC"/>
<path d="M18.124 41.0824C17.8035 41.0824 17.4961 40.9548 17.2699 40.7286L11.5829 35.0401H3.62509C1.62259 35.0401 0 33.4175 0 31.415V21.7476C0 19.7451 1.62259 18.1226 3.62509 18.1226H24.1678V20.5398H3.62364C2.95662 20.5398 2.41576 21.0806 2.41576 21.7476V31.415C2.41576 32.0821 2.95662 32.6229 3.62364 32.6229H12.0817C12.4022 32.6229 12.7096 32.7505 12.9358 32.9767L16.9147 36.9556V33.8308C16.9147 33.1638 17.4555 32.6229 18.1226 32.6229H24.1649V35.0401H19.3319V39.8731C19.3319 40.3618 19.0375 40.8026 18.5866 40.9896C18.4401 41.0505 18.2821 41.0824 18.124 41.081V41.0824Z" fill="#CCCCCC"/>
<path d="M13.291 8.45661H10.8738V15.7068H13.291V8.45661Z" fill="#CCCCCC"/>
<path d="M24.1663 25.3742H9.66594V27.7914H24.1663V25.3742Z" fill="#CCCCCC"/>
<path d="M7.24873 25.3742H4.83152V27.7914H7.24873V25.3742Z" fill="#CCCCCC"/>
</svg>
