<svg width="75" height="56" viewBox="0 0 75 56" fill="none" xmlns="http://www.w3.org/2000/svg">
<rect x="0.5" y="0.5" width="74" height="55" rx="5.5" fill="#EEEEEE" stroke="#DDDDDD"/>
<path d="M16.3653 38.8864H28.9573V40.2715H16.3653V38.8864ZM30.7573 31.4127H16.3653V32.7978H30.7573V31.4127ZM14.3333 28.1247H15.6987V28.8033H17.032V28.1247H19.296V28.8033H20.6293V28.1247H22.8933V28.8033H24.2267V28.1247H26.4907V28.8033H27.824V28.1247H30.088V28.8033H31.4213V28.1247H32.7867V37.8975H34.12V26.7396H31.4213V26H30.088V26.7396H27.824V26H26.4907V26.7396H24.2267V26H22.8933V26.7396H20.6293V26H19.296V26.7396H17.032V26H15.6987V26.7396H13V44.9418H28.3733V43.5568H14.3333V28.1247ZM30.7573 35.1496H16.3653V36.5346H30.7573V35.1496ZM37 42.7562C37 45.097 35.168 47 32.9147 47C30.6613 47 28.8293 45.097 28.8293 42.7562C28.8293 40.4155 30.6613 38.5125 32.9147 38.5125C35.168 38.5125 37 40.4155 37 42.7562ZM35.6667 42.7562C35.6667 41.1801 34.432 39.8975 32.9147 39.8975C31.3973 39.8975 30.1627 41.1801 30.1627 42.7562C30.1627 44.3324 31.3973 45.615 32.9147 45.615C34.432 45.615 35.6667 44.3324 35.6667 42.7562ZM32.472 42.6925L31.9627 42.0748L30.9493 42.9751L32.3973 44.7285L34.944 42.0831L34 41.1025L32.472 42.6898V42.6925Z" fill="black"/>
<circle cx="46" cy="26" r="18" fill="#F6AE24"/>
<path d="M42.0838 20.1256L51.8745 29.9163L49.9163 31.8744L40.1256 22.0837L42.0838 20.1256Z" fill="white"/>
<path d="M40.1256 29.9163L49.9163 20.1256L51.8745 22.0837L42.0838 31.8744L40.1256 29.9163Z" fill="white"/>
</svg>
