<svg width="20" height="16" viewBox="0 0 20 16" fill="none" xmlns="http://www.w3.org/2000/svg">
<path fill-rule="evenodd" clip-rule="evenodd" d="M10.8333 15.2V14C10.8333 13.56 10.4583 13.2 10 13.2C9.54167 13.2 9.16667 13.56 9.16667 14V15.2C9.16667 15.64 9.54167 16 10 16C10.4583 16 10.8333 15.64 10.8333 15.2Z" fill="black"/>
<path fill-rule="evenodd" clip-rule="evenodd" d="M10.8333 9.2V0.8C10.8333 0.36 10.4583 0 10 0C9.54167 0 9.16667 0.36 9.16667 0.8V9.2C9.16667 9.64 9.54167 10 10 10C10.4583 10 10.8333 9.64 10.8333 9.2Z" fill="black"/>
<path fill-rule="evenodd" clip-rule="evenodd" d="M10 14C11.6125 14 12.9167 12.748 12.9167 11.2C12.9167 9.652 11.6125 8.4 10 8.4C8.3875 8.4 7.08333 9.652 7.08333 11.2C7.08333 12.748 8.3875 14 10 14ZM10 12.4C9.30833 12.4 8.75 11.864 8.75 11.2C8.75 10.536 9.30833 10 10 10C10.6917 10 11.25 10.536 11.25 11.2C11.25 11.864 10.6917 12.4 10 12.4Z" fill="black"/>
<path fill-rule="evenodd" clip-rule="evenodd" d="M17.9167 2.4V0.8C17.9167 0.36 17.5417 0 17.0833 0C16.625 0 16.25 0.36 16.25 0.8V2.4C16.25 2.84 16.625 3.2 17.0833 3.2C17.5417 3.2 17.9167 2.84 17.9167 2.4Z" fill="black"/>
<path fill-rule="evenodd" clip-rule="evenodd" d="M17.9167 15.2V7.2C17.9167 6.76 17.5417 6.4 17.0833 6.4C16.625 6.4 16.25 6.76 16.25 7.2V15.2C16.25 15.64 16.625 16 17.0833 16C17.5417 16 17.9167 15.64 17.9167 15.2Z" fill="black"/>
<path fill-rule="evenodd" clip-rule="evenodd" d="M17.0833 7.6C18.6958 7.6 20 6.348 20 4.8C20 3.252 18.6958 2 17.0833 2C15.4708 2 14.1667 3.252 14.1667 4.8C14.1667 6.348 15.4708 7.6 17.0833 7.6ZM17.0833 6C16.3917 6 15.8333 5.464 15.8333 4.8C15.8333 4.136 16.3917 3.6 17.0833 3.6C17.775 3.6 18.3333 4.136 18.3333 4.8C18.3333 5.464 17.775 6 17.0833 6Z" fill="black"/>
<path fill-rule="evenodd" clip-rule="evenodd" d="M2.91667 9.6C4.52917 9.6 5.83333 8.348 5.83333 6.8C5.83333 5.252 4.52917 4 2.91667 4C1.30417 4 0 5.252 0 6.8C0 8.348 1.30417 9.6 2.91667 9.6ZM2.91667 8C2.225 8 1.66667 7.464 1.66667 6.8C1.66667 6.136 2.225 5.6 2.91667 5.6C3.60833 5.6 4.16667 6.136 4.16667 6.8C4.16667 7.464 3.60833 8 2.91667 8Z" fill="black"/>
<path fill-rule="evenodd" clip-rule="evenodd" d="M3.75 15.2V8.8C3.75 8.36 3.375 8 2.91667 8C2.45833 8 2.08333 8.36 2.08333 8.8V15.2C2.08333 15.64 2.45833 16 2.91667 16C3.375 16 3.75 15.64 3.75 15.2Z" fill="black"/>
<path fill-rule="evenodd" clip-rule="evenodd" d="M3.75 4.4V0.8C3.75 0.36 3.375 0 2.91667 0C2.45833 0 2.08333 0.36 2.08333 0.8V4.4C2.08333 4.84 2.45833 5.2 2.91667 5.2C3.375 5.2 3.75 4.84 3.75 4.4Z" fill="black"/>
</svg>
