<svg width="57" height="57" viewBox="0 0 57 57" fill="none" xmlns="http://www.w3.org/2000/svg">
<path d="M28.43 56.35C13.03 56.35 0.5 43.83 0.5 28.43C0.5 13.03 13.03 0.5 28.43 0.5C43.83 0.5 56.36 13.03 56.36 28.43C56.36 43.83 43.83 56.36 28.43 56.36V56.35Z" fill="white"/>
<path d="M28.43 1C43.55 1 55.86 13.3 55.86 28.43C55.86 43.56 43.56 55.86 28.43 55.86C13.3 55.86 1 43.55 1 28.43C1 13.31 13.3 1 28.43 1ZM28.43 0C12.73 0 0 12.73 0 28.43C0 44.13 12.73 56.86 28.43 56.86C44.13 56.86 56.86 44.13 56.86 28.43C56.86 12.73 44.13 0 28.43 0Z" fill="#E6E7E8"/>
<path d="M38.41 26.43H37.59V26.39H28.43V30.46H34.18C33.34 32.83 31.08 34.53 28.43 34.53C25.06 34.53 22.32 31.79 22.32 28.42C22.32 25.05 25.06 22.31 28.43 22.31C29.99 22.31 31.4 22.9 32.48 23.86L35.36 20.98C33.54 19.29 31.11 18.24 28.43 18.24C22.81 18.24 18.25 22.8 18.25 28.42C18.25 34.04 22.81 38.6 28.43 38.6C34.05 38.6 38.61 34.04 38.61 28.42C38.61 27.74 38.54 27.07 38.41 26.43Z" fill="#FDC113"/>
<path d="M19.42 23.69L22.77 26.14C23.68 23.9 25.87 22.32 28.43 22.32C29.99 22.32 31.4 22.91 32.48 23.87L35.36 20.99C33.54 19.3 31.11 18.25 28.43 18.25C24.52 18.25 21.13 20.46 19.42 23.69Z" fill="#EF4523"/>
<path d="M28.43 38.61C31.06 38.61 33.45 37.6 35.26 35.97L32.11 33.3C31.09 34.07 29.82 34.54 28.43 34.54C25.78 34.54 23.53 32.85 22.69 30.49L19.37 33.05C21.06 36.35 24.48 38.61 28.44 38.61H28.43Z" fill="#4DAF4F"/>
<path d="M38.41 26.43H37.59V26.39H28.43V30.46H34.18C33.78 31.6 33.04 32.58 32.1 33.3L35.25 35.97C35.03 36.17 38.61 33.52 38.61 28.43C38.61 27.75 38.54 27.08 38.41 26.44V26.43Z" fill="#3474BB"/>
</svg>
