<svg width="97" height="44" viewBox="0 0 97 44" fill="none" xmlns="http://www.w3.org/2000/svg">
<path d="M17.9504 20.3876C16.7438 20.3876 15.6265 20.6215 14.6309 21.0839C13.9383 21.4038 13.3134 21.8205 12.775 22.3179C12.2961 21.8125 11.7361 21.3984 11.1057 21.0812C10.1913 20.6215 9.14972 20.3876 8.01615 20.3876C7.08278 20.3876 6.20082 20.5516 5.3919 20.8742C4.97256 21.0436 4.57486 21.2506 4.20963 21.4899C4.13117 21.3823 4.04189 21.2802 3.9445 21.1861C3.51434 20.7747 2.96784 20.565 2.31854 20.565C1.66924 20.565 1.11734 20.7801 0.676354 21.2022C0.227255 21.6323 0 22.1942 0 22.869V36.0638C0 36.7144 0.22455 37.2655 0.665533 37.7037C1.10652 38.1419 1.66383 38.3651 2.31854 38.3651C2.97325 38.3651 3.56033 38.1392 3.9932 37.693C4.41795 37.2547 4.63438 36.7063 4.63438 36.0611V27.7001C4.63438 26.7914 4.89139 26.0763 5.42165 25.5117C5.93568 24.9633 6.59039 24.6971 7.42096 24.6971C8.25152 24.6971 8.82507 24.923 9.27958 25.3908C9.73409 25.8585 9.96675 26.5979 9.96675 27.5845V36.0638C9.96675 36.7144 10.1913 37.2655 10.6323 37.7037C11.0733 38.1419 11.6306 38.3651 12.2853 38.3651C12.94 38.3651 13.5298 38.1392 13.9627 37.693C14.3874 37.2547 14.6038 36.7063 14.6038 36.0611V27.7001C14.6038 26.7914 14.8609 26.0763 15.3911 25.5117C15.9051 24.9633 16.549 24.6971 17.3607 24.6971C18.1723 24.6971 18.7675 24.923 19.2193 25.3908C19.6738 25.8585 19.9065 26.5952 19.9065 27.5845V36.0638C19.9065 36.7144 20.131 37.2682 20.572 37.7037C21.013 38.1419 21.5703 38.3651 22.225 38.3651C22.8797 38.3651 23.4695 38.1392 23.9024 37.693C24.3271 37.2547 24.5435 36.7063 24.5435 36.0611V27.5818C24.5435 25.3666 23.9348 23.5976 22.7309 22.326C21.5162 21.0382 19.9092 20.3849 17.9586 20.3849L17.9504 20.3876Z" fill="#F5AB35"/>
<path d="M40.4757 21.4522C39.2394 20.7075 37.7649 20.3285 36.093 20.3285C34.421 20.3285 32.8735 20.7183 31.5316 21.4872C30.1843 22.2587 29.1211 23.3502 28.3663 24.7294C27.6196 26.0951 27.2408 27.6544 27.2408 29.3615C27.2408 31.0687 27.6439 32.636 28.4366 33.9991C29.2347 35.3648 30.3548 36.4482 31.7724 37.2171C33.1765 37.9806 34.7808 38.3678 36.5394 38.3678C37.5377 38.3678 38.5928 38.1849 39.6722 37.822C40.7598 37.4591 41.6851 36.9778 42.4155 36.3998C42.9377 36.0127 43.2109 35.4858 43.2109 34.8782C43.2109 34.4534 43.0702 33.8297 42.4128 33.284C42.0449 32.9506 41.5633 32.7812 40.9844 32.7812C40.4054 32.7812 39.932 32.9452 39.5153 33.2705C39.169 33.534 38.7091 33.7625 38.1464 33.9507C37.5864 34.1389 37.0453 34.2357 36.5367 34.2357C35.2029 34.2357 34.1126 33.8781 33.2063 33.1388C32.5489 32.6038 32.0944 31.9639 31.8211 31.1897H42.1477C42.7564 31.1897 43.2731 30.9907 43.6844 30.5982C44.0983 30.203 44.3174 29.6815 44.3174 29.0927C44.3174 27.4151 43.9901 25.9016 43.3408 24.5923C42.678 23.2561 41.7148 22.1969 40.473 21.4495L40.4757 21.4522ZM36.093 24.4606C37.1995 24.4606 38.0625 24.7751 38.7307 25.4203C39.234 25.9096 39.5857 26.5038 39.8021 27.2377H31.8725C32.1322 26.5199 32.5299 25.9338 33.0845 25.4499C33.8475 24.7832 34.8322 24.4606 36.0957 24.4606H36.093Z" fill="#F5AB35"/>
<path d="M68.2009 21.5167C66.8211 20.729 65.2763 20.3285 63.6125 20.3285C61.9486 20.3285 60.4093 20.729 59.0484 21.5194C57.6903 22.3098 56.6 23.404 55.8046 24.7724C55.0119 26.1435 54.6088 27.6867 54.6088 29.3615V41.696C54.6088 42.3708 54.8361 42.9327 55.2852 43.3628C55.7262 43.7849 56.2781 44 56.9274 44C57.5767 44 58.161 43.7822 58.5939 43.3521C59.0268 42.9219 59.2459 42.3654 59.2459 41.696V36.7305C59.6788 37.0558 60.1468 37.3381 60.6419 37.5747C61.7403 38.0989 62.9388 38.3651 64.2104 38.3651C65.7849 38.3651 67.2377 37.9672 68.5201 37.1795C69.7998 36.3971 70.8224 35.3003 71.5529 33.9238C72.2779 32.5581 72.6431 31.023 72.6431 29.3589C72.6431 27.6947 72.2482 26.1435 71.4663 24.7724C70.6817 23.3986 69.5833 22.3018 68.2009 21.5114V21.5167ZM61.3237 25.1918C62.0081 24.7805 62.7576 24.5788 63.6125 24.5788C64.4674 24.5788 65.2249 24.7859 65.9012 25.1918C66.5803 25.6004 67.1268 26.1731 67.5245 26.8963C67.9249 27.6248 68.1278 28.4556 68.1278 29.3642C68.1278 30.2729 67.9249 31.0956 67.5272 31.8134C67.1295 32.5285 66.583 33.0985 65.9012 33.5071C65.2249 33.913 64.4566 34.1201 63.6125 34.1201C62.7684 34.1201 62.0081 33.9211 61.3237 33.5071C60.6446 33.0985 60.1035 32.5312 59.7167 31.8188C59.3244 31.101 59.1269 30.2756 59.1269 29.3642C59.1269 28.4529 59.3271 27.6195 59.7194 26.8909C60.1062 26.1731 60.6473 25.6004 61.3237 25.1918Z" fill="#1E1E1E"/>
<path d="M77.7645 20.2586C77.7645 20.2586 77.7537 20.2586 77.7483 20.2586C77.7483 20.2586 77.7456 20.2586 77.7429 20.2586C77.7401 20.2586 77.7374 20.2586 77.732 20.2586C76.4145 20.2586 75.3459 21.3205 75.3459 22.6297C75.3459 23.939 76.4145 25.0009 77.732 25.0009C79.0496 25.0009 80.1182 23.939 80.1182 22.6297C80.1182 21.3205 79.0658 20.2747 77.7618 20.2586H77.7645Z" fill="#1E1E1E"/>
<path d="M77.7347 26.2269C77.0854 26.2269 76.5308 26.4419 76.0925 26.864C75.6434 27.2942 75.4162 27.856 75.4162 28.5308V35.7949C75.4162 36.4455 75.6407 36.9967 76.0817 37.4349C76.5227 37.8731 77.08 38.0962 77.7347 38.0962C78.3894 38.0962 78.9792 37.8704 79.4094 37.4241C79.8341 36.9886 80.0506 36.4375 80.0506 35.7923V28.5281C80.0506 27.8587 79.8314 27.2995 79.3986 26.8721C78.9657 26.4419 78.4057 26.2242 77.732 26.2242L77.7347 26.2269Z" fill="#1E1E1E"/>
<path d="M96.4914 34.4615L91.1942 28.0012L96.0829 24.0546C96.5888 23.646 96.8539 23.0868 96.8539 22.4335C96.8539 21.8824 96.6483 21.3796 96.2668 20.9898C95.8583 20.5059 95.301 20.2505 94.6571 20.2505C94.0971 20.2505 93.5777 20.4602 93.207 20.8312L87.3363 25.6677V22.3959C87.3363 21.143 86.3109 20.1214 85.0475 20.1214C83.784 20.1214 82.7587 21.1404 82.7587 22.3959V35.838C82.7587 37.0908 83.784 38.1124 85.0475 38.1124C86.3109 38.1124 87.3363 37.0934 87.3363 35.838V31.4182L87.8746 30.9477L93.0122 37.2628C93.4424 37.8113 94.0322 38.1016 94.7139 38.1016C95.2361 38.1016 95.7285 37.9215 96.1776 37.5612C96.7159 37.115 97 36.5262 97 35.8568C97 35.3083 96.8242 34.8271 96.4887 34.4642L96.4914 34.4615Z" fill="#1E1E1E"/>
<path d="M50.7536 14.2607L47.8561 17.14C47.3231 17.6723 47.0256 18.3901 47.0256 19.1402V36.2815C47.0256 37.4967 47.9454 38.564 49.1655 38.6393C50.4939 38.7226 51.6004 37.6715 51.6004 36.3703V14.6075C51.6004 14.1693 51.0674 13.9488 50.7536 14.258V14.2607Z" fill="#F5AB35"/>
<path d="M37.6026 15.0941C38.4467 15.6372 39.4017 15.9598 40.3838 16.0566L49.6119 6.89173C49.5145 5.91583 49.1872 4.96413 48.6434 4.12266C48.6109 4.07426 48.5785 4.02856 48.546 3.98017L37.5431 14.9059C37.516 14.9328 37.489 14.9624 37.4673 14.9919C37.5133 15.0242 37.5593 15.0565 37.608 15.0887L37.6026 15.0941Z" fill="#F5AB35"/>
<path d="M43.5789 17.9761C43.6032 17.9815 43.6248 17.9895 43.6492 17.9949C43.6492 17.9949 43.6519 17.9949 43.6546 17.9949C44.2309 18.1213 44.8315 17.9438 45.2481 17.5298L51.0945 11.7201C51.7709 11.0507 51.7709 9.96459 51.0999 9.29518C50.8483 9.04247 50.5291 8.88116 50.1855 8.81933C50.1476 8.84621 50.1124 8.8731 50.0773 8.90804L47.5829 11.3868L47.0526 11.9164L46.2762 12.688L45.7459 13.2176L42.5075 16.4356C42.4318 16.5109 42.3776 16.5942 42.3371 16.6803C42.4696 17.2932 42.935 17.8067 43.5789 17.9788V17.9761Z" fill="#F5AB35"/>
<path d="M34.7619 8.73061L42.0665 1.47187L42.3235 1.21378C42.54 0.99871 42.6022 0.711049 42.54 0.452961C41.1034 0.095401 39.9915 0.00937156 39.886 0.0013063C39.7696 -0.00675896 39.6587 0.0228137 39.5613 0.0819589C39.5234 0.103466 39.491 0.13035 39.4585 0.159923L33.6121 5.9696C33.5796 6.00186 33.5526 6.0395 33.5282 6.07714C33.4714 6.17123 33.4444 6.28146 33.4525 6.39168C33.4606 6.49384 33.5418 7.53695 33.8772 8.90267C34.164 9.01827 34.513 8.97526 34.7619 8.72792V8.73061Z" fill="#F5AB35"/>
<path d="M36.2905 13.6746L47.3015 2.74081C47.3015 2.74081 47.3232 2.71661 47.334 2.70317C46.5765 2.07408 45.6999 1.58747 44.8233 1.21378C44.8152 1.22185 44.8071 1.22723 44.799 1.23529L34.7808 11.1878C34.7403 11.2282 34.7078 11.2712 34.6753 11.3196C35.0487 12.1799 35.5302 13.0375 36.1552 13.7848C36.2012 13.7553 36.2472 13.7203 36.2905 13.6773V13.6746Z" fill="#F5AB35"/>
<path d="M49.3603 37.9994C49.3062 38.1312 49.152 38.193 49.0194 38.1392C49.014 38.1392 49.0086 38.1339 49.0032 38.1312C48.6894 37.9994 48.408 37.8113 48.1726 37.5747C47.9373 37.3381 47.7398 37.0504 47.6072 36.7332C47.5802 36.666 47.5829 36.5961 47.6072 36.5343C47.6072 36.5343 47.6072 36.5316 47.6099 36.5289C47.6234 36.502 47.6397 36.4751 47.6613 36.4536C47.6857 36.4294 47.7127 36.4106 47.7479 36.3971C47.8805 36.3434 48.0347 36.4052 48.0888 36.5369C48.0888 36.5369 48.0888 36.5396 48.0888 36.5423C48.0888 36.5423 48.0888 36.5396 48.0888 36.5369C48.1943 36.7897 48.3485 37.0182 48.5406 37.209C48.7354 37.4026 48.968 37.5559 49.2251 37.6607C49.3549 37.7199 49.4144 37.8677 49.3603 37.9968V37.9994Z" fill="white"/>
<path d="M47.5423 35.674C47.6749 35.6202 47.8291 35.682 47.8832 35.8138C47.9373 35.9455 47.8751 36.0987 47.7425 36.1525C47.6099 36.2063 47.4557 36.1444 47.4016 36.0127C47.3475 35.881 47.4097 35.7304 47.5423 35.674Z" fill="white"/>
</svg>
