<svg width="158" height="150" viewBox="0 0 158 150" fill="none" xmlns="http://www.w3.org/2000/svg">
<rect x="0.5" y="0.5" width="157" height="149" fill="white" stroke="#CCCCCC"/>
<path d="M108.934 37.9V33.712H110.098V44.848H108.934V38.992H107.506V44.62H106.378V33.88H107.506V37.9H108.934ZM102.01 41.944H102.55C103.414 41.944 104.398 41.884 105.514 41.716L105.634 42.772C104.554 42.964 103.534 43.036 102.382 43.036H100.81V34.528H102.01V41.944ZM120.866 37.156V36.124H123.038V33.712H124.238V39.784H123.038V37.156H120.866ZM121.094 39.724L118.07 37.732C117.506 38.536 116.606 39.244 115.382 39.904L114.818 38.944C116.738 37.864 117.662 36.784 117.662 35.308H115.262V34.24H121.262V35.308H118.826C118.826 35.836 118.742 36.316 118.574 36.772L121.694 38.74L121.094 39.724ZM119.294 40.372H121.718C123.35 40.372 124.382 41.332 124.382 42.664C124.382 44.008 123.35 44.968 121.718 44.968H119.294C117.674 44.968 116.642 44.008 116.642 42.664C116.642 41.332 117.674 40.372 119.294 40.372ZM119.486 43.888H121.538C122.642 43.888 123.182 43.372 123.182 42.664C123.182 41.956 122.642 41.44 121.538 41.44H119.486C118.382 41.44 117.83 41.956 117.83 42.664C117.83 43.372 118.382 43.888 119.486 43.888ZM131.909 40.54V42.916H136.541V44.02H126.077V42.916H130.721V40.54H127.361V34.396H128.561V36.436H134.069V34.396H135.269V40.54H131.909ZM134.069 37.516H128.561V39.46H134.069V37.516Z" fill="black"/>
<path d="M80.4501 37C80.1358 37 79.8215 37.0404 79.5345 37.0942C79.4251 37.1212 79.3295 37.1481 79.2338 37.175C79.0425 37.2288 78.8648 37.2692 78.6871 37.3365C78.5505 37.3904 78.4275 37.4577 78.2908 37.525C78.1678 37.5923 78.0448 37.6462 77.9218 37.7269C77.7715 37.8212 77.6348 37.9288 77.5118 38.0231C77.4298 38.0904 77.3478 38.1577 77.2658 38.225C77.1155 38.3596 76.9788 38.5077 76.8422 38.6558C76.8012 38.7096 76.7602 38.75 76.7192 38.8038C76.5688 38.9923 76.4458 39.1808 76.3228 39.3827C76.3092 39.4096 76.2955 39.4365 76.2682 39.4635C76.1452 39.6923 76.0358 39.9212 75.9538 40.1635C75.9538 40.1769 75.9538 40.2038 75.9402 40.2173C75.8582 40.4731 75.7898 40.7288 75.7488 40.9981H45.614C44.1107 40.9981 42.8807 42.2096 42.8807 43.6904V68.4058H28.2848C25.8385 68.4058 23.8568 70.3846 23.8568 72.7942V72.7135L21.0688 96.9846V97.0115L21.0005 101.669C20.9595 104.617 23.4058 107 26.3715 107H97.629C100.595 107 103 104.617 103 101.683V96.9981L100.212 72.7808V72.8615C100.212 70.4385 98.2304 68.4731 95.784 68.4731H81.1335V46.3558C81.1335 46.3558 81.1471 46.3558 81.1608 46.3558C81.4205 46.3154 81.6528 46.2615 81.8988 46.1808C81.9398 46.1673 81.9808 46.1538 82.0081 46.1404C82.2405 46.0596 82.4591 45.9654 82.6778 45.8577C82.7188 45.8308 82.7735 45.8173 82.8145 45.7904C83.0058 45.6827 83.1971 45.5615 83.3611 45.4269C83.4295 45.3731 83.4841 45.3192 83.5525 45.2788C83.7028 45.1577 83.8395 45.0231 83.9761 44.875C84.0445 44.7942 84.1128 44.7135 84.1811 44.6192C84.2904 44.4846 84.3861 44.3635 84.4818 44.2154C84.5638 44.0942 84.6321 43.9596 84.7004 43.825C84.7688 43.7038 84.8234 43.5827 84.8781 43.4615C84.9601 43.2731 85.0011 43.0846 85.0558 42.8962C85.0831 42.8019 85.1104 42.7212 85.1378 42.6135C85.1924 42.3173 85.2334 42.0212 85.2334 41.7115C85.2334 41.4019 85.1924 41.0654 85.1378 40.7558C85.0694 40.4462 84.9874 40.15 84.8644 39.8808C84.7414 39.5981 84.5911 39.3288 84.4271 39.0865C84.2494 38.8308 84.0581 38.6019 83.8395 38.3865C82.9648 37.5385 81.7621 37 80.4501 37ZM80.4501 38.3462C82.3498 38.3462 83.8668 39.8404 83.8668 41.7115C83.8668 43.5827 82.3498 45.0769 80.4501 45.0769C78.5505 45.0769 77.0335 43.5827 77.0335 41.7115C77.0335 41.4827 77.0608 41.2538 77.1018 41.025C77.4162 39.4904 78.7965 38.3462 80.4501 38.3462ZM79.4798 39.8135L78.5095 40.7692L78.9878 41.2404L79.4661 41.7115L78.9878 42.1827L78.5095 42.6538L79.4798 43.6096L79.9581 43.1385L80.4365 42.6673L80.9148 43.1385L81.3931 43.6096L82.3635 42.6538L81.8851 42.1827L81.4068 41.7115L81.8851 41.2404L82.3635 40.7692L81.3931 39.8135L80.9148 40.2846L80.4365 40.7558L79.9581 40.2846L79.4798 39.8135ZM45.6004 42.3846H75.7352C75.7762 42.6269 75.8172 42.8423 75.8992 43.0712C75.8992 43.0981 75.9265 43.1385 75.9265 43.1654C76.0085 43.3942 76.0905 43.6096 76.1998 43.8115V43.825C76.6645 44.7 77.3888 45.4269 78.2771 45.8712C78.2771 45.8712 78.2771 45.8846 78.2908 45.8846C78.4958 45.9923 78.7145 46.0731 78.9468 46.1538C78.9741 46.1673 79.0151 46.1808 79.0425 46.1808C79.2748 46.2481 79.4935 46.3019 79.7395 46.3423V90.8327C79.7395 91.5865 79.1381 92.1788 78.3728 92.1788H45.573C44.8077 92.1788 44.2064 91.5865 44.2064 90.8327V43.7308C44.2064 42.9769 44.8077 42.3846 45.573 42.3846H45.6004ZM62.0139 49.1154C55.9733 49.1154 51.0943 53.9212 51.0943 59.8712C51.0943 62.9 52.3516 65.6192 54.388 67.5712L54.5656 67.7327C55.1123 68.2308 55.7 68.675 56.3423 69.0654C56.3696 69.0788 56.397 69.0923 56.4106 69.1058C56.643 69.2404 56.8616 69.3615 57.1076 69.4827C57.2033 69.5365 57.3126 69.5769 57.4219 69.6308C57.5859 69.7115 57.7636 69.7788 57.9276 69.8462C58.1599 69.9404 58.4059 70.0212 58.6383 70.1019C58.6929 70.1154 58.7339 70.1423 58.7886 70.1558C59.7999 70.4654 60.8796 70.6538 62.0003 70.6538C63.1209 70.6538 64.2006 70.4654 65.2256 70.1558C65.2666 70.1423 65.3076 70.1288 65.3622 70.1154C65.6082 70.0346 65.8679 69.9404 66.1002 69.8462C66.2506 69.7788 66.4146 69.7115 66.5649 69.6442C66.6879 69.5904 66.8109 69.5365 66.9202 69.4692C67.1389 69.3615 67.3576 69.2404 67.5625 69.1192C67.6035 69.0923 67.6446 69.0654 67.6856 69.0519C68.3142 68.675 68.9019 68.2308 69.4349 67.7462L69.6125 67.5846C71.6489 65.6327 72.9062 62.9135 72.9062 59.8846C72.9062 53.9346 68.0272 49.1288 61.9866 49.1288L62.0139 49.1154ZM62.0139 50.4615C67.3166 50.4615 71.5669 54.6481 71.5669 59.8712C71.5669 62.4558 70.5145 64.7846 68.8199 66.4808C67.7539 65.1885 66.3462 64.2192 64.7746 63.6942C65.9909 62.8462 66.7972 61.4462 66.7972 59.8577C66.7972 57.2596 64.6516 55.1462 62.0139 55.1462C59.3763 55.1462 57.2306 57.2596 57.2306 59.8577C57.2306 61.4327 58.0233 62.8192 59.2259 63.6673C57.5723 64.2058 56.2193 65.2288 55.1943 66.4808C53.486 64.7846 52.4473 62.4423 52.4473 59.8577C52.4473 54.6346 56.6976 50.4481 62.0003 50.4481L62.0139 50.4615ZM63.9272 52.05C63.5446 52.05 63.2439 52.3596 63.2576 52.7365C63.2576 53.0462 63.4762 53.3154 63.7769 53.3827C66.1412 54.0019 67.9725 55.8192 68.6149 58.1481C68.7105 58.5115 69.0932 58.7135 69.4622 58.6192C69.8175 58.525 70.0362 58.1615 69.9405 57.7981C69.1889 55.0115 66.9749 52.8308 64.1459 52.0904C64.0776 52.0769 64.0092 52.0635 63.9409 52.0635L63.9272 52.05ZM62.0139 56.5058C63.9136 56.5058 65.4306 57.9865 65.4306 59.8712C65.4306 61.7558 63.9136 63.2365 62.0139 63.2365C60.1143 63.2365 58.5973 61.7558 58.5973 59.8712C58.5973 57.9865 60.1006 56.5058 62.0139 56.5058ZM61.5356 64.6096C63.9272 64.475 66.1002 65.6058 67.6035 67.3692C66.4556 68.2173 65.1299 68.85 63.6812 69.1327C63.1346 69.2269 62.5742 69.2942 62.0003 69.2942C61.4263 69.2942 60.8659 69.2404 60.3056 69.1327C58.8433 68.8365 57.5039 68.1904 56.3423 67.3288C57.299 66.1846 58.5153 65.2423 60.0596 64.8385C60.5653 64.7038 61.0163 64.6365 61.5219 64.6096H61.5356ZM28.2848 69.7923H32.9724L31.1274 98.8423C31.1001 99.2192 31.3871 99.5288 31.7698 99.5558C31.7834 99.5558 31.7971 99.5558 31.8108 99.5558H91.6977C92.0804 99.5558 92.3811 99.2596 92.3811 98.8827C92.3811 98.8692 92.3811 98.8558 92.3811 98.8423L90.5361 69.7923H95.7977C97.506 69.7923 98.859 71.1385 98.859 72.8346V72.875L101.633 97.0385C101.633 99.4885 99.843 101.925 96.5767 101.925H26.9318C25.2918 101.925 24.2395 101.333 23.5152 100.431C22.7908 99.5423 22.4355 98.2904 22.4355 97.025L25.2098 72.8615V72.8212C25.2098 71.125 26.5628 69.7788 28.2711 69.7788L28.2848 69.7923ZM34.3391 69.7923H42.867V90.8462C42.867 92.3269 44.097 93.5385 45.6004 93.5385H78.4002C79.9035 93.5385 81.1335 92.3269 81.1335 90.8462V69.7923H89.1557L90.9597 98.2096H32.5351L34.3391 69.7923ZM47.6503 73.3462C47.2677 73.3462 46.967 73.6423 46.967 74.0192V78.0577C46.967 78.4346 47.2677 78.7308 47.6503 78.7308H76.3502C76.7328 78.7308 77.0335 78.4346 77.0335 78.0577V74.0192C77.0335 73.6423 76.7328 73.3462 76.3502 73.3462H47.6503ZM48.3337 74.6923H75.6668V77.3846H48.3337V74.6923ZM27.8748 81.1538L27.3145 86.7269L28.6675 86.8615L29.2278 81.275L27.8611 81.1404L27.8748 81.1538ZM47.6503 81.4231C47.2677 81.4231 46.967 81.7192 46.967 82.0962V86.1346C46.967 86.5115 47.2677 86.8077 47.6503 86.8077H76.3502C76.7328 86.8077 77.0335 86.5115 77.0335 86.1346V82.0962C77.0335 81.7192 76.7328 81.4231 76.3502 81.4231H47.6503ZM48.3337 82.7692H75.6668V85.4615H48.3337V82.7692ZM95.1281 83.3346C93.7067 83.3077 92.7227 84.425 92.9277 85.8115C93.1327 87.1981 94.4584 88.3692 95.866 88.3962C97.2874 88.4231 98.2577 87.3058 98.0527 85.9192C97.8477 84.5327 96.522 83.3615 95.1144 83.3346H95.1281ZM95.333 84.6673C95.989 84.6808 96.604 85.2192 96.6997 85.8788C96.7954 86.5519 96.3444 87.0635 95.6884 87.05C95.0324 87.0365 94.4174 86.5115 94.3217 85.8385C94.2261 85.1654 94.677 84.6538 95.333 84.6673ZM27.6288 88.6519C27.1095 88.6519 26.6858 89.0692 26.6858 89.5808C26.6858 90.0923 27.1095 90.5096 27.6288 90.5096C28.1481 90.5096 28.5718 90.0923 28.5718 89.5808C28.5718 89.0692 28.1481 88.6519 27.6288 88.6519ZM101.633 100.875V101.683C101.633 103.904 99.8567 105.654 97.629 105.654H26.3715C24.1438 105.654 22.3398 103.89 22.3672 101.683V101.158C22.3672 101.158 22.4218 101.238 22.4492 101.279C23.4058 102.477 24.9502 103.271 26.9318 103.271H96.5767C98.8044 103.271 100.526 102.275 101.633 100.862V100.875Z" fill="black"/>
<rect x="57.5" y="91.5" width="79" height="29" fill="white" stroke="#CCCCCC"/>
<rect x="104" y="105" width="20" height="2" fill="#CCCCCC"/>
<rect x="118.414" y="99" width="10" height="2" transform="rotate(45 118.414 99)" fill="#CCCCCC"/>
<rect x="125.485" y="106.071" width="10" height="2" transform="rotate(135 125.485 106.071)" fill="#CCCCCC"/>
<path d="M78.4005 101.84C80.0105 101.84 81.2305 102.66 81.2305 104.41C81.2305 106.18 80.0105 106.98 78.4005 106.98H76.5405V110.06H74.9705V101.84H78.4005ZM76.5405 105.6H78.3205C79.1905 105.6 79.6605 105.17 79.6605 104.41C79.6605 103.65 79.1905 103.22 78.3205 103.22H76.5405V105.6ZM83.7475 110.06H82.1775V101.84H83.7475V110.06ZM88.4663 110.21C86.5563 110.21 84.8963 108.92 84.8963 106.65V105.25C84.8963 102.99 86.5463 101.69 88.4663 101.69C90.2363 101.69 91.4963 102.72 91.8963 104.42L90.4063 104.85C90.1363 103.74 89.5463 103.15 88.4663 103.15C87.3863 103.15 86.4663 103.88 86.4663 105.31V106.59C86.4663 108.03 87.3863 108.75 88.4663 108.75C89.5463 108.75 90.1363 108.16 90.4063 107.05L91.8963 107.48C91.4963 109.18 90.2363 110.21 88.4663 110.21ZM99.6779 110.06H97.6979L95.1179 106.69L94.5679 107.32V110.06H92.9979V101.84H94.5679V105.03L97.3279 101.84H99.3779L96.1779 105.49L99.6779 110.06Z" fill="black"/>
</svg>
