<svg width="158" height="150" viewBox="0 0 158 150" fill="none" xmlns="http://www.w3.org/2000/svg">
<rect x="0.5" y="0.5" width="157" height="149" fill="white" stroke="#CCCCCC"/>
<path d="M97.555 37.9V33.712H98.719V44.848H97.555V38.992H96.127V44.62H94.999V33.88H96.127V37.9H97.555ZM90.631 41.944H91.171C92.035 41.944 93.019 41.884 94.135 41.716L94.255 42.772C93.175 42.964 92.155 43.036 91.003 43.036H89.431V34.528H90.631V41.944ZM112.595 40.66L108.335 37.78C107.579 38.812 106.307 39.784 104.411 40.66L103.859 39.628C106.799 38.224 108.011 36.784 108.011 35.14V34.288H109.211V35.14C109.211 35.692 109.115 36.232 108.899 36.76L113.243 39.664L112.595 40.66ZM103.319 44.008V42.916H113.783V44.008H103.319ZM123.614 37.9H125.342V38.992H123.614V44.848H122.414V33.712H123.614V37.9ZM116.102 42.184H117.158C118.43 42.184 119.942 42.064 121.274 41.848L121.418 42.892C120.146 43.12 118.538 43.264 116.954 43.264H114.902V34.528H120.254V35.608H116.102V38.308H120.134V39.364H116.102V42.184ZM135.617 39.148H134.429V33.712H135.617V39.148ZM129.497 38.896C127.817 38.896 126.509 38.092 126.509 36.484V36.304C126.509 34.684 127.817 33.892 129.497 33.892C131.153 33.892 132.473 34.684 132.473 36.304V36.484C132.473 38.092 131.153 38.896 129.497 38.896ZM129.497 37.84C130.517 37.84 131.273 37.372 131.273 36.46V36.328C131.273 35.416 130.517 34.948 129.497 34.948C128.465 34.948 127.709 35.416 127.709 36.328V36.46C127.709 37.372 128.465 37.84 129.497 37.84ZM136.037 44.908H128.261V41.848H134.429V40.84H128.201V39.844H135.617V42.832H129.461V43.888H136.037V44.908Z" fill="black"/>
<path fill-rule="evenodd" clip-rule="evenodd" d="M64.4 43V44.3796H63V45.7592H64.4V47.1388H65.8V45.7592H67.2V44.3796H65.8V43H64.4ZM80.15 44.7245C78.806 44.7245 77.7 45.8144 77.7 47.1388C77.7 48.4632 78.806 49.5531 80.15 49.5531C81.494 49.5531 82.6 48.4632 82.6 47.1388C82.6 45.8144 81.494 44.7245 80.15 44.7245ZM80.15 46.1041C80.738 46.1041 81.2 46.5594 81.2 47.1388C81.2 47.7183 80.738 48.1735 80.15 48.1735C79.562 48.1735 79.1 47.7183 79.1 47.1388C79.1 46.5594 79.562 46.1041 80.15 46.1041ZM35 47.4837V48.8633H33.6V50.2429H35V51.6225H36.4V50.2429H37.8V48.8633H36.4V47.4837H35ZM49.63 48.4495C49.21 48.4495 48.86 48.7944 48.86 49.2082C48.86 49.6359 49.21 49.967 49.63 49.967C50.05 49.967 50.4 49.6221 50.4 49.2082C50.4 48.7944 50.05 48.4495 49.63 48.4495ZM55.3 50.9327C52.598 50.9327 50.4 53.0987 50.4 55.7614V59.2104H46.2C44.66 59.2104 43.4 60.452 43.4 61.9696V67.488H28.462C25.956 67.488 23.926 69.5161 23.926 71.9856V71.9028L21.084 96.7357V96.7633L21 101.537C20.958 104.558 23.464 107 26.502 107H99.498C102.536 107 105 104.558 105 101.551V96.7771V96.7357L102.144 71.9166V71.9994C102.144 69.5161 100.114 67.5018 97.608 67.5018H79.968C79.968 67.5018 79.856 67.5018 79.786 67.5018H76.986V64.0528C76.986 61.3902 74.788 59.2242 72.086 59.2242C71.596 59.2242 71.134 59.3208 70.686 59.4449C70.238 59.307 69.776 59.2242 69.286 59.2242C68.572 59.2242 67.886 59.3897 67.27 59.6657C66.836 59.4035 66.332 59.2242 65.786 59.2242H62.986V55.7752C62.986 53.1125 60.788 50.9465 58.086 50.9465C57.596 50.9465 57.134 51.0431 56.686 51.1673C56.238 51.0293 55.776 50.9465 55.286 50.9465L55.3 50.9327ZM54.614 52.3813C53.746 53.2505 53.2 54.4507 53.2 55.7614V59.2104H51.8V55.7614C51.8 54.0782 52.99 52.6848 54.614 52.3813ZM58.786 52.3813C60.396 52.6986 61.6 54.0782 61.6 55.7614V59.2104H60.2V55.7614C60.2 54.4369 59.654 53.2505 58.786 52.3813ZM56.7 52.6021C57.946 53.1263 58.8 54.3404 58.8 55.7614V59.2104H54.6V55.7614C54.6 54.3266 55.454 53.1263 56.7 52.6021ZM69.174 54.9336C68.768 54.9612 68.46 55.2923 68.46 55.6924C68.46 56.1063 68.81 56.4512 69.23 56.4512C69.65 56.4512 70 56.1063 70 55.6924C70 55.2785 69.65 54.9336 69.23 54.9336C69.216 54.9336 69.188 54.9336 69.174 54.9336ZM84 59.2104V60.59H82.6V61.9696H84V63.3492H85.4V61.9696H86.8V60.59H85.4V59.2104H84ZM46.2 60.59H47.992C47.754 61.0039 47.6 61.4729 47.6 61.9696V84.0433H44.8V61.9696C44.8 61.197 45.416 60.59 46.2 60.59ZM50.4 60.59V64.039C50.4 64.4253 50.708 64.7288 51.086 64.7426C51.478 64.7426 51.786 64.4391 51.8 64.0666C51.8 64.0666 51.8 64.0666 51.8 64.0528V60.6038H53.2V64.0528C53.2 64.4391 53.508 64.7426 53.886 64.7564C54.278 64.7564 54.586 64.4529 54.6 64.0804C54.6 64.0804 54.6 64.0804 54.6 64.0666V60.6176H58.8V64.0666C58.8 64.4529 59.108 64.7564 59.486 64.7702C59.878 64.7702 60.186 64.4667 60.2 64.0942C60.2 64.0942 60.2 64.0942 60.2 64.0804V60.6314H61.6V64.0804C61.6 64.4667 61.908 64.7702 62.286 64.784C62.678 64.784 62.986 64.4805 63 64.108C63 64.108 63 64.108 63 64.0942V60.6452H65.8C65.8 60.6452 65.842 60.6452 65.87 60.6452C64.96 61.5281 64.4 62.7422 64.4 64.0804V67.5294H60.2C58.66 67.5294 57.4 68.7711 57.4 70.2886V84.0847H49V61.9696C49 61.197 49.616 60.59 50.4 60.59ZM68.614 60.659C67.746 61.5281 67.2 62.7284 67.2 64.039V67.488H65.8V64.039C65.8 62.3559 66.99 60.9625 68.614 60.659ZM72.786 60.659C74.396 60.9763 75.6 62.3559 75.6 64.039V67.488H74.2V64.039C74.2 62.7146 73.654 61.5281 72.786 60.659ZM70.7 60.8797C71.946 61.404 72.8 62.618 72.8 64.039V67.488H68.6V64.039C68.6 62.6042 69.454 61.404 70.7 60.8797ZM37.03 63.6251C36.61 63.6251 36.26 63.97 36.26 64.3839C36.26 64.7978 36.61 65.1427 37.03 65.1427C37.45 65.1427 37.8 64.7978 37.8 64.3839C37.8 63.97 37.45 63.6251 37.03 63.6251ZM28.462 68.8676H33.264L31.374 98.6396C31.346 99.0259 31.64 99.3432 32.032 99.3708C32.046 99.3708 32.06 99.3708 32.074 99.3708H93.422C93.814 99.3708 94.122 99.0673 94.122 98.681C94.122 98.6672 94.122 98.6534 94.122 98.6396L92.232 68.8676H97.622C99.372 68.8676 100.758 70.2473 100.758 71.9856V72.0269L103.6 96.7909C103.6 99.3018 101.766 101.813 98.42 101.813H27.076C25.396 101.813 24.318 101.206 23.576 100.281C22.834 99.3708 22.47 98.0877 22.47 96.7909L25.312 72.0407V71.9994C25.312 70.261 26.698 68.8814 28.448 68.8814L28.462 68.8676ZM34.664 68.8676H43.4V84.7331C43.4 85.1194 43.708 85.4229 44.1 85.4229H81.9C82.292 85.4229 82.6 85.1194 82.6 84.7331V70.2473C82.6 69.7506 82.446 69.2815 82.208 68.8676H90.818L92.666 97.9912H32.816L34.664 68.8676ZM60.2 68.8676H61.992C61.754 69.2815 61.6 69.7506 61.6 70.2473V84.0433H58.8V70.2473C58.8 69.4747 59.416 68.8676 60.2 68.8676ZM64.4 68.8676V72.3167C64.4 72.703 64.708 73.0065 65.086 73.0203C65.478 73.0203 65.786 72.7167 65.8 72.3443C65.8 72.3443 65.8 72.3443 65.8 72.3305V68.8814H67.2V72.3305C67.2 72.7167 67.508 73.0203 67.886 73.0341C68.278 73.0341 68.586 72.7305 68.6 72.3581C68.6 72.3581 68.6 72.3581 68.6 72.3443V68.8952H72.8V72.3443C72.8 72.7305 73.108 73.0341 73.486 73.0479C73.878 73.0479 74.186 72.7443 74.2 72.3718C74.2 72.3718 74.2 72.3718 74.2 72.3581V68.909H75.6V72.3581C75.6 72.7443 75.908 73.0479 76.286 73.0617C76.678 73.0617 76.986 72.7581 77 72.3856C77 72.3856 77 72.3856 77 72.3718V68.9228H79.8C80.584 68.9228 81.2 69.5299 81.2 70.3024V84.0985H63V70.3024C63 69.5299 63.616 68.9228 64.4 68.9228V68.8676ZM28.042 80.4977L27.468 86.2093L28.868 86.3473L29.442 80.6219L28.056 80.4839L28.042 80.4977ZM96.936 82.7465C95.48 82.7189 94.486 83.864 94.696 85.285C94.906 86.706 96.264 87.9062 97.706 87.9338C99.162 87.9614 100.17 86.8163 99.96 85.3953C99.75 83.9743 98.392 82.7741 96.95 82.7465H96.936ZM97.146 84.1123C97.818 84.1261 98.448 84.6642 98.546 85.354C98.644 86.0438 98.182 86.568 97.496 86.5542C96.824 86.5542 96.194 86.0024 96.096 85.3126C95.998 84.6228 96.46 84.0985 97.132 84.1123H97.146ZM27.72 88.1959C27.216 88.2373 26.824 88.6512 26.824 89.1479C26.824 89.6721 27.258 90.0998 27.79 90.0998C28.322 90.0998 28.756 89.6721 28.756 89.1479C28.756 88.6236 28.322 88.1959 27.79 88.1959C27.762 88.1959 27.748 88.1959 27.72 88.1959ZM103.6 100.709V101.537C103.6 103.813 101.78 105.607 99.498 105.607H26.502C24.22 105.607 22.358 103.799 22.4 101.537V100.999C22.4 100.999 22.456 101.081 22.484 101.123C23.464 102.351 25.032 103.165 27.076 103.165H98.42C100.702 103.165 102.466 102.144 103.6 100.695V100.709Z" fill="black"/>
<rect x="57.5" y="91.5" width="79" height="29" fill="white" stroke="#CCCCCC"/>
<rect x="104" y="105" width="20" height="2" fill="#CCCCCC"/>
<rect x="118.414" y="99" width="10" height="2" transform="rotate(45 118.414 99)" fill="#CCCCCC"/>
<rect x="125.485" y="106.071" width="10" height="2" transform="rotate(135 125.485 106.071)" fill="#CCCCCC"/>
<path d="M78.4005 101.84C80.0105 101.84 81.2305 102.66 81.2305 104.41C81.2305 106.18 80.0105 106.98 78.4005 106.98H76.5405V110.06H74.9705V101.84H78.4005ZM76.5405 105.6H78.3205C79.1905 105.6 79.6605 105.17 79.6605 104.41C79.6605 103.65 79.1905 103.22 78.3205 103.22H76.5405V105.6ZM83.7475 110.06H82.1775V101.84H83.7475V110.06ZM88.4663 110.21C86.5563 110.21 84.8963 108.92 84.8963 106.65V105.25C84.8963 102.99 86.5463 101.69 88.4663 101.69C90.2363 101.69 91.4963 102.72 91.8963 104.42L90.4063 104.85C90.1363 103.74 89.5463 103.15 88.4663 103.15C87.3863 103.15 86.4663 103.88 86.4663 105.31V106.59C86.4663 108.03 87.3863 108.75 88.4663 108.75C89.5463 108.75 90.1363 108.16 90.4063 107.05L91.8963 107.48C91.4963 109.18 90.2363 110.21 88.4663 110.21ZM99.6779 110.06H97.6979L95.1179 106.69L94.5679 107.32V110.06H92.9979V101.84H94.5679V105.03L97.3279 101.84H99.3779L96.1779 105.49L99.6779 110.06Z" fill="black"/>
</svg>
