<svg width="65" height="77" viewBox="0 0 65 77" fill="none" xmlns="http://www.w3.org/2000/svg">
<path fill-rule="evenodd" clip-rule="evenodd" d="M2.75043 64.2039C4.49119 65.9714 6.64973 66.8904 8.46013 66.9965C10.0964 67.0672 11.5587 66.5369 12.6031 65.4765L33.5271 44.2318C34.5367 43.2067 34.5367 41.51 33.5271 40.4848L26.1463 32.9909C25.1366 31.9658 23.4655 31.9658 22.4558 32.9909C22.4558 32.9909 7.55493 48.1202 1.5319 54.2355C0.487442 55.296 -0.0347858 56.7807 0.0348446 58.4421C0.13929 60.2802 1.04449 62.4718 2.78525 64.2393L2.75043 64.2039ZM5.25713 57.9118L24.301 38.576L27.9915 42.323L8.94754 61.6588C8.94754 61.6588 8.59939 61.6588 8.46013 61.6588C7.79864 61.5174 7.06752 61.0932 6.47566 60.4569C5.84899 59.8207 5.4312 59.1137 5.29194 58.4421C5.29194 58.2653 5.29194 57.9825 5.29194 57.9118H5.25713Z" fill="#CCCCCC"/>
<path fill-rule="evenodd" clip-rule="evenodd" d="M56.5747 71.6979C55.8784 71.6979 55.217 71.4151 54.7295 70.9202C54.2421 70.4253 53.9636 69.7537 53.9636 69.0467V61.9769C53.9636 59.856 53.128 57.8411 51.6658 56.3565C50.2036 54.8718 48.2191 54.0234 46.1302 54.0234C41.8131 54.0234 38.2968 57.5937 38.2968 61.9769C38.2968 62.6839 38.0182 63.3555 37.5308 63.8504C37.0434 64.3453 36.3819 64.6281 35.6856 64.6281C34.9893 64.6281 34.3278 64.3453 33.8404 63.8504C33.353 63.3555 33.0745 62.6839 33.0745 61.9769V44.3025C33.0745 42.8532 31.8908 41.6514 30.4633 41.6514C29.0359 41.6514 27.8522 42.8532 27.8522 44.3025V61.9769C27.8522 64.0979 28.6878 66.1128 30.15 67.5974C31.6122 69.0821 33.5967 69.9304 35.6856 69.9304C37.7745 69.9304 39.759 69.0821 41.2212 67.5974C42.6835 66.1128 43.519 64.0979 43.519 61.9769C43.519 60.4923 44.7028 59.3258 46.1302 59.3258C46.8265 59.3258 47.488 59.6086 47.9754 60.1034C48.4628 60.5983 48.7413 61.27 48.7413 61.9769V69.0467C48.7413 71.1676 49.5769 73.1825 51.0391 74.6672C52.5014 76.1518 54.4858 77.0002 56.5747 77.0002C60.8918 77.0002 64.4082 73.43 64.4082 69.0467V26.6281C64.4082 25.1788 63.2245 23.9769 61.797 23.9769C60.3696 23.9769 59.1859 25.1788 59.1859 26.6281V69.0467C59.1859 70.496 58.0022 71.6979 56.5747 71.6979Z" fill="#CCCCCC"/>
<path fill-rule="evenodd" clip-rule="evenodd" d="M62.4585 29.8095C64.0948 28.1481 65 25.9211 65 23.5528C65 21.1844 64.0948 18.9574 62.4585 17.296C58.5592 13.3369 52.8147 7.50438 48.9154 3.54531C47.2791 1.88391 45.0857 0.964844 42.7531 0.964844C40.4205 0.964844 38.2271 1.88391 36.5908 3.54531C34.9545 5.2067 34.0493 7.43368 34.0493 9.80205C34.0493 12.1704 34.9545 14.3974 36.5908 16.0588C40.4901 20.0179 46.2346 25.8504 50.1339 29.8095C51.7702 31.4709 53.9636 32.39 56.2962 32.39C58.6288 32.39 60.8222 31.4709 62.4585 29.8095ZM58.7681 26.0979C58.1066 26.7695 57.2362 27.1583 56.2962 27.1583C55.3562 27.1583 54.4858 26.8048 53.8243 26.1332L40.2812 12.3825C39.6197 11.7109 39.2716 10.8272 39.2716 9.87275C39.2716 8.91833 39.6197 8.03461 40.2812 7.36298C40.9427 6.69136 41.8131 6.33787 42.7531 6.33787C43.6931 6.33787 44.5635 6.7267 45.225 7.36298L58.7681 21.1137C59.4296 21.7853 59.7777 22.669 59.7777 23.6234C59.7777 24.5779 59.4296 25.4616 58.7681 26.1332V26.0979Z" fill="#CCCCCC"/>
<path fill-rule="evenodd" clip-rule="evenodd" d="M45.225 47.3425C46.8613 45.6811 47.7665 43.4541 47.7665 41.0858C47.7665 38.7174 46.8613 36.4904 45.225 34.829C41.3257 30.87 35.5812 25.0374 31.6819 21.0783C30.0456 19.4169 27.8522 18.4979 25.5196 18.4979C23.187 18.4979 20.9936 19.4169 19.3573 21.0783C17.721 22.7397 16.8158 24.9667 16.8158 27.3351C16.8158 29.7034 17.721 31.9304 19.3573 33.5918C23.2566 37.5509 29.0011 43.3834 32.9004 47.3425C34.5367 49.0039 36.7301 49.923 39.0627 49.923C41.3953 49.923 43.5887 49.0039 45.225 47.3425ZM41.4998 43.5955C40.8383 44.2672 39.9679 44.6207 39.0279 44.6207C38.0879 44.6207 37.2175 44.2672 36.5908 43.5955L23.0477 29.8448C22.3862 29.1732 22.0381 28.2895 22.0381 27.3351C22.0381 26.3807 22.421 25.4969 23.0477 24.8253C23.7092 24.1537 24.5796 23.8002 25.4848 23.8002C26.39 23.8002 27.2952 24.189 27.9566 24.8253L41.4998 38.576C42.1612 39.2476 42.5094 40.1314 42.5094 41.0858C42.5094 42.0402 42.1612 42.9239 41.4998 43.5955Z" fill="#CCCCCC"/>
<path fill-rule="evenodd" clip-rule="evenodd" d="M57.5148 42.323C59.1511 40.6616 60.0563 38.4346 60.0563 36.0662C60.0563 33.6979 59.1511 31.4709 57.5148 29.8095C51.9095 24.1183 42.1961 14.256 36.5908 8.56484C34.9545 6.90345 32.7611 5.98438 30.4285 5.98438C28.0959 5.98438 25.9025 6.90345 24.2662 8.56484C22.6299 10.2262 21.7247 12.4886 21.7247 14.8216C21.7247 17.1546 22.6299 19.4169 24.2662 21.0783L45.1902 42.323C46.8265 43.9844 49.0198 44.9035 51.3525 44.9035C53.6851 44.9035 55.8784 43.9844 57.5148 42.323ZM53.8243 38.576C53.1629 39.2476 52.2925 39.6365 51.3525 39.6365C50.4125 39.6365 49.5421 39.283 48.8806 38.6114L27.9566 17.3667C27.2952 16.6951 26.947 15.8114 26.947 14.8569C26.947 13.9025 27.33 13.0188 27.9566 12.3472C28.6181 11.6755 29.4885 11.3221 30.3937 11.3221C31.2989 11.3221 32.2041 11.7109 32.8656 12.3472L53.7895 33.5918C54.451 34.2635 54.7992 35.1472 54.7992 36.0662C54.7992 36.9853 54.451 37.9044 53.7895 38.576H53.8243Z" fill="#CCCCCC"/>
</svg>
