<svg width="230" height="230" viewBox="0 0 230 230" fill="none" xmlns="http://www.w3.org/2000/svg">
<rect width="230" height="230" fill="white"/>
<path d="M112.387 192.613H60.3852L60.2484 192.458C60.1208 192.312 57.1112 188.737 57.3027 183.328C57.4851 178.103 57.3027 104.022 57.3027 103.274V102.818H57.7587C58.315 102.663 67.6082 97.1543 69.724 88.609C71.8855 79.8994 69.7332 50.1138 69.7149 49.8219L69.6876 49.4115L93.4632 45.4079L93.6182 45.5082C98.8622 49.0467 112.351 49.3295 112.478 49.3386L112.46 50.2506C111.904 50.2414 98.8166 49.9587 93.2534 46.3655L70.6543 50.1685C70.9188 53.9624 72.6971 80.4466 70.6087 88.837C68.5932 96.9537 60.3396 102.572 58.2147 103.575C58.2238 108.737 58.3971 178.303 58.2147 183.374C58.0597 187.797 60.2576 190.989 60.8139 191.719H112.378V192.631L112.387 192.613Z" fill="#828384"/>
<path d="M164.389 192.613H112.387V191.701H163.951C164.507 190.971 166.705 187.779 166.55 183.356C166.368 178.285 166.532 108.791 166.55 103.566C164.416 102.599 156.217 97.127 154.156 88.8187C152.077 80.4284 153.846 53.9533 154.111 50.1502L131.512 46.3472C125.948 49.9405 112.87 50.2232 112.305 50.2323L112.287 49.3203C112.424 49.3203 125.903 49.0285 131.147 45.49L131.302 45.3896L155.077 49.3933L155.05 49.8037C155.032 50.1046 152.879 79.8812 155.041 88.5907C157.166 97.1452 166.45 102.645 167.07 102.809H167.526L167.462 103.256C167.462 104.003 167.28 178.094 167.462 183.31C167.654 188.718 164.644 192.293 164.517 192.439L164.38 192.594L164.389 192.613Z" fill="#828384"/>
<path d="M93.0798 45.84L92.581 46.0649L112.141 89.4468L112.64 89.2219L93.0798 45.84Z" fill="#828384"/>
<path d="M57.8134 108.007L57.7496 107.46C69.3957 106.001 74.4208 93.5155 75.1778 83.2647C75.7797 75.1844 75.1778 49.1471 75.1778 48.8826H75.725C75.725 49.1288 76.3269 75.1936 75.725 83.3012C74.9498 93.7526 69.797 106.493 57.8134 107.998V108.007Z" fill="#828384"/>
<path d="M109.496 180.036H57.7587V180.583H109.496V180.036Z" fill="#828384"/>
<path d="M109.761 191.655H109.213V95.9505L87.6538 46.8944L88.1554 46.6756L109.761 95.8319V191.655Z" fill="#828384"/>
<path d="M112.469 54.8379C106.176 54.8379 96.0715 51.5912 95.3328 51.3541H95.1413V50.8069L95.4605 50.8251C95.5699 50.8616 106.058 54.2907 112.469 54.2907V54.8379Z" fill="#828384"/>
<path d="M109.742 95.9961L109.241 95.7772L112.141 89.2291L131.694 45.8456L132.196 46.0645L112.633 89.448L109.742 95.9961Z" fill="#828384"/>
<path d="M166.97 108.007C154.995 106.502 149.833 93.7617 149.058 83.3103C148.456 75.2027 149.058 49.1379 149.058 48.8826H149.605C149.605 49.1562 149.004 75.1936 149.605 83.2738C150.362 93.5246 155.387 106.01 167.034 107.469L166.97 108.016V108.007Z" fill="#828384"/>
<path d="M167.024 180.036H115.287V180.583H167.024V180.036Z" fill="#828384"/>
<path d="M115.561 191.655H115.014V95.8319L115.032 95.7772L136.619 46.6756L137.12 46.8944L115.561 95.9505V191.655Z" fill="#828384"/>
<path d="M112.305 54.8379V54.2907C118.716 54.2907 129.204 50.8525 129.314 50.8251L129.396 50.8069H129.633V51.3541H129.441C128.703 51.5912 118.598 54.8379 112.305 54.8379Z" fill="#828384"/>
<path d="M154.858 23.1185H66.7871V24.0305H154.858V23.1185Z" fill="black"/>
<path d="M67.2431 19.7441H66.3311V27.4049H67.2431V19.7441Z" fill="black"/>
<path d="M155.314 19.7441H154.402V27.4049H155.314V19.7441Z" fill="black"/>
<path d="M168.465 153.789H56.4724V154.701H168.465V153.789Z" fill="black"/>
<path d="M56.9284 150.415H56.0164V158.075H56.9284V150.415Z" fill="black"/>
<path d="M168.511 150.415H167.599V158.075H168.511V150.415Z" fill="black"/>
<path d="M195.871 46.6025H194.959V191.655H195.871V46.6025Z" fill="black"/>
<path d="M199.245 46.1465H191.584V47.0585H199.245V46.1465Z" fill="black"/>
<path d="M199.245 191.199H191.584V192.111H199.245V191.199Z" fill="black"/>
<path d="M156.509 100.009H68.4378V100.921H156.509V100.009Z" fill="black"/>
<path d="M68.8938 96.6347H67.9818V104.295H68.8938V96.6347Z" fill="black"/>
<path d="M156.965 96.6347H156.053V104.295H156.965V96.6347Z" fill="black"/>
<path d="M35.0315 54.3001H34.1195V102.189H35.0315V54.3001Z" fill="black"/>
<path d="M38.4059 53.8441H30.7451V54.7561H38.4059V53.8441Z" fill="black"/>
<path d="M38.4059 101.86H30.7451V102.772H38.4059V101.86Z" fill="black"/>
<path d="M163.559 205.098H61.3699V206.01H163.559V205.098Z" fill="black"/>
<path d="M61.8259 201.112H60.9139V210.004H61.8259V201.112Z" fill="black"/>
<path d="M164.005 201.112H163.093V210.004H164.005V201.112Z" fill="black"/>
<path d="M120.403 23.5759C120.403 28.8655 116.117 33.1518 110.827 33.1518C105.538 33.1518 101.252 28.8655 101.252 23.5759C101.252 18.2864 105.538 14 110.827 14C116.117 14 120.403 18.2864 120.403 23.5759Z" fill="black"/>
<path d="M113.272 27.4428L112.414 24.953H109.222L108.365 27.4428H106.614L109.742 18.4505H111.885L115.014 27.4428H113.262H113.272ZM109.76 23.4026H111.885L110.827 20.2927L109.77 23.4026H109.76Z" fill="white"/>
<path d="M122.054 100.466C122.054 105.755 117.768 110.041 112.478 110.041C107.189 110.041 102.902 105.755 102.902 100.466C102.902 95.176 107.189 90.8897 112.478 90.8897C117.768 90.8897 122.054 95.176 122.054 100.466Z" fill="black"/>
<path d="M116.227 102.335C116.227 104.159 114.959 104.962 113.117 104.962H109.104V95.9695H112.688C114.512 95.9695 115.798 96.772 115.798 98.5595C115.798 99.28 115.479 99.9093 114.667 100.256C115.734 100.63 116.217 101.359 116.217 102.335H116.227ZM110.818 97.4834V99.736H112.679C113.554 99.736 114.102 99.353 114.102 98.596C114.102 97.8391 113.554 97.4834 112.679 97.4834H110.818ZM113.107 103.457C113.983 103.457 114.53 103.092 114.53 102.308C114.53 101.523 113.983 101.14 113.107 101.14H110.818V103.457H113.107Z" fill="white"/>
<path d="M121.844 154.246C121.844 159.536 117.558 163.822 112.268 163.822C106.979 163.822 102.693 159.536 102.693 154.246C102.693 148.957 106.979 144.67 112.268 144.67C117.558 144.67 121.844 148.957 121.844 154.246Z" fill="black"/>
<path d="M108.438 155.012V153.48C108.438 151.009 110.244 149.586 112.341 149.586C114.275 149.586 115.652 150.717 116.09 152.568L114.457 153.043C114.165 151.83 113.518 151.182 112.332 151.182C111.147 151.182 110.144 151.985 110.144 153.544V154.949C110.144 156.526 111.147 157.311 112.332 157.311C113.518 157.311 114.156 156.663 114.457 155.45L116.09 155.924C115.652 157.785 114.275 158.907 112.341 158.907C110.253 158.907 108.438 157.493 108.438 155.012Z" fill="white"/>
<path d="M44.161 78.3133C44.161 83.6028 39.8746 87.8892 34.585 87.8892C29.2955 87.8892 25 83.6028 25 78.3133C25 73.0237 29.2864 68.7373 34.5759 68.7373C39.8655 68.7373 44.1518 73.0237 44.1518 78.3133H44.161Z" fill="black"/>
<path d="M38.8167 77.7752V78.8513C38.8167 81.3958 37.0474 82.8094 34.7218 82.8094H31.4204V73.8171H34.7218C37.0383 73.8171 38.8167 75.2398 38.8167 77.7752ZM37.093 77.8299C37.093 76.1427 36.0898 75.3766 34.7218 75.3766H33.135V81.2408H34.7218C36.0898 81.2408 37.093 80.4838 37.093 78.7875V77.8208V77.8299Z" fill="white"/>
<path d="M205 119.125C205 124.414 200.714 128.701 195.424 128.701C190.135 128.701 185.848 124.414 185.848 119.125C185.848 113.835 190.135 109.549 195.424 109.549C200.714 109.549 205 113.835 205 119.125Z" fill="black"/>
<path d="M194.467 122.116H198.744V123.63H192.752V114.638H198.634V116.152H194.467V118.249H198.425V119.754H194.467V122.116Z" fill="white"/>
<path d="M122.036 205.555C122.036 210.844 117.75 215.131 112.46 215.131C107.17 215.131 102.884 210.844 102.884 205.555C102.884 200.265 107.17 195.979 112.46 195.979C117.75 195.979 122.036 200.265 122.036 205.555Z" fill="black"/>
<path d="M115.679 202.573H111.621V204.78H115.251V206.294H111.621V210.06H109.906V201.068H115.679V202.582V202.573Z" fill="white"/>
</svg>
