<svg width="230" height="230" viewBox="0 0 230 230" fill="none" xmlns="http://www.w3.org/2000/svg">
<rect x="0.000488281" width="230" height="230" fill="white"/>
<path d="M178.569 132.61C175.914 125.982 174.382 114.313 172.906 103.026L172.721 101.624C171.207 90.1412 164.57 72.8661 160.477 69.7564C158.305 68.104 152.893 66.1825 148.131 64.4931C144.241 63.11 140.575 61.8104 139.442 60.9378C136.871 58.9699 131.041 53.0011 130.986 52.9361L130.846 52.7969H97.1965L97.0573 52.9361C97.0016 52.9918 91.172 58.9699 88.6007 60.9378C87.4682 61.8011 83.7923 63.11 79.9121 64.4931C75.1408 66.1918 69.7383 68.104 67.5661 69.7564C63.4725 72.8661 56.826 90.1505 55.3222 101.624L55.1366 103.026C53.6606 114.313 52.1197 125.982 49.4741 132.61C46.9585 138.903 36.7568 167.123 36.7568 172.85C36.7568 177.779 36.7568 183.906 45.594 187.405L46.5315 205.646H58.1906L61.1239 188.798C62.7577 188.788 68.5594 188.139 73.1357 179.886L70.2859 205.572L70.7222 205.646C70.9729 205.683 96.0269 209.832 114.045 209.832C132.062 209.832 157.107 205.692 157.358 205.646L157.794 205.572L154.944 179.886C159.521 188.139 165.322 188.788 166.956 188.798L169.889 205.646H181.548L182.486 187.405C191.323 183.906 191.323 177.779 191.323 172.85C191.323 167.123 181.121 138.903 178.606 132.61H178.569ZM130.141 53.7251C128.99 56.8998 122.91 72.4298 114.017 72.4298C105.124 72.4298 99.0438 56.8998 97.8927 53.7251H130.141ZM97.2986 54.0036C97.837 55.4889 99.3222 59.3412 101.587 63.1656C105.477 69.7378 109.654 73.0703 114.007 73.0703C118.361 73.0703 122.548 69.7378 126.428 63.1656C128.693 59.3412 130.178 55.4889 130.716 54.0036C132.109 55.4146 136.611 59.9446 138.857 61.6711C138.941 61.7361 139.043 61.8011 139.145 61.8661C138.495 64.196 134.615 76.9319 127.532 78.7792C119.8 80.7842 114.314 73.4787 114.258 73.4045L113.998 73.5994L113.738 73.4045C113.683 73.4787 108.196 80.7842 100.464 78.7792C93.3813 76.9412 89.5011 64.2053 88.8513 61.8661C88.9535 61.8011 89.0556 61.7361 89.1391 61.6711C91.3948 59.9446 95.8969 55.4146 97.2893 54.0036H97.2986ZM57.383 204.718H47.3855L46.5037 187.517C48.1189 187.851 53.0387 188.77 57.8564 188.77C58.6362 188.77 59.4159 188.733 60.1771 188.686L57.383 204.727V204.718ZM65.1712 186.793C62.6741 188.018 60.7805 187.86 60.7526 187.86L60.3256 187.823L60.2885 188.027C54.7189 188.464 48.1003 187.192 46.4665 186.848V186.756L46.1788 186.644C37.6573 183.395 37.6573 177.788 37.6573 172.841C37.6573 167.503 47.1627 140.815 50.3096 132.944C53.0108 126.204 54.5425 114.48 56.037 103.137L56.2227 101.735C57.7914 89.8163 64.54 73.191 68.1138 70.4804C68.5222 70.1648 69.0699 69.8399 69.7104 69.5057C70.7687 76.3842 80.5433 141.994 73.6741 176.619L73.4421 177.129C70.7965 183.042 67.4826 185.632 65.1712 186.774V186.793ZM156.745 204.801C153.338 205.349 130.642 208.904 114.017 208.904C97.3914 208.904 74.6952 205.349 71.2885 204.801L74.5189 175.728C77.1737 161.451 77.1459 142.264 76.1062 124.088C77.4429 123.262 88.2758 116.421 92.8522 110.387L92.3324 109.997C88.0716 115.613 78.2319 121.981 76.0598 123.345C74.5003 96.7412 70.8336 72.4855 70.3231 69.2087C72.9129 67.9555 76.7281 66.591 80.2092 65.3564C83.6066 64.1496 86.6235 63.0728 88.2851 62.2003C89.0741 65.0222 92.9543 77.4889 100.315 79.4011C101.309 79.661 102.265 79.7724 103.175 79.7724C108.893 79.7724 112.977 75.3538 114.007 74.11C115.038 75.3538 119.122 79.7724 124.84 79.7724C125.75 79.7724 126.706 79.661 127.699 79.4011C135.061 77.4889 138.941 65.0222 139.73 62.2003C141.391 63.0728 144.399 64.1496 147.806 65.3564C151.287 66.591 155.111 67.9555 157.692 69.2087C157.181 72.4855 153.515 96.7412 151.955 123.345C149.783 121.981 139.943 115.613 135.683 109.997L135.163 110.387C139.739 116.411 150.581 123.262 151.909 124.088C150.869 142.273 150.841 161.451 153.496 175.728L156.726 204.801H156.745ZM180.639 204.718H170.641L167.847 188.677C168.608 188.733 169.388 188.761 170.168 188.761C174.986 188.761 179.905 187.842 181.521 187.507L180.639 204.708V204.718ZM181.845 186.653L181.567 186.765V186.858C179.924 187.201 173.305 188.473 167.736 188.037L167.699 187.832L167.272 187.869C167.272 187.869 165.35 188.027 162.853 186.802C160.542 185.66 157.228 183.07 154.582 177.157L154.35 176.647C147.472 142.022 157.246 76.4121 158.314 69.5336C158.954 69.8678 159.502 70.1927 159.91 70.5083C163.475 73.2188 170.233 89.8441 171.802 101.763L171.987 103.165C173.472 114.508 175.013 126.232 177.715 132.972C180.861 140.843 190.367 167.54 190.367 172.869C190.367 177.816 190.367 183.414 181.845 186.672V186.653Z" fill="#828384"/>
<path d="M164.82 29.5899H63.2027V30.5181H164.82V29.5899Z" fill="black"/>
<path d="M63.6669 26.1553H62.7386V33.9527H63.6669V26.1553Z" fill="black"/>
<path d="M165.294 26.1553H164.366V33.9527H165.294V26.1553Z" fill="black"/>
<path d="M156.633 100.593H71.3994V101.522H156.633V100.593Z" fill="black"/>
<path d="M71.8636 97.1589H70.9353V104.956H71.8636V97.1589Z" fill="black"/>
<path d="M157.097 97.1589H156.169V104.956H157.097V97.1589Z" fill="black"/>
<path d="M51.4324 68.7351H50.5041V116.578H51.4324V68.7351Z" fill="black"/>
<path d="M54.867 68.271H47.0695V69.1993H54.867V68.271Z" fill="black"/>
<path d="M54.867 116.495H47.0695V117.423H54.867V116.495Z" fill="black"/>
<path d="M215.708 51.0518H214.78V208.57H215.708V51.0518Z" fill="black"/>
<path d="M219.143 50.5876H211.345V51.5159H219.143V50.5876Z" fill="black"/>
<path d="M219.143 208.115H211.345V209.043H219.143V208.115Z" fill="black"/>
<path d="M15.2017 66.0804H14.2735V206.24H15.2017V66.0804Z" fill="black"/>
<path d="M18.6363 65.6163H10.8389V66.5445H18.6363V65.6163Z" fill="black"/>
<path d="M18.6363 205.497H10.8389V206.426H18.6363V205.497Z" fill="black"/>
<path d="M123.764 30.0545C123.764 35.4384 119.401 39.8013 114.017 39.8013C108.633 39.8013 104.27 35.4384 104.27 30.0545C104.27 24.6705 108.633 20.3076 114.017 20.3076C119.401 20.3076 123.764 24.6705 123.764 30.0545Z" fill="black"/>
<path d="M116.505 33.9903L115.632 31.4561H112.383L111.511 33.9903H109.728L112.912 24.8376H115.094L118.278 33.9903H116.495H116.505ZM112.931 29.8781H115.094L114.017 26.7127L112.94 29.8781H112.931Z" fill="white"/>
<path d="M123.764 101.058C123.764 106.442 119.401 110.805 114.017 110.805C108.633 110.805 104.27 106.442 104.27 101.058C104.27 95.6741 108.633 91.3112 114.017 91.3112C119.401 91.3112 123.764 95.6741 123.764 101.058Z" fill="black"/>
<path d="M117.832 102.961C117.832 104.818 116.542 105.634 114.667 105.634H110.582V96.4817H114.23C116.087 96.4817 117.396 97.2986 117.396 99.118C117.396 99.8513 117.071 100.492 116.245 100.845C117.331 101.225 117.823 101.968 117.823 102.961H117.832ZM112.337 98.0226V100.315H114.23C115.122 100.315 115.679 99.9256 115.679 99.1551C115.679 98.3846 115.122 98.0226 114.23 98.0226H112.337ZM114.657 104.093C115.549 104.093 116.106 103.722 116.106 102.924C116.106 102.126 115.549 101.736 114.657 101.736H112.327V104.093H114.657Z" fill="white"/>
<path d="M24.4942 136.016C24.4942 141.4 20.1313 145.763 14.7473 145.763C9.36336 145.763 5.00049 141.4 5.00049 136.016C5.00049 130.632 9.36336 126.27 14.7473 126.27C20.1313 126.27 24.4942 130.632 24.4942 136.016Z" fill="black"/>
<path d="M10.8486 136.796V135.237C10.8486 132.721 12.6866 131.273 14.8216 131.273C16.7895 131.273 18.1912 132.424 18.6368 134.308L16.9752 134.791C16.6781 133.556 16.0191 132.897 14.8123 132.897C13.6056 132.897 12.5845 133.714 12.5845 135.302V136.731C12.5845 138.337 13.6056 139.135 14.8123 139.135C16.0191 139.135 16.6688 138.476 16.9752 137.242L18.6368 137.724C18.1912 139.618 16.7895 140.76 14.8216 140.76C12.6958 140.76 10.8486 139.321 10.8486 136.796Z" fill="white"/>
<path d="M60.7153 92.8518C60.7153 98.2358 56.3524 102.599 50.9684 102.599C45.5845 102.599 41.2216 98.2358 41.2216 92.8518C41.2216 87.4679 45.5845 83.105 50.9684 83.105C56.3524 83.105 60.7153 87.4679 60.7153 92.8518Z" fill="black"/>
<path d="M55.2756 92.3042V93.3995C55.2756 95.9894 53.4748 97.4282 51.1077 97.4282H47.7473V88.2755H51.1077C53.4655 88.2755 55.2756 89.7236 55.2756 92.3042ZM53.5305 92.3599C53.5305 90.6426 52.5094 89.8628 51.117 89.8628H49.5018V95.8316H51.117C52.5094 95.8316 53.5305 95.0611 53.5305 93.3345V92.3506V92.3599Z" fill="white"/>
<path d="M225 129.816C225 135.2 220.638 139.563 215.254 139.563C209.87 139.563 205.507 135.2 205.507 129.816C205.507 124.432 209.87 120.069 215.254 120.069C220.638 120.069 225 124.432 225 129.816Z" fill="black"/>
<path d="M214.279 132.851H218.633V134.392H212.534V125.239H218.521V126.78H214.279V128.915H218.308V130.447H214.279V132.851Z" fill="white"/>
</svg>
