<svg width="365" height="255" viewBox="0 0 365 255" fill="none" xmlns="http://www.w3.org/2000/svg">
<path d="M184.344 243.816L184.728 244.488L182.94 245.424L184.728 246.348L184.356 247.02L182.64 245.928L182.724 247.836H181.956L182.052 245.928L180.336 247.02L179.964 246.348L181.752 245.424L179.964 244.488L180.348 243.816L182.052 244.908L181.956 243.012H182.724L182.64 244.908L184.344 243.816ZM189.89 247.944L189.626 247.212C192.194 246.492 193.538 245.604 193.586 244.512H190.214V243.732H193.574V242.556H194.414V243.732H197.69V244.512H194.414C194.402 244.86 194.318 245.184 194.162 245.496L198.254 247.236L197.918 247.944L193.694 246.12C192.986 246.84 191.75 247.428 189.89 247.944ZM188.762 249.492V248.748H199.13V249.492H188.762ZM196.934 251.532H190.106V250.776H197.798V253.908H196.934V251.532ZM206.249 246.012V245.256H208.637V242.736H209.489V248.784H208.637V246.012H206.249ZM206.633 248.676L203.465 246.468C202.913 247.344 202.001 248.112 200.717 248.844L200.297 248.16C202.193 247.032 203.261 245.892 203.261 244.26V244.092H200.741V243.324H206.645V244.092H204.101V244.26C204.101 244.8 204.017 245.292 203.837 245.76L207.077 247.968L206.633 248.676ZM204.737 249.456H207.065C208.697 249.456 209.657 250.44 209.657 251.688C209.657 252.948 208.697 253.908 207.065 253.908H204.737C203.105 253.908 202.145 252.948 202.145 251.688C202.145 250.44 203.105 249.456 204.737 249.456ZM204.905 253.14H206.897C208.181 253.14 208.793 252.516 208.793 251.676C208.793 250.872 208.181 250.224 206.897 250.224H204.905C203.621 250.224 202.997 250.872 202.997 251.676C202.997 252.516 203.621 253.14 204.905 253.14ZM222.934 253.8V242.736H223.786V253.8H222.934ZM218.074 248.292C216.466 248.292 215.17 247.488 215.17 245.856V245.652C215.17 244.008 216.466 243.204 218.074 243.204C219.67 243.204 220.966 244.008 220.966 245.652V245.856C220.966 247.488 219.67 248.292 218.074 248.292ZM216.034 245.664V245.844C216.034 246.936 216.886 247.536 218.074 247.536C219.25 247.536 220.102 246.936 220.102 245.844V245.664C220.102 244.56 219.25 243.972 218.074 243.972C216.886 243.972 216.034 244.56 216.034 245.664ZM221.878 249.36L221.974 250.128C220.93 250.272 219.682 250.38 218.494 250.44C218.41 251.544 218.29 252.684 218.146 253.896L217.306 253.8C217.438 252.636 217.558 251.544 217.63 250.476C217.234 250.488 216.862 250.5 216.502 250.5H214.582L214.534 249.708H216.55C217.918 249.708 220.138 249.576 221.878 249.36ZM234.313 253.8V242.724H235.165V253.8H234.313ZM229.849 245.4V245.568C229.849 246.324 229.741 247.032 229.549 247.728L232.897 251.568L232.285 252.144L229.213 248.64C228.661 249.9 227.773 251.088 226.573 252.276L225.973 251.676C227.845 249.792 228.997 247.968 228.997 245.568V245.4H226.357V244.62H229.009V242.736H229.849V244.62H232.513V245.4H229.849ZM245.86 253.8V242.724H246.7V253.8H245.86ZM241.972 247.176H243.472V242.904H244.3V253.596H243.472V247.956H241.972V248.652C241.972 251.28 240.976 252.324 239.704 252.324C238.396 252.324 237.412 251.28 237.412 248.652V246.996C237.412 244.368 238.396 243.324 239.704 243.324C240.976 243.324 241.972 244.368 241.972 246.996V247.176ZM241.144 248.64V246.996C241.144 244.932 240.532 244.116 239.692 244.116C238.852 244.116 238.24 244.932 238.24 246.996V248.64C238.24 250.704 238.852 251.532 239.692 251.532C240.532 251.532 241.144 250.704 241.144 248.64ZM260.421 247.056H262.137V247.848H260.421V253.8H259.581V242.724H260.421V247.056ZM252.681 251.172H252.861C253.329 251.172 254.013 251.124 254.661 251.016L254.757 251.784C254.013 251.904 253.293 251.952 252.597 251.952H251.853V243.612H254.565V244.404H252.681V251.172ZM256.029 251.172H256.317C256.977 251.172 257.709 251.112 258.453 251.004L258.549 251.772C257.721 251.904 256.857 251.952 256.089 251.952H255.189V243.612H257.961V244.404H256.029V251.172ZM271.62 247.056H273.456V247.848H271.62V253.8H270.756V242.724H271.62V247.056ZM264.048 251.412H265.152C266.496 251.412 268.14 251.268 269.484 251.052L269.592 251.808C268.32 252.036 266.616 252.192 265.008 252.192H263.196V247.452H267.324V244.392H263.196V243.612H268.176V248.232H264.048V251.412ZM287.753 244.092V244.848H285.905V246.3H287.753V247.056H285.905V248.964H285.053V242.736H285.905V244.092H287.753ZM282.953 245.628V245.868C282.953 247.608 281.693 248.46 280.145 248.46C278.561 248.46 277.313 247.608 277.313 245.868V245.628C277.313 243.888 278.561 243.036 280.145 243.036C281.693 243.036 282.953 243.888 282.953 245.628ZM278.165 245.652V245.844C278.165 247.056 278.993 247.692 280.145 247.692C281.261 247.692 282.089 247.056 282.089 245.844V245.652C282.089 244.44 281.261 243.804 280.145 243.804C278.993 243.804 278.165 244.44 278.165 245.652ZM285.053 250.524H278.897V249.744H285.905V253.908H285.053V250.524ZM297.295 242.724V245.664H299.131V246.456H297.295V251.136H296.431V242.724H297.295ZM294.079 243.444V244.032C294.079 246.456 292.195 248.268 289.159 249.48L288.787 248.748C291.511 247.668 293.227 245.988 293.227 244.224H288.979V243.444H294.079ZM290.395 250.26H291.259V253.008H297.919V253.8H290.395V250.26ZM309.274 253.8H308.422V242.724H309.274V253.8ZM303.562 249.312C301.954 249.312 300.658 248.388 300.658 246.444V246.192C300.658 244.248 301.954 243.324 303.562 243.324C305.146 243.324 306.454 244.248 306.454 246.192V246.444C306.454 248.388 305.146 249.312 303.562 249.312ZM303.562 248.52C304.726 248.52 305.59 247.812 305.59 246.432V246.204C305.59 244.812 304.726 244.104 303.562 244.104C302.386 244.104 301.522 244.812 301.522 246.204V246.432C301.522 247.812 302.386 248.52 303.562 248.52ZM301.99 251.976H300.07L300.022 251.184H302.038C303.406 251.184 305.626 251.052 307.366 250.836L307.462 251.592C305.794 251.832 303.622 251.976 301.99 251.976ZM319.839 249.396V252.12H324.591V252.9H314.223V252.12H318.987V249.396H318.627C316.599 249.396 315.351 248.064 315.351 246.372C315.351 244.68 316.599 243.36 318.627 243.36H320.199C322.215 243.36 323.475 244.68 323.475 246.372C323.475 248.064 322.215 249.396 320.199 249.396H319.839ZM316.215 246.372C316.215 247.644 317.139 248.616 318.759 248.616H320.055C321.675 248.616 322.611 247.632 322.611 246.372C322.611 245.1 321.675 244.152 320.055 244.152H318.759C317.139 244.152 316.215 245.1 316.215 246.372ZM334.338 247.056H336.174V247.848H334.338V253.8H333.474V242.724H334.338V247.056ZM329.178 245.4V245.568C329.178 246.324 329.082 247.044 328.89 247.728L332.142 251.568L331.494 252.144L328.566 248.652C328.038 249.912 327.186 251.088 326.034 252.276L325.422 251.676C327.246 249.792 328.326 247.968 328.326 245.568V245.4H325.794V244.62H328.338V242.736H329.19V244.62H331.746V245.4H329.178ZM348.419 242.736H349.271V248.784H348.419V242.736ZM343.283 248.28C341.675 248.28 340.391 247.452 340.391 245.772V245.544C340.391 243.864 341.675 243.036 343.283 243.036C344.867 243.036 346.151 243.864 346.151 245.544V245.772C346.151 247.452 344.867 248.28 343.283 248.28ZM341.255 245.568V245.748C341.255 246.9 342.107 247.512 343.283 247.512C344.435 247.512 345.287 246.9 345.287 245.748V245.568C345.287 244.416 344.435 243.804 343.283 243.804C342.107 243.804 341.255 244.416 341.255 245.568ZM347.879 251.292L350.243 253.284L349.727 253.908L347.531 252.024C347.147 252.648 346.523 253.296 345.563 253.908L343.379 252.024C342.995 252.648 342.371 253.296 341.411 253.908L340.943 253.26C342.683 252.108 343.115 250.992 343.115 250.092V249.516H343.955V250.092C343.955 250.452 343.895 250.86 343.739 251.292L345.611 252.888C346.931 251.868 347.255 250.896 347.255 250.092V249.516H348.095V250.092C348.095 250.464 348.035 250.872 347.879 251.292ZM357.242 246.804H355.682C353.774 246.804 352.562 246.156 352.562 244.836C352.562 243.528 353.774 242.88 355.682 242.88H357.242C359.162 242.88 360.374 243.528 360.374 244.836C360.374 246.156 359.162 246.804 357.242 246.804ZM355.838 246.072H357.098C358.658 246.072 359.51 245.616 359.51 244.848C359.51 244.044 358.658 243.624 357.098 243.624H355.838C354.266 243.624 353.414 244.044 353.414 244.848C353.414 245.64 354.266 246.072 355.838 246.072ZM361.646 248.724H351.278V247.968H361.646V248.724ZM360.326 253.8H352.622V250.032H360.326V253.8ZM353.474 250.776V253.056H359.462V250.776H353.474ZM363.569 253.344C363.197 253.344 362.909 253.044 362.909 252.672C362.909 252.3 363.197 252.012 363.569 252.012C363.941 252.012 364.241 252.3 364.241 252.672C364.241 253.044 363.941 253.344 363.569 253.344Z" fill="#AAAAAA"/>
<rect x="0.000488281" width="230" height="230" fill="white"/>
<path d="M178.569 132.61C175.914 125.982 174.382 114.313 172.906 103.026L172.721 101.624C171.207 90.1412 164.57 72.8661 160.477 69.7564C158.305 68.104 152.893 66.1825 148.131 64.4931C144.241 63.11 140.575 61.8104 139.442 60.9378C136.871 58.9699 131.041 53.0011 130.986 52.9361L130.846 52.7969H97.1965L97.0573 52.9361C97.0016 52.9918 91.172 58.9699 88.6007 60.9378C87.4682 61.8011 83.7923 63.11 79.9121 64.4931C75.1408 66.1918 69.7383 68.104 67.5661 69.7564C63.4725 72.8661 56.826 90.1505 55.3222 101.624L55.1366 103.026C53.6606 114.313 52.1197 125.982 49.4741 132.61C46.9585 138.903 36.7568 167.123 36.7568 172.85C36.7568 177.779 36.7568 183.906 45.594 187.405L46.5315 205.646H58.1906L61.1239 188.798C62.7577 188.788 68.5594 188.139 73.1357 179.886L70.2859 205.572L70.7222 205.646C70.9729 205.683 96.0269 209.832 114.045 209.832C132.062 209.832 157.107 205.692 157.358 205.646L157.794 205.572L154.944 179.886C159.521 188.139 165.322 188.788 166.956 188.798L169.889 205.646H181.548L182.486 187.405C191.323 183.906 191.323 177.779 191.323 172.85C191.323 167.123 181.121 138.903 178.606 132.61H178.569ZM130.141 53.7251C128.99 56.8998 122.91 72.4298 114.017 72.4298C105.124 72.4298 99.0438 56.8998 97.8927 53.7251H130.141ZM97.2986 54.0036C97.837 55.4889 99.3222 59.3412 101.587 63.1656C105.477 69.7378 109.654 73.0703 114.007 73.0703C118.361 73.0703 122.548 69.7378 126.428 63.1656C128.693 59.3412 130.178 55.4889 130.716 54.0036C132.109 55.4146 136.611 59.9446 138.857 61.6711C138.941 61.7361 139.043 61.8011 139.145 61.8661C138.495 64.196 134.615 76.9319 127.532 78.7792C119.8 80.7842 114.314 73.4787 114.258 73.4045L113.998 73.5994L113.738 73.4045C113.683 73.4787 108.196 80.7842 100.464 78.7792C93.3813 76.9412 89.5011 64.2053 88.8513 61.8661C88.9535 61.8011 89.0556 61.7361 89.1391 61.6711C91.3948 59.9446 95.8969 55.4146 97.2893 54.0036H97.2986ZM57.383 204.718H47.3855L46.5037 187.517C48.1189 187.851 53.0387 188.77 57.8564 188.77C58.6362 188.77 59.4159 188.733 60.1771 188.686L57.383 204.727V204.718ZM65.1712 186.793C62.6741 188.018 60.7805 187.86 60.7526 187.86L60.3256 187.823L60.2885 188.027C54.7189 188.464 48.1003 187.192 46.4665 186.848V186.756L46.1788 186.644C37.6573 183.395 37.6573 177.788 37.6573 172.841C37.6573 167.503 47.1627 140.815 50.3096 132.944C53.0108 126.204 54.5425 114.48 56.037 103.137L56.2227 101.735C57.7914 89.8163 64.54 73.191 68.1138 70.4804C68.5222 70.1648 69.0699 69.8399 69.7104 69.5057C70.7687 76.3842 80.5433 141.994 73.6741 176.619L73.4421 177.129C70.7965 183.042 67.4826 185.632 65.1712 186.774V186.793ZM156.745 204.801C153.338 205.349 130.642 208.904 114.017 208.904C97.3914 208.904 74.6952 205.349 71.2885 204.801L74.5189 175.728C77.1737 161.451 77.1459 142.264 76.1062 124.088C77.4429 123.262 88.2758 116.421 92.8522 110.387L92.3324 109.997C88.0716 115.613 78.2319 121.981 76.0598 123.345C74.5003 96.7412 70.8336 72.4855 70.3231 69.2087C72.9129 67.9555 76.7281 66.591 80.2092 65.3564C83.6066 64.1496 86.6235 63.0728 88.2851 62.2003C89.0741 65.0222 92.9543 77.4889 100.315 79.4011C101.309 79.661 102.265 79.7724 103.175 79.7724C108.893 79.7724 112.977 75.3538 114.007 74.11C115.038 75.3538 119.122 79.7724 124.84 79.7724C125.75 79.7724 126.706 79.661 127.699 79.4011C135.061 77.4889 138.941 65.0222 139.73 62.2003C141.391 63.0728 144.399 64.1496 147.806 65.3564C151.287 66.591 155.111 67.9555 157.692 69.2087C157.181 72.4855 153.515 96.7412 151.955 123.345C149.783 121.981 139.943 115.613 135.683 109.997L135.163 110.387C139.739 116.411 150.581 123.262 151.909 124.088C150.869 142.273 150.841 161.451 153.496 175.728L156.726 204.801H156.745ZM180.639 204.718H170.641L167.847 188.677C168.608 188.733 169.388 188.761 170.168 188.761C174.986 188.761 179.905 187.842 181.521 187.507L180.639 204.708V204.718ZM181.845 186.653L181.567 186.765V186.858C179.924 187.201 173.305 188.473 167.736 188.037L167.699 187.832L167.272 187.869C167.272 187.869 165.35 188.027 162.853 186.802C160.542 185.66 157.228 183.07 154.582 177.157L154.35 176.647C147.472 142.022 157.246 76.4121 158.314 69.5336C158.954 69.8678 159.502 70.1927 159.91 70.5083C163.475 73.2188 170.233 89.8441 171.802 101.763L171.987 103.165C173.472 114.508 175.013 126.232 177.715 132.972C180.861 140.843 190.367 167.54 190.367 172.869C190.367 177.816 190.367 183.414 181.845 186.672V186.653Z" fill="#828384"/>
<path d="M164.82 29.5899H63.2027V30.5181H164.82V29.5899Z" fill="black"/>
<path d="M63.6669 26.1553H62.7386V33.9527H63.6669V26.1553Z" fill="black"/>
<path d="M165.294 26.1553H164.366V33.9527H165.294V26.1553Z" fill="black"/>
<path d="M156.633 100.593H71.3994V101.522H156.633V100.593Z" fill="black"/>
<path d="M71.8636 97.1589H70.9353V104.956H71.8636V97.1589Z" fill="black"/>
<path d="M157.097 97.1589H156.169V104.956H157.097V97.1589Z" fill="black"/>
<path d="M51.4324 68.7351H50.5041V116.578H51.4324V68.7351Z" fill="black"/>
<path d="M54.867 68.271H47.0695V69.1993H54.867V68.271Z" fill="black"/>
<path d="M54.867 116.495H47.0695V117.423H54.867V116.495Z" fill="black"/>
<path d="M215.708 51.0518H214.78V208.57H215.708V51.0518Z" fill="black"/>
<path d="M219.143 50.5876H211.345V51.5159H219.143V50.5876Z" fill="black"/>
<path d="M219.143 208.115H211.345V209.043H219.143V208.115Z" fill="black"/>
<path d="M15.2017 66.0804H14.2735V206.24H15.2017V66.0804Z" fill="black"/>
<path d="M18.6363 65.6163H10.8389V66.5445H18.6363V65.6163Z" fill="black"/>
<path d="M18.6363 205.497H10.8389V206.426H18.6363V205.497Z" fill="black"/>
<path d="M123.764 30.0545C123.764 35.4384 119.401 39.8013 114.017 39.8013C108.633 39.8013 104.27 35.4384 104.27 30.0545C104.27 24.6705 108.633 20.3076 114.017 20.3076C119.401 20.3076 123.764 24.6705 123.764 30.0545Z" fill="black"/>
<path d="M116.505 33.9903L115.632 31.4561H112.383L111.511 33.9903H109.728L112.912 24.8376H115.094L118.278 33.9903H116.495H116.505ZM112.931 29.8781H115.094L114.017 26.7127L112.94 29.8781H112.931Z" fill="white"/>
<path d="M123.764 101.058C123.764 106.442 119.401 110.805 114.017 110.805C108.633 110.805 104.27 106.442 104.27 101.058C104.27 95.6741 108.633 91.3112 114.017 91.3112C119.401 91.3112 123.764 95.6741 123.764 101.058Z" fill="black"/>
<path d="M117.832 102.961C117.832 104.818 116.542 105.634 114.667 105.634H110.582V96.4817H114.23C116.087 96.4817 117.396 97.2986 117.396 99.118C117.396 99.8513 117.071 100.492 116.245 100.845C117.331 101.225 117.823 101.968 117.823 102.961H117.832ZM112.337 98.0226V100.315H114.23C115.122 100.315 115.679 99.9256 115.679 99.1551C115.679 98.3846 115.122 98.0226 114.23 98.0226H112.337ZM114.657 104.093C115.549 104.093 116.106 103.722 116.106 102.924C116.106 102.126 115.549 101.736 114.657 101.736H112.327V104.093H114.657Z" fill="white"/>
<path d="M24.4942 136.016C24.4942 141.4 20.1313 145.763 14.7473 145.763C9.36336 145.763 5.00049 141.4 5.00049 136.016C5.00049 130.632 9.36336 126.27 14.7473 126.27C20.1313 126.27 24.4942 130.632 24.4942 136.016Z" fill="black"/>
<path d="M10.8486 136.796V135.237C10.8486 132.721 12.6866 131.273 14.8216 131.273C16.7895 131.273 18.1912 132.424 18.6368 134.308L16.9752 134.791C16.6781 133.556 16.0191 132.897 14.8123 132.897C13.6056 132.897 12.5845 133.714 12.5845 135.302V136.731C12.5845 138.337 13.6056 139.135 14.8123 139.135C16.0191 139.135 16.6688 138.476 16.9752 137.242L18.6368 137.724C18.1912 139.618 16.7895 140.76 14.8216 140.76C12.6958 140.76 10.8486 139.321 10.8486 136.796Z" fill="white"/>
<path d="M60.7153 92.8518C60.7153 98.2358 56.3524 102.599 50.9684 102.599C45.5845 102.599 41.2216 98.2358 41.2216 92.8518C41.2216 87.4679 45.5845 83.105 50.9684 83.105C56.3524 83.105 60.7153 87.4679 60.7153 92.8518Z" fill="black"/>
<path d="M55.2756 92.3042V93.3995C55.2756 95.9894 53.4748 97.4282 51.1077 97.4282H47.7473V88.2755H51.1077C53.4655 88.2755 55.2756 89.7236 55.2756 92.3042ZM53.5305 92.3599C53.5305 90.6426 52.5094 89.8628 51.117 89.8628H49.5018V95.8316H51.117C52.5094 95.8316 53.5305 95.0611 53.5305 93.3345V92.3506V92.3599Z" fill="white"/>
<path d="M225 129.816C225 135.2 220.638 139.563 215.254 139.563C209.87 139.563 205.507 135.2 205.507 129.816C205.507 124.432 209.87 120.069 215.254 120.069C220.638 120.069 225 124.432 225 129.816Z" fill="black"/>
<path d="M214.279 132.851H218.633V134.392H212.534V125.239H218.521V126.78H214.279V128.915H218.308V130.447H214.279V132.851Z" fill="white"/>
</svg>
