<svg width="230" height="230" viewBox="0 0 230 230" fill="none" xmlns="http://www.w3.org/2000/svg">
<rect width="230" height="230" fill="white"/>
<path d="M52.4505 198.071C52.1457 198.071 51.8147 198.062 51.4664 198.045C46.7986 197.775 38.4558 195.423 37.7417 194.161C36.984 192.846 37.8287 184.52 38.0465 182.552C36.9318 179.826 36.5834 163.933 36.7663 153.274C36.9666 141.195 40.2671 89.3268 47.8872 68.6526C55.6552 47.5691 79.4384 39.1828 83.9494 38.9738C87.9815 38.7909 102.682 38.9738 102.83 38.9738C103.073 38.9738 103.265 39.1741 103.256 39.4179C103.256 39.653 103.056 39.8446 102.821 39.8446C102.673 39.8446 87.9989 39.6618 83.9929 39.8446C79.5864 40.0449 56.3258 48.2658 48.7058 68.9487C41.1293 89.5184 37.8462 141.23 37.6372 153.283C37.4282 165.405 37.8984 180.305 38.8825 182.282C38.9173 182.361 38.9347 182.439 38.926 182.526C38.4732 186.689 38.0378 192.915 38.4993 193.725C39.0741 194.518 47.3298 197.191 52.3982 197.2C53.9396 197.217 54.9759 196.939 55.3243 196.46C57.2663 193.812 58.3723 186.018 58.3897 185.94C58.3897 185.888 58.4158 185.835 58.442 185.792L61.2113 180.802C61.2984 180.636 61.49 180.549 61.6728 180.584C61.8557 180.619 61.9951 180.767 62.0212 180.95L63.4581 191.513C66.8022 191.818 93.3721 194.257 102.812 194.257C103.056 194.257 103.248 194.448 103.248 194.692C103.248 194.936 103.056 195.127 102.812 195.127C92.7451 195.127 63.3275 192.375 63.0314 192.349C62.8311 192.332 62.6656 192.175 62.6395 191.975L61.3332 182.369L59.2344 186.149C59.1038 187.046 58.0065 194.274 56.021 196.982C55.481 197.723 54.3054 198.08 52.4417 198.08L52.4505 198.071Z" fill="#828384"/>
<path d="M153.191 198.071C151.328 198.071 150.152 197.705 149.612 196.974C147.627 194.265 146.529 187.037 146.399 186.14L144.3 182.361L142.994 191.966C142.967 192.166 142.802 192.323 142.602 192.341C142.306 192.367 112.888 195.119 102.821 195.119C102.577 195.119 102.385 194.927 102.385 194.683C102.385 194.439 102.577 194.248 102.821 194.248C112.261 194.248 138.84 191.818 142.175 191.505L143.612 180.941C143.638 180.758 143.777 180.61 143.96 180.575C144.143 180.54 144.326 180.628 144.422 180.793L147.191 185.783C147.217 185.827 147.235 185.879 147.243 185.931C147.252 186.009 148.358 193.804 150.309 196.451C150.666 196.93 151.711 197.226 153.235 197.191C158.303 197.183 166.568 194.509 167.143 193.708C167.595 192.907 167.169 186.68 166.716 182.517C166.707 182.439 166.716 182.352 166.759 182.273C167.752 180.297 168.214 165.396 168.005 153.274C167.804 141.221 164.521 89.5097 156.936 68.94C149.316 48.2571 126.055 40.0362 121.649 39.8359C117.643 39.653 102.969 39.8359 102.821 39.8359C102.568 39.8098 102.385 39.6443 102.377 39.4092C102.377 39.1654 102.568 38.9738 102.803 38.9651C102.952 38.9651 117.652 38.7822 121.684 38.9651C126.195 39.1741 149.978 47.5517 157.746 68.6439C165.366 89.3181 168.658 141.186 168.867 153.265C169.05 163.925 168.701 179.826 167.587 182.543C167.796 184.503 168.64 192.828 167.891 194.152C167.177 195.415 158.835 197.766 154.167 198.036C153.818 198.053 153.496 198.062 153.183 198.062L153.191 198.071Z" fill="#828384"/>
<path d="M55.3853 186.532C47.3734 186.532 38.4906 182.77 38.3861 182.726C38.2555 182.674 38.1945 182.517 38.2468 182.387C38.3077 182.256 38.4558 182.195 38.5864 182.247C38.6996 182.3 50.2646 187.185 58.7729 185.74C58.9209 185.713 59.0516 185.809 59.0777 185.957C59.1038 186.097 59.008 186.236 58.86 186.262C57.7366 186.454 56.5696 186.532 55.3765 186.532H55.3853Z" fill="#828384"/>
<path d="M102.821 99.0107C102.716 99.0107 102.621 98.9498 102.577 98.8453C102.02 97.4955 88.8785 65.683 87.9641 61.4593C87.0497 57.2357 85.9698 40.0972 85.9263 39.3657C85.9175 39.2176 86.0308 39.0957 86.1701 39.087C86.3007 39.0696 86.4401 39.1828 86.4488 39.3308C86.4575 39.505 87.5722 57.1573 88.4779 61.3461C89.3836 65.5262 102.934 98.3141 103.065 98.645C103.117 98.7756 103.065 98.9324 102.925 98.9846C102.891 99.002 102.856 99.002 102.83 99.002L102.821 99.0107Z" fill="#828384"/>
<path d="M100.417 194.91C100.269 194.91 100.156 194.796 100.156 194.648V107.859C98.3273 103.574 94.0688 91.6781 90.3067 81.1756C87.2064 72.5192 84.2803 64.3419 83.3572 62.2518C81.3281 57.645 80.1002 40.9593 80.048 40.2539C80.0392 40.1059 80.1437 39.984 80.2918 39.9753C80.4398 39.9753 80.5618 40.0711 80.5705 40.2191C80.5792 40.3933 81.8506 57.5144 83.8362 62.0428C84.7593 64.1503 87.5635 71.9619 90.8031 81.0014C94.5739 91.5301 98.8498 103.47 100.661 107.702C100.679 107.737 100.679 107.772 100.679 107.806V194.648C100.679 194.796 100.565 194.91 100.417 194.91Z" fill="#828384"/>
<path d="M58.8251 86.9929C58.7206 86.9929 58.6161 86.9232 58.5813 86.8187C57.127 82.6386 48.6796 67.7295 48.5926 67.5815C48.5229 67.4596 48.5664 67.2941 48.6883 67.2244C48.819 67.1548 48.9757 67.1983 49.0454 67.3202C49.3937 67.9385 57.5972 82.4209 59.069 86.6446C59.1125 86.7839 59.0429 86.9319 58.9122 86.9755C58.8861 86.9842 58.8513 86.9929 58.8251 86.9929Z" fill="#828384"/>
<path d="M97.5174 182.796C86.3356 182.796 61.8557 181.289 61.5771 181.272C61.49 181.272 61.4116 181.22 61.368 181.141C54.5928 169.785 57.484 116.175 58.5378 100.012L58.5639 99.6552C58.9296 93.9946 59.844 61.5464 59.8615 61.2155C59.8615 61.0674 59.9747 60.9542 60.1314 60.9629C60.2795 60.9629 60.3927 61.0849 60.384 61.2329C60.3753 61.5638 59.4522 94.0207 59.0864 99.69L59.0603 100.047C58.0152 116.114 55.1414 169.28 61.7512 180.758C63.9719 180.898 91.7784 182.578 100.409 182.23C100.583 182.239 100.679 182.334 100.679 182.482C100.679 182.631 100.574 182.744 100.426 182.752C99.6161 182.787 98.6321 182.796 97.5174 182.796Z" fill="#828384"/>
<path d="M102.821 46.1409C98.7801 46.1409 86.9277 44.0422 86.4226 43.9551C86.2833 43.929 86.1875 43.7896 86.2136 43.6503C86.2398 43.5109 86.3791 43.4152 86.5184 43.4413C86.6404 43.4587 98.8237 45.6271 102.821 45.6271C102.969 45.6271 103.082 45.7403 103.082 45.8884C103.082 46.0364 102.969 46.1496 102.821 46.1496V46.1409Z" fill="#828384"/>
<path d="M150.257 186.532C149.063 186.532 147.897 186.445 146.773 186.262C146.634 186.236 146.538 186.105 146.555 185.957C146.582 185.818 146.712 185.722 146.86 185.74C155.368 187.185 166.934 182.291 167.047 182.247C167.177 182.195 167.334 182.247 167.386 182.387C167.439 182.526 167.386 182.674 167.247 182.726C167.143 182.77 158.268 186.532 150.248 186.532H150.257Z" fill="#828384"/>
<path d="M102.821 99.0107C102.821 99.0107 102.751 99.0107 102.725 98.9933C102.594 98.9411 102.525 98.7843 102.586 98.6537C102.725 98.3228 116.267 65.535 117.173 61.3548C118.078 57.1747 119.193 39.5224 119.202 39.3395C119.21 39.1915 119.341 39.0783 119.48 39.0957C119.628 39.1044 119.733 39.2263 119.724 39.3744C119.681 40.1059 118.601 57.2444 117.686 61.468C116.763 65.6917 103.631 97.5042 103.073 98.854C103.03 98.9585 102.934 99.0195 102.83 99.0195L102.821 99.0107Z" fill="#828384"/>
<path d="M105.224 194.91C105.076 194.91 104.963 194.796 104.963 194.648V107.806C104.963 107.806 104.963 107.737 104.981 107.702C106.792 103.47 111.068 91.5388 114.839 81.0014C118.078 71.9532 120.874 64.1503 121.806 62.0428C123.8 57.5144 125.063 40.3933 125.071 40.2191C125.08 40.0711 125.202 39.9753 125.35 39.9753C125.498 39.984 125.603 40.1146 125.594 40.2539C125.542 40.9593 124.314 57.645 122.285 62.2518C121.361 64.3419 118.435 72.5192 115.335 81.1756C111.573 91.6694 107.315 103.565 105.486 107.859V194.648C105.486 194.796 105.373 194.91 105.224 194.91Z" fill="#828384"/>
<path d="M146.817 86.9929C146.817 86.9929 146.756 86.9929 146.73 86.9755C146.59 86.9319 146.521 86.7752 146.573 86.6446C148.045 82.4209 156.248 67.9385 156.596 67.3202C156.666 67.1983 156.823 67.146 156.953 67.2244C157.075 67.2941 157.119 67.4508 157.049 67.5815C156.962 67.7295 148.515 82.6386 147.061 86.8187C147.026 86.9232 146.921 86.9929 146.817 86.9929Z" fill="#828384"/>
<path d="M108.124 182.796C107.01 182.796 106.026 182.779 105.216 182.752C105.068 182.752 104.963 182.622 104.963 182.482C104.963 182.334 105.068 182.23 105.233 182.23C113.863 182.587 141.661 180.898 143.882 180.758C150.492 169.289 147.618 116.123 146.573 100.056L146.547 99.69C146.181 94.0207 145.258 61.5638 145.249 61.2329C145.249 61.0849 145.362 60.9717 145.502 60.9629C145.641 60.9542 145.763 61.0762 145.772 61.2155C145.78 61.5464 146.703 93.9946 147.069 99.6552L147.095 100.021C148.14 116.184 151.04 169.794 144.265 181.141C144.222 181.22 144.143 181.263 144.056 181.272C143.786 181.289 119.298 182.796 108.124 182.796Z" fill="#828384"/>
<path d="M102.821 46.1409C102.673 46.1409 102.56 46.0277 102.56 45.8797C102.56 45.7316 102.673 45.6184 102.821 45.6184C106.818 45.6184 119.001 43.4587 119.123 43.4326C119.263 43.4064 119.402 43.5022 119.428 43.6416C119.454 43.7809 119.358 43.9203 119.219 43.9464C118.714 44.0335 106.87 46.1322 102.821 46.1322V46.1409Z" fill="#828384"/>
<path d="M144.874 14.4243H60.7757V15.2952H144.874V14.4243Z" fill="black"/>
<path d="M61.2111 11.2021H60.3403V18.5174H61.2111V11.2021Z" fill="black"/>
<path d="M145.31 11.2021H144.439V18.5174H145.31V11.2021Z" fill="black"/>
<path d="M145.083 92.9495H60.9845V93.8204H145.083V92.9495Z" fill="black"/>
<path d="M61.4199 89.7274H60.549V97.0426H61.4199V89.7274Z" fill="black"/>
<path d="M145.519 89.7274H144.648V97.0426H145.519V89.7274Z" fill="black"/>
<path d="M145.083 215.506H60.9845V216.377H145.083V215.506Z" fill="black"/>
<path d="M61.4199 212.284H60.549V219.599H61.4199V212.284Z" fill="black"/>
<path d="M145.519 212.284H144.648V219.599H145.519V212.284Z" fill="black"/>
<path d="M179.779 56.6781H178.908V102.407H179.779V56.6781Z" fill="black"/>
<path d="M183.001 56.2427H175.686V57.1136H183.001V56.2427Z" fill="black"/>
<path d="M183.001 102.102H175.686V102.973H183.001V102.102Z" fill="black"/>
<path d="M17.4329 60.2228H16.562V191.2H17.4329V60.2228Z" fill="black"/>
<path d="M20.6551 59.7874H13.3398V60.6582H20.6551V59.7874Z" fill="black"/>
<path d="M20.6551 191.122H13.3398V191.992H20.6551V191.122Z" fill="black"/>
<path d="M214.43 39.3307H213.559V194.222H214.43V39.3307Z" fill="black"/>
<path d="M217.652 38.8953H210.337V39.7661H217.652V38.8953Z" fill="black"/>
<path d="M217.652 194.213H210.337V195.084H217.652V194.213Z" fill="black"/>
<path d="M111.974 14.8589C111.974 19.9098 107.881 24.0029 102.83 24.0029C97.7787 24.0029 93.6856 19.9098 93.6856 14.8589C93.6856 9.80788 97.77 5.71484 102.821 5.71484C107.872 5.71484 111.965 9.80788 111.965 14.8589H111.974Z" fill="black"/>
<path d="M105.164 18.5513L104.345 16.1739H101.297L100.478 18.5513H98.8063L101.793 9.96463H103.84L106.827 18.5513H105.155H105.164ZM101.811 14.6934H103.84L102.83 11.7238L101.819 14.6934H101.811Z" fill="white"/>
<path d="M112.182 93.3841C112.182 98.4351 108.089 102.528 103.038 102.528C97.9875 102.528 93.8944 98.4351 93.8944 93.3841C93.8944 88.3331 97.9875 84.2401 103.038 84.2401C108.089 84.2401 112.182 88.3331 112.182 93.3841Z" fill="black"/>
<path d="M106.618 95.178C106.618 96.9198 105.407 97.6861 103.648 97.6861H99.8163V89.0995H103.239C104.98 89.0995 106.208 89.8658 106.208 91.5727C106.208 92.2607 105.904 92.8616 105.129 93.1925C106.147 93.5495 106.609 94.2462 106.609 95.178H106.618ZM101.453 90.5364V92.6874H103.23C104.066 92.6874 104.589 92.3216 104.589 91.5988C104.589 90.876 104.066 90.5364 103.23 90.5364H101.453ZM103.639 96.2405C104.475 96.2405 104.998 95.8922 104.998 95.1432C104.998 94.3943 104.475 94.0285 103.639 94.0285H101.453V96.2405H103.639Z" fill="white"/>
<path d="M26.1503 125.885C26.1503 130.936 22.0573 135.029 17.0063 135.029C11.9553 135.029 7.8623 130.936 7.8623 125.885C7.8623 120.834 11.9553 116.741 17.0063 116.741C22.0573 116.741 26.1503 120.834 26.1503 125.885Z" fill="black"/>
<path d="M13.3487 126.616V125.153C13.3487 122.793 15.073 121.435 17.076 121.435C18.9222 121.435 20.2372 122.515 20.6552 124.282L19.0964 124.735C18.8177 123.577 18.1994 122.959 17.0673 122.959C15.9352 122.959 14.9772 123.725 14.9772 125.214V126.555C14.9772 128.062 15.9352 128.811 17.0673 128.811C18.1994 128.811 18.809 128.193 19.0964 127.034L20.6552 127.487C20.2372 129.264 18.9222 130.335 17.076 130.335C15.0817 130.335 13.3487 128.985 13.3487 126.616Z" fill="white"/>
<path d="M188.487 79.6068C188.487 84.6578 184.394 88.7508 179.343 88.7508C174.292 88.7508 170.199 84.6578 170.199 79.6068C170.199 74.5559 174.292 70.4628 179.343 70.4628C184.394 70.4628 188.487 74.5559 188.487 79.6068Z" fill="black"/>
<path d="M183.384 79.093V80.1206C183.384 82.5503 181.694 83.9002 179.474 83.9002H176.321V75.3135H179.474C181.686 75.3135 183.384 76.672 183.384 79.093ZM181.747 79.1453C181.747 77.5342 180.789 76.8027 179.482 76.8027H177.967V82.4023H179.482C180.789 82.4023 181.747 81.6795 181.747 80.0597V79.1366V79.1453Z" fill="white"/>
<path d="M223 117.411C223 122.462 218.907 126.555 213.856 126.555C208.805 126.555 204.712 122.462 204.712 117.411C204.712 112.36 208.805 108.267 213.856 108.267C218.907 108.267 223 112.36 223 117.411Z" fill="black"/>
<path d="M212.942 120.268H217.026V121.713H211.304V113.127H216.921V114.572H212.942V116.575H216.721V118.012H212.942V120.268Z" fill="white"/>
<path d="M111.965 216.14C111.965 221.191 107.872 225.284 102.821 225.284C97.77 225.284 93.6769 221.191 93.6769 216.14C93.6769 211.089 97.77 206.996 102.821 206.996C107.872 206.996 111.965 211.089 111.965 216.14Z" fill="black"/>
<path d="M105.886 213.293H102.011V215.4H105.477V216.846H102.011V220.442H100.374V211.856H105.886V213.301V213.293Z" fill="white"/>
</svg>
