<svg width="230" height="230" viewBox="0 0 230 230" fill="none" xmlns="http://www.w3.org/2000/svg">
<rect width="230" height="230" fill="white"/>
<path d="M106.599 207.629C100.505 207.629 83.2105 204.82 78.5841 203.846C73.789 202.834 68.8504 199.163 68.6381 199.007C68.5569 198.945 68.507 198.845 68.5132 198.739L71.4352 145.931C68.6943 145.849 58.7296 145.437 57.7306 143.777C56.6067 141.904 56.9002 117.416 57.6869 109.843C58.305 103.893 59.6786 93.9031 60.6775 86.6044C61.0397 83.9571 61.3581 81.6158 61.5891 79.8676C62.4632 73.2432 71.9784 42.9245 73.7078 39.6029C75.3998 36.3438 84.965 30.8245 87.4374 29.5258C89.6414 28.3645 93.1003 25.5237 96.1909 22.8952C98.782 20.6912 106.305 21.4029 106.624 21.4404C106.792 21.4591 106.924 21.609 106.905 21.7838C106.886 21.9586 106.736 22.0773 106.561 22.0648C106.487 22.0585 98.9818 21.3468 96.5967 23.3759C93.4749 26.0294 89.9848 28.9015 87.7246 30.0877C85.4395 31.2927 75.8619 36.8183 74.2573 39.9026C72.5403 43.2054 63.0751 73.368 62.2072 79.9612C61.9762 81.7157 61.6578 84.0508 61.2894 86.698C60.2904 93.9905 58.9231 103.974 58.305 109.912C57.4122 118.478 57.3809 141.991 58.2613 143.458C58.9293 144.576 66.9024 145.194 71.7661 145.319C71.8535 145.319 71.9284 145.356 71.9846 145.419C72.0408 145.481 72.072 145.562 72.0658 145.65L69.1376 198.608C69.9617 199.201 74.4696 202.347 78.7027 203.24C83.3104 204.208 100.536 207.011 106.586 207.011C106.761 207.011 106.899 207.149 106.899 207.324C106.899 207.498 106.761 207.636 106.586 207.636L106.599 207.629Z" fill="#828384"/>
<path d="M106.599 207.629C106.424 207.629 106.287 207.492 106.287 207.317C106.287 207.142 106.424 207.005 106.599 207.005C112.649 207.005 129.875 204.202 134.483 203.234C138.716 202.341 143.217 199.201 144.048 198.601L141.12 145.643C141.12 145.562 141.144 145.475 141.201 145.412C141.257 145.35 141.338 145.313 141.419 145.313C146.283 145.181 154.256 144.563 154.924 143.452C155.804 141.985 155.773 118.471 154.88 109.905C154.262 103.968 152.895 93.9843 151.896 86.6918C151.534 84.0445 151.215 81.7032 150.978 79.955C150.11 73.368 140.645 43.2054 138.928 39.8964C137.323 36.812 127.746 31.2865 125.461 30.0815C123.207 28.8952 119.71 26.0232 116.589 23.3697C114.204 21.3405 106.699 22.0523 106.624 22.0585C106.455 22.071 106.299 21.9524 106.28 21.7776C106.262 21.609 106.387 21.4529 106.561 21.4342C106.88 21.403 114.403 20.6912 116.994 22.8889C120.091 25.5175 123.55 28.3645 125.748 29.5196C128.214 30.8182 137.779 36.3375 139.477 39.5967C141.207 42.9182 150.722 73.2369 151.596 79.8614C151.827 81.6095 152.146 83.9509 152.508 86.5981C153.507 93.8969 154.874 103.887 155.498 109.837C156.285 117.41 156.579 141.897 155.455 143.77C154.456 145.431 144.491 145.843 141.75 145.924L144.672 198.732C144.672 198.839 144.628 198.938 144.547 199.001C144.341 199.157 139.403 202.828 134.601 203.84C129.981 204.814 112.68 207.623 106.586 207.623L106.599 207.629Z" fill="#828384"/>
<path d="M71.7723 145.818H71.7599C71.6537 145.818 71.5788 145.725 71.585 145.618C72.4342 130.297 81.3562 59.0641 81.762 55.8237C78.8837 53.551 74.9566 39.1284 74.788 38.504C74.763 38.4041 74.8192 38.3043 74.9191 38.273C75.0252 38.2481 75.1251 38.3043 75.1501 38.4041C75.1938 38.554 79.2958 53.6259 82.068 55.5802C82.1242 55.6176 82.1554 55.6863 82.1429 55.755C82.0492 56.498 72.8213 130.041 71.9597 145.631C71.9597 145.731 71.8722 145.806 71.7723 145.806V145.818Z" fill="#828384"/>
<path d="M86.0826 120.257H74.2635C74.1574 120.257 74.0762 120.176 74.0762 120.07C74.0762 119.964 74.1574 119.883 74.2635 119.883H86.0826C86.888 119.883 87.4811 119.645 87.8433 119.183C88.555 118.265 88.1742 116.736 88.1679 116.717C88.1679 116.698 88.1617 116.68 88.1679 116.667L88.7923 93.6034C83.9348 94.1903 77.4103 93.5847 77.3478 93.5784C77.2417 93.566 77.1668 93.4785 77.1793 93.3724C77.1917 93.2725 77.2729 93.1913 77.3853 93.2038C77.454 93.2101 84.1346 93.8344 88.9671 93.2038C89.0233 93.2038 89.0732 93.2163 89.1169 93.2538C89.1544 93.2912 89.1794 93.3412 89.1794 93.3974L88.5488 116.655C88.605 116.886 88.9296 118.409 88.1554 119.414C87.7184 119.976 87.0253 120.263 86.0951 120.263L86.0826 120.257Z" fill="#828384"/>
<path d="M96.5093 46.7393C95.4979 46.7393 94.0244 42.7309 92.1263 36.7246L91.9453 36.1627C91.0712 33.4155 89.9723 28.2584 89.9598 28.2084C89.9348 28.1085 90.0035 28.0086 90.1034 27.9837C90.2096 27.9649 90.3032 28.0274 90.3282 28.1273C90.3407 28.1772 91.4395 33.3156 92.3074 36.0441L92.4885 36.6122C94.5363 43.0868 95.8849 46.3647 96.4968 46.3647C96.4968 46.3647 96.5093 46.3647 96.5156 46.3647C97.2773 46.2773 101.192 42.1753 103.577 39.5155C103.059 39.0347 101.198 37.2179 99.5312 34.6143C97.733 31.7922 95.7975 27.4342 96.809 22.7016C96.8277 22.6017 96.9339 22.5393 97.0338 22.558C97.1337 22.5767 97.2023 22.6766 97.1774 22.7828C96.1909 27.3905 98.0827 31.6486 99.8434 34.4083C101.76 37.4114 103.939 39.3469 103.964 39.3657C104.002 39.3969 104.027 39.4468 104.027 39.4968C104.027 39.5467 104.014 39.5967 103.977 39.6341C103.34 40.3459 97.7268 46.6144 96.553 46.7455C96.5405 46.7455 96.528 46.7455 96.5093 46.7455V46.7393Z" fill="#828384"/>
<path d="M106.599 39.6841H103.827C103.721 39.6841 103.639 39.6029 103.639 39.4968C103.639 39.3906 103.721 39.3095 103.827 39.3095H106.599C106.705 39.3095 106.786 39.3906 106.786 39.4968C106.786 39.6029 106.705 39.6841 106.599 39.6841Z" fill="#828384"/>
<path d="M75.4997 40.5332C75.4498 40.5332 75.3936 40.5145 75.3561 40.4708C75.2875 40.3958 75.2937 40.2772 75.3749 40.2085C75.4623 40.1336 84.2595 32.4228 90.6341 30.4249C90.734 30.3937 90.8402 30.4499 90.8714 30.5498C90.9026 30.6497 90.8464 30.7558 90.7465 30.787C84.453 32.76 75.712 40.4146 75.6246 40.4957C75.5872 40.527 75.5434 40.5394 75.4997 40.5394V40.5332Z" fill="#828384"/>
<path d="M106.599 28.2896H96.9838C96.8777 28.2896 96.7965 28.2084 96.7965 28.1023C96.7965 27.9961 96.8777 27.915 96.9838 27.915H106.599C106.705 27.915 106.786 27.9961 106.786 28.1023C106.786 28.2084 106.705 28.2896 106.599 28.2896Z" fill="#828384"/>
<path d="M141.432 145.818C141.332 145.818 141.251 145.743 141.244 145.643C140.383 130.053 131.155 56.5105 131.061 55.7675C131.055 55.6988 131.08 55.6301 131.136 55.5927C133.914 53.6384 138.016 38.5665 138.054 38.4166C138.079 38.3167 138.185 38.2543 138.285 38.2855C138.385 38.3105 138.441 38.4166 138.416 38.5165C138.247 39.1346 134.32 53.5635 131.442 55.8362C131.848 59.0703 140.77 130.303 141.619 145.631C141.619 145.737 141.544 145.825 141.444 145.831H141.432V145.818Z" fill="#828384"/>
<path d="M138.94 120.257H127.121C126.191 120.257 125.498 119.97 125.061 119.408C124.287 118.403 124.612 116.879 124.668 116.648L124.037 93.3911C124.037 93.3349 124.056 93.285 124.1 93.2475C124.143 93.2101 124.193 93.1976 124.249 93.1976C129.082 93.8282 135.763 93.1976 135.831 93.1976C135.944 93.1851 136.025 93.2663 136.037 93.3661C136.05 93.4723 135.969 93.5597 135.869 93.5722C135.8 93.5722 129.275 94.1841 124.424 93.5972L125.049 116.661C125.049 116.661 125.049 116.698 125.049 116.711C125.049 116.723 124.661 118.259 125.373 119.177C125.735 119.645 126.329 119.876 127.134 119.876H138.953C139.059 119.876 139.14 119.957 139.14 120.064C139.14 120.17 139.059 120.251 138.953 120.251L138.94 120.257Z" fill="#828384"/>
<path d="M116.695 46.7393C116.695 46.7393 116.67 46.7393 116.651 46.7393C115.477 46.6082 109.864 40.3396 109.234 39.6279C109.202 39.5904 109.184 39.5405 109.184 39.4905C109.184 39.4406 109.209 39.3969 109.246 39.3594C109.271 39.3407 111.45 37.4052 113.367 34.402C115.128 31.6424 117.019 27.3843 116.033 22.7765C116.008 22.6766 116.077 22.5767 116.177 22.5518C116.276 22.533 116.376 22.5955 116.401 22.6954C117.413 27.428 115.477 31.786 113.679 34.6081C112.012 37.2179 110.151 39.0285 109.633 39.5093C112.012 42.169 115.933 46.2773 116.695 46.3584C116.695 46.3584 116.707 46.3584 116.713 46.3584C117.325 46.3584 118.674 43.0743 120.722 36.606L120.903 36.0378C121.771 33.3094 122.87 28.171 122.882 28.121C122.901 28.0211 123.001 27.9524 123.107 27.9774C123.207 27.9961 123.275 28.096 123.25 28.2022C123.238 28.2521 122.139 33.4093 121.265 36.1565L121.084 36.7184C119.186 42.7247 117.706 46.733 116.701 46.733L116.695 46.7393Z" fill="#828384"/>
<path d="M137.704 40.5332C137.661 40.5332 137.617 40.5207 137.579 40.4895C137.492 40.4146 128.751 32.7537 122.458 30.7808C122.358 30.7495 122.301 30.6434 122.333 30.5435C122.364 30.4436 122.464 30.3874 122.57 30.4186C128.945 32.4166 137.742 40.1211 137.829 40.2023C137.904 40.271 137.917 40.3896 137.848 40.4645C137.81 40.5082 137.76 40.527 137.704 40.527V40.5332Z" fill="#828384"/>
<path d="M116.22 28.2896H106.605C106.499 28.2896 106.418 28.2084 106.418 28.1023C106.418 27.9961 106.499 27.915 106.605 27.915H116.22C116.326 27.915 116.408 27.9961 116.408 28.1023C116.408 28.2084 116.326 28.2896 116.22 28.2896Z" fill="#828384"/>
<path d="M107.985 207.505C107.879 207.505 107.798 207.423 107.798 207.317L106.412 39.4968C106.412 39.4468 106.43 39.3969 106.468 39.3657C106.505 39.3282 106.549 39.3095 106.599 39.3095H109.371C109.477 39.3095 109.558 39.3906 109.558 39.4968C109.558 39.6029 109.477 39.6841 109.371 39.6841H106.792L108.179 207.311C108.179 207.417 108.097 207.498 107.991 207.498L107.985 207.505Z" fill="#828384"/>
<path d="M146.638 223.132H65.8273V223.757H146.638V223.132Z" fill="black"/>
<path d="M66.1394 220.822H65.5151V226.067H66.1394V220.822Z" fill="black"/>
<path d="M146.95 220.822H146.325V226.067H146.95V220.822Z" fill="black"/>
<path d="M136.229 6.24371H75.9352V6.86806H136.229V6.24371Z" fill="black"/>
<path d="M76.2474 3.93359H75.6231V9.17818H76.2474V3.93359Z" fill="black"/>
<path d="M136.541 3.93359H135.917V9.17818H136.541V3.93359Z" fill="black"/>
<path d="M132.727 62.5418H79.7314V63.1661H132.727V62.5418Z" fill="black"/>
<path d="M80.0435 60.2317H79.4192V65.4763H80.0435V60.2317Z" fill="black"/>
<path d="M133.039 60.2317H132.414V65.4763H133.039V60.2317Z" fill="black"/>
<path d="M135.849 93.0791H76.6163V93.7035H135.849V93.0791Z" fill="black"/>
<path d="M76.9285 90.769H76.3041V96.0136H76.9285V90.769Z" fill="black"/>
<path d="M136.161 90.769H135.537V96.0136H136.161V90.769Z" fill="black"/>
<path d="M161.254 36.5373H160.629V69.3222H161.254V36.5373Z" fill="black"/>
<path d="M163.564 36.2251H158.319V36.8494H163.564V36.2251Z" fill="black"/>
<path d="M163.564 69.1036H158.319V69.728H163.564V69.1036Z" fill="black"/>
<path d="M44.8612 39.0786H44.2369V132.982H44.8612V39.0786Z" fill="black"/>
<path d="M47.1713 38.7664H41.9268V39.3908H47.1713V38.7664Z" fill="black"/>
<path d="M47.1713 132.925H41.9268V133.55H47.1713V132.925Z" fill="black"/>
<path d="M186.097 24.1002H185.472V207.186H186.097V24.1002Z" fill="black"/>
<path d="M188.407 23.788H183.162V24.4123H188.407V23.788Z" fill="black"/>
<path d="M188.407 207.38H183.162V208.004H188.407V207.38Z" fill="black"/>
<path d="M112.635 6.55573C112.635 10.177 109.701 13.1115 106.08 13.1115C102.458 13.1115 99.524 10.177 99.524 6.55573C99.524 2.93447 102.458 0 106.08 0C109.701 0 112.635 2.93447 112.635 6.55573Z" fill="black"/>
<path d="M107.759 9.203L107.172 7.49851H104.987L104.4 9.203H103.201L105.343 3.04685H106.81L108.952 9.203H107.753H107.759ZM105.355 6.43711H106.81L106.086 4.30805L105.362 6.43711H105.355Z" fill="white"/>
<path d="M112.785 62.8538C112.785 66.4751 109.851 69.4096 106.23 69.4096C102.608 69.4096 99.674 66.4751 99.674 62.8538C99.674 59.2326 102.608 56.2981 106.23 56.2981C109.851 56.2981 112.785 59.2326 112.785 62.8538Z" fill="black"/>
<path d="M108.796 64.1338C108.796 65.3825 107.928 65.9319 106.667 65.9319H103.92V59.7757H106.373C107.622 59.7757 108.502 60.3252 108.502 61.5489C108.502 62.0422 108.284 62.473 107.728 62.7102C108.459 62.9662 108.79 63.4657 108.79 64.1338H108.796ZM105.1 60.8122V62.3543H106.373C106.973 62.3543 107.347 62.0921 107.347 61.5739C107.347 61.0557 106.973 60.8122 106.373 60.8122H105.1ZM106.667 64.9017C107.266 64.9017 107.641 64.652 107.641 64.115C107.641 63.5781 107.266 63.3158 106.667 63.3158H105.1V64.9017H106.667Z" fill="white"/>
<path d="M112.785 93.3911C112.785 97.0124 109.851 99.9469 106.23 99.9469C102.608 99.9469 99.674 97.0124 99.674 93.3911C99.674 89.7699 102.608 86.8354 106.23 86.8354C109.851 86.8354 112.785 89.7699 112.785 93.3911Z" fill="black"/>
<path d="M103.607 93.9156V92.8667C103.607 91.1747 104.844 90.2007 106.28 90.2007C107.603 90.2007 108.546 90.9749 108.846 92.2423L107.728 92.567C107.528 91.7366 107.085 91.2933 106.273 91.2933C105.462 91.2933 104.775 91.8427 104.775 92.9104V93.8719C104.775 94.952 105.462 95.489 106.273 95.489C107.085 95.489 107.522 95.0457 107.728 94.2153L108.846 94.54C108.546 95.8136 107.603 96.5816 106.28 96.5816C104.85 96.5816 103.607 95.6138 103.607 93.9156Z" fill="white"/>
<path d="M51.1115 86.1611C51.1115 89.7823 48.177 92.7168 44.5557 92.7168C40.9345 92.7168 38 89.7823 38 86.1611C38 82.5398 40.9345 79.6053 44.5557 79.6053C48.177 79.6053 51.1115 82.5398 51.1115 86.1611Z" fill="black"/>
<path d="M47.4527 85.7927V86.5294C47.4527 88.2714 46.2415 89.2391 44.6494 89.2391H42.3892V83.083H44.6494C46.2352 83.083 47.4527 84.057 47.4527 85.7927ZM46.2727 85.8302C46.2727 84.6751 45.5859 84.1506 44.6494 84.1506H43.563V88.1652H44.6494C45.5859 88.1652 46.2727 87.647 46.2727 86.4857V85.8239V85.8302Z" fill="white"/>
<path d="M167.498 52.9763C167.498 56.5976 164.563 59.5321 160.942 59.5321C157.321 59.5321 154.386 56.5976 154.386 52.9763C154.386 49.3551 157.321 46.4206 160.942 46.4206C164.563 46.4206 167.498 49.3551 167.498 52.9763Z" fill="black"/>
<path d="M160.286 55.018H163.215V56.0544H159.113V49.8982H163.14V50.9347H160.286V52.3707H162.996V53.4009H160.286V55.018Z" fill="white"/>
<path d="M192.347 115.893C192.347 119.514 189.412 122.449 185.791 122.449C182.17 122.449 179.235 119.514 179.235 115.893C179.235 112.272 182.17 109.337 185.791 109.337C189.412 109.337 192.347 112.272 192.347 115.893Z" fill="black"/>
<path d="M187.989 113.851H185.211V115.362H187.695V116.399H185.211V118.977H184.037V112.821H187.989V113.858V113.851Z" fill="white"/>
<path d="M112.785 223.444C112.785 227.066 109.851 230 106.23 230C102.608 230 99.674 227.066 99.674 223.444C99.674 219.823 102.608 216.889 106.23 216.889C109.851 216.889 112.785 219.823 112.785 223.444Z" fill="black"/>
<path d="M103.62 222.92C103.62 221.228 104.85 220.254 106.286 220.254C107.61 220.254 108.546 220.953 108.846 222.221L107.728 222.545C107.528 221.715 107.091 221.346 106.286 221.346C105.481 221.346 104.794 221.896 104.794 222.964V223.925C104.794 225.005 105.474 225.542 106.286 225.542C107.372 225.542 107.678 224.793 107.678 224.287V224.262H106.361V223.244H108.846V224.131C108.846 225.873 107.61 226.641 106.286 226.641C104.856 226.641 103.62 225.673 103.62 223.975V222.92Z" fill="white"/>
</svg>
