<svg width="230" height="230" viewBox="0 0 230 230" fill="none" xmlns="http://www.w3.org/2000/svg">
<rect width="230" height="230" fill="white"/>
<path d="M108.375 201.12C68.0634 201.12 64.4535 195.827 64.3164 195.606L64.2631 195.515L64.5068 187.389C57.5382 188.82 46.2133 185.485 44.7358 184.327C44.6673 184.274 44.4692 184.114 44.4692 183.862C44.4692 183.505 45.1851 174.914 46.358 160.809C47.4014 148.304 48.5818 134.123 48.7799 131.29C48.9703 128.555 50.2269 117.573 51.4454 106.964C52.664 96.3628 53.9206 85.3959 54.111 82.677C54.469 77.5667 57.7667 58.3745 61.5442 52.9748C64.9942 48.0396 73.3337 43.5996 75.984 42.4343L77.0046 41.9926C79.0837 41.0939 83.9427 38.9843 84.6586 38.4207C85.0013 38.1541 86.395 37.1793 88.1543 35.9455C90.8275 34.072 94.4984 31.5054 94.9096 31.0942L95.0848 30.919C95.8921 30.0889 97.5752 28.36 99.4107 29.2435C100.751 29.8908 106.349 30.1193 108.39 30.1574L108.375 30.919C108.07 30.919 100.842 30.7819 99.0756 29.9289C97.7352 29.2892 96.3643 30.6905 95.6255 31.4521L95.4428 31.6349C95.0163 32.0614 92.2136 34.0339 88.5884 36.5776C86.9053 37.7581 85.4506 38.771 85.1308 39.03C84.3996 39.6012 80.7135 41.2234 77.3092 42.7009L76.2887 43.1426C73.6916 44.285 65.5197 48.6261 62.1687 53.4241C58.4673 58.7172 55.2306 77.6885 54.8726 82.7455C54.6822 85.4796 53.4256 96.4542 52.207 107.063C50.9885 117.672 49.7319 128.639 49.5415 131.358C49.3434 134.199 48.163 148.38 47.1196 160.885C46.1904 171.997 45.3146 182.514 45.2385 183.763C46.4037 184.693 58.0713 188.211 64.819 186.551L65.3065 186.429L65.0399 195.294C65.6416 195.88 71.4602 200.374 108.382 200.374V201.135L108.375 201.12Z" fill="#828384"/>
<path d="M108.375 201.12L108.375 200.359C145.175 200.359 151.077 195.888 151.717 195.271L151.45 186.414L151.938 186.536C158.686 188.196 170.353 184.677 171.518 183.748C171.442 182.499 170.559 171.982 169.637 160.87C168.594 148.357 167.413 134.184 167.215 131.343C167.025 128.624 165.768 117.657 164.55 107.048C163.331 96.439 162.075 85.4644 161.884 82.7303C161.534 77.6733 158.29 58.702 154.588 53.4089C151.237 48.6185 143.065 44.2698 140.468 43.1274L139.448 42.6856C136.043 41.2081 132.357 39.5936 131.626 39.0147C131.299 38.7558 129.844 37.7429 128.168 36.5624C124.543 34.0263 121.741 32.0462 121.314 31.6197L121.131 31.4369C120.393 30.6829 119.022 29.274 117.681 29.9137C115.914 30.7667 108.687 30.8962 108.382 30.9038L108.367 30.1422C110.408 30.1041 116.006 29.8756 117.346 29.2283C119.174 28.3448 120.857 30.0736 121.672 30.9038L121.847 31.0789C122.259 31.4902 125.922 34.0568 128.603 35.9303C130.362 37.1641 131.756 38.1389 132.098 38.4055C132.814 38.9691 137.673 41.0711 139.752 41.9774L140.773 42.4191C143.423 43.5843 151.763 48.0244 155.213 52.9595C158.99 58.3593 162.288 77.5514 162.646 82.6617C162.836 85.3806 164.093 96.3476 165.311 106.949C166.53 117.566 167.787 128.54 167.977 131.274C168.175 134.107 169.356 148.288 170.399 160.794C171.579 174.898 172.288 183.497 172.288 183.847C172.288 184.099 172.082 184.258 172.021 184.312C170.544 185.469 159.219 188.805 152.25 187.373L152.494 195.5L152.441 195.591C152.303 195.819 148.693 201.105 108.382 201.105L108.375 201.12Z" fill="#828384"/>
<path d="M66.1831 151.337L64.681 186.879L65.1376 186.898L66.6396 151.356L66.1831 151.337Z" fill="#828384"/>
<path d="M86.6311 153.642C86.5397 153.642 86.4483 153.635 86.3646 153.612C86.2351 153.581 85.1079 153.521 83.6838 153.429C74.5903 152.873 66.0528 152.226 65.177 151.213C65.0704 151.091 65.0551 150.977 65.0628 150.901C65.2075 149.103 65.9538 140.124 66.2052 139.545C66.4489 138.989 66.8297 137.816 66.8297 137.809L66.883 137.641H67.0581L89.1292 139.096L89.1139 139.324C89.1139 139.439 88.4437 150.901 88.398 151.982C88.3752 152.5 88.1238 152.957 87.6821 153.277C87.3546 153.513 86.951 153.65 86.6083 153.65L86.6311 153.642ZM65.5197 150.916C66.1518 151.906 79.3579 152.706 83.7066 152.972C85.6715 153.094 86.3493 153.132 86.4788 153.17C86.6844 153.223 87.0805 153.147 87.4232 152.896C87.6517 152.728 87.9258 152.431 87.9487 151.952C87.9944 150.954 88.558 141.137 88.6493 139.515L67.2028 138.113C67.0886 138.464 66.8144 139.279 66.6164 139.728C66.4412 140.177 65.8548 146.659 65.5121 150.916H65.5197Z" fill="#828384"/>
<path d="M66.5473 139.128L66.5134 139.583L88.782 141.238L88.8158 140.782L66.5473 139.128Z" fill="#828384"/>
<path d="M67.2866 137.893L66.8297 137.855C66.8525 137.573 69.2439 109.371 69.2439 101.473C69.2439 93.5754 68.4519 81.0472 68.0406 77.3839C67.5989 73.4998 64.1412 50.6519 64.1108 50.4234L64.5601 50.3549C64.5982 50.5834 68.0558 73.4388 68.4975 77.3306C68.9088 81.0015 69.7009 93.2631 69.7009 101.473C69.7009 109.683 67.3095 137.603 67.2866 137.893Z" fill="#828384"/>
<path d="M68.627 78.7852L68.1701 78.7471C68.1853 78.5796 69.5029 61.7788 70.5082 57.1255L70.9575 57.2245C69.9598 61.855 68.6423 78.6177 68.627 78.7852Z" fill="#828384"/>
<path d="M108.169 92.0674C99.5478 76.211 95.953 30.8733 95.915 30.4163L96.3719 30.3783C96.41 30.8352 99.9971 76.0739 108.573 91.8466L108.169 92.0674Z" fill="#828384"/>
<path d="M88.8321 68.26L88.6646 68.1838C88.3828 68.0544 81.8026 64.9623 81.041 64.5891C79.9824 64.056 79.4721 63.4162 79.693 62.8755C79.8682 62.3729 83.0212 46.8211 84.6662 38.672L85.1155 38.7634C84.6281 41.2005 80.3175 62.5633 80.1195 63.0507C80.0052 63.3249 80.4851 63.8047 81.2467 64.1931C81.9321 64.5358 87.6212 67.209 88.6874 67.704L98.6719 54.0639L99.0375 54.3304L88.8321 68.2752V68.26Z" fill="#828384"/>
<path d="M124.14 131.846L123.782 131.823C120.956 131.625 108.717 116.758 108.199 116.126C108.055 115.943 94.3537 98.1678 91.81 94.2608C90.2639 91.8847 86.0218 82.875 82.6175 75.6398C80.4241 70.9789 78.5354 66.9577 78.2003 66.5159C78.0403 66.3027 78.1165 66.1351 78.1546 66.0742C78.6115 65.3583 84.2016 66.4322 87.4993 67.1404L87.4003 67.5898C83.5695 66.7673 79.3655 66.0894 78.6039 66.3103C79.0685 67.0414 80.8278 70.7732 83.0288 75.4494C86.4255 82.6694 90.66 91.6638 92.1908 94.0171C94.7269 97.9165 108.413 115.669 108.557 115.852C111.878 119.896 120.667 130.109 123.424 131.267L108.123 91.9532L108.177 91.8618C116.752 76.0968 120.339 30.8505 120.377 30.3935L120.834 30.4316C120.796 30.8885 117.217 76.0511 108.634 91.9837L124.147 131.853L124.14 131.846Z" fill="#828384"/>
<path d="M108.375 39.2051H97.0117V39.6621H108.375V39.2051Z" fill="#828384"/>
<path d="M150.54 151.358L150.084 151.377L151.605 186.919L152.061 186.899L150.54 151.358Z" fill="#828384"/>
<path d="M130.111 153.642C129.775 153.642 129.364 153.505 129.037 153.269C128.603 152.949 128.344 152.492 128.321 151.974C128.275 150.893 127.613 139.431 127.605 139.317L127.59 139.088L149.843 137.634L149.897 137.801C149.897 137.801 150.278 138.989 150.521 139.538C150.78 140.116 151.519 149.096 151.664 150.893C151.664 150.969 151.656 151.091 151.549 151.205C150.674 152.218 142.136 152.866 133.043 153.422C131.619 153.505 130.491 153.574 130.354 153.604C130.278 153.627 130.187 153.635 130.095 153.635L130.111 153.642ZM128.085 139.515C128.176 141.137 128.74 150.954 128.785 151.952C128.808 152.431 129.082 152.728 129.311 152.896C129.654 153.147 130.057 153.223 130.255 153.17C130.385 153.132 131.07 153.094 133.027 152.972C137.376 152.706 150.59 151.898 151.214 150.916C150.864 146.659 150.285 140.177 150.11 139.728C149.912 139.279 149.638 138.464 149.524 138.113L128.077 139.515H128.085Z" fill="#828384"/>
<path d="M150.197 139.12L127.93 140.794L127.964 141.25L150.231 139.576L150.197 139.12Z" fill="#828384"/>
<path d="M149.463 137.893C149.44 137.611 147.048 109.394 147.048 101.473C147.048 93.5525 147.84 81.0015 148.252 77.3306C148.693 73.4388 152.151 50.5834 152.189 50.3549L152.639 50.4234C152.6 50.6519 149.143 73.4998 148.709 77.3839C148.297 81.0472 147.505 93.286 147.505 101.473C147.505 109.66 149.889 137.565 149.92 137.855L149.463 137.893Z" fill="#828384"/>
<path d="M148.115 78.7852C148.099 78.6177 146.789 61.8474 145.784 57.2245L146.234 57.1255C147.239 61.7864 148.556 78.5796 148.572 78.7471L148.115 78.7852Z" fill="#828384"/>
<path d="M127.91 68.26L117.704 54.3152L118.07 54.0486L128.054 67.6888C129.12 67.1937 134.81 64.5206 135.495 64.1778C136.257 63.797 136.736 63.3172 136.622 63.0354C136.432 62.5556 132.121 41.1853 131.626 38.7482L132.075 38.6568C133.721 46.8059 136.874 62.3576 137.049 62.8679C137.262 63.4086 136.759 64.0484 135.701 64.5815C134.947 64.9623 128.359 68.0467 128.077 68.1762L127.91 68.2524V68.26Z" fill="#828384"/>
<path d="M114.673 109.538L114.292 109.279C114.368 109.165 122.015 97.9089 124.551 94.0095C126.082 91.6562 130.309 82.6694 133.713 75.4418C135.929 70.7352 137.696 66.9805 138.138 66.3027C137.376 66.0818 133.172 66.7673 129.341 67.5822L129.242 67.1328C132.54 66.4245 138.13 65.3507 138.587 66.0666C138.625 66.1275 138.701 66.2951 138.541 66.5083C138.214 66.95 136.318 70.9713 134.124 75.6322C130.72 82.8674 126.485 91.877 124.932 94.2532C122.388 98.1602 114.742 109.424 114.665 109.531L114.673 109.538Z" fill="#828384"/>
<path d="M119.738 39.2051H108.375V39.6621H119.738V39.2051Z" fill="#828384"/>
<path d="M124.025 131.587H123.568V200.427H124.025V131.587Z" fill="#828384"/>
<path d="M118.831 135.852C117.598 135.852 116.585 134.846 116.585 133.605C116.585 132.363 117.59 131.358 118.831 131.358C120.073 131.358 121.078 132.363 121.078 133.605C121.078 134.846 120.073 135.852 118.831 135.852ZM118.831 131.815C117.849 131.815 117.042 132.615 117.042 133.605C117.042 134.595 117.841 135.395 118.831 135.395C119.821 135.395 120.621 134.595 120.621 133.605C120.621 132.615 119.821 131.815 118.831 131.815Z" fill="#828384"/>
<path d="M118.831 157.671C117.598 157.671 116.585 156.666 116.585 155.425C116.585 154.183 117.59 153.178 118.831 153.178C120.073 153.178 121.078 154.183 121.078 155.425C121.078 156.666 120.073 157.671 118.831 157.671ZM118.831 153.642C117.849 153.642 117.042 154.442 117.042 155.432C117.042 156.422 117.841 157.222 118.831 157.222C119.821 157.222 120.621 156.422 120.621 155.432C120.621 154.442 119.821 153.642 118.831 153.642Z" fill="#828384"/>
<path d="M154.794 13.5171H61.2705V14.2787H154.794V13.5171Z" fill="black"/>
<path d="M61.6513 10.6992H60.8897V17.0966H61.6513V10.6992Z" fill="black"/>
<path d="M154.825 10.6992H154.063V17.0966H154.825V10.6992Z" fill="black"/>
<path d="M151.52 215.089H66.1829V215.85H151.52V215.089Z" fill="black"/>
<path d="M66.5637 211.753H65.8021V219.178H66.5637V211.753Z" fill="black"/>
<path d="M151.9 211.753H151.139V219.178H151.9V211.753Z" fill="black"/>
<path d="M174.086 50.3862H173.324V90.3775H174.086V50.3862Z" fill="black"/>
<path d="M176.904 50.0054H170.506V50.767H176.904V50.0054Z" fill="black"/>
<path d="M176.904 90.111H170.506V90.8726H176.904V90.111Z" fill="black"/>
<path d="M203.384 29.4193H202.622V197.275H203.384V29.4193Z" fill="black"/>
<path d="M206.202 29.0385H199.804V29.8001H206.202V29.0385Z" fill="black"/>
<path d="M206.202 197.359H199.804V198.12H206.202V197.359Z" fill="black"/>
<path d="M27.7602 50.3862H26.9986V182.515H27.7602V50.3862Z" fill="black"/>
<path d="M30.5781 50.0054H24.1807V50.767H30.5781V50.0054Z" fill="black"/>
<path d="M30.5781 182.454H24.1807V183.216H30.5781V182.454Z" fill="black"/>
<path d="M147.148 93.7516H70.3639V94.5132H147.148V93.7516Z" fill="black"/>
<path d="M70.7447 90.9337H69.9831V97.3311H70.7447V90.9337Z" fill="black"/>
<path d="M147.529 90.9337H146.767V97.3311H147.529V90.9337Z" fill="black"/>
<path d="M115.854 13.8981C115.854 18.3154 112.274 21.8949 107.857 21.8949C103.44 21.8949 99.8604 18.3154 99.8604 13.8981C99.8604 9.48086 103.44 5.90137 107.857 5.90137C112.274 5.90137 115.854 9.48086 115.854 13.8981Z" fill="black"/>
<path d="M109.898 17.1273L109.182 15.0481H106.517L105.801 17.1273H104.339L106.951 9.61795H108.741L111.353 17.1273H109.891H109.898ZM106.966 13.7534H108.741L107.857 11.1564L106.974 13.7534H106.966Z" fill="white"/>
<path d="M116.753 94.1318C116.753 98.5491 113.173 102.129 108.756 102.129C104.339 102.129 100.759 98.5491 100.759 94.1318C100.759 89.7146 104.339 86.1351 108.756 86.1351C113.173 86.1351 116.753 89.7146 116.753 94.1318Z" fill="black"/>
<path d="M111.886 95.6931C111.886 97.2163 110.827 97.8865 109.289 97.8865H105.938V90.3772H108.931C110.454 90.3772 111.528 91.0474 111.528 92.5401C111.528 93.1417 111.262 93.6672 110.584 93.9567C111.475 94.2689 111.878 94.8782 111.878 95.6931H111.886ZM107.377 91.6414V93.5225H108.931C109.662 93.5225 110.119 93.2027 110.119 92.5705C110.119 91.9384 109.662 91.6414 108.931 91.6414H107.377ZM109.281 96.6222C110.013 96.6222 110.469 96.3176 110.469 95.6626C110.469 95.0077 110.013 94.6878 109.281 94.6878H107.37V96.6222H109.281Z" fill="white"/>
<path d="M35.3836 116.614C35.3836 121.032 31.8041 124.611 27.3869 124.611C22.9696 124.611 19.3901 121.032 19.3901 116.614C19.3901 112.197 22.9696 108.618 27.3869 108.618C31.8041 108.618 35.3836 112.197 35.3836 116.614Z" fill="black"/>
<path d="M24.1882 117.254V115.975C24.1882 113.911 25.6961 112.723 27.4478 112.723C29.0624 112.723 30.2124 113.667 30.578 115.213L29.2147 115.609C28.971 114.596 28.4303 114.056 27.4402 114.056C26.4501 114.056 25.6124 114.726 25.6124 116.028V117.201C25.6124 118.518 26.4501 119.173 27.4402 119.173C28.4303 119.173 28.9634 118.633 29.2147 117.62L30.578 118.016C30.2124 119.569 29.0624 120.506 27.4478 120.506C25.7038 120.506 24.1882 119.326 24.1882 117.254Z" fill="white"/>
<path d="M181.709 70.4391C181.709 74.8563 178.13 78.4358 173.712 78.4358C169.295 78.4358 165.716 74.8563 165.716 70.4391C165.716 66.0218 169.295 62.4423 173.712 62.4423C178.13 62.4423 181.709 66.0218 181.709 70.4391Z" fill="black"/>
<path d="M177.246 69.9897V70.8884C177.246 73.0133 175.769 74.1937 173.827 74.1937H171.07V66.6844H173.827C175.761 66.6844 177.246 67.8725 177.246 69.9897ZM175.807 70.0354C175.807 68.6265 174.969 67.9867 173.827 67.9867H172.501V72.8838H173.827C174.969 72.8838 175.807 72.2517 175.807 70.8351V70.0278V70.0354Z" fill="white"/>
<path d="M211 113.576C211 117.993 207.421 121.572 203.003 121.572C198.586 121.572 195.007 117.993 195.007 113.576C195.007 109.158 198.586 105.579 203.003 105.579C207.421 105.579 211 109.158 211 113.576Z" fill="black"/>
<path d="M202.211 116.074H205.783V117.338H200.779V109.828H205.692V111.093H202.211V112.844H205.517V114.101H202.211V116.074Z" fill="white"/>
<path d="M116.852 215.469C116.852 219.887 113.272 223.466 108.855 223.466C104.438 223.466 100.858 219.887 100.858 215.469C100.858 211.052 104.438 207.473 108.855 207.473C113.272 207.473 116.852 211.052 116.852 215.469Z" fill="black"/>
<path d="M111.536 212.971H108.147V214.814H111.178V216.079H108.147V219.224H106.715V211.715H111.536V212.979V212.971Z" fill="white"/>
</svg>
