<svg width="230" height="230" viewBox="0 0 230 230" fill="none" xmlns="http://www.w3.org/2000/svg">
<rect width="230" height="230" fill="white"/>
<path d="M98.436 229.995C97.7406 229.995 96.8918 229.856 95.9566 229.698C94.1581 229.4 92.1151 229.06 90.59 229.659C88.7292 230.388 85.1227 229.534 81.9479 228.786C80.4516 228.431 79.1615 228.124 78.303 228.053C76.6149 227.904 75.4735 227.098 74.4663 226.384C73.8573 225.952 73.2818 225.544 72.6871 225.376C71.5792 225.06 72.2363 215.281 74.2217 192.012C74.8404 184.756 75.3776 178.492 75.5262 175.245C76.001 165.054 79.8137 115.873 82.0246 98.6508C84.0293 83.0499 87.2233 75.506 87.77 74.3022L87.6645 74.2159C86.6862 73.4054 85.3433 72.2928 85.1179 69.775C84.9117 67.4442 85.4776 57.1091 85.6263 54.4762C82.4227 56.8693 73.7997 53.5026 70.692 51.6274C68.5962 50.3613 67.4356 49.0856 67.1479 47.7284C66.9321 46.7069 67.2054 45.671 67.9871 44.5536C68.9127 43.2347 69.4451 39.9975 70.0158 36.5685C70.4378 34.0362 70.8694 31.4177 71.5121 29.0773C72.8597 24.1616 76.3751 22.5454 79.7706 20.9819C80.3461 20.7182 80.912 20.4592 81.4587 20.181C85.1323 18.3442 95.7407 13.2702 95.851 13.2174L95.9997 13.1455L96.1196 13.2558C100.628 17.4666 110.459 16.7568 110.555 16.752L110.594 17.2316C110.186 17.2651 100.623 17.951 95.9134 13.721C94.6185 14.3397 85.1083 18.8957 81.6745 20.6127C81.123 20.8908 80.5475 21.1546 79.972 21.4184C76.6724 22.9338 73.2626 24.5021 71.9773 29.202C71.3442 31.5184 70.9126 34.1226 70.4954 36.6452C69.8911 40.2805 69.3731 43.4169 68.3852 44.8269C67.685 45.8293 67.4356 46.7453 67.6227 47.6277C67.8816 48.8458 68.9655 50.0208 70.9414 51.215C74.8692 53.5889 83.4634 56.3466 85.7174 53.7376L86.1778 53.2053L86.1347 53.9103C86.1251 54.0446 85.3673 67.1516 85.5927 69.7318C85.7989 72.053 86.9979 73.0457 87.9667 73.8466L88.3599 74.1775L88.2784 74.3454C88.2448 74.4173 84.6719 81.7886 82.4994 98.7131C80.2885 115.925 76.4758 165.083 76.001 175.269C75.8475 178.526 75.3152 184.794 74.6917 192.055C73.6127 204.702 71.9773 223.784 72.8405 224.93C73.5024 225.127 74.1019 225.554 74.7349 226C75.6893 226.676 76.7731 227.443 78.3318 227.583C79.2238 227.659 80.5331 227.971 82.0486 228.326C85.0076 229.026 88.686 229.894 90.4078 229.223C92.0623 228.575 94.1677 228.925 96.0285 229.232C97.2083 229.429 98.3257 229.611 99.0307 229.467C100.642 229.141 103.966 228.211 104.757 227.985C104.805 221.794 105.639 126.39 110.344 116.065L110.781 116.266C106.061 126.62 105.241 227.156 105.232 228.172V228.35L105.059 228.398C105.021 228.407 100.968 229.563 99.1218 229.937C98.9108 229.98 98.6758 230 98.4264 230L98.436 229.995Z" fill="#828384"/>
<path d="M122.703 229.995C122.449 229.995 122.219 229.976 122.008 229.932C120.161 229.558 116.114 228.403 116.07 228.393L115.898 228.345V228.168C115.888 227.151 115.068 126.615 110.349 116.261L110.785 116.06C115.49 126.385 116.325 221.789 116.373 227.981C117.164 228.206 120.487 229.136 122.099 229.462C122.804 229.606 123.921 229.419 125.101 229.228C126.962 228.921 129.072 228.57 130.722 229.218C132.443 229.894 136.127 229.021 139.081 228.321C140.596 227.961 141.901 227.654 142.798 227.578C144.356 227.443 145.44 226.676 146.395 225.995C147.028 225.549 147.627 225.122 148.289 224.926C149.152 223.784 147.522 204.697 146.438 192.05C145.819 184.789 145.282 178.521 145.128 175.265C144.654 165.078 140.841 115.925 138.635 98.7083C136.462 81.7886 132.894 74.4125 132.856 74.3406L132.774 74.1728L133.168 73.8418C134.132 73.0409 135.335 72.0482 135.537 69.727C135.762 67.1468 135.004 54.035 134.995 53.9055L134.952 53.2005L135.412 53.7328C137.671 56.3418 146.265 53.5841 150.188 51.2102C152.164 50.016 153.253 48.841 153.512 47.6229C153.699 46.7405 153.449 45.8245 152.749 44.8221C151.761 43.4169 151.243 40.2804 150.644 36.65C150.226 34.1274 149.795 31.5184 149.157 29.202C147.872 24.5021 144.462 22.9338 141.162 21.4184C140.582 21.1546 140.011 20.8908 139.46 20.6127C136.026 18.8957 126.516 14.3445 125.221 13.721C120.511 17.951 110.948 17.2651 110.541 17.2316L110.579 16.752C110.68 16.7568 120.507 17.4666 125.015 13.2558L125.135 13.1455L125.283 13.2174C125.389 13.2702 136.002 18.3442 139.676 20.181C140.222 20.4544 140.793 20.7182 141.364 20.9819C144.759 22.5454 148.275 24.1568 149.622 29.0773C150.265 31.4177 150.701 34.041 151.118 36.5733C151.684 39.9975 152.222 43.2299 153.147 44.5488C153.929 45.6662 154.202 46.7021 153.986 47.7236C153.699 49.0808 152.543 50.3565 150.442 51.6226C147.335 53.5026 138.712 56.8645 135.508 54.4714C135.657 57.1043 136.223 67.4442 136.016 69.7702C135.796 72.288 134.453 73.4006 133.475 74.2111L133.369 74.3022C133.916 75.506 137.11 83.0499 139.114 98.6508C141.325 115.877 145.138 165.054 145.613 175.245C145.766 178.492 146.299 184.756 146.922 192.012C148.912 215.281 149.565 225.06 148.457 225.376C147.862 225.549 147.287 225.957 146.678 226.384C145.67 227.098 144.529 227.904 142.841 228.053C141.982 228.129 140.692 228.431 139.196 228.786C136.016 229.539 132.415 230.388 130.554 229.659C129.024 229.06 126.986 229.395 125.187 229.698C124.247 229.851 123.403 229.995 122.708 229.995H122.703Z" fill="#828384"/>
<path d="M87.9522 225.482C86.9115 225.482 85.3049 225.084 83.6167 224.662C81.684 224.182 79.6841 223.683 78.2358 223.683C75.2288 223.683 72.3465 220.652 72.2266 220.523L72.5767 220.197C72.6055 220.226 75.435 223.209 78.2358 223.209C79.7465 223.209 81.7703 223.712 83.7318 224.201C85.5878 224.662 87.3431 225.098 88.2591 224.988C88.9401 224.906 90.1055 224.863 91.458 224.815C93.8607 224.729 96.8533 224.619 97.6158 224.24C98.3016 223.894 100.196 223.789 102.023 223.683C103.189 223.616 104.642 223.535 104.858 223.396C104.838 223.405 104.8 223.453 104.8 223.525H105.28C105.275 223.942 104.747 224.01 102.052 224.163C100.436 224.254 98.4311 224.369 97.8316 224.667C96.978 225.093 94.0525 225.199 91.4771 225.295C90.1919 225.343 88.9785 225.386 88.3167 225.463C88.2016 225.477 88.0817 225.482 87.9474 225.482H87.9522Z" fill="#828384"/>
<path d="M110.569 74.8441C105.75 74.8441 88.2303 74.4796 88.0577 74.4748L88.0673 73.9952C88.2447 73.9952 105.754 74.3645 110.569 74.3645V74.8441Z" fill="#828384"/>
<path d="M86.1346 53.9198L85.6598 53.867C85.6933 53.5745 88.8011 24.6747 82.7583 19.9268L83.0556 19.5479C85.6933 21.6245 87.0122 28.0509 86.9738 38.6498C86.9451 46.5006 86.1442 53.8478 86.1346 53.9198Z" fill="#828384"/>
<path d="M79.3676 26.6649L79.0031 26.3532C80.4755 24.6459 84.7198 22.9146 84.8972 22.8427L85.0795 23.2887C85.0363 23.3078 80.7632 25.0487 79.3676 26.6649Z" fill="#828384"/>
<path d="M80.8735 31.7054L80.6241 31.2977C83.1947 29.7343 85.2617 24.7514 85.2857 24.6986L85.7269 24.8809C85.6406 25.0919 83.5784 30.0604 80.8735 31.7054Z" fill="#828384"/>
<path d="M110.569 25.0248C103.059 25.0248 99.4191 21.8787 97.6878 19.241C95.8078 16.3778 95.7167 13.5579 95.7119 13.4428L96.1915 13.4284C96.2059 13.884 96.6519 24.5452 110.569 24.5452V25.0248Z" fill="#828384"/>
<path d="M110.569 27.3316C96.0332 27.3316 93.6688 14.5986 93.6497 14.4691L94.1245 14.3876C94.1436 14.5123 96.4504 26.852 110.574 26.852V27.3316H110.569Z" fill="#828384"/>
<path d="M133.187 225.482C133.057 225.482 132.933 225.477 132.817 225.463C132.156 225.386 130.942 225.338 129.657 225.295C127.077 225.199 124.156 225.093 123.302 224.667C122.703 224.369 120.693 224.254 119.082 224.163C116.387 224.01 115.859 223.942 115.854 223.53H116.334C116.334 223.453 116.296 223.41 116.277 223.396C116.488 223.535 117.941 223.616 119.111 223.683C120.938 223.789 122.832 223.894 123.518 224.24C124.281 224.623 127.273 224.729 129.676 224.815C131.029 224.863 132.194 224.906 132.875 224.988C133.791 225.098 135.546 224.662 137.402 224.201C139.364 223.712 141.392 223.209 142.898 223.209C145.699 223.209 148.533 220.23 148.562 220.197L148.912 220.523C148.792 220.652 145.91 223.683 142.903 223.683C141.455 223.683 139.455 224.182 137.522 224.662C135.834 225.084 134.232 225.482 133.187 225.482Z" fill="#828384"/>
<path d="M110.569 74.8441V74.3645C115.384 74.3645 132.899 74 133.072 73.9952L133.081 74.4748C132.904 74.4748 115.389 74.8441 110.569 74.8441Z" fill="#828384"/>
<path d="M135.004 53.9198C134.87 52.7208 131.839 24.4589 138.083 19.5479L138.381 19.9268C132.343 24.6747 135.45 53.5793 135.479 53.867L135.004 53.9198Z" fill="#828384"/>
<path d="M141.771 26.6649C140.376 25.0439 136.103 23.3031 136.059 23.2887L136.242 22.8427C136.424 22.9146 140.668 24.6459 142.136 26.3532L141.771 26.6649Z" fill="#828384"/>
<path d="M140.265 31.7054C137.561 30.0604 135.498 25.0919 135.407 24.8809L135.848 24.6986C135.868 24.7466 137.939 29.7295 140.51 31.2977L140.261 31.7054H140.265Z" fill="#828384"/>
<path d="M110.569 25.0248V24.5452C124.487 24.5452 124.938 13.884 124.947 13.4284L125.427 13.4428C125.427 13.5579 124.962 25.0248 110.569 25.0248Z" fill="#828384"/>
<path d="M110.569 27.3316V26.852C117.95 26.852 122.027 23.4709 124.146 20.6318C126.449 17.548 127.014 14.4163 127.019 14.3876L127.494 14.4691C127.47 14.5986 125.11 27.3316 110.574 27.3316H110.569Z" fill="#828384"/>
<path d="M139.536 4.79595H80.6434V5.27554H139.536V4.79595Z" fill="black"/>
<path d="M80.8832 3.02148H80.4036V7.05H80.8832V3.02148Z" fill="black"/>
<path d="M139.556 3.02148H139.076V7.05H139.556V3.02148Z" fill="black"/>
<path d="M136.429 89.8025H84.7535V90.282H136.429V89.8025Z" fill="black"/>
<path d="M84.7391 88.028H84.2595V92.0565H84.7391V88.028Z" fill="black"/>
<path d="M136.697 88.028H136.218V92.0565H136.697V88.028Z" fill="black"/>
<path d="M133.724 39.801H87.4103V40.2806H133.724V39.801Z" fill="black"/>
<path d="M87.6501 38.0265H87.1705V42.055H87.6501V38.0265Z" fill="black"/>
<path d="M133.968 38.0265H133.489V42.055H133.968V38.0265Z" fill="black"/>
<path d="M56.2755 20.1332H55.796V53.4164H56.2755V20.1332Z" fill="black"/>
<path d="M58.05 19.8934H54.0215V20.373H58.05V19.8934Z" fill="black"/>
<path d="M58.05 53.2581H54.0215V53.7377H58.05V53.2581Z" fill="black"/>
<path d="M173.448 14.9345H172.968V228.897H173.448V14.9345Z" fill="black"/>
<path d="M175.222 14.6948H171.194V15.1743H175.222V14.6948Z" fill="black"/>
<path d="M175.222 228.662H171.194V229.141H175.222V228.662Z" fill="black"/>
<path d="M115.015 5.03565C115.015 7.81724 112.761 10.0713 109.979 10.0713C107.198 10.0713 104.944 7.81724 104.944 5.03565C104.944 2.25405 107.198 0 109.979 0C112.761 0 115.015 2.25405 115.015 5.03565Z" fill="black"/>
<path d="M111.265 7.06909L110.814 5.75982H109.135L108.685 7.06909H107.764L109.409 2.34038H110.536L112.181 7.06909H111.26H111.265ZM109.418 4.94453H110.536L109.979 3.30914L109.423 4.94453H109.418Z" fill="white"/>
<path d="M115.605 40.0407C115.605 42.8223 113.351 45.0763 110.569 45.0763C107.788 45.0763 105.534 42.8223 105.534 40.0407C105.534 37.2591 107.788 35.0051 110.569 35.0051C113.351 35.0051 115.605 37.2591 115.605 40.0407Z" fill="black"/>
<path d="M112.54 41.0238C112.54 41.983 111.874 42.4051 110.905 42.4051H108.795V37.6763H110.68C111.639 37.6763 112.315 38.0984 112.315 39.0384C112.315 39.4172 112.147 39.7481 111.72 39.9304C112.281 40.127 112.536 40.5107 112.536 41.0238H112.54ZM109.701 38.4677V39.6522H110.68C111.14 39.6522 111.428 39.4508 111.428 39.0527C111.428 38.6547 111.14 38.4677 110.68 38.4677H109.701ZM110.905 41.6089C111.365 41.6089 111.653 41.4171 111.653 41.0047C111.653 40.5922 111.365 40.3908 110.905 40.3908H109.701V41.6089H110.905Z" fill="white"/>
<path d="M115.514 90.0422C115.514 92.8238 113.26 95.0778 110.478 95.0778C107.697 95.0778 105.443 92.8238 105.443 90.0422C105.443 87.2606 107.697 85.0065 110.478 85.0065C113.26 85.0065 115.514 87.2606 115.514 90.0422Z" fill="black"/>
<path d="M108.464 90.445V89.6393C108.464 88.3396 109.414 87.5915 110.517 87.5915C111.533 87.5915 112.257 88.1862 112.488 89.1597L111.629 89.4091C111.476 88.7712 111.135 88.4307 110.512 88.4307C109.888 88.4307 109.361 88.8528 109.361 89.6729V90.4114C109.361 91.2411 109.888 91.6536 110.512 91.6536C111.135 91.6536 111.471 91.3131 111.629 90.6752L112.488 90.9246C112.257 91.9029 111.533 92.4928 110.517 92.4928C109.418 92.4928 108.464 91.7495 108.464 90.445Z" fill="white"/>
<path d="M61.0761 36.8129C61.0761 39.5945 58.822 41.8485 56.0404 41.8485C53.2588 41.8485 51 39.5945 51 36.8129C51 34.0313 53.2541 31.7772 56.0356 31.7772C58.8172 31.7772 61.0713 34.0313 61.0713 36.8129H61.0761Z" fill="black"/>
<path d="M58.2657 36.5299V37.0958C58.2657 38.4339 57.3353 39.1772 56.1124 39.1772H54.3763V34.4485H56.1124C57.3305 34.4485 58.2657 35.1967 58.2657 36.5299ZM57.3593 36.5587C57.3593 35.6714 56.8318 35.2686 56.1124 35.2686H55.2779V38.3523H56.1124C56.8318 38.3523 57.3593 37.9543 57.3593 37.0622V36.5539V36.5587Z" fill="white"/>
<path d="M178.244 121.915C178.244 124.697 175.989 126.951 173.208 126.951C170.426 126.951 168.172 124.697 168.172 121.915C168.172 119.134 170.426 116.88 173.208 116.88C175.989 116.88 178.244 119.134 178.244 121.915Z" fill="black"/>
<path d="M172.709 123.488H174.958V124.285H171.807V119.556H174.901V120.352H172.709V121.455H174.79V122.246H172.709V123.488Z" fill="white"/>
</svg>
