<svg width="230" height="230" viewBox="0 0 230 230" fill="none" xmlns="http://www.w3.org/2000/svg">
<rect width="230" height="230" fill="white"/>
<path d="M55.8174 204.584C49.5756 204.584 43.9379 203.275 43.5809 203.193L43.2148 203.111L43.6725 189.428C42.8488 184.76 43.0043 146.578 45.4754 130.525C48.1387 113.218 62.0225 71.4841 69.9026 63.2563C77.9015 54.9096 98.9058 43.5975 99.1163 43.4785L99.3451 43.3595L99.5647 43.4968C104.534 46.4804 116.835 46.517 116.963 46.517C117.219 46.517 117.421 46.7184 117.421 46.9746C117.421 47.2309 117.219 47.4322 116.963 47.4322C116.45 47.4322 104.626 47.3956 99.3268 44.4212C97.0387 45.6659 78.0205 56.1268 70.5615 63.897C62.773 72.0241 49.0265 113.465 46.3723 130.671C43.7731 147.557 43.8738 185.593 44.5694 189.318V189.364L44.1392 202.388C46.2717 202.845 57.2451 204.968 64.7041 202.433L64.2008 189.877V189.831C64.2374 189.693 66.7908 175.489 68.3101 155.217C69.8385 134.854 74.6983 119.826 74.7532 119.67L76.0162 115.808L75.641 119.853C75.5952 120.375 70.8269 172.551 75.3664 186.17L75.3939 186.252L74.8905 199.578C77.2426 200.191 91.6206 203.66 116.963 203.66C117.219 203.66 117.421 203.861 117.421 204.117C117.421 204.374 117.219 204.575 116.963 204.575C89.1496 204.575 74.442 200.402 74.2956 200.365L73.9478 200.264L74.4695 186.38C70.6713 174.794 73.2431 137.792 74.3231 124.503C72.7672 130.424 70.2412 141.645 69.2253 155.281C67.7426 175.004 65.2899 188.998 65.1251 189.941L65.6468 203.065L65.3356 203.175C62.4344 204.227 59.0389 204.584 55.7991 204.584H55.8174Z" fill="#838383"/>
<path d="M178.136 204.584C174.905 204.584 171.51 204.236 168.6 203.175L168.288 203.065L168.81 189.941C168.645 188.989 166.183 175.004 164.701 155.282C163.676 141.654 161.159 130.433 159.603 124.503C160.683 137.792 163.255 174.794 159.457 186.381L159.978 200.264L159.63 200.365C159.484 200.411 144.776 204.575 116.963 204.575C116.707 204.575 116.505 204.374 116.505 204.117C116.505 203.861 116.707 203.66 116.963 203.66C142.305 203.66 156.674 200.191 159.036 199.578L158.532 186.252L158.56 186.17C163.099 172.552 158.331 120.375 158.276 119.854L157.901 115.808L159.164 119.67C159.209 119.817 164.078 134.854 165.607 155.217C167.126 175.499 169.689 189.694 169.707 189.831V189.922L169.204 202.424C176.663 204.969 187.636 202.836 189.768 202.379L189.329 189.355V189.309C190.034 185.575 190.135 147.539 187.535 130.662C184.89 113.456 171.144 72.0152 163.346 63.888C155.887 56.1087 136.869 45.6478 134.581 44.4122C129.273 47.3958 117.448 47.4233 116.945 47.4233C116.688 47.4233 116.487 47.2219 116.487 46.9657C116.487 46.7094 116.688 46.5081 116.945 46.5081C117.073 46.5081 129.373 46.4715 134.343 43.4879L134.563 43.3506L134.791 43.4696C135.002 43.5794 156.006 54.9006 164.005 63.2474C171.894 71.4752 185.778 113.209 188.432 130.516C190.903 146.569 191.059 184.752 190.235 189.419L190.693 203.102L190.327 203.184C189.97 203.266 184.332 204.575 178.09 204.575L178.136 204.584Z" fill="#838383"/>
<path d="M169.276 190.224C169.112 190.224 168.965 190.096 168.956 189.922C168.947 189.748 169.075 189.593 169.249 189.584L189.905 188.138C190.079 188.138 190.235 188.257 190.244 188.44C190.253 188.614 190.125 188.769 189.951 188.778L169.295 190.224H169.276Z" fill="#838383"/>
<path d="M75.1923 120.128C75.0184 120.119 74.8811 119.963 74.8994 119.789C76.5742 95.6824 71.3758 62.6157 71.3209 62.277C71.2935 62.1031 71.4124 61.9384 71.5863 61.9109C71.7511 61.8835 71.9249 62.0025 71.9524 62.1764C72.0073 62.5058 77.2149 95.655 75.5401 119.826C75.5309 119.991 75.3845 120.128 75.2197 120.128H75.1923Z" fill="#838383"/>
<path d="M116.972 61.8378C98.2193 61.8378 97.2949 45.0253 97.2858 44.8514C97.2858 44.6775 97.4139 44.5219 97.5878 44.5219C97.7525 44.5219 97.9173 44.65 97.9173 44.8239C97.9447 45.492 98.8325 61.1972 116.963 61.1972C117.137 61.1972 117.283 61.3436 117.283 61.5175C117.283 61.6914 117.137 61.8378 116.963 61.8378H116.972Z" fill="#838383"/>
<path d="M116.972 67.8325C94.8785 67.8325 91.1719 48.6313 91.1444 48.4391C91.117 48.2652 91.2268 48.1005 91.4007 48.0638C91.5746 48.0272 91.7393 48.1462 91.776 48.3201C91.8126 48.5123 95.4277 67.1919 116.972 67.1919C117.146 67.1919 117.292 67.3383 117.292 67.5122C117.292 67.6861 117.146 67.8325 116.972 67.8325Z" fill="#838383"/>
<path d="M116.972 53.5002C107.106 53.5002 99.0429 51.0475 98.9605 51.02C98.7866 50.9651 98.6951 50.7912 98.75 50.6173C98.8049 50.4526 98.988 50.3519 99.1527 50.4068C99.2351 50.4343 107.216 52.8596 116.981 52.8596C117.155 52.8596 117.301 53.006 117.301 53.1799C117.301 53.3538 117.155 53.5002 116.981 53.5002H116.972Z" fill="#838383"/>
<path d="M64.6764 190.224H64.6581L44.0017 188.778C43.8278 188.769 43.6905 188.614 43.7088 188.44C43.718 188.266 43.8736 188.138 44.0475 188.138L64.7039 189.584C64.8778 189.593 65.0151 189.748 64.9968 189.922C64.9876 190.087 64.8412 190.224 64.6764 190.224Z" fill="#838383"/>
<path d="M116.972 188.778C98.0086 188.778 75.1465 186.655 74.9177 186.627C74.7438 186.609 74.6157 186.454 74.6248 186.28C74.6431 186.106 74.8079 185.978 74.9726 185.987C75.2014 186.005 98.036 188.138 116.972 188.138C117.146 188.138 117.292 188.284 117.292 188.458C117.292 188.632 117.146 188.778 116.972 188.778Z" fill="#838383"/>
<path d="M158.742 120.128C158.577 120.128 158.431 120 158.422 119.826C156.747 95.6458 161.955 62.5058 162.009 62.1764C162.037 62.0025 162.202 61.8835 162.376 61.9109C162.549 61.9384 162.668 62.1031 162.641 62.277C162.586 62.6065 157.388 95.6824 159.062 119.789C159.072 119.963 158.944 120.119 158.77 120.128H158.742Z" fill="#838383"/>
<path d="M116.972 61.8378C116.798 61.8378 116.651 61.6914 116.651 61.5175C116.651 61.3436 116.798 61.1971 116.972 61.1971C135.102 61.1971 135.99 45.492 136.017 44.8239C136.017 44.65 136.164 44.5128 136.347 44.5219C136.521 44.5219 136.658 44.6775 136.649 44.8514C136.649 45.0253 135.716 61.8378 116.963 61.8378H116.972Z" fill="#838383"/>
<path d="M116.972 67.8325C116.798 67.8325 116.651 67.6861 116.651 67.5122C116.651 67.3383 116.798 67.1919 116.972 67.1919C138.525 67.1919 142.14 48.5123 142.177 48.3201C142.204 48.1462 142.378 48.0272 142.552 48.0638C142.726 48.0913 142.845 48.2652 142.808 48.4391C142.772 48.6313 139.074 67.8325 116.972 67.8325Z" fill="#838383"/>
<path d="M116.972 53.5002C116.798 53.5002 116.651 53.3538 116.651 53.1799C116.651 53.006 116.798 52.8596 116.972 52.8596C126.737 52.8596 134.718 50.4343 134.8 50.4068C134.965 50.3519 135.148 50.4526 135.203 50.6173C135.258 50.782 135.157 50.9651 134.992 51.02C134.91 51.0475 126.838 53.5002 116.981 53.5002H116.972Z" fill="#838383"/>
<path d="M116.972 188.778C116.798 188.778 116.651 188.632 116.651 188.458C116.651 188.284 116.798 188.138 116.972 188.138C135.908 188.138 158.742 186.014 158.971 185.987C159.145 185.968 159.301 186.097 159.319 186.28C159.337 186.453 159.209 186.609 159.026 186.627C158.797 186.646 135.935 188.778 116.972 188.778Z" fill="#838383"/>
<path d="M92.1056 50.8461C92.0598 50.8461 92.0141 50.8187 91.9866 50.7729C91.95 50.7089 91.9775 50.6265 92.0415 50.5899L97.9447 47.3134C98.0087 47.2768 98.0911 47.3043 98.1277 47.3683C98.1643 47.4324 98.1369 47.5148 98.0728 47.5514L92.1697 50.8278C92.1697 50.8278 92.1239 50.8461 92.1056 50.8461Z" fill="#838383"/>
<path d="M93.0942 53.3172C93.0942 53.3172 93.0027 53.2898 92.9753 53.2531C92.9387 53.1891 92.957 53.1067 93.021 53.061L98.5855 49.574C98.6496 49.5374 98.732 49.5557 98.7777 49.6197C98.8235 49.6838 98.796 49.7662 98.732 49.8119L93.1675 53.2989C93.1675 53.2989 93.1217 53.3172 93.0942 53.3172Z" fill="#838383"/>
<path d="M94.4303 55.8339C94.4303 55.8339 94.348 55.8156 94.3205 55.779C94.2747 55.715 94.2931 55.6326 94.348 55.5868L99.5464 51.8344C99.6105 51.7887 99.6928 51.807 99.7386 51.8619C99.7844 51.926 99.766 52.0083 99.7111 52.0541L94.5127 55.8065C94.5127 55.8065 94.4578 55.8339 94.4303 55.8339Z" fill="#838383"/>
<path d="M95.611 57.6276C95.611 57.6276 95.5286 57.6093 95.5012 57.5727C95.4554 57.5086 95.4737 57.4262 95.5286 57.3805L100.626 53.7105C100.69 53.6647 100.773 53.683 100.819 53.7379C100.864 53.802 100.846 53.8843 100.791 53.9301L95.6934 57.6001C95.6934 57.6001 95.6385 57.6276 95.611 57.6276Z" fill="#838383"/>
<path d="M97.0203 59.4125C97.0203 59.4125 96.9379 59.3942 96.9104 59.3576C96.8647 59.2935 96.8738 59.2111 96.9287 59.1654L101.798 55.294C101.853 55.2482 101.944 55.2574 101.99 55.3123C102.036 55.3764 102.026 55.4587 101.972 55.5045L97.1026 59.3759C97.1026 59.3759 97.0477 59.4033 97.0203 59.4033V59.4125Z" fill="#838383"/>
<path d="M98.668 61.1055C98.668 61.1055 98.5948 61.0963 98.5673 61.0689C98.5124 61.014 98.5124 60.9316 98.5673 60.8767L102.905 56.4928C102.96 56.4379 103.043 56.4379 103.098 56.4928C103.153 56.5477 103.153 56.6301 103.098 56.685L98.7595 61.0689C98.7595 61.0689 98.6954 61.1055 98.6588 61.1055H98.668Z" fill="#838383"/>
<path d="M100.325 62.515C100.325 62.515 100.26 62.5059 100.233 62.4876C100.178 62.4418 100.169 62.3503 100.215 62.2954L104.104 57.5637C104.15 57.5088 104.242 57.4996 104.297 57.5454C104.351 57.5912 104.361 57.6827 104.315 57.7376L100.425 62.4693C100.425 62.4693 100.361 62.515 100.315 62.515H100.325Z" fill="#838383"/>
<path d="M101.899 63.6224C101.899 63.6224 101.844 63.6224 101.816 63.5949C101.752 63.5491 101.743 63.4668 101.789 63.4027L105.349 58.4422C105.395 58.3782 105.477 58.369 105.541 58.4148C105.605 58.4605 105.614 58.5429 105.569 58.607L102.008 63.5674C102.008 63.5674 101.935 63.6224 101.899 63.6224Z" fill="#838383"/>
<path d="M103.674 64.6565C103.674 64.6565 103.628 64.6565 103.601 64.6382C103.537 64.6016 103.51 64.5192 103.555 64.446L106.621 59.2018C106.658 59.1377 106.74 59.1194 106.813 59.156C106.878 59.1927 106.905 59.275 106.859 59.3482L103.793 64.5924C103.793 64.5924 103.72 64.6565 103.674 64.6565Z" fill="#838383"/>
<path d="M105.459 65.4985C105.459 65.4985 105.413 65.4985 105.395 65.4802C105.33 65.4436 105.303 65.3612 105.34 65.2972L108.232 59.9523C108.268 59.8882 108.351 59.8608 108.415 59.8974C108.479 59.934 108.506 60.0164 108.47 60.0804L105.578 65.4253C105.578 65.4253 105.504 65.4985 105.459 65.4985Z" fill="#838383"/>
<path d="M107.655 66.3041C107.655 66.3041 107.618 66.3041 107.6 66.295C107.527 66.2675 107.499 66.1851 107.527 66.1119L109.916 60.5474C109.943 60.4742 110.025 60.4467 110.099 60.4742C110.172 60.5016 110.199 60.584 110.172 60.6572L107.783 66.2217C107.765 66.2766 107.71 66.3041 107.655 66.3041Z" fill="#838383"/>
<path d="M110.044 66.7432C110.044 66.7432 110.017 66.7432 110.008 66.7432C109.934 66.7249 109.898 66.6425 109.916 66.5693L111.563 60.9682C111.582 60.895 111.664 60.8492 111.737 60.8767C111.811 60.895 111.847 60.9773 111.829 61.0506L110.181 66.6517C110.163 66.7157 110.108 66.7524 110.053 66.7524L110.044 66.7432Z" fill="#838383"/>
<path d="M112.021 67.2924C112.021 67.2924 112.003 67.2924 111.994 67.2924C111.92 67.2741 111.875 67.2009 111.893 67.1276L113.266 61.2611C113.284 61.1879 113.357 61.1421 113.43 61.1604C113.504 61.1787 113.549 61.252 113.531 61.3252L112.158 67.1917C112.14 67.2558 112.085 67.3015 112.021 67.3015V67.2924Z" fill="#838383"/>
<path d="M114.025 67.5212C114.025 67.5212 114.016 67.5212 114.007 67.5212C113.934 67.512 113.879 67.4388 113.888 67.3656L114.748 61.4167C114.757 61.3435 114.821 61.2886 114.904 61.2977C114.977 61.3069 115.032 61.3801 115.023 61.4533L114.162 67.4022C114.153 67.4663 114.098 67.5212 114.025 67.5212Z" fill="#838383"/>
<path d="M141.427 52.4934C141.427 52.4934 141.372 52.4934 141.354 52.4751L135.67 48.8417C135.606 48.8051 135.588 48.7135 135.624 48.6495C135.67 48.5854 135.752 48.5671 135.816 48.6129L141.5 52.2463C141.564 52.2829 141.582 52.3744 141.546 52.4385C141.518 52.4751 141.473 52.5025 141.427 52.5025V52.4934Z" fill="#838383"/>
<path d="M140.283 54.8912C140.283 54.8912 140.228 54.8912 140.2 54.8638L134.864 51.029C134.8 50.9832 134.791 50.9009 134.837 50.8368C134.883 50.7727 134.965 50.7636 135.029 50.8093L140.365 54.6441C140.429 54.6899 140.438 54.7722 140.392 54.8363C140.365 54.8729 140.319 54.8912 140.283 54.8912Z" fill="#838383"/>
<path d="M138.8 57.3256C138.8 57.3256 138.736 57.3165 138.708 57.2982L133.757 53.2255C133.702 53.1797 133.693 53.0882 133.739 53.0333C133.785 52.9784 133.876 52.9692 133.931 53.015L138.882 57.0877C138.937 57.1334 138.946 57.225 138.901 57.2799C138.873 57.3165 138.837 57.3256 138.791 57.3256H138.8Z" fill="#838383"/>
<path d="M137.51 59.0373C137.51 59.0373 137.446 59.0281 137.418 59.0098L132.567 55.0286C132.513 54.9829 132.503 54.8914 132.549 54.8364C132.595 54.7815 132.686 54.7724 132.741 54.8181L137.592 58.7993C137.647 58.8451 137.656 58.9366 137.61 58.9915C137.583 59.0281 137.546 59.0464 137.501 59.0464L137.51 59.0373Z" fill="#838383"/>
<path d="M135.981 60.7393C135.981 60.7393 135.917 60.7301 135.89 60.7027L131.277 56.5384C131.222 56.4835 131.213 56.4012 131.268 56.3462C131.323 56.2913 131.405 56.2822 131.46 56.3371L136.073 60.5013C136.128 60.5562 136.137 60.6386 136.082 60.6935C136.055 60.721 136.018 60.7393 135.981 60.7393Z" fill="#838383"/>
<path d="M134.233 62.3227C134.233 62.3227 134.16 62.3044 134.133 62.277L130.087 57.6277C130.041 57.5727 130.041 57.4812 130.096 57.4355C130.151 57.3897 130.243 57.3897 130.289 57.4446L134.334 62.0939C134.38 62.1488 134.38 62.2403 134.325 62.2861C134.297 62.3044 134.27 62.3227 134.233 62.3227Z" fill="#838383"/>
<path d="M132.485 63.6222C132.485 63.6222 132.403 63.6039 132.375 63.5673L128.788 58.5977C128.742 58.5336 128.76 58.4512 128.815 58.4055C128.879 58.3597 128.961 58.378 129.007 58.4329L132.595 63.4026C132.641 63.4666 132.622 63.549 132.567 63.5948C132.54 63.6131 132.512 63.6222 132.485 63.6222Z" fill="#838383"/>
<path d="M130.856 64.629C130.856 64.629 130.765 64.6015 130.737 64.5649L127.497 59.3939C127.461 59.3299 127.479 59.2475 127.543 59.2017C127.607 59.156 127.689 59.1834 127.735 59.2475L130.975 64.4185C131.012 64.4825 130.993 64.5649 130.929 64.6107C130.911 64.629 130.884 64.629 130.856 64.629Z" fill="#838383"/>
<path d="M129.007 65.5443C128.961 65.5443 128.906 65.5168 128.888 65.471L126.152 60.0438C126.115 59.9797 126.152 59.8974 126.216 59.8608C126.28 59.8241 126.362 59.8608 126.399 59.9248L129.135 65.3521C129.172 65.4161 129.135 65.4985 129.071 65.5351C129.053 65.5442 129.035 65.5534 129.007 65.5534V65.5443Z" fill="#838383"/>
<path d="M127.177 66.2764C127.122 66.2764 127.076 66.249 127.049 66.1941L124.495 60.6753C124.468 60.6021 124.495 60.5289 124.559 60.4923C124.632 60.4648 124.715 60.4923 124.742 60.5563L127.296 66.0751C127.323 66.1483 127.296 66.2215 127.232 66.2581C127.213 66.2581 127.195 66.2673 127.177 66.2673V66.2764Z" fill="#838383"/>
<path d="M124.934 66.9355C124.879 66.9355 124.825 66.8989 124.806 66.844L122.774 61.133C122.747 61.0598 122.784 60.9866 122.857 60.9591C122.93 60.9317 123.003 60.9683 123.031 61.0415L125.062 66.7525C125.09 66.8257 125.053 66.8989 124.98 66.9263C124.962 66.9263 124.953 66.9263 124.934 66.9263V66.9355Z" fill="#838383"/>
<path d="M122.528 67.2283C122.463 67.2283 122.409 67.1825 122.39 67.1184L121.1 61.4258C121.082 61.3526 121.127 61.2794 121.2 61.2611C121.274 61.2428 121.347 61.2885 121.365 61.3617L122.656 67.0544C122.674 67.1276 122.628 67.2008 122.555 67.2191C122.546 67.2191 122.537 67.2191 122.528 67.2191V67.2283Z" fill="#838383"/>
<path d="M120.514 67.6583C120.45 67.6583 120.386 67.6126 120.377 67.5485L119.37 61.6088C119.361 61.5355 119.407 61.4623 119.48 61.4532C119.553 61.4349 119.626 61.4898 119.636 61.563L120.642 67.5028C120.651 67.576 120.606 67.6492 120.533 67.6583H120.514Z" fill="#838383"/>
<path d="M118.501 67.7593C118.427 67.7593 118.372 67.7044 118.363 67.6312L117.878 61.6457C117.878 61.5724 117.924 61.5084 118.006 61.4992C118.098 61.4992 118.153 61.545 118.153 61.6274L118.638 67.6129C118.638 67.6861 118.592 67.7502 118.51 67.7593C118.51 67.7593 118.51 67.7593 118.501 67.7593Z" fill="#838383"/>
<path d="M141.985 50.4162C141.985 50.4162 141.939 50.4162 141.912 50.3979L135.991 46.975C135.926 46.9383 135.899 46.856 135.945 46.7828C135.981 46.7187 136.064 46.6912 136.137 46.737L142.058 50.1599C142.123 50.1965 142.15 50.2789 142.104 50.3521C142.077 50.3979 142.031 50.4253 141.985 50.4253V50.4162Z" fill="#838383"/>
<path d="M116.313 67.6405C116.24 67.6405 116.176 67.5764 116.176 67.5032V61.6367C116.176 61.5635 116.24 61.4994 116.313 61.4994C116.387 61.4994 116.451 61.5635 116.451 61.6367V67.5032C116.451 67.5764 116.387 67.6405 116.313 67.6405Z" fill="#838383"/>
<path d="M166.449 17.9802H66.2603V18.8954H166.449V17.9802Z" fill="black"/>
<path d="M66.718 14.5938H65.8028V22.2816H66.718V14.5938Z" fill="black"/>
<path d="M166.907 14.5938H165.992V22.2816H166.907V14.5938Z" fill="black"/>
<path d="M158.34 90.5569H74.305V91.4722H158.34V90.5569Z" fill="black"/>
<path d="M74.7628 87.1707H73.8476V94.8585H74.7628V87.1707Z" fill="black"/>
<path d="M158.789 87.1705H157.873V94.8583H158.789V87.1705Z" fill="black"/>
<path d="M51.4705 61.4256H50.5552V108.596H51.4705V61.4256Z" fill="black"/>
<path d="M54.8565 60.9682H47.1687V61.8834H54.8565V60.9682Z" fill="black"/>
<path d="M54.8566 108.514H47.1688V109.429H54.8566V108.514Z" fill="black"/>
<path d="M213.839 42.151H212.924V201.115H213.839V42.151Z" fill="black"/>
<path d="M217.225 41.6936H209.537V42.6089H217.225V41.6936Z" fill="black"/>
<path d="M217.225 200.657H209.537V201.573H217.225V200.657Z" fill="black"/>
<path d="M18.0283 63.4303H17.113V201.619H18.0283V63.4303Z" fill="black"/>
<path d="M21.4145 62.9724H13.7267V63.8876H21.4145V62.9724Z" fill="black"/>
<path d="M21.4144 200.887H13.7266V201.802H21.4144V200.887Z" fill="black"/>
<path d="M159.32 210.953H75.2843V211.869H159.32V210.953Z" fill="black"/>
<path d="M75.7421 207.567H74.8268V215.255H75.7421V207.567Z" fill="black"/>
<path d="M159.768 207.567H158.853V215.255H159.768V207.567Z" fill="black"/>
<path d="M125.969 18.4379C125.969 23.7462 121.667 28.0477 116.359 28.0477C111.051 28.0477 106.749 23.7462 106.749 18.4379C106.749 13.1296 111.042 8.82812 116.359 8.82812C121.676 8.82812 125.969 13.1296 125.969 18.4379Z" fill="black"/>
<path d="M118.812 22.3182L117.952 19.8197H114.748L113.888 22.3182H112.131L115.27 13.2942H117.421L120.56 22.3182H118.803H118.812ZM115.288 18.2638H117.421L116.359 15.1429L115.297 18.2638H115.288Z" fill="white"/>
<path d="M125.932 91.0144C125.932 96.3226 121.631 100.624 116.322 100.624C111.014 100.624 106.713 96.3226 106.713 91.0144C106.713 85.7061 111.014 81.4046 116.322 81.4046C121.631 81.4046 125.932 85.7061 125.932 91.0144Z" fill="black"/>
<path d="M120.084 92.8906C120.084 94.7211 118.812 95.5265 116.963 95.5265H112.936V86.5024H116.533C118.363 86.5024 119.654 87.3078 119.654 89.1017C119.654 89.8247 119.333 90.4562 118.519 90.804C119.59 91.1792 120.075 91.9114 120.075 92.8906H120.084ZM114.657 88.0217V90.2823H116.524C117.402 90.2823 117.951 89.8979 117.951 89.1383C117.951 88.3786 117.402 88.0217 116.524 88.0217H114.657ZM116.954 94.0072C117.832 94.0072 118.382 93.6411 118.382 92.854C118.382 92.0669 117.832 91.6826 116.954 91.6826H114.657V94.0072H116.954Z" fill="white"/>
<path d="M27.1893 132.382C27.1893 137.691 22.8878 141.992 17.5795 141.992C12.2712 141.992 7.96973 137.691 7.96973 132.382C7.96973 127.074 12.2712 122.773 17.5795 122.773C22.8878 122.773 27.1893 127.074 27.1893 132.382Z" fill="black"/>
<path d="M13.7354 133.151V131.614C13.7354 129.133 15.5475 127.706 17.6525 127.706C19.5928 127.706 20.9748 128.841 21.4141 130.699L19.7758 131.174C19.483 129.957 18.8332 129.307 17.6434 129.307C16.4536 129.307 15.4469 130.113 15.4469 131.678V133.087C15.4469 134.671 16.4536 135.458 17.6434 135.458C18.8332 135.458 19.4738 134.808 19.7758 133.591L21.4141 134.066C20.9748 135.934 19.5928 137.059 17.6525 137.059C15.5567 137.059 13.7354 135.641 13.7354 133.151Z" fill="white"/>
<path d="M60.6224 85.2031C60.6224 90.5114 56.3209 94.8129 51.0126 94.8129C45.7043 94.8129 41.4028 90.5114 41.4028 85.2031C41.4028 79.8949 45.7043 75.5933 51.0126 75.5933C56.3209 75.5933 60.6224 79.8949 60.6224 85.2031Z" fill="black"/>
<path d="M55.259 84.663V85.7429C55.259 88.2964 53.4835 89.715 51.1497 89.715H47.8366V80.6909H51.1497C53.4743 80.6909 55.259 82.1187 55.259 84.663ZM53.5384 84.7179C53.5384 83.0247 52.5317 82.256 51.1588 82.256H49.5664V88.1408H51.1588C52.5317 88.1408 53.5384 87.3812 53.5384 85.6789V84.7087V84.7179Z" fill="white"/>
<path d="M223 121.637C223 126.946 218.698 131.247 213.39 131.247C208.082 131.247 203.78 126.946 203.78 121.637C203.78 116.329 208.082 112.028 213.39 112.028C218.698 112.028 223 116.329 223 121.637Z" fill="black"/>
<path d="M212.429 124.63H216.722V126.149H210.709V117.125H216.612V118.644H212.429V120.749H216.401V122.259H212.429V124.63Z" fill="white"/>
<path d="M126.912 211.411C126.912 216.72 122.61 221.021 117.302 221.021C111.994 221.021 107.692 216.72 107.692 211.411C107.692 206.103 111.994 201.802 117.302 201.802C122.61 201.802 126.912 206.103 126.912 211.411Z" fill="black"/>
<path d="M120.524 208.418H116.451V210.633H120.093V212.153H116.451V215.932H114.73V206.908H120.524V208.428V208.418Z" fill="white"/>
</svg>
