<svg width="230" height="230" viewBox="0 0 230 230" fill="none" xmlns="http://www.w3.org/2000/svg">
<rect width="230" height="230" fill="white"/>
<path d="M95.7251 208.379C94.8033 208.379 93.863 208.379 92.8917 208.367C78.5948 208.224 68.8202 205.552 63.1348 203.331C56.9483 200.918 54.1954 198.567 54.084 198.468L53.9727 198.375V198.233C53.985 196.922 55.2842 66.7769 55.2842 53.5502C55.2842 40.3236 61.6686 15.0952 61.7305 14.8415L61.7923 14.5941L62.046 14.6065C69.0553 15.0086 98.5894 16.4376 98.8864 16.45C113.115 17.1429 136.624 14.6312 136.859 14.6065L137.051 14.5879L137.156 14.7487C141.653 21.8632 144.703 61.6731 144.493 66.9316C144.301 71.7818 145.464 196.891 145.477 198.153V198.208L145.458 198.258C144.425 201.258 134.805 203.287 134.391 203.374L134.044 203.448L134.019 203.096L129.961 149.521L128.656 204.698L128.489 204.778C128.173 204.933 120.78 208.373 95.7189 208.373L95.7251 208.379ZM54.5913 198.085C55.1605 198.536 57.9629 200.652 63.3946 202.768C69.0305 204.964 78.7185 207.606 92.8979 207.748C117.928 207.995 126.763 204.828 128.056 204.302L129.497 143.285L130.116 143.266L134.619 202.694C137.508 202.056 144.054 200.207 144.864 198.103C144.833 194.855 143.689 71.7323 143.881 66.9068C144.091 61.7164 141.134 22.6983 136.741 15.2437C134.434 15.4849 112.441 17.7306 98.8678 17.0687C98.5647 17.0563 69.7234 15.6643 62.2811 15.2375C61.6191 17.8853 55.9152 41.0598 55.9152 53.5441C55.9152 66.0283 54.6532 192.987 54.6037 198.085H54.5913Z" fill="#828384"/>
<path d="M97.6126 21.931C75.5145 21.931 62.0837 15.1507 61.9476 15.0826L62.1208 14.7547C62.2631 14.829 76.4858 21.9929 99.7283 21.5413C111.885 21.3062 121.319 19.4688 127.097 17.9717C133.358 16.3509 136.785 14.7671 136.822 14.7486L136.977 15.0826C136.841 15.1445 123.076 21.4485 99.7345 21.9063C99.0231 21.9187 98.3116 21.9249 97.6126 21.9249V21.931Z" fill="#828384"/>
<path d="M71.2455 205.595C68.4616 159.289 75.6503 20.8302 75.7245 19.4382L76.0957 19.4568C76.0215 20.8488 68.8328 159.283 71.6167 205.577L71.2455 205.601V205.595Z" fill="#828384"/>
<path d="M129.621 143.297C127.87 99.3797 123.558 20.2487 123.515 19.4568L123.886 19.4382C123.929 20.2301 128.241 99.3612 129.992 143.285L129.621 143.297Z" fill="#828384"/>
<path d="M129.708 201.765C128.984 201.765 128.464 201.697 128.409 201.691L128.458 201.32C128.495 201.32 132.226 201.796 133.995 200.12L134.249 200.392C133.024 201.549 131.019 201.759 129.708 201.759V201.765Z" fill="#828384"/>
<path d="M136.896 6.18613H62.0334V6.80477H136.896V6.18613Z" fill="black"/>
<path d="M62.3425 3.89746H61.7238V9.09409H62.3425V3.89746Z" fill="black"/>
<path d="M137.205 3.89746H136.586V9.09409H137.205V3.89746Z" fill="black"/>
<path d="M145.91 222.514H54.2573V223.133H145.91V222.514Z" fill="black"/>
<path d="M54.5664 220.226H53.9478V225.422H54.5664V220.226Z" fill="black"/>
<path d="M146.219 220.226H145.601V225.422H146.219V220.226Z" fill="black"/>
<path d="M170.86 16.3261H170.241V208.069H170.86V16.3261Z" fill="black"/>
<path d="M173.148 16.0166H167.952V16.6352H173.148V16.0166Z" fill="black"/>
<path d="M173.148 207.76H167.952V208.379H173.148V207.76Z" fill="black"/>
<path d="M142.247 60.813H57.2015V61.4316H142.247V60.813Z" fill="black"/>
<path d="M57.5112 58.5237H56.8926V63.7204H57.5112V58.5237Z" fill="black"/>
<path d="M142.556 58.5237H141.938V63.7204H142.556V58.5237Z" fill="black"/>
<path d="M105.963 6.49579C105.963 10.0839 103.056 12.9916 99.4675 12.9916C95.8793 12.9916 92.9717 10.0839 92.9717 6.49579C92.9717 2.90764 95.8731 0 99.4675 0C103.062 0 105.963 2.90764 105.963 6.49579Z" fill="black"/>
<path d="M101.125 9.11882L100.544 7.42992H98.3785L97.797 9.11882H96.6092L98.7311 3.01897H100.185L102.307 9.11882H101.119H101.125ZM98.7435 6.37822H100.185L99.4673 4.26864L98.7497 6.37822H98.7435Z" fill="white"/>
<path d="M106.223 61.1221C106.223 64.7102 103.315 67.6179 99.727 67.6179C96.1389 67.6179 93.2312 64.7102 93.2312 61.1221C93.2312 57.5339 96.1389 54.6263 99.727 54.6263C103.315 54.6263 106.223 57.5339 106.223 61.1221Z" fill="black"/>
<path d="M102.27 62.3898C102.27 63.6271 101.41 64.1715 100.16 64.1715H97.4383V58.0716H99.8696C101.107 58.0716 101.979 58.616 101.979 59.8286C101.979 60.3173 101.763 60.7442 101.212 60.9793C101.936 61.2329 102.264 61.7278 102.264 62.3898H102.27ZM98.6076 59.0986V60.6266H99.8696C100.464 60.6266 100.835 60.3668 100.835 59.8533C100.835 59.3399 100.464 59.0986 99.8696 59.0986H98.6076ZM100.154 63.1507C100.748 63.1507 101.119 62.9033 101.119 62.3712C101.119 61.8392 100.748 61.5794 100.154 61.5794H98.6014V63.1507H100.154Z" fill="white"/>
<path d="M106.582 222.824C106.582 226.412 103.675 229.32 100.087 229.32C96.4984 229.32 93.5908 226.412 93.5908 222.824C93.5908 219.236 96.4984 216.328 100.087 216.328C103.675 216.328 106.582 219.236 106.582 222.824Z" fill="black"/>
<path d="M97.4878 223.344V222.305C97.4878 220.628 98.7127 219.663 100.136 219.663C101.447 219.663 102.381 220.43 102.678 221.686L101.571 222.008C101.373 221.185 100.934 220.746 100.129 220.746C99.3252 220.746 98.6446 221.29 98.6446 222.348V223.301C98.6446 224.371 99.3252 224.903 100.129 224.903C100.934 224.903 101.367 224.464 101.571 223.641L102.678 223.963C102.381 225.225 101.447 225.986 100.136 225.986C98.7189 225.986 97.4878 225.027 97.4878 223.344Z" fill="white"/>
<path d="M177.052 112.197C177.052 115.786 174.144 118.693 170.556 118.693C166.968 118.693 164.06 115.786 164.06 112.197C164.06 108.609 166.968 105.702 170.556 105.702C174.144 105.702 177.052 108.609 177.052 112.197Z" fill="black"/>
<path d="M173.427 111.832V112.562C173.427 114.288 172.226 115.247 170.649 115.247H168.409V109.148H170.649C172.22 109.148 173.427 110.113 173.427 111.832ZM172.257 111.87C172.257 110.725 171.577 110.205 170.649 110.205H169.572V114.183H170.649C171.577 114.183 172.257 113.67 172.257 112.519V111.863V111.87Z" fill="white"/>
</svg>
