<svg width="230" height="230" viewBox="0 0 230 230" fill="none" xmlns="http://www.w3.org/2000/svg">
<rect width="230" height="230" fill="white"/>
<path d="M109.19 229.981C75.7715 229.981 59.325 224.799 57.6505 223.338C56.037 221.926 61.8553 207.704 64.7583 201.434C66.3168 198.066 70.6316 177.109 82.3293 96.3683C82.6227 94.3392 82.806 93.0863 82.8488 92.7991C83.2399 90.2811 80.068 71.0477 79.4507 67.3319L76.1932 70.8766L75.9671 70.6505C75.2153 69.8987 57.5099 52.1872 56.8926 51.3682C56.7093 51.1238 56.3303 50.6165 62.4298 42.1457C65.7484 37.5314 69.342 32.8927 70.9677 31.1142C74.3353 27.4411 92.218 20.1438 92.9758 19.8321L93.0919 19.7832L93.208 19.826C98.4885 21.9162 109.08 21.8428 109.184 21.8428V22.454C108.756 22.454 98.5191 22.5273 93.098 20.4371C91.5457 21.0728 74.5614 28.095 71.42 31.5176C67.863 35.3985 57.6077 49.5164 57.4243 51.0382C58.3105 52.0711 69.8738 63.6771 76.181 69.9843L79.848 65.9873L79.9519 66.6046C80.1108 67.558 83.9061 90.0122 83.4538 92.8786C83.4111 93.1658 83.2277 94.4187 82.9344 96.4417C73.663 160.406 67.5697 196.795 65.3083 201.672C60.8163 211.377 57.1493 222.073 58.0538 222.855C59.0256 223.705 73.6263 229.352 109.19 229.352V229.981Z" fill="#828384"/>
<path d="M109.19 229.981V229.37C144.754 229.37 159.354 223.729 160.326 222.873C161.225 222.085 157.564 211.396 153.072 201.69C150.81 196.813 144.717 160.425 135.446 96.46C135.152 94.437 134.969 93.1841 134.926 92.8969C134.48 90.0305 138.269 67.5763 138.428 66.6229L138.532 66.0056L142.199 70.0026C148.506 63.6954 160.07 52.0894 160.956 51.0565C160.772 49.5347 150.511 35.4168 146.96 31.5359C143.819 28.1073 126.834 21.0911 125.282 20.4555C119.861 22.5457 109.624 22.4723 109.19 22.4723V21.8612C109.3 21.8612 119.892 21.9345 125.172 19.8443L125.288 19.8015L125.404 19.8504C126.162 20.156 144.045 27.4594 147.412 31.1325C149.038 32.911 152.632 37.5498 155.95 42.1641C162.05 50.6348 161.671 51.1421 161.487 51.3866C160.87 52.2116 143.165 69.9171 142.413 70.6688L142.187 70.8949L138.929 67.3502C138.312 71.06 135.14 90.2994 135.531 92.8174C135.574 93.1047 135.757 94.3576 136.051 96.3866C147.755 177.128 152.069 198.085 153.622 201.452C156.525 207.723 162.343 221.938 160.73 223.356C159.055 224.823 142.609 230 109.19 230V229.981Z" fill="#828384"/>
<path d="M109.19 38.0265C96.8873 38.0265 92.9575 20.3394 92.9147 20.156L93.2753 20.0827C93.3119 20.2599 97.1806 37.6598 109.19 37.6598V38.0265Z" fill="#828384"/>
<path d="M79.6157 66.9285L79.249 66.8857C80.563 55.1086 71.585 31.1753 71.4933 30.9309L71.8356 30.8025C71.9273 31.047 80.9358 55.0597 79.6096 66.9224L79.6157 66.9285Z" fill="#828384"/>
<path d="M109.19 93.1841C96.3433 93.1841 83.3072 92.4263 83.1788 92.4202L83.2033 92.0535C83.3316 92.0596 96.3617 92.8174 109.196 92.8174V93.1841H109.19Z" fill="#828384"/>
<path d="M92.1263 92.6585C92.1263 92.463 91.9429 73.1624 89.9139 66.1584L90.2683 66.0545C92.3157 73.1012 92.493 92.4569 92.493 92.6524H92.1263V92.6585Z" fill="#828384"/>
<path d="M109.19 38.0265V37.6598C121.199 37.6598 125.068 20.2538 125.105 20.0827L125.465 20.156C125.429 20.3333 121.499 38.0265 109.19 38.0265Z" fill="#828384"/>
<path d="M138.77 66.9285C137.45 55.0658 146.453 31.047 146.544 30.8086L146.887 30.937C146.795 31.1753 137.817 55.1147 139.131 66.8918L138.764 66.9346L138.77 66.9285Z" fill="#828384"/>
<path d="M109.19 93.1841V92.8174C122.024 92.8174 135.055 92.0596 135.183 92.0535L135.207 92.4202C135.079 92.4263 122.037 93.1841 109.196 93.1841H109.19Z" fill="#828384"/>
<path d="M126.254 92.6585H125.887C125.887 92.463 126.07 73.1074 128.112 66.0606L128.466 66.1645C126.437 73.1624 126.254 92.4691 126.254 92.6646V92.6585Z" fill="#828384"/>
<path d="M138.581 52.9027H79.5606V53.5139H138.581V52.9027Z" fill="black"/>
<path d="M79.8662 50.6414H79.255V55.7752H79.8662V50.6414Z" fill="black"/>
<path d="M138.886 50.6414H138.275V55.7752H138.886V50.6414Z" fill="black"/>
<path d="M46.7226 26.8794H46.1114V69.2943H46.7226V26.8794Z" fill="black"/>
<path d="M48.9839 26.5738H43.8501V27.185H48.9839V26.5738Z" fill="black"/>
<path d="M48.9839 69.0926H43.8501V69.7037H48.9839V69.0926Z" fill="black"/>
<path d="M146.477 6.1119H71.4259V6.72306H146.477V6.1119Z" fill="black"/>
<path d="M71.7315 3.85059H71.1204V8.98437H71.7315V3.85059Z" fill="black"/>
<path d="M146.508 3.85059H145.896V8.98437H146.508V3.85059Z" fill="black"/>
<path d="M141.881 125.216H76.028V125.827H141.881V125.216Z" fill="black"/>
<path d="M76.0097 122.948H75.3985V128.082H76.0097V122.948Z" fill="black"/>
<path d="M142.229 122.948H141.618V128.082H142.229V122.948Z" fill="black"/>
<path d="M135.256 85.9301H82.6958V86.5413H135.256V85.9301Z" fill="black"/>
<path d="M83.0014 83.6688H82.3902V88.8026H83.0014V83.6688Z" fill="black"/>
<path d="M135.562 83.6688H134.95V88.8026H135.562V83.6688Z" fill="black"/>
<path d="M183.862 20.56H183.251V225.392H183.862V20.56Z" fill="black"/>
<path d="M186.123 20.2545H180.99V20.8656H186.123V20.2545Z" fill="black"/>
<path d="M186.123 225.086H180.99V225.698H186.123V225.086Z" fill="black"/>
<path d="M115.234 6.41723C115.234 9.96199 112.362 12.8345 108.817 12.8345C105.272 12.8345 102.4 9.96199 102.4 6.41723C102.4 2.87248 105.266 0 108.811 0C112.356 0 115.228 2.87248 115.228 6.41723H115.234Z" fill="black"/>
<path d="M110.455 9.00857L109.881 7.34009H107.742L107.167 9.00857H105.994L108.09 2.98249H109.526L111.622 9.00857H110.449H110.455ZM108.102 6.30111H109.526L108.817 4.21704L108.108 6.30111H108.102Z" fill="white"/>
<path d="M115.491 53.2081C115.491 56.7528 112.619 59.6253 109.074 59.6253C105.529 59.6253 102.657 56.7528 102.657 53.2081C102.657 49.6633 105.529 46.7908 109.074 46.7908C112.619 46.7908 115.491 49.6633 115.491 53.2081Z" fill="black"/>
<path d="M111.586 54.461C111.586 55.6833 110.736 56.2211 109.502 56.2211H106.813V50.195H109.214C110.437 50.195 111.299 50.7329 111.299 51.9307C111.299 52.4136 111.085 52.8353 110.541 53.0675C111.256 53.3181 111.58 53.807 111.58 54.461H111.586ZM107.962 51.2096V52.7191H109.208C109.795 52.7191 110.162 52.4625 110.162 51.9552C110.162 51.4479 109.795 51.2096 109.208 51.2096H107.962ZM109.496 55.2127C110.082 55.2127 110.449 54.9682 110.449 54.4426C110.449 53.917 110.082 53.6603 109.496 53.6603H107.962V55.2127H109.496Z" fill="white"/>
<path d="M115.393 86.2355C115.393 89.7802 112.521 92.6527 108.976 92.6527C105.431 92.6527 102.559 89.7802 102.559 86.2355C102.559 82.6907 105.431 79.8182 108.976 79.8182C112.521 79.8182 115.393 82.6907 115.393 86.2355Z" fill="black"/>
<path d="M106.409 86.7488V85.7221C106.409 84.0658 107.619 83.1124 109.025 83.1124C110.321 83.1124 111.243 83.8702 111.537 85.1109L110.443 85.4287C110.247 84.6159 109.813 84.1819 109.019 84.1819C108.224 84.1819 107.552 84.7198 107.552 85.7649V86.706C107.552 87.7634 108.224 88.289 109.019 88.289C109.813 88.289 110.241 87.855 110.443 87.0422L111.537 87.36C111.243 88.6068 110.321 89.3585 109.025 89.3585C107.625 89.3585 106.409 88.4112 106.409 86.7488Z" fill="white"/>
<path d="M52.8406 48.1415C52.8406 51.6862 49.9681 54.5587 46.4233 54.5587C42.8786 54.5587 40 51.6801 40 48.1415C40 44.6028 42.8725 41.7243 46.4172 41.7243C49.962 41.7243 52.8345 44.5967 52.8345 48.1415H52.8406Z" fill="black"/>
<path d="M49.2592 47.7809V48.5021C49.2592 50.2072 48.0735 51.1545 46.515 51.1545H44.3026V45.1284H46.515C48.0674 45.1284 49.2592 46.0819 49.2592 47.7809ZM48.104 47.8176C48.104 46.6869 47.4318 46.1735 46.515 46.1735H45.4516V50.1033H46.515C47.4318 50.1033 48.104 49.5961 48.104 48.4593V47.8115V47.8176Z" fill="white"/>
<path d="M115.234 125.521C115.234 129.066 112.362 131.938 108.817 131.938C105.272 131.938 102.4 129.066 102.4 125.521C102.4 121.976 105.272 119.104 108.817 119.104C112.362 119.104 115.234 121.976 115.234 125.521Z" fill="black"/>
<path d="M108.176 127.52H111.042V128.534H107.027V122.508H110.969V123.523H108.176V124.928H110.828V125.937H108.176V127.52Z" fill="white"/>
<path d="M189.974 122.979C189.974 126.524 187.101 129.396 183.557 129.396C180.012 129.396 177.139 126.524 177.139 122.979C177.139 119.434 180.012 116.562 183.557 116.562C187.101 116.562 189.974 119.434 189.974 122.979Z" fill="black"/>
<path d="M185.714 120.974H182.994V122.453H185.427V123.468H182.994V125.992H181.845V119.966H185.714V120.98V120.974Z" fill="white"/>
</svg>
