<svg width="230" height="230" viewBox="0 0 230 230" fill="none" xmlns="http://www.w3.org/2000/svg">
<rect width="230" height="230" fill="white"/>
<path d="M107.596 225.993C69.8848 225.993 51.3256 220.145 49.4358 218.497C47.6151 216.904 54.1808 200.855 57.4499 193.779C61.7742 184.44 77.3195 111.19 77.8713 107.658C78.3127 104.824 74.7332 83.1128 74.0366 78.9265L70.3607 82.9266L70.1055 82.6714C69.2572 81.8231 49.2772 61.8363 48.5806 60.9121C48.3737 60.6362 47.9461 60.0638 54.8291 50.5049C58.5741 45.2978 62.6294 40.0631 64.4708 38.0562C68.2709 33.9112 88.4509 25.6764 89.3061 25.3247L89.4372 25.2695L89.5682 25.3178C95.527 27.6765 107.479 27.5937 107.596 27.5937V28.2834C107.114 28.2903 95.5615 28.3662 89.4441 26.0075C87.6923 26.7248 68.5261 34.6423 64.9812 38.5114C60.9673 42.8908 49.3945 58.8224 49.1875 60.5397C50.1876 61.7052 63.2363 74.8022 70.3538 81.9197L74.4918 77.4161L74.6091 78.1127C74.7884 79.1886 79.0713 104.527 78.5609 107.762C78.0092 111.3 62.4294 184.689 58.0844 194.061C53.0153 205.013 48.8772 217.083 49.8979 217.966C50.9945 218.924 67.4709 225.297 107.603 225.297V225.987L107.596 225.993Z" fill="#828384"/>
<path d="M107.596 225.993V225.304C147.729 225.304 164.205 218.938 165.302 217.973C166.316 217.083 162.184 205.02 157.115 194.068C152.777 184.696 137.197 111.307 136.639 107.769C136.135 104.534 140.411 79.1955 140.591 78.1196L140.708 77.423L144.846 81.9266C151.963 74.8091 165.012 61.7121 166.012 60.5466C165.805 58.8293 154.226 42.8908 150.219 38.5182C146.674 34.6492 127.507 26.7316 125.756 26.0144C119.638 28.3731 108.086 28.2903 107.596 28.2903V27.6006C107.727 27.6006 119.673 27.6903 125.631 25.3247L125.763 25.2764L125.894 25.3316C126.749 25.6833 146.929 33.9181 150.729 38.0631C152.563 40.07 156.619 45.3047 160.371 50.5118C167.254 60.0707 166.826 60.6431 166.619 60.919C165.922 61.8501 145.942 81.83 145.094 82.6783L144.839 82.9335L141.163 78.9334C140.466 83.1197 136.88 104.831 137.328 107.665C137.88 111.197 153.426 184.447 157.75 193.785C161.026 200.862 167.591 216.904 165.764 218.504C163.874 220.159 145.315 226 107.603 226L107.596 225.993Z" fill="#828384"/>
<path d="M107.596 45.8495C93.7132 45.8495 89.2785 25.8902 89.2303 25.6833L89.6372 25.5937C89.6786 25.7937 94.0442 45.4288 107.596 45.4288V45.8495Z" fill="#828384"/>
<path d="M74.2229 78.4644L73.8091 78.4161C75.2919 65.126 65.1605 38.1182 65.057 37.8424L65.4433 37.6975C65.5467 37.9665 75.7126 65.0709 74.216 78.4575L74.2229 78.4644Z" fill="#828384"/>
<path d="M107.596 108.093C93.0994 108.093 78.3885 107.238 78.2437 107.231L78.2713 106.817C78.4161 106.824 93.12 107.679 107.603 107.679V108.093H107.596Z" fill="#828384"/>
<path d="M88.3475 107.5C88.3475 107.279 88.1475 85.4991 85.8508 77.5954L86.2509 77.4782C88.5613 85.4302 88.7613 107.272 88.7613 107.493H88.3475V107.5Z" fill="#828384"/>
<path d="M107.596 45.8495V45.4357C121.149 45.4357 125.514 25.7937 125.556 25.6006L125.963 25.6902C125.921 25.8902 121.487 45.8564 107.596 45.8564V45.8495Z" fill="#828384"/>
<path d="M140.977 78.4644C139.487 65.0778 149.646 37.9734 149.75 37.7044L150.136 37.8493C150.032 38.1182 139.908 65.1329 141.384 78.423L140.97 78.4713L140.977 78.4644Z" fill="#828384"/>
<path d="M107.596 108.093V107.679C122.08 107.679 136.784 106.824 136.928 106.817L136.956 107.231C136.811 107.238 122.093 108.093 107.603 108.093H107.596Z" fill="#828384"/>
<path d="M126.852 107.5H126.438C126.438 107.279 126.645 85.4371 128.949 77.4851L129.349 77.6023C127.052 85.4991 126.852 107.286 126.852 107.507V107.5Z" fill="#828384"/>
<path d="M141.294 63.6983H74.6916V64.388H141.294V63.6983Z" fill="black"/>
<path d="M75.0364 61.1465H74.3467V66.9398H75.0364V61.1465Z" fill="black"/>
<path d="M141.639 61.1465H140.949V66.9398H141.639V61.1465Z" fill="black"/>
<path d="M37.635 34.3319H36.9454V82.1956H37.635V34.3319Z" fill="black"/>
<path d="M40.1869 33.9871H34.3936V34.6768H40.1869V33.9871Z" fill="black"/>
<path d="M40.1869 81.968H34.3936V82.6577H40.1869V81.968Z" fill="black"/>
<path d="M150.204 10.8965H65.5119V11.5862H150.204V10.8965Z" fill="black"/>
<path d="M65.8567 8.34473H65.1671V14.138H65.8567V8.34473Z" fill="black"/>
<path d="M150.239 8.34473H149.549V14.138H150.239V8.34473Z" fill="black"/>
<path d="M145.018 145.301H70.7052V145.991H145.018V145.301Z" fill="black"/>
<path d="M70.6845 142.742H69.9948V148.536H70.6845V142.742Z" fill="black"/>
<path d="M145.411 142.742H144.721V148.536H145.411V142.742Z" fill="black"/>
<path d="M137.542 100.969H78.2295V101.658H137.542V100.969Z" fill="black"/>
<path d="M78.5744 98.4168H77.8847V104.21H78.5744V98.4168Z" fill="black"/>
<path d="M137.887 98.4168H137.197V104.21H137.887V98.4168Z" fill="black"/>
<path d="M192.392 27.2008H191.702V219.035H192.392V27.2008Z" fill="black"/>
<path d="M194.944 26.8559H189.151V27.5456H194.944V26.8559Z" fill="black"/>
<path d="M194.944 218.69H189.151V219.38H194.944V218.69Z" fill="black"/>
<path d="M114.949 11.2416C114.949 15.2418 111.707 18.4832 107.707 18.4832C103.707 18.4832 100.466 15.2418 100.466 11.2416C100.466 7.24149 103.7 4 107.7 4C111.7 4 114.942 7.24149 114.942 11.2416H114.949Z" fill="black"/>
<path d="M109.555 14.1659L108.907 12.283H106.493L105.845 14.1659H104.521L106.886 7.36563H108.507L110.873 14.1659H109.549H109.555ZM106.9 11.1106H108.507L107.707 8.75878L106.907 11.1106H106.9Z" fill="white"/>
<path d="M115.238 64.0434C115.238 68.0435 111.997 71.285 107.997 71.285C103.997 71.285 100.755 68.0435 100.755 64.0434C100.755 60.0433 103.997 56.8018 107.997 56.8018C111.997 56.8018 115.238 60.0433 115.238 64.0434Z" fill="black"/>
<path d="M110.831 65.4573C110.831 66.8366 109.873 67.4435 108.48 67.4435H105.445V60.6433H108.155C109.535 60.6433 110.507 61.2502 110.507 62.602C110.507 63.1468 110.266 63.6227 109.652 63.8848C110.459 64.1676 110.824 64.7193 110.824 65.4573H110.831ZM106.742 61.7882V63.4917H108.148C108.811 63.4917 109.224 63.202 109.224 62.6296C109.224 62.0571 108.811 61.7882 108.148 61.7882H106.742ZM108.473 66.3056C109.135 66.3056 109.549 66.0297 109.549 65.4366C109.549 64.8434 109.135 64.5538 108.473 64.5538H106.742V66.3056H108.473Z" fill="white"/>
<path d="M115.128 101.314C115.128 105.314 111.886 108.555 107.886 108.555C103.886 108.555 100.645 105.314 100.645 101.314C100.645 97.3135 103.886 94.072 107.886 94.072C111.886 94.072 115.128 97.3135 115.128 101.314Z" fill="black"/>
<path d="M104.99 101.893V100.734C104.99 98.8653 106.355 97.7894 107.941 97.7894C109.404 97.7894 110.445 98.6446 110.776 100.045L109.542 100.403C109.321 99.486 108.831 98.9963 107.935 98.9963C107.038 98.9963 106.279 99.6032 106.279 100.783V101.845C106.279 103.038 107.038 103.631 107.935 103.631C108.831 103.631 109.314 103.141 109.542 102.224L110.776 102.583C110.445 103.99 109.404 104.838 107.941 104.838C106.362 104.838 104.99 103.769 104.99 101.893Z" fill="white"/>
<path d="M44.5395 58.3189C44.5395 62.319 41.298 65.5605 37.2978 65.5605C33.2977 65.5605 30.0493 62.319 30.0493 58.3189C30.0493 54.3188 33.2908 51.0773 37.2909 51.0773C41.2911 51.0773 44.5326 54.3188 44.5326 58.3189H44.5395Z" fill="black"/>
<path d="M40.4979 57.9189V58.7327C40.4979 60.6569 39.16 61.7259 37.4013 61.7259H34.9047V54.9257H37.4013C39.1531 54.9257 40.4979 56.0016 40.4979 57.9189ZM39.1944 57.9603C39.1944 56.6843 38.4358 56.105 37.4013 56.105H36.2012V60.5397H37.4013C38.4358 60.5397 39.1944 59.9672 39.1944 58.6844V57.9534V57.9603Z" fill="white"/>
<path d="M114.949 145.646C114.949 149.646 111.707 152.888 107.707 152.888C103.707 152.888 100.466 149.646 100.466 145.646C100.466 141.646 103.707 138.404 107.707 138.404C111.707 138.404 114.949 141.646 114.949 145.646Z" fill="black"/>
<path d="M106.983 147.901H110.218V149.046H105.686V142.246H110.135V143.391H106.983V144.977H109.976V146.115H106.983V147.901Z" fill="white"/>
<path d="M199.29 123.121C199.29 127.121 196.048 130.363 192.048 130.363C188.048 130.363 184.806 127.121 184.806 123.121C184.806 119.121 188.048 115.88 192.048 115.88C196.048 115.88 199.29 119.121 199.29 123.121Z" fill="black"/>
<path d="M194.482 120.859H191.413V122.528H194.158V123.673H191.413V126.521H190.117V119.721H194.482V120.866V120.859Z" fill="white"/>
</svg>
