<svg width="230" height="230" viewBox="0 0 230 230" fill="none" xmlns="http://www.w3.org/2000/svg">
<rect width="230" height="230" fill="white"/>
<path d="M100.411 192.24C79.9788 192.24 51.6559 188.286 51.0795 186.839C50.8278 186.198 51.2849 163.739 51.8679 144.087C52.3582 127.576 53.3719 97.7215 54.6903 83.3377C56.87 59.4579 61.183 48.8485 61.5673 47.9482C61.5872 47.4281 61.7064 43.8071 61.5673 41.6932C61.4083 39.1059 63.694 38.7458 63.7139 38.7458C63.747 38.7458 63.7735 38.7458 63.8066 38.7458C67.7553 39.3126 100.093 40.3195 100.418 40.3328C100.603 40.3328 100.742 40.4929 100.736 40.6796C100.736 40.8597 100.583 40.9997 100.404 40.9997H100.391C99.0661 40.9597 67.9606 39.9928 63.7602 39.4193C63.4952 39.4726 62.1106 39.8461 62.2232 41.6599C62.3689 43.9605 62.2232 48.0016 62.2232 48.0416C62.2232 48.0816 62.2099 48.1283 62.1967 48.1683C62.1503 48.2683 57.612 58.6711 55.3528 83.411C53.034 108.724 51.4704 183.438 51.6957 186.545C53.4447 187.519 78.9188 191.573 100.411 191.573C100.597 191.573 100.742 191.72 100.742 191.907C100.742 192.093 100.597 192.24 100.411 192.24Z" fill="#838384"/>
<path d="M100.411 192.24C100.226 192.24 100.08 192.093 100.08 191.907C100.08 191.72 100.226 191.573 100.411 191.573C121.936 191.573 147.463 187.505 149.133 186.538C149.358 183.964 147.795 108.811 145.476 83.3977C143.217 58.6577 138.678 48.2616 138.632 48.1549C138.612 48.1149 138.606 48.0749 138.606 48.0282C138.606 47.9882 138.453 43.9471 138.606 41.6465C138.718 39.8327 137.333 39.4659 137.068 39.4059C132.868 39.9794 101.763 40.9463 100.438 40.9864H100.424C100.245 40.9864 100.1 40.8463 100.093 40.6663C100.093 40.4796 100.232 40.3262 100.411 40.3195C100.736 40.3062 133.073 39.3059 137.022 38.7324C137.055 38.7324 137.082 38.7324 137.115 38.7324C137.141 38.7324 139.42 39.0925 139.261 41.6799C139.129 43.7871 139.248 47.4147 139.261 47.9349C139.646 48.8351 143.952 59.4446 146.138 83.3243C147.45 97.7081 148.471 127.556 148.961 144.074C149.544 163.726 150.001 186.185 149.749 186.825C149.312 187.932 134.63 189.779 132.961 189.993C126.223 190.826 113.032 192.233 100.418 192.233L100.411 192.24Z" fill="#838384"/>
<path d="M100.411 49.3886C84.8351 49.3886 61.4348 47.0613 61.2029 47.0413C61.0903 47.028 61.0108 46.9346 61.024 46.8213C61.0373 46.7146 61.1366 46.6345 61.2426 46.6412C61.4745 46.6679 84.855 48.9885 100.411 48.9885C100.524 48.9885 100.61 49.0752 100.61 49.1886C100.61 49.3019 100.524 49.3886 100.411 49.3886Z" fill="#838384"/>
<path d="M63.8464 50.3422C63.7867 50.3422 63.7271 50.3155 63.6874 50.2622C63.6211 50.1755 63.641 50.0488 63.7271 49.9821C64.7938 49.1752 64.6811 47.2147 64.6745 47.1947C64.6679 47.0813 64.754 46.988 64.86 46.9813C64.9859 46.9679 65.0654 47.0613 65.072 47.168C65.072 47.2547 65.2045 49.3619 63.9656 50.3022C63.9325 50.3288 63.8861 50.3422 63.8464 50.3422Z" fill="#838384"/>
<path d="M64.3631 57.6108C64.2638 57.6108 64.1776 57.5374 64.1644 57.4374C63.7337 54.1165 66.7416 47.5748 66.8675 47.2947C66.9138 47.1947 67.0331 47.1547 67.1325 47.1947C67.2319 47.2414 67.2716 47.3614 67.2252 47.4614C67.1921 47.5281 64.1379 54.1765 64.5553 57.3841C64.5685 57.4908 64.4956 57.5908 64.383 57.6108C64.3764 57.6108 64.3631 57.6108 64.3565 57.6108H64.3631Z" fill="#838384"/>
<path d="M73.1084 62.1587C73.1084 62.1587 73.0753 62.1587 73.0621 62.1587C72.9561 62.132 72.8898 62.0253 72.9163 61.9186C74.2016 56.7572 71.0612 48.1816 71.0281 48.0949C70.9884 47.9882 71.0414 47.8749 71.1474 47.8349C71.2468 47.7948 71.366 47.8482 71.4058 47.9549C71.5383 48.3083 74.619 56.7372 73.3072 62.0186C73.2873 62.112 73.2012 62.172 73.1151 62.172L73.1084 62.1587Z" fill="#838384"/>
<path d="M78.0707 54.3833C77.978 54.3833 77.8919 54.3166 77.8786 54.2232C77.5076 52.3694 78.2828 48.1616 78.3159 47.9816C78.3358 47.8749 78.4351 47.8015 78.5478 47.8215C78.6538 47.8415 78.7266 47.9482 78.7068 48.0549C78.7001 48.0949 77.9184 52.3694 78.2695 54.1432C78.2894 54.2499 78.2231 54.3566 78.1105 54.3766C78.0972 54.3766 78.084 54.3766 78.0707 54.3766V54.3833Z" fill="#838384"/>
<path d="M88.3531 63.7057C88.3531 63.7057 88.3134 63.7057 88.2935 63.6991C88.1875 63.6657 88.1279 63.5524 88.161 63.4457C89.5125 59.0712 87.4455 48.9685 87.4256 48.8685C87.4057 48.7618 87.472 48.6551 87.578 48.6351C87.6906 48.6084 87.79 48.6817 87.8165 48.7884C87.9026 49.2085 89.9299 59.0912 88.5452 63.5724C88.5187 63.6591 88.4392 63.7124 88.3531 63.7124V63.7057Z" fill="#838384"/>
<path d="M94.402 66.4198C94.3158 66.4198 94.2363 66.3598 94.2098 66.2731C93.1167 62.2454 94.72 49.622 94.7862 49.0885C94.7995 48.9818 94.9055 48.9018 95.0115 48.9151C95.1241 48.9285 95.197 49.0285 95.1837 49.1419C95.1639 49.2752 93.5274 62.2187 94.5941 66.1731C94.6206 66.2798 94.561 66.3931 94.455 66.4198C94.4351 66.4198 94.4218 66.4265 94.402 66.4265V66.4198Z" fill="#838384"/>
<path d="M98.3373 52.9162C98.2512 52.9162 98.1717 52.8562 98.1452 52.7695C97.6284 50.829 98.1253 49.2019 98.1452 49.1352C98.1783 49.0285 98.291 48.9752 98.397 49.0085C98.503 49.0418 98.5626 49.1552 98.5295 49.2619C98.5295 49.2752 98.0458 50.849 98.5295 52.6695C98.556 52.7762 98.4964 52.8829 98.3904 52.9162C98.3705 52.9162 98.3572 52.9229 98.3373 52.9229V52.9162Z" fill="#838384"/>
<path d="M100.411 49.3886C100.298 49.3886 100.212 49.3019 100.212 49.1885C100.212 49.0752 100.298 48.9885 100.411 48.9885C115.967 48.9885 139.348 46.6612 139.579 46.6412C139.685 46.6345 139.785 46.7079 139.798 46.8212C139.811 46.9346 139.732 47.028 139.619 47.0413C139.387 47.068 115.987 49.3886 100.411 49.3886Z" fill="#838384"/>
<path d="M136.962 50.3422C136.923 50.3422 136.876 50.3288 136.843 50.3022C135.604 49.3686 135.73 47.2614 135.737 47.168C135.743 47.0613 135.816 46.9679 135.949 46.9813C136.061 46.988 136.141 47.0813 136.134 47.1947C136.134 47.2147 136.022 49.1752 137.082 49.9821C137.168 50.0488 137.188 50.1755 137.121 50.2622C137.082 50.3155 137.022 50.3422 136.962 50.3422Z" fill="#838384"/>
<path d="M136.446 57.6108C136.446 57.6108 136.426 57.6108 136.419 57.6108C136.313 57.5975 136.234 57.4974 136.247 57.3841C136.664 54.1765 133.603 47.5281 133.577 47.4614C133.531 47.3614 133.577 47.2414 133.67 47.1947C133.769 47.148 133.888 47.1947 133.935 47.2947C134.061 47.5748 137.075 54.1165 136.638 57.4374C136.625 57.5374 136.538 57.6108 136.439 57.6108H136.446Z" fill="#838384"/>
<path d="M127.707 62.1587C127.621 62.1587 127.535 62.0987 127.515 62.0053C126.203 56.7239 129.284 48.295 129.416 47.9415C129.456 47.8348 129.569 47.7882 129.675 47.8215C129.781 47.8615 129.827 47.9749 129.794 48.0816C129.761 48.1683 126.62 56.7439 127.906 61.9053C127.932 62.012 127.866 62.1187 127.76 62.1453C127.747 62.1453 127.727 62.1453 127.714 62.1453L127.707 62.1587Z" fill="#838384"/>
<path d="M122.745 54.3833C122.745 54.3833 122.718 54.3833 122.705 54.3833C122.599 54.3633 122.526 54.2566 122.546 54.1499C122.897 52.3761 122.115 48.1016 122.109 48.0616C122.089 47.9549 122.162 47.8482 122.268 47.8282C122.38 47.8082 122.48 47.8815 122.5 47.9882C122.533 48.1683 123.301 52.3761 122.937 54.2299C122.917 54.3232 122.837 54.3899 122.745 54.3899V54.3833Z" fill="#838384"/>
<path d="M112.462 63.7057C112.376 63.7057 112.297 63.6524 112.27 63.5657C110.886 59.0912 112.913 49.2019 112.999 48.7818C113.026 48.6751 113.125 48.6017 113.238 48.6284C113.344 48.6484 113.416 48.7551 113.39 48.8618C113.37 48.9618 111.296 59.0645 112.654 63.439C112.688 63.5457 112.628 63.6591 112.522 63.6924C112.502 63.6924 112.482 63.6991 112.462 63.6991V63.7057Z" fill="#838384"/>
<path d="M106.414 66.4198C106.414 66.4198 106.38 66.4198 106.361 66.4131C106.255 66.3865 106.195 66.2731 106.221 66.1664C107.295 62.212 105.652 49.2686 105.632 49.1352C105.618 49.0285 105.691 48.9285 105.804 48.9085C105.91 48.8885 106.009 48.9685 106.029 49.0818C106.096 49.6153 107.699 62.2387 106.606 66.2664C106.579 66.3531 106.5 66.4131 106.414 66.4131V66.4198Z" fill="#838384"/>
<path d="M102.478 52.9162C102.478 52.9162 102.445 52.9162 102.425 52.9095C102.319 52.8829 102.259 52.7695 102.286 52.6628C102.776 50.8356 102.293 49.2686 102.286 49.2552C102.253 49.1485 102.312 49.0352 102.418 49.0018C102.524 48.9685 102.637 49.0285 102.67 49.1285C102.69 49.1952 103.194 50.8223 102.67 52.7628C102.644 52.8495 102.564 52.9095 102.478 52.9095V52.9162Z" fill="#838384"/>
<path d="M136.671 21.6685H64.1443V22.3353H136.671V21.6685Z" fill="black"/>
<path d="M64.4755 19.2012H63.813V24.8027H64.4755V19.2012Z" fill="black"/>
<path d="M137.002 19.2012H136.339V24.8027H137.002V19.2012Z" fill="black"/>
<path d="M145.94 94.2279H54.8625V94.8947H145.94V94.2279Z" fill="black"/>
<path d="M55.1938 91.7539H54.5312V97.3554H55.1938V91.7539Z" fill="black"/>
<path d="M146.271 91.7539H145.608V97.3554H146.271V91.7539Z" fill="black"/>
<path d="M149.484 207.665H51.3313V208.332H149.484V207.665Z" fill="black"/>
<path d="M51.6625 205.191H51V210.792H51.6625V205.191Z" fill="black"/>
<path d="M149.815 205.191H149.153V210.792H149.815V205.191Z" fill="black"/>
<path d="M173.375 38.4062H172.712V187.319H173.375V38.4062Z" fill="black"/>
<path d="M175.826 38.0728H170.261V38.7396H175.826V38.0728Z" fill="black"/>
<path d="M175.826 186.992H170.261V187.659H175.826V186.992Z" fill="black"/>
<path d="M107.368 22.0019C107.368 25.8696 104.254 29.0037 100.411 29.0037C96.5685 29.0037 93.4546 25.8696 93.4546 22.0019C93.4546 18.1342 96.5685 15 100.411 15C104.254 15 107.368 18.1342 107.368 22.0019Z" fill="black"/>
<path d="M102.187 24.8293L101.564 23.0088H99.245L98.6223 24.8293H97.3502L99.6227 18.2542H101.18L103.452 24.8293H102.18H102.187ZM99.6359 21.8752H101.18L100.411 19.6012L99.6426 21.8752H99.6359Z" fill="white"/>
<path d="M107.361 94.5614C107.361 98.4291 104.247 101.563 100.404 101.563C96.5616 101.563 93.4478 98.4291 93.4478 94.5614C93.4478 90.6937 96.5616 87.5596 100.404 87.5596C104.247 87.5596 107.361 90.6937 107.361 94.5614Z" fill="black"/>
<path d="M103.127 95.9285C103.127 97.2622 102.206 97.849 100.868 97.849H97.9529V91.2739H100.557C101.882 91.2739 102.816 91.8607 102.816 93.1677C102.816 93.6945 102.584 94.1547 101.994 94.4081C102.769 94.6815 103.121 95.215 103.121 95.9285H103.127ZM99.1985 92.3742V94.0213H100.55C101.186 94.0213 101.584 93.7412 101.584 93.1877C101.584 92.6343 101.186 92.3742 100.55 92.3742H99.1985ZM100.861 96.742C101.497 96.742 101.895 96.4753 101.895 95.9018C101.895 95.3283 101.497 95.0482 100.861 95.0482H99.1985V96.742H100.861Z" fill="white"/>
<path d="M107.368 207.998C107.368 211.866 104.254 215 100.411 215C96.5685 215 93.4546 211.866 93.4546 207.998C93.4546 204.13 96.5685 200.996 100.411 200.996C104.254 200.996 107.368 204.13 107.368 207.998Z" fill="black"/>
<path d="M97.6285 208.558V207.438C97.6285 205.631 98.9403 204.59 100.464 204.59C101.869 204.59 102.869 205.417 103.187 206.771L102.001 207.118C101.789 206.231 101.319 205.757 100.457 205.757C99.5962 205.757 98.8674 206.344 98.8674 207.484V208.511C98.8674 209.665 99.5962 210.239 100.457 210.239C101.319 210.239 101.783 209.765 102.001 208.878L103.187 209.225C102.869 210.585 101.869 211.406 100.464 211.406C98.9469 211.406 97.6285 210.372 97.6285 208.558Z" fill="white"/>
<path d="M180 112.866C180 116.734 176.886 119.868 173.043 119.868C169.201 119.868 166.087 116.734 166.087 112.866C166.087 108.998 169.201 105.864 173.043 105.864C176.886 105.864 180 108.998 180 112.866Z" fill="black"/>
<path d="M176.118 112.473V113.26C176.118 115.12 174.832 116.154 173.143 116.154H170.744V109.579H173.143C174.826 109.579 176.118 110.619 176.118 112.473ZM174.872 112.513C174.872 111.279 174.143 110.719 173.149 110.719H171.997V115.007H173.149C174.143 115.007 174.872 114.453 174.872 113.213V112.506V112.513Z" fill="white"/>
</svg>
