<svg width="230" height="230" viewBox="0 0 230 230" fill="none" xmlns="http://www.w3.org/2000/svg">
<rect width="230" height="230" fill="white"/>
<path d="M107.769 179.818C57.7393 179.818 48.7621 172.207 48.406 171.884C48.3314 171.81 48.2817 171.719 48.2735 171.611C46.6006 150.65 53.0768 120.754 58.8077 99.3706C64.8201 76.9358 71.288 58.915 71.7435 57.6562V48.5547C71.7435 48.3228 71.9257 48.1406 72.1576 48.1406H107.769C108 48.1406 108.183 48.3228 108.183 48.5547C108.183 48.7866 108 48.9688 107.769 48.9688H72.5717V57.7307C72.5717 57.7804 72.5634 57.8301 72.5468 57.8715C72.4806 58.0537 65.8056 76.472 59.6027 99.5942C53.9132 120.845 47.4701 150.526 49.0851 171.363C50.3025 172.232 61.2342 178.99 107.769 178.99C108 178.99 108.183 179.172 108.183 179.404C108.183 179.636 108 179.818 107.769 179.818Z" fill="#828384"/>
<path d="M107.769 179.818C107.537 179.818 107.354 179.636 107.354 179.404C107.354 179.172 107.537 178.99 107.769 178.99C154.286 178.99 165.235 172.24 166.452 171.363C168.067 150.526 161.624 120.845 155.926 99.5942C149.731 76.472 143.048 58.0537 142.982 57.8715C142.965 57.8301 142.957 57.7804 142.957 57.7307V48.9688H107.76C107.528 48.9688 107.346 48.7866 107.346 48.5547C107.346 48.3228 107.528 48.1406 107.76 48.1406H143.371C143.603 48.1406 143.785 48.3228 143.785 48.5547V57.6562C144.241 58.915 150.709 76.9358 156.721 99.3706C162.452 120.754 168.936 150.65 167.255 171.611C167.247 171.719 167.197 171.818 167.123 171.884C166.767 172.207 157.798 179.818 107.76 179.818H107.769Z" fill="#828384"/>
<path d="M107.769 57.4326H72.1576V58.0123H107.769V57.4326Z" fill="#828384"/>
<path d="M143.379 57.4326H107.769V58.0123H143.379V57.4326Z" fill="#828384"/>
<path d="M134.51 55.7845C133.143 55.7845 132.034 54.6748 132.034 53.3083C132.034 51.9419 133.143 50.8321 134.51 50.8321C135.876 50.8321 136.986 51.9419 136.986 53.3083C136.986 54.6748 135.876 55.7845 134.51 55.7845ZM134.51 51.4201C133.466 51.4201 132.613 52.2731 132.613 53.3166C132.613 54.3601 133.466 55.2131 134.51 55.2131C135.553 55.2131 136.406 54.3601 136.406 53.3166C136.406 52.2731 135.553 51.4201 134.51 51.4201Z" fill="#828384"/>
<path d="M143.379 32.282H72.1574V33.1101H143.379V32.282Z" fill="black"/>
<path d="M72.5715 29.2178H71.7433V36.1743H72.5715V29.2178Z" fill="black"/>
<path d="M143.793 29.2178H142.965V36.1743H143.793V29.2178Z" fill="black"/>
<path d="M157.88 107.968H57.6646V108.796H157.88V107.968Z" fill="black"/>
<path d="M58.0786 104.903H57.2505V111.86H58.0786V104.903Z" fill="black"/>
<path d="M158.294 104.903H157.466V111.86H158.294V104.903Z" fill="black"/>
<path d="M167.131 196.672H48.4141V197.5H167.131V196.672Z" fill="black"/>
<path d="M48.8282 193.608H48V200.564H48.8282V193.608Z" fill="black"/>
<path d="M167.545 193.608H166.717V200.564H167.545V193.608Z" fill="black"/>
<path d="M193.93 48.5554H193.102V179.405H193.93V48.5554Z" fill="black"/>
<path d="M196.994 48.1413H190.038V48.9695H196.994V48.1413Z" fill="black"/>
<path d="M196.994 178.991H190.038V179.819H196.994V178.991Z" fill="black"/>
<path d="M116.472 32.6957C116.472 37.499 112.58 41.3914 107.777 41.3914C102.973 41.3914 99.0811 37.499 99.0811 32.6957C99.0811 27.8924 102.965 24 107.768 24C112.572 24 116.464 27.8924 116.464 32.6957H116.472Z" fill="black"/>
<path d="M109.996 36.2071L109.218 33.9462H106.319L105.541 36.2071H103.951L106.791 28.0414H108.737L111.578 36.2071H109.988H109.996ZM106.808 32.5383H108.737L107.777 29.7143L106.816 32.5383H106.808Z" fill="white"/>
<path d="M116.472 108.381C116.472 113.185 112.58 117.077 107.777 117.077C102.973 117.077 99.0811 113.185 99.0811 108.381C99.0811 103.578 102.973 99.6857 107.777 99.6857C112.58 99.6857 116.472 103.578 116.472 108.381Z" fill="black"/>
<path d="M111.18 110.079C111.18 111.735 110.029 112.464 108.356 112.464H104.713V104.299H107.967C109.624 104.299 110.791 105.027 110.791 106.651C110.791 107.305 110.501 107.876 109.764 108.191C110.733 108.53 111.172 109.193 111.172 110.079H111.18ZM106.269 105.673V107.719H107.959C108.754 107.719 109.251 107.371 109.251 106.684C109.251 105.996 108.754 105.673 107.959 105.673H106.269ZM108.348 111.098C109.143 111.098 109.64 110.766 109.64 110.054C109.64 109.342 109.143 108.994 108.348 108.994H106.269V111.098H108.348Z" fill="white"/>
<path d="M116.472 197.086C116.472 201.889 112.58 205.781 107.777 205.781C102.973 205.781 99.0811 201.889 99.0811 197.086C99.0811 192.282 102.973 188.39 107.777 188.39C112.58 188.39 116.472 192.282 116.472 197.086Z" fill="black"/>
<path d="M104.29 197.781V196.39C104.29 194.146 105.93 192.854 107.835 192.854C109.59 192.854 110.841 193.881 111.238 195.562L109.756 195.992C109.491 194.891 108.903 194.303 107.826 194.303C106.75 194.303 105.839 195.032 105.839 196.448V197.723C105.839 199.156 106.75 199.868 107.826 199.868C108.903 199.868 109.483 199.28 109.756 198.179L111.238 198.609C110.841 200.299 109.59 201.317 107.835 201.317C105.938 201.317 104.29 200.034 104.29 197.781Z" fill="white"/>
<path d="M202.22 113.98C202.22 118.783 198.328 122.675 193.525 122.675C188.721 122.675 184.829 118.783 184.829 113.98C184.829 109.176 188.721 105.284 193.525 105.284C198.328 105.284 202.22 109.176 202.22 113.98Z" fill="black"/>
<path d="M197.367 113.491V114.468C197.367 116.779 195.761 118.062 193.649 118.062H190.651V109.897H193.649C195.752 109.897 197.367 111.189 197.367 113.491ZM195.802 113.541C195.802 112.009 194.891 111.313 193.649 111.313H192.208V116.638H193.649C194.891 116.638 195.802 115.951 195.802 114.41V113.532V113.541Z" fill="white"/>
</svg>
