<svg width="230" height="230" viewBox="0 0 230 230" fill="none" xmlns="http://www.w3.org/2000/svg">
<rect width="230" height="230" fill="white"/>
<path d="M109.34 219.993C85.8418 219.993 69.9728 218.006 60.7899 216.336C50.1074 214.396 44.9672 212.294 44.1556 211.583C42.1149 209.797 49.4736 191.81 53.1452 183.879C58.0922 173.189 75.4763 129.764 76.0329 126.208C76.5276 123.031 72.5158 98.6981 71.7351 94.0062L67.6152 98.4894L67.3292 98.2034C66.3785 97.2527 43.9855 74.852 43.2048 73.8162C42.9729 73.507 42.4937 72.8655 50.2079 62.1521C54.4052 56.3162 58.9502 50.4493 61.0063 48.2C65.2654 43.5545 87.8825 34.3252 88.841 33.931L88.9878 33.8691L89.1347 33.9232C95.8132 36.5668 109.209 36.474 109.34 36.474V37.247C108.799 37.247 95.8518 37.3475 88.9956 34.6962C87.0322 35.5001 65.5514 44.3738 61.5783 48.7102C57.0796 53.6185 44.1092 71.4741 43.8773 73.3988C44.9981 74.7051 59.6227 89.3838 67.5998 97.3609L72.2376 92.3134L72.369 93.0941C72.57 94.2999 77.3701 122.699 76.7981 126.324C76.2338 129.911 58.8111 173.483 53.8486 184.204C47.1934 198.581 43.7459 210.191 44.6735 210.995C45.9025 212.07 64.3687 219.212 109.348 219.212V219.985L109.34 219.993Z" fill="#828384"/>
<path d="M109.34 219.993V219.22C154.319 219.22 172.785 212.085 174.015 211.003C174.942 210.191 171.495 198.589 164.839 184.212C159.877 173.498 142.454 129.926 141.89 126.332C141.326 122.707 146.118 94.3077 146.319 93.1018L146.45 92.3211L151.088 97.3686C159.065 89.3916 173.69 74.7129 174.811 73.4065C174.579 71.4818 161.601 53.6185 157.11 48.7179C153.137 44.3815 131.656 35.5078 129.692 34.7039C122.836 37.3475 109.889 37.2547 109.34 37.2547V36.4818C109.479 36.4818 122.875 36.5745 129.553 33.931L129.7 33.8769L129.847 33.9387C130.805 34.3329 153.423 43.5622 157.682 48.2077C159.738 50.4571 164.283 56.3239 168.48 62.1598C176.194 72.8732 175.715 73.5148 175.483 73.824C174.702 74.8675 152.31 97.2604 151.359 98.2112L151.073 98.4971L146.953 94.0139C146.172 98.7058 142.16 123.039 142.655 126.216C143.212 129.772 160.588 173.197 165.543 183.887C169.214 191.818 176.573 209.797 174.532 211.59C173.721 212.301 168.581 214.404 157.898 216.344C148.723 218.014 132.846 220 109.348 220L109.34 219.993Z" fill="#828384"/>
<path d="M109.34 56.9423C93.7802 56.9423 88.81 34.5725 88.7559 34.3407L89.212 34.2402C89.2584 34.4643 94.1513 56.4708 109.34 56.4708V56.9423Z" fill="#828384"/>
<path d="M71.9284 93.496L71.4646 93.4419C73.1265 78.5468 61.7716 48.2773 61.6556 47.9681L62.0885 47.8058C62.2044 48.1072 73.598 78.485 71.9207 93.4883L71.9284 93.496Z" fill="#828384"/>
<path d="M109.34 126.703C93.0923 126.703 76.6049 125.744 76.4425 125.737L76.4734 125.273C76.6358 125.281 93.1155 126.239 109.348 126.239V126.703H109.34Z" fill="#828384"/>
<path d="M87.7588 126.038C87.7588 125.791 87.5269 101.38 84.9607 92.5221L85.409 92.3907C87.9984 101.303 88.2226 125.783 88.2226 126.03H87.7588V126.038Z" fill="#828384"/>
<path d="M109.34 56.9423V56.4785C124.529 56.4785 129.422 34.4643 129.468 34.2479L129.924 34.3484C129.878 34.5725 124.908 56.95 109.34 56.95V56.9423Z" fill="#828384"/>
<path d="M146.752 93.496C145.082 78.4927 156.468 48.115 156.584 47.8135L157.017 47.9758C156.901 48.2773 145.546 78.5545 147.208 93.4497L146.744 93.5038L146.752 93.496Z" fill="#828384"/>
<path d="M109.34 126.703V126.239C125.572 126.239 142.052 125.281 142.215 125.273L142.245 125.737C142.083 125.744 125.588 126.703 109.348 126.703H109.34Z" fill="#828384"/>
<path d="M130.921 126.038H130.458C130.458 125.791 130.69 101.311 133.271 92.3984L133.72 92.5298C131.153 101.38 130.921 125.798 130.921 126.046V126.038Z" fill="#828384"/>
<path d="M146.813 76.9077H72.1677V77.6807H146.813V76.9077Z" fill="black"/>
<path d="M72.5542 74.0478H71.7812V80.5407H72.5542V74.0478Z" fill="black"/>
<path d="M147.2 74.0478H146.427V80.5407H147.2V74.0478Z" fill="black"/>
<path d="M30.6359 43.9948H29.8629V97.6389H30.6359V43.9948Z" fill="black"/>
<path d="M33.4959 43.6083H27.0029V44.3813H33.4959V43.6083Z" fill="black"/>
<path d="M33.4959 97.3838H27.0029V98.1568H33.4959V97.3838Z" fill="black"/>
<path d="M156.8 17.7291H61.8794V18.5021H156.8V17.7291Z" fill="black"/>
<path d="M62.2659 14.8691H61.4929V21.3621H62.2659V14.8691Z" fill="black"/>
<path d="M156.831 14.8691H156.058V21.3621H156.831V14.8691Z" fill="black"/>
<path d="M156.8 168.366H61.8794V169.139H156.8V168.366Z" fill="black"/>
<path d="M62.2659 165.498H61.4929V171.991H62.2659V165.498Z" fill="black"/>
<path d="M156.831 165.498H156.058V171.991H156.831V165.498Z" fill="black"/>
<path d="M199.159 36.0873H198.386V208.699H199.159V36.0873Z" fill="black"/>
<path d="M202.019 35.7008H195.526V36.4738H202.019V35.7008Z" fill="black"/>
<path d="M202.019 208.313H195.526V209.086H202.019V208.313Z" fill="black"/>
<path d="M142.608 118.679H76.1329V119.452H142.608V118.679Z" fill="black"/>
<path d="M76.5194 115.819H75.7464V122.312H76.5194V115.819Z" fill="black"/>
<path d="M142.995 115.819H142.222V122.312H142.995V115.819Z" fill="black"/>
<path d="M117.286 18.1162C117.286 22.5994 113.653 26.2324 109.17 26.2324C104.687 26.2324 101.054 22.5994 101.054 18.1162C101.054 13.633 104.679 10 109.162 10C113.645 10 117.278 13.633 117.278 18.1162H117.286Z" fill="black"/>
<path d="M111.241 21.3936L110.515 19.2834H107.809L107.083 21.3936H105.599L108.25 13.7721H110.066L112.718 21.3936H111.234H111.241ZM108.265 17.9693H110.066L109.17 15.3335L108.273 17.9693H108.265Z" fill="white"/>
<path d="M117.611 77.2948C117.611 81.778 113.978 85.411 109.494 85.411C105.011 85.411 101.378 81.778 101.378 77.2948C101.378 72.8116 105.011 69.1786 109.494 69.1786C113.978 69.1786 117.611 72.8116 117.611 77.2948Z" fill="black"/>
<path d="M112.671 78.8794C112.671 80.4253 111.597 81.1055 110.035 81.1055H106.634V73.4841H109.672C111.218 73.4841 112.308 74.1643 112.308 75.6793C112.308 76.2899 112.037 76.8233 111.349 77.117C112.254 77.4339 112.664 78.0523 112.664 78.8794H112.671ZM108.088 74.7672V76.6764H109.664C110.406 76.6764 110.87 76.3518 110.87 75.7102C110.87 75.0686 110.406 74.7672 109.664 74.7672H108.088ZM110.028 79.8301C110.77 79.8301 111.234 79.521 111.234 78.8562C111.234 78.1914 110.77 77.8668 110.028 77.8668H108.088V79.8301H110.028Z" fill="white"/>
<path d="M117.487 119.066C117.487 123.549 113.854 127.182 109.371 127.182C104.887 127.182 101.254 123.549 101.254 119.066C101.254 114.583 104.887 110.95 109.371 110.95C113.854 110.95 117.487 114.583 117.487 119.066Z" fill="black"/>
<path d="M106.124 119.715V118.417C106.124 116.322 107.655 115.116 109.432 115.116C111.071 115.116 112.238 116.075 112.609 117.644L111.226 118.046C110.978 117.018 110.43 116.469 109.425 116.469C108.42 116.469 107.57 117.149 107.57 118.471V119.661C107.57 120.999 108.42 121.663 109.425 121.663C110.43 121.663 110.971 121.114 111.226 120.086L112.609 120.488C112.238 122.065 111.071 123.016 109.432 123.016C107.662 123.016 106.124 121.818 106.124 119.715Z" fill="white"/>
<path d="M38.3734 70.8789C38.3734 75.3622 34.7404 78.9951 30.2572 78.9951C25.774 78.9951 22.1333 75.3622 22.1333 70.8789C22.1333 66.3957 25.7663 62.7627 30.2495 62.7627C34.7327 62.7627 38.3657 66.3957 38.3657 70.8789H38.3734Z" fill="black"/>
<path d="M33.8438 70.4306V71.3427C33.8438 73.4993 32.3442 74.6974 30.3732 74.6974H27.575V67.0759H30.3732C32.3365 67.0759 33.8438 68.2817 33.8438 70.4306ZM32.3829 70.477C32.3829 69.047 31.5326 68.3977 30.3732 68.3977H29.0282V73.3679H30.3732C31.5326 73.3679 32.3829 72.7263 32.3829 71.2886V70.4692V70.477Z" fill="white"/>
<path d="M117.286 168.752C117.286 173.236 113.653 176.869 109.17 176.869C104.687 176.869 101.054 173.236 101.054 168.752C101.054 164.269 104.687 160.636 109.17 160.636C113.653 160.636 117.286 164.269 117.286 168.752Z" fill="black"/>
<path d="M108.358 171.28H111.983V172.563H106.905V164.942H111.891V166.225H108.358V168.003H111.713V169.278H108.358V171.28Z" fill="white"/>
<path d="M206.896 122.398C206.896 126.881 203.263 130.514 198.78 130.514C194.297 130.514 190.664 126.881 190.664 122.398C190.664 117.914 194.297 114.281 198.78 114.281C203.263 114.281 206.896 117.914 206.896 122.398Z" fill="black"/>
<path d="M201.501 119.862H198.061V121.733H201.137V123.016H198.061V126.208H196.608V118.587H201.501V119.87V119.862Z" fill="white"/>
</svg>
