<svg width="230" height="230" viewBox="0 0 230 230" fill="none" xmlns="http://www.w3.org/2000/svg">
<rect width="230" height="230" fill="white"/>
<path d="M41.2739 192.101C41.1608 192.101 41.0476 192.023 41.0215 191.901C40.9867 191.761 41.0737 191.622 41.213 191.587C41.3261 191.561 52.5967 188.724 60.0293 189.986C60.1685 190.012 60.2643 190.143 60.2469 190.291C60.2207 190.43 60.0815 190.534 59.9422 190.508C52.6055 189.264 41.448 192.075 41.3348 192.101C41.3087 192.101 41.2913 192.101 41.2739 192.101Z" fill="#828384"/>
<path d="M62.8926 188.332C62.8926 188.332 62.8752 188.332 62.8665 188.332C62.7186 188.315 62.6228 188.193 62.6315 188.045C62.6576 187.819 65.0249 164.982 65.2425 158.115C65.3556 154.581 65.6602 149.586 65.93 145.182C66.1998 140.787 66.4348 136.992 66.4348 135.391C66.4348 133.911 66.1824 129.847 65.9213 125.548C65.5993 120.395 65.2425 114.564 65.2425 112.006C65.2425 109.447 65.8604 102.719 66.4 96.7923C66.8352 92.0056 67.2529 87.4886 67.2007 86.5661C67.2007 86.4181 67.3051 86.2963 67.4444 86.2876C67.5923 86.2876 67.7142 86.392 67.7229 86.5313C67.7751 87.4886 67.3748 91.8228 66.9222 96.8358C66.3826 102.754 65.7647 109.464 65.7647 112.006C65.7647 114.547 66.1215 120.378 66.4435 125.513C66.7133 129.83 66.9657 133.903 66.9657 135.391C66.9657 137.01 66.7307 140.813 66.4609 145.217C66.1911 149.621 65.8778 154.616 65.7734 158.132C65.5558 165.025 63.1885 187.871 63.1624 188.106C63.145 188.237 63.0319 188.341 62.9013 188.341L62.8926 188.332Z" fill="#828384"/>
<path d="M67.1311 91.7619C67.0266 91.7619 66.9309 91.701 66.8874 91.5965C64.1198 84.3903 58.2799 70.3869 56.0084 68.9421C55.8866 68.8638 55.8517 68.7071 55.9301 68.5853C56.0084 68.4635 56.1738 68.4286 56.2869 68.507C59.2721 70.4043 67.044 90.5608 67.3748 91.4138C67.427 91.5443 67.3574 91.701 67.2268 91.7532C67.192 91.7619 67.1659 91.7706 67.1311 91.7706V91.7619Z" fill="#828384"/>
<path d="M65.1729 114.312C65.1206 114.312 65.0684 114.294 65.0162 114.26C56.8091 108.289 40.9954 108.402 40.8387 108.402C40.6995 108.402 40.5776 108.289 40.5776 108.141C40.5776 107.993 40.6908 107.88 40.8387 107.88C40.9867 107.871 56.9832 107.767 65.3295 113.842C65.4427 113.929 65.4688 114.094 65.3904 114.207C65.3382 114.277 65.2599 114.312 65.1816 114.312H65.1729Z" fill="#828384"/>
<path d="M65.7821 152.284C65.7821 152.284 65.7125 152.284 65.6776 152.258C55.2686 147.558 36.8527 149.107 36.6699 149.125C36.5307 149.133 36.4001 149.029 36.3827 148.89C36.374 148.742 36.4784 148.62 36.6177 148.602C36.8005 148.585 55.3557 147.027 65.8865 151.779C66.0171 151.84 66.078 151.997 66.0171 152.127C65.9735 152.223 65.8778 152.284 65.7821 152.284Z" fill="#828384"/>
<path d="M96.6088 61.6576C86.896 61.2224 82.3007 53.8856 82.2572 53.8073C82.1789 53.6854 82.2224 53.5201 82.3442 53.4505C82.4661 53.3721 82.6314 53.4156 82.7011 53.5375C82.7446 53.6071 87.2093 60.7176 96.6349 61.1354C96.7828 61.1354 96.8873 61.2659 96.8873 61.4052C96.8873 61.5444 96.7654 61.6576 96.6262 61.6576H96.6088Z" fill="#828384"/>
<path d="M93.2929 45.4696C91.265 45.4696 89.4548 45.3391 88.6192 44.9387C87.1397 44.2338 86.1127 43.0414 85.869 41.7534C85.6863 40.7786 85.9648 39.8561 86.6871 39.0902C88.4017 37.2625 100.673 37.6542 102.066 37.7064C102.214 37.7064 102.318 37.8369 102.318 37.9762C102.318 38.1241 102.188 38.2286 102.048 38.2286C98.3233 38.0893 88.3843 38.0458 87.0701 39.4557C86.4696 40.0911 86.2346 40.8569 86.3825 41.6663C86.5914 42.7804 87.5313 43.8508 88.8368 44.4775C91.1345 45.5741 101.918 44.4688 102.022 44.4514C102.179 44.4427 102.292 44.5384 102.309 44.6863C102.327 44.8343 102.222 44.9561 102.074 44.9736C101.778 45.0084 97.1397 45.4783 93.2842 45.4783L93.2929 45.4696Z" fill="#828384"/>
<path d="M96.9395 196.348C96.7915 196.348 96.6784 196.235 96.6784 196.087V45.0954C96.6784 44.9474 96.7915 44.8343 96.9395 44.8343C97.0874 44.8343 97.2006 44.9474 97.2006 45.0954V196.087C97.2006 196.235 97.0874 196.348 96.9395 196.348Z" fill="#828384"/>
<path d="M96.9395 190.178C67.6794 189.855 62.8839 184.964 62.7012 184.764C62.6054 184.66 62.6141 184.494 62.7186 184.399C62.823 184.303 62.9884 184.312 63.0841 184.416C63.1363 184.468 68.071 189.351 96.9482 189.664C97.0961 189.664 97.2093 189.786 97.2093 189.925C97.2093 190.064 97.0874 190.186 96.9482 190.186L96.9395 190.178Z" fill="#828384"/>
<path d="M92.9447 141.005C76.574 141.005 66.6176 139.246 66.5131 139.229C66.3739 139.203 66.2782 139.064 66.3043 138.924C66.3304 138.785 66.4696 138.689 66.6089 138.716C66.722 138.733 78.2537 140.761 96.9395 140.448C97.0787 140.448 97.2006 140.561 97.2006 140.7C97.2006 140.848 97.0874 140.961 96.9482 140.97C95.5731 140.996 94.2415 141.005 92.9447 141.005Z" fill="#828384"/>
<path d="M66.957 93.7462C66.8352 93.7462 66.722 93.6592 66.6959 93.5286C66.6698 93.3894 66.7655 93.2501 66.9135 93.224C67.8708 93.0587 90.386 89.2119 96.9917 90.5086C97.131 90.5347 97.2267 90.674 97.2006 90.8132C97.1745 90.9525 97.0352 91.0482 96.896 91.0221C90.3773 89.7427 67.2355 93.694 67.0092 93.7375C66.9918 93.7375 66.9831 93.7375 66.9657 93.7375L66.957 93.7462Z" fill="#828384"/>
<path d="M43.0145 197.392C42.5881 197.392 42.2922 197.375 42.1616 197.332C41.2304 197.018 40.9345 194.355 40.8562 192.075C39.4027 190.987 38.5759 188.028 38.5411 187.889C36.2348 180.386 36.2086 148.515 36.2086 147.158C34.7987 135.478 40.1425 109.395 40.4123 108.098C40.2904 99.7775 48.7325 79.1858 54.1198 70.6306C59.4984 62.0753 79.2459 54.4252 82.0396 53.3721C81.9787 51.8752 81.7611 45.5915 82.057 42.9631C82.4052 39.8561 86.3477 34.6516 88.4452 34.5297C90.2902 34.4253 101.596 34.5297 102.074 34.5297C102.318 34.5297 102.51 34.7299 102.51 34.9649C102.51 35.2086 102.301 35.3739 102.074 35.4001C101.961 35.4001 90.3251 35.2956 88.5061 35.4001C86.9482 35.4871 83.2407 40.239 82.9274 43.0676C82.6053 45.9396 82.9274 53.5897 82.9274 53.6593C82.9274 53.8508 82.8229 54.0249 82.6402 54.0858C82.4226 54.1641 60.3774 62.3364 54.8596 71.1005C49.072 80.3085 41.1521 100.683 41.2913 108.141C41.2913 108.176 41.2913 108.211 41.2826 108.237C41.2304 108.507 35.6603 135.287 37.079 147.114C37.079 147.497 37.1051 180.256 39.3853 187.654C39.6203 188.507 40.4471 190.83 41.5176 191.466C41.6481 191.544 41.7265 191.674 41.7265 191.822C41.7961 194.103 42.1355 196.252 42.4749 196.513C43.7717 196.792 58.6629 195.426 59.6637 194.607C59.9945 194.016 59.7856 191.648 59.568 190.299C59.5419 190.143 59.6115 189.977 59.7334 189.882L62.6315 187.706C62.736 187.627 62.8665 187.601 62.9884 187.627C63.1102 187.654 63.2233 187.741 63.2756 187.854C63.3017 187.897 65.6167 192.345 69.3504 193.441C73.2146 194.573 101.787 195.878 102.074 195.887C102.318 195.896 102.501 196.104 102.492 196.339C102.483 196.574 102.292 196.757 102.04 196.757C100.856 196.705 73.0754 195.434 69.1067 194.277C65.7125 193.285 63.4757 189.934 62.7534 188.707L60.4557 190.43C60.6037 191.422 60.9257 194.111 60.36 195.095C60.212 195.356 59.8552 195.974 51.2826 196.818C49.0981 197.036 44.8683 197.384 42.9971 197.384L43.0145 197.392Z" fill="#828384"/>
<path d="M161.099 197.392C159.237 197.392 155.007 197.044 152.823 196.827C144.25 195.983 143.902 195.365 143.745 195.104C143.18 194.12 143.51 191.422 143.658 190.439L141.361 188.715C140.638 189.943 138.401 193.293 135.007 194.285C131.039 195.443 103.258 196.714 102.074 196.766C101.796 196.766 101.631 196.592 101.622 196.348C101.613 196.104 101.796 195.904 102.04 195.896C102.327 195.878 130.899 194.581 134.764 193.45C138.497 192.353 140.812 187.915 140.838 187.862C140.899 187.749 141.004 187.662 141.126 187.636C141.256 187.61 141.378 187.636 141.482 187.715L144.381 189.89C144.511 189.986 144.572 190.151 144.546 190.308C144.328 191.648 144.128 194.024 144.494 194.668C145.46 195.426 160.351 196.801 161.691 196.496C161.987 196.252 162.327 194.103 162.396 191.822C162.396 191.674 162.483 191.535 162.605 191.466C163.667 190.83 164.502 188.507 164.729 187.662C167.009 180.256 167.035 147.488 167.035 147.158C168.462 135.278 162.892 108.498 162.84 108.228C162.84 108.194 162.831 108.167 162.831 108.133C162.971 100.683 155.051 80.2998 149.263 71.0918C143.754 62.3277 121.709 54.1641 121.482 54.0771C121.308 54.0162 121.187 53.8421 121.195 53.6506C121.195 53.5723 121.517 45.9222 121.195 43.0589C120.882 40.239 117.174 35.4871 115.617 35.3913C113.798 35.2869 102.161 35.3913 102.048 35.3913C101.787 35.3739 101.613 35.1999 101.613 34.9562C101.613 34.7125 101.805 34.521 102.048 34.521C102.527 34.521 113.832 34.4166 115.677 34.521C117.784 34.6429 121.726 39.8474 122.066 42.9544C122.362 45.5828 122.135 51.8665 122.083 53.3634C124.868 54.4078 144.616 62.0666 150.003 70.6218C155.39 79.1858 163.823 99.7688 163.71 108.089C163.98 109.386 169.324 135.469 167.914 147.201C167.914 148.498 167.888 180.378 165.582 187.889C165.547 188.01 164.729 190.969 163.275 192.057C163.197 194.338 162.892 197.001 161.97 197.314C161.839 197.358 161.543 197.375 161.117 197.375L161.099 197.392Z" fill="#828384"/>
<path d="M162.831 192.101C162.831 192.101 162.788 192.101 162.77 192.101C162.657 192.075 151.5 189.264 144.163 190.508C144.024 190.534 143.884 190.439 143.858 190.291C143.832 190.151 143.928 190.012 144.076 189.986C151.508 188.724 162.779 191.561 162.892 191.587C163.032 191.622 163.119 191.761 163.084 191.901C163.049 192.023 162.944 192.101 162.831 192.101Z" fill="#828384"/>
<path d="M141.221 188.332C141.091 188.332 140.978 188.237 140.96 188.097C140.934 187.871 138.567 165.017 138.349 158.124C138.236 154.599 137.932 149.612 137.662 145.208C137.392 140.804 137.157 137.001 137.157 135.382C137.157 133.885 137.409 129.812 137.679 125.504C138.001 120.361 138.358 114.538 138.358 111.997C138.358 109.455 137.74 102.745 137.2 96.8271C136.739 91.8141 136.348 87.4799 136.4 86.5226C136.4 86.3833 136.53 86.2702 136.678 86.2789C136.826 86.2789 136.931 86.4094 136.922 86.5574C136.87 87.4799 137.287 91.9969 137.723 96.7836C138.262 102.71 138.88 109.438 138.88 111.997C138.88 114.556 138.523 120.387 138.201 125.539C137.931 129.847 137.688 133.911 137.688 135.382C137.688 136.984 137.923 140.778 138.193 145.173C138.462 149.586 138.776 154.581 138.88 158.106C139.098 164.982 141.465 187.81 141.491 188.037C141.509 188.184 141.404 188.306 141.256 188.324C141.247 188.324 141.239 188.324 141.23 188.324L141.221 188.332Z" fill="#828384"/>
<path d="M136.974 91.7619C136.974 91.7619 136.913 91.7619 136.878 91.7445C136.739 91.6923 136.678 91.5443 136.73 91.4051C137.061 90.5521 144.833 70.3869 147.818 68.4983C147.94 68.4199 148.106 68.4548 148.175 68.5766C148.253 68.6984 148.219 68.8638 148.097 68.9334C145.825 70.3782 139.985 84.3903 137.218 91.5878C137.174 91.6923 137.079 91.7532 136.974 91.7532V91.7619Z" fill="#828384"/>
<path d="M138.932 114.312C138.854 114.312 138.776 114.277 138.723 114.207C138.636 114.094 138.663 113.929 138.784 113.842C147.131 107.767 163.127 107.871 163.275 107.88C163.423 107.88 163.536 108.002 163.536 108.141C163.536 108.281 163.414 108.402 163.275 108.402C163.266 108.402 163.24 108.402 163.171 108.402C161.813 108.402 146.957 108.542 139.089 114.26C139.046 114.294 138.985 114.312 138.932 114.312Z" fill="#828384"/>
<path d="M138.323 152.284C138.227 152.284 138.132 152.223 138.088 152.127C138.027 151.997 138.088 151.84 138.219 151.779C148.758 147.018 167.305 148.585 167.488 148.602C167.635 148.611 167.74 148.742 167.723 148.89C167.714 149.029 167.583 149.142 167.435 149.125C167.253 149.107 148.837 147.558 138.428 152.258C138.393 152.275 138.358 152.284 138.323 152.284Z" fill="#828384"/>
<path d="M107.496 61.6576C107.357 61.6576 107.244 61.5444 107.235 61.4052C107.235 61.2572 107.34 61.1354 107.488 61.1354C116.913 60.7089 121.378 53.6071 121.422 53.5375C121.5 53.4156 121.657 53.3721 121.778 53.4505C121.9 53.5288 121.944 53.6854 121.865 53.8073C121.822 53.8769 117.218 61.2224 107.514 61.6576H107.496Z" fill="#828384"/>
<path d="M110.821 45.4696C106.966 45.4696 102.327 44.991 102.031 44.9648C101.883 44.9474 101.787 44.8256 101.796 44.6776C101.813 44.5384 101.926 44.434 102.083 44.4427C102.188 44.4514 112.971 45.5654 115.268 44.4688C116.574 43.8421 117.514 42.7629 117.723 41.6576C117.871 40.8482 117.636 40.0824 117.035 39.447C115.721 38.0458 105.782 38.0893 102.057 38.2199C101.909 38.2199 101.796 38.1154 101.787 37.9675C101.787 37.8195 101.892 37.7064 102.04 37.6977C103.432 37.6455 115.695 37.2538 117.418 39.0815C118.14 39.8474 118.419 40.7699 118.236 41.7447C117.993 43.0327 116.966 44.2251 115.486 44.93C114.65 45.3304 112.84 45.4609 110.812 45.4609L110.821 45.4696Z" fill="#828384"/>
<path d="M107.166 196.348C107.018 196.348 106.905 196.235 106.905 196.087V45.0954C106.905 44.9474 107.018 44.8343 107.166 44.8343C107.314 44.8343 107.427 44.9474 107.427 45.0954V196.087C107.427 196.235 107.314 196.348 107.166 196.348Z" fill="#828384"/>
<path d="M107.166 190.178C107.026 190.178 106.905 190.064 106.905 189.916C106.905 189.768 107.018 189.655 107.166 189.655C122.248 189.49 130.647 188.071 135.033 186.914C139.811 185.652 141.012 184.416 141.03 184.407C141.126 184.303 141.291 184.294 141.395 184.39C141.5 184.486 141.509 184.651 141.413 184.755C141.221 184.964 136.426 189.847 107.174 190.169L107.166 190.178Z" fill="#828384"/>
<path d="M111.16 141.005C109.864 141.005 108.532 140.996 107.157 140.97C107.009 140.97 106.896 140.848 106.905 140.7C106.905 140.552 107 140.439 107.166 140.448C125.86 140.77 137.383 138.733 137.496 138.716C137.636 138.698 137.775 138.785 137.801 138.924C137.827 139.064 137.731 139.203 137.592 139.229C137.488 139.246 127.531 141.005 111.16 141.005Z" fill="#828384"/>
<path d="M137.148 93.7462C137.148 93.7462 137.122 93.7462 137.105 93.7462C136.87 93.7027 113.728 89.7514 107.218 91.0308C107.07 91.0569 106.939 90.9699 106.913 90.8219C106.887 90.6827 106.974 90.5434 107.122 90.5173C113.728 89.2206 136.243 93.0674 137.2 93.2327C137.34 93.2588 137.435 93.3894 137.418 93.5373C137.392 93.6679 137.287 93.7549 137.157 93.7549L137.148 93.7462Z" fill="#828384"/>
<path d="M99.446 50.091C98.6627 50.091 98.0274 49.4557 98.0274 48.6724C98.0274 47.8891 98.6627 47.2538 99.446 47.2538C100.229 47.2538 100.865 47.8891 100.865 48.6724C100.865 49.4557 100.229 50.091 99.446 50.091ZM99.446 47.776C98.9499 47.776 98.5496 48.1763 98.5496 48.6724C98.5496 49.1685 98.9499 49.5688 99.446 49.5688C99.9421 49.5688 100.342 49.1685 100.342 48.6724C100.342 48.1763 99.9421 47.776 99.446 47.776Z" fill="#828384"/>
<path d="M99.446 55.0954C98.6627 55.0954 98.0274 54.46 98.0274 53.6767C98.0274 52.8935 98.6627 52.2581 99.446 52.2581C100.229 52.2581 100.865 52.8935 100.865 53.6767C100.865 54.46 100.229 55.0954 99.446 55.0954ZM99.446 52.7803C98.9499 52.7803 98.5496 53.1807 98.5496 53.6767C98.5496 54.1728 98.9499 54.5732 99.446 54.5732C99.9421 54.5732 100.342 54.1728 100.342 53.6767C100.342 53.1807 99.9421 52.7803 99.446 52.7803Z" fill="#828384"/>
<path d="M99.446 85.8785C98.6627 85.8785 98.0274 85.2432 98.0274 84.4599C98.0274 83.6766 98.6627 83.0413 99.446 83.0413C100.229 83.0413 100.865 83.6766 100.865 84.4599C100.865 85.2432 100.229 85.8785 99.446 85.8785ZM99.446 83.5548C98.9499 83.5548 98.5496 83.9551 98.5496 84.4512C98.5496 84.9473 98.9499 85.3476 99.446 85.3476C99.9421 85.3476 100.342 84.9473 100.342 84.4512C100.342 83.9551 99.9421 83.5548 99.446 83.5548Z" fill="#828384"/>
<path d="M99.446 116.662C98.6627 116.662 98.0274 116.026 98.0274 115.243C98.0274 114.46 98.6627 113.824 99.446 113.824C100.229 113.824 100.865 114.46 100.865 115.243C100.865 116.026 100.229 116.662 99.446 116.662ZM99.446 114.338C98.9499 114.338 98.5496 114.738 98.5496 115.234C98.5496 115.73 98.9499 116.131 99.446 116.131C99.9421 116.131 100.342 115.73 100.342 115.234C100.342 114.738 99.9421 114.338 99.446 114.338Z" fill="#828384"/>
<path d="M99.446 147.445C98.6627 147.445 98.0274 146.81 98.0274 146.026C98.0274 145.243 98.6627 144.608 99.446 144.608C100.229 144.608 100.865 145.243 100.865 146.026C100.865 146.81 100.229 147.445 99.446 147.445ZM99.446 145.121C98.9499 145.121 98.5496 145.521 98.5496 146.018C98.5496 146.514 98.9499 146.914 99.446 146.914C99.9421 146.914 100.342 146.514 100.342 146.018C100.342 145.521 99.9421 145.121 99.446 145.121Z" fill="#828384"/>
<path d="M99.446 178.219C98.6627 178.219 98.0274 177.584 98.0274 176.801C98.0274 176.017 98.6627 175.382 99.446 175.382C100.229 175.382 100.865 176.017 100.865 176.801C100.865 177.584 100.229 178.219 99.446 178.219ZM99.446 175.904C98.9499 175.904 98.5496 176.305 98.5496 176.801C98.5496 177.297 98.9499 177.697 99.446 177.697C99.9421 177.697 100.342 177.297 100.342 176.801C100.342 176.305 99.9421 175.904 99.446 175.904Z" fill="#828384"/>
<path d="M143.927 13.7036H59.8806V14.5739H143.927V13.7036Z" fill="black"/>
<path d="M60.3157 10.4834H59.4454V17.7941H60.3157V10.4834Z" fill="black"/>
<path d="M144.362 10.4834H143.492V17.7941H144.362V10.4834Z" fill="black"/>
<path d="M139.045 92.1802H65.1722V93.0505H139.045V92.1802Z" fill="black"/>
<path d="M65.6073 88.96H64.737V96.2707H65.6073V88.96Z" fill="black"/>
<path d="M139.48 88.96H138.61V96.2707H139.48V88.96Z" fill="black"/>
<path d="M144.136 214.661H60.0892V215.531H144.136V214.661Z" fill="black"/>
<path d="M60.5244 211.44H59.6541V218.751H60.5244V211.44Z" fill="black"/>
<path d="M144.571 211.44H143.701V218.751H144.571V211.44Z" fill="black"/>
<path d="M178.81 55.9312H177.939V101.632H178.81V55.9312Z" fill="black"/>
<path d="M182.03 55.496H174.719V56.3664H182.03V55.496Z" fill="black"/>
<path d="M182.03 101.327H174.719V102.197H182.03V101.327Z" fill="black"/>
<path d="M16.5646 59.4737H15.6943V190.37H16.5646V59.4737Z" fill="black"/>
<path d="M19.7848 59.0385H12.4741V59.9088H19.7848V59.0385Z" fill="black"/>
<path d="M19.7848 190.291H12.4741V191.162H19.7848V190.291Z" fill="black"/>
<path d="M213.439 38.5945H212.569V193.381H213.439V38.5945Z" fill="black"/>
<path d="M216.66 38.1594H209.349V39.0297H216.66V38.1594Z" fill="black"/>
<path d="M216.66 193.381H209.349V194.251H216.66V193.381Z" fill="black"/>
<path d="M111.038 14.1383C111.038 19.1862 106.947 23.2767 101.9 23.2767C96.8517 23.2767 92.7612 19.1862 92.7612 14.1383C92.7612 9.0905 96.8517 5 101.9 5C106.947 5 111.038 9.0905 111.038 14.1383Z" fill="black"/>
<path d="M104.241 17.8285L103.423 15.4525H100.377L99.5584 17.8285H97.8874L100.873 9.24716H102.918L105.903 17.8285H104.232H104.241ZM100.89 13.973H102.918L101.908 11.0052L100.899 13.973H100.89Z" fill="white"/>
<path d="M111.247 92.6149C111.247 97.6628 107.157 101.753 102.109 101.753C97.0608 101.753 92.9703 97.6628 92.9703 92.6149C92.9703 87.5671 97.0608 83.4766 102.109 83.4766C107.157 83.4766 111.247 87.5671 111.247 92.6149Z" fill="black"/>
<path d="M105.686 94.4078C105.686 96.1484 104.476 96.9143 102.718 96.9143H98.8885V88.3329H102.309C104.049 88.3329 105.277 89.0988 105.277 90.8046C105.277 91.4922 104.972 92.0927 104.197 92.4234C105.216 92.7803 105.677 93.4765 105.677 94.4078H105.686ZM100.533 89.769V91.9187H102.309C103.144 91.9187 103.667 91.5531 103.667 90.8308C103.667 90.1084 103.144 89.769 102.309 89.769H100.533ZM102.718 95.4696C103.553 95.4696 104.076 95.1214 104.076 94.373C104.076 93.6245 103.553 93.2589 102.718 93.2589H100.533V95.4696H102.718Z" fill="white"/>
<path d="M25.2767 125.104C25.2767 130.152 21.1862 134.242 16.1383 134.242C11.0905 134.242 7 130.152 7 125.104C7 120.056 11.0905 115.966 16.1383 115.966C21.1862 115.966 25.2767 120.056 25.2767 125.104Z" fill="black"/>
<path d="M12.483 125.826V124.364C12.483 122.006 14.2062 120.648 16.208 120.648C18.053 120.648 19.3672 121.727 19.785 123.494L18.2271 123.946C17.9486 122.789 17.3307 122.171 16.1993 122.171C15.0679 122.171 14.1105 122.937 14.1105 124.425V125.765C14.1105 127.271 15.0679 128.02 16.1993 128.02C17.3307 128.02 17.9399 127.402 18.2271 126.244L19.785 126.697C19.3672 128.472 18.053 129.543 16.208 129.543C14.2149 129.543 12.483 128.194 12.483 125.826Z" fill="white"/>
<path d="M187.513 78.8462C187.513 83.894 183.422 87.9845 178.375 87.9845C173.327 87.9845 169.236 83.894 169.236 78.8462C169.236 73.7983 173.327 69.7079 178.375 69.7079C183.422 69.7079 187.513 73.7983 187.513 78.8462Z" fill="black"/>
<path d="M182.413 78.3327V79.3597C182.413 81.7879 180.724 83.1369 178.505 83.1369H175.355V74.5555H178.505C180.716 74.5555 182.413 75.9132 182.413 78.3327ZM180.777 78.3849C180.777 76.7748 179.819 76.0438 178.514 76.0438H176.999V81.6399H178.514C179.819 81.6399 180.777 80.9176 180.777 79.2988V78.3762V78.3849Z" fill="white"/>
<path d="M222.152 116.2C222.152 121.248 218.061 125.339 213.014 125.339C207.966 125.339 203.875 121.248 203.875 116.2C203.875 111.152 207.966 107.062 213.014 107.062C218.061 107.062 222.152 111.152 222.152 116.2Z" fill="black"/>
<path d="M212.1 119.055H216.181V120.5H210.463V111.918H216.077V113.363H212.1V115.365H215.877V116.801H212.1V119.055Z" fill="white"/>
<path d="M111.247 215.095C111.247 220.143 107.157 224.234 102.109 224.234C97.0608 224.234 92.9703 220.143 92.9703 215.095C92.9703 210.047 97.0608 205.957 102.109 205.957C107.157 205.957 111.247 210.047 111.247 215.095Z" fill="black"/>
<path d="M105.181 212.249H101.308V214.355H104.772V215.8H101.308V219.395H99.6718V210.813H105.181V212.258V212.249Z" fill="white"/>
</svg>
