<svg width="230" height="231" viewBox="0 0 230 231" fill="none" xmlns="http://www.w3.org/2000/svg">
<rect width="230" height="230" fill="white"/>
<path d="M82.8876 214.966C74.953 214.966 68.0612 208.994 67.986 208.929L67.8946 208.849V208.73C67.8784 208.085 66.6743 144.184 66.1904 129.056C66.0292 124.024 65.7013 117.057 65.3196 108.994C64.5777 93.1835 63.6423 73.5028 63.766 62.004C63.9487 45.0434 70.6308 19.2021 70.6953 18.944L70.7384 18.7828L70.8996 18.7451C75.7916 17.6592 98.3053 17.8205 99.2622 17.8259V18.3634C99.0257 18.3634 76.3399 18.1968 71.1792 19.2343C70.6147 21.4491 64.481 45.8068 64.3036 62.004C64.1799 73.4867 65.1099 93.162 65.8625 108.972C66.2442 117.036 66.5721 124.003 66.7334 129.04C67.2065 143.856 68.373 205.441 68.4321 208.601C69.3299 209.354 76.8506 215.407 84.8928 214.294C92.9081 213.182 94.9025 209.134 95.1068 208.677C95.0691 205.709 93.7574 99.699 98.9988 67.7883L99.531 67.8744C94.252 100.032 95.6336 207.639 95.6497 208.72V208.768L95.6336 208.817C95.5637 209.01 93.7789 213.596 84.9734 214.821C84.2746 214.918 83.5811 214.961 82.8984 214.961L82.8876 214.966Z" fill="#848484"/>
<path d="M115.632 214.967C114.943 214.967 114.255 214.924 113.556 214.827C104.751 213.607 102.966 209.016 102.896 208.822L102.88 208.774V208.725C102.896 207.645 104.278 100.032 98.9989 67.8799V67.8262L100.767 23.2341L101.305 23.2556L99.5364 67.8208C104.772 99.7691 103.461 205.715 103.423 208.682C103.622 209.139 105.622 213.187 113.637 214.3C121.674 215.418 129.195 209.36 130.098 208.607C130.157 205.446 131.329 143.861 131.796 129.046C131.958 124.008 132.286 117.041 132.667 108.978C133.415 93.1676 134.345 73.4976 134.226 62.0096C134.054 45.8124 127.921 21.4547 127.351 19.2399C122.19 18.2024 99.5042 18.369 99.273 18.369V17.8314C100.225 17.8261 122.738 17.6594 127.63 18.7507L127.792 18.7883L127.835 18.9496C127.904 19.2076 134.587 45.049 134.764 62.0096C134.888 73.5084 133.958 93.1891 133.205 109.005C132.823 117.068 132.495 124.035 132.334 129.067C131.856 144.194 130.646 208.096 130.635 208.741V208.86L130.544 208.94C130.469 209.005 123.577 214.977 115.642 214.977L115.632 214.967Z" fill="#848484"/>
<path d="M99.257 23.422C82.2964 23.422 71.0126 19.2021 70.8997 19.1591L71.0126 18.858C71.1255 18.901 82.3609 23.0995 99.257 23.0995V23.422Z" fill="#848484"/>
<path d="M99.2571 34.2328C76.2703 34.2328 68.685 28.7764 68.6098 28.7226L68.8033 28.4646C68.8786 28.5183 76.3993 33.9103 99.2571 33.9103V34.2328Z" fill="#848484"/>
<path d="M64.2715 58.8107L64.0189 58.6118C68.6743 52.6124 76.5982 31.8942 76.6788 31.6845L76.9799 31.7974C76.8992 32.0071 68.9592 52.7737 64.2769 58.8053L64.2715 58.8107Z" fill="#848484"/>
<path d="M81.8019 63.0953H81.4794V214.649H81.8019V63.0953Z" fill="#848484"/>
<path d="M99.257 23.422V23.0995C116.153 23.0995 127.388 18.901 127.501 18.858L127.614 19.1591C127.501 19.2021 116.218 23.422 99.257 23.422Z" fill="#848484"/>
<path d="M99.2571 34.2328V33.9103C122.115 33.9103 129.635 28.5183 129.711 28.4646L129.904 28.7226C129.829 28.7764 122.244 34.2328 99.2571 34.2328Z" fill="#848484"/>
<path d="M134.248 58.8109C129.566 52.7739 121.62 32.0126 121.545 31.8029L121.846 31.6901C121.927 31.8997 129.851 52.618 134.506 58.6173L134.253 58.8162L134.248 58.8109Z" fill="#848484"/>
<path d="M117.035 63.0953H116.712V214.649H117.035V63.0953Z" fill="#848484"/>
<path d="M99.2571 57.7947C95.2199 57.7947 94.6608 55.6175 94.6608 53.2629C94.6608 51.2578 94.6608 34.0015 94.6608 34.0015H94.9833C94.9833 34.0015 94.9833 51.2578 94.9833 53.2629C94.9833 55.3004 95.3166 57.4722 99.2571 57.4722V57.7947Z" fill="#848484"/>
<path d="M96.4778 31.4911C95.4941 31.4911 94.6931 30.4589 94.6931 29.1956C94.6931 27.9323 95.4941 26.9002 96.4778 26.9002C97.4616 26.9002 98.2626 27.9323 98.2626 29.1956C98.2626 30.4589 97.4616 31.4911 96.4778 31.4911ZM96.4778 27.2173C95.6715 27.2173 95.0156 28.1043 95.0156 29.1902C95.0156 30.2761 95.6715 31.1631 96.4778 31.1631C97.2842 31.1631 97.94 30.2761 97.94 29.1902C97.94 28.1043 97.2842 27.2173 96.4778 27.2173Z" fill="#848484"/>
<path d="M128.12 5.3761H69.271V5.91368H128.12V5.3761Z" fill="black"/>
<path d="M69.5395 3.38672H69.0019V7.90237H69.5395V3.38672Z" fill="black"/>
<path d="M128.394 3.38696H127.856V7.90261H128.394V3.38696Z" fill="black"/>
<path d="M133.334 62.6709H65.1796V63.2084H133.334V62.6709Z" fill="black"/>
<path d="M65.4486 60.6818H64.911V65.1975H65.4486V60.6818Z" fill="black"/>
<path d="M133.602 60.6817H133.065V65.1974H133.602V60.6817Z" fill="black"/>
<path d="M97.2194 87.1199H64.2659V87.6575H97.2194V87.1199Z" fill="black"/>
<path d="M64.5346 85.1308H63.9971V89.6464H64.5346V85.1308Z" fill="black"/>
<path d="M97.4881 85.1308H96.9505V89.6464H97.4881V85.1308Z" fill="black"/>
<path d="M94.9617 224.267H68.4215V224.805H94.9617V224.267Z" fill="black"/>
<path d="M68.4914 222.278H67.9538V226.793H68.4914V222.278Z" fill="black"/>
<path d="M95.2305 222.278H94.693V226.794H95.2305V222.278Z" fill="black"/>
<path d="M147.472 19.0088H146.934V55.5318H147.472V19.0088Z" fill="black"/>
<path d="M149.456 18.74H144.94V19.2776H149.456V18.74Z" fill="black"/>
<path d="M149.456 55.263H144.94V55.8006H149.456V55.263Z" fill="black"/>
<path d="M162.433 19.0088H161.896V212.526H162.433V19.0088Z" fill="black"/>
<path d="M164.422 18.74H159.906V19.2776H164.422V18.74Z" fill="black"/>
<path d="M164.422 212.257H159.907V212.795H164.422V212.257Z" fill="black"/>
<path d="M104.342 5.64457C104.342 8.76252 101.816 11.2891 98.6979 11.2891C95.5799 11.2891 93.0533 8.76252 93.0533 5.64457C93.0533 2.52662 95.5799 0 98.6979 0C101.816 0 104.342 2.52662 104.342 5.64457Z" fill="black"/>
<path d="M100.138 7.92383L99.6331 6.45625H97.7516L97.2462 7.92383H96.2141L98.058 2.62332H99.3213L101.165 7.92383H100.133H100.138ZM98.0687 5.54236H99.3213L98.6977 3.70922L98.0741 5.54236H98.0687Z" fill="white"/>
<path d="M104.902 62.9398C104.902 66.0578 102.375 68.5844 99.2571 68.5844C96.1392 68.5844 93.6126 66.0578 93.6126 62.9398C93.6126 59.8219 96.1392 57.2953 99.2571 57.2953C102.375 57.2953 104.902 59.8219 104.902 62.9398Z" fill="black"/>
<path d="M101.466 64.0473C101.466 65.1225 100.719 65.5955 99.6333 65.5955H97.268V60.295H99.3807C100.456 60.295 101.214 60.7681 101.214 61.8217C101.214 62.2464 101.026 62.6173 100.547 62.8216C101.176 63.042 101.461 63.4721 101.461 64.0473H101.466ZM98.284 61.182V62.5098H99.3807C99.8967 62.5098 100.219 62.284 100.219 61.8379C100.219 61.3917 99.8967 61.182 99.3807 61.182H98.284ZM99.6333 64.7031C100.149 64.7031 100.472 64.4881 100.472 64.0258C100.472 63.5635 100.149 63.3377 99.6333 63.3377H98.284V64.7031H99.6333Z" fill="white"/>
<path d="M86.3927 87.3887C86.3927 90.5066 83.866 93.0333 80.7481 93.0333C77.6301 93.0333 75.1035 90.5066 75.1035 87.3887C75.1035 84.2707 77.6301 81.7441 80.7481 81.7441C83.866 81.7441 86.3927 84.2707 86.3927 87.3887Z" fill="black"/>
<path d="M78.4903 87.8405V86.9374C78.4903 85.4806 79.5547 84.642 80.7911 84.642C81.9308 84.642 82.7426 85.3085 83.0006 86.3998L82.0383 86.6794C81.8663 85.9644 81.4846 85.5827 80.7858 85.5827C80.0869 85.5827 79.4956 86.0558 79.4956 86.975V87.8029C79.4956 88.7329 80.0869 89.1952 80.7858 89.1952C81.4846 89.1952 81.8609 88.8136 82.0383 88.0986L83.0006 88.3781C82.7426 89.4748 81.9308 90.136 80.7911 90.136C79.5601 90.136 78.4903 89.3027 78.4903 87.8405Z" fill="white"/>
<path d="M152.848 37.2703C152.848 40.3883 150.321 42.9149 147.204 42.9149C144.086 42.9149 141.559 40.3883 141.559 37.2703C141.559 34.1524 144.086 31.6257 147.204 31.6257C150.321 31.6257 152.848 34.1524 152.848 37.2703Z" fill="black"/>
<path d="M149.698 36.9528V37.5872C149.698 39.087 148.655 39.9203 147.284 39.9203H145.338V34.6197H147.284C148.649 34.6197 149.698 35.4584 149.698 36.9528ZM148.687 36.9851C148.687 35.9906 148.096 35.539 147.289 35.539H146.354V38.9956H147.289C148.096 38.9956 148.687 38.5494 148.687 37.5495V36.9797V36.9851Z" fill="white"/>
<path d="M167.814 115.768C167.814 118.885 165.287 121.412 162.169 121.412C159.051 121.412 156.525 118.885 156.525 115.768C156.525 112.65 159.051 110.123 162.169 110.123C165.287 110.123 167.814 112.65 167.814 115.768Z" fill="black"/>
<path d="M161.605 117.525H164.126V118.418H160.594V113.117H164.062V114.01H161.605V115.246H163.938V116.133H161.605V117.525Z" fill="white"/>
<path d="M87.237 224.536C87.237 227.654 84.7104 230.18 81.5925 230.18C78.4745 230.18 75.9479 227.654 75.9479 224.536C75.9479 221.418 78.4745 218.891 81.5925 218.891C84.7104 218.891 87.237 221.418 87.237 224.536Z" fill="black"/>
<path d="M83.4845 222.778H81.0922V224.079H83.2318V224.971H81.0922V227.191H80.0816V221.891H83.4845V222.783V222.778Z" fill="white"/>
</svg>
