<svg width="230" height="230" viewBox="0 0 230 230" fill="none" xmlns="http://www.w3.org/2000/svg">
<rect width="230" height="230" fill="white"/>
<path d="M188.068 178.599C187.867 177.004 187.275 173.768 186.536 169.665C185.014 161.306 182.717 148.68 181.696 138.653C179.991 121.925 171.504 98.4326 170.538 95.8072C169.608 93.2729 168.806 89.2983 167.958 85.0867C166.536 78.0035 164.922 69.9632 162.151 66.18C158.486 61.1662 148.805 57.7933 142.396 55.5598C141.129 55.1131 140.017 54.7303 139.16 54.4021C134.812 52.7247 131.749 45.751 130.6 43.1255C130.473 42.8429 130.372 42.6059 130.3 42.4418C129.433 40.5913 127.629 39.8255 127.556 39.7982L113.708 39.7617H100.034L99.861 39.7982C99.7881 39.8255 97.9831 40.6004 97.1171 42.4418C97.035 42.6059 96.9348 42.8429 96.8163 43.1255C95.6676 45.751 92.6046 52.7156 88.2563 54.4021C87.3994 54.7394 86.2872 55.1223 85.0201 55.5598C78.6115 57.7933 68.9303 61.1571 65.2656 66.18C62.5034 69.9632 60.8899 77.9944 59.4587 85.0867C58.6109 89.2983 57.8087 93.2729 56.8788 95.8072C55.9217 98.4326 47.4346 121.925 45.7208 138.653C44.6998 148.68 42.3934 161.306 40.8802 169.665C40.1327 173.768 39.5401 177.004 39.3487 178.599C38.7835 183.121 39.3851 189.365 45.4017 193.613L43.5785 213.933L43.7426 214.088C43.8247 214.161 45.7299 215.856 52.6034 217.534C54.928 218.099 56.8788 218.29 58.4377 218.29C61.528 218.29 63.1416 217.543 63.2327 217.497L63.4333 217.397L67.4535 198.809L68.0004 201.198L68.4289 201.116C68.5018 201.098 75.7946 199.776 78.2469 200.496C78.8029 200.66 79.5869 200.952 80.5806 201.325C84.1358 202.647 90.0795 204.862 96.4243 205.227C104.392 205.683 113.59 205.984 113.681 205.984L113.699 205.528L113.717 205.984C113.809 205.984 123.007 205.674 130.974 205.227C137.319 204.872 143.272 202.647 146.818 201.325C147.811 200.952 148.605 200.66 149.151 200.496C151.595 199.776 158.897 201.107 158.969 201.116L159.398 201.198L159.945 198.809L163.965 217.397L164.166 217.497C164.266 217.543 165.87 218.29 168.961 218.29C170.529 218.29 172.47 218.099 174.795 217.534C181.668 215.856 183.574 214.152 183.656 214.088L183.82 213.933L181.997 193.613C188.013 189.356 188.615 183.112 188.05 178.599H188.068ZM129.461 42.8338C129.534 42.9979 129.634 43.2258 129.762 43.4993C130.792 45.8512 133.308 51.567 137.018 54.2471L127.546 81.9781C125.614 78.2314 116.142 59.8717 115.13 57.7386L114.939 57.3466L114.082 58.1397C114.155 57.6656 114.301 57.2281 114.52 57.1187C115.422 56.6629 119.734 54.0466 123.253 50.8195C126.361 47.9662 127.355 42.6606 127.61 40.8648C128.121 41.1747 128.987 41.8037 129.461 42.8338ZM126.99 40.6733C126.762 42.2869 125.796 47.6106 122.824 50.3455C119.114 53.7457 114.766 56.28 114.237 56.5444C113.991 56.6629 113.818 56.909 113.699 57.1825C113.572 56.909 113.407 56.6629 113.161 56.5444C112.633 56.28 108.284 53.7457 104.574 50.3455C101.602 47.6198 100.636 42.2869 100.408 40.6733H126.99ZM97.6367 43.4993C97.7552 43.2258 97.8555 42.9979 97.9375 42.8338C98.4207 41.8037 99.2776 41.1656 99.7881 40.8648C100.043 42.6606 101.037 47.9662 104.146 50.8195C107.664 54.0466 111.967 56.6629 112.879 57.1187C113.098 57.2281 113.243 57.6748 113.316 58.1397L112.459 57.3466L112.268 57.7386C111.256 59.8717 101.785 78.2314 99.8519 81.9781L90.3803 54.2471C94.0906 51.567 96.5975 45.8512 97.6367 43.4993ZM40.2329 178.718C40.4335 177.15 41.0169 173.923 41.7644 169.83C43.2868 161.461 45.5932 148.808 46.6142 138.744C47.9907 125.243 54.2443 105.607 57.7175 96.1263C58.6656 93.5282 59.4769 89.5171 60.3338 85.269C61.7377 78.277 63.333 70.3461 65.9767 66.727C66.3686 66.1983 66.8427 65.6786 67.3805 65.1773L73.0416 83.7467C73.0234 87.0831 70.9449 132.454 70.3068 139.127C69.7507 144.988 67.499 189.083 67.1617 195.856L67.0979 196.138C58.9482 190.979 48.1183 192.656 46.1219 193.021C40.2785 189.028 39.6951 183.039 40.242 178.718H40.2329ZM62.6311 216.768C61.8106 217.069 58.4833 218.044 52.804 216.659C47.2979 215.309 45.0918 213.96 44.5084 213.55L46.2951 193.641C48.3918 193.258 59.0485 191.662 66.9521 196.813L62.6311 216.768ZM80.8996 200.496C79.8878 200.113 79.0855 199.821 78.5021 199.648C76.1775 198.964 70.3432 199.885 68.6932 200.168L67.7816 196.211C68.0551 190.723 70.3797 145.134 70.9449 139.181C71.583 132.472 73.6797 86.682 73.6797 83.692C73.6797 80.2552 75.1839 67.903 75.193 67.7753L74.5549 67.7024C74.5002 68.14 73.4154 77.1102 73.1145 81.8049L67.9001 64.7032C72.2941 60.9474 80.2342 58.1761 85.2845 56.4167C86.5698 55.9701 87.682 55.5781 88.5571 55.2408C88.9947 55.0767 89.414 54.8397 89.8242 54.5935L99.7334 83.5826L100.08 82.9171C100.189 82.6983 110.791 62.169 112.66 58.3858L113.38 59.0604V205.072C111.666 205.017 103.589 204.726 96.479 204.325C90.2709 203.969 84.4002 201.79 80.8996 200.478V200.496ZM158.705 200.168C157.055 199.885 151.221 198.964 148.896 199.648C148.313 199.821 147.511 200.122 146.499 200.496C142.998 201.799 137.127 203.987 130.919 204.343C123.818 204.744 115.732 205.036 114.018 205.09V59.0786L114.738 58.404C116.607 62.1872 127.2 82.7257 127.319 82.9353L127.665 83.6008L137.574 54.6118C137.984 54.867 138.404 55.0949 138.841 55.259C139.707 55.5963 140.829 55.9883 142.114 56.435C147.164 58.1944 155.104 60.9657 159.498 64.7215L154.284 81.8232C153.983 77.1284 152.898 68.1582 152.843 67.7206L152.205 67.7936C152.224 67.9212 153.719 80.2734 153.719 83.7102C153.719 86.6911 155.815 132.481 156.453 139.2C157.019 145.152 159.334 190.742 159.617 196.23L158.705 200.186V200.168ZM182.881 213.55C182.297 213.969 180.091 215.319 174.585 216.659C168.906 218.044 165.579 217.069 164.758 216.768L160.437 196.813C168.341 191.662 178.997 193.258 181.094 193.641L182.881 213.55ZM181.276 193.021C179.271 192.656 168.45 190.979 160.3 196.138L160.237 195.856C159.89 189.083 157.648 144.988 157.092 139.127C156.453 132.454 154.375 87.0831 154.357 83.7467L160.018 65.1773C160.556 65.6786 161.03 66.1891 161.422 66.727C164.065 70.3461 165.661 78.277 167.065 85.269C167.921 89.5171 168.724 93.5282 169.681 96.1263C173.154 105.607 179.408 125.252 180.784 138.744C181.814 148.808 184.112 161.461 185.634 169.83C186.381 173.913 186.965 177.141 187.165 178.718C187.703 183.039 187.12 189.028 181.286 193.021H181.276Z" fill="#838383"/>
<path d="M116.361 73.7646C115.805 73.7646 115.358 74.2113 115.358 74.7673C115.358 75.3234 115.805 75.7701 116.361 75.7701C116.917 75.7701 117.364 75.3234 117.364 74.7673C117.364 74.2113 116.917 73.7646 116.361 73.7646ZM116.361 75.132C116.161 75.132 115.996 74.9679 115.996 74.7673C115.996 74.5668 116.161 74.4027 116.361 74.4027C116.562 74.4027 116.726 74.5668 116.726 74.7673C116.726 74.9679 116.562 75.132 116.361 75.132Z" fill="#838383"/>
<path d="M116.361 96.2721C115.805 96.2721 115.358 96.7279 115.358 97.2749C115.358 97.8218 115.805 98.2776 116.361 98.2776C116.917 98.2776 117.364 97.831 117.364 97.2749C117.364 96.7188 116.917 96.2721 116.361 96.2721ZM116.361 97.6486C116.161 97.6486 115.996 97.4846 115.996 97.284C115.996 97.0834 116.161 96.9194 116.361 96.9194C116.562 96.9194 116.726 97.0834 116.726 97.284C116.726 97.4846 116.562 97.6486 116.361 97.6486Z" fill="#838383"/>
<path d="M116.361 118.789C115.805 118.789 115.358 119.235 115.358 119.792C115.358 120.348 115.805 120.794 116.361 120.794C116.917 120.794 117.364 120.348 117.364 119.792C117.364 119.235 116.917 118.789 116.361 118.789ZM116.361 120.165C116.161 120.165 115.996 120.001 115.996 119.801C115.996 119.6 116.161 119.436 116.361 119.436C116.562 119.436 116.726 119.6 116.726 119.801C116.726 120.001 116.562 120.165 116.361 120.165Z" fill="#838383"/>
<path d="M116.361 141.305C115.805 141.305 115.358 141.752 115.358 142.308C115.358 142.864 115.805 143.311 116.361 143.311C116.917 143.311 117.364 142.864 117.364 142.308C117.364 141.752 116.917 141.305 116.361 141.305ZM116.361 142.682C116.161 142.682 115.996 142.518 115.996 142.317C115.996 142.117 116.161 141.953 116.361 141.953C116.562 141.953 116.726 142.117 116.726 142.317C116.726 142.518 116.562 142.682 116.361 142.682Z" fill="#838383"/>
<path d="M116.361 163.822C115.805 163.822 115.358 164.269 115.358 164.825C115.358 165.381 115.805 165.828 116.361 165.828C116.917 165.828 117.364 165.381 117.364 164.825C117.364 164.269 116.917 163.822 116.361 163.822ZM116.361 165.189C116.161 165.189 115.996 165.025 115.996 164.825C115.996 164.624 116.161 164.46 116.361 164.46C116.562 164.46 116.726 164.624 116.726 164.825C116.726 165.025 116.562 165.189 116.361 165.189Z" fill="#838383"/>
<path d="M116.361 186.339C115.805 186.339 115.358 186.785 115.358 187.341C115.358 187.898 115.805 188.344 116.361 188.344C116.917 188.344 117.364 187.898 117.364 187.341C117.364 186.785 116.917 186.339 116.361 186.339ZM116.361 187.706C116.161 187.706 115.996 187.542 115.996 187.341C115.996 187.141 116.161 186.977 116.361 186.977C116.562 186.977 116.726 187.141 116.726 187.341C116.726 187.542 116.562 187.706 116.361 187.706Z" fill="#838383"/>
<path d="M162.38 20.1161H62.5863V21.0277H162.38V20.1161Z" fill="black"/>
<path d="M63.0421 16.7432H62.1305V24.4006H63.0421V16.7432Z" fill="black"/>
<path d="M162.835 16.7432H161.924V24.4006H162.835V16.7432Z" fill="black"/>
<path d="M152.516 85.287H75.1939V86.1986H152.516V85.287Z" fill="black"/>
<path d="M75.6497 81.914H74.7381V89.5715H75.6497V81.914Z" fill="black"/>
<path d="M152.963 81.914H152.051V89.5715H152.963V81.914Z" fill="black"/>
<path d="M59.414 65.8973H58.5024V112.881H59.414V65.8973Z" fill="black"/>
<path d="M62.7778 65.4415H55.1203V66.3531H62.7778V65.4415Z" fill="black"/>
<path d="M62.7778 112.799H55.1203V113.711H62.7778V112.799Z" fill="black"/>
<path d="M206.884 41.1927H205.973V195.883H206.884V41.1927Z" fill="black"/>
<path d="M210.257 40.7369H202.6V41.6485H210.257V40.7369Z" fill="black"/>
<path d="M210.257 195.436H202.6V196.348H210.257V195.436Z" fill="black"/>
<path d="M25.0189 64.2014H24.1073V201.845H25.0189V64.2014Z" fill="black"/>
<path d="M28.3919 63.7456H20.7344V64.6572H28.3919V63.7456Z" fill="black"/>
<path d="M28.3919 201.124H20.7344V202.036H28.3919V201.124Z" fill="black"/>
<path d="M122.059 20.5719C122.059 25.8592 117.775 30.1437 112.487 30.1437C107.2 30.1437 102.916 25.8592 102.916 20.5719C102.916 15.2845 107.2 11 112.487 11C117.775 11 122.059 15.2845 122.059 20.5719Z" fill="black"/>
<path d="M114.931 24.4371L114.074 21.9484H110.883L110.026 24.4371H108.276L111.403 15.4486H113.545L116.672 24.4371H114.921H114.931ZM111.421 20.3986H113.545L112.487 17.2901L111.43 20.3986H111.421Z" fill="white"/>
<path d="M123.427 85.7427C123.427 91.03 119.142 95.3146 113.855 95.3146C108.568 95.3146 104.283 91.03 104.283 85.7427C104.283 80.4554 108.568 76.1709 113.855 76.1709C119.142 76.1709 123.427 80.4554 123.427 85.7427Z" fill="black"/>
<path d="M117.602 87.6115C117.602 89.4347 116.334 90.2369 114.493 90.2369H110.482V81.2485H114.065C115.888 81.2485 117.173 82.0507 117.173 83.8375C117.173 84.5576 116.854 85.1866 116.043 85.533C117.109 85.9068 117.592 86.6361 117.592 87.6115H117.602ZM112.196 82.7618V85.0134H114.055C114.931 85.0134 115.478 84.6306 115.478 83.8739C115.478 83.1173 114.931 82.7618 114.055 82.7618H112.196ZM114.484 88.7237C115.359 88.7237 115.906 88.359 115.906 87.575C115.906 86.7911 115.359 86.4082 114.484 86.4082H112.196V88.7237H114.484Z" fill="white"/>
<path d="M34.1437 132.891C34.1437 138.178 29.8592 142.463 24.5719 142.463C19.2845 142.463 15 138.178 15 132.891C15 127.603 19.2845 123.319 24.5719 123.319C29.8592 123.319 34.1437 127.603 34.1437 132.891Z" fill="black"/>
<path d="M20.7431 133.656V132.125C20.7431 129.654 22.5481 128.232 24.6448 128.232C26.5774 128.232 27.9539 129.363 28.3915 131.213L26.7597 131.687C26.468 130.475 25.8208 129.828 24.6357 129.828C23.4506 129.828 22.4478 130.63 22.4478 132.189V133.593C22.4478 135.17 23.4506 135.954 24.6357 135.954C25.8208 135.954 26.4589 135.306 26.7597 134.094L28.3915 134.568C27.9539 136.428 26.5774 137.549 24.6448 137.549C22.5572 137.549 20.7431 136.136 20.7431 133.656Z" fill="white"/>
<path d="M68.5296 89.5712C68.5296 94.8585 64.2451 99.143 58.9578 99.143C53.6705 99.143 49.3859 94.8585 49.3859 89.5712C49.3859 84.2839 53.6705 79.9993 58.9578 79.9993C64.2451 79.9993 68.5296 84.2839 68.5296 89.5712Z" fill="black"/>
<path d="M63.1876 89.0333V90.109C63.1876 92.6524 61.4191 94.0654 59.0945 94.0654H55.7945V85.077H59.0945C61.41 85.077 63.1876 86.4991 63.1876 89.0333ZM61.4738 89.088C61.4738 87.4016 60.4711 86.6358 59.1036 86.6358H57.5175V92.4974H59.1036C60.4711 92.4974 61.4738 91.7408 61.4738 90.0452V89.0789V89.088Z" fill="white"/>
<path d="M216 118.542C216 123.83 211.715 128.114 206.428 128.114C201.141 128.114 196.856 123.83 196.856 118.542C196.856 113.255 201.141 108.97 206.428 108.97C211.715 108.97 216 113.255 216 118.542Z" fill="black"/>
<path d="M205.48 121.523H209.755V123.036H203.766V114.048H209.646V115.561H205.48V117.658H209.436V119.162H205.48V121.523Z" fill="white"/>
</svg>
