<svg width="230" height="230" viewBox="0 0 230 230" fill="none" xmlns="http://www.w3.org/2000/svg">
<rect width="230" height="230" fill="white"/>
<path d="M154.434 82.934C154.434 82.934 154.419 82.8565 154.403 82.8255C145.83 62.4146 148.589 42.8255 148.62 42.6239C148.651 42.4301 148.527 42.2441 148.341 42.1898L136.512 39.0115C136.38 38.9805 136.233 39.0115 136.14 39.1123C127.465 47.779 111.799 48.2596 111.504 48.2673C111.209 48.2673 95.5428 47.7867 86.8683 39.1123C86.7676 39.0115 86.628 38.9805 86.4963 39.0115L74.6668 42.1976C74.473 42.2518 74.3567 42.4379 74.3877 42.6317C74.4187 42.8255 77.1707 62.4224 68.6048 82.8333C68.5893 82.872 68.5815 82.903 68.5738 82.9418C68.5583 83.0658 67.3567 95.593 70.2404 107.151C73.1009 118.593 72.9303 171.229 72.9226 171.756C72.9226 171.957 73.0776 172.128 73.2792 172.143C73.442 172.159 89.7366 173.391 111.496 173.391C133.256 173.391 149.558 172.159 149.721 172.143C149.923 172.128 150.078 171.957 150.078 171.756C150.078 171.229 149.907 118.593 152.768 107.151C155.659 95.593 154.45 83.0658 154.434 82.9418V82.934ZM153.675 83.0658C153.69 83.2208 153.729 83.717 153.775 84.4612C141.458 71.9728 144.147 45.5929 144.582 41.9883L147.814 42.8565C147.489 45.5774 145.667 63.965 153.675 83.0736V83.0658ZM111.496 76.8255C104.512 76.8255 98.6746 74.5232 94.1552 69.9883C88.7056 64.5232 86.1474 56.7247 84.9536 51.1433C83.8606 46.0038 83.6978 41.7634 83.6745 40.5619L86.4032 39.8255C86.4187 40.4301 86.473 41.6162 86.6203 43.2131C86.6203 43.2286 86.6203 43.2363 86.6203 43.2518C87.1939 49.2828 89.2094 60.965 96.2947 68.058C100.31 72.0813 105.426 74.1278 111.496 74.1278C117.566 74.1278 122.682 72.0891 126.698 68.058C133.783 60.965 135.799 49.2828 136.365 43.2518C136.365 43.2363 136.365 43.2286 136.365 43.2131C136.512 41.6239 136.566 40.4301 136.582 39.8255L139.31 40.5619C139.287 41.7557 139.124 45.996 138.031 51.1433C136.845 56.7247 134.279 64.5154 128.83 69.9883C124.31 74.5232 118.473 76.8255 111.489 76.8255H111.496ZM111.496 52.027C127.008 52.027 134.209 45.6317 135.923 43.841C135.279 49.9728 133.194 61.0115 126.427 67.7945C122.481 71.748 117.458 73.748 111.496 73.748C105.535 73.748 100.512 71.748 96.566 67.7945C89.7986 61.0115 87.7133 49.9805 87.0699 43.8487C87.7831 44.6007 89.4265 46.1511 92.287 47.7169C95.8761 49.6859 102.124 52.027 111.496 52.027ZM111.489 49.0348C111.489 49.0348 111.489 49.0348 111.496 49.0348C111.496 49.0348 111.496 49.0348 111.504 49.0348C111.659 49.0348 127.178 48.5929 136.194 40.1123C136.171 40.7634 136.116 41.8255 135.992 43.1821C135.403 43.8875 128.52 51.6317 111.504 51.6317C94.4885 51.6317 87.597 43.8797 87.0156 43.1821C86.8916 41.8255 86.8373 40.7634 86.8141 40.1123C95.8296 48.5929 111.341 49.027 111.504 49.0348H111.489ZM75.1862 42.8487L78.4187 41.9805C78.8528 45.5852 81.5428 71.9728 69.2249 84.4534C69.2714 83.7092 69.3102 83.2208 69.3257 83.0581C77.3335 63.9495 75.5117 45.5619 75.1862 42.841V42.8487ZM149.303 171.391C146.791 171.57 131.45 172.609 111.496 172.609C91.5428 172.609 76.2017 171.57 73.6978 171.391C73.7133 166.314 73.7753 118.12 70.9846 106.957C68.8141 98.2829 68.9846 89.0503 69.1939 85.0503C82.0621 72.4999 79.2172 45.3216 78.7986 41.8875L83.2947 40.6782C83.3722 43.6239 84.2249 60.5774 93.8839 70.2673C98.4808 74.8798 104.403 77.2208 111.496 77.2208C118.589 77.2208 124.52 74.8798 129.109 70.2673C138.768 60.5774 139.62 43.6239 139.698 40.6782L144.194 41.8875C143.775 45.3216 140.923 72.4999 153.799 85.0503C154.008 89.0426 154.178 98.2829 152.008 106.957C149.217 118.12 149.279 166.314 149.295 171.391H149.303Z" fill="#828384"/>
<path d="M152.884 92.989H70.3568V93.7642H152.884V92.989Z" fill="black"/>
<path d="M70.7444 90.1206H69.9692V96.6322H70.7444V90.1206Z" fill="black"/>
<path d="M153.272 90.1208H152.496V96.6324H153.272V90.1208Z" fill="black"/>
<path d="M149.782 181.648H73.0692V182.423H149.782V181.648Z" fill="black"/>
<path d="M73.4568 178.779H72.6816V185.291H73.4568V178.779Z" fill="black"/>
<path d="M150.17 178.779H149.395V185.291H150.17V178.779Z" fill="black"/>
<path d="M50.5273 42.454H49.7522V82.4076H50.5273V42.454Z" fill="black"/>
<path d="M53.3949 42.0664H46.8833V42.8416H53.3949V42.0664Z" fill="black"/>
<path d="M53.3951 82.3379H46.8835V83.1131H53.3951V82.3379Z" fill="black"/>
<path d="M180.248 41.9657H179.473V173.508H180.248V41.9657Z" fill="black"/>
<path d="M183.116 41.5781H176.605V42.3533H183.116V41.5781Z" fill="black"/>
<path d="M183.116 173.121H176.604V173.896H183.116V173.121Z" fill="black"/>
<path d="M119.605 182.035C119.605 186.531 115.961 190.174 111.465 190.174C106.969 190.174 103.326 186.531 103.326 182.035C103.326 177.538 106.969 173.895 111.465 173.895C115.961 173.895 119.605 177.538 119.605 182.035Z" fill="black"/>
<path d="M114.604 181.585V182.5C114.604 184.663 113.101 185.864 111.124 185.864H108.318V178.221H111.124C113.093 178.221 114.604 179.43 114.604 181.585ZM113.147 181.632C113.147 180.197 112.294 179.546 111.132 179.546H109.783V184.531H111.132C112.294 184.531 113.147 183.887 113.147 182.446V181.624V181.632Z" fill="white"/>
<path d="M188 107.732C188 112.228 184.356 115.871 179.86 115.871C175.364 115.871 171.721 112.228 171.721 107.732C171.721 103.236 175.364 99.5923 179.86 99.5923C184.356 99.5923 188 103.236 188 107.732Z" fill="black"/>
<path d="M176.605 108.383V107.081C176.605 104.98 178.14 103.771 179.923 103.771C181.566 103.771 182.737 104.732 183.109 106.306L181.721 106.709C181.473 105.678 180.923 105.128 179.915 105.128C178.907 105.128 178.054 105.81 178.054 107.135V108.329C178.054 109.67 178.907 110.337 179.915 110.337C180.923 110.337 181.465 109.787 181.721 108.756L183.109 109.159C182.737 110.74 181.566 111.694 179.923 111.694C178.147 111.694 176.605 110.492 176.605 108.383Z" fill="white"/>
<path d="M58.2791 62.5927C58.2791 67.0888 54.6357 70.7322 50.1395 70.7322C45.6434 70.7322 42 67.0888 42 62.5927C42 58.0965 45.6434 54.4531 50.1395 54.4531C54.6357 54.4531 58.2791 58.0965 58.2791 62.5927Z" fill="black"/>
<path d="M53.1704 64.1814C53.1704 65.7318 52.0929 66.414 50.527 66.414H47.1162V58.7706H50.1627C51.7131 58.7706 52.8061 59.4527 52.8061 60.9721C52.8061 61.5845 52.5348 62.1194 51.8448 62.414C52.7518 62.7318 53.1627 63.352 53.1627 64.1814H53.1704ZM48.5735 60.0574V61.9721H50.1549C50.8991 61.9721 51.3642 61.6465 51.3642 61.0031C51.3642 60.3597 50.8991 60.0574 50.1549 60.0574H48.5735ZM50.5193 65.1272C51.2635 65.1272 51.7286 64.8171 51.7286 64.1504C51.7286 63.4837 51.2635 63.1582 50.5193 63.1582H48.5735V65.1272H50.5193Z" fill="white"/>
<path d="M119.372 93.3754C119.372 97.8715 115.728 101.515 111.232 101.515C106.736 101.515 103.093 97.8715 103.093 93.3754C103.093 88.8793 106.736 85.2358 111.232 85.2358C115.728 85.2358 119.372 88.8793 119.372 93.3754Z" fill="black"/>
<path d="M113.31 96.6546L112.581 94.5384H109.868L109.14 96.6546H107.651L110.31 89.0112H112.132L114.791 96.6546H113.302H113.31ZM110.326 93.2283H112.132L111.233 90.5849L110.333 93.2283H110.326Z" fill="white"/>
</svg>
