<svg width="230" height="230" viewBox="0 0 230 230" fill="none" xmlns="http://www.w3.org/2000/svg">
<rect width="230" height="230" fill="white"/>
<path d="M158.047 85.1214C155.076 77.7179 151.65 70.299 150.06 67.3989C148.386 64.3531 146.279 62.6192 144.188 61.5221C144.142 61.4684 144.08 61.4224 143.995 61.4147C143.995 61.4147 143.995 61.4147 143.987 61.4147C142.39 60.6015 140.808 60.1488 139.442 59.7575C138.956 59.6194 138.501 59.489 138.069 59.3509C134.843 58.3152 120.313 52.0394 120.166 51.978C120.035 51.9243 119.888 51.9397 119.773 52.0241C114.842 55.8141 106.616 55.2157 106.477 55.208C106.4 55.2157 98.1737 55.8217 93.2428 52.0241C93.1347 51.9397 92.9804 51.9167 92.8492 51.978C92.7026 52.0394 78.1644 58.3152 74.9466 59.3509C74.5145 59.489 74.0592 59.6194 73.573 59.7575C70.3629 60.6705 65.9644 61.9287 62.9626 67.3989C61.3653 70.299 57.9468 77.7179 54.9759 85.1214C51.3954 94.0441 49.9678 99.123 50.7395 100.212C52.2442 102.361 62.3221 109.342 69.4909 107.263C69.5912 107.232 69.6761 107.163 69.7224 107.071L73.3647 100.067C73.4959 106.573 73.982 132.059 73.82 137.284C73.7891 138.243 73.7428 139.877 73.6888 141.956C73.4033 152.221 72.7396 176.258 72.1069 178.222C72.0683 178.337 72.0914 178.468 72.1609 178.56C72.2535 178.69 74.5222 181.767 79.0673 182.549C83.4889 183.316 105.605 182.588 106.515 182.549C107.133 182.572 116.917 182.894 124.804 182.894C128.901 182.894 132.474 182.81 133.987 182.549C138.524 181.767 140.793 178.69 140.893 178.56C140.963 178.46 140.986 178.337 140.947 178.222C140.314 176.258 139.651 152.221 139.365 141.956C139.311 139.877 139.265 138.243 139.234 137.284C139.064 132.067 139.558 106.573 139.689 100.067L143.332 107.071C143.378 107.163 143.463 107.232 143.563 107.263C150.74 109.342 160.81 102.361 162.315 100.212C163.078 99.1153 161.659 94.0364 158.078 85.1214H158.047ZM106.508 69.2326C92.4171 69.2326 90.0404 56.3051 89.7394 54.1492C91.0975 53.5738 92.1702 53.1058 92.7335 52.868C92.7798 54.4178 93.1965 58.975 96.4529 62.3277C98.8373 64.7827 102.217 66.0256 106.5 66.0256C110.783 66.0256 114.163 64.7827 116.547 62.3277C119.803 58.975 120.22 54.4178 120.266 52.868C120.83 53.1135 121.91 53.5738 123.261 54.1492C122.96 56.3051 120.583 69.2326 106.492 69.2326H106.508ZM106.477 55.9752C106.816 55.9982 114.541 56.5736 119.726 53.0138C119.649 54.6326 119.148 58.8906 116.161 61.9594C113.885 64.3071 110.636 65.4962 106.508 65.4962C102.379 65.4962 99.1306 64.3071 96.8542 61.9594C93.8678 58.8906 93.374 54.6326 93.2891 53.0138C98.4747 56.5736 106.199 56.0059 106.477 55.9752ZM69.1051 106.58C62.2758 108.422 52.7844 101.824 51.3568 99.7828C50.099 97.9799 59.6522 75.002 63.6263 67.7749C65.0538 65.174 66.7824 63.5936 68.5572 62.5348C68.8813 66.7084 70.9648 92.2718 73.3492 98.4018L69.0974 106.58H69.1051ZM140.137 178.261C139.651 178.844 137.529 181.168 133.832 181.805C129.48 182.557 106.747 181.805 106.492 181.805C106.261 181.805 83.5275 182.565 79.1753 181.805C75.479 181.168 73.357 178.844 72.8708 178.261C73.519 175.184 74.1363 152.858 74.4373 141.987C74.4913 139.908 74.5376 138.281 74.5685 137.315C74.7614 131.33 74.09 98.8775 74.09 98.5476C74.09 98.3941 73.9897 98.2637 73.8585 98.21C71.4741 92.0877 69.3212 65.3121 69.0819 62.2433C70.687 61.384 72.3152 60.916 73.7814 60.5017C74.2752 60.3636 74.746 60.2255 75.1781 60.0874C77.3928 59.3739 84.631 56.3281 89.2224 54.3717C89.6237 57.0186 92.2859 69.7696 106.5 69.7696C120.714 69.7696 123.384 57.0186 123.778 54.3717C128.369 56.3281 135.607 59.3739 137.822 60.0874C138.262 60.2255 138.725 60.3636 139.219 60.5017C140.608 60.9007 142.135 61.338 143.663 62.1129C143.362 65.8952 141.186 92.6324 138.802 98.1717C138.748 98.2944 138.802 98.4402 138.918 98.5016C138.918 98.5169 138.91 98.5399 138.91 98.5553C138.91 98.8852 138.239 131.338 138.431 137.322C138.462 138.281 138.509 139.915 138.563 141.995C138.864 152.874 139.481 175.192 140.129 178.268L140.137 178.261ZM161.651 99.7751C160.223 101.816 150.732 108.414 143.903 106.573L139.643 98.3788C139.589 98.2714 139.489 98.21 139.381 98.187C141.757 92.2565 143.833 66.977 144.196 62.3891C146.063 63.4401 147.884 65.0436 149.381 67.7672C153.363 75.002 162.916 97.9799 161.651 99.7751Z" fill="#828384"/>
<path d="M148.741 33.6727H64.2667V34.4399H148.741V33.6727Z" fill="black"/>
<path d="M64.6525 30.834H63.8809V37.2785H64.6525V30.834Z" fill="black"/>
<path d="M149.134 30.834H148.363V37.2785H149.134V30.834Z" fill="black"/>
<path d="M141.395 86.4564H70.5406V87.2236H141.395V86.4564Z" fill="black"/>
<path d="M70.9264 83.6177H70.1548V90.0622H70.9264V83.6177Z" fill="black"/>
<path d="M141.781 83.6177H141.009V90.0622H141.781V83.6177Z" fill="black"/>
<path d="M34.4882 61.9749H33.7165V101.517H34.4882V61.9749Z" fill="black"/>
<path d="M37.3433 61.5913H30.8613V62.3585H37.3433V61.5913Z" fill="black"/>
<path d="M37.3433 101.448H30.8613V102.215H37.3433V101.448Z" fill="black"/>
<path d="M156.542 61.9749H155.771V101.517H156.542V61.9749Z" fill="black"/>
<path d="M159.398 61.5913H152.916V62.3585H159.398V61.5913Z" fill="black"/>
<path d="M159.398 101.448H152.916V102.215H159.398V101.448Z" fill="black"/>
<path d="M141.395 195.554H70.5406V196.321H141.395V195.554Z" fill="black"/>
<path d="M70.9264 192.715H70.1548V199.159H70.9264V192.715Z" fill="black"/>
<path d="M141.781 192.715H141.009V199.159H141.781V192.715Z" fill="black"/>
<path d="M196.284 52.331H195.512V182.519H196.284V52.331Z" fill="black"/>
<path d="M199.139 51.9551H192.657V52.7223H199.139V51.9551Z" fill="black"/>
<path d="M199.139 182.143H192.657V182.91H199.139V182.143Z" fill="black"/>
<path d="M114.07 86.8394C114.07 91.2892 110.443 94.8951 105.968 94.8951C101.492 94.8951 97.8652 91.2892 97.8652 86.8394C97.8652 82.3896 101.492 78.7837 105.968 78.7837C110.443 78.7837 114.07 82.3896 114.07 86.8394Z" fill="black"/>
<path d="M109.139 88.4122C109.139 89.9466 108.067 90.6217 106.508 90.6217H103.113V83.057H106.145C107.689 83.057 108.777 83.7322 108.777 85.2359C108.777 85.842 108.506 86.3714 107.82 86.6629C108.723 86.9775 109.132 87.5912 109.132 88.4122H109.139ZM104.571 84.3306V86.2256H106.145C106.886 86.2256 107.349 85.9034 107.349 85.2666C107.349 84.6298 106.886 84.3306 106.145 84.3306H104.571ZM106.5 89.3481C107.241 89.3481 107.704 89.0413 107.704 88.3815C107.704 87.7217 107.241 87.3994 106.5 87.3994H104.563V89.3481H106.5Z" fill="white"/>
<path d="M42.2127 81.8989C42.2127 86.3488 38.5859 89.9546 34.1102 89.9546C29.6345 89.9546 26 86.3488 26 81.8989C26 77.4491 29.6268 73.8433 34.1025 73.8433C38.5781 73.8433 42.205 77.4491 42.205 81.8989H42.2127Z" fill="black"/>
<path d="M30.8692 82.5434V81.2545C30.8692 79.1754 32.3971 77.9785 34.1719 77.9785C35.8079 77.9785 36.9731 78.9298 37.3435 80.4873L35.9622 80.8862C35.7153 79.8658 35.1674 79.3211 34.1642 79.3211C33.1611 79.3211 32.3122 79.9963 32.3122 81.3082V82.4897C32.3122 83.817 33.1611 84.4768 34.1642 84.4768C35.1674 84.4768 35.7075 83.932 35.9622 82.9117L37.3435 83.3106C36.9731 84.8757 35.8079 85.8194 34.1719 85.8194C32.4048 85.8194 30.8692 84.6302 30.8692 82.5434Z" fill="white"/>
<path d="M164.259 81.8989C164.259 86.3488 160.632 89.9546 156.157 89.9546C151.681 89.9546 148.054 86.3488 148.054 81.8989C148.054 77.4491 151.681 73.8433 156.157 73.8433C160.632 73.8433 164.259 77.4491 164.259 81.8989Z" fill="black"/>
<path d="M159.737 81.4463V82.3516C159.737 84.4921 158.24 85.6813 156.272 85.6813H153.479V78.1166H156.272C158.232 78.1166 159.737 79.3135 159.737 81.4463ZM158.286 81.4923C158.286 80.073 157.438 79.4285 156.28 79.4285H154.937V84.3617H156.28C157.438 84.3617 158.286 83.7249 158.286 82.2979V81.4847V81.4923Z" fill="white"/>
<path d="M204 117.428C204 121.878 200.373 125.484 195.897 125.484C191.422 125.484 187.795 121.878 187.795 117.428C187.795 112.978 191.422 109.373 195.897 109.373C200.373 109.373 204 112.978 204 117.428Z" fill="black"/>
<path d="M195.095 119.945H198.714V121.218H193.644V113.654H198.621V114.927H195.095V116.692H198.444V117.958H195.095V119.945Z" fill="white"/>
<path d="M114.07 195.937C114.07 200.386 110.443 203.992 105.968 203.992C101.492 203.992 97.8652 200.386 97.8652 195.937C97.8652 191.487 101.492 187.881 105.968 187.881C110.443 187.881 114.07 191.487 114.07 195.937Z" fill="black"/>
<path d="M108.684 193.428H105.25V195.284H108.321V196.558H105.25V199.727H103.799V192.162H108.684V193.435V193.428Z" fill="white"/>
<path d="M114.61 34.0557C114.61 38.5055 110.983 42.1114 106.508 42.1114C102.032 42.1114 98.4053 38.5055 98.4053 34.0557C98.4053 29.6059 102.032 26 106.508 26C110.983 26 114.61 29.6059 114.61 34.0557Z" fill="black"/>
<path d="M108.576 37.3087L107.85 35.2142H105.15L104.424 37.3087H102.943L105.589 29.744H107.403L110.05 37.3087H108.568H108.576ZM105.605 33.9099H107.403L106.508 31.2937L105.613 33.9099H105.605Z" fill="white"/>
</svg>
