<svg width="22" height="22" viewBox="0 0 22 22" fill="none" xmlns="http://www.w3.org/2000/svg">
<path d="M17.0096 2.53749H12.679C11.8585 2.53749 11.0719 2.18224 10.5306 1.55632C9.66782 0.566705 8.41599 0 7.10496 0H4.98193C2.23299 0 0 2.23299 0 4.98193V17.0181C0 19.767 2.23299 21.9915 4.98193 22H17.0181C19.767 22 21.9915 19.767 22 17.0181V7.51942C22 4.77047 19.767 2.54594 17.0181 2.53749H17.0096ZM20.2999 17.0096C20.2999 18.8281 18.8281 20.2914 17.0096 20.2999H4.98193C3.1634 20.2999 1.70012 18.8281 1.69166 17.0096V9.30411H20.2999V17.0096ZM20.2999 7.61246H1.69166V4.98193C1.69166 3.1634 3.1634 1.70012 4.98193 1.69166H7.10496C7.92541 1.69166 8.71203 2.04691 9.25336 2.67282C10.1161 3.66244 11.3679 4.22914 12.679 4.22914H17.0096C18.8281 4.22914 20.2914 5.70088 20.2999 7.51942V7.61246Z" fill="black"/>
</svg>
