<svg width="22" height="22" viewBox="0 0 22 22" fill="none" xmlns="http://www.w3.org/2000/svg">
<path d="M15.7953 0H6.21316C2.78492 0 0 2.78492 0 6.21316V15.7868C0 19.2151 2.78492 22 6.21316 22H15.7868C19.2151 22 22 19.2151 22 15.7868V6.21316C22 2.78492 19.2151 0 15.7868 0H15.7953ZM20.3155 15.7953C20.3155 18.2924 18.2924 20.3155 15.7953 20.3155H6.21316C3.71604 20.3155 1.69296 18.2924 1.69296 15.7953V6.21316C1.69296 3.71604 3.71604 1.69296 6.21316 1.69296H15.7868C18.284 1.69296 20.307 3.71604 20.307 6.21316V15.7868L20.3155 15.7953Z" fill="black"/>
<path d="M16.0831 6.77184H10.0054C9.53982 5.45133 8.08388 4.75721 6.76337 5.22278C5.44286 5.68834 4.74875 7.14429 5.21431 8.46479C5.67988 9.7853 7.13582 10.4794 8.45633 10.0139C9.17584 9.75991 9.75144 9.19277 10.0054 8.46479H16.0831C16.5487 8.46479 16.9296 8.08388 16.9296 7.61831C16.9296 7.15275 16.5487 6.77184 16.0831 6.77184ZM7.61831 8.46479C7.15275 8.46479 6.77184 8.08388 6.77184 7.61831C6.77184 7.15275 7.15275 6.77184 7.61831 6.77184C8.08388 6.77184 8.46479 7.15275 8.46479 7.61831C8.46479 8.08388 8.08388 8.46479 7.61831 8.46479Z" fill="black"/>
<path d="M14.3902 11.8507C13.3151 11.8507 12.3671 12.5364 12.0031 13.5437H5.92536C5.45979 13.5437 5.07888 13.9246 5.07888 14.3902C5.07888 14.8557 5.45979 15.2366 5.92536 15.2366H12.0031C12.4771 16.5571 13.9246 17.2428 15.2451 16.7772C16.5656 16.3032 17.2513 14.8557 16.7857 13.5352C16.4217 12.5194 15.4652 11.8507 14.3902 11.8507ZM14.3902 15.2366C13.9246 15.2366 13.5437 14.8557 13.5437 14.3902C13.5437 13.9246 13.9246 13.5437 14.3902 13.5437C14.8557 13.5437 15.2366 13.9246 15.2366 14.3902C15.2366 14.8557 14.8557 15.2366 14.3902 15.2366Z" fill="black"/>
</svg>
