<svg width="22" height="22" viewBox="0 0 22 22" fill="none" xmlns="http://www.w3.org/2000/svg">
<path d="M16.0831 1.70989V0.846479C16.0831 0.380916 15.7022 0 15.2366 0C14.7711 0 14.3902 0.380916 14.3902 0.846479V1.69296H7.61831V0.846479C7.61831 0.380916 7.2374 0 6.77184 0C6.30627 0 5.92536 0.380916 5.92536 0.846479V1.70989C2.61562 1.86225 0 4.59638 0 7.90612V15.7868C0 19.2151 2.78492 22 6.21316 22H15.7868C19.2151 22 22 19.2151 22 15.7868V7.90612C22 4.58792 19.3844 1.86225 16.0746 1.70142L16.0831 1.70989ZM5.92536 3.41131V4.2324C5.92536 4.69796 6.30627 5.07888 6.77184 5.07888C7.2374 5.07888 7.61831 4.69796 7.61831 4.2324V3.38592H14.3902V4.2324C14.3902 4.69796 14.7711 5.07888 15.2366 5.07888C15.7022 5.07888 16.0831 4.69796 16.0831 4.2324V3.41131C18.3432 3.55521 20.1377 5.35821 20.2901 7.61831H1.72682C1.87072 5.35821 3.67372 3.56368 5.92536 3.41131ZM20.3155 15.7953C20.3155 18.2924 18.2924 20.3155 15.7953 20.3155H6.21316C3.71604 20.3155 1.69296 18.2924 1.69296 15.7953V9.31127H20.3155V15.7953Z" fill="black"/>
<path d="M5.92536 13.5437H16.0831C16.5487 13.5437 16.9296 13.1628 16.9296 12.6972C16.9296 12.2316 16.5487 11.8507 16.0831 11.8507H5.92536C5.45979 11.8507 5.07888 12.2316 5.07888 12.6972C5.07888 13.1628 5.45979 13.5437 5.92536 13.5437Z" fill="black"/>
<path d="M5.92536 17.7761H11.0042C11.4698 17.7761 11.8507 17.3952 11.8507 16.9296C11.8507 16.464 11.4698 16.0831 11.0042 16.0831H5.92536C5.45979 16.0831 5.07888 16.464 5.07888 16.9296C5.07888 17.3952 5.45979 17.7761 5.92536 17.7761Z" fill="black"/>
</svg>
