<svg width="22" height="22" viewBox="0 0 22 22" fill="none" xmlns="http://www.w3.org/2000/svg">
<path d="M12.4993 0C7.26227 0 3.01466 4.23877 3.00467 9.47726C3.00467 11.6566 3.75425 13.766 5.12348 15.4655L0.306185 20.2841C-0.0935906 20.664 -0.103585 21.3038 0.286196 21.6937C0.665982 22.0936 1.30562 22.1036 1.6954 21.7137L1.71539 21.6937L6.53268 16.8751C10.6104 20.1742 16.587 19.5444 19.8852 15.4755C23.1833 11.3967 22.5537 5.41843 18.486 2.11939C16.7969 0.749783 14.6781 0 12.4993 0ZM12.4993 16.9951C8.36166 16.9951 5.00354 13.6361 5.00354 9.49726C5.00354 5.35845 8.36166 1.99942 12.4993 1.99942C16.637 1.99942 19.9951 5.35845 19.9951 9.49726C19.9951 13.6361 16.637 16.9951 12.4993 16.9951Z" fill="black"/>
</svg>
