<svg width="16" height="16" viewBox="0 0 16 16" fill="none" xmlns="http://www.w3.org/2000/svg">
<path fill-rule="evenodd" clip-rule="evenodd" d="M15.5601 15.5598C14.9733 16.1467 14.0217 16.1467 13.4348 15.5598L10.7828 12.9079C9.69247 13.6073 8.40368 14.0242 7.01208 14.0242C3.13978 14.0242 0 10.8848 0 7.01194C0 3.13909 3.13978 0 7.01208 0C10.8844 0 14.0242 3.13909 14.0242 7.01194C14.0242 8.40289 13.607 9.69228 12.9079 10.7832L15.5598 13.4351C16.1467 14.022 16.1467 14.973 15.5598 15.5598H15.5601ZM7.01208 2.00346C4.24606 2.00346 2.0035 4.24567 2.0035 7.01194C2.0035 9.77822 4.24606 12.0204 7.01208 12.0204C9.7781 12.0204 12.0207 9.77822 12.0207 7.01194C12.0207 4.24567 9.77841 2.00346 7.01208 2.00346Z" fill="black"/>
</svg>
