<svg width="26" height="24" viewBox="0 0 26 24" fill="none" xmlns="http://www.w3.org/2000/svg">
<path d="M4.41 2.76L5 5.21L6.86 15.33L6.27 15.53C4.92 15.98 4 17.25 4 18.68C3.99 20.46 5.4 21.94 7.18 22C7.75 23.56 9.47 24.36 11.02 23.8C11.86 23.5 12.51 22.84 12.82 22H17.19C17.74 23.56 19.46 24.38 21.02 23.83C22.58 23.28 23.4 21.56 22.85 20C22.3 18.44 20.58 17.62 19.02 18.17C18.17 18.47 17.49 19.14 17.19 20H12.82C12.24 18.45 10.51 17.66 8.96 18.24C8.15 18.54 7.5 19.19 7.2 20C6.51 19.96 5.98 19.37 6 18.68C6 18.11 6.37 17.6 6.91 17.42L8.16 17H22C22.49 17 22.91 16.66 23 16.18L25 5.18C25.1 4.64 24.74 4.12 24.2 4.02C24.14 4.01 24.07 4 24 4H6.78L6.35 2.27C6.02 0.94 4.82 0 3.44 0H1C0.45 0 0 0.45 0 1C0 1.55 0.45 2 1 2H3.44C3.9 2 4.3 2.31 4.41 2.76ZM20 20C20.55 20 21 20.45 21 21C21 21.55 20.55 22 20 22C19.45 22 19 21.55 19 21C19 20.45 19.45 20 20 20ZM10 20C10.55 20 11 20.45 11 21C11 21.55 10.55 22 10 22C9.45 22 9 21.55 9 21C9 20.45 9.45 20 10 20ZM22.8 6L21.16 15H8.83L7.2 6H22.8Z" fill="#555555"/>
<path d="M11 13C11.55 13 12 12.55 12 12V8C12 7.45 11.55 7 11 7C10.45 7 10 7.45 10 8V12C10 12.55 10.45 13 11 13Z" fill="#555555"/>
<path d="M15 13C15.55 13 16 12.55 16 12V8C16 7.45 15.55 7 15 7C14.45 7 14 7.45 14 8V12C14 12.55 14.45 13 15 13Z" fill="#555555"/>
<path d="M19 13C19.55 13 20 12.55 20 12V8C20 7.45 19.55 7 19 7C18.45 7 18 7.45 18 8V12C18 12.55 18.45 13 19 13Z" fill="#555555"/>
</svg>
