<svg width="376" height="160" viewBox="0 0 376 160" fill="none" xmlns="http://www.w3.org/2000/svg">
<mask id="mask0_2087_306" style="mask-type:alpha" maskUnits="userSpaceOnUse" x="0" y="0" width="377" height="160">
<path d="M188.007 15.2094C197.288 15.2094 204.964 8.72027 205.264 0.5H375.507V159.5H205.264C204.964 151.28 197.288 144.791 188.007 144.791C178.727 144.791 171.051 151.28 170.751 159.5H0.507324V0.5H170.751C171.051 8.72027 178.727 15.2094 188.007 15.2094Z" fill="white" stroke="#DDDDDD"/>
</mask>
<g mask="url(#mask0_2087_306)">
<path d="M188.007 15.2094C197.288 15.2094 204.964 8.72027 205.264 0.5H375.507V159.5H205.264C204.964 151.28 197.288 144.791 188.007 144.791C178.727 144.791 171.051 151.28 170.751 159.5H0.507324V0.5H170.751C171.051 8.72027 178.727 15.2094 188.007 15.2094Z" fill="white" stroke="#EEEEEE"/>
<line x1="188.5" y1="103" x2="188.5" y2="143" stroke="#EEEEEE" stroke-dasharray="5 5"/>
<line x1="188.5" y1="16" x2="188.5" y2="56" stroke="#EEEEEE" stroke-dasharray="5 5"/>
<path d="M314.67 126H296C294.9 126 294 125.1 294 124V80C294 78.9 294.9 78 296 78H314.26C314.97 78 315.64 78.39 315.99 79.01L319.13 84.5C319.31 84.81 319.64 85 320 85H350V112C350 112.55 350.45 113 351 113C351.55 113 352 112.55 352 112V80C352 77.79 350.21 76 348 76H296C293.79 76 292 77.79 292 80V124C292 126.21 293.79 128 296 128H314.67C315.22 128 315.67 127.55 315.67 127C315.67 126.45 315.22 126 314.67 126ZM350 80V83H320.58L317.73 78.01C317.73 78.01 317.73 78.01 317.73 78H348.01C349.11 78 350.01 78.9 350.01 80H350ZM356 138.91C356.02 139.19 355.93 139.47 355.74 139.67C355.55 139.88 355.28 139.99 355 139.99H339.04C338.49 139.99 338.04 139.54 338.04 138.99C338.04 138.44 338.49 137.99 339.04 137.99H353.91L352.08 116.99H331.91L331.56 121.08C331.51 121.63 331.03 122.04 330.48 121.99C329.93 121.94 329.52 121.46 329.57 120.91L330 115.91C330.04 115.39 330.48 115 331 115H353C353.52 115 353.95 115.4 354 115.91L356 138.91ZM333 124H319C318.5 124 318.08 124.37 318.01 124.86L316.01 138.86C315.97 139.15 316.05 139.44 316.24 139.66C316.43 139.88 316.71 140 317 140H335C335.29 140 335.57 139.87 335.76 139.66C335.95 139.44 336.04 139.15 335.99 138.86L333.99 124.86C333.92 124.37 333.5 124 333 124ZM318.15 138L319.86 126H332.13L333.84 138H318.15ZM329 130V131C329 132.65 327.65 134 326 134C324.35 134 323 132.65 323 131V130C323 129.45 323.45 129 324 129C324.55 129 325 129.45 325 130V131C325 131.55 325.45 132 326 132C326.55 132 327 131.55 327 131V130C327 129.45 327.45 129 328 129C328.55 129 329 129.45 329 130ZM339 121V123C339 124.65 340.35 126 342 126C343.65 126 345 124.65 345 123V121C345 120.45 345.45 120 346 120C346.55 120 347 120.45 347 121V123C347 125.76 344.76 128 342 128C339.24 128 337 125.76 337 123V121C337 120.45 337.45 120 338 120C338.55 120 339 120.45 339 121ZM313 83C312.45 83 312 82.55 312 82C312 81.45 312.45 81 313 81C313.55 81 314 81.45 314 82C314 82.55 313.55 83 313 83ZM305 120H321C321.55 120 322 119.55 322 119V107.85L327.16 106.99C327.43 106.95 327.66 106.79 327.82 106.57C327.97 106.35 328.03 106.07 327.98 105.81L325.98 95.81C325.92 95.51 325.72 95.25 325.45 95.11L317.45 91.11C317.34 91.06 317.15 91 317 91H309C308.87 91 308.69 91.04 308.55 91.11L300.55 95.11C300.27 95.25 300.08 95.51 300.02 95.81L298.02 105.81C297.97 106.08 298.02 106.35 298.18 106.57C298.33 106.79 298.57 106.94 298.84 106.99L304 107.85V119C304 119.55 304.45 120 305 120ZM316 93C316 94.65 314.65 96 313 96C311.35 96 310 94.65 310 93H316ZM300.18 105.18L301.88 96.67L308.05 93.58C308.35 96.06 310.44 97.99 312.99 97.99C315.54 97.99 317.64 96.06 317.93 93.58L324.1 96.67L325.8 105.18L321.98 105.82V102C321.98 101.45 321.53 101 320.98 101C320.43 101 319.98 101.45 319.98 102V118H305.98V102C305.98 101.45 305.53 101 304.98 101C304.43 101 303.98 101.45 303.98 102V105.82L300.16 105.18H300.18ZM346 92C346 91.45 345.55 91 345 91H331C330.45 91 330 91.45 330 92V98C330 98.55 330.45 99 331 99H345C345.55 99 346 98.55 346 98V92ZM344 97H332V93H344V97ZM346 103C346 103.55 345.55 104 345 104H331C330.45 104 330 103.55 330 103C330 102.45 330.45 102 331 102H345C345.55 102 346 102.45 346 103ZM346 108C346 108.55 345.55 109 345 109H331C330.45 109 330 108.55 330 108C330 107.45 330.45 107 331 107H345C345.55 107 346 107.45 346 108Z" fill="#EEEEEE"/>
</g>
<path d="M178.816 87.212H177.024V74.136H178.816V87.212ZM171.48 85.546C169.52 85.546 167.91 84.314 167.91 81.122V79.12C167.91 75.928 169.52 74.696 171.48 74.696C173.426 74.696 175.036 75.928 175.036 79.12V81.122C175.036 84.314 173.426 85.546 171.48 85.546ZM171.48 83.922C172.446 83.922 173.244 83.222 173.244 81.122V79.12C173.244 77.02 172.446 76.32 171.48 76.32C170.514 76.32 169.702 77.02 169.702 79.12V81.122C169.702 83.222 170.514 83.922 171.48 83.922ZM189.893 78.854V80.114H193.071V81.626H180.751V80.114H183.929V78.854C182.809 78.504 182.123 77.762 182.123 76.656C182.123 75.032 183.621 74.248 185.777 74.248H188.059C190.201 74.248 191.713 75.032 191.713 76.656C191.713 77.776 191.013 78.504 189.893 78.854ZM183.901 76.67C183.901 77.314 184.699 77.636 186.113 77.636H187.723C189.123 77.636 189.921 77.314 189.921 76.67C189.921 76.04 189.123 75.732 187.723 75.732H186.113C184.699 75.732 183.901 76.04 183.901 76.67ZM185.609 79.106V80.114H188.213V79.106H185.609ZM185.357 82.508H188.465C190.565 82.508 191.783 83.544 191.783 84.93C191.783 86.33 190.565 87.352 188.465 87.352H185.357C183.271 87.352 182.053 86.33 182.053 84.93C182.053 83.544 183.271 82.508 185.357 82.508ZM185.693 85.798H188.143C189.445 85.798 189.991 85.462 189.991 84.916C189.991 84.37 189.445 84.048 188.143 84.048H185.693C184.391 84.048 183.831 84.37 183.831 84.916C183.831 85.462 184.391 85.798 185.693 85.798ZM200.257 82.942V81.528H203.575V74.136H205.367V84.482H203.575V82.942H200.257ZM197.261 80.772C196.939 80.786 196.645 80.786 196.351 80.786H194.237L194.167 79.26H196.519C197.387 79.26 198.521 79.218 199.711 79.134C199.893 78 199.991 76.936 200.005 76.152H195.007V74.626H201.741V75.326C201.741 76.572 201.643 77.818 201.475 78.98L202.651 78.854L202.833 80.338C201.643 80.506 200.285 80.632 198.997 80.702C198.941 81.5 198.857 82.326 198.759 83.222L197.051 83.124C197.135 82.284 197.205 81.528 197.261 80.772ZM198.143 83.642V85.588H205.843V87.212H196.351V83.642H198.143ZM212.203 81.458L211.517 79.876C214.555 78.91 215.885 77.832 216.067 76.81H212.273V75.228H216.095V73.94H217.873V75.228H221.597V76.81H217.859C217.845 77.174 217.761 77.524 217.621 77.86L222.339 79.904L221.569 81.458L216.585 79.274C215.675 80.1 214.247 80.828 212.203 81.458ZM210.775 82.382H223.095V84.006H217.831V87.352H216.039V84.006H210.775V82.382ZM234.662 78.868H236.552V80.492H234.662V87.212H232.87V74.136H234.662V78.868ZM229.02 76.74H224.512V75.102H230.826V76.39C230.826 80.114 228.824 83.306 225.24 85.728L224.134 84.328C227.494 82.13 229.02 79.218 229.02 76.74Z" fill="#DDDDDD"/>
<rect x="139.5" y="70.5" width="19" height="19" fill="white" stroke="#DDDDDD"/>
<rect x="150" y="75" width="10" height="2" transform="rotate(90 150 75)" fill="#D9D9D9"/>
<rect x="144" y="79" width="10" height="2" fill="#D9D9D9"/>
</svg>
