<svg width="376" height="160" viewBox="0 0 376 160" fill="none" xmlns="http://www.w3.org/2000/svg">
<mask id="mask0_941_359" style="mask-type:alpha" maskUnits="userSpaceOnUse" x="0" y="0" width="377" height="160">
<path d="M170.753 0.5C171.053 8.72024 178.727 15.209 188.008 15.209C197.288 15.209 204.962 8.72024 205.263 0.5H375.508V159.5H205.263C204.962 151.28 197.288 144.791 188.008 144.791C178.727 144.791 171.053 151.28 170.753 159.5H0.507812V0.5H170.753Z" fill="white" stroke="#DDDDDD"/>
</mask>
<g mask="url(#mask0_941_359)">
<path d="M170.753 0.5C171.053 8.72024 178.727 15.209 188.008 15.209C197.288 15.209 204.962 8.72024 205.263 0.5H375.508V159.5H205.263C204.962 151.28 197.288 144.791 188.008 144.791C178.727 144.791 171.053 151.28 170.753 159.5H0.507812V0.5H170.753Z" fill="white" stroke="#DDDDDD"/>
<rect x="188" width="188" height="160" fill="#F6AE24"/>
<line x1="188.508" y1="16" x2="188.508" y2="143" stroke="white" stroke-dasharray="5 5"/>
</g>
</svg>
