<svg width="70" height="18" viewBox="0 0 70 18" fill="none" xmlns="http://www.w3.org/2000/svg">
<path d="M25.0886 9.05042C25.0886 11.5344 25.0943 14.0183 25.0867 16.5023C25.0961 14.0183 25.0886 11.5344 25.0886 9.05042C25.0886 6.56647 25.0943 4.08253 25.0867 1.59858C25.0961 4.08253 25.0886 6.56647 25.0886 9.05042Z" fill="white"/>
<path d="M30.2777 0.00245935V17.9951H33.1054V0.00245935H30.2777Z" fill="black"/>
<path d="M64.9281 0.00245935V17.9951H67.0263V0.00245935H64.9281Z" fill="black"/>
<path d="M5.20649 0.00245935V17.9951H7.34417V0.00245935H5.20649Z" fill="black"/>
<path d="M10.4031 0.00245935V17.9951H12.5201V0.00245935H10.4031Z" fill="black"/>
<path d="M36.9183 0.00245935V17.9951H39.0635V0.00245935H36.9183Z" fill="black"/>
<path d="M57.5524 0.00245935V17.9951H59.6864V0.00245935H57.5524Z" fill="black"/>
<path d="M47.2194 0.00245935V17.9951H49.3627V0.00245935H47.2194Z" fill="black"/>
<path d="M52.3671 0.00245935V17.9951H54.5104V0.00245935H52.3671Z" fill="black"/>
<path d="M3.05376 0.00245935V17.9951H4.39052V0.00245935H3.05376Z" fill="black"/>
<path d="M14.0524 0.00245935V17.9951H15.4362V0.00245935H14.0524Z" fill="black"/>
<path d="M68.5736 9.1783C68.5736 6.11887 68.5811 3.05943 68.5605 0.00245935C68.5811 3.06189 68.5717 6.11887 68.5717 9.1783H68.5736Z" fill="black"/>
<path d="M68.5736 9.1783C68.5736 6.11887 68.5811 3.05943 68.5623 0.00245935H67.7859C67.7671 6.00082 67.7652 11.9967 67.7859 17.9951H68.5642C68.568 17.5131 68.5717 17.031 68.5736 16.549C68.583 14.0921 68.5755 11.6352 68.5755 9.1783H68.5736Z" fill="black"/>
<path d="M50.1016 8.92745C50.1016 11.4458 50.0959 13.9642 50.1035 16.4801C50.0941 13.9617 50.1016 11.4434 50.1016 8.92745C50.1016 5.95163 50.0922 2.97582 50.1129 0.00245935C50.0922 2.97828 50.1016 5.95163 50.1016 8.92745Z" fill="black"/>
<path d="M50.8856 0.00245935H50.1129C50.0922 2.97828 50.1016 5.95163 50.1016 8.92745C50.1016 11.4458 50.0959 13.9642 50.1035 16.4801C50.1035 16.9843 50.1091 17.4885 50.1128 17.9926H50.8875C50.9063 11.9943 50.9044 5.99836 50.8875 0L50.8856 0.00245935Z" fill="black"/>
<path d="M41.3346 5.34663C41.3346 3.56852 41.3346 1.78795 41.3346 0.00245935H40.5469C40.5506 6.00082 40.5469 11.9967 40.5619 17.9951H41.3196C41.3384 13.7798 41.3328 9.56196 41.3328 5.34663H41.3346Z" fill="black"/>
<path d="M56.7797 2.30195C56.7797 1.53464 56.7778 0.769777 56.7797 0.00245935H56.0333V17.9951H56.776C56.7835 12.764 56.7816 7.533 56.7816 2.30195H56.7797Z" fill="black"/>
<path d="M46.4316 0.00245935H45.7134C45.704 1.36494 45.7002 2.72988 45.7002 4.09236C45.7002 5.74997 45.7021 7.40757 45.7021 9.06517C45.7021 11.5196 45.6946 13.9765 45.704 16.4309C45.7059 16.9523 45.7096 17.4737 45.7134 17.9951H46.4335C46.4504 11.9967 46.4504 6.00082 46.4335 0.00245935H46.4316Z" fill="black"/>
<path d="M61.1434 0.00245935C61.1359 5.51387 61.1397 11.0253 61.1397 16.5367C61.1397 17.0236 61.1416 17.5081 61.1434 17.9951H61.888V0.00245935H61.1434Z" fill="black"/>
<path d="M0.00235013 0.00245935C0.00423024 3.70624 0.00235013 7.41249 0.00235013 11.1163C0.00235013 13.4084 -0.0070504 15.7005 0.0117507 17.9951H0.722431V0.00245935H0.00235013Z" fill="black"/>
<path d="M2.266 0.00245935H1.4914C1.4914 3.01271 1.4914 6.02295 1.4914 9.03566C1.4914 12.009 1.4914 14.9848 1.4914 17.9951H2.26224C2.26788 11.9967 2.26788 6.00082 2.26412 0.00245935H2.266Z" fill="black"/>
<path d="M41.9795 8.92991C41.9795 11.4458 41.9739 13.9593 41.9814 16.4752C41.972 13.9617 41.9795 11.4458 41.9795 8.92991Z" fill="black"/>
<path d="M42.7466 0.00245935H41.9927C41.9889 0.523842 41.9851 1.04768 41.9833 1.56907C41.9739 4.0235 41.9814 6.47547 41.9814 8.92991C41.9814 11.4458 41.9757 13.9593 41.9833 16.4752C41.9833 16.9818 41.9889 17.4885 41.9927 17.9975H42.7466C42.7654 11.9992 42.7654 6.00328 42.7466 0.00491871V0.00245935Z" fill="black"/>
<path d="M69.9987 0.00245935H69.258C69.258 6.00082 69.2542 11.9967 69.273 17.9951H69.9875C70.0025 11.9967 70.0006 6.00082 69.9987 0.00245935Z" fill="black"/>
<path d="M36.1286 0.00245935H35.3766C35.3766 6.00082 35.3766 11.9967 35.3728 17.9951H36.1455C36.1455 11.9869 36.1474 5.99344 36.1286 0.00245935Z" fill="black"/>
<path d="M33.88 0.00245935C33.88 3.9571 33.88 7.90928 33.88 11.8639C33.88 13.9076 33.8706 15.9514 33.8875 17.9951H34.6001V0.00245935H33.88Z" fill="black"/>
<path d="M29.5012 0.00245935H28.7511C28.7323 4.48832 28.7379 8.97418 28.7379 13.4625C28.7379 14.9652 28.7379 16.4703 28.7379 17.9951H29.5163C29.5163 11.9967 29.52 6.00082 29.5012 0.00245935Z" fill="black"/>
<path d="M27.2846 8.92499C27.2846 6.50007 27.2771 4.07515 27.2846 1.65023C27.2752 4.07515 27.2846 6.50007 27.2846 8.92499Z" fill="black"/>
<path d="M28.0141 0.00245935H27.2959C27.2921 0.550895 27.2865 1.09933 27.2846 1.64777C27.2752 4.07269 27.2846 6.49761 27.2846 8.92253C27.2846 11.4089 27.2771 13.8953 27.2865 16.3817C27.2883 16.9179 27.2921 17.4565 27.2959 17.9926H28.0141C28.031 11.9943 28.031 5.99836 28.0141 0V0.00245935Z" fill="black"/>
<path d="M25.0886 9.05042C25.0886 6.56647 25.0943 4.08253 25.0867 1.59858C25.0867 1.0649 25.0811 0.53368 25.0773 0H24.3234C24.3046 5.99836 24.3046 11.9943 24.3234 17.9926H25.0792C25.083 17.4958 25.0867 16.999 25.0886 16.4998C25.098 14.0159 25.0905 11.5319 25.0905 9.04796L25.0886 9.05042Z" fill="black"/>
<path d="M22.8645 0.00245935H22.1481C22.1256 3.02009 22.135 6.03771 22.135 9.05534H22.1387C22.1387 12.0361 22.1293 15.0168 22.15 17.9951H22.8607C22.8795 11.9967 22.8795 6.00082 22.8645 0.00245935Z" fill="black"/>
<path d="M18.4199 0.00245935C18.4199 5.10562 18.4199 10.2063 18.4199 15.3095C18.4199 16.2047 18.4218 17.0999 18.4199 17.9951H19.1625V0.00245935H18.418H18.4199Z" fill="black"/>
<path d="M16.9534 0.00245935C16.9553 3.62755 16.9534 7.25263 16.9534 10.8777C16.9534 13.251 16.9459 15.6243 16.9628 17.9951H17.6735V0.00245935H16.9534Z" fill="black"/>
<path d="M8.8539 0.00245935H8.13569C8.11689 2.98074 8.12441 5.95901 8.12441 8.93729C8.12441 11.9156 8.11501 14.9775 8.13569 17.9951H8.8539C8.87082 11.9967 8.87082 6.00082 8.8539 0.00245935Z" fill="black"/>
<path d="M62.625 0.00245935C62.6306 6.00082 62.6287 11.9967 62.6306 17.9951H63.4033C63.4033 11.9967 63.4052 6.00082 63.4033 0.00245935H62.625Z" fill="black"/>
</svg>
