<svg width="10" height="7" viewBox="0 0 10 7" fill="none" xmlns="http://www.w3.org/2000/svg">
<path d="M3.80223 7L3.28022 6.48609L2.75873 7H0.312848C0.140364 7 0 6.86186 0 6.6918L0 0.308446C0 0.138389 0.140364 0 0.312848 0L2.75847 0L3.27997 0.514409L3.80223 0L9.68741 0C9.85964 0 10 0.138389 10 0.308446V6.6918C10 6.86161 9.85989 7 9.68741 7L3.80223 7ZM9.37456 6.38361V0.616892L4.0612 0.616892L3.28022 1.38663L2.49975 0.616892L0.625696 0.616892L0.625696 6.38361H2.49949L3.27997 5.61336L4.06095 6.38361L9.37456 6.38361Z" fill="#F6AE24"/>
<path d="M9.68741 0.0423895L3.82018 0.0423895L3.28048 0.574253L2.74077 0.0423895L0.312848 0.0423895C0.163885 0.0423895 0.0429944 0.161329 0.0429944 0.308446L0.0429944 6.6918C0.0429944 6.83867 0.163885 6.95761 0.312848 6.95761H2.74077L3.28022 6.42625L3.81993 6.95761L9.68715 6.95761C9.83611 6.95761 9.95675 6.83867 9.95675 6.6918V0.308446C9.95675 0.161579 9.83637 0.0423895 9.68741 0.0423895ZM9.41755 6.426L4.04325 6.426L3.28022 5.67321L2.51745 6.426H0.582701L0.582701 0.574253L2.51745 0.574253L3.28022 1.32629L4.04325 0.574253L9.41755 0.574253V6.426Z" fill="#F6AE24"/>
<path d="M3.28022 2.21273C3.10799 2.21273 2.96763 2.07434 2.96763 1.90429C2.96763 1.73423 3.10774 1.59584 3.28022 1.59584C3.45271 1.59584 3.59307 1.73423 3.59307 1.90429C3.59307 2.07434 3.45271 2.21273 3.28022 2.21273Z" fill="#F6AE24"/>
<path d="M3.28022 1.63823C3.13177 1.63823 3.01062 1.75717 3.01062 1.90429C3.01062 2.0514 3.13177 2.17034 3.28022 2.17034C3.42868 2.17034 3.55008 2.0514 3.55008 1.90429C3.55008 1.75717 3.42969 1.63823 3.28022 1.63823Z" fill="#F6AE24"/>
<path d="M3.28022 3.27646C3.10799 3.27646 2.96763 3.13807 2.96763 2.96801C2.96763 2.79796 3.10774 2.65957 3.28022 2.65957C3.45271 2.65957 3.59307 2.79796 3.59307 2.96801C3.59307 3.13807 3.45271 3.27646 3.28022 3.27646Z" fill="#F6AE24"/>
<path d="M3.28022 2.7022C3.13177 2.7022 3.01062 2.82114 3.01062 2.96826C3.01062 3.11538 3.13177 3.23432 3.28022 3.23432C3.42868 3.23432 3.55008 3.11513 3.55008 2.96826C3.55008 2.82139 3.42969 2.7022 3.28022 2.7022Z" fill="#F6AE24"/>
<path d="M3.28022 4.34043C3.10799 4.34043 2.96763 4.20229 2.96763 4.03224C2.96763 3.86218 3.10774 3.72354 3.28022 3.72354C3.45271 3.72354 3.59307 3.86193 3.59307 4.03224C3.59307 4.20254 3.45271 4.34043 3.28022 4.34043Z" fill="#F6AE24"/>
<path d="M3.28022 3.76593C3.13177 3.76593 3.01062 3.88487 3.01062 4.03224C3.01062 4.1796 3.13177 4.29804 3.28022 4.29804C3.42868 4.29804 3.55008 4.17885 3.55008 4.03224C3.55008 3.88562 3.42969 3.76593 3.28022 3.76593Z" fill="#F6AE24"/>
<path d="M3.28022 5.40416C3.10799 5.40416 2.96763 5.26602 2.96763 5.09596C2.96763 4.92591 3.10774 4.78777 3.28022 4.78777C3.45271 4.78777 3.59307 4.92591 3.59307 5.09596C3.59307 5.26602 3.45271 5.40416 3.28022 5.40416Z" fill="#F6AE24"/>
<path d="M3.28022 4.83016C3.13177 4.83016 3.01062 4.9491 3.01062 5.09596C3.01062 5.24283 3.13177 5.36177 3.28022 5.36177C3.42868 5.36177 3.55008 5.24283 3.55008 5.09596C3.55008 4.9491 3.42969 4.83016 3.28022 4.83016Z" fill="#F6AE24"/>
<path d="M7.29995 5.5024C7.18462 5.5024 7.09105 5.4099 7.09105 5.29644V1.70406C7.09105 1.59035 7.18488 1.49809 7.29995 1.49809C7.41502 1.49809 7.50885 1.5906 7.50885 1.70406V5.29619C7.50885 5.40989 7.41502 5.5024 7.29995 5.5024Z" fill="#F6AE24"/>
<path d="M7.46586 5.29619V1.70406C7.46586 1.61354 7.3915 1.54048 7.29995 1.54048C7.2084 1.54048 7.13404 1.61379 7.13404 1.70406V5.29619C7.13404 5.38671 7.2084 5.45977 7.29995 5.45977C7.3915 5.45977 7.46586 5.38646 7.46586 5.29619Z" fill="#F6AE24"/>
<path d="M8.29565 5.5024C8.18032 5.5024 8.08675 5.4099 8.08675 5.29644V3.49638C8.08675 3.38268 8.18058 3.29042 8.29565 3.29042C8.41072 3.29042 8.50455 3.38293 8.50455 3.49638V5.29644C8.50455 5.41014 8.41072 5.5024 8.29565 5.5024Z" fill="#F6AE24"/>
<path d="M8.46181 5.29619V3.49613C8.46181 3.40562 8.38745 3.33256 8.2959 3.33256C8.20435 3.33256 8.12999 3.40587 8.12999 3.49613V5.29619C8.12999 5.38671 8.20435 5.45977 8.2959 5.45977C8.38745 5.45977 8.46181 5.38646 8.46181 5.29619Z" fill="#F6AE24"/>
<path d="M6.304 5.5024C6.18867 5.5024 6.09509 5.4099 6.09509 5.29644V2.45236C6.09509 2.33865 6.18892 2.24639 6.304 2.24639C6.41907 2.24639 6.5129 2.3389 6.5129 2.45236V5.29644C6.5129 5.41014 6.41907 5.5024 6.304 5.5024Z" fill="#F6AE24"/>
<path d="M6.47016 5.29619V2.45211C6.47016 2.36159 6.3958 2.28853 6.30425 2.28853C6.2127 2.28853 6.13834 2.36184 6.13834 2.45211V5.29619C6.13834 5.38671 6.2127 5.45977 6.30425 5.45977C6.3958 5.45977 6.47016 5.38646 6.47016 5.29619Z" fill="#F6AE24"/>
<path d="M5.29236 5.5024C5.17704 5.5024 5.08346 5.4099 5.08346 5.29644V1.70406C5.08346 1.59035 5.17729 1.49809 5.29236 1.49809C5.40744 1.49809 5.50126 1.5906 5.50126 1.70406V5.29619C5.50126 5.40989 5.40744 5.5024 5.29236 5.5024Z" fill="#F6AE24"/>
<path d="M5.45852 5.29619V1.70406C5.45852 1.61354 5.38417 1.54048 5.29261 1.54048C5.20106 1.54048 5.12671 1.61379 5.12671 1.70406V5.29619C5.12671 5.38671 5.20106 5.45977 5.29261 5.45977C5.38417 5.45977 5.45852 5.38646 5.45852 5.29619Z" fill="#F6AE24"/>
</svg>
