<svg width="70" height="75" viewBox="0 0 70 75" fill="none" xmlns="http://www.w3.org/2000/svg">
<rect width="70" height="75" fill="white"/>
<path d="M29.399 68.3895C28.9387 68.3895 28.5671 68.0173 28.5671 67.5563V6.4604C28.5671 5.99937 28.9387 5.6272 29.399 5.6272C29.8594 5.6272 30.231 5.99937 30.231 6.4604V67.5563C30.231 68.0173 29.8594 68.3895 29.399 68.3895Z" fill="black"/>
<path d="M65.3949 72H5.60513C3.61399 72 2 70.3836 2 68.3895V5.61054C2 3.61641 3.61399 2 5.60513 2H65.3949C67.386 2 69 3.61641 69 5.61054V68.3895C69 70.3836 67.386 72 65.3949 72ZM5.60513 3.6664C4.53469 3.6664 3.66391 4.53849 3.66391 5.61054V68.3895C3.66391 69.4615 4.53469 70.3336 5.60513 70.3336H65.3949C66.4653 70.3336 67.3361 69.4615 67.3361 68.3895V5.61054C67.3361 4.53849 66.4653 3.6664 65.3949 3.6664H5.60513Z" fill="black"/>
<path d="M64.1137 5.61609H6.88634C6.09876 5.61609 5.46093 6.25488 5.46093 7.04364V66.9508C5.46093 67.7396 6.09876 68.3783 6.88634 68.3783H29.3214C29.3214 68.3783 29.3713 68.3839 29.3935 68.3839C29.4156 68.3839 29.4434 68.3783 29.4656 68.3783H64.1026C64.8902 68.3783 65.528 67.7396 65.528 66.9508V7.04364C65.528 6.25488 64.8902 5.61609 64.1026 5.61609H64.1137ZM28.5671 66.7119H7.12483V50.4201H28.5671V66.7119ZM28.5671 48.7592H7.12483V26.3572H28.5671V48.7592ZM28.5671 24.6853H7.12483V7.2825H28.5671V24.6853ZM63.8752 66.7119H30.231V17.8364H63.8752V66.7119ZM63.8752 16.17H30.231V7.28805H63.8752V16.17Z" fill="black"/>
<path d="M26.7201 20.036C26.7201 18.5696 25.5276 17.3753 24.0634 17.3753H11.6285C10.1642 17.3753 8.97732 18.5585 8.97177 20.0194C8.97177 20.7081 9.23245 21.3691 9.70944 21.8635C8.69445 22.9245 8.73328 24.602 9.79263 25.6185C10.2863 26.0962 10.9463 26.3572 11.634 26.3572H24.069C25.5332 26.3572 26.7201 25.1797 26.7257 23.7132C26.7257 23.0244 26.465 22.3634 25.988 21.8691C26.4594 21.3747 26.7257 20.7248 26.7257 20.0416L26.7201 20.036ZM11.6285 19.0362H24.0634C24.6125 19.0251 25.0673 19.4583 25.0784 20.0083C25.0895 20.5582 24.6569 21.0136 24.1078 21.0248C24.0911 21.0248 24.0745 21.0248 24.0634 21.0248H11.6285C11.0794 21.0136 10.6468 20.5582 10.6579 20.0083C10.669 19.475 11.096 19.0473 11.6285 19.0362ZM24.0579 24.6853H11.6229C11.0738 24.6742 10.6412 24.2187 10.6523 23.6688C10.6634 23.1355 11.0905 22.7078 11.6229 22.6967H24.0579C24.607 22.6856 25.0618 23.1189 25.0728 23.6688C25.0839 24.2187 24.6513 24.6742 24.1022 24.6853C24.0856 24.6853 24.069 24.6853 24.0579 24.6853Z" fill="black"/>
<path d="M26.1433 42.2769C27.1583 41.216 27.1195 39.5385 26.0601 38.522C25.5665 38.0443 24.9065 37.7832 24.2187 37.7832H11.7838C10.3195 37.7832 9.13262 38.9608 9.12707 40.4272C9.12707 41.116 9.38775 41.777 9.86474 42.2714C8.88303 43.2934 8.88303 44.9099 9.86474 45.9264C8.84975 46.9873 8.88858 48.6648 9.94793 49.6813C10.4416 50.1535 11.1016 50.4201 11.7893 50.4201H24.2243C25.6885 50.4201 26.8754 49.2369 26.881 47.7705C26.881 47.0817 26.6203 46.4263 26.1433 45.9264C27.125 44.9043 27.125 43.2879 26.1433 42.2714V42.2769ZM10.7965 44.1044C10.7965 43.5545 11.2402 43.1101 11.7893 43.1101H24.2243C24.7733 43.1213 25.206 43.5767 25.1949 44.1266C25.1838 44.6599 24.7567 45.0876 24.2243 45.0987H11.7893C11.2402 45.0987 10.7965 44.6543 10.7965 44.1044ZM11.7893 39.4496H24.2243C24.7733 39.4607 25.206 39.9162 25.1949 40.4661C25.1838 40.9994 24.7567 41.4271 24.2243 41.4382H11.7893C11.2402 41.4493 10.7854 41.016 10.7743 40.4661C10.7632 39.9162 11.1959 39.4607 11.7449 39.4496C11.7616 39.4496 11.7782 39.4496 11.7893 39.4496ZM24.2243 48.7537H11.7893C11.2402 48.7537 10.7965 48.3093 10.7965 47.7594C10.7965 47.2095 11.2402 46.7651 11.7893 46.7651H24.2243C24.7733 46.7651 25.2171 47.2095 25.2171 47.7594C25.2171 48.3093 24.7733 48.7537 24.2243 48.7537Z" fill="black"/>
<path d="M62.6383 33.795C62.1946 32.0786 61.0077 27.907 59.5934 26.3461C58.7614 25.3741 57.7298 24.5853 56.5762 24.0354C56.0437 23.791 55.4336 23.7965 54.9067 24.0576C54.169 23.4688 53.3537 22.7856 52.7824 22.2635C53.032 21.908 53.2539 21.5358 53.448 21.147C54.5906 18.8362 54.3853 16.8588 52.9211 15.9867C52.1668 15.5367 51.2406 15.4645 50.4252 15.7978C49.6765 16.1033 49.1163 16.7477 48.9166 17.5309C48.8057 17.9752 49.0719 18.4307 49.5156 18.5418C49.9594 18.6529 50.4142 18.3863 50.5251 17.9419C50.5972 17.6642 50.7913 17.442 51.0575 17.3365C51.3903 17.2031 51.7619 17.2365 52.067 17.4198C52.8435 17.8864 52.4885 19.3195 51.9505 20.4137C51.6898 20.9248 51.3792 21.408 51.0243 21.858C50.3975 22.6523 49.7042 23.3911 48.9555 24.0743C48.4618 23.9187 47.9294 23.9632 47.469 24.2076C47.3415 24.2742 47.1917 24.352 47.0253 24.4353C46.7536 24.5742 46.4263 24.7408 46.088 24.9297C45.7108 24.2631 45.0065 23.8576 44.2411 23.8576H43.3758C42.2832 23.1244 41.4235 22.5023 40.8744 22.0635C41.1684 21.7135 41.418 21.3358 41.6287 20.9303C42.799 18.6085 42.6326 16.7643 41.1628 15.87C40.3364 15.4034 39.3325 15.3868 38.4895 15.8256C37.652 16.2366 37.0807 17.0476 36.9864 17.9752C36.9421 18.4307 37.2748 18.8418 37.7352 18.8862C38.19 18.9306 38.6004 18.5974 38.6448 18.1363C38.6892 17.7753 38.9166 17.4642 39.2438 17.3142C39.571 17.1309 39.9704 17.1254 40.3087 17.292C41.2017 17.8364 40.4973 19.4917 40.1478 20.1804C39.865 20.6859 39.5156 21.1525 39.1051 21.5636C38.2843 22.3968 37.4024 23.1689 36.454 23.8576H35.7108C34.8067 23.8576 34.0025 24.4242 33.6974 25.2796C32.3108 29.3346 31.7174 33.6228 31.9559 37.8999C32.089 39.844 32.2665 44.6988 32.3441 56.7802V56.9302C32.3441 57.5967 32.8156 58.1689 33.47 58.2911C34.0857 58.3966 34.7124 58.4466 35.3392 58.4355C36.1822 58.4355 37.0197 58.3744 37.8572 58.2577C38.4895 58.1578 38.9776 57.6356 39.0275 56.9968L39.7485 48.1927L40.3919 57.0357C40.4307 57.6523 40.8744 58.1689 41.479 58.3022C42.9432 58.5021 44.4296 58.4855 45.8883 58.2522C46.5705 58.1689 47.0919 57.6078 47.1141 56.9191L47.1252 56.6024C47.1751 55.0916 47.286 51.6032 47.4191 47.9816C48.606 48.076 49.9704 48.126 51.4624 48.126C53.8141 48.126 56.4652 48.0094 59.1441 47.7705C59.6045 47.7316 59.9428 47.3261 59.8984 46.8651L58.9722 36.7445C58.95 36.489 59.1164 36.2612 59.366 36.2057C60.2478 36.0446 61.102 35.7669 61.9062 35.378C62.4886 35.0947 62.7936 34.4393 62.6328 33.8061L62.6383 33.795ZM51.7619 23.5744C52.2777 24.0409 52.9045 24.5631 53.4203 24.9852C52.4608 25.4518 51.3459 25.4629 50.3753 25.0186C50.7913 24.6186 51.2794 24.1298 51.7619 23.5744ZM39.743 23.2744C39.9537 23.4466 40.1978 23.6355 40.4862 23.8521H39.1107C39.3325 23.6577 39.5488 23.4633 39.743 23.2744ZM45.4668 56.5413V56.6136C44.3353 56.7746 43.1873 56.808 42.0447 56.7024L40.6748 37.9443C40.6748 37.9054 40.6803 37.8721 40.6748 37.8332L40.4973 35.1281C40.4917 35.0059 40.4529 34.8837 40.3919 34.7781L39.1495 32.5674C38.9166 32.1619 38.4063 32.0175 38.0014 32.2452C37.6021 32.4618 37.4468 32.9618 37.6631 33.3617C37.6631 33.3617 37.6686 33.3728 37.6742 33.3784L38.8223 35.4225L38.9554 37.4721L37.3913 56.6358C36.2709 56.7913 35.1395 56.808 34.0136 56.6858C33.9304 44.6155 33.7529 39.744 33.6198 37.7777C33.3979 33.7227 33.9581 29.6623 35.2726 25.824C35.3392 25.6351 35.5166 25.5129 35.7163 25.5185H44.2522C44.4518 25.5185 44.6293 25.6462 44.6959 25.8351L44.8623 26.385C45.9937 30.2455 46.4596 34.2671 46.2433 38.2831C46.1157 39.8884 45.9715 42.6713 45.7996 47.0317C45.6443 50.9644 45.5223 54.9083 45.4668 56.5413ZM59.0498 34.5615C57.9627 34.7781 57.2195 35.7835 57.3249 36.8889L58.1735 46.1708C54.6183 46.4818 51.052 46.5263 47.4912 46.3041C47.6521 42.4158 47.7852 39.8995 47.9017 38.4109C48.1291 34.406 47.702 30.3955 46.6315 26.5294C47.0364 26.2906 47.4413 26.0851 47.7907 25.9073C47.9738 25.8129 48.1346 25.7351 48.2677 25.6629C48.3731 25.6129 48.4951 25.6296 48.5839 25.7073C48.606 25.724 48.6282 25.7462 48.6504 25.7684C50.2311 27.5182 53.4092 27.4349 55.5834 25.5907C55.6666 25.5185 55.7775 25.5018 55.8773 25.5518C56.8313 26.0129 57.6743 26.6628 58.3621 27.4737C59.2828 28.4958 60.2978 31.462 60.9689 33.9838C60.3588 34.256 59.7154 34.456 59.0554 34.5726L59.0498 34.5615Z" fill="black"/>
<path d="M17.3079 66.2509C17.1138 64.9233 17.0639 63.5791 17.1526 62.2349C17.1582 61.9683 17.1471 61.7072 17.1138 61.4406C16.9252 59.7075 15.8936 58.4466 14.5459 58.3022C13.5808 58.18 12.6268 58.6132 12.0888 59.4298C11.6174 60.113 11.3512 60.924 11.329 61.7572C11.3123 61.9794 11.3068 62.2127 11.2957 62.446C11.2957 63.0125 11.2402 63.5736 11.1459 64.129C10.8908 65.1955 10.68 66.0343 10.5137 66.612C10.3084 67.3507 10.7355 68.1173 11.4732 68.3228C11.5952 68.3561 11.7228 68.3728 11.8503 68.3728H16.0046C16.77 68.3728 17.3911 67.7451 17.3911 66.9786C17.3911 66.923 17.3911 66.8675 17.38 66.8119C17.3523 66.6064 17.3246 66.4287 17.3024 66.2454L17.3079 66.2509ZM15.0228 66.712C15.0228 66.0398 15.0894 65.3733 15.217 64.7178C15.3168 64.2679 15.0284 63.8235 14.5791 63.7235C14.1299 63.6236 13.6862 63.9124 13.5863 64.3623C13.431 65.1344 13.3534 65.9232 13.3534 66.712H12.2108C12.3661 66.1398 12.5492 65.4011 12.771 64.4845C12.8875 63.8291 12.9485 63.1681 12.9541 62.5071C12.9596 62.2904 12.9707 62.0794 12.9818 61.8794C12.9818 61.3628 13.1371 60.8518 13.4255 60.4241C13.6141 60.0908 13.9968 59.9075 14.3739 59.9741C14.8121 60.0186 15.339 60.5629 15.4555 61.6516C15.4776 61.8349 15.4887 62.0238 15.4832 62.2071C15.3889 63.6458 15.4444 65.09 15.6551 66.5175C15.6662 66.5842 15.6773 66.6564 15.6884 66.7231H15.0228V66.712Z" fill="black"/>
<path d="M25.1949 66.612C25.0285 66.0287 24.8177 65.1955 24.5681 64.1624C24.4683 63.5958 24.4184 63.0181 24.4128 62.446C24.4073 62.2071 24.3962 61.9794 24.3796 61.7516C24.3574 60.9184 24.0967 60.113 23.6197 59.4298C23.0817 58.6132 22.1222 58.1744 21.1516 58.3022C19.8094 58.4466 18.7833 59.7075 18.5947 61.4239C18.5614 61.6905 18.5503 61.9627 18.5559 62.2349C18.6446 63.5736 18.5947 64.9178 18.4006 66.2454C18.3728 66.4231 18.3451 66.6064 18.3174 66.8119C18.2231 67.5729 18.7666 68.2673 19.5265 68.3617C19.582 68.3672 19.6374 68.3728 19.6929 68.3728H23.8471C24.6125 68.3728 25.2337 67.7507 25.2337 66.9841C25.2337 66.8564 25.2171 66.7286 25.1838 66.6064L25.1949 66.612ZM22.3551 66.712C22.3551 65.9232 22.2775 65.1344 22.1222 64.3623C22.0224 63.9124 21.5786 63.6291 21.1294 63.7235C20.6801 63.8235 20.3973 64.2679 20.4916 64.7178C20.6247 65.3733 20.6912 66.0398 20.6857 66.712H20.0146C20.0257 66.6397 20.0368 66.5731 20.0478 66.5064C20.2531 65.0789 20.3141 63.6402 20.2198 62.2016C20.2198 62.0071 20.2198 61.8183 20.2475 61.6294C20.364 60.5518 20.8909 60.013 21.318 59.9686C21.7007 59.9019 22.0834 60.0797 22.2775 60.4185C22.5659 60.8462 22.7156 61.3517 22.7156 61.8683C22.7323 62.0738 22.7378 62.2849 22.7434 62.5015C22.7489 63.1792 22.8155 63.8513 22.9375 64.5179C23.1483 65.4066 23.3368 66.1454 23.4921 66.712H22.3496H22.3551Z" fill="black"/>
</svg>
