<svg width="10" height="7" viewBox="0 0 10 7" fill="none" xmlns="http://www.w3.org/2000/svg">
<path d="M3.80223 6.99963L3.28022 6.48572L2.75873 6.99963H0.312848C0.140364 6.99963 0 6.86149 0 6.69144L0 0.30808C0 0.138023 0.140364 -0.000366211 0.312848 -0.000366211L2.75847 -0.000366211L3.27997 0.514043L3.80223 -0.000366211L9.68741 -0.000366211C9.85964 -0.000366211 10 0.138023 10 0.30808V6.69144C10 6.86124 9.85989 6.99963 9.68741 6.99963L3.80223 6.99963ZM9.37456 6.38324V0.616525L4.0612 0.616525L3.28022 1.38627L2.49975 0.616525L0.625696 0.616525L0.625696 6.38324H2.49949L3.27997 5.613L4.06095 6.38324L9.37456 6.38324Z" fill="#F6AE24"/>
<path d="M9.68741 0.0420233L3.82018 0.0420233L3.28048 0.573887L2.74077 0.0420233L0.312848 0.0420233C0.163885 0.0420233 0.0429944 0.160963 0.0429944 0.30808L0.0429944 6.69144C0.0429944 6.8383 0.163885 6.95724 0.312848 6.95724H2.74077L3.28022 6.42588L3.81993 6.95724L9.68715 6.95724C9.83611 6.95724 9.95675 6.8383 9.95675 6.69144V0.30808C9.95675 0.161213 9.83637 0.0420233 9.68741 0.0420233ZM9.41755 6.42563L4.04325 6.42563L3.28022 5.67284L2.51745 6.42563H0.582701L0.582701 0.573887L2.51745 0.573887L3.28022 1.32593L4.04325 0.573887L9.41755 0.573887V6.42563Z" fill="#F6AE24"/>
<path d="M3.28022 2.21236C3.10799 2.21236 2.96763 2.07398 2.96763 1.90392C2.96763 1.73386 3.10774 1.59547 3.28022 1.59547C3.45271 1.59547 3.59307 1.73386 3.59307 1.90392C3.59307 2.07398 3.45271 2.21236 3.28022 2.21236Z" fill="#F6AE24"/>
<path d="M3.28022 1.63786C3.13177 1.63786 3.01062 1.7568 3.01062 1.90392C3.01062 2.05104 3.13177 2.16998 3.28022 2.16998C3.42868 2.16998 3.55008 2.05104 3.55008 1.90392C3.55008 1.7568 3.42969 1.63786 3.28022 1.63786Z" fill="#F6AE24"/>
<path d="M3.28022 3.27609C3.10799 3.27609 2.96763 3.1377 2.96763 2.96765C2.96763 2.79759 3.10774 2.6592 3.28022 2.6592C3.45271 2.6592 3.59307 2.79759 3.59307 2.96765C3.59307 3.1377 3.45271 3.27609 3.28022 3.27609Z" fill="#F6AE24"/>
<path d="M3.28022 2.70184C3.13177 2.70184 3.01062 2.82078 3.01062 2.9679C3.01062 3.11501 3.13177 3.23395 3.28022 3.23395C3.42868 3.23395 3.55008 3.11476 3.55008 2.9679C3.55008 2.82103 3.42969 2.70184 3.28022 2.70184Z" fill="#F6AE24"/>
<path d="M3.28022 4.34007C3.10799 4.34007 2.96763 4.20193 2.96763 4.03187C2.96763 3.86181 3.10774 3.72318 3.28022 3.72318C3.45271 3.72318 3.59307 3.86157 3.59307 4.03187C3.59307 4.20218 3.45271 4.34007 3.28022 4.34007Z" fill="#F6AE24"/>
<path d="M3.28022 3.76557C3.13177 3.76557 3.01062 3.88451 3.01062 4.03187C3.01062 4.17924 3.13177 4.29768 3.28022 4.29768C3.42868 4.29768 3.55008 4.17849 3.55008 4.03187C3.55008 3.88525 3.42969 3.76557 3.28022 3.76557Z" fill="#F6AE24"/>
<path d="M3.28022 5.40379C3.10799 5.40379 2.96763 5.26565 2.96763 5.0956C2.96763 4.92554 3.10774 4.7874 3.28022 4.7874C3.45271 4.7874 3.59307 4.92554 3.59307 5.0956C3.59307 5.26565 3.45271 5.40379 3.28022 5.40379Z" fill="#F6AE24"/>
<path d="M3.28022 4.82979C3.13177 4.82979 3.01062 4.94873 3.01062 5.0956C3.01062 5.24246 3.13177 5.3614 3.28022 5.3614C3.42868 5.3614 3.55008 5.24246 3.55008 5.0956C3.55008 4.94873 3.42969 4.82979 3.28022 4.82979Z" fill="#F6AE24"/>
<path d="M7.29995 5.50204C7.18462 5.50204 7.09105 5.40953 7.09105 5.29607V1.70369C7.09105 1.58999 7.18488 1.49773 7.29995 1.49773C7.41502 1.49773 7.50885 1.59024 7.50885 1.70369V5.29583C7.50885 5.40953 7.41502 5.50204 7.29995 5.50204Z" fill="#F6AE24"/>
<path d="M7.46586 5.29583V1.70369C7.46586 1.61318 7.3915 1.54012 7.29995 1.54012C7.2084 1.54012 7.13404 1.61343 7.13404 1.70369V5.29583C7.13404 5.38634 7.2084 5.4594 7.29995 5.4594C7.3915 5.4594 7.46586 5.38609 7.46586 5.29583Z" fill="#F6AE24"/>
<path d="M8.29565 5.50204C8.18032 5.50204 8.08675 5.40953 8.08675 5.29607V3.49602C8.08675 3.38231 8.18058 3.29006 8.29565 3.29006C8.41072 3.29006 8.50455 3.38256 8.50455 3.49602V5.29607C8.50455 5.40978 8.41072 5.50204 8.29565 5.50204Z" fill="#F6AE24"/>
<path d="M8.46181 5.29583V3.49577C8.46181 3.40525 8.38745 3.33219 8.2959 3.33219C8.20435 3.33219 8.12999 3.4055 8.12999 3.49577V5.29583C8.12999 5.38634 8.20435 5.4594 8.2959 5.4594C8.38745 5.4594 8.46181 5.38609 8.46181 5.29583Z" fill="#F6AE24"/>
<path d="M6.304 5.50204C6.18867 5.50204 6.09509 5.40953 6.09509 5.29607V2.45199C6.09509 2.33829 6.18892 2.24603 6.304 2.24603C6.41907 2.24603 6.5129 2.33854 6.5129 2.45199V5.29607C6.5129 5.40978 6.41907 5.50204 6.304 5.50204Z" fill="#F6AE24"/>
<path d="M6.47016 5.29583V2.45174C6.47016 2.36123 6.3958 2.28817 6.30425 2.28817C6.2127 2.28817 6.13834 2.36148 6.13834 2.45174V5.29583C6.13834 5.38634 6.2127 5.4594 6.30425 5.4594C6.3958 5.4594 6.47016 5.38609 6.47016 5.29583Z" fill="#F6AE24"/>
<path d="M5.29236 5.50204C5.17704 5.50204 5.08346 5.40953 5.08346 5.29607V1.70369C5.08346 1.58999 5.17729 1.49773 5.29236 1.49773C5.40744 1.49773 5.50126 1.59024 5.50126 1.70369V5.29583C5.50126 5.40953 5.40744 5.50204 5.29236 5.50204Z" fill="#F6AE24"/>
<path d="M5.45852 5.29583V1.70369C5.45852 1.61318 5.38417 1.54012 5.29261 1.54012C5.20106 1.54012 5.12671 1.61343 5.12671 1.70369V5.29583C5.12671 5.38634 5.20106 5.4594 5.29261 5.4594C5.38417 5.4594 5.45852 5.38609 5.45852 5.29583Z" fill="#F6AE24"/>
</svg>
