<svg width="70" height="75" viewBox="0 0 70 75" fill="none" xmlns="http://www.w3.org/2000/svg">
<rect width="70" height="75" fill="white"/>
<path d="M34.7083 6.95349C34.7083 6.5186 35.0646 6.16279 35.5 6.16279C35.9354 6.16279 36.2917 6.5186 36.2917 6.95349C36.2917 7.38837 35.9354 7.74419 35.5 7.74419C35.0646 7.74419 34.7083 7.38837 34.7083 6.95349ZM33.9167 54.3953C33.9167 56.5777 32.1433 58.3488 29.9583 58.3488C27.7733 58.3488 26 56.5777 26 54.3953C26 52.213 27.7733 50.4419 29.9583 50.4419C32.1433 50.4419 33.9167 52.213 33.9167 54.3953ZM32.3333 54.3953C32.3333 53.0828 31.2725 52.0233 29.9583 52.0233C28.6442 52.0233 27.5833 53.0828 27.5833 54.3953C27.5833 55.7079 28.6442 56.7674 29.9583 56.7674C31.2725 56.7674 32.3333 55.7079 32.3333 54.3953ZM41.8333 54.3953C41.8333 54.8302 42.1896 55.186 42.625 55.186H59.25C59.6854 55.186 60.0417 54.8302 60.0417 54.3953C60.0417 53.9605 59.6854 53.6046 59.25 53.6046H42.625C42.1896 53.6046 41.8333 53.9605 41.8333 54.3953ZM55.2917 56.7674H42.625C42.1896 56.7674 41.8333 57.1233 41.8333 57.5581C41.8333 57.993 42.1896 58.3488 42.625 58.3488H55.2917C55.7271 58.3488 56.0833 57.993 56.0833 57.5581C56.0833 57.1233 55.7271 56.7674 55.2917 56.7674ZM41.0417 40.1628C44.2004 40.1628 46.9475 42.3056 47.7075 45.3656L48.135 47.0893C48.2379 47.5163 47.9846 47.9433 47.5571 48.046C47.4937 48.0619 47.4304 48.0698 47.3671 48.0698H34.7004C34.265 48.0698 33.9088 47.714 33.9088 47.2791C33.9088 47.2158 33.9167 47.1526 33.9325 47.0893L34.36 45.3656C35.12 42.3056 37.875 40.1628 41.0338 40.1628H41.0417ZM41.0417 41.7442C38.6113 41.7442 36.4975 43.3967 35.9037 45.7451L35.7217 46.4884H46.3617L46.1796 45.7451C45.5938 43.3888 43.4721 41.7363 41.0417 41.7442ZM41.0417 30.6744C43.2267 30.6744 45 32.4456 45 34.6279C45 36.8102 43.2267 38.5814 41.0417 38.5814C38.8567 38.5814 37.0833 36.8102 37.0833 34.6279C37.0833 32.4456 38.8567 30.6744 41.0417 30.6744ZM41.0417 32.2558C39.7275 32.2558 38.6667 33.3153 38.6667 34.6279C38.6667 35.9405 39.7275 37 41.0417 37C42.3558 37 43.4167 35.9405 43.4167 34.6279C43.4167 33.3153 42.3558 32.2558 41.0417 32.2558ZM36.2917 28.3023H23.625C23.1896 28.3023 22.8333 27.9465 22.8333 27.5116C22.8333 27.4484 22.8413 27.3851 22.8571 27.3219L23.2846 25.5981C24.2029 21.9214 27.9396 19.6837 31.6208 20.6009C34.0829 21.2177 36.0067 23.1391 36.6242 25.5981L37.0517 27.3219C37.1546 27.7488 36.9012 28.1758 36.4737 28.2786C36.4104 28.2944 36.3471 28.3023 36.2838 28.3023H36.2917ZM35.2783 26.7209L35.0963 25.9777C34.3838 23.147 31.5179 21.4233 28.6758 22.1349C26.7758 22.6093 25.2954 24.0879 24.8283 25.9777L24.6463 26.7209H35.2862H35.2783ZM26 14.8605C26 12.6781 27.7733 10.907 29.9583 10.907C32.1433 10.907 33.9167 12.6781 33.9167 14.8605C33.9167 17.0428 32.1433 18.814 29.9583 18.814C27.7733 18.814 26 17.0428 26 14.8605ZM27.5833 14.8605C27.5833 16.173 28.6442 17.2326 29.9583 17.2326C31.2725 17.2326 32.3333 16.173 32.3333 14.8605C32.3333 13.5479 31.2725 12.4884 29.9583 12.4884C28.6442 12.4884 27.5833 13.5479 27.5833 14.8605ZM29.1667 34.6279C29.1667 34.193 28.8104 33.8372 28.375 33.8372H11.75C11.3146 33.8372 10.9583 34.193 10.9583 34.6279C10.9583 35.0628 11.3146 35.4186 11.75 35.4186H28.375C28.8104 35.4186 29.1667 35.0628 29.1667 34.6279ZM29.1667 37.7907C29.1667 37.3558 28.8104 37 28.375 37H15.7083C15.2729 37 14.9167 37.3558 14.9167 37.7907C14.9167 38.2256 15.2729 38.5814 15.7083 38.5814H28.375C28.8104 38.5814 29.1667 38.2256 29.1667 37.7907ZM55.2917 21.9767V50.4419H61.625C62.9392 50.4419 64 51.5014 64 52.814V59.1395C64 60.4521 62.9392 61.5116 61.625 61.5116H55.2917V67.8372C55.2917 69.5847 53.8746 71 52.125 71H18.875C17.1254 71 15.7083 69.5847 15.7083 67.8372V41.7442H9.375C8.06083 41.7442 7 40.6847 7 39.3721V33.0465C7 31.734 8.06083 30.6744 9.375 30.6744H15.7083V6.16279C15.7083 4.41535 17.1254 3 18.875 3H52.125C53.8746 3 55.2917 4.41535 55.2917 6.16279V10.907H61.625C62.9392 10.907 64 11.9665 64 13.2791V19.6047C64 20.9172 62.9392 21.9767 61.625 21.9767H55.2917ZM61.625 12.4884H40.25C39.8146 12.4884 39.4583 12.8442 39.4583 13.2791V22.1586L42.2213 20.506C42.3479 20.4349 42.4825 20.3953 42.625 20.3953H61.625C62.0604 20.3953 62.4167 20.0395 62.4167 19.6047V13.2791C62.4167 12.8442 62.0604 12.4884 61.625 12.4884ZM50.5417 21.9767H42.8467L39.0783 24.2381C38.8329 24.3884 38.5321 24.3884 38.2787 24.246C38.0333 24.1037 37.875 23.8428 37.875 23.5581V13.2791C37.875 11.9665 38.9358 10.907 40.25 10.907H50.5417V7.74419H39.3792C38.9438 9.88698 36.8538 11.2628 34.7083 10.8279C33.1488 10.5116 31.9375 9.29395 31.6208 7.74419H20.4583V30.6744H30.75C32.0642 30.6744 33.125 31.734 33.125 33.0465V43.3256C33.125 43.6102 32.9746 43.8712 32.7213 44.0135C32.4758 44.1558 32.1671 44.1558 31.9217 44.0056L28.1533 41.7442H20.4583V66.2558H23.0075L23.2925 65.133C24.2108 61.4563 27.9475 59.2186 31.6287 60.1358C34.0908 60.7526 36.0146 62.674 36.6321 65.133L36.9092 66.2558H50.5417V61.5116H42.8467L39.0783 63.773C38.8329 63.9233 38.5242 63.9233 38.2787 63.7809C38.0333 63.6386 37.875 63.3777 37.875 63.093V52.814C37.875 51.5014 38.9358 50.4419 40.25 50.4419H50.5417V21.9767ZM35.0963 65.5126C34.3838 62.6819 31.5179 60.9581 28.6758 61.6698C26.7758 62.1442 25.2954 63.6228 24.8283 65.5126L24.6463 66.2558H35.2862L35.1042 65.5126H35.0963ZM17.2917 30.6744H18.875V6.95349C18.875 6.5186 19.2312 6.16279 19.6667 6.16279H32.3333C32.7687 6.16279 33.125 6.5186 33.125 6.95349C33.125 7.58605 33.3783 8.18698 33.8217 8.63767C34.7637 9.52326 36.2442 9.52326 37.1863 8.62977C37.6296 8.18698 37.875 7.58605 37.875 6.95349C37.875 6.5186 38.2313 6.16279 38.6667 6.16279H51.3333C51.7687 6.16279 52.125 6.5186 52.125 6.95349V10.907H53.7083V6.16279C53.7083 5.29302 52.9958 4.5814 52.125 4.5814H18.875C18.0042 4.5814 17.2917 5.29302 17.2917 6.16279V30.6744ZM9.375 40.1628H28.375C28.5175 40.1628 28.66 40.2023 28.7787 40.2735L31.5417 41.926V33.0465C31.5417 32.6116 31.1854 32.2558 30.75 32.2558H9.375C8.93958 32.2558 8.58333 32.6116 8.58333 33.0465V39.3721C8.58333 39.807 8.93958 40.1628 9.375 40.1628ZM53.7083 61.5116H52.125V67.0465C52.125 67.4814 51.7687 67.8372 51.3333 67.8372H19.6667C19.2312 67.8372 18.875 67.4814 18.875 67.0465V41.7442H17.2917V67.8372C17.2917 68.707 18.0042 69.4186 18.875 69.4186H52.125C52.9958 69.4186 53.7083 68.707 53.7083 67.8372V61.5116ZM61.625 52.0233H40.25C39.8146 52.0233 39.4583 52.3791 39.4583 52.814V61.6935L42.2213 60.0409C42.3479 59.9698 42.4825 59.9302 42.625 59.9302H61.625C62.0604 59.9302 62.4167 59.5744 62.4167 59.1395V52.814C62.4167 52.3791 62.0604 52.0233 61.625 52.0233ZM53.7083 21.9767H52.125V50.4419H53.7083V21.9767ZM41.8333 14.8605C41.8333 15.2953 42.1896 15.6512 42.625 15.6512H59.25C59.6854 15.6512 60.0417 15.2953 60.0417 14.8605C60.0417 14.4256 59.6854 14.0698 59.25 14.0698H42.625C42.1896 14.0698 41.8333 14.4256 41.8333 14.8605ZM55.2917 17.2326H42.625C42.1896 17.2326 41.8333 17.5884 41.8333 18.0233C41.8333 18.4581 42.1896 18.814 42.625 18.814H55.2917C55.7271 18.814 56.0833 18.4581 56.0833 18.0233C56.0833 17.5884 55.7271 17.2326 55.2917 17.2326Z" fill="black"/>
</svg>
