<svg width="70" height="75" viewBox="0 0 70 75" fill="none" xmlns="http://www.w3.org/2000/svg">
<g clip-path="url(#clip0_902_9292)">
<rect width="70" height="75" fill="white"/>
<path d="M12.4004 38.7446C12.1229 38.6126 11.9926 38.2972 12.0957 38.0099C12.4308 37.0828 12.8168 36.1574 13.2434 35.2613C14.7473 32.1015 16.7576 30.7815 18.886 29.3852C19.0878 29.253 19.2895 29.1209 19.4919 28.9855C19.6644 28.871 19.888 28.8548 20.076 28.9443L25.8434 31.6893C26.0314 31.7788 26.1606 31.9629 26.1798 32.1686C26.203 32.4115 26.2277 32.6513 26.252 32.8901C26.5098 35.424 26.7535 37.8159 25.2492 40.9764C24.823 41.8719 24.349 42.7553 23.8397 43.6004C23.6825 43.862 23.3548 43.9594 23.0774 43.8273L12.3985 38.7447L12.4004 38.7446ZM23.0953 42.5293C23.4821 41.8576 23.8465 41.1645 24.1786 40.4668C25.5418 37.6026 25.3244 35.4721 25.0732 33.0044C25.0601 32.8738 25.0466 32.742 25.033 32.6102L19.8738 30.1546C19.7627 30.228 19.653 30.3002 19.5425 30.3721C17.469 31.7332 15.6784 32.908 14.3151 35.7723C13.9827 36.4707 13.6745 37.1906 13.3976 37.9136L23.0953 42.5293Z" fill="black"/>
<path d="M19.5707 30.0095C19.2754 29.869 19.1487 29.5156 19.2883 29.2223L22.0169 23.4894C22.1565 23.1961 22.5107 23.0716 22.8059 23.2121L28.5734 25.9571C28.8686 26.0976 28.9953 26.451 28.8557 26.7444L26.1271 32.4772C25.9875 32.7706 25.6333 32.8951 25.3381 32.7545L19.5707 30.0095ZM25.3084 31.4347L27.5303 26.7664L22.8342 24.5312L20.6123 29.1996L25.3084 31.4347Z" fill="black"/>
<path d="M20.2976 28.4823C20.0023 28.3418 19.8756 27.9884 20.0152 27.695C20.1548 27.4017 20.509 27.2772 20.8042 27.4177L26.5717 30.1628C26.8669 30.3033 26.9936 30.6567 26.854 30.95C26.7144 31.2434 26.3602 31.3678 26.065 31.2273L20.2976 28.4823Z" fill="black"/>
<path d="M27.2383 26.6274C26.943 26.4869 26.8163 26.1335 26.9559 25.8401L27.8671 23.9257C28.0067 23.6324 28.3609 23.5079 28.6561 23.6484C28.9513 23.789 29.0781 24.1423 28.9384 24.4357L28.0273 26.3501C27.8877 26.6434 27.5335 26.7679 27.2383 26.6274Z" fill="black"/>
<path d="M23.1274 24.6708C22.8322 24.5303 22.7055 24.1769 22.8451 23.8836L23.7563 21.9692C23.8959 21.6758 24.2501 21.5514 24.5453 21.6919C24.8405 21.8324 24.9672 22.1858 24.8276 22.4791L23.9164 24.3935C23.7768 24.6868 23.4226 24.8113 23.1274 24.6708Z" fill="black"/>
<path d="M16.674 36.0979C16.6341 36.0789 16.5955 36.0551 16.5605 36.0276C16.3034 35.8241 16.2594 35.4515 16.4621 35.1972L20.7729 29.7818C20.9446 29.566 21.2407 29.4986 21.493 29.6187C21.5322 29.6374 21.5701 29.6608 21.6047 29.6872C21.8625 29.8911 21.9066 30.2637 21.7039 30.518L17.3931 35.9334C17.221 36.1499 16.926 36.2169 16.6751 36.0975L16.674 36.0979Z" fill="black"/>
<path d="M19.5567 37.4699C19.2614 37.3294 19.1347 36.976 19.2743 36.6827L22.1719 30.5947C22.3115 30.3014 22.6657 30.1769 22.9609 30.3174C23.2562 30.4579 23.3829 30.8113 23.2433 31.1046L20.3457 37.1926C20.2061 37.4859 19.8519 37.6104 19.5567 37.4699Z" fill="black"/>
<path d="M22.4393 38.8419C22.1884 38.7225 22.0547 38.4506 22.1139 38.1812L23.5984 31.4206C23.6679 31.1029 23.9845 30.9029 24.3038 30.9737C24.3473 30.9835 24.3893 30.9982 24.4293 31.0172C24.6771 31.1351 24.8143 31.4132 24.7561 31.6786L23.2717 38.4392C23.2021 38.7568 22.8855 38.9569 22.5662 38.8861C22.522 38.8759 22.4792 38.8609 22.4393 38.8419Z" fill="black"/>
<path d="M56.3871 41.5494L44.2529 35.7741L43.5531 37.2444L55.6873 43.0198L56.3871 41.5494Z" fill="black"/>
<path d="M59.8087 48.0887L42.3473 39.7778L41.6475 41.2482L59.1089 49.559L59.8087 48.0887Z" fill="black"/>
<path d="M48.9086 48.4913L40.1779 44.3359L39.478 45.8062L48.2087 49.9617L48.9086 48.4913Z" fill="black"/>
<path d="M64.9062 48.0009L69.3189 38.7296L67.0045 37.6281L68.4673 30.4L39.1791 24.3835L12.1716 11.5291L9.00391 18.1846L6.49412 17.6691L4.45753 27.7367L0.0448085 37.008L2.35918 38.1095L0.896742 45.3368L30.185 51.3534L57.1924 64.2078L60.3601 57.5522L62.8699 58.0678L64.9062 48.0009ZM7.36423 21.6296L7.776 19.5957L8.28274 19.6998L7.36423 21.6296ZM66.5392 31.6672L65.4803 36.9026L45.3258 27.3099L66.5392 31.6672ZM2.82411 44.0711L3.88301 38.8357L24.0376 48.4284L2.82411 44.0711ZM56.4117 62.0346L34.09 51.4104L35.0201 49.4563L33.5403 48.752L32.6102 50.7061L2.22371 36.2434L12.9516 13.7038L43.3381 28.1664L42.4749 29.9801L43.9547 30.6844L44.8179 28.8707L67.1396 39.4949L56.4117 62.0346ZM61.9991 54.1087L61.5873 56.1426L61.0806 56.0385L61.9991 54.1087Z" fill="black"/>
<path d="M43.0684 32.5466L41.5886 31.8423L40.4223 34.2926L41.9021 34.9969L43.0684 32.5466Z" fill="black"/>
<path d="M41.0637 36.7584L39.5839 36.0541L38.4177 38.5044L39.8975 39.2087L41.0637 36.7584Z" fill="black"/>
<path d="M39.0108 41.0717L37.531 40.3674L36.3648 42.8177L37.8446 43.522L39.0108 41.0717Z" fill="black"/>
<path d="M37.073 45.1431L35.5932 44.4387L34.427 46.8891L35.9068 47.5934L37.073 45.1431Z" fill="black"/>
</g>
<defs>
<clipPath id="clip0_902_9292">
<rect width="70" height="75" fill="white"/>
</clipPath>
</defs>
</svg>
