<svg width="75" height="72" viewBox="0 0 75 72" fill="none" xmlns="http://www.w3.org/2000/svg">
<path d="M13.2212 8.27962L14.99 15.6293L20.5663 45.9879L18.7975 46.5879C14.7502 47.9378 11.992 51.7477 11.992 56.0375C11.962 61.3772 16.1892 65.817 21.5256 65.997C23.2345 70.6768 28.3911 73.0767 33.038 71.3968C35.5563 70.4968 37.505 68.5169 38.4343 65.997H51.5356C53.1845 70.6768 58.3411 73.1367 63.0179 71.4868C67.6948 69.8368 70.1532 64.6771 68.5043 59.9973C66.8554 55.3175 61.6988 52.8576 57.0219 54.5075C54.4736 55.4075 52.435 57.4174 51.5356 59.9973H38.4343C36.6955 55.3475 31.509 52.9776 26.8621 54.7175C24.4337 55.6175 22.485 57.5674 21.5856 59.9973C19.517 59.8773 17.928 58.1074 17.988 56.0375C17.988 54.3275 19.0973 52.7976 20.7162 52.2576L24.4637 50.9977H65.956C67.425 50.9977 68.6842 49.9777 68.954 48.5378L74.95 15.5393C75.2498 13.9194 74.1705 12.3594 72.5516 12.0595C72.3717 12.0295 72.1618 11.9995 71.952 11.9995H20.3264L19.0373 6.80969C18.048 2.81987 14.4504 0 10.3131 0H2.998C1.3491 0 0 1.34994 0 2.99986C0 4.64979 1.3491 5.99973 2.998 5.99973H10.3131C11.6922 5.99973 12.8914 6.92969 13.2212 8.27962ZM59.96 59.9973C61.6089 59.9973 62.958 61.3472 62.958 62.9971C62.958 64.6471 61.6089 65.997 59.96 65.997C58.3111 65.997 56.962 64.6471 56.962 62.9971C56.962 61.3472 58.3111 59.9973 59.96 59.9973ZM29.98 59.9973C31.6289 59.9973 32.978 61.3472 32.978 62.9971C32.978 64.6471 31.6289 65.997 29.98 65.997C28.3311 65.997 26.982 64.6471 26.982 62.9971C26.982 61.3472 28.3311 59.9973 29.98 59.9973ZM68.3544 17.9992L63.4377 44.998H26.4723L21.5856 17.9992H68.3544Z" fill="#CCCCCC"/>
<path d="M32.978 38.9982C34.6269 38.9982 35.976 37.6483 35.976 35.9984V23.9989C35.976 22.349 34.6269 20.999 32.978 20.999C31.3291 20.999 29.98 22.349 29.98 23.9989V35.9984C29.98 37.6483 31.3291 38.9982 32.978 38.9982Z" fill="#CCCCCC"/>
<path d="M44.97 38.9982C46.6189 38.9982 47.968 37.6483 47.968 35.9984V23.9989C47.968 22.349 46.6189 20.999 44.97 20.999C43.3211 20.999 41.972 22.349 41.972 23.9989V35.9984C41.972 37.6483 43.3211 38.9982 44.97 38.9982Z" fill="#CCCCCC"/>
<path d="M56.962 38.9982C58.6109 38.9982 59.96 37.6483 59.96 35.9984V23.9989C59.96 22.349 58.6109 20.999 56.962 20.999C55.3131 20.999 53.964 22.349 53.964 23.9989V35.9984C53.964 37.6483 55.3131 38.9982 56.962 38.9982Z" fill="#CCCCCC"/>
</svg>
