<svg width="100" height="100" viewBox="0 0 100 100" fill="none" xmlns="http://www.w3.org/2000/svg">
<circle cx="20" cy="20" r="20" fill="#F6AE24"/>
<path d="M32.8695 79.849C32.5995 79.552 32.4735 79.156 32.5095 78.769L33.3555 70.291C33.5985 67.825 33.8145 65.278 33.9855 62.713C34.0305 61.957 34.6155 61.363 35.4345 61.399C36.1905 61.426 36.7935 62.038 36.7935 62.794C36.6135 65.494 36.4065 68.068 36.1545 70.57L35.4615 77.5H74.5395L73.8465 70.57C73.5945 68.068 73.3785 65.494 73.2075 62.902C73.1625 62.128 73.7385 61.453 74.5215 61.408C75.2955 61.354 75.9705 61.939 76.0155 62.722C76.1865 65.278 76.4025 67.834 76.6455 70.3L77.4915 78.778C77.5275 79.174 77.4015 79.57 77.1315 79.858C76.8615 80.155 76.4835 80.317 76.0875 80.317H33.9135C33.5175 80.317 33.1395 80.146 32.8695 79.858V79.849ZM42.3465 42.346C42.3465 37.432 46.9905 34.282 47.1885 34.147C47.6565 33.832 48.2775 33.832 48.7455 34.147C48.9435 34.282 53.5875 37.432 53.5875 42.346C53.5875 45.451 51.0675 47.971 47.9625 47.971C44.8575 47.971 42.3375 45.451 42.3375 42.346H42.3465ZM45.1545 42.346C45.1545 43.894 46.4145 45.154 47.9625 45.154C49.5105 45.154 50.7705 43.894 50.7705 42.346C50.7705 39.961 49.0155 38.044 47.9625 37.108C46.9005 38.044 45.1545 39.961 45.1545 42.346ZM60.6255 49.375C60.6255 45.739 64.0635 43.975 64.2165 43.894C64.6125 43.696 65.0805 43.696 65.4765 43.894C65.6205 43.966 69.0675 45.73 69.0675 49.375C69.0675 51.706 67.1775 53.596 64.8465 53.596C62.5155 53.596 60.6255 51.706 60.6255 49.375ZM63.4425 49.375C63.4425 50.149 64.0725 50.779 64.8465 50.779C65.6205 50.779 66.2505 50.149 66.2505 49.375C66.2505 48.187 65.4405 47.314 64.8465 46.837C64.2525 47.314 63.4425 48.178 63.4425 49.375ZM99.9645 55.351L89.8035 94.726C89.0025 97.831 86.2035 100 82.9905 100H27.0105C23.8065 100 20.9985 97.831 20.2065 94.726L10.0455 55.351C9.93753 54.928 10.0275 54.487 10.2975 54.136C10.5675 53.794 10.9725 53.587 11.4045 53.587H18.4335C19.0725 53.587 19.6215 54.01 19.7925 54.631L20.9265 58.852C22.3845 59.311 23.8965 59.554 25.4625 59.554C28.6395 59.554 31.6815 58.6 34.2825 56.8C34.3275 55.657 34.3815 54.514 34.4085 53.362L17.9925 47.89C17.2545 47.647 16.8585 46.846 17.1015 46.108L24.0315 25.327C25.1115 22.087 27.3345 19.351 30.2865 17.632L43.0395 10.189C43.1745 10.108 43.5075 10 43.7505 10H66.2505C66.4935 10 66.8265 10.108 66.9615 10.189L79.7145 17.632C82.6665 19.351 84.8895 22.087 85.9695 25.327L92.8995 46.108C93.1425 46.846 92.7465 47.638 92.0085 47.89L75.5925 53.362C75.6285 54.505 75.6645 55.648 75.7185 56.791C79.6425 59.5 84.5655 60.229 89.0745 58.834L90.2085 54.631C90.3705 54.019 90.9285 53.587 91.5675 53.587H98.5965C99.0285 53.587 99.4425 53.785 99.7035 54.136C99.9645 54.478 100.064 54.928 99.9555 55.351H99.9645ZM45.1545 14.221C45.1545 19.648 49.5735 24.067 55.0005 24.067C60.4275 24.067 64.8465 19.648 64.8465 14.221V12.817H45.1545V14.221ZM20.2155 45.676L34.4535 50.419C34.5345 43.984 34.3545 37.531 33.9045 31.195C33.8505 30.421 34.4355 29.746 35.2095 29.692C35.9925 29.647 36.6585 30.223 36.7125 30.997C37.2345 38.26 37.4055 45.676 37.2345 53.038C37.1985 54.469 37.1445 55.882 37.0815 57.295C39.5115 58.771 42.2745 59.554 45.1545 59.554C48.4125 59.554 51.5355 58.555 54.1815 56.665C54.6675 56.314 55.3245 56.314 55.8195 56.665C58.4655 58.555 61.5885 59.554 64.8465 59.554C67.7265 59.554 70.4895 58.771 72.9195 57.295C72.8565 55.882 72.8025 54.469 72.7665 53.038C72.5955 45.667 72.7665 38.251 73.2885 30.988C73.3425 30.214 73.9905 29.638 74.7915 29.683C75.5655 29.737 76.1505 30.412 76.0965 31.186C75.6465 37.522 75.4755 43.975 75.5475 50.41L89.7855 45.667L83.3055 26.218C82.4415 23.626 80.6595 21.439 78.3015 20.062L67.6635 13.861V14.23C67.6635 21.205 61.9845 26.884 55.0095 26.884C48.0345 26.884 42.3555 21.205 42.3555 14.23V13.861L31.7175 20.062C29.3595 21.439 27.5775 23.626 26.7135 26.218L20.2335 45.667L20.2155 45.676ZM21.7725 61.975L29.3595 90.154H80.6415L88.2285 61.966C87.0045 62.227 85.7535 62.362 84.5205 62.362C81.0825 62.362 77.6625 61.39 74.6925 59.5C71.7495 61.372 68.3655 62.362 64.8465 62.362C61.3275 62.362 57.9435 61.381 55.0005 59.5C52.0575 61.372 48.6735 62.362 45.1545 62.362C41.6355 62.362 38.2515 61.381 35.3085 59.5C32.3655 61.372 28.9815 62.362 25.4625 62.362C24.2025 62.362 22.9695 62.218 21.7635 61.966L21.7725 61.975ZM96.7785 56.404H92.6385L83.0805 91.927C82.9185 92.539 82.3605 92.971 81.7215 92.971H28.2795C27.6405 92.971 27.0915 92.548 26.9205 91.927L17.3625 56.404H13.2225L22.9245 94.024C23.4105 95.887 25.0845 97.192 27.0105 97.192H82.9815C84.9075 97.192 86.5815 95.887 87.0675 94.024L96.7785 56.404Z" fill="black"/>
</svg>
