<svg width="20" height="21" viewBox="0 0 20 21" fill="none" xmlns="http://www.w3.org/2000/svg">
<path d="M0.773994 11.8985C0.348297 11.8985 0 11.5626 0 11.135V5.53822C0 5.11827 0.348297 4.77467 0.773994 4.77467C1.19969 4.77467 1.54799 5.11827 1.54799 5.53822V11.135C1.54799 11.5549 1.19969 11.8985 0.773994 11.8985Z" fill="black"/>
<path d="M18.1579 21H1.84211C0.820433 21 0 20.183 0 19.1828V13.8456C0 13.418 0.348297 13.082 0.773994 13.082C1.19969 13.082 1.54799 13.4256 1.54799 13.8456V19.1828C1.54799 19.3431 1.67957 19.4729 1.84211 19.4729H18.1579C18.3204 19.4729 18.452 19.3431 18.452 19.1828V7.98919C18.452 7.82885 18.3204 7.69905 18.1579 7.69905H2.54644C1.13777 7.69905 0 6.57664 0 5.18698C0 3.79733 1.13777 2.67492 2.54644 2.67492H4.58204C5.00774 2.67492 5.35604 3.01852 5.35604 3.43847C5.35604 3.85842 5.00774 4.20201 4.58204 4.20201H2.54644C1.9969 4.20201 1.54799 4.64487 1.54799 5.19462C1.54799 5.45423 1.65635 5.69856 1.83437 5.88181C2.02012 6.06506 2.27554 6.16432 2.5387 6.17196H18.1502C19.1641 6.17196 19.9923 6.98895 19.9923 7.98919V19.1828C19.9923 20.1906 19.1718 21 18.1502 21H18.1579Z" fill="black"/>
<path d="M17.0975 7.00422C16.6718 7.00422 16.3235 6.66063 16.3235 6.24068V4.49216C16.3235 4.33181 16.1919 4.20201 16.0294 4.20201H13.87C13.4443 4.20201 13.096 3.85842 13.096 3.43847C13.096 3.01852 13.4443 2.67492 13.87 2.67492H16.0294C17.0433 2.67492 17.8715 3.49191 17.8715 4.49216V6.24068C17.8715 6.66063 17.5232 7.00422 17.0975 7.00422Z" fill="black"/>
<path d="M19.226 16.098H13.5526C11.9505 16.098 10.6502 14.8153 10.6502 13.2347C10.6502 11.6542 11.9505 10.3715 13.5526 10.3715H19.226C19.6517 10.3715 20 10.7151 20 11.135V15.3345C20 15.7544 19.6517 16.098 19.226 16.098ZM13.5449 11.8985C12.7941 11.8985 12.1904 12.4941 12.1904 13.2347C12.1904 13.9754 12.7941 14.571 13.5449 14.571H18.4443V11.8985H13.5449Z" fill="black"/>
<path d="M13.5449 13.9372C13.9382 13.9372 14.257 13.6227 14.257 13.2347C14.257 12.8468 13.9382 12.5323 13.5449 12.5323C13.1516 12.5323 12.8328 12.8468 12.8328 13.2347C12.8328 13.6227 13.1516 13.9372 13.5449 13.9372Z" fill="black"/>
<path d="M13.5913 7.68378H10.9211C10.4954 7.68378 10.1471 7.34018 10.1471 6.92023C10.1471 6.72935 10.2245 6.53846 10.356 6.40102C10.9443 5.79019 10.9133 4.82048 10.2941 4.24019C9.67492 3.65989 8.69195 3.69044 8.10371 4.30127C7.5387 4.8892 7.5387 5.80546 8.10371 6.39339C8.39783 6.6988 8.38235 7.18747 8.06502 7.46998C7.91796 7.59979 7.7322 7.67614 7.5387 7.67614H4.86842C4.54334 7.67614 4.24923 7.47762 4.14087 7.1722C3.11919 4.40053 4.56656 1.33108 7.37616 0.323203C10.1858 -0.684676 13.2972 0.743152 14.3189 3.51482C14.7523 4.69832 14.7523 5.99634 14.3189 7.1722C14.2105 7.47762 13.9164 7.67614 13.5913 7.67614V7.68378ZM12.2136 6.15669H13.0108C13.065 5.89708 13.096 5.62984 13.096 5.3626C13.096 3.25522 11.3622 1.54487 9.22601 1.54487C7.08978 1.54487 5.35604 3.25522 5.35604 5.3626C5.35604 5.62984 5.387 5.89708 5.44118 6.15669H6.23839C6.16873 5.89708 6.13003 5.62984 6.13003 5.3626C6.13003 3.67517 7.51548 2.30842 9.22601 2.30842C10.9365 2.30842 12.322 3.67517 12.322 5.3626C12.322 5.62984 12.2833 5.89708 12.2136 6.15669Z" fill="black"/>
<path d="M10.9211 7.68378H7.5387C7.32198 7.68378 7.12074 7.59215 6.97368 7.43944C5.80495 6.21013 5.86687 4.27837 7.113 3.12541C8.35913 1.97246 10.3173 2.03354 11.4861 3.26285C12.6006 4.43871 12.6006 6.26358 11.4861 7.43944C11.339 7.59215 11.1378 7.68378 10.9211 7.68378ZM7.91022 6.15669H10.5418C10.6966 5.91999 10.774 5.64511 10.774 5.3626C10.774 4.5227 10.0774 3.83551 9.22601 3.83551C8.37461 3.83551 7.67802 4.5227 7.67802 5.3626C7.67802 5.64511 7.75542 5.91999 7.91022 6.15669Z" fill="black"/>
</svg>
