<svg width="70" height="75" viewBox="0 0 70 75" fill="none" xmlns="http://www.w3.org/2000/svg">
<g clip-path="url(#clip0_904_9308)">
<rect width="70" height="75" fill="white"/>
<path d="M56.8484 53.0328V9.7508C56.8484 7.5677 55.0421 5.7893 52.8249 5.7893H44.4364C43.9095 2.5137 41.0304 0 37.5588 0H30.2895C26.818 0 23.9388 2.5137 23.412 5.7893H15.0235C12.8062 5.7893 11 7.5677 11 9.7508V64.6057C11 66.7907 12.8062 68.5672 15.0235 68.5672H40.4592C40.6097 68.7724 40.7602 68.9719 40.9146 69.1676C40.5943 69.5438 40.3917 70.0207 40.3917 70.547V73.8435C40.3917 75.0348 41.3739 76 42.5819 76H56.0359C57.2459 76 58.2262 75.0329 58.2262 73.8435V70.547C58.2262 70.1024 58.0892 69.6882 57.8518 69.3443C58.3748 68.8009 58.6469 68.2917 58.9267 67.5887C58.9749 67.4633 59 67.3303 59 67.1973V55.8182C59 54.5452 58.1027 53.466 56.8445 53.0366H56.8484V53.0328ZM43.0875 68.3886C41.8428 66.9389 40.6425 64.942 39.475 63.004C37.9834 60.5207 36.4434 57.9576 34.724 56.3939C34.6855 56.3597 34.6237 56.3027 34.6507 56.1317C34.6932 55.8448 34.9595 55.4439 35.3917 55.2311C36.0903 54.8872 37.0436 55.0829 37.4295 55.6472L39.0389 58.0165C39.3091 58.4117 39.805 58.5846 40.2681 58.4497C40.7294 58.311 41.0439 57.893 41.0439 57.4199V44.4049C41.0439 43.9622 41.5823 43.5746 42.1959 43.5746C42.8096 43.5746 43.348 43.9622 43.348 44.4049V51.3019C43.348 51.8966 43.8381 52.3792 44.4421 52.3792C45.0462 52.3792 45.5363 51.8966 45.5363 51.3019C45.5363 50.8592 46.0747 50.4716 46.6883 50.4716C47.302 50.4716 47.8404 50.8592 47.8404 51.3019V53.561C47.8404 54.1557 48.3305 54.6383 48.9345 54.6383C49.5386 54.6383 50.0287 54.1557 50.0287 53.561C50.0287 53.1183 50.5671 52.7307 51.1807 52.7307C51.7944 52.7307 52.3328 53.1183 52.3328 53.561V55.8163C52.3328 56.411 52.8229 56.8936 53.4269 56.8936C54.031 56.8936 54.5211 56.411 54.5211 55.8163C54.5211 55.3736 55.0595 54.986 55.6732 54.986C56.2868 54.986 56.8252 55.3736 56.8252 55.8163V66.9902C56.6226 67.4861 56.4373 67.7996 55.6732 68.3886H43.0875ZM50.1927 50.7167C50.1194 50.7357 50.0422 50.749 49.9708 50.7737C49.691 49.3772 48.3248 48.317 46.6826 48.317C46.2792 48.317 45.8894 48.3797 45.5305 48.4994V44.403C45.5305 42.7576 44.033 41.4181 42.1921 41.4181C40.3511 41.4181 38.8537 42.7576 38.8537 44.403V53.9752C37.7537 52.8732 35.9224 52.5635 34.4134 53.3026C33.3906 53.8042 32.6303 54.796 32.4817 55.8258C32.3621 56.6466 32.638 57.4294 33.2382 57.9728C33.8692 58.5485 34.4963 59.3237 35.1177 60.1996H17.6576V14.1493H50.1869V50.7167H50.1927ZM30.2915 2.1546H37.5607C39.8224 2.1546 41.7174 3.7088 42.2152 5.7893H25.637C26.1348 3.7088 28.0298 2.1546 30.2915 2.1546ZM15.0254 66.4126C14.0142 66.4126 13.1902 65.6013 13.1902 64.6057V9.7508C13.1902 8.7552 14.0142 7.9439 15.0254 7.9439H52.8287C53.8399 7.9439 54.6639 8.7552 54.6639 9.7508V52.9796C54.6002 52.9986 54.5288 53.0081 54.4651 53.0309C54.2567 51.9973 53.452 51.148 52.3791 50.7756L52.3752 13.0739C52.3752 12.4792 51.8851 11.9966 51.2811 11.9966H16.5634C15.9594 11.9966 15.4692 12.4792 15.4692 13.0739V61.2807C15.4692 61.8754 15.9594 62.358 16.5634 62.358H36.5322C36.8892 62.9337 37.2404 63.5208 37.5916 64.1022C38.0567 64.8736 38.5256 65.6526 39.0022 66.4145H15.0215H15.0254V66.4126ZM56.0398 73.8492L42.58 73.8454L42.5857 70.5413L56.0456 70.5451L56.0398 73.8492ZM21.0153 26.5316H28.3579C28.9619 26.5316 29.452 26.049 29.452 25.4543V18.2248C29.452 17.6301 28.9619 17.1475 28.3579 17.1475H21.0153C20.4113 17.1475 19.9211 17.6301 19.9211 18.2248V25.4543C19.9211 26.049 20.4113 26.5316 21.0153 26.5316ZM22.1075 19.3021H27.2618V24.377H22.1075V19.3021ZM32.4566 21.8405C32.4566 21.2458 32.9468 20.7632 33.5508 20.7632H46.8369C47.4409 20.7632 47.9311 21.2458 47.9311 21.8405C47.9311 22.4352 47.4409 22.9178 46.8369 22.9178H33.5508C32.9468 22.9178 32.4566 22.4352 32.4566 21.8405ZM21.0153 38.6688H28.3579C28.9619 38.6688 29.452 38.1862 29.452 37.5915V30.362C29.452 29.7673 28.9619 29.2847 28.3579 29.2847H21.0153C20.4113 29.2847 19.9211 29.7673 19.9211 30.362V37.5915C19.9211 38.1862 20.4113 38.6688 21.0153 38.6688ZM22.1075 31.4393H27.2618V36.5142H22.1075V31.4393ZM32.4566 33.9777C32.4566 33.383 32.9468 32.9004 33.5508 32.9004H46.8369C47.4409 32.9004 47.9311 33.383 47.9311 33.9777C47.9311 34.5724 47.4409 35.055 46.8369 35.055H33.5508C32.9468 35.055 32.4566 34.5724 32.4566 33.9777ZM21.0153 50.806H28.3579C28.9619 50.806 29.452 50.3234 29.452 49.7287V42.4992C29.452 41.9045 28.9619 41.4219 28.3579 41.4219H21.0153C20.4113 41.4219 19.9211 41.9045 19.9211 42.4992V49.7287C19.9211 50.3234 20.4113 50.806 21.0153 50.806ZM22.1075 43.5765H27.2618V48.6514H22.1075V43.5765Z" fill="#010101"/>
</g>
<defs>
<clipPath id="clip0_904_9308">
<rect width="70" height="75" fill="white"/>
</clipPath>
</defs>
</svg>
