<svg width="178" height="230" viewBox="0 0 178 230" fill="none" xmlns="http://www.w3.org/2000/svg">
<rect x="0.5" y="0.5" width="177" height="229" fill="white" stroke="#CCCCCC"/>
<path d="M52.4844 127.9V123.712H53.6604V134.848H52.4844V128.992H51.0684V134.62H49.9284V123.88H51.0684V127.9H52.4844ZM47.4684 125.68H44.4204V124.588H48.6324V125.572C48.6324 128.728 47.3004 131.344 45.0204 133.516L44.1564 132.64C46.3404 130.66 47.4684 128.164 47.4684 125.812V125.68ZM64.8713 132.052H63.6713V123.712H64.8713V132.052ZM58.7393 130.228C57.0833 130.228 55.7513 129.256 55.7513 127.24V127.012C55.7513 124.972 57.0833 124.012 58.7393 124.012C60.3833 124.012 61.7153 124.972 61.7153 127.012V127.24C61.7153 129.256 60.3833 130.228 58.7393 130.228ZM58.7393 129.172C59.7353 129.172 60.5153 128.524 60.5153 127.216V127.024C60.5153 125.704 59.7353 125.068 58.7393 125.068C57.7313 125.068 56.9513 125.704 56.9513 127.024V127.216C56.9513 128.524 57.7313 129.172 58.7393 129.172ZM65.3393 134.848H57.5033V131.236H58.7033V133.756H65.3393V134.848ZM72.8662 127.156V126.124H75.0382V123.712H76.2382V129.784H75.0382V127.156H72.8662ZM73.0942 129.724L70.0702 127.732C69.5062 128.536 68.6062 129.244 67.3822 129.904L66.8182 128.944C68.7382 127.864 69.6622 126.784 69.6622 125.308H67.2622V124.24H73.2622V125.308H70.8262C70.8262 125.836 70.7422 126.316 70.5742 126.772L73.6942 128.74L73.0942 129.724ZM71.2942 130.372H73.7182C75.3502 130.372 76.3822 131.332 76.3822 132.664C76.3822 134.008 75.3502 134.968 73.7182 134.968H71.2942C69.6742 134.968 68.6422 134.008 68.6422 132.664C68.6422 131.332 69.6742 130.372 71.2942 130.372ZM71.4862 133.888H73.5382C74.6422 133.888 75.1822 133.372 75.1822 132.664C75.1822 131.956 74.6422 131.44 73.5382 131.44H71.4862C70.3822 131.44 69.8302 131.956 69.8302 132.664C69.8302 133.372 70.3822 133.888 71.4862 133.888ZM83.9091 130.54V132.916H88.5411V134.02H78.0771V132.916H82.7211V130.54H79.3611V124.396H80.5611V126.436H86.0691V124.396H87.2691V130.54H83.9091ZM86.0691 127.516H80.5611V129.46H86.0691V127.516ZM97.796 128.008V123.712H98.996V134.848H97.796V129.1H95.384V128.008H97.796ZM93.644 126.58V126.604C93.644 127.336 93.548 128.032 93.356 128.704L96.584 132.424L95.72 133.216L92.888 129.952C92.336 131.128 91.508 132.232 90.404 133.336L89.564 132.52C91.424 130.648 92.456 128.848 92.456 126.604V126.58H89.96V125.488H92.468V123.724H93.656V125.488H96.188V126.58H93.644ZM110.375 134.848H109.187V123.712H110.375V134.848ZM103.535 133.264H101.435V128.308H105.587V125.608H101.435V124.528H106.787V129.364H102.635V132.184H103.751C105.023 132.184 106.607 132.052 107.975 131.836L108.119 132.88C106.823 133.12 105.131 133.264 103.535 133.264ZM121.13 123.712V126.04H122.858V127.132H121.13V129.844H119.93V123.712H121.13ZM116.678 124.192H117.83V129.352H112.418V124.192H113.57V125.716H116.678V124.192ZM113.57 126.772V128.308H116.678V126.772H113.57ZM116.402 130.432H118.754C120.362 130.432 121.394 131.368 121.394 132.7C121.394 134.032 120.362 134.968 118.754 134.968H116.402C114.794 134.968 113.762 134.032 113.762 132.7C113.762 131.368 114.794 130.432 116.402 130.432ZM116.594 133.888H118.562C119.654 133.888 120.194 133.396 120.194 132.688C120.194 131.992 119.654 131.5 118.562 131.5H116.594C115.502 131.5 114.962 131.992 114.962 132.688C114.962 133.396 115.502 133.888 116.594 133.888ZM130.217 129.724L127.097 127.912C126.497 128.704 125.525 129.364 124.205 129.952L123.713 128.944C125.537 128.104 126.533 127.168 126.629 125.944H124.097V124.888H126.653V123.58H127.817V124.888H130.397V125.944H127.805C127.781 126.292 127.721 126.616 127.613 126.928L130.769 128.704L130.217 129.724ZM131.933 129.964V123.712H133.133V129.964H131.933ZM133.133 134.848H125.765V130.648H133.133V134.848ZM131.933 131.716H126.953V133.78H131.933V131.716Z" fill="black"/>
<path d="M123.508 79.9459L120.176 78.0226C120.366 76.6031 120.466 75.1662 120.466 73.7329V51.4786C120.466 51.0456 120.181 50.6679 119.769 50.5403L88.0122 41.0414C87.8294 40.9862 87.6345 40.9862 87.4533 41.0414L55.6969 50.542C55.2846 50.6645 55 51.0474 55 51.4803V73.7329C55 91.7819 69.6846 106.466 87.7345 106.466C91.1189 106.466 94.4532 105.941 97.6565 104.915L106.238 109.869C106.39 109.955 106.559 110 106.726 110C106.894 110 107.064 109.957 107.214 109.869L123.512 100.458C123.814 100.284 124 99.9613 124 99.6128V80.7945C124 80.4443 123.814 80.1235 123.512 79.9493V79.9459H123.508ZM99.6971 91.8785L97.5926 90.6625L97.5323 86.026L99.6367 87.2421L99.6971 91.8785ZM92.3764 80.791L106.719 72.5099L110.875 74.9092L96.5318 83.1903L92.3764 80.791ZM98.4862 84.3219L112.829 76.0407L114.947 77.2654L100.604 85.5465L98.4862 84.3219ZM111.27 72.8842L107.206 70.5384C106.904 70.3642 106.531 70.3642 106.228 70.5384L89.9304 79.9493C89.6285 80.1235 89.4422 80.4478 89.4422 80.7945V97.2187C88.8713 97.2618 88.3003 97.2912 87.7276 97.2912C74.7473 97.2912 64.1837 86.7315 64.1837 73.7484V57.4449L87.7276 50.4005L111.272 57.4449V72.8877L111.268 72.8842H111.27ZM91.3966 82.4866L95.5606 84.8893L95.6417 91.2455C95.6469 91.5887 95.8315 91.9078 96.1299 92.0803L100.204 94.4348C100.356 94.521 100.525 94.5659 100.692 94.5659C100.86 94.5659 101.034 94.5227 101.186 94.4313C101.489 94.2537 101.674 93.9259 101.667 93.5775L101.601 88.3856L105.736 90.7746V107.335L91.3931 99.054V82.4935L91.3983 82.4883L91.3966 82.4866ZM106.716 89.0721L102.561 86.6729L116.904 78.3917L121.059 80.791L106.716 89.0721ZM87.7259 104.51C70.754 104.51 56.9475 90.7039 56.9475 73.7329V52.2082L87.7328 42.9991L118.511 52.2082V73.7329C118.511 74.8075 118.451 75.889 118.337 76.9584L113.224 74.0054C113.224 73.9157 113.233 73.8312 113.233 73.7415V56.7101C113.233 56.2772 112.948 55.8994 112.536 55.7718L88.0139 48.4342C87.8311 48.379 87.6362 48.379 87.4551 48.4342L62.9296 55.7735C62.5174 55.896 62.2327 56.2789 62.2327 56.7118V73.7432C62.2327 87.8009 73.6709 99.242 87.7328 99.242C88.3055 99.242 88.8764 99.2161 89.4474 99.1782V99.6146C89.4474 99.9647 89.6337 100.286 89.9356 100.46L95.3036 103.559C92.8369 104.191 90.2995 104.511 87.7311 104.511H87.7259V104.51ZM107.694 107.328V90.7677L122.037 82.4866V99.0471L107.694 107.328ZM119.786 96.7702C120.055 97.2377 119.895 97.8362 119.427 98.107L115.353 100.458C115.198 100.548 115.032 100.589 114.865 100.589C114.527 100.589 114.199 100.415 114.016 100.099C113.747 99.6318 113.907 99.0333 114.375 98.7625L118.449 96.4115C118.92 96.1424 119.515 96.3028 119.786 96.7702ZM85.5559 79.4353L98.857 66.1348C99.2382 65.7536 99.8575 65.7536 100.239 66.1348C100.62 66.516 100.62 67.1352 100.239 67.5164L86.2459 81.5086C86.063 81.6914 85.8129 81.7949 85.5542 81.7949C85.2954 81.7949 85.047 81.6914 84.8625 81.5086L75.2079 71.8545C74.8267 71.4733 74.8267 70.8541 75.2079 70.4729C75.5891 70.0917 76.2083 70.0917 76.5896 70.4729L85.5524 79.4353H85.5559Z" fill="#010101"/>
<rect x="49.5" y="156.5" width="79" height="29" fill="white" stroke="#CCCCCC"/>
<rect x="96" y="170" width="20" height="2" fill="#CCCCCC"/>
<rect x="110.414" y="164" width="10" height="2" transform="rotate(45 110.414 164)" fill="#CCCCCC"/>
<rect x="117.485" y="171.071" width="10" height="2" transform="rotate(135 117.485 171.071)" fill="#CCCCCC"/>
<path d="M70.4005 166.84C72.0105 166.84 73.2305 167.66 73.2305 169.41C73.2305 171.18 72.0105 171.98 70.4005 171.98H68.5405V175.06H66.9705V166.84H70.4005ZM68.5405 170.6H70.3205C71.1905 170.6 71.6605 170.17 71.6605 169.41C71.6605 168.65 71.1905 168.22 70.3205 168.22H68.5405V170.6ZM75.7475 175.06H74.1775V166.84H75.7475V175.06ZM80.4663 175.21C78.5563 175.21 76.8963 173.92 76.8963 171.65V170.25C76.8963 167.99 78.5463 166.69 80.4663 166.69C82.2363 166.69 83.4963 167.72 83.8963 169.42L82.4063 169.85C82.1363 168.74 81.5463 168.15 80.4663 168.15C79.3863 168.15 78.4663 168.88 78.4663 170.31V171.59C78.4663 173.03 79.3863 173.75 80.4663 173.75C81.5463 173.75 82.1363 173.16 82.4063 172.05L83.8963 172.48C83.4963 174.18 82.2363 175.21 80.4663 175.21ZM91.6779 175.06H89.6979L87.1179 171.69L86.5679 172.32V175.06H84.9979V166.84H86.5679V170.03L89.3279 166.84H91.3779L88.1779 170.49L91.6779 175.06Z" fill="black"/>
</svg>
