<svg width="17" height="16" viewBox="0 0 17 16" fill="none" xmlns="http://www.w3.org/2000/svg">
<path d="M11.5378 8.50066C11.9008 7.71727 12.0881 6.86387 12.0898 6.00047C12.0898 2.68688 9.41783 0 6.12265 0C2.82747 0 0.155518 2.68688 0.155518 6.00047C0.155518 9.31406 2.82747 12.0009 6.12265 12.0009C6.98126 12.0009 7.82991 11.8109 8.60896 11.4459L12.5357 15.3912C13.3429 16.2029 14.654 16.2029 15.4612 15.3912C16.2684 14.5795 16.2684 13.261 15.4612 12.4493L11.5378 8.50066ZM1.48155 6.00047C1.48155 3.4236 3.5601 1.33344 6.12265 1.33344C8.6852 1.33344 10.7638 3.4236 10.7638 6.00047C10.7638 8.57734 8.6852 10.6675 6.12265 10.6675C3.5601 10.6675 1.48155 8.57734 1.48155 6.00047ZM13.9993 14.6678C13.802 14.6678 13.6114 14.5895 13.4722 14.4495L9.77752 10.7325C10.1704 10.4258 10.5234 10.0708 10.8284 9.67576L14.5247 13.391C14.6623 13.5311 14.7402 13.7211 14.7418 13.9194C14.7418 14.3328 14.4103 14.6661 13.9993 14.6678Z" fill="black"/>
</svg>
