<svg width="90" height="24" viewBox="0 0 90 24" fill="none" xmlns="http://www.w3.org/2000/svg">
<path d="M71.3939 2.77367C71.3939 2.77367 71.3871 2.77367 71.3802 2.77367C71.3802 2.77367 71.3803 2.77367 71.3735 2.77367C70.1816 2.77367 69.2213 3.73665 69.2213 4.91664C69.2213 6.09664 70.1884 7.05962 71.3735 7.05962C72.5585 7.05962 73.5255 6.09664 73.5255 4.91664C73.5255 3.73665 72.5721 2.78723 71.4007 2.77367H71.3939Z" fill="#1F1F1F"/>
<path d="M16.2089 2.64482C15.1192 2.64482 14.1112 2.85504 13.2123 3.2755C12.5857 3.56711 12.0204 3.9401 11.5369 4.39446C11.1078 3.9401 10.597 3.56033 10.0318 3.2755C9.20772 2.86183 8.26788 2.6516 7.24631 2.6516C6.40182 2.6516 5.60499 2.80079 4.87628 3.0924C4.49489 3.24838 4.14075 3.43148 3.80704 3.64849C3.73893 3.54676 3.65721 3.4586 3.56867 3.37044C3.18048 2.99746 2.68331 2.80757 2.09762 2.80757C1.51192 2.80757 1.01476 3.00424 0.61294 3.38401C0.211124 3.77056 0 4.27918 0 4.88952V16.8251C0 17.4151 0.204313 17.9101 0.599319 18.3103C1.00114 18.7104 1.4983 18.907 2.09081 18.907C2.68331 18.907 3.21453 18.7036 3.60272 18.2967C3.98411 17.9034 4.18161 17.4015 4.18161 16.8183V9.25685C4.18161 8.43628 4.41317 7.78525 4.8899 7.27663C5.35301 6.78158 5.94552 6.53744 6.69467 6.53744C7.44381 6.53744 7.96141 6.74089 8.37685 7.16135C8.78547 7.5818 8.99659 8.25318 8.99659 9.14835V16.8183C8.99659 17.4083 9.20091 17.9034 9.59591 18.3035C9.99773 18.7036 10.4949 18.9003 11.0874 18.9003C11.6799 18.9003 12.2111 18.6968 12.5993 18.2899C12.9807 17.8966 13.1782 17.3947 13.1782 16.8115V9.25007C13.1782 8.4295 13.4098 7.77847 13.8865 7.26985C14.3496 6.7748 14.9285 6.53066 15.664 6.53066C16.3995 6.53066 16.9308 6.73411 17.3462 7.15456C17.7548 7.57502 17.9659 8.2464 17.9659 9.14157V16.8115C17.9659 17.4015 18.1703 17.9034 18.5653 18.2967C18.9671 18.6968 19.4642 18.8935 20.0568 18.8935C20.6493 18.8935 21.1805 18.69 21.5687 18.2831C21.9501 17.8898 22.1476 17.388 22.1476 16.8047V9.13478C22.1476 7.13422 21.5959 5.53377 20.5131 4.3809C19.4166 3.21447 17.9659 2.62447 16.202 2.62447L16.2089 2.64482Z" fill="#F6AC36"/>
<path d="M36.4563 3.6078C35.3394 2.93642 34.0114 2.59056 32.4994 2.59056C30.9875 2.59056 29.5914 2.9432 28.3859 3.64171C27.1737 4.34021 26.2066 5.33032 25.5255 6.57813C24.8513 7.81238 24.5108 9.22295 24.5108 10.7691C24.5108 12.3153 24.8717 13.7327 25.5936 14.9602C26.3156 16.1944 27.3235 17.1777 28.6039 17.8695C29.8706 18.5612 31.3212 18.907 32.9081 18.907C33.807 18.907 34.7605 18.7443 35.7344 18.412C36.7151 18.0797 37.5528 17.6524 38.2134 17.1235C38.6833 16.7708 38.9353 16.2961 38.9353 15.7468C38.9353 15.3603 38.8127 14.7974 38.2134 14.3023C37.8797 14.004 37.4438 13.848 36.9262 13.848C36.4086 13.848 35.9728 13.9972 35.5982 14.2888C35.2849 14.5261 34.8695 14.7364 34.3655 14.9059C33.8615 15.0754 33.3712 15.1636 32.9149 15.1636C31.7094 15.1636 30.7287 14.8381 29.9115 14.1735C29.319 13.692 28.9103 13.1088 28.6583 12.4103H37.9818C38.5335 12.4103 38.9966 12.2272 39.3712 11.8745C39.7457 11.5151 39.9432 11.0472 39.9432 10.5114C39.9432 8.99237 39.6436 7.62249 39.0579 6.4425C38.4586 5.23538 37.5868 4.27918 36.4699 3.60102L36.4563 3.6078ZM32.4994 6.32721C33.5006 6.32721 34.277 6.61204 34.8763 7.19525C35.3326 7.63606 35.6459 8.17858 35.8434 8.8364H28.6856C28.9171 8.18536 29.2781 7.6564 29.7821 7.22238C30.4699 6.61882 31.3621 6.32721 32.4994 6.32721Z" fill="#F6AC36"/>
<path d="M62.336 3.66205C61.0897 2.94999 59.6935 2.59056 58.1952 2.59056C56.6969 2.59056 55.3076 2.94999 54.0749 3.66883C52.849 4.3809 51.8615 5.37101 51.1464 6.61204C50.4313 7.85307 50.0704 9.25007 50.0704 10.7624V21.9181C50.0704 22.5284 50.2747 23.037 50.6833 23.4236C51.0783 23.8033 51.5823 24 52.168 24C52.7537 24 53.2849 23.8033 53.6731 23.4168C54.0613 23.0302 54.2588 22.5216 54.2588 21.9181V17.4287C54.647 17.7203 55.0692 17.978 55.5187 18.195C56.5131 18.6697 57.5959 18.907 58.7401 18.907C60.1635 18.907 61.4711 18.5476 62.6288 17.8355C63.7866 17.1303 64.706 16.1402 65.3666 14.8923C66.0204 13.6581 66.3541 12.2679 66.3541 10.7624C66.3541 9.25685 65.9932 7.85307 65.2917 6.61204C64.5834 5.37101 63.5959 4.3809 62.3428 3.66205H62.336ZM56.1317 6.99181C56.7514 6.61882 57.4257 6.43572 58.1952 6.43572C58.9648 6.43572 59.6527 6.61882 60.2588 6.99181C60.8717 7.36479 61.3689 7.88019 61.723 8.53122C62.084 9.18904 62.2679 9.94179 62.2679 10.7624C62.2679 11.5829 62.084 12.3289 61.723 12.9799C61.3621 13.6242 60.8717 14.1396 60.2588 14.5126C59.6459 14.8788 58.9512 15.0687 58.1952 15.0687C57.4393 15.0687 56.7446 14.8856 56.1317 14.5126C55.5187 14.1396 55.0284 13.631 54.681 12.9867C54.3269 12.3357 54.1498 11.5897 54.1498 10.7691C54.1498 9.94857 54.3269 9.18904 54.681 8.53122C55.0284 7.88019 55.5187 7.36479 56.1317 6.99859V6.99181Z" fill="#1F1F1F"/>
<path d="M71.3666 8.1718C70.7809 8.1718 70.2838 8.36847 69.882 8.74823C69.4801 9.13478 69.269 9.6434 69.269 10.2537V16.8251C69.269 17.4151 69.4733 17.9101 69.8683 18.3103C70.2633 18.7104 70.7673 18.907 71.3598 18.907C71.9523 18.907 72.4835 18.7036 72.8717 18.2967C73.2531 17.9034 73.4506 17.4083 73.4506 16.8183V10.247C73.4506 9.6434 73.2531 9.13478 72.8649 8.74823C72.4767 8.36168 71.966 8.16502 71.3598 8.16502L71.3666 8.1718Z" fill="#1F1F1F"/>
<path d="M44.7446 0C43.6073 0 42.681 0.922294 42.681 2.05482V16.859C42.681 17.9915 43.6073 18.9138 44.7446 18.9138C45.8819 18.9138 46.8082 17.9915 46.8082 16.859V2.05482C46.8082 0.922294 45.8819 0 44.7446 0Z" fill="#F6AC36"/>
<path d="M89.5369 15.618L84.756 9.77225L89.1691 6.19836C89.6254 5.83216 89.8638 5.32354 89.8638 4.73354C89.8638 4.2317 89.6799 3.77734 89.3326 3.4247C88.9648 2.98389 88.4608 2.75332 87.8819 2.75332C87.378 2.75332 86.9081 2.9432 86.5743 3.28228L81.2758 7.6564V4.69963C81.2758 3.56711 80.3496 2.64482 79.2123 2.64482C78.0749 2.64482 77.1487 3.56711 77.1487 4.69963V16.859C77.1487 17.9915 78.0749 18.9138 79.2123 18.9138C80.3496 18.9138 81.2758 17.9915 81.2758 16.859V12.8579L81.7594 12.4306L86.3973 18.1407C86.7855 18.6358 87.3167 18.9003 87.9364 18.9003C88.4063 18.9003 88.849 18.7375 89.2577 18.412C89.7412 18.0051 90 17.4761 90 16.8726C90 16.3775 89.8434 15.9435 89.5369 15.6112V15.618Z" fill="#1F1F1F"/>
<path d="M43.2736 16.5877C43.1714 16.5877 43.0965 16.6691 43.0965 16.7641C43.0965 18.2085 44.4381 18.412 44.4518 18.412C44.5471 18.4255 44.6425 18.3577 44.6561 18.2628C44.6697 18.1678 44.6016 18.0729 44.5062 18.0593C44.4654 18.0593 43.4574 17.8898 43.4574 16.7641C43.4574 16.6623 43.3757 16.5877 43.2804 16.5877H43.2736Z" fill="white"/>
<path d="M43.2736 16.208C43.3789 16.208 43.4642 16.123 43.4642 16.0181C43.4642 15.9132 43.3789 15.8282 43.2736 15.8282C43.1682 15.8282 43.0829 15.9132 43.0829 16.0181C43.0829 16.123 43.1682 16.208 43.2736 16.208Z" fill="white"/>
</svg>
