<svg width="430" height="347" viewBox="0 0 430 347" fill="none" xmlns="http://www.w3.org/2000/svg">
<path d="M0 0V309.482C0 309.482 15.3087 315.291 27.8844 295.708C27.8844 295.708 43.3575 270.769 54.6182 253.321C54.6182 253.321 64.276 235.648 84.7219 235.648C84.7219 235.648 98.6744 234.704 110.716 253.157C112.668 256.154 114.25 259.356 115.648 262.64C118.216 268.675 124.298 281.997 130.895 289.817C130.895 289.817 138.703 301.066 154.793 301.066C154.793 301.066 173.862 301.066 178.691 278.117C178.691 278.117 181.321 266.93 184.506 258.063C186.253 253.219 189.458 248.949 193.876 246.301C196.568 244.7 199.938 243.448 203.965 243.448C203.965 243.448 233.144 241.621 233.144 278.569V322.639C233.144 322.639 232.446 346.963 249.234 346.963C249.234 346.963 268.529 349.036 268.529 322.188C268.529 322.188 263.926 258.843 261.871 229.942C261.871 229.942 259.714 210.277 264.44 196.34C266.577 189.997 272.577 185.605 279.276 185.502C279.358 185.502 293.105 186.2 293.105 201.472C293.105 201.472 293.331 224.872 290.804 244.167C290.804 244.167 288.585 261.121 287.557 274.669C287.454 276.147 287.372 277.604 287.331 279.082C287.167 285.856 287.311 302.441 304.345 302.441C304.345 302.441 321.709 304.453 323.887 291.665C324.154 290.146 324.051 288.586 323.805 287.046C322.962 281.771 320.661 266.602 320.661 260.198C320.661 260.198 320.435 239.548 340.881 227.602C340.881 227.602 348.73 222.655 360.957 219.391C370.594 216.825 380.663 216.251 390.567 217.338C401.355 218.508 419.52 221.362 430 227.827V0H0Z" fill="#FFFBD6"/>
</svg>
