<svg width="83" height="35" viewBox="0 0 83 35" fill="none" xmlns="http://www.w3.org/2000/svg">
<path d="M42.1168 11.4834L39.3661 14.1725V28.4828C39.3661 29.4939 40.1667 30.3558 41.2009 30.3923C42.2352 30.4289 43.1759 29.5822 43.1759 28.5316V13.1432C43.1759 12.4153 42.7461 11.7849 42.123 11.4804C42.123 11.4804 42.1199 11.4804 42.1168 11.4804V11.4834Z" fill="#F6AE24"/>
<path d="M65.8449 15.7774C65.8449 15.7774 65.8355 15.7774 65.8324 15.7774C65.8324 15.7774 65.8324 15.7774 65.8293 15.7774C65.8293 15.7774 65.8231 15.7774 65.82 15.7774C64.7234 15.7774 63.8325 16.6484 63.8325 17.7204C63.8325 18.7924 64.7234 19.6634 65.82 19.6634C66.9165 19.6634 67.8074 18.7924 67.8074 17.7204C67.8074 16.6484 66.9321 15.7927 65.8449 15.7774Z" fill="#1F1F1F"/>
<path d="M14.9496 15.6648C13.9465 15.6648 13.0151 15.8566 12.1865 16.2343C11.6102 16.4962 11.0899 16.8372 10.6413 17.2453C10.2426 16.8312 9.77533 16.4901 9.25199 16.2312C8.48878 15.8536 7.62588 15.6648 6.67888 15.6648C5.90321 15.6648 5.16803 15.7988 4.49204 16.0637C4.14315 16.2008 3.81294 16.3713 3.50766 16.5693C3.44224 16.4809 3.36747 16.3957 3.28648 16.3195C2.92824 15.9815 2.47343 15.8109 1.93139 15.8109C1.38936 15.8109 0.931429 15.9876 0.563842 16.3317C0.190024 16.685 0 17.1418 0 17.696V28.5011C0 29.0341 0.186909 29.4878 0.554496 29.8441C0.922084 30.2035 1.38624 30.3862 1.93139 30.3862C2.47654 30.3862 2.96562 30.2005 3.32698 29.8381C3.6821 29.4787 3.86278 29.031 3.86278 28.5011V21.652C3.86278 20.9089 4.07773 20.3212 4.51696 19.8583C4.94374 19.4076 5.48889 19.1913 6.18045 19.1913C6.87202 19.1913 7.35175 19.3771 7.72868 19.7578C8.10873 20.1415 8.29875 20.7445 8.29875 21.5546V28.5011C8.29875 29.0341 8.48566 29.4878 8.85325 29.8441C9.22084 30.2035 9.685 30.3862 10.2301 30.3862C10.7753 30.3862 11.2644 30.2005 11.6257 29.835C11.9809 29.4756 12.1584 29.028 12.1584 28.4981V21.649C12.1584 20.9059 12.3734 20.3181 12.8126 19.8552C13.2394 19.4045 13.7752 19.1883 14.4512 19.1883C15.1272 19.1883 15.6225 19.3741 15.9994 19.7547C16.3794 20.1385 16.5695 20.7414 16.5695 21.5515V28.4981C16.5695 29.031 16.7564 29.4848 17.124 29.8411C17.4916 30.2005 17.9526 30.3832 18.4977 30.3832C19.0429 30.3832 19.532 30.1974 19.8933 29.832C20.2485 29.4726 20.426 29.0249 20.426 28.495V21.5485C20.426 19.7334 19.9183 18.2869 18.9183 17.2453C17.9059 16.1916 16.5695 15.6556 14.9465 15.6556L14.9496 15.6648Z" fill="#F6AE24"/>
<path d="M33.6249 16.5358C32.5969 15.9267 31.3695 15.616 29.9771 15.616C28.5846 15.616 27.298 15.9358 26.1797 16.5662C25.0583 17.1996 24.1735 18.092 23.5443 19.2218C22.9213 20.3425 22.6066 21.6185 22.6066 23.0164C22.6066 24.4142 22.9431 25.6994 23.6035 26.814C24.267 27.9347 25.2015 28.8209 26.3791 29.4482C27.5473 30.0725 28.8837 30.3893 30.3478 30.3893C31.1795 30.3893 32.058 30.24 32.9552 29.9416C33.8617 29.6431 34.6311 29.2503 35.2386 28.7783C35.6716 28.4615 35.9021 28.0291 35.9021 27.5327C35.9021 27.1825 35.7868 26.6739 35.2386 26.2262C34.9302 25.9521 34.5314 25.8151 34.0486 25.8151C33.5657 25.8151 33.1732 25.9491 32.8274 26.214C32.5408 26.4303 32.1577 26.616 31.6873 26.7713C31.22 26.9267 30.7714 27.0028 30.3478 27.0028C29.2357 27.0028 28.3292 26.7104 27.5753 26.1044C27.027 25.6659 26.6501 25.142 26.4227 24.5086H35.0174C35.5251 24.5086 35.955 24.3472 36.2977 24.0244C36.6404 23.7016 36.8242 23.2752 36.8242 22.791C36.8242 21.4175 36.55 20.178 36.0111 19.1061C35.4597 18.0097 34.656 17.1448 33.6249 16.5327V16.5358ZM29.9771 18.9995C30.8992 18.9995 31.6156 19.2583 32.1732 19.7852C32.5938 20.1841 32.8866 20.6744 33.0642 21.2744H26.4632C26.6781 20.6866 27.0114 20.2055 27.4725 19.8096C28.108 19.2644 28.9273 18.9995 29.9802 18.9995H29.9771Z" fill="#F6AE24"/>
<path d="M57.4932 16.5875C56.3437 15.9419 55.0571 15.616 53.674 15.616C52.2909 15.616 51.0074 15.9449 49.8735 16.5906C48.7427 17.2362 47.8331 18.1346 47.1727 19.2553C46.5123 20.379 46.179 21.6429 46.179 23.0133V33.1149C46.179 33.6692 46.369 34.126 46.7428 34.4792C47.1104 34.8264 47.5683 35 48.1103 35C48.6524 35 49.1383 34.8203 49.4966 34.4701C49.8548 34.1168 50.0386 33.6631 50.0386 33.1149V29.0493C50.4 29.3142 50.7894 29.5457 51.2006 29.7406C52.1133 30.17 53.1133 30.3862 54.1693 30.3862C55.4808 30.3862 56.6895 30.0604 57.758 29.4147C58.8233 28.7722 59.6738 27.8768 60.2812 26.75C60.8856 25.6324 61.1908 24.3746 61.1908 23.0103C61.1908 21.6459 60.8606 20.376 60.2096 19.2553C59.5585 18.1315 58.6427 17.2331 57.4932 16.5845V16.5875ZM51.7706 19.5964C52.3407 19.2583 52.9637 19.0939 53.6771 19.0939C54.3905 19.0939 55.0197 19.2614 55.5836 19.5964C56.1505 19.9314 56.6053 20.4004 56.9356 20.9912C57.2689 21.5881 57.4371 22.2672 57.4371 23.0133C57.4371 23.7594 57.2689 24.4294 56.9356 25.0202C56.6053 25.6049 56.1474 26.0709 55.5836 26.4059C55.0229 26.7378 54.3811 26.9084 53.6771 26.9084C52.9731 26.9084 52.3407 26.7439 51.7706 26.4059C51.2037 26.0709 50.7551 25.6049 50.4342 25.0233C50.1072 24.4355 49.942 23.7594 49.942 23.0133C49.942 22.2672 50.1072 21.585 50.4342 20.9881C50.7582 20.4004 51.2068 19.9314 51.7706 19.5964Z" fill="#1F1F1F"/>
<path d="M65.82 20.6653C65.2779 20.6653 64.82 20.8419 64.4524 21.1861C64.0786 21.5393 63.8886 21.9962 63.8886 22.5504V28.5011C63.8886 29.0341 64.0755 29.4878 64.4431 29.8441C64.8107 30.2035 65.2717 30.3862 65.8168 30.3862C66.362 30.3862 66.8511 30.2005 67.2124 29.8381C67.5676 29.4817 67.7482 29.031 67.7482 28.5011V22.5504C67.7482 22.0022 67.5644 21.5454 67.2062 21.1952C66.848 20.845 66.3807 20.6653 65.82 20.6653Z" fill="#1F1F1F"/>
<path d="M82.5763 27.4109L78.1653 22.121L82.2337 18.8868C82.6542 18.5518 82.8754 18.095 82.8754 17.559C82.8754 17.1083 82.7041 16.6972 82.3863 16.3774C82.0468 15.9815 81.5826 15.7714 81.0468 15.7714C80.5827 15.7714 80.1496 15.9449 79.8412 16.2464L74.9536 20.2055V17.5255C74.9536 16.4992 74.1 15.6648 73.0502 15.6648C72.0004 15.6648 71.1469 16.4992 71.1469 17.5255V28.5346C71.1469 29.5609 72.0004 30.3954 73.0502 30.3954C74.1 30.3954 74.9536 29.5609 74.9536 28.5346V24.9136L75.4022 24.5269L79.6793 29.698C80.0375 30.1487 80.5266 30.3862 81.0967 30.3862C81.5297 30.3862 81.9409 30.237 82.3147 29.9446C82.7633 29.5792 83 29.095 83 28.5498C83 28.0991 82.8536 27.7063 82.5732 27.4078L82.5763 27.4109Z" fill="#1F1F1F"/>
<path d="M39.9082 28.2849C39.8178 28.2849 39.7431 28.358 39.7431 28.4463C39.7431 29.7558 40.9829 29.9385 40.9953 29.9416C41.0857 29.9507 41.1698 29.8929 41.1823 29.8046C41.1947 29.7162 41.1324 29.634 41.0421 29.6218C41.0016 29.6157 40.0733 29.4696 40.0733 28.4463C40.0733 28.358 39.9985 28.2849 39.9082 28.2849Z" fill="white"/>
<path d="M39.9082 27.9408C40.0028 27.9408 40.0795 27.8658 40.0795 27.7733C40.0795 27.6808 40.0028 27.6058 39.9082 27.6058C39.8135 27.6058 39.7368 27.6808 39.7368 27.7733C39.7368 27.8658 39.8135 27.9408 39.9082 27.9408Z" fill="white"/>
<path d="M35.8117 13.3624C36.3818 13.9167 37.2696 13.9472 37.7961 13.4264L42.3785 8.94662C42.908 8.43195 42.8769 7.56096 42.3131 7.0067C42.1604 6.85443 41.9766 6.74175 41.7804 6.66866C41.7025 6.63821 41.6184 6.65343 41.5623 6.70825L35.5033 12.6316C35.4473 12.6864 35.4317 12.7686 35.4628 12.8447C35.5376 13.0366 35.6529 13.2132 35.8086 13.3655L35.8117 13.3624Z" fill="#F6AE24"/>
<path d="M33.5906 0.00228405C33.5283 -0.00685215 33.4629 0.0114202 33.4193 0.0571012L28.7061 4.66479C28.6625 4.70742 28.6407 4.77138 28.65 4.83229C28.6967 5.11855 28.8494 5.98345 29.0799 6.90011C29.1173 7.05238 29.3104 7.1072 29.4226 7.00061L35.8086 0.757543C35.9208 0.647908 35.8616 0.459094 35.7058 0.422549C34.7651 0.19719 33.8803 0.0510104 33.5906 0.00228405Z" fill="#F6AE24"/>
<path d="M37.4659 1.03163L29.6998 8.62381C29.6406 8.68167 29.6251 8.76999 29.6624 8.84612C29.8151 9.1598 30.1827 9.86937 30.625 10.4328C30.6998 10.5302 30.8462 10.5394 30.9303 10.4571L39.3412 2.23456C39.4253 2.15234 39.416 2.0092 39.3163 1.93611C38.7369 1.50367 38.0142 1.14431 37.6933 0.995084C37.6154 0.958539 37.5251 0.973766 37.4659 1.03163Z" fill="#F6AE24"/>
<path d="M40.9891 4.20798C40.8707 3.84558 40.6994 3.51363 40.5094 3.22432C40.4408 3.11773 40.2913 3.1025 40.201 3.19082L31.9085 11.2977C31.8181 11.386 31.8337 11.5322 31.9427 11.5992C32.2387 11.7849 32.5782 11.9555 32.9489 12.0682C32.9489 12.0682 33.3259 12.1869 33.8336 12.3148C33.9022 12.3331 33.9738 12.3148 34.0236 12.2631L41.1916 5.2556C41.2414 5.20687 41.2601 5.13683 41.2446 5.06983C41.1106 4.57647 40.9922 4.20493 40.9922 4.20493L40.9891 4.20798Z" fill="#F6AE24"/>
</svg>
