<svg width="22" height="20" viewBox="0 0 22 20" fill="none" xmlns="http://www.w3.org/2000/svg">
<path d="M0.879002 19.9969C0.395863 19.9969 0 19.608 0 19.1264V3.57772C0 3.09925 0.392746 2.70721 0.879002 2.70721H6.79201C7.27515 2.70721 7.67101 3.09616 7.67101 3.57772C7.67101 4.05927 7.27826 4.44822 6.79201 4.44822H1.75489V18.2621H14.6438V14.8387C14.6438 14.3602 15.0366 13.9682 15.5228 13.9682C16.0091 13.9682 16.4018 14.3572 16.4018 14.8387V19.1295C16.4018 19.608 16.0091 20 15.5228 20H0.879002V19.9969Z" fill="#F6AC36"/>
<path d="M10.3049 17.5953C10.1865 17.5953 10.0711 17.5706 9.95891 17.5243C6.43979 16.021 4.8314 12.2025 6.04704 8.23584C7.16605 4.59639 9.90281 2.75351 14.1825 2.75351H14.4786V0.870504C14.4786 0.518598 14.6906 0.203735 15.0179 0.0679117C15.1269 0.0246952 15.2423 0 15.3576 0C15.5883 0 15.8065 0.0864331 15.9717 0.246952L21.7351 5.81571C21.9034 5.97932 22 6.20466 22 6.43926C22 6.67387 21.9034 6.89921 21.7351 7.06282L15.9717 12.6347C15.8065 12.7921 15.5883 12.8816 15.3576 12.8816C15.2423 12.8816 15.1269 12.86 15.021 12.8137C14.6937 12.6779 14.4817 12.3661 14.4817 12.0142L14.4755 9.98611C14.3009 9.9645 14.1264 9.95524 13.9581 9.95524C13.0666 9.95524 12.2967 10.2361 11.667 10.7918C10.6447 11.6932 10.2176 13.1224 10.3361 14.0114C10.5013 15.24 11.053 16.2649 11.0779 16.3081C11.2587 16.6353 11.212 17.0397 10.9595 17.3113C10.7943 17.4934 10.5574 17.5953 10.308 17.5953H10.3049ZM14.1825 4.49143C10.7195 4.49143 8.60612 5.88054 7.72712 8.74209C7.07878 10.8535 7.41542 12.9217 8.61547 14.4004C8.60612 14.3448 8.59989 14.2923 8.59054 14.2398C8.41287 12.9187 8.93341 10.869 10.495 9.4922C11.159 8.90878 12.2936 8.21114 13.93 8.21114C14.4537 8.21114 15.0023 8.28214 15.5633 8.42105C15.953 8.51983 16.2241 8.86556 16.2241 9.26377V9.95215L19.8586 6.43926L16.2304 2.93255V3.62093C16.2304 4.0994 15.8376 4.49143 15.3514 4.49143C15.3358 4.49143 15.3171 4.49143 15.3015 4.49143H14.1794H14.1825Z" fill="#F6AC36"/>
</svg>
